<svg id="Camada_1" data-name="Camada 1" xmlns="http://www.w3.org/2000/svg" width="50px" height="50px" viewBox="0 0 50 50"><title>cnmpN</title><path d="M16.68,17.31v2.21c0,.79.07,1.58,0,2.21,0,0-.05,0-.05.05s0,.17-.05.26a1.38,1.38,0,0,1-.05.16h-.05s0,.09,0,.1h-.05s0,.09,0,.11-.23.29-.32.37-.13.05-.21.1-.12.14-.16.16-.21,0-.32.05,0,.05-.05.05a.67.67,0,0,0-.16,0,7.13,7.13,0,0,1-1.95.05H11.36a15.59,15.59,0,0,1,.05-2.05s0-.19,0-.21h.05a1.84,1.84,0,0,1,.11-.53.4.4,0,0,0,.05-.16s.06-.15.11-.26a1.51,1.51,0,0,1,.05-.16s.09-.08.1-.1,0-.11.05-.16.08-.07.1-.1a2,2,0,0,1,.16-.26,2.34,2.34,0,0,1,.16-.26s.15-.08.21-.16,0-.13.05-.16.19-.09.26-.16.13-.14.21-.21l.21-.16s.08-.09.1-.11.11,0,.16-.05.08-.09.11-.11.18,0,.32-.1.08-.09.1-.11.23,0,.26-.05,0,0,.11-.05l.16-.05a3.21,3.21,0,0,1,.37-.11c.22,0,.48,0,.74-.05A2,2,0,0,1,16.68,17.31Z" style="fill:#fff"/><path d="M17.57,17.26H33.05a12.9,12.9,0,0,1,1.37.05,2.13,2.13,0,0,1,.21.05,4.39,4.39,0,0,1,.47.05s0,.05.05.05h.05l.26.11a1.94,1.94,0,0,1,.21.05s.08.09.11.11.24.09.37.16l.16.1a1.5,1.5,0,0,1,.16.05s.06.13.1.16.11,0,.16.05.23.24.37.37l.11.1c.1.1.2.23.32.37a2.83,2.83,0,0,1,.16.26s.09.07.11.1,0,.09,0,.11a.57.57,0,0,1,.16.21s0,.1.05.16.09.08.1.11,0,.07,0,.1,0,.09.05.16,0,0,.05.05a4,4,0,0,1,.1.53s0,.1,0,.11.1.46.11.68c0,.48,0,1,0,1.53H20.78A6.76,6.76,0,0,1,18.47,23s0,0-.05-.05-.36-.25-.47-.37-.12-.11-.16-.16,0-.09,0-.11-.1,0-.11-.05,0-.09,0-.1-.06-.14-.1-.32c0,0-.05,0-.05-.05-.06-1.09.07-2.52,0-3.68a1.17,1.17,0,0,0,0-.16,1.21,1.21,0,0,1-.05-.42s.05,0,.05-.05-.09-.1,0-.11S17.51,17.27,17.57,17.26Z" style="fill:#fff"/><path d="M11.41,23.89c1.25.07,2.41-.1,3.68,0,0,0,.19,0,.21,0s0,.05,0,.05.18,0,.21,0,0,.05,0,.05a1.34,1.34,0,0,1,.21.05s.07.09.11.1.09,0,.1,0a1.44,1.44,0,0,0,.16.21,1.91,1.91,0,0,1,.26.21s0,.11.05.16.09.08.11.11,0,.09,0,.11c.18.15.15.74.16,1.16.06,5.71,0,11.56,0,17.27a4.69,4.69,0,0,1-.05,1.16,9.92,9.92,0,0,1-1.95-.16s0-.05-.05-.05a1.31,1.31,0,0,1-.47-.16,1.54,1.54,0,0,1-.16-.05s-.08-.09-.1-.1-.22-.05-.32-.11-.06-.08-.11-.1-.11,0-.16-.05-.06-.13-.1-.16-.11,0-.16-.05-.14-.14-.21-.21l-.21-.21a4.36,4.36,0,0,1-.32-.37,7.35,7.35,0,0,1-.42-.63s0-.1-.05-.16-.09-.08-.1-.1-.07-.22-.11-.32-.08-.22-.1-.32a4.11,4.11,0,0,1-.11-.53s0-.07,0-.1a12.67,12.67,0,0,1-.05-2.16V24C11.36,24,11.35,23.9,11.41,23.89Z" style="fill:#fff"/><path d="M38.42,23.89c-.09,5,.13,10.79,0,16a5.68,5.68,0,0,1-.05.74s0,.19,0,.21h-.05c0,.15,0,.3-.05.42s0,0-.05.05a1.48,1.48,0,0,1-.05.26s0,0-.05.05a.61.61,0,0,1-.11.26,1.61,1.61,0,0,1-.05.16s-.09.08-.11.11a3.85,3.85,0,0,1-.74,1c-.17.13-.31.29-.47.42l-.1.11s-.1,0-.16.05-.07.09-.11.11A.55.55,0,0,1,36,44a.52.52,0,0,0-.1.05l-.16.05s-.08.09-.11.1a1.14,1.14,0,0,1-.16.05,5.35,5.35,0,0,1-.58.16,4.58,4.58,0,0,1-.58.1c-.1,0-.21,0-.32,0a32.63,32.63,0,0,1-3.58.05H18.15a3.9,3.9,0,0,1-1.05-.05V26.16c0-.23,0-.45,0-.63a1.87,1.87,0,0,1,.11-.47s0-.09,0-.1h.05s0-.09,0-.11h.05c0-.07,0-.15.05-.21s.21-.16.32-.26a1.19,1.19,0,0,1,.32-.26,2.29,2.29,0,0,1,.37-.16,6.63,6.63,0,0,1,1.42-.05ZM24.63,26.26a.45.45,0,0,1-.53.11l-.47-.16c-.06,0-.07,0-.16-.05s0,0-.05-.05-.2,0-.32-.05a4,4,0,0,0-1.21,0c-.17,0-.39.1-.47.1s0,0-.05.05-.22.07-.32.1a1.4,1.4,0,0,0-.26.16.67.67,0,0,0-.21.16s-.09,0-.1,0-.17.22-.26.32-.24.17-.32.26,0,.08,0,.11-.1,0-.11.1,0,0-.05.05a3.43,3.43,0,0,0-.53,2,3.73,3.73,0,0,0,.47,1.42c0,.06.12.1.16.16s.06.16.11.21.2.18.26.26.09,0,.11,0,.19.26.37.26c0,.06.08.08,0,.1-.45,0-1,0-1.42,0-.14,0-.41-.08-.42.11s.16.1.21.1c.36.06.63.06.79.32a4.1,4.1,0,0,1,.11,1.53v3.26a6.06,6.06,0,0,1-.05,1.68s0,.09,0,.1-.16.31-.21.32,0,0-.05.05a.5.5,0,0,1-.26.11c-.05,0,0,0-.05.05-.21.07-.52-.15-.48.21,0,.1.17,0,.26.05a21.66,21.66,0,0,0,2.21,0c.07,0,.3.07.26-.11s-.28-.14-.37-.16a.8.8,0,0,1-.58-.32c-.07-.09-.12-.11-.16-.21a1.29,1.29,0,0,1-.05-.16c-.09-.72,0-1.9,0-3.05,0-.9,0-1.84,0-2.63,0-.13,0-.28.05-.37.11.3.24.59.37.89a.37.37,0,0,1,.05.16c0,.1.1.14.11.21s0,0,.05.05c.08.18.12.4.21.47s0,.09,0,.11.1.14.11.26.1.14.1.21,0,0,.05.05.06.23.1.26,0,.09,0,.1h.05s0,.09,0,.1l.11.21a1.81,1.81,0,0,1,.16.37c0,.06,0,0,.05.05a1.74,1.74,0,0,0,.21.47,2,2,0,0,1,.05.21c.17.36.32.74.47,1.1a1.8,1.8,0,0,1,.16.37c0,.06,0,0,.05.05.08.19.12.4.21.47s0,.09,0,.11h.05s0,.09,0,.11l.11.21c.06.13.06.37.26.37a1,1,0,0,0,.21-.42,1.16,1.16,0,0,0,.16-.37c0-.06,0,0,.05-.05a1.79,1.79,0,0,1,.21-.47,2,2,0,0,0,.05-.21c.3-.65.55-1.33.84-2a1.73,1.73,0,0,0,.16-.37c0-.06,0,0,.05-.05s.09-.31.16-.47a1.18,1.18,0,0,0,.16-.37c0-.06,0,0,.05-.05a1.6,1.6,0,0,1,.21-.47s0-.09,0-.11.1-.14.11-.26,0,0,.05-.05a1.85,1.85,0,0,1,.21-.47s0-.09,0-.11h.05s0-.09,0-.1a2.53,2.53,0,0,1,.32-.63c-.1,1.65.13,4.28,0,6.11,0,.24,0,.33-.16.42s0,.09,0,.11a1.06,1.06,0,0,1-.16.05s0,0-.11.05,0,0-.05.05-.33-.07-.42.05-.26,0-.21.16.35.05.47.05c1.05,0,2.25.06,3.21,0,.1,0,.46.1.42-.16s-.08,0-.16-.11a.82.82,0,0,1-.84-.32,1.15,1.15,0,0,1-.05-.37,11.69,11.69,0,0,1-.05-1.26,45.78,45.78,0,0,1,.05-4.74,1.49,1.49,0,0,1,.05-.42,2.91,2.91,0,0,1,.21-.21s.23,0,.26-.05c.22-.07.5,0,.58-.16-.12-.17-.39-.1-.58-.11-.48,0-.94,0-1.37,0a2.14,2.14,0,0,1-.68-.05s0-.09-.05-.11-.15,0-.16-.1,0,0-.05-.05a.87.87,0,0,1-.05-.32c0-.07,0-.11-.05-.16-.06-.51,0-1.23,0-1.9,0-.5,0-1,0-1.42,0-.15,0-.31.05-.42.32.34.59.74.89,1.11,0,0,.07.06.11.1l.1.16c.08.1.31.28.32.37s.13.17.16.21.19.17.26.26,0,.11.05.16.21.11.21.21.13.17.16.21.31.29.32.37,0,0,.05.05.21.29.32.42.31.3.32.37,0,0,.05.05a1.71,1.71,0,0,1,.32.47c-.14,0-.26,0-.21.16s0,0,.11.05a2,2,0,0,1,.47.1c0,.19.19-.13.21.05.31.18.29.47.32.95,0,.26,0,.58,0,.89,0,1.43.07,3,0,4.37,0,.55-.07.79-.32.95a1.17,1.17,0,0,1-.26.11c-.17,0-.55-.15-.53.21,0,.08.13,0,.21.05,1.1.05,2.4.05,3.42,0,.15,0,.34.07.42-.11,0,0-.06,0-.05-.1s-.1,0-.1-.05c-.38,0-.68,0-.84-.26a3.6,3.6,0,0,1-.11-1.47c0-.44,0-.86,0-1.21,0-.14,0-.29.05-.37.34,0,.64,0,.95,0a2.89,2.89,0,0,0,1.58-.42s.09,0,.11,0,0,0,0-.05.08,0,.1,0,.11-.12.16-.16a1.68,1.68,0,0,0,.42-.47,2,2,0,0,0,.26-.53,2.48,2.48,0,0,0,0-.95c0-.1,0-.16-.05-.21s0-.09,0-.1h-.05s0-.09,0-.11-.15-.17-.16-.26-.19-.18-.21-.21-.05-.15-.1-.16,0,0-.05-.05-.32-.26-.42-.26-.14-.1-.21-.11,0,0-.05-.05-.17,0-.26-.05a23.77,23.77,0,0,0-4.26-.16V27.95a4.48,4.48,0,0,1,.05-1.32l.05-.05s0-.07.05-.11.11,0,.16-.05.48-.06.47-.26c-.15-.14-.47,0-.53,0s-.06,0-.1-.05c-.53,0-.86.07-1.21,0-.12,0-.17,0-.16.16s.13,0,.21.05a1,1,0,0,1,.21.05c.54.21.42.94.42,1.74v1.63c-.16-.09-.24-.27-.37-.42s-.15-.13-.21-.21-.1-.19-.16-.26-.15-.13-.21-.21-.1-.18-.16-.26-.15-.13-.21-.21-.09-.18-.16-.26-.14-.13-.21-.21l-.1-.11s0-.11-.05-.16-.15-.13-.21-.21-.16-.14-.21-.21,0-.12-.05-.16l-.11-.11c-.06-.08-.15-.14-.21-.21s-.1-.2-.16-.26a.54.54,0,0,0-.26-.16c-.05,0,0,0-.05.05s-.07-.05-.11-.05c-.39,0-.92,0-1.21,0,0,0,0,.05-.05.05s-.1-.05-.11-.05c-.18,0-.47-.09-.47.16,0,.06,0,0,.11.05a2.79,2.79,0,0,1,.32.05s.08.09.11.11a1.18,1.18,0,0,1,.37.42c-.08,1.12.1,3,0,4.21a1.55,1.55,0,0,1-.11.53s-.22.22-.21.21-.11,0-.16.05-.09,0-.1,0c-.18,0-.33-.05-.32.16s.68-.05.84.1c-.42,1-.86,2.11-1.26,3.05-.14.33-.24.66-.37.95,0,0,0,0-.05.05s0,.07,0,.1-.09.07-.1.11,0,.07,0,.1,0,0-.05.05c-.08.2-.06.34-.21.47-.21-.63-.51-1.25-.74-1.79-.05-.12-.15-.32-.16-.37s0-.08,0-.1-.09-.08-.1-.11a5.51,5.51,0,0,0-.21-.53A.38.38,0,0,1,23,34a1.3,1.3,0,0,0-.11-.21c-.05-.13-.14-.31-.16-.37s0-.08,0-.1-.09-.07-.11-.11-.06-.22-.11-.32a6.61,6.61,0,0,1-.26-.63c.27,0,.81,0,.9-.11s.09,0,.11,0l.37-.11a1.87,1.87,0,0,0,.42-.21s.11-.1.16-.1.12-.15.21-.16a3.28,3.28,0,0,0,.37-.32c.05-.14,0-.23,0-.42s-.2.05-.26.11-.13.2-.21.26-.11,0-.16.05-.06.13-.11.16-.12,0-.16.05l-.05.05a1.85,1.85,0,0,1-.79.26,3.13,3.13,0,0,1-.84-.05,1.25,1.25,0,0,1-.32-.1l-.11-.05a1.92,1.92,0,0,1-.16-.16,1.75,1.75,0,0,1-.32-.32,4,4,0,0,1-.42-2.79,1.74,1.74,0,0,0,.05-.37s0,0,.05-.05a1.71,1.71,0,0,1,.16-.47,1,1,0,0,0,.1-.16l.11-.16c.06-.09.19-.26.26-.26s0,0,.05-.05.11,0,.16-.05,0-.09.05-.11l.16-.05c.09,0,.14-.09.21-.11a2,2,0,0,1,2.1.79,3,3,0,0,1,.21.42c0,.09,0,.37.26.37.1-.11.05-.3.05-.47,0-.39,0-.77,0-1.1S25,26,24.78,26,24.68,26.2,24.63,26.26Z" style="fill:#fff"/><path d="M33.1,35.74V32.37c.11,0,.43,0,.63,0,0,0,0,.05.05.05a.69.69,0,0,1,.16,0s.16.05.26.11.06.08.1.1a1.45,1.45,0,0,1,.47.79s0,.11,0,.16,0,.05.05.11a3.34,3.34,0,0,1,0,.79s-.05,0-.05.05a1.17,1.17,0,0,1,0,.21s-.05,0-.05.05,0,0,0,.05,0,0-.05.05,0,.14-.05.21,0,0-.05.05-.1.08-.11.16-.12.08-.21.16,0,.1-.05.1-.29.07-.37.11A2.37,2.37,0,0,1,33.1,35.74Z" style="fill:#fff"/><path d="M14.3,9l-.7,2.12h-.9L15,4.35h1l2.3,6.74h-.93L16.69,9Zm2.21-.68-.66-1.94c-.15-.44-.25-.84-.35-1.23h0c-.1.4-.21.81-.34,1.22l-.66,1.95Z" style="fill:#fff"/><path d="M19.27,7.82c0-.62,0-1.12,0-1.58H20l0,.83h0a1.9,1.9,0,0,1,1.72-.94,2.19,2.19,0,0,1,2,2.46c0,1.74-1.06,2.6-2.2,2.6a1.7,1.7,0,0,1-1.49-.76h0v2.63h-.87Zm.87,1.29a2,2,0,0,0,0,.36,1.36,1.36,0,0,0,1.32,1c.93,0,1.47-.76,1.47-1.87s-.51-1.8-1.44-1.8A1.4,1.4,0,0,0,20.2,7.92a1.41,1.41,0,0,0-.06.36Z" style="fill:#fff"/><path d="M29.34,8.62a2.36,2.36,0,0,1-2.41,2.57A2.3,2.3,0,0,1,24.61,8.7,2.36,2.36,0,0,1,27,6.14,2.29,2.29,0,0,1,29.34,8.62Zm-3.84,0c0,1.06.61,1.86,1.47,1.86s1.47-.79,1.47-1.88C28.44,7.83,28,6.8,27,6.8S25.5,7.75,25.5,8.67Z" style="fill:#fff"/><path d="M31.43,4.89a.54.54,0,0,1-1.09,0,.54.54,0,0,1,.55-.55A.52.52,0,0,1,31.43,4.89Zm-1,6.2V6.25h.88v4.84Z" style="fill:#fff"/><path d="M37.17,8.62a2.36,2.36,0,0,1-2.41,2.57A2.3,2.3,0,0,1,32.44,8.7a2.36,2.36,0,0,1,2.4-2.57A2.29,2.29,0,0,1,37.17,8.62Zm-3.84,0c0,1.06.61,1.86,1.47,1.86s1.47-.79,1.47-1.88c0-.82-.41-1.86-1.45-1.86S33.33,7.75,33.33,8.67Z" style="fill:#fff"/></svg>