<svg xmlns="http://www.w3.org/2000/svg" width="288.34" height="89.02" viewBox="0 0 288.34 89.02"><defs><style>.cls-1{fill:#fff;}</style></defs><title>covid</title><g id="Logo"><path class="cls-1" d="M323.27,82.13c.42-.1,1-.21,1.66-.33a14.11,14.11,0,0,1,2.39-.18,5.14,5.14,0,0,1,2,.35,3.1,3.1,0,0,1,1.28,1,3.66,3.66,0,0,1,.67,1.48,8.5,8.5,0,0,1,.2,1.89V92h-1.82V86.68a8.2,8.2,0,0,0-.13-1.6,2.55,2.55,0,0,0-.42-1.07,1.56,1.56,0,0,0-.78-.6,3.49,3.49,0,0,0-1.21-.19l-.6,0-.6.05-.51.07-.32.06V92h-1.82Z" transform="translate(-109.4 -3.22)"/><path class="cls-1" d="M343.44,86.92a6.27,6.27,0,0,1-.35,2.18,5,5,0,0,1-1,1.68,4.31,4.31,0,0,1-1.52,1.08,4.87,4.87,0,0,1-3.82,0,4.31,4.31,0,0,1-1.52-1.08,5,5,0,0,1-1-1.68,7,7,0,0,1,0-4.36,4.94,4.94,0,0,1,1-1.69A4.31,4.31,0,0,1,336.77,82a4.87,4.87,0,0,1,3.82,0,4.31,4.31,0,0,1,1.52,1.08,4.94,4.94,0,0,1,1,1.69A6.27,6.27,0,0,1,343.44,86.92Zm-1.89,0a4.4,4.4,0,0,0-.77-2.73,2.52,2.52,0,0,0-2.1-1,2.49,2.49,0,0,0-2.1,1,5.21,5.21,0,0,0,0,5.45,2.49,2.49,0,0,0,2.1,1,2.52,2.52,0,0,0,2.1-1A4.39,4.39,0,0,0,341.55,86.92Z" transform="translate(-109.4 -3.22)"/><path class="cls-1" d="M354.28,92.11l-.89,0q-.48,0-1-.06l-.94-.1a8.45,8.45,0,0,1-.86-.15V78.66a6.3,6.3,0,0,1,.86-.16l.94-.1.95-.06.88,0a12.81,12.81,0,0,1,2.2.18,5.59,5.59,0,0,1,1.77.6,3,3,0,0,1,1.61,2.78,3,3,0,0,1-.52,1.82,3.17,3.17,0,0,1-1.41,1.07,4,4,0,0,1,1.9,1.11,3.09,3.09,0,0,1,.7,2.15,3.45,3.45,0,0,1-1.5,3A8.44,8.44,0,0,1,354.28,92.11Zm-1.78-8h2a8,8,0,0,0,1.33-.1,3.18,3.18,0,0,0,1.09-.35,2.08,2.08,0,0,0,.72-.66,1.93,1.93,0,0,0,.26-1,1.69,1.69,0,0,0-.27-1,2,2,0,0,0-.75-.65,4.29,4.29,0,0,0-1.13-.36,7.42,7.42,0,0,0-1.36-.11h-1.14l-.74.06Zm0,1.52v4.77l.51,0,.6,0h.79a11.45,11.45,0,0,0,1.59-.11,4.54,4.54,0,0,0,1.32-.38,2.31,2.31,0,0,0,.9-.76,2.1,2.1,0,0,0,.35-1.23,2.3,2.3,0,0,0-.26-1.13,1.9,1.9,0,0,0-.73-.73,3.64,3.64,0,0,0-1.14-.39,8.48,8.48,0,0,0-1.49-.12Z" transform="translate(-109.4 -3.22)"/><path class="cls-1" d="M366.81,81.62l.54,0,.6.08.53.1a1.82,1.82,0,0,1,.36.09l-.31,1.58a5.83,5.83,0,0,0-.71-.19,6.44,6.44,0,0,0-1.28-.1,4.78,4.78,0,0,0-1,.1l-.66.15V92h-1.81V82.27a12.16,12.16,0,0,1,1.6-.44A10,10,0,0,1,366.81,81.62Z" transform="translate(-109.4 -3.22)"/><path class="cls-1" d="M373.88,81.58a5.24,5.24,0,0,1,1.85.29,3,3,0,0,1,1.21.8,3,3,0,0,1,.65,1.23,5.91,5.91,0,0,1,.2,1.57v6.35l-.66.1c-.28,0-.59.09-.94.13l-1.15.11c-.41,0-.81,0-1.22,0a6.53,6.53,0,0,1-1.58-.18,3.49,3.49,0,0,1-1.25-.56,2.53,2.53,0,0,1-.82-1,3.63,3.63,0,0,1-.29-1.51,2.87,2.87,0,0,1,.34-1.44,2.82,2.82,0,0,1,.93-1,4.22,4.22,0,0,1,1.37-.54,7.21,7.21,0,0,1,1.63-.18,5.44,5.44,0,0,1,.57,0l.56.08.46.09.27.06v-.51a3.8,3.8,0,0,0-.1-.89,2,2,0,0,0-.35-.78,1.81,1.81,0,0,0-.69-.55,2.71,2.71,0,0,0-1.14-.2,9.16,9.16,0,0,0-1.58.12,5.82,5.82,0,0,0-1,.27L370.93,82a6.33,6.33,0,0,1,1.17-.3A9.93,9.93,0,0,1,373.88,81.58Zm.16,9.1q.65,0,1.14,0a5.38,5.38,0,0,0,.83-.1v-3a2.69,2.69,0,0,0-.63-.17,8.16,8.16,0,0,0-1.07-.06c-.27,0-.56,0-.87,0a2.64,2.64,0,0,0-.84.25,1.73,1.73,0,0,0-.63.51,1.31,1.31,0,0,0-.26.85,1.44,1.44,0,0,0,.63,1.35A3.2,3.2,0,0,0,374,90.68Z" transform="translate(-109.4 -3.22)"/><path class="cls-1" d="M383.16,90.68a3.53,3.53,0,0,0,1.65-.29,1,1,0,0,0,.53-.94,1.24,1.24,0,0,0-.52-1,9.09,9.09,0,0,0-1.74-.88L382,87a3.85,3.85,0,0,1-.93-.57,2.72,2.72,0,0,1-.63-.8,2.69,2.69,0,0,1-.23-1.16,2.58,2.58,0,0,1,1-2.13,4.26,4.26,0,0,1,2.72-.8,8.43,8.43,0,0,1,.86,0l.8.12.65.15a4.32,4.32,0,0,1,.44.13l-.33,1.57a4.19,4.19,0,0,0-.92-.33,6,6,0,0,0-1.5-.16,2.81,2.81,0,0,0-1.33.3,1,1,0,0,0-.57,1,1.34,1.34,0,0,0,.13.58,1.41,1.41,0,0,0,.39.46,2.94,2.94,0,0,0,.66.38c.26.12.57.24.93.37s.91.36,1.29.54a4,4,0,0,1,1,.62,2.33,2.33,0,0,1,.61.84,3,3,0,0,1,.22,1.22,2.42,2.42,0,0,1-1.05,2.13,5.19,5.19,0,0,1-3,.73,7.7,7.7,0,0,1-2.11-.23,10.5,10.5,0,0,1-1-.34l.33-1.56,1,.35A6,6,0,0,0,383.16,90.68Z" transform="translate(-109.4 -3.22)"/><path class="cls-1" d="M390.4,80a1.14,1.14,0,0,1-.83-.32,1.12,1.12,0,0,1-.34-.87,1.15,1.15,0,0,1,.34-.87,1.18,1.18,0,0,1,.83-.32,1.2,1.2,0,0,1,.83.32,1.15,1.15,0,0,1,.34.87,1.12,1.12,0,0,1-.34.87A1.15,1.15,0,0,1,390.4,80Zm.92,12H389.5V81.84h1.82Z" transform="translate(-109.4 -3.22)"/><path class="cls-1" d="M397.49,92.19a3.5,3.5,0,0,1-2.39-.73,2.86,2.86,0,0,1-.7-2.12V77.15l1.82-.31V89a2.69,2.69,0,0,0,.08.75.93.93,0,0,0,.25.46,1.08,1.08,0,0,0,.47.27,4.6,4.6,0,0,0,.72.14Z" transform="translate(-109.4 -3.22)"/><path class="cls-1" d="M132.63,72.22a22.64,22.64,0,0,1-8.44-1.52,18.09,18.09,0,0,1-6.54-4.44,20.13,20.13,0,0,1-4.22-7.21,29.81,29.81,0,0,1-1.49-9.8,26.75,26.75,0,0,1,1.68-9.81,21.19,21.19,0,0,1,4.54-7.2,19.29,19.29,0,0,1,6.67-4.45A21.71,21.71,0,0,1,133,26.27a29.28,29.28,0,0,1,4.92.38,30.94,30.94,0,0,1,3.81.89,18.19,18.19,0,0,1,2.63,1,13.54,13.54,0,0,1,1.4.76l-1.78,5.07a10.45,10.45,0,0,0-1.65-.82c-.72-.3-1.53-.59-2.44-.89a23,23,0,0,0-3-.73,18.83,18.83,0,0,0-3.27-.28,15.77,15.77,0,0,0-6.28,1.2,13.1,13.1,0,0,0-4.76,3.49,15.73,15.73,0,0,0-3,5.56,23.9,23.9,0,0,0-1,7.33,26.33,26.33,0,0,0,.92,7.17A15.55,15.55,0,0,0,122.16,62a12.41,12.41,0,0,0,4.6,3.59,15.23,15.23,0,0,0,6.44,1.27,23.69,23.69,0,0,0,7.05-.89,30.07,30.07,0,0,0,4.19-1.59L146,69.43a8.3,8.3,0,0,1-1.58.79,20.63,20.63,0,0,1-2.86.92,35.41,35.41,0,0,1-9,1.08Z" transform="translate(-109.4 -3.22)"/><path class="cls-1" d="M151.61,49.25a27.37,27.37,0,0,1,1.68-10,20.67,20.67,0,0,1,4.57-7.2,18.86,18.86,0,0,1,6.73-4.35,22.84,22.84,0,0,1,8.16-1.46,22.08,22.08,0,0,1,8,1.46,18.68,18.68,0,0,1,6.64,4.35,20.88,20.88,0,0,1,4.53,7.2,27.16,27.16,0,0,1,1.69,10,27.14,27.14,0,0,1-1.69,10,20.92,20.92,0,0,1-4.53,7.21,18.79,18.79,0,0,1-6.64,4.34,21.87,21.87,0,0,1-8,1.46,22.62,22.62,0,0,1-8.16-1.46,19,19,0,0,1-6.73-4.34,20.71,20.71,0,0,1-4.57-7.21A27.36,27.36,0,0,1,151.61,49.25Zm6.47,0a24.26,24.26,0,0,0,1,7.26A16.38,16.38,0,0,0,162,62.07a12.54,12.54,0,0,0,4.57,3.52,14.3,14.3,0,0,0,6.06,1.24,14.1,14.1,0,0,0,6-1.24,12.69,12.69,0,0,0,4.54-3.52,16.36,16.36,0,0,0,2.88-5.56,24.26,24.26,0,0,0,1-7.26,24.33,24.33,0,0,0-1-7.27,16.22,16.22,0,0,0-2.88-5.55,12.72,12.72,0,0,0-4.54-3.53,14.25,14.25,0,0,0-6-1.23,14.45,14.45,0,0,0-6.06,1.23A12.57,12.57,0,0,0,162,36.43,16.23,16.23,0,0,0,159.1,42,24.33,24.33,0,0,0,158.08,49.25Z" transform="translate(-109.4 -3.22)"/><path class="cls-1" d="M238.82,27.29q-2.41,7-4.61,12.91t-4.28,11.27q-2.1,5.33-4.16,10.18t-4.22,9.62h-5.77q-2.16-4.76-4.22-9.62t-4.19-10.18Q205.24,46.13,203,40.2t-4.57-12.91h6.79q3.44,10,6.73,19.29T218.76,64q3.5-8.05,6.79-17.36t6.67-19.32Z" transform="translate(-109.4 -3.22)"/><path class="cls-1" d="M246.5,27.29h6.15v44H246.5Z" transform="translate(-109.4 -3.22)"/><path class="cls-1" d="M301.27,49.25a25.34,25.34,0,0,1-1.78,9.93,18.32,18.32,0,0,1-5,7,21.28,21.28,0,0,1-7.75,4.13,34,34,0,0,1-9.9,1.36q-2.65,0-5.87-.22a34.14,34.14,0,0,1-5.8-.86V27.92a35.17,35.17,0,0,1,5.8-.86c2.14-.14,4.1-.22,5.87-.22a34,34,0,0,1,9.9,1.37,21.26,21.26,0,0,1,7.75,4.12,18.32,18.32,0,0,1,5,7A25.43,25.43,0,0,1,301.27,49.25Zm-23.93,17q8.76,0,13.08-4.48t4.31-12.53q0-8.07-4.31-12.54t-13.08-4.47c-1.73,0-3.08,0-4,.06s-1.62.09-2,.13V66.07c.38,0,1.05.08,2,.12S275.61,66.26,277.34,66.26Z" transform="translate(-109.4 -3.22)"/><path class="cls-1" d="M308.19,49.5h15.67V55H308.19Z" transform="translate(-109.4 -3.22)"/><path class="cls-1" d="M333,36.36a39.31,39.31,0,0,0,7.05-3.58,28.87,28.87,0,0,0,6.28-5.49h4.19v44h-5.9V35.47a15.87,15.87,0,0,1-1.87,1.46,25.42,25.42,0,0,1-2.42,1.46c-.86.47-1.77.91-2.73,1.34s-1.87.78-2.76,1.08Z" transform="translate(-109.4 -3.22)"/><path class="cls-1" d="M396.28,44.87q0,13.07-6.5,19.77T370.45,71.4l-.19-5a31.63,31.63,0,0,0,7.2-.76,16.38,16.38,0,0,0,5.62-2.45,14.15,14.15,0,0,0,4-4.35,19.89,19.89,0,0,0,2.38-6.53,19.08,19.08,0,0,1-3.74,1.23,19.33,19.33,0,0,1-4.32.48A16.19,16.19,0,0,1,375.08,53a11.66,11.66,0,0,1-4.25-3,11.43,11.43,0,0,1-2.38-4.32,17.64,17.64,0,0,1-.73-5.11,15.88,15.88,0,0,1,.83-4.89,14.36,14.36,0,0,1,2.5-4.63,12.94,12.94,0,0,1,4.29-3.43,13.41,13.41,0,0,1,6.15-1.33,15.08,15.08,0,0,1,6.38,1.27,12.22,12.22,0,0,1,4.63,3.68,16.8,16.8,0,0,1,2.83,5.87A29.55,29.55,0,0,1,396.28,44.87Zm-14.22,4.38a20,20,0,0,0,4.19-.42,18.41,18.41,0,0,0,3.81-1.23c0-.47.07-.92.07-1.37V44.87a34.07,34.07,0,0,0-.39-5.24,13.91,13.91,0,0,0-1.36-4.38,8,8,0,0,0-2.63-3,7.38,7.38,0,0,0-4.19-1.11,6.67,6.67,0,0,0-3.56.89,8,8,0,0,0-2.41,2.25,9.06,9.06,0,0,0-1.36,3,12.51,12.51,0,0,0-.42,3.14q0,4.32,2.07,6.57T382.06,49.25Z" transform="translate(-109.4 -3.22)"/><path class="cls-1" d="M109.4,11.63a8.39,8.39,0,0,1,.52-3.08,6.21,6.21,0,0,1,1.41-2.22A5.82,5.82,0,0,1,113.4,5a7,7,0,0,1,2.52-.45A6.86,6.86,0,0,1,118.4,5a5.92,5.92,0,0,1,2,1.34,6.63,6.63,0,0,1,1.4,2.22,8.61,8.61,0,0,1,.51,3.08,8.51,8.51,0,0,1-.51,3.07,6.68,6.68,0,0,1-1.4,2.23,5.92,5.92,0,0,1-2,1.34,6.86,6.86,0,0,1-2.48.45,7,7,0,0,1-2.52-.45,5.82,5.82,0,0,1-2.07-1.34,6.26,6.26,0,0,1-1.41-2.23A8.3,8.3,0,0,1,109.4,11.63Zm2,0a7.49,7.49,0,0,0,.31,2.24,5,5,0,0,0,.89,1.72A3.83,3.83,0,0,0,114,16.67a4.34,4.34,0,0,0,1.87.38,4.3,4.3,0,0,0,1.86-.38,3.8,3.8,0,0,0,1.4-1.08,5,5,0,0,0,.89-1.72,7.48,7.48,0,0,0,.32-2.24A7.48,7.48,0,0,0,120,9.39a4.92,4.92,0,0,0-.89-1.72,3.94,3.94,0,0,0-1.4-1.09,4.45,4.45,0,0,0-1.86-.38,4.49,4.49,0,0,0-1.87.38,4,4,0,0,0-1.41,1.09,4.92,4.92,0,0,0-.89,1.72A7.49,7.49,0,0,0,111.4,11.63Z" transform="translate(-109.4 -3.22)"/><path class="cls-1" d="M126.89,8.69a5.31,5.31,0,0,1,1-.45,5.05,5.05,0,0,1,3.51.16,4.17,4.17,0,0,1,1.44,1.09,5,5,0,0,1,.89,1.69,7.3,7.3,0,0,1,.3,2.15,6.48,6.48,0,0,1-.36,2.23,4.71,4.71,0,0,1-1,1.67A4.48,4.48,0,0,1,131,18.29a5.63,5.63,0,0,1-2.11.37,12.7,12.7,0,0,1-2.26-.18,15,15,0,0,1-1.6-.35V3.54l1.82-.32Zm0,8.15a7,7,0,0,0,.77.15,10.87,10.87,0,0,0,1.25.06,3,3,0,0,0,2.35-1,3.92,3.92,0,0,0,.88-2.75,6.31,6.31,0,0,0-.16-1.47,3.16,3.16,0,0,0-.51-1.18,2.41,2.41,0,0,0-.91-.79,3,3,0,0,0-1.34-.28,3.59,3.59,0,0,0-1.37.26,3.79,3.79,0,0,0-1,.52Z" transform="translate(-109.4 -3.22)"/><path class="cls-1" d="M139,17.11a3.53,3.53,0,0,0,1.65-.29,1,1,0,0,0,.54-.94,1.26,1.26,0,0,0-.53-1.06,8.51,8.51,0,0,0-1.74-.88l-1.13-.48a3.87,3.87,0,0,1-.93-.58,2.6,2.6,0,0,1-.63-.8,2.66,2.66,0,0,1-.23-1.16,2.58,2.58,0,0,1,1-2.14A4.24,4.24,0,0,1,139.7,8a8.11,8.11,0,0,1,.86,0l.81.12.65.15a3.92,3.92,0,0,1,.44.14L142.13,10a4.91,4.91,0,0,0-.92-.32,6,6,0,0,0-1.51-.17,2.7,2.7,0,0,0-1.33.31,1,1,0,0,0-.57.95,1.25,1.25,0,0,0,.52,1,3.11,3.11,0,0,0,.66.39c.26.11.57.24.94.37s.91.36,1.29.54a4,4,0,0,1,1,.61,2.43,2.43,0,0,1,.62.86A3.14,3.14,0,0,1,143,15.8a2.44,2.44,0,0,1-1,2.14,5.21,5.21,0,0,1-3,.72,7.89,7.89,0,0,1-2.12-.22,10.69,10.69,0,0,1-1-.35l.34-1.56,1,.35A5.74,5.74,0,0,0,139,17.11Z" transform="translate(-109.4 -3.22)"/><path class="cls-1" d="M144.77,13.35a6.31,6.31,0,0,1,.4-2.36,4.88,4.88,0,0,1,1-1.67,4.21,4.21,0,0,1,1.49-1A4.72,4.72,0,0,1,149.42,8a3.9,3.9,0,0,1,3.15,1.29,5.9,5.9,0,0,1,1.1,3.91v.3c0,.12,0,.24,0,.34h-7a3.72,3.72,0,0,0,.93,2.41,3.35,3.35,0,0,0,2.5.82,6.81,6.81,0,0,0,1.62-.16,5.11,5.11,0,0,0,1-.33l.25,1.53a5.26,5.26,0,0,1-1.16.37,7.83,7.83,0,0,1-1.89.2,6,6,0,0,1-2.31-.4A4.37,4.37,0,0,1,146,17.15a4.48,4.48,0,0,1-.93-1.67A7.21,7.21,0,0,1,144.77,13.35Zm7-1a3.07,3.07,0,0,0-.62-2,2.12,2.12,0,0,0-1.75-.8,2.33,2.33,0,0,0-1.11.25,2.53,2.53,0,0,0-.81.63,3.11,3.11,0,0,0-.52.9,4.26,4.26,0,0,0-.25,1Z" transform="translate(-109.4 -3.22)"/><path class="cls-1" d="M160.05,8l.54,0,.6.08.54.1.36.09-.31,1.58a6.64,6.64,0,0,0-.72-.18,6.34,6.34,0,0,0-1.28-.11,4.88,4.88,0,0,0-1,.11l-.66.15v8.56h-1.82V8.67a12.35,12.35,0,0,1,1.61-.44A10.11,10.11,0,0,1,160.05,8Z" transform="translate(-109.4 -3.22)"/><path class="cls-1" d="M172.22,8.24a52.47,52.47,0,0,1-1.79,5.48q-1,2.62-2,4.71h-1.65q-1-2.09-2-4.71A52.47,52.47,0,0,1,163,8.24h2c.16.64.34,1.32.56,2s.44,1.44.68,2.15.49,1.4.74,2.07.48,1.26.7,1.78c.23-.52.46-1.12.71-1.78s.49-1.36.73-2.07.47-1.43.69-2.15.4-1.41.56-2Z" transform="translate(-109.4 -3.22)"/><path class="cls-1" d="M177.39,8a5.24,5.24,0,0,1,1.85.29,2.85,2.85,0,0,1,1.87,2,5.91,5.91,0,0,1,.2,1.57v6.37l-.66.11c-.28,0-.6.09-1,.12l-1.14.11c-.42,0-.82.05-1.23.05a6.67,6.67,0,0,1-1.59-.18,3.47,3.47,0,0,1-1.25-.55,2.55,2.55,0,0,1-.82-1,3.48,3.48,0,0,1-.3-1.51,2.88,2.88,0,0,1,.35-1.45,2.82,2.82,0,0,1,.93-1,4.32,4.32,0,0,1,1.37-.55,7.3,7.3,0,0,1,1.64-.17l.57,0a4.76,4.76,0,0,1,.56.07l.46.09.27.06V12a4.41,4.41,0,0,0-.09-.89,2.07,2.07,0,0,0-.36-.78,1.72,1.72,0,0,0-.69-.55,2.69,2.69,0,0,0-1.15-.21,8.09,8.09,0,0,0-1.57.13,5.29,5.29,0,0,0-1,.26l-.22-1.5a5.44,5.44,0,0,1,1.18-.31A9.93,9.93,0,0,1,177.39,8Zm.16,9.13q.64,0,1.14,0a5.23,5.23,0,0,0,.83-.1v-3a2.27,2.27,0,0,0-.63-.17,8,8,0,0,0-1.07-.07,6.82,6.82,0,0,0-.87.06,2.49,2.49,0,0,0-.84.25,1.69,1.69,0,0,0-.64.51,1.32,1.32,0,0,0-.25.85,1.45,1.45,0,0,0,.62,1.36A3.24,3.24,0,0,0,177.55,17.11Z" transform="translate(-109.4 -3.22)"/><path class="cls-1" d="M186,8.24h3.86V9.77H186v4.7a5.48,5.48,0,0,0,.12,1.26,1.75,1.75,0,0,0,.35.79,1.27,1.27,0,0,0,.59.4,2.53,2.53,0,0,0,.82.12,3.93,3.93,0,0,0,1.32-.19l.7-.27.35,1.51a6.82,6.82,0,0,1-1,.35,5.75,5.75,0,0,1-1.57.2,4.88,4.88,0,0,1-1.71-.26,2.53,2.53,0,0,1-1.09-.8,3.17,3.17,0,0,1-.58-1.3,8.62,8.62,0,0,1-.16-1.79V5.4L186,5.09Z" transform="translate(-109.4 -3.22)"/><path class="cls-1" d="M200.92,13.33a6.39,6.39,0,0,1-.36,2.2,4.85,4.85,0,0,1-1,1.68,4.43,4.43,0,0,1-1.51,1.09,4.87,4.87,0,0,1-1.92.38,4.8,4.8,0,0,1-1.92-.38,4.37,4.37,0,0,1-1.52-1.09,4.85,4.85,0,0,1-1-1.68,6.39,6.39,0,0,1-.35-2.2,6.35,6.35,0,0,1,.35-2.18,4.85,4.85,0,0,1,1-1.7,4.22,4.22,0,0,1,1.52-1.08A4.64,4.64,0,0,1,196.14,8a4.71,4.71,0,0,1,1.92.39,4.27,4.27,0,0,1,1.51,1.08,4.85,4.85,0,0,1,1,1.7A6.35,6.35,0,0,1,200.92,13.33Zm-1.9,0a4.34,4.34,0,0,0-.78-2.73,2.7,2.7,0,0,0-4.21,0,4.34,4.34,0,0,0-.77,2.73,4.39,4.39,0,0,0,.77,2.74,2.72,2.72,0,0,0,4.21,0A4.39,4.39,0,0,0,199,13.33Zm-.51-8.95-2.76,2.68-.93-.82,2.51-3Z" transform="translate(-109.4 -3.22)"/><path class="cls-1" d="M207.24,8l.54,0,.6.08.54.1a2.31,2.31,0,0,1,.36.09L209,9.9a7.33,7.33,0,0,0-.72-.18A6.34,6.34,0,0,0,207,9.61a4.88,4.88,0,0,0-1,.11l-.66.15v8.56h-1.82V8.67a12.35,12.35,0,0,1,1.61-.44A10.11,10.11,0,0,1,207.24,8Z" transform="translate(-109.4 -3.22)"/><path class="cls-1" d="M211.94,6.4a1.16,1.16,0,0,1-.83-.33,1.12,1.12,0,0,1-.34-.87,1.15,1.15,0,0,1,.34-.87,1.25,1.25,0,0,1,1.67,0,1.15,1.15,0,0,1,.34.87,1.12,1.12,0,0,1-.34.87A1.17,1.17,0,0,1,211.94,6.4Zm.93,12H211V8.24h1.83Z" transform="translate(-109.4 -3.22)"/><path class="cls-1" d="M225,13.33a6.64,6.64,0,0,1-.35,2.2,5.19,5.19,0,0,1-1,1.68,4.47,4.47,0,0,1-1.52,1.09,5,5,0,0,1-3.84,0,4.47,4.47,0,0,1-1.52-1.09,5.19,5.19,0,0,1-1-1.68,7,7,0,0,1,0-4.38,5.18,5.18,0,0,1,1-1.7,4.31,4.31,0,0,1,1.52-1.08,4.92,4.92,0,0,1,3.84,0,4.31,4.31,0,0,1,1.52,1.08,5.18,5.18,0,0,1,1,1.7A6.6,6.6,0,0,1,225,13.33Zm-1.9,0a4.4,4.4,0,0,0-.77-2.73,2.71,2.71,0,0,0-4.22,0,4.4,4.4,0,0,0-.77,2.73,4.46,4.46,0,0,0,.77,2.74,2.73,2.73,0,0,0,4.22,0A4.46,4.46,0,0,0,223.09,13.33Z" transform="translate(-109.4 -3.22)"/><path class="cls-1" d="M238.66,3.54l1.83-.32V18.13a15.29,15.29,0,0,1-1.61.35,12.5,12.5,0,0,1-2.25.18,5.68,5.68,0,0,1-2.12-.37,4.56,4.56,0,0,1-1.61-1.06,4.69,4.69,0,0,1-1-1.67,6.25,6.25,0,0,1-.37-2.23,7,7,0,0,1,.31-2.15,4.78,4.78,0,0,1,.89-1.69,4,4,0,0,1,1.44-1.09A4.65,4.65,0,0,1,236.1,8a4.59,4.59,0,0,1,1.55.24,5,5,0,0,1,1,.45Zm0,6.85a3.79,3.79,0,0,0-1-.52,3.56,3.56,0,0,0-1.37-.26,3,3,0,0,0-1.34.28,2.49,2.49,0,0,0-.91.79,3.16,3.16,0,0,0-.51,1.18,6.9,6.9,0,0,0-.16,1.47,3.92,3.92,0,0,0,.89,2.75,3,3,0,0,0,2.35,1,10.68,10.68,0,0,0,1.24-.06,7,7,0,0,0,.77-.15Z" transform="translate(-109.4 -3.22)"/><path class="cls-1" d="M252.61,13.33a6.64,6.64,0,0,1-.35,2.2,5.19,5.19,0,0,1-1,1.68,4.47,4.47,0,0,1-1.52,1.09,5,5,0,0,1-3.84,0,4.47,4.47,0,0,1-1.52-1.09,5.19,5.19,0,0,1-1-1.68,7,7,0,0,1,0-4.38,5.18,5.18,0,0,1,1-1.7,4.31,4.31,0,0,1,1.52-1.08,4.92,4.92,0,0,1,3.84,0,4.31,4.31,0,0,1,1.52,1.08,5.18,5.18,0,0,1,1,1.7A6.6,6.6,0,0,1,252.61,13.33Zm-1.9,0a4.4,4.4,0,0,0-.77-2.73,2.53,2.53,0,0,0-2.11-1,2.5,2.5,0,0,0-2.1,1,4.34,4.34,0,0,0-.78,2.73,4.39,4.39,0,0,0,.78,2.74,2.49,2.49,0,0,0,2.1,1,2.52,2.52,0,0,0,2.11-1A4.46,4.46,0,0,0,250.71,13.33Z" transform="translate(-109.4 -3.22)"/></g></svg>