<svg xmlns="http://www.w3.org/2000/svg" width="48.001" height="31.385" viewBox="0 0 52 34" fill="#FF5252">
    <path id="BR_ret" data-name="BR ret" d="M0,0H52V34H0V0ZM7.7,6.275V28.694h9.2a8.872,8.872,0,0,0,5.753-1.747,5.89,5.89,0,0,0,2.16-4.846,5.728,5.728,0,0,0-.973-3.429,7.022,7.022,0,0,0-2.489-2.143,5.947,5.947,0,0,0,1.5-1.731,4.458,4.458,0,0,0,.577-2.258q0-3.4-2.044-4.83a9.046,9.046,0,0,0-5.308-1.434H7.7Zm10.286,4.154a2.389,2.389,0,0,1,.923,2.176,2.379,2.379,0,0,1-1.006,2.127,4.949,4.949,0,0,1-2.786.676H11.955V9.836H15.45A4.667,4.667,0,0,1,17.989,10.429Zm1.418,9.281a3.056,3.056,0,0,1,.956,2.423,2.653,2.653,0,0,1-1.038,2.242,4.427,4.427,0,0,1-2.753.791H11.955v-6.3h4.912A3.706,3.706,0,0,1,19.406,19.71Zm19.946-9.05a3.056,3.056,0,0,1,1.187,2.7,2.771,2.771,0,0,1-1.253,2.555,5.925,5.925,0,0,1-3.165.775h-2.7V9.836h2.637A5.716,5.716,0,0,1,39.352,10.66Zm7.385,18.034-5.506-9.627a7.242,7.242,0,0,0,2.753-2.324,5.994,5.994,0,0,0,1.072-3.577,5.762,5.762,0,0,0-2.6-5.209,11.3,11.3,0,0,0-6.264-1.681H29.165V28.694h4.253V20.188h2.473q0.4,0,.791-0.016t0.758-.05l4.748,8.572h4.55Z"/>
</svg>
