<?xml version="1.0" encoding="utf-8"?>
<!-- Generator: Adobe Illustrator 14.0.0, SVG Export Plug-In . SVG Version: 6.00 Build 43363)  -->
<!DOCTYPE svg PUBLIC "-//W3C//DTD SVG 1.1//EN" "http://www.w3.org/Graphics/SVG/1.1/DTD/svg11.dtd">
<svg version="1.1" id="Camada_1" xmlns="http://www.w3.org/2000/svg" xmlns:xlink="http://www.w3.org/1999/xlink" x="0px" y="0px"
	 width="15px" height="15px" viewBox="0 0 15 15" enable-background="new 0 0 15 15" xml:space="preserve">
<path fill-rule="evenodd" clip-rule="evenodd" fill="#FFFFFF" d="M9.877,7.626c0,0.405,0,0.811,0,1.216
	c0.703,0.021,0.731,1.172,0,1.186c0,0.635,0,1.269,0,1.901c0.376,0,0.751,0,1.127,0c0.068-0.08,0.011-0.286,0.031-0.415
	c-0.387-0.119-0.647-0.268-0.742-0.565c-0.418-1.296,1.701-1.584,1.692-0.268c0.347-0.018,0.769,0.039,1.066-0.028
	c0-0.1,0-0.199,0-0.296c-0.866-0.16-1.498-0.63-1.602-1.455c-0.142-1.108,0.693-2.074,1.929-1.928
	c1.931,0.227,1.85,3.343-0.179,3.352c-0.082,0.086,0.021,0.359-0.06,0.446c-0.385,0-0.771,0-1.155,0
	c-0.145,0.383-0.376,0.674-0.833,0.742c-0.014,0.162,0.035,0.389-0.029,0.503c-0.444,0-0.891,0-1.334,0c0-0.652,0-1.304,0-1.958
	c-0.606-0.121-0.651-1.11,0-1.217c0-0.395,0-0.791,0-1.187C8.533,7.457,7.75,6.785,7.622,5.459c-0.998,0-1.998,0-2.996,0
	c-0.069,0.208-0.01,0.544-0.03,0.801c1.267,0.094,2.236,0.517,2.967,1.187c0.821,0.751,1.482,1.957,1.365,3.589
	c-0.146,2.048-1.797,3.784-3.917,3.947c-2.774,0.215-4.948-1.873-4.777-4.628c0.077-1.235,0.642-2.163,1.335-2.85
	c0.698-0.69,1.67-1.159,2.938-1.216c0-0.307,0-0.614,0-0.92c1.028,0,2.057,0,3.085,0c0.175-1.236,0.829-2.106,2.046-2.225
	c1.374-0.134,2.351,0.898,2.463,1.988C12.239,6.442,11.296,7.566,9.877,7.626z"/>
</svg>
