<svg xmlns="http://www.w3.org/2000/svg" width="673.87" height="94.81" viewBox="0 0 673.87 94.81"><defs><style>.a{fill:#fff;}</style></defs><title>sst</title><path class="a" d="M152.72,149a8.82,8.82,0,0,1,5.15,1.27,4.36,4.36,0,0,1,1.81,3.8,5.13,5.13,0,0,1-.5,2.35,4.1,4.1,0,0,1-1.42,1.59,6.51,6.51,0,0,1-2.26.88,15.19,15.19,0,0,1-3,.28h-1.76V165H148.5V149.34a12.58,12.58,0,0,1,2.1-.31C151.37,149,152.08,149,152.72,149Zm.19,2c-.95,0-1.68,0-2.18.07v6.24h1.67a13,13,0,0,0,2.07-.15,5,5,0,0,0,1.55-.5,2.54,2.54,0,0,0,1-1,3.22,3.22,0,0,0,.34-1.58,2.92,2.92,0,0,0-.35-1.52,2.82,2.82,0,0,0-1-.95,4.11,4.11,0,0,0-1.42-.49A10.14,10.14,0,0,0,152.91,150.9Z" transform="translate(-92.77 -74.54)"/><path class="a" d="M166.72,152.83l.63,0c.24,0,.47.06.7.09l.63.12.43.1-.37,1.86c-.17-.06-.45-.13-.84-.22a7.69,7.69,0,0,0-1.5-.12,5.83,5.83,0,0,0-1.18.12l-.77.17v10h-2.14V153.58a15.51,15.51,0,0,1,1.89-.51A12,12,0,0,1,166.72,152.83Z" transform="translate(-92.77 -74.54)"/><path class="a" d="M181.71,159.05a7.45,7.45,0,0,1-.42,2.57,5.77,5.77,0,0,1-1.16,2,4.92,4.92,0,0,1-1.78,1.27,5.83,5.83,0,0,1-4.49,0,5,5,0,0,1-1.78-1.27,5.77,5.77,0,0,1-1.16-2,8.23,8.23,0,0,1,0-5.13,5.68,5.68,0,0,1,1.16-2,5.14,5.14,0,0,1,1.78-1.27,5.83,5.83,0,0,1,4.49,0,5,5,0,0,1,1.78,1.27,5.68,5.68,0,0,1,1.16,2A7.43,7.43,0,0,1,181.71,159.05Zm-2.23,0a5.12,5.12,0,0,0-.91-3.21,3.16,3.16,0,0,0-4.93,0,6.1,6.1,0,0,0,0,6.41,3.16,3.16,0,0,0,4.93,0A5.11,5.11,0,0,0,179.48,159.05Z" transform="translate(-92.77 -74.54)"/><path class="a" d="M184.71,153.42c.49-.12,1.14-.25,1.94-.39a17.54,17.54,0,0,1,2.79-.2,5.2,5.2,0,0,1,1.93.31,3.34,3.34,0,0,1,1.3.9l.51-.32a5.24,5.24,0,0,1,.85-.4,8.78,8.78,0,0,1,1.12-.34,5.71,5.71,0,0,1,1.33-.15,5.37,5.37,0,0,1,2.25.4,3.33,3.33,0,0,1,1.37,1.13,4.37,4.37,0,0,1,.66,1.75,12.56,12.56,0,0,1,.18,2.2V165H198.8v-6.24a13.46,13.46,0,0,0-.1-1.81,3.47,3.47,0,0,0-.39-1.26,1.76,1.76,0,0,0-.78-.75,3,3,0,0,0-1.28-.24,4.49,4.49,0,0,0-1.77.29,3.61,3.61,0,0,0-1,.51,7.21,7.21,0,0,1,.28,1.31,11.81,11.81,0,0,1,.09,1.49V165h-2.13v-6.24a11.73,11.73,0,0,0-.12-1.81,3.66,3.66,0,0,0-.4-1.26,1.76,1.76,0,0,0-.78-.75,2.87,2.87,0,0,0-1.25-.24l-.69,0-.7.06-.61.08-.36.07V165h-2.14Z" transform="translate(-92.77 -74.54)"/><path class="a" d="M215,159.05a7.7,7.7,0,0,1-.41,2.57,5.94,5.94,0,0,1-1.16,2,5,5,0,0,1-1.78,1.27,5.85,5.85,0,0,1-4.5,0,5,5,0,0,1-1.77-1.27,5.77,5.77,0,0,1-1.16-2,8,8,0,0,1,0-5.13,5.68,5.68,0,0,1,1.16-2,5.1,5.1,0,0,1,1.77-1.27,5.85,5.85,0,0,1,4.5,0,5.14,5.14,0,0,1,1.78,1.27,5.83,5.83,0,0,1,1.16,2A7.68,7.68,0,0,1,215,159.05Zm-2.22,0a5.19,5.19,0,0,0-.91-3.21,3.16,3.16,0,0,0-4.93,0,6.1,6.1,0,0,0,0,6.41,3.16,3.16,0,0,0,4.93,0A5.17,5.17,0,0,0,212.78,159.05Z" transform="translate(-92.77 -74.54)"/><path class="a" d="M223.47,165.29l-.25.57a2.84,2.84,0,0,1,1,.7,1.77,1.77,0,0,1,.3,1.11,1.73,1.73,0,0,1-.11.56,1.64,1.64,0,0,1-.39.55,2.35,2.35,0,0,1-.74.41,3.36,3.36,0,0,1-1.12.16,6,6,0,0,1-1.09-.09,4.31,4.31,0,0,1-.8-.21l.26-1.31a4.91,4.91,0,0,0,.58.16,3,3,0,0,0,.7.07c.55,0,.83-.17.83-.52a.53.53,0,0,0-.25-.43,4,4,0,0,0-.72-.35l-.16-.07c.06-.19.15-.41.26-.67a7,7,0,0,1,.34-.73,5.64,5.64,0,0,1-2-.68,4.7,4.7,0,0,1-1.48-1.32,5.69,5.69,0,0,1-.9-1.85,8.17,8.17,0,0,1-.3-2.28,7.85,7.85,0,0,1,.4-2.53,6,6,0,0,1,1.14-2,5.17,5.17,0,0,1,1.8-1.31,5.91,5.91,0,0,1,2.38-.47,9.61,9.61,0,0,1,1.6.14,7.78,7.78,0,0,1,1.54.43l-.48,1.82a5.16,5.16,0,0,0-1.11-.37,6.43,6.43,0,0,0-1.35-.14,3.4,3.4,0,0,0-2.74,1.13,5,5,0,0,0-1,3.28,6.6,6.6,0,0,0,.22,1.77,3.48,3.48,0,0,0,.69,1.37,3,3,0,0,0,1.2.89,4.74,4.74,0,0,0,1.79.31,7.21,7.21,0,0,0,1.54-.16,6,6,0,0,0,1.08-.35l.29,1.79a3.72,3.72,0,0,1-.49.2,5.07,5.07,0,0,1-.7.18l-.84.14C224.06,165.25,223.76,165.27,223.47,165.29Z" transform="translate(-92.77 -74.54)"/><path class="a" d="M232.53,152.78a6.23,6.23,0,0,1,2.17.33,3.34,3.34,0,0,1,2.19,2.39,6.7,6.7,0,0,1,.23,1.85v7.46l-.76.12c-.33.06-.7.11-1.12.15s-.86.09-1.34.13-1,.06-1.43.06a7.67,7.67,0,0,1-1.86-.21,4.13,4.13,0,0,1-1.47-.66,3,3,0,0,1-1-1.18,4.12,4.12,0,0,1-.34-1.76,3.37,3.37,0,0,1,.4-1.7,3.17,3.17,0,0,1,1.09-1.15,5.17,5.17,0,0,1,1.61-.64,8.58,8.58,0,0,1,1.93-.21,5.07,5.07,0,0,1,.66,0,6.57,6.57,0,0,1,.66.09l.53.1.33.07v-.6a4.55,4.55,0,0,0-.12-1,2.4,2.4,0,0,0-.41-.92,2,2,0,0,0-.82-.64,3.18,3.18,0,0,0-1.34-.24,10.1,10.1,0,0,0-1.85.15,6.41,6.41,0,0,0-1.18.31l-.25-1.77a6.82,6.82,0,0,1,1.38-.36A12.25,12.25,0,0,1,232.53,152.78Zm4.14-4.08c-.08.18-.19.39-.31.64a3.21,3.21,0,0,1-.5.68,2.84,2.84,0,0,1-.7.52,1.77,1.77,0,0,1-.88.22,2.23,2.23,0,0,1-.86-.16c-.27-.11-.53-.22-.77-.34A4.64,4.64,0,0,0,232,150a1.67,1.67,0,0,0-.52-.09,1.05,1.05,0,0,0-.73.32,2.51,2.51,0,0,0-.51.69l-1.1-.55a4.19,4.19,0,0,1,.29-.64,3.36,3.36,0,0,1,.51-.68,2.87,2.87,0,0,1,.7-.53,1.88,1.88,0,0,1,.88-.22,2.43,2.43,0,0,1,.86.16c.27.11.53.23.77.35a5.86,5.86,0,0,0,.67.27,1.45,1.45,0,0,0,.52.1,1,1,0,0,0,.73-.33,2.47,2.47,0,0,0,.51-.68Zm-3.95,14.78c.5,0,.95,0,1.34,0a4.86,4.86,0,0,0,1-.13v-3.55a3,3,0,0,0-.75-.2,8.74,8.74,0,0,0-1.25-.08,7.39,7.39,0,0,0-1,.07,3.16,3.16,0,0,0-1,.29,2,2,0,0,0-.74.59,1.59,1.59,0,0,0-.3,1,1.72,1.72,0,0,0,.73,1.6A3.82,3.82,0,0,0,232.72,163.48Z" transform="translate(-92.77 -74.54)"/><path class="a" d="M251.19,159.05a7.7,7.7,0,0,1-.41,2.57,5.94,5.94,0,0,1-1.16,2,5,5,0,0,1-1.78,1.27,5.85,5.85,0,0,1-4.5,0,5,5,0,0,1-1.78-1.27,5.91,5.91,0,0,1-1.15-2,8,8,0,0,1,0-5.13,5.82,5.82,0,0,1,1.15-2,5.14,5.14,0,0,1,1.78-1.27,5.85,5.85,0,0,1,4.5,0,5.14,5.14,0,0,1,1.78,1.27,5.83,5.83,0,0,1,1.16,2A7.68,7.68,0,0,1,251.19,159.05Zm-2.22,0a5.19,5.19,0,0,0-.91-3.21,3.18,3.18,0,0,0-4.94,0,6.16,6.16,0,0,0,0,6.41,3.18,3.18,0,0,0,4.94,0A5.17,5.17,0,0,0,249,159.05Z" transform="translate(-92.77 -74.54)"/><path class="a" d="M267.21,147.57l2.13-.36v17.46c-.49.14-1.11.27-1.88.41a14.71,14.71,0,0,1-2.64.21,6.72,6.72,0,0,1-2.48-.44,5.27,5.27,0,0,1-1.88-1.24,5.39,5.39,0,0,1-1.2-2,7.35,7.35,0,0,1-.43-2.6,8.45,8.45,0,0,1,.36-2.53,5.7,5.7,0,0,1,1-2,4.79,4.79,0,0,1,1.69-1.29,5.49,5.49,0,0,1,2.28-.46,5.84,5.84,0,0,1,3,.81Zm0,8a4.6,4.6,0,0,0-1.13-.62,4.38,4.38,0,0,0-1.6-.29,3.44,3.44,0,0,0-1.57.33,2.81,2.81,0,0,0-1.07.92,3.74,3.74,0,0,0-.6,1.39,7.76,7.76,0,0,0-.18,1.72,4.61,4.61,0,0,0,1,3.22,3.54,3.54,0,0,0,2.75,1.14,11.6,11.6,0,0,0,1.46-.08,6.59,6.59,0,0,0,.91-.18Z" transform="translate(-92.77 -74.54)"/><path class="a" d="M283.55,159.05a7.45,7.45,0,0,1-.42,2.57,5.91,5.91,0,0,1-1.15,2,5,5,0,0,1-1.78,1.27,5.85,5.85,0,0,1-4.5,0,5,5,0,0,1-1.78-1.27,5.94,5.94,0,0,1-1.16-2,8.23,8.23,0,0,1,0-5.13,5.83,5.83,0,0,1,1.16-2,5.14,5.14,0,0,1,1.78-1.27,5.85,5.85,0,0,1,4.5,0A5.14,5.14,0,0,1,282,154.5a5.82,5.82,0,0,1,1.15,2A7.43,7.43,0,0,1,283.55,159.05Zm-2.23,0a5.18,5.18,0,0,0-.9-3.21,3.18,3.18,0,0,0-4.94,0,6.16,6.16,0,0,0,0,6.41,3.18,3.18,0,0,0,4.94,0A5.17,5.17,0,0,0,281.32,159.05Z" transform="translate(-92.77 -74.54)"/><path class="a" d="M299.13,162.81c-.15-.37-.36-.83-.61-1.4l-.81-1.84c-.29-.65-.6-1.33-.93-2l-.93-2c-.29-.62-.56-1.17-.82-1.66s-.45-.87-.61-1.13q-.24,2.72-.41,5.86t-.27,6.37h-2.18c.06-1.37.13-2.76.2-4.16s.17-2.78.27-4.13.2-2.68.32-4,.24-2.5.38-3.65h1.95c.41.67.85,1.47,1.33,2.39s.95,1.87,1.42,2.88.93,2,1.38,3l1.21,2.74c.37-.82.78-1.74,1.22-2.74s.9-2,1.38-3,.95-2,1.42-2.88.92-1.72,1.33-2.39h1.95c.52,5.12.91,10.43,1.17,15.9h-2.18q-.12-3.21-.27-6.37t-.42-5.86c-.15.26-.35.64-.6,1.13s-.53,1-.82,1.66l-.93,2c-.33.7-.64,1.38-.93,2l-.81,1.84c-.26.57-.46,1-.61,1.4Z" transform="translate(-92.77 -74.54)"/><path class="a" d="M311.18,159.07a7.55,7.55,0,0,1,.46-2.77,5.81,5.81,0,0,1,1.21-2,5,5,0,0,1,1.75-1.17,5.42,5.42,0,0,1,2-.39,4.6,4.6,0,0,1,3.69,1.5,6.91,6.91,0,0,1,1.29,4.58v.36a2.5,2.5,0,0,1,0,.4H313.4a4.33,4.33,0,0,0,1.08,2.82,4,4,0,0,0,2.94,1,7.76,7.76,0,0,0,1.89-.2,6.26,6.26,0,0,0,1.16-.38l.3,1.79a6.07,6.07,0,0,1-1.37.44,9.81,9.81,0,0,1-2.21.23,7.12,7.12,0,0,1-2.7-.47,5.19,5.19,0,0,1-1.87-1.3,5.29,5.29,0,0,1-1.09-2A8.24,8.24,0,0,1,311.18,159.07Zm8.19-1.17a3.67,3.67,0,0,0-.72-2.38,2.51,2.51,0,0,0-2.06-.93,2.79,2.79,0,0,0-1.29.29,3,3,0,0,0-1,.75,3.2,3.2,0,0,0-.6,1.05,4.81,4.81,0,0,0-.29,1.22Z" transform="translate(-92.77 -74.54)"/><path class="a" d="M325.73,150.92a1.34,1.34,0,0,1-1-.38,1.5,1.5,0,0,1,0-2,1.44,1.44,0,0,1,1.95,0,1.5,1.5,0,0,1,0,2A1.33,1.33,0,0,1,325.73,150.92ZM326.8,165h-2.13V153.08h2.13Z" transform="translate(-92.77 -74.54)"/><path class="a" d="M341,159.05a7.7,7.7,0,0,1-.41,2.57,6.11,6.11,0,0,1-1.16,2,5,5,0,0,1-1.78,1.27,5.85,5.85,0,0,1-4.5,0,5,5,0,0,1-1.78-1.27,5.94,5.94,0,0,1-1.16-2,8.23,8.23,0,0,1,0-5.13,5.83,5.83,0,0,1,1.16-2,5.14,5.14,0,0,1,1.78-1.27,5.85,5.85,0,0,1,4.5,0,5.14,5.14,0,0,1,1.78,1.27,6,6,0,0,1,1.16,2A7.68,7.68,0,0,1,341,159.05Zm-2.23,0a5.18,5.18,0,0,0-.9-3.21,3.18,3.18,0,0,0-4.94,0,6.16,6.16,0,0,0,0,6.41,3.18,3.18,0,0,0,4.94,0A5.17,5.17,0,0,0,338.78,159.05Z" transform="translate(-92.77 -74.54)"/><path class="a" d="M360.08,165c-.26-.69-.51-1.36-.74-2s-.46-1.34-.71-2h-7.2L350,165h-2.32l1.72-4.67c.54-1.43,1.06-2.79,1.58-4.07s1-2.51,1.52-3.68,1-2.33,1.59-3.48h2c.55,1.15,1.08,2.31,1.58,3.48s1,2.39,1.53,3.68,1,2.64,1.57,4.07,1.11,3,1.72,4.67ZM358,159.12c-.49-1.34-1-2.62-1.46-3.87s-1-2.45-1.5-3.59c-.54,1.14-1,2.34-1.53,3.59s-1,2.53-1.43,3.87Z" transform="translate(-92.77 -74.54)"/><path class="a" d="M364.53,153.42c.49-.12,1.14-.25,1.94-.39a17.54,17.54,0,0,1,2.79-.2,5.2,5.2,0,0,1,1.93.31,3.34,3.34,0,0,1,1.3.9l.51-.32a5.24,5.24,0,0,1,.85-.4A8.78,8.78,0,0,1,375,153a5.64,5.64,0,0,1,1.33-.15,5.37,5.37,0,0,1,2.25.4,3.33,3.33,0,0,1,1.37,1.13,4.37,4.37,0,0,1,.66,1.75,12.6,12.6,0,0,1,.17,2.2V165h-2.13v-6.24a13.46,13.46,0,0,0-.1-1.81,3.47,3.47,0,0,0-.39-1.26,1.76,1.76,0,0,0-.78-.75,3,3,0,0,0-1.28-.24,4.57,4.57,0,0,0-1.78.29,3.68,3.68,0,0,0-1,.51,8.17,8.17,0,0,1,.28,1.31,11.81,11.81,0,0,1,.09,1.49V165h-2.13v-6.24a11.73,11.73,0,0,0-.12-1.81,3.66,3.66,0,0,0-.4-1.26,1.76,1.76,0,0,0-.78-.75,2.87,2.87,0,0,0-1.25-.24l-.69,0-.7.06-.61.08-.37.07V165h-2.13Z" transform="translate(-92.77 -74.54)"/><path class="a" d="M386.42,153.61a5.84,5.84,0,0,1,3-.81,5.46,5.46,0,0,1,2.28.46,4.79,4.79,0,0,1,1.69,1.29,5.54,5.54,0,0,1,1,2,8.45,8.45,0,0,1,.36,2.53,7.35,7.35,0,0,1-.43,2.6,5.39,5.39,0,0,1-1.2,2,5.27,5.27,0,0,1-1.88,1.24,6.72,6.72,0,0,1-2.48.44,14.79,14.79,0,0,1-2.64-.21c-.76-.14-1.39-.27-1.88-.41v-17.1l2.13-.36Zm0,9.54a6.59,6.59,0,0,0,.91.18,11.6,11.6,0,0,0,1.46.08,3.54,3.54,0,0,0,2.75-1.14,4.61,4.61,0,0,0,1-3.22,7.76,7.76,0,0,0-.18-1.72,3.74,3.74,0,0,0-.6-1.39,2.86,2.86,0,0,0-1.06-.92,3.48,3.48,0,0,0-1.58-.33,4.38,4.38,0,0,0-1.6.29,4.6,4.6,0,0,0-1.13.62Z" transform="translate(-92.77 -74.54)"/><path class="a" d="M398.86,150.92a1.43,1.43,0,0,1-1-2.42,1.45,1.45,0,0,1,2,0,1.4,1.4,0,0,1-1,2.42ZM399.94,165H397.8V153.08h2.14Z" transform="translate(-92.77 -74.54)"/><path class="a" d="M402.94,159.07a7.76,7.76,0,0,1,.46-2.77,6,6,0,0,1,1.22-2,5,5,0,0,1,1.74-1.17,5.45,5.45,0,0,1,2-.39,4.61,4.61,0,0,1,3.7,1.5,7,7,0,0,1,1.28,4.58v.36a2.55,2.55,0,0,1,0,.4h-8.17a4.33,4.33,0,0,0,1.08,2.82,4,4,0,0,0,2.94,1,7.76,7.76,0,0,0,1.89-.2,6.26,6.26,0,0,0,1.16-.38l.3,1.79a6.07,6.07,0,0,1-1.37.44,9.87,9.87,0,0,1-2.21.23,7.12,7.12,0,0,1-2.7-.47,5.1,5.1,0,0,1-1.87-1.3,5.29,5.29,0,0,1-1.09-2A8.23,8.23,0,0,1,402.94,159.07Zm8.2-1.17a3.62,3.62,0,0,0-.73-2.38,2.47,2.47,0,0,0-2.05-.93,2.86,2.86,0,0,0-1.3.29,3,3,0,0,0-.95.75,3.41,3.41,0,0,0-.61,1.05,5.26,5.26,0,0,0-.28,1.22Z" transform="translate(-92.77 -74.54)"/><path class="a" d="M416.44,153.42q.74-.18,1.95-.39a17.76,17.76,0,0,1,2.8-.2,6,6,0,0,1,2.36.4,3.77,3.77,0,0,1,1.51,1.12,4.49,4.49,0,0,1,.79,1.74,10.16,10.16,0,0,1,.23,2.22V165h-2.14v-6.24a10.14,10.14,0,0,0-.15-1.88,3.16,3.16,0,0,0-.49-1.26,2,2,0,0,0-.92-.7,3.92,3.92,0,0,0-1.42-.22l-.71,0-.7.06-.6.08-.38.07V165h-2.13Z" transform="translate(-92.77 -74.54)"/><path class="a" d="M431.61,153.08h4.52v1.79h-4.52v5.51a6.82,6.82,0,0,0,.13,1.48,2.31,2.31,0,0,0,.42.92,1.52,1.52,0,0,0,.69.47,3.05,3.05,0,0,0,1,.13,4.71,4.71,0,0,0,1.55-.21l.81-.31.42,1.76a7.72,7.72,0,0,1-1.13.4,6.38,6.38,0,0,1-1.83.25,5.7,5.7,0,0,1-2-.31,3,3,0,0,1-1.28-.93,3.82,3.82,0,0,1-.67-1.53,10,10,0,0,1-.2-2.1V149.75l2.14-.37Z" transform="translate(-92.77 -74.54)"/><path class="a" d="M437.94,159.07a7.55,7.55,0,0,1,.46-2.77,5.83,5.83,0,0,1,1.22-2,4.86,4.86,0,0,1,1.74-1.17,5.45,5.45,0,0,1,2-.39,4.57,4.57,0,0,1,3.69,1.5,6.91,6.91,0,0,1,1.29,4.58v.36c0,.14,0,.28,0,.4h-8.17a4.33,4.33,0,0,0,1.08,2.82,3.93,3.93,0,0,0,2.93,1,7.91,7.91,0,0,0,1.9-.2,6.11,6.11,0,0,0,1.15-.38l.3,1.79a6,6,0,0,1-1.36.44,9.9,9.9,0,0,1-2.22.23,7,7,0,0,1-2.69-.47,5,5,0,0,1-3-3.26A8.23,8.23,0,0,1,437.94,159.07Zm8.19-1.17a3.56,3.56,0,0,0-.72-2.38,2.49,2.49,0,0,0-2.05-.93,2.83,2.83,0,0,0-1.3.29,2.93,2.93,0,0,0-.95.75,3.22,3.22,0,0,0-.61,1.05,5.28,5.28,0,0,0-.29,1.22Z" transform="translate(-92.77 -74.54)"/><path class="a" d="M464.44,147.57l2.14-.36v17.46c-.49.14-1.12.27-1.88.41a14.87,14.87,0,0,1-2.64.21,6.68,6.68,0,0,1-2.48-.44,5.27,5.27,0,0,1-1.88-1.24,5.55,5.55,0,0,1-1.21-2,7.58,7.58,0,0,1-.42-2.6,8.79,8.79,0,0,1,.35-2.53,5.72,5.72,0,0,1,1.05-2,4.79,4.79,0,0,1,1.69-1.29,5.46,5.46,0,0,1,2.28-.46,5.57,5.57,0,0,1,1.82.28,5.4,5.4,0,0,1,1.18.53Zm0,8a4.51,4.51,0,0,0-1.12-.62,4.39,4.39,0,0,0-1.61-.29,3.46,3.46,0,0,0-1.57.33,2.86,2.86,0,0,0-1.06.92,3.74,3.74,0,0,0-.6,1.39,7.74,7.74,0,0,0-.19,1.72,4.62,4.62,0,0,0,1,3.22,3.52,3.52,0,0,0,2.75,1.14,11.72,11.72,0,0,0,1.46-.08,6.11,6.11,0,0,0,.9-.18Z" transform="translate(-92.77 -74.54)"/><path class="a" d="M480.78,159.05a7.45,7.45,0,0,1-.41,2.57,5.77,5.77,0,0,1-1.16,2,5,5,0,0,1-1.78,1.27,5.83,5.83,0,0,1-4.49,0,4.92,4.92,0,0,1-1.78-1.27,5.77,5.77,0,0,1-1.16-2,8,8,0,0,1,0-5.13,5.68,5.68,0,0,1,1.16-2,5,5,0,0,1,1.78-1.27,5.83,5.83,0,0,1,4.49,0,5.14,5.14,0,0,1,1.78,1.27,5.68,5.68,0,0,1,1.16,2A7.43,7.43,0,0,1,480.78,159.05Zm-2.22,0a5.12,5.12,0,0,0-.91-3.21,3.16,3.16,0,0,0-4.93,0,6.1,6.1,0,0,0,0,6.41,3.16,3.16,0,0,0,4.93,0A5.11,5.11,0,0,0,478.56,159.05Z" transform="translate(-92.77 -74.54)"/><path class="a" d="M499.85,149.11V151h-5v14h-2.23V151h-5v-1.93Z" transform="translate(-92.77 -74.54)"/><path class="a" d="M505.54,152.83l.64,0,.7.09.63.12.42.1-.37,1.86a7.89,7.89,0,0,0-.83-.22,7.8,7.8,0,0,0-1.51-.12,5.91,5.91,0,0,0-1.18.12l-.77.17v10h-2.13V153.58a14.82,14.82,0,0,1,1.88-.51A12.12,12.12,0,0,1,505.54,152.83Z" transform="translate(-92.77 -74.54)"/><path class="a" d="M513.85,152.78a6.23,6.23,0,0,1,2.17.33,3.64,3.64,0,0,1,1.42.94,3.56,3.56,0,0,1,.77,1.45,7.1,7.1,0,0,1,.23,1.85v7.46l-.77.12q-.49.09-1.11.15c-.41,0-.86.09-1.34.13s-1,.06-1.44.06a7.79,7.79,0,0,1-1.86-.21,4.16,4.16,0,0,1-1.46-.66,2.89,2.89,0,0,1-1-1.18,4.12,4.12,0,0,1-.34-1.76,3.37,3.37,0,0,1,.4-1.7,3.17,3.17,0,0,1,1.09-1.15,5.07,5.07,0,0,1,1.61-.64,8.56,8.56,0,0,1,1.92-.21,5.12,5.12,0,0,1,.67,0,6,6,0,0,1,.65.09l.54.1.32.07v-.6a5.17,5.17,0,0,0-.11-1,2.42,2.42,0,0,0-.42-.92,2,2,0,0,0-.81-.64,3.18,3.18,0,0,0-1.34-.24,10,10,0,0,0-1.85.15,6.19,6.19,0,0,0-1.18.31l-.25-1.77a6.88,6.88,0,0,1,1.37-.36A12.46,12.46,0,0,1,513.85,152.78Zm.18,10.7c.51,0,1,0,1.35,0a4.75,4.75,0,0,0,1-.13v-3.55a2.77,2.77,0,0,0-.74-.2,8.84,8.84,0,0,0-1.25-.08,7.43,7.43,0,0,0-1,.07,3.18,3.18,0,0,0-1,.29,2.07,2.07,0,0,0-.75.59,1.59,1.59,0,0,0-.3,1A1.72,1.72,0,0,0,512,163,3.78,3.78,0,0,0,514,163.48Z" transform="translate(-92.77 -74.54)"/><path class="a" d="M524.11,153.61a5.4,5.4,0,0,1,1.18-.53,5.67,5.67,0,0,1,1.83-.28,5.52,5.52,0,0,1,2.28.46,4.89,4.89,0,0,1,1.69,1.29,5.88,5.88,0,0,1,1,2,8.45,8.45,0,0,1,.36,2.53,7.58,7.58,0,0,1-.43,2.6,5.39,5.39,0,0,1-1.2,2,5.23,5.23,0,0,1-1.89,1.24,6.67,6.67,0,0,1-2.47.44,14.71,14.71,0,0,1-2.64-.21c-.77-.14-1.4-.27-1.88-.41v-17.1l2.13-.36Zm0,9.54a6.29,6.29,0,0,0,.91.18,11.54,11.54,0,0,0,1.45.08,3.55,3.55,0,0,0,2.76-1.14,4.61,4.61,0,0,0,1-3.22,7.76,7.76,0,0,0-.18-1.72,4.09,4.09,0,0,0-.6-1.39,2.89,2.89,0,0,0-1.07-.92,3.44,3.44,0,0,0-1.57-.33,4.43,4.43,0,0,0-1.61.29,4.51,4.51,0,0,0-1.12.62Z" transform="translate(-92.77 -74.54)"/><path class="a" d="M539.35,152.78a6.27,6.27,0,0,1,2.17.33,3.39,3.39,0,0,1,2.19,2.39,7.1,7.1,0,0,1,.23,1.85v7.46l-.77.12c-.33.06-.7.11-1.12.15s-.86.09-1.34.13-1,.06-1.43.06a7.67,7.67,0,0,1-1.86-.21,4.13,4.13,0,0,1-1.47-.66,3,3,0,0,1-1-1.18,4.12,4.12,0,0,1-.35-1.76,3.47,3.47,0,0,1,.4-1.7,3.17,3.17,0,0,1,1.09-1.15,5.17,5.17,0,0,1,1.61-.64,8.58,8.58,0,0,1,1.93-.21,5.07,5.07,0,0,1,.66,0,6.57,6.57,0,0,1,.66.09l.54.1.32.07v-.6a4.55,4.55,0,0,0-.12-1,2.26,2.26,0,0,0-.41-.92,2.08,2.08,0,0,0-.81-.64,3.26,3.26,0,0,0-1.35-.24,9.91,9.91,0,0,0-1.84.15,6.34,6.34,0,0,0-1.19.31l-.25-1.77a7.23,7.23,0,0,1,1.38-.36A12.37,12.37,0,0,1,539.35,152.78Zm.18,10.7c.5,0,1,0,1.34,0a4.86,4.86,0,0,0,1-.13v-3.55a2.87,2.87,0,0,0-.75-.2,8.74,8.74,0,0,0-1.25-.08,7.39,7.39,0,0,0-1,.07,3.16,3.16,0,0,0-1,.29,2,2,0,0,0-.74.59,1.59,1.59,0,0,0-.3,1,1.72,1.72,0,0,0,.73,1.6A3.82,3.82,0,0,0,539.53,163.48Z" transform="translate(-92.77 -74.54)"/><path class="a" d="M551.05,165.24a4.06,4.06,0,0,1-2.8-.85,3.35,3.35,0,0,1-.83-2.5V147.57l2.14-.36v14.34a3.52,3.52,0,0,0,.09.87,1.17,1.17,0,0,0,.3.55,1.28,1.28,0,0,0,.55.31,4.88,4.88,0,0,0,.85.17Z" transform="translate(-92.77 -74.54)"/><path class="a" d="M553.73,165V147.57l2.14-.36v6.1a8.15,8.15,0,0,1,1.27-.36,7.67,7.67,0,0,1,1.34-.12,6,6,0,0,1,2.37.4,3.66,3.66,0,0,1,1.5,1.12,4.22,4.22,0,0,1,.79,1.74,9.58,9.58,0,0,1,.23,2.22V165h-2.13v-6.24a10.14,10.14,0,0,0-.15-1.88,3.16,3.16,0,0,0-.49-1.26,2,2,0,0,0-.92-.7,3.94,3.94,0,0,0-1.43-.22,6,6,0,0,0-.71,0l-.7.11-.59.12-.38.12V165Z" transform="translate(-92.77 -74.54)"/><path class="a" d="M577.37,159.05a7.7,7.7,0,0,1-.41,2.57,5.94,5.94,0,0,1-1.16,2,5,5,0,0,1-1.78,1.27,5.85,5.85,0,0,1-4.5,0,5,5,0,0,1-1.78-1.27,5.91,5.91,0,0,1-1.15-2,8,8,0,0,1,0-5.13,5.82,5.82,0,0,1,1.15-2,5.14,5.14,0,0,1,1.78-1.27,5.85,5.85,0,0,1,4.5,0,5.14,5.14,0,0,1,1.78,1.27,5.83,5.83,0,0,1,1.16,2A7.68,7.68,0,0,1,577.37,159.05Zm-2.22,0a5.19,5.19,0,0,0-.91-3.21,3.18,3.18,0,0,0-4.94,0,6.16,6.16,0,0,0,0,6.41,3.18,3.18,0,0,0,4.94,0A5.17,5.17,0,0,0,575.15,159.05Z" transform="translate(-92.77 -74.54)"/><path class="a" d="M595.52,157.19h2.23v7.43c-.18.06-.45.13-.79.21s-.75.15-1.2.23-.94.14-1.48.19a14.47,14.47,0,0,1-1.63.08,8.12,8.12,0,0,1-3-.55,6.42,6.42,0,0,1-2.36-1.6,7.28,7.28,0,0,1-1.53-2.6,10.6,10.6,0,0,1-.54-3.53,9.82,9.82,0,0,1,.61-3.55,7.7,7.7,0,0,1,1.64-2.6,7.08,7.08,0,0,1,2.42-1.61,8.16,8.16,0,0,1,3-.55,12.16,12.16,0,0,1,1.92.14,11.28,11.28,0,0,1,1.44.32,7.15,7.15,0,0,1,1,.37,5.33,5.33,0,0,1,.52.27L597,151.7a6.13,6.13,0,0,0-1.77-.72,9,9,0,0,0-2.25-.29,5.45,5.45,0,0,0-2.21.44,4.53,4.53,0,0,0-1.7,1.26,5.88,5.88,0,0,0-1.09,2,8.43,8.43,0,0,0-.39,2.65,9.51,9.51,0,0,0,.33,2.59,5.59,5.59,0,0,0,1,2,4.64,4.64,0,0,0,1.67,1.3,5.71,5.71,0,0,0,2.36.46,10.85,10.85,0,0,0,1.64-.11,8.22,8.22,0,0,0,1-.19Z" transform="translate(-92.77 -74.54)"/><path class="a" d="M610.6,164.67c-.49.12-1.14.25-1.94.39a16.36,16.36,0,0,1-2.79.21,5.87,5.87,0,0,1-2.32-.41,3.68,3.68,0,0,1-1.51-1.13,4.72,4.72,0,0,1-.83-1.73,9.54,9.54,0,0,1-.25-2.22v-6.7h2.14v6.24a5.46,5.46,0,0,0,.68,3.12,2.69,2.69,0,0,0,2.32.94c.23,0,.47,0,.71,0a6.83,6.83,0,0,0,.69-.06l.59-.07a1.73,1.73,0,0,0,.38-.08V153.08h2.13Z" transform="translate(-92.77 -74.54)"/><path class="a" d="M615.33,150.92a1.34,1.34,0,0,1-1-.38,1.5,1.5,0,0,1,0-2,1.44,1.44,0,0,1,1.95,0,1.5,1.5,0,0,1,0,2A1.33,1.33,0,0,1,615.33,150.92ZM616.41,165h-2.14V153.08h2.14Z" transform="translate(-92.77 -74.54)"/><path class="a" d="M623.93,152.78a6.23,6.23,0,0,1,2.17.33,3.64,3.64,0,0,1,1.42.94,3.56,3.56,0,0,1,.77,1.45,6.7,6.7,0,0,1,.23,1.85v7.46l-.77.12q-.5.09-1.11.15c-.41,0-.86.09-1.34.13s-1,.06-1.44.06a7.79,7.79,0,0,1-1.86-.21,4.16,4.16,0,0,1-1.46-.66,2.89,2.89,0,0,1-1-1.18,4.12,4.12,0,0,1-.34-1.76,3.37,3.37,0,0,1,.4-1.7,3.17,3.17,0,0,1,1.09-1.15,5.07,5.07,0,0,1,1.61-.64,8.56,8.56,0,0,1,1.92-.21,5.12,5.12,0,0,1,.67,0,6,6,0,0,1,.65.09l.54.1.32.07v-.6a4.54,4.54,0,0,0-.11-1,2.57,2.57,0,0,0-.41-.92,2,2,0,0,0-.82-.64,3.18,3.18,0,0,0-1.34-.24,10,10,0,0,0-1.85.15,6.19,6.19,0,0,0-1.18.31l-.25-1.77a6.88,6.88,0,0,1,1.37-.36A12.46,12.46,0,0,1,623.93,152.78Zm.19,10.7c.5,0,1,0,1.34,0a4.75,4.75,0,0,0,1-.13v-3.55a2.77,2.77,0,0,0-.74-.2,8.84,8.84,0,0,0-1.25-.08,7.39,7.39,0,0,0-1,.07,3.16,3.16,0,0,0-1,.29,2.07,2.07,0,0,0-.75.59,1.58,1.58,0,0,0-.29,1,1.72,1.72,0,0,0,.73,1.6A3.8,3.8,0,0,0,624.12,163.48Z" transform="translate(-92.77 -74.54)"/><path class="a" d="M639.77,147.57l2.13-.36v17.46c-.49.14-1.12.27-1.88.41a14.87,14.87,0,0,1-2.64.21,6.72,6.72,0,0,1-2.48-.44,5.27,5.27,0,0,1-1.88-1.24,5.55,5.55,0,0,1-1.21-2,7.58,7.58,0,0,1-.42-2.6,8.45,8.45,0,0,1,.36-2.53,5.54,5.54,0,0,1,1-2,4.79,4.79,0,0,1,1.69-1.29,5.46,5.46,0,0,1,2.28-.46,5.92,5.92,0,0,1,3,.81Zm0,8a4.6,4.6,0,0,0-1.13-.62,4.38,4.38,0,0,0-1.6-.29,3.48,3.48,0,0,0-1.58.33,2.86,2.86,0,0,0-1.06.92,3.74,3.74,0,0,0-.6,1.39,7.76,7.76,0,0,0-.18,1.72,4.61,4.61,0,0,0,1,3.22,3.52,3.52,0,0,0,2.75,1.14,11.72,11.72,0,0,0,1.46-.08,6.59,6.59,0,0,0,.91-.18Z" transform="translate(-92.77 -74.54)"/><path class="a" d="M649.43,152.78a6.27,6.27,0,0,1,2.17.33,3.39,3.39,0,0,1,2.19,2.39,7.1,7.1,0,0,1,.23,1.85v7.46l-.77.12c-.33.06-.7.11-1.12.15s-.86.09-1.34.13-1,.06-1.43.06a7.67,7.67,0,0,1-1.86-.21,4.13,4.13,0,0,1-1.47-.66,3,3,0,0,1-1-1.18,4.12,4.12,0,0,1-.35-1.76,3.47,3.47,0,0,1,.4-1.7,3.25,3.25,0,0,1,1.09-1.15,5.17,5.17,0,0,1,1.61-.64,8.58,8.58,0,0,1,1.93-.21,5.07,5.07,0,0,1,.66,0,6.57,6.57,0,0,1,.66.09l.54.1.32.07v-.6a4.55,4.55,0,0,0-.12-1,2.26,2.26,0,0,0-.41-.92,2.08,2.08,0,0,0-.81-.64,3.26,3.26,0,0,0-1.35-.24,9.91,9.91,0,0,0-1.84.15,6.34,6.34,0,0,0-1.19.31l-.25-1.77a7.23,7.23,0,0,1,1.38-.36A12.37,12.37,0,0,1,649.43,152.78Zm.18,10.7c.51,0,.95,0,1.34,0a4.86,4.86,0,0,0,1-.13v-3.55a2.75,2.75,0,0,0-.75-.2,8.74,8.74,0,0,0-1.25-.08,7.39,7.39,0,0,0-1,.07,3.16,3.16,0,0,0-1,.29,2.13,2.13,0,0,0-.74.59,1.59,1.59,0,0,0-.3,1,1.72,1.72,0,0,0,.73,1.6A3.82,3.82,0,0,0,649.61,163.48Z" transform="translate(-92.77 -74.54)"/><path class="a" d="M673.36,159.07a8.63,8.63,0,0,1-.35,2.5,5.63,5.63,0,0,1-1,2,4.79,4.79,0,0,1-1.69,1.29,5.46,5.46,0,0,1-2.28.46,5.31,5.31,0,0,1-1.82-.28,5.4,5.4,0,0,1-1.18-.53v4.78h-2.14V153.45c.51-.13,1.14-.26,1.89-.4a13.75,13.75,0,0,1,2.63-.22,6.69,6.69,0,0,1,2.48.43,5.41,5.41,0,0,1,1.88,1.24,5.64,5.64,0,0,1,1.21,2A7.68,7.68,0,0,1,673.36,159.07Zm-2.22,0a4.57,4.57,0,0,0-1-3.21,3.55,3.55,0,0,0-2.75-1.13,11.71,11.71,0,0,0-1.5.07,6.74,6.74,0,0,0-.86.16v7.53a4.51,4.51,0,0,0,1.12.62,4.2,4.2,0,0,0,1.61.3,3.34,3.34,0,0,0,1.57-.34,2.83,2.83,0,0,0,1.06-.91,3.76,3.76,0,0,0,.6-1.38A7.72,7.72,0,0,0,671.14,159.07Z" transform="translate(-92.77 -74.54)"/><path class="a" d="M686.9,159.05a7.7,7.7,0,0,1-.41,2.57,5.94,5.94,0,0,1-1.16,2,5,5,0,0,1-1.78,1.27,5.85,5.85,0,0,1-4.5,0,5,5,0,0,1-1.78-1.27,5.91,5.91,0,0,1-1.15-2,8,8,0,0,1,0-5.13,5.82,5.82,0,0,1,1.15-2,5.14,5.14,0,0,1,1.78-1.27,5.85,5.85,0,0,1,4.5,0,5.14,5.14,0,0,1,1.78,1.27,5.83,5.83,0,0,1,1.16,2A7.68,7.68,0,0,1,686.9,159.05Zm-2.23,0a5.18,5.18,0,0,0-.9-3.21,3.18,3.18,0,0,0-4.94,0,6.16,6.16,0,0,0,0,6.41,3.18,3.18,0,0,0,4.94,0A5.17,5.17,0,0,0,684.67,159.05Z" transform="translate(-92.77 -74.54)"/><path class="a" d="M694.31,152.83l.63,0c.24,0,.47.06.7.09l.63.12.43.1-.37,1.86c-.17-.06-.45-.13-.84-.22a7.69,7.69,0,0,0-1.5-.12,5.83,5.83,0,0,0-1.18.12L692,155v10h-2.13V153.58a14.82,14.82,0,0,1,1.88-.51A12.12,12.12,0,0,1,694.31,152.83Z" transform="translate(-92.77 -74.54)"/><path class="a" d="M717.26,157.05a9.17,9.17,0,0,1-.64,3.59,6.7,6.7,0,0,1-1.81,2.53,7.92,7.92,0,0,1-2.8,1.49,12.3,12.3,0,0,1-3.58.49c-.65,0-1.35,0-2.13-.08a12.58,12.58,0,0,1-2.1-.31V149.34a12.58,12.58,0,0,1,2.1-.31c.78-.05,1.48-.08,2.13-.08a12.3,12.3,0,0,1,3.58.49,7.92,7.92,0,0,1,2.8,1.49,6.7,6.7,0,0,1,1.81,2.53A9.17,9.17,0,0,1,717.26,157.05Zm-8.65,6.15a6.17,6.17,0,1,0,0-12.3l-1.46,0c-.34,0-.58,0-.72.05v12.16c.14,0,.38,0,.72.05Z" transform="translate(-92.77 -74.54)"/><path class="a" d="M724,152.78a6.23,6.23,0,0,1,2.17.33,3.64,3.64,0,0,1,1.42.94,3.56,3.56,0,0,1,.77,1.45,7.1,7.1,0,0,1,.23,1.85v7.46l-.77.12q-.49.09-1.11.15c-.41,0-.86.09-1.34.13s-1,.06-1.44.06a7.79,7.79,0,0,1-1.86-.21,4.29,4.29,0,0,1-1.47-.66,3,3,0,0,1-1-1.18,4.12,4.12,0,0,1-.34-1.76,3.37,3.37,0,0,1,.4-1.7,3.17,3.17,0,0,1,1.09-1.15,5.11,5.11,0,0,1,1.6-.64,8.71,8.71,0,0,1,1.93-.21,5.12,5.12,0,0,1,.67,0,6,6,0,0,1,.65.09l.54.1.32.07v-.6a5.17,5.17,0,0,0-.11-1,2.42,2.42,0,0,0-.42-.92,2,2,0,0,0-.81-.64,3.18,3.18,0,0,0-1.34-.24,10,10,0,0,0-1.85.15,6.19,6.19,0,0,0-1.18.31l-.25-1.77a6.88,6.88,0,0,1,1.37-.36A12.46,12.46,0,0,1,724,152.78Zm.18,10.7c.51,0,1,0,1.35,0a4.75,4.75,0,0,0,1-.13v-3.55a2.77,2.77,0,0,0-.74-.2,8.84,8.84,0,0,0-1.25-.08,7.43,7.43,0,0,0-1,.07,3.1,3.1,0,0,0-1,.29,2.07,2.07,0,0,0-.75.59,1.59,1.59,0,0,0-.3,1,1.72,1.72,0,0,0,.74,1.6A3.78,3.78,0,0,0,724.14,163.48Z" transform="translate(-92.77 -74.54)"/><path class="a" d="M739.8,147.57l2.13-.36v17.46c-.49.14-1.12.27-1.88.41a14.87,14.87,0,0,1-2.64.21,6.72,6.72,0,0,1-2.48-.44,5.27,5.27,0,0,1-1.88-1.24,5.55,5.55,0,0,1-1.21-2,7.58,7.58,0,0,1-.42-2.6,8.79,8.79,0,0,1,.35-2.53,5.72,5.72,0,0,1,1.05-2,4.79,4.79,0,0,1,1.69-1.29,5.46,5.46,0,0,1,2.28-.46,5.92,5.92,0,0,1,3,.81Zm0,8a4.6,4.6,0,0,0-1.13-.62,4.39,4.39,0,0,0-1.61-.29,3.46,3.46,0,0,0-1.57.33,2.86,2.86,0,0,0-1.06.92,3.74,3.74,0,0,0-.6,1.39,7.76,7.76,0,0,0-.18,1.72,4.61,4.61,0,0,0,1,3.22,3.52,3.52,0,0,0,2.75,1.14,11.72,11.72,0,0,0,1.46-.08,6.59,6.59,0,0,0,.91-.18Z" transform="translate(-92.77 -74.54)"/><path class="a" d="M756.13,159.05a7.45,7.45,0,0,1-.41,2.57,5.77,5.77,0,0,1-1.16,2,5,5,0,0,1-1.78,1.27,5.83,5.83,0,0,1-4.49,0,4.92,4.92,0,0,1-1.78-1.27,5.77,5.77,0,0,1-1.16-2,8.23,8.23,0,0,1,0-5.13,5.68,5.68,0,0,1,1.16-2,5,5,0,0,1,1.78-1.27,5.83,5.83,0,0,1,4.49,0,5.14,5.14,0,0,1,1.78,1.27,5.68,5.68,0,0,1,1.16,2A7.43,7.43,0,0,1,756.13,159.05Zm-2.22,0a5.12,5.12,0,0,0-.91-3.21,3.16,3.16,0,0,0-4.93,0,6.1,6.1,0,0,0,0,6.41,3.16,3.16,0,0,0,4.93,0A5.11,5.11,0,0,0,753.91,159.05Z" transform="translate(-92.77 -74.54)"/><path class="a" d="M761.92,163.48a4.19,4.19,0,0,0,1.94-.35,1.17,1.17,0,0,0,.63-1.1,1.48,1.48,0,0,0-.62-1.24,9.89,9.89,0,0,0-2-1c-.46-.19-.9-.37-1.32-.56a4.61,4.61,0,0,1-1.09-.68,2.77,2.77,0,0,1-1-2.3,3,3,0,0,1,1.17-2.51,5,5,0,0,1,3.19-.93,8.68,8.68,0,0,1,1,.06c.33,0,.65.08.94.14s.54.11.77.17a4.58,4.58,0,0,1,.51.16l-.39,1.84a5,5,0,0,0-1.08-.38,6.93,6.93,0,0,0-1.76-.2,3.21,3.21,0,0,0-1.56.36,1.17,1.17,0,0,0-.67,1.11,1.52,1.52,0,0,0,.15.69,1.55,1.55,0,0,0,.46.54,3.64,3.64,0,0,0,.77.45c.3.13.67.28,1.1.43s1.07.43,1.51.63a4.84,4.84,0,0,1,1.14.72,2.88,2.88,0,0,1,.72,1,3.61,3.61,0,0,1,.25,1.44,2.84,2.84,0,0,1-1.22,2.5,6.1,6.1,0,0,1-3.5.85,9,9,0,0,1-2.48-.27,12.32,12.32,0,0,1-1.22-.4l.39-1.83,1.17.41A6.89,6.89,0,0,0,761.92,163.48Z" transform="translate(-92.77 -74.54)"/><path class="a" d="M103.3,131.1q7.29,0,7.29-5a5,5,0,0,0-.64-2.62,6.37,6.37,0,0,0-1.76-1.87,12.05,12.05,0,0,0-2.52-1.37c-.94-.38-1.94-.77-3-1.15a31.47,31.47,0,0,1-3.45-1.41,12.12,12.12,0,0,1-2.83-1.88,7.89,7.89,0,0,1-1.9-2.56,8.56,8.56,0,0,1-.7-3.6,8.35,8.35,0,0,1,3-6.82q3-2.44,8.21-2.45a21.84,21.84,0,0,1,5.5.65,12.35,12.35,0,0,1,3.62,1.42l-1.49,3.79a12.83,12.83,0,0,0-3-1.23,16.1,16.1,0,0,0-4.63-.6,10.39,10.39,0,0,0-2.5.29,6.33,6.33,0,0,0-2,.86A4.37,4.37,0,0,0,99.1,107a4.12,4.12,0,0,0-.51,2.09,4.43,4.43,0,0,0,.53,2.25,5.15,5.15,0,0,0,1.49,1.61,12.07,12.07,0,0,0,2.23,1.27c.85.39,1.79.77,2.81,1.16,1.44.57,2.76,1.15,4,1.72a13,13,0,0,1,3.12,2.07,8.29,8.29,0,0,1,2,2.85,10.05,10.05,0,0,1,.72,4,7.84,7.84,0,0,1-3.19,6.72q-3.19,2.35-9,2.35a24,24,0,0,1-3.63-.26c-1.1-.18-2.08-.39-3-.62a19,19,0,0,1-2.23-.77c-.62-.27-1.11-.51-1.46-.7l1.39-3.84a20,20,0,0,0,3.36,1.39A17,17,0,0,0,103.3,131.1Z" transform="translate(-92.77 -74.54)"/><path class="a" d="M119.43,122a15.91,15.91,0,0,1,1-5.78,12,12,0,0,1,2.54-4.11,10.37,10.37,0,0,1,3.65-2.44,11.24,11.24,0,0,1,4.22-.82q5,0,7.73,3.14t2.69,9.58v.74a7,7,0,0,1-.05.84H124.08a9.15,9.15,0,0,0,2.26,5.91q2,2,6.14,2a16.49,16.49,0,0,0,4-.4,14.89,14.89,0,0,0,2.43-.8l.62,3.75a13.16,13.16,0,0,1-2.86.91A20.27,20.27,0,0,1,132,135a14.66,14.66,0,0,1-5.64-1,10.35,10.35,0,0,1-3.91-2.71,11.18,11.18,0,0,1-2.28-4.1A17.27,17.27,0,0,1,119.43,122Zm17.13-2.45a7.52,7.52,0,0,0-1.51-5,5.22,5.22,0,0,0-4.3-1.94,5.91,5.91,0,0,0-2.71.6,6.39,6.39,0,0,0-2,1.56,7.21,7.21,0,0,0-1.27,2.21,10.31,10.31,0,0,0-.6,2.54Z" transform="translate(-92.77 -74.54)"/><path class="a" d="M163.3,131.92a12.73,12.73,0,0,1-2.23,1,11.4,11.4,0,0,1-3.87.6,12.44,12.44,0,0,1-4.25-.72,9.32,9.32,0,0,1-3.48-2.23,10.84,10.84,0,0,1-2.35-3.77,15.12,15.12,0,0,1-.86-5.37,14.89,14.89,0,0,1,.81-5,11.3,11.3,0,0,1,2.38-3.94,10.86,10.86,0,0,1,3.82-2.59,13.22,13.22,0,0,1,5.08-.93,29,29,0,0,1,5.45.45c1.55.31,2.86.59,3.91.84v22.27q0,5.76-3,8.36c-2,1.72-5,2.59-9,2.59a24.29,24.29,0,0,1-4.44-.39,24.73,24.73,0,0,1-3.62-.91l.82-3.89a20.64,20.64,0,0,0,3.28.94,19.89,19.89,0,0,0,4.06.41q4,0,5.74-1.59c1.16-1,1.75-2.73,1.75-5Zm-.05-18.53a14.13,14.13,0,0,0-1.8-.36,22,22,0,0,0-3-.17,6.79,6.79,0,0,0-5.54,2.35,9.47,9.47,0,0,0-2,6.24,10.91,10.91,0,0,0,.56,3.7,7.25,7.25,0,0,0,1.48,2.54,5.83,5.83,0,0,0,2.16,1.49,6.88,6.88,0,0,0,2.52.48,10.29,10.29,0,0,0,3.27-.5,8.15,8.15,0,0,0,2.35-1.18Z" transform="translate(-92.77 -74.54)"/><path class="a" d="M195.27,133.69c-1,.26-2.38.53-4.06.82a34.62,34.62,0,0,1-5.83.43,12.36,12.36,0,0,1-4.85-.84,7.87,7.87,0,0,1-3.17-2.37,9.86,9.86,0,0,1-1.73-3.63,19,19,0,0,1-.52-4.63v-14h4.46v13.06q0,4.56,1.44,6.53t4.85,2c.48,0,1,0,1.49,0s1-.07,1.44-.12l1.22-.15a2.87,2.87,0,0,0,.79-.17V109.45h4.47Z" transform="translate(-92.77 -74.54)"/><path class="a" d="M212.16,108.93a13.16,13.16,0,0,1,1.32.07c.5,0,1,.11,1.47.19l1.32.24a6.47,6.47,0,0,1,.88.22l-.76,3.88a16.21,16.21,0,0,0-1.76-.45,14.94,14.94,0,0,0-3.14-.27,11.4,11.4,0,0,0-2.47.27c-.82.17-1.35.29-1.61.36v21H203v-23.9a31.17,31.17,0,0,1,3.93-1.08A25.06,25.06,0,0,1,212.16,108.93Z" transform="translate(-92.77 -74.54)"/><path class="a" d="M229.54,108.83a13,13,0,0,1,4.53.69,7.1,7.1,0,0,1,4.59,5,14.57,14.57,0,0,1,.48,3.86V134l-1.61.27c-.69.11-1.47.21-2.33.31s-1.8.18-2.81.26-2,.12-3,.12a16.38,16.38,0,0,1-3.89-.43,8.7,8.7,0,0,1-3.07-1.37,6.28,6.28,0,0,1-2-2.47,8.66,8.66,0,0,1-.72-3.7,7.12,7.12,0,0,1,.84-3.55,6.72,6.72,0,0,1,2.28-2.4,10.33,10.33,0,0,1,3.36-1.34,18.17,18.17,0,0,1,4-.43,13.34,13.34,0,0,1,1.39.07c.48.05.94.11,1.37.19l1.13.22.67.14v-1.25a10,10,0,0,0-.24-2.18,5.08,5.08,0,0,0-.86-1.92,4.47,4.47,0,0,0-1.71-1.35,6.8,6.8,0,0,0-2.81-.5,20.87,20.87,0,0,0-3.86.31,13.72,13.72,0,0,0-2.47.65l-.53-3.7a14,14,0,0,1,2.88-.74A24.85,24.85,0,0,1,229.54,108.83Zm.38,22.37c1.06,0,2,0,2.81-.07a12.37,12.37,0,0,0,2-.27v-7.44a6,6,0,0,0-1.56-.41,17.74,17.74,0,0,0-2.62-.16,16.07,16.07,0,0,0-2.13.14,6.55,6.55,0,0,0-2.07.6,4.43,4.43,0,0,0-1.56,1.25,3.31,3.31,0,0,0-.62,2.09,3.58,3.58,0,0,0,1.53,3.33A8,8,0,0,0,229.92,131.2Z" transform="translate(-92.77 -74.54)"/><path class="a" d="M246.53,110.17q1.53-.37,4.08-.81a35,35,0,0,1,5.85-.43,12.65,12.65,0,0,1,5,.84,7.68,7.68,0,0,1,3.14,2.35,9,9,0,0,1,1.66,3.62,21,21,0,0,1,.48,4.66v14h-4.47v-13a21.19,21.19,0,0,0-.31-3.94,6.66,6.66,0,0,0-1-2.64,4.06,4.06,0,0,0-1.92-1.46,8.29,8.29,0,0,0-3-.46c-.48,0-1,0-1.48,0s-1,.07-1.47.12-.88.1-1.25.17l-.79.14v21.07h-4.46Z" transform="translate(-92.77 -74.54)"/><path class="a" d="M285.5,135l-.52,1.2a5.77,5.77,0,0,1,2,1.46,3.7,3.7,0,0,1,.63,2.33,3.2,3.2,0,0,1-.24,1.15,3.3,3.3,0,0,1-.82,1.16,4.5,4.5,0,0,1-1.54.86,7.27,7.27,0,0,1-2.35.33,12.36,12.36,0,0,1-2.28-.19,8.77,8.77,0,0,1-1.65-.43l.52-2.73c.39.12.8.24,1.23.33a6.52,6.52,0,0,0,1.46.14c1.15,0,1.73-.36,1.73-1.1a1.07,1.07,0,0,0-.53-.89,8.2,8.2,0,0,0-1.49-.74l-.33-.14c.12-.39.3-.85.53-1.4a15.44,15.44,0,0,1,.72-1.53,11.6,11.6,0,0,1-4.3-1.42,10.39,10.39,0,0,1-3.1-2.76,12,12,0,0,1-1.87-3.86,17.61,17.61,0,0,1-.62-4.78,15.89,15.89,0,0,1,.84-5.28,12.53,12.53,0,0,1,2.37-4.15,10.73,10.73,0,0,1,3.77-2.74,12.31,12.31,0,0,1,5-1,20.06,20.06,0,0,1,3.36.29,15.23,15.23,0,0,1,3.22.91l-1,3.79a11.17,11.17,0,0,0-2.33-.77,13.32,13.32,0,0,0-2.81-.28,7.08,7.08,0,0,0-5.73,2.35c-1.33,1.57-2,3.85-2,6.86a13.83,13.83,0,0,0,.46,3.7,7.51,7.51,0,0,0,1.44,2.88,6.42,6.42,0,0,0,2.52,1.85,9.65,9.65,0,0,0,3.74.64,14.43,14.43,0,0,0,3.22-.33A12.9,12.9,0,0,0,291,130l.62,3.74a9.14,9.14,0,0,1-1,.41,13,13,0,0,1-1.47.38c-.54.12-1.12.21-1.75.29S286.11,135,285.5,135Z" transform="translate(-92.77 -74.54)"/><path class="a" d="M304.46,108.83a13,13,0,0,1,4.54.69,7.59,7.59,0,0,1,3,2,7.49,7.49,0,0,1,1.6,3,14.57,14.57,0,0,1,.48,3.86V134l-1.6.27c-.69.11-1.47.21-2.33.31s-1.8.18-2.81.26-2,.12-3,.12a16.38,16.38,0,0,1-3.89-.43,8.62,8.62,0,0,1-3.07-1.37,6.3,6.3,0,0,1-2-2.47,8.66,8.66,0,0,1-.72-3.7,7.12,7.12,0,0,1,.84-3.55,6.72,6.72,0,0,1,2.28-2.4,10.33,10.33,0,0,1,3.36-1.34,18.26,18.26,0,0,1,4-.43,13.47,13.47,0,0,1,1.39.07c.48.05.93.11,1.37.19l1.12.22.68.14v-1.25a10,10,0,0,0-.24-2.18,5.1,5.1,0,0,0-.87-1.92,4.37,4.37,0,0,0-1.7-1.35,6.8,6.8,0,0,0-2.81-.5,20.87,20.87,0,0,0-3.86.31,14.12,14.12,0,0,0-2.48.65l-.52-3.7a14,14,0,0,1,2.88-.74A24.82,24.82,0,0,1,304.46,108.83Zm.39,22.37c1,0,2,0,2.81-.07a12.37,12.37,0,0,0,2-.27v-7.44a6,6,0,0,0-1.56-.41,17.83,17.83,0,0,0-2.62-.16,16.32,16.32,0,0,0-2.14.14,6.49,6.49,0,0,0-2.06.6,4.43,4.43,0,0,0-1.56,1.25,3.25,3.25,0,0,0-.62,2.09,3.58,3.58,0,0,0,1.53,3.33A8,8,0,0,0,304.85,131.2Z" transform="translate(-92.77 -74.54)"/><path class="a" d="M331.15,122a15.91,15.91,0,0,1,1-5.78,12.2,12.2,0,0,1,2.54-4.11,10.46,10.46,0,0,1,3.65-2.44,11.33,11.33,0,0,1,4.23-.82q5,0,7.72,3.14t2.69,9.58v.74a5.42,5.42,0,0,1-.05.84H335.81a9.15,9.15,0,0,0,2.25,5.91q2,2,6.15,2a16.6,16.6,0,0,0,4-.4,14.39,14.39,0,0,0,2.42-.8l.62,3.75a13,13,0,0,1-2.85.91,20.33,20.33,0,0,1-4.63.48,14.59,14.59,0,0,1-5.64-1,10.39,10.39,0,0,1-3.92-2.71,11.18,11.18,0,0,1-2.28-4.1A17.59,17.59,0,0,1,331.15,122Zm17.14-2.45a7.53,7.53,0,0,0-1.52-5,5.21,5.21,0,0,0-4.29-1.94,5.85,5.85,0,0,0-2.71.6,6.43,6.43,0,0,0-2,1.56A7.42,7.42,0,0,0,336.5,117a11.3,11.3,0,0,0-.6,2.54Z" transform="translate(-92.77 -74.54)"/><path class="a" d="M378.48,131.1q7.29,0,7.29-5a5,5,0,0,0-.65-2.62,6.2,6.2,0,0,0-1.75-1.87,12.05,12.05,0,0,0-2.52-1.37c-.94-.38-1.94-.77-3-1.15a30.68,30.68,0,0,1-3.45-1.41,12.19,12.19,0,0,1-2.84-1.88,7.86,7.86,0,0,1-1.89-2.56,8.56,8.56,0,0,1-.7-3.6,8.32,8.32,0,0,1,3-6.82q3-2.44,8.21-2.45a21.76,21.76,0,0,1,5.49.65,12.32,12.32,0,0,1,3.63,1.42l-1.49,3.79a12.83,12.83,0,0,0-3-1.23,16.1,16.1,0,0,0-4.63-.6,10.39,10.39,0,0,0-2.5.29,6.33,6.33,0,0,0-2,.86,4.28,4.28,0,0,0-1.37,1.47,4.12,4.12,0,0,0-.51,2.09,4.43,4.43,0,0,0,.53,2.25,5.15,5.15,0,0,0,1.49,1.61,12.07,12.07,0,0,0,2.23,1.27c.85.39,1.78.77,2.81,1.16,1.44.57,2.76,1.15,4,1.72a13,13,0,0,1,3.12,2.07,8.29,8.29,0,0,1,2,2.85,10.05,10.05,0,0,1,.72,4,7.87,7.87,0,0,1-3.19,6.72q-3.19,2.35-9,2.35a23.91,23.91,0,0,1-3.63-.26c-1.1-.18-2.08-.39-3-.62a19,19,0,0,1-2.23-.77c-.63-.27-1.11-.51-1.46-.7l1.39-3.84a20,20,0,0,0,3.36,1.39A17,17,0,0,0,378.48,131.1Z" transform="translate(-92.77 -74.54)"/><path class="a" d="M404.06,108.83a13.1,13.1,0,0,1,4.54.69,7.11,7.11,0,0,1,4.58,5,14.57,14.57,0,0,1,.48,3.86V134l-1.61.27c-.69.11-1.46.21-2.32.31s-1.8.18-2.81.26-2,.12-3,.12a16.32,16.32,0,0,1-3.89-.43,8.62,8.62,0,0,1-3.07-1.37,6.22,6.22,0,0,1-2-2.47,8.66,8.66,0,0,1-.72-3.7,7.12,7.12,0,0,1,.84-3.55,6.72,6.72,0,0,1,2.28-2.4,10.33,10.33,0,0,1,3.36-1.34,18.17,18.17,0,0,1,4-.43,13.2,13.2,0,0,1,1.39.07c.49.05.94.11,1.37.19l1.13.22.67.14v-1.25a10,10,0,0,0-.24-2.18,5.08,5.08,0,0,0-.86-1.92,4.44,4.44,0,0,0-1.7-1.35,6.8,6.8,0,0,0-2.81-.5,21.06,21.06,0,0,0-3.87.31,14,14,0,0,0-2.47.65l-.53-3.7a14.36,14.36,0,0,1,2.88-.74A24.93,24.93,0,0,1,404.06,108.83Zm.39,22.37c1.05,0,2,0,2.8-.07a12.07,12.07,0,0,0,2-.27v-7.44a6,6,0,0,0-1.56-.41,17.68,17.68,0,0,0-2.61-.16A16.21,16.21,0,0,0,403,123a6.49,6.49,0,0,0-2.06.6,4.26,4.26,0,0,0-1.56,1.25,3.25,3.25,0,0,0-.63,2.09,3.56,3.56,0,0,0,1.54,3.33A7.94,7.94,0,0,0,404.45,131.2Z" transform="translate(-92.77 -74.54)"/><path class="a" d="M440.92,133.69c-1,.26-2.37.53-4.05.82a34.71,34.71,0,0,1-5.83.43,12.36,12.36,0,0,1-4.85-.84,7.87,7.87,0,0,1-3.17-2.37,9.71,9.71,0,0,1-1.73-3.63,18.94,18.94,0,0,1-.53-4.63v-14h4.47v13.06q0,4.56,1.44,6.53c1,1.31,2.57,2,4.85,2,.48,0,1,0,1.48,0s1-.07,1.44-.12l1.23-.15a2.87,2.87,0,0,0,.79-.17V109.45h4.46ZM436.65,100l-6.77,6.57-2.25-2,6.14-7.39Z" transform="translate(-92.77 -74.54)"/><path class="a" d="M464.73,97.93l4.47-.76v36.52c-1,.29-2.34.58-3.94.87a31.25,31.25,0,0,1-5.52.43,14.1,14.1,0,0,1-5.18-.91,11,11,0,0,1-3.94-2.6,11.26,11.26,0,0,1-2.52-4.1,15.77,15.77,0,0,1-.89-5.45,17.64,17.64,0,0,1,.75-5.28,11.81,11.81,0,0,1,2.18-4.13,10,10,0,0,1,3.53-2.68,11.29,11.29,0,0,1,4.77-1,11.72,11.72,0,0,1,3.82.57,12.43,12.43,0,0,1,2.47,1.11Zm0,16.8a9.24,9.24,0,0,0-2.35-1.29,8.78,8.78,0,0,0-3.36-.63,7.23,7.23,0,0,0-3.29.7,6,6,0,0,0-2.23,1.92,8.12,8.12,0,0,0-1.25,2.9,16.5,16.5,0,0,0-.38,3.6c0,2.92.72,5.16,2.16,6.75a7.41,7.41,0,0,0,5.76,2.37,23.68,23.68,0,0,0,3-.16,15.38,15.38,0,0,0,1.89-.37Z" transform="translate(-92.77 -74.54)"/><path class="a" d="M475.48,122a15.91,15.91,0,0,1,1-5.78,12.06,12.06,0,0,1,2.55-4.11,10.28,10.28,0,0,1,3.65-2.44,11.24,11.24,0,0,1,4.22-.82c3.36,0,5.93,1,7.73,3.14s2.69,5.29,2.69,9.58v.74a7,7,0,0,1,0,.84H480.14A9.1,9.1,0,0,0,482.4,129q2,2,6.14,2a16.49,16.49,0,0,0,4-.4,14.39,14.39,0,0,0,2.42-.8l.63,3.75a13.35,13.35,0,0,1-2.86.91,20.27,20.27,0,0,1-4.63.48,14.59,14.59,0,0,1-5.64-1,10.27,10.27,0,0,1-3.91-2.71,10.9,10.9,0,0,1-2.28-4.1A17.26,17.26,0,0,1,475.48,122Zm17.14-2.45a7.52,7.52,0,0,0-1.51-5,5.22,5.22,0,0,0-4.3-1.94,5.88,5.88,0,0,0-2.71.6,6.27,6.27,0,0,0-2,1.56,7.23,7.23,0,0,0-1.28,2.21,10.76,10.76,0,0,0-.59,2.54Z" transform="translate(-92.77 -74.54)"/><path class="a" d="M514.79,110.17q1.55-.37,4.08-.81a35.17,35.17,0,0,1,5.86-.43,12.63,12.63,0,0,1,4.94.84,7.72,7.72,0,0,1,3.15,2.35,9.13,9.13,0,0,1,1.65,3.62,21,21,0,0,1,.48,4.66v14h-4.46v-13a21.19,21.19,0,0,0-.31-3.94,6.66,6.66,0,0,0-1-2.64,4.06,4.06,0,0,0-1.92-1.46,8.33,8.33,0,0,0-3-.46c-.48,0-1,0-1.49,0s-1,.07-1.46.12-.88.1-1.25.17l-.79.14v21.07h-4.47Z" transform="translate(-92.77 -74.54)"/><path class="a" d="M564.38,121.93a15.69,15.69,0,0,1-.87,5.38,12.18,12.18,0,0,1-2.42,4.13,10.63,10.63,0,0,1-3.72,2.66,12.25,12.25,0,0,1-9.41,0,10.63,10.63,0,0,1-3.72-2.66,12.18,12.18,0,0,1-2.42-4.13,17,17,0,0,1,0-10.73,12.18,12.18,0,0,1,2.42-4.15,10.63,10.63,0,0,1,3.72-2.66,12.25,12.25,0,0,1,9.41,0,10.63,10.63,0,0,1,3.72,2.66,12.18,12.18,0,0,1,2.42,4.15A15.76,15.76,0,0,1,564.38,121.93Zm-4.66,0a10.76,10.76,0,0,0-1.89-6.69,6.62,6.62,0,0,0-10.32,0,12.75,12.75,0,0,0,0,13.39,6.62,6.62,0,0,0,10.32,0A10.77,10.77,0,0,0,559.72,121.93Z" transform="translate(-92.77 -74.54)"/><path class="a" d="M604.27,101.15v4H593.8v29.23h-4.65V105.18H578.68v-4Z" transform="translate(-92.77 -74.54)"/><path class="a" d="M616.17,108.93c.38,0,.82,0,1.32.07s1,.11,1.46.19l1.32.24a6.7,6.7,0,0,1,.89.22l-.77,3.88a15.28,15.28,0,0,0-1.75-.45,15,15,0,0,0-3.14-.27,11.49,11.49,0,0,0-2.48.27c-.81.17-1.35.29-1.6.36v21H607v-23.9a31.87,31.87,0,0,1,3.94-1.08A25.06,25.06,0,0,1,616.17,108.93Z" transform="translate(-92.77 -74.54)"/><path class="a" d="M633.54,108.83a13,13,0,0,1,4.54.69,7.59,7.59,0,0,1,3,2,7.49,7.49,0,0,1,1.6,3,14.57,14.57,0,0,1,.48,3.86V134l-1.6.27c-.69.11-1.47.21-2.33.31s-1.8.18-2.81.26-2,.12-3,.12a16.38,16.38,0,0,1-3.89-.43,8.62,8.62,0,0,1-3.07-1.37,6.3,6.3,0,0,1-2-2.47,8.66,8.66,0,0,1-.72-3.7,7.12,7.12,0,0,1,.84-3.55,6.72,6.72,0,0,1,2.28-2.4,10.33,10.33,0,0,1,3.36-1.34,18.26,18.26,0,0,1,4-.43,13.47,13.47,0,0,1,1.39.07c.48.05.93.11,1.37.19l1.12.22.68.14v-1.25a10,10,0,0,0-.24-2.18,5,5,0,0,0-.87-1.92,4.37,4.37,0,0,0-1.7-1.35,6.8,6.8,0,0,0-2.81-.5,20.87,20.87,0,0,0-3.86.31,14.12,14.12,0,0,0-2.48.65l-.52-3.7a14,14,0,0,1,2.88-.74A24.82,24.82,0,0,1,633.54,108.83Zm.39,22.37c1.05,0,2,0,2.81-.07a12.37,12.37,0,0,0,2-.27v-7.44a6,6,0,0,0-1.56-.41,17.83,17.83,0,0,0-2.62-.16,16.32,16.32,0,0,0-2.14.14,6.49,6.49,0,0,0-2.06.6,4.43,4.43,0,0,0-1.56,1.25,3.25,3.25,0,0,0-.62,2.09,3.58,3.58,0,0,0,1.53,3.33A8,8,0,0,0,633.93,131.2Z" transform="translate(-92.77 -74.54)"/><path class="a" d="M655,110.56a12.43,12.43,0,0,1,2.47-1.11,11.76,11.76,0,0,1,3.82-.57,11.29,11.29,0,0,1,4.77,1,9.87,9.87,0,0,1,3.53,2.68,12,12,0,0,1,2.19,4.13,18,18,0,0,1,.74,5.28,15.77,15.77,0,0,1-.89,5.45,11.26,11.26,0,0,1-2.52,4.1,11.07,11.07,0,0,1-3.93,2.6A14.2,14.2,0,0,1,660,135a31.25,31.25,0,0,1-5.52-.43q-2.4-.44-3.93-.87V97.93l4.46-.76Zm0,20a15.22,15.22,0,0,0,1.9.37,23.41,23.41,0,0,0,3,.16,7.41,7.41,0,0,0,5.76-2.37c1.44-1.59,2.16-3.83,2.16-6.75a16.5,16.5,0,0,0-.38-3.6,8.12,8.12,0,0,0-1.25-2.9,5.93,5.93,0,0,0-2.23-1.92,7.23,7.23,0,0,0-3.29-.7,8.74,8.74,0,0,0-3.36.63,9.24,9.24,0,0,0-2.35,1.29Z" transform="translate(-92.77 -74.54)"/><path class="a" d="M686.87,108.83a13.1,13.1,0,0,1,4.54.69,7.11,7.11,0,0,1,4.58,5,14.57,14.57,0,0,1,.48,3.86V134l-1.61.27c-.69.11-1.46.21-2.33.31s-1.8.18-2.8.26-2,.12-3,.12a16.32,16.32,0,0,1-3.89-.43,8.54,8.54,0,0,1-3.07-1.37,6.22,6.22,0,0,1-2-2.47A8.66,8.66,0,0,1,677,127a7.12,7.12,0,0,1,.84-3.55,6.72,6.72,0,0,1,2.28-2.4,10.33,10.33,0,0,1,3.36-1.34,18.17,18.17,0,0,1,4-.43,13.34,13.34,0,0,1,1.39.07c.49.05.94.11,1.37.19l1.13.22.67.14v-1.25a10,10,0,0,0-.24-2.18,5.08,5.08,0,0,0-.86-1.92,4.47,4.47,0,0,0-1.71-1.35,6.75,6.75,0,0,0-2.8-.5,21,21,0,0,0-3.87.31,14,14,0,0,0-2.47.65l-.53-3.7a14.36,14.36,0,0,1,2.88-.74A24.93,24.93,0,0,1,686.87,108.83Zm.38,22.37c1.06,0,2,0,2.81-.07a12.07,12.07,0,0,0,2-.27v-7.44a6,6,0,0,0-1.56-.41,17.68,17.68,0,0,0-2.61-.16,16.11,16.11,0,0,0-2.14.14,6.49,6.49,0,0,0-2.06.6,4.26,4.26,0,0,0-1.56,1.25,3.25,3.25,0,0,0-.63,2.09,3.56,3.56,0,0,0,1.54,3.33A7.9,7.9,0,0,0,687.25,131.2Z" transform="translate(-92.77 -74.54)"/><path class="a" d="M711.35,134.89q-4.12-.09-5.86-1.77c-1.15-1.12-1.72-2.87-1.72-5.23v-30l4.46-.76v30a7.15,7.15,0,0,0,.19,1.82,2.51,2.51,0,0,0,.63,1.15,2.58,2.58,0,0,0,1.15.65,13,13,0,0,0,1.77.36Z" transform="translate(-92.77 -74.54)"/><path class="a" d="M717,134.41V97.93l4.46-.76v12.76a15.49,15.49,0,0,1,2.66-.74,15,15,0,0,1,2.81-.26,12.69,12.69,0,0,1,5,.84,7.68,7.68,0,0,1,3.14,2.35,9.14,9.14,0,0,1,1.66,3.62,21,21,0,0,1,.48,4.66v14h-4.47v-13a21.19,21.19,0,0,0-.31-3.94,6.66,6.66,0,0,0-1-2.64,4.06,4.06,0,0,0-1.92-1.46,8.29,8.29,0,0,0-3-.46,11.07,11.07,0,0,0-1.49.1c-.51.06-1,.13-1.46.21s-.88.17-1.25.27a5.24,5.24,0,0,0-.79.24v20.73Z" transform="translate(-92.77 -74.54)"/><path class="a" d="M766.41,121.93a15.69,15.69,0,0,1-.87,5.38,12.18,12.18,0,0,1-2.42,4.13,10.63,10.63,0,0,1-3.72,2.66,12.25,12.25,0,0,1-9.41,0,10.63,10.63,0,0,1-3.72-2.66,12.18,12.18,0,0,1-2.42-4.13,17,17,0,0,1,0-10.73,12.18,12.18,0,0,1,2.42-4.15,10.63,10.63,0,0,1,3.72-2.66,12.25,12.25,0,0,1,9.41,0,10.63,10.63,0,0,1,3.72,2.66,12.18,12.18,0,0,1,2.42,4.15A15.76,15.76,0,0,1,766.41,121.93Zm-4.66,0a10.7,10.7,0,0,0-1.9-6.69,6.62,6.62,0,0,0-10.32,0,12.8,12.8,0,0,0,0,13.39,6.62,6.62,0,0,0,10.32,0A10.71,10.71,0,0,0,761.75,121.93Z" transform="translate(-92.77 -74.54)"/><path class="a" d="M92.77,84.38a10,10,0,0,1,.61-3.6A7.67,7.67,0,0,1,95,78.17a6.91,6.91,0,0,1,2.44-1.57,8.22,8.22,0,0,1,3-.53,8,8,0,0,1,2.9.53,6.85,6.85,0,0,1,2.4,1.57,7.8,7.8,0,0,1,1.64,2.61,10.93,10.93,0,0,1,0,7.2,7.8,7.8,0,0,1-1.64,2.61,6.85,6.85,0,0,1-2.4,1.57,8,8,0,0,1-2.9.53,8.22,8.22,0,0,1-3-.53A6.91,6.91,0,0,1,95,90.59,7.67,7.67,0,0,1,93.38,88,10,10,0,0,1,92.77,84.38Zm2.34,0A9,9,0,0,0,95.48,87a5.91,5.91,0,0,0,1,2,4.57,4.57,0,0,0,1.65,1.27,5.17,5.17,0,0,0,2.19.45,5.09,5.09,0,0,0,2.18-.45A4.63,4.63,0,0,0,104.19,89a5.89,5.89,0,0,0,1-2,9.53,9.53,0,0,0,0-5.26,5.8,5.8,0,0,0-1-2,4.63,4.63,0,0,0-1.64-1.27,5.09,5.09,0,0,0-2.18-.45,5.17,5.17,0,0,0-2.19.45,4.57,4.57,0,0,0-1.65,1.27,5.81,5.81,0,0,0-1,2A9,9,0,0,0,95.11,84.38Z" transform="translate(-92.77 -74.54)"/><path class="a" d="M113.27,80.94a5.4,5.4,0,0,1,1.18-.53,5.61,5.61,0,0,1,1.82-.28,5.54,5.54,0,0,1,2.29.46,4.85,4.85,0,0,1,1.68,1.29,5.72,5.72,0,0,1,1.05,2,8.79,8.79,0,0,1,.35,2.53,7.58,7.58,0,0,1-.42,2.6,5.55,5.55,0,0,1-1.21,2,5.19,5.19,0,0,1-1.88,1.24,6.68,6.68,0,0,1-2.48.44,14.87,14.87,0,0,1-2.64-.21c-.76-.14-1.39-.27-1.88-.41V74.9l2.14-.36Zm0,9.54a6.11,6.11,0,0,0,.9.18,11.72,11.72,0,0,0,1.46.08,3.52,3.52,0,0,0,2.75-1.14,4.62,4.62,0,0,0,1-3.22,7.74,7.74,0,0,0-.19-1.72,3.9,3.9,0,0,0-.59-1.39,3,3,0,0,0-1.07-.92A3.46,3.46,0,0,0,116,82a4.43,4.43,0,0,0-1.61.29,4.51,4.51,0,0,0-1.12.62Z" transform="translate(-92.77 -74.54)"/><path class="a" d="M127.43,90.81a4.14,4.14,0,0,0,1.93-.35,1.18,1.18,0,0,0,.64-1.1,1.48,1.48,0,0,0-.62-1.24,9.76,9.76,0,0,0-2-1c-.46-.19-.9-.37-1.32-.56a5.06,5.06,0,0,1-1.09-.68,3.2,3.2,0,0,1,.16-4.81,5,5,0,0,1,3.19-.93,8.43,8.43,0,0,1,1,.06c.34,0,.65.08.94.14a7.64,7.64,0,0,1,.77.17,4.24,4.24,0,0,1,.52.16l-.39,1.84A5,5,0,0,0,130,82.1a7,7,0,0,0-1.77-.2,3.27,3.27,0,0,0-1.56.36,1.17,1.17,0,0,0-.66,1.11,1.52,1.52,0,0,0,.15.69,1.55,1.55,0,0,0,.46.54,3.64,3.64,0,0,0,.77.45c.3.13.67.28,1.1.43s1.07.43,1.51.63a5.29,5.29,0,0,1,1.14.72,2.88,2.88,0,0,1,.72,1,3.61,3.61,0,0,1,.25,1.44,2.85,2.85,0,0,1-1.23,2.5,6,6,0,0,1-3.49.85,8.91,8.91,0,0,1-2.48-.27,11.44,11.44,0,0,1-1.22-.4l.39-1.83,1.17.41A6.89,6.89,0,0,0,127.43,90.81Z" transform="translate(-92.77 -74.54)"/><path class="a" d="M134.22,86.4a7.55,7.55,0,0,1,.46-2.77,5.81,5.81,0,0,1,1.21-2,5,5,0,0,1,1.75-1.17,5.42,5.42,0,0,1,2-.39,4.6,4.6,0,0,1,3.69,1.5,6.91,6.91,0,0,1,1.29,4.58v.36a2.5,2.5,0,0,1,0,.4h-8.17a4.38,4.38,0,0,0,1.08,2.82,3.93,3.93,0,0,0,2.94,1,7.76,7.76,0,0,0,1.89-.2,6,6,0,0,0,1.16-.38l.3,1.79a6.07,6.07,0,0,1-1.37.44,9.81,9.81,0,0,1-2.21.23,7.12,7.12,0,0,1-2.7-.47,5.19,5.19,0,0,1-1.87-1.3,5.29,5.29,0,0,1-1.09-2A8.56,8.56,0,0,1,134.22,86.4Zm8.19-1.17a3.61,3.61,0,0,0-.72-2.38,2.49,2.49,0,0,0-2.06-.93,2.79,2.79,0,0,0-1.29.29,3,3,0,0,0-1,.75,3.2,3.2,0,0,0-.6,1.05,5.28,5.28,0,0,0-.29,1.22Z" transform="translate(-92.77 -74.54)"/><path class="a" d="M152.12,80.16l.63,0,.7.09.63.12.42.1-.36,1.86c-.17-.06-.45-.13-.84-.22a7.69,7.69,0,0,0-1.5-.12,5.93,5.93,0,0,0-1.19.12l-.76.17v10h-2.14V80.91a15.3,15.3,0,0,1,1.88-.51A12.15,12.15,0,0,1,152.12,80.16Z" transform="translate(-92.77 -74.54)"/><path class="a" d="M166.37,80.41a61.08,61.08,0,0,1-2.1,6.42c-.81,2.06-1.58,3.89-2.33,5.51H160c-.75-1.62-1.53-3.45-2.33-5.51a61.08,61.08,0,0,1-2.1-6.42h2.3c.18.75.4,1.55.65,2.4s.52,1.69.8,2.52.57,1.64.86,2.42.57,1.48.83,2.09c.26-.61.54-1.31.83-2.09s.57-1.58.86-2.42.55-1.67.8-2.52.47-1.65.65-2.4Z" transform="translate(-92.77 -74.54)"/><path class="a" d="M172.43,80.11a6.21,6.21,0,0,1,2.16.33,3.38,3.38,0,0,1,2.2,2.39,7.1,7.1,0,0,1,.23,1.85v7.46l-.77.12c-.33.06-.7.11-1.12.15s-.86.09-1.34.13-1,.06-1.43.06a7.67,7.67,0,0,1-1.86-.21,4.13,4.13,0,0,1-1.47-.66,2.87,2.87,0,0,1-1-1.18,4.12,4.12,0,0,1-.35-1.76,3.37,3.37,0,0,1,.4-1.7,3.17,3.17,0,0,1,1.09-1.15,5.17,5.17,0,0,1,1.61-.64,8.58,8.58,0,0,1,1.93-.21,5.07,5.07,0,0,1,.66,0,6.57,6.57,0,0,1,.66.09l.54.1.32.07v-.6a4.55,4.55,0,0,0-.12-1,2.26,2.26,0,0,0-.41-.92,2,2,0,0,0-.82-.64,3.18,3.18,0,0,0-1.34-.24,10.1,10.1,0,0,0-1.85.15,6.41,6.41,0,0,0-1.18.31L169,80.64a7,7,0,0,1,1.38-.36A12.37,12.37,0,0,1,172.43,80.11Zm.18,10.7c.5,0,.95,0,1.34,0a4.86,4.86,0,0,0,1-.13V87.09a2.87,2.87,0,0,0-.75-.2,8.74,8.74,0,0,0-1.25-.08,7.39,7.39,0,0,0-1,.07,3.16,3.16,0,0,0-1,.29,2,2,0,0,0-.74.59,1.59,1.59,0,0,0-.3,1,1.72,1.72,0,0,0,.73,1.6A3.82,3.82,0,0,0,172.61,90.81Z" transform="translate(-92.77 -74.54)"/><path class="a" d="M182.55,80.41h4.52V82.2h-4.52v5.51a6.82,6.82,0,0,0,.13,1.48,2.31,2.31,0,0,0,.42.92,1.52,1.52,0,0,0,.69.47,3.05,3.05,0,0,0,1,.13,4.71,4.71,0,0,0,1.55-.21l.81-.31.42,1.76a7.72,7.72,0,0,1-1.13.4,6.4,6.4,0,0,1-1.84.25,5.64,5.64,0,0,1-2-.31,3,3,0,0,1-1.28-.93,3.82,3.82,0,0,1-.67-1.53,10,10,0,0,1-.2-2.1V77.08l2.14-.37Z" transform="translate(-92.77 -74.54)"/><path class="a" d="M200,86.38a7.45,7.45,0,0,1-.42,2.57,5.77,5.77,0,0,1-1.16,2,5,5,0,0,1-1.77,1.27,5.85,5.85,0,0,1-4.5,0,5,5,0,0,1-1.78-1.27,5.94,5.94,0,0,1-1.16-2,8.23,8.23,0,0,1,0-5.13,5.83,5.83,0,0,1,1.16-2,5.14,5.14,0,0,1,1.78-1.27,5.85,5.85,0,0,1,4.5,0,5.1,5.1,0,0,1,1.77,1.27,5.68,5.68,0,0,1,1.16,2A7.43,7.43,0,0,1,200,86.38Zm-2.23,0a5.12,5.12,0,0,0-.91-3.21,3.16,3.16,0,0,0-4.93,0,6.1,6.1,0,0,0,0,6.41,3.16,3.16,0,0,0,4.93,0A5.11,5.11,0,0,0,197.76,86.38Zm-.6-10.49L193.93,79l-1.08-1,2.94-3.53Z" transform="translate(-92.77 -74.54)"/><path class="a" d="M207.4,80.16l.63,0c.24,0,.47.06.7.09l.63.12.42.1-.36,1.86c-.17-.06-.45-.13-.84-.22a7.69,7.69,0,0,0-1.5-.12,5.83,5.83,0,0,0-1.18.12l-.77.17v10H203V80.91a15.3,15.3,0,0,1,1.88-.51A12.15,12.15,0,0,1,207.4,80.16Z" transform="translate(-92.77 -74.54)"/><path class="a" d="M212.91,78.25a1.34,1.34,0,0,1-1-.38,1.5,1.5,0,0,1,0-2,1.44,1.44,0,0,1,1.95,0,1.5,1.5,0,0,1,0,2A1.33,1.33,0,0,1,212.91,78.25ZM214,92.34h-2.13V80.41H214Z" transform="translate(-92.77 -74.54)"/><path class="a" d="M228.19,86.38a7.7,7.7,0,0,1-.41,2.57,6.11,6.11,0,0,1-1.16,2,5,5,0,0,1-1.78,1.27,5.85,5.85,0,0,1-4.5,0,5,5,0,0,1-1.78-1.27,5.94,5.94,0,0,1-1.16-2,8.23,8.23,0,0,1,0-5.13,5.83,5.83,0,0,1,1.16-2,5.14,5.14,0,0,1,1.78-1.27,5.85,5.85,0,0,1,4.5,0,5.14,5.14,0,0,1,1.78,1.27,6,6,0,0,1,1.16,2A7.68,7.68,0,0,1,228.19,86.38Zm-2.23,0a5.18,5.18,0,0,0-.9-3.21,3.18,3.18,0,0,0-4.94,0,6.16,6.16,0,0,0,0,6.41,3.18,3.18,0,0,0,4.94,0A5.17,5.17,0,0,0,226,86.38Z" transform="translate(-92.77 -74.54)"/><path class="a" d="M244.21,74.9l2.13-.36V92c-.49.14-1.12.27-1.88.41a14.87,14.87,0,0,1-2.64.21,6.72,6.72,0,0,1-2.48-.44,5.27,5.27,0,0,1-1.88-1.24,5.55,5.55,0,0,1-1.21-2,7.58,7.58,0,0,1-.42-2.6,8.45,8.45,0,0,1,.36-2.53,5.54,5.54,0,0,1,1-2,4.79,4.79,0,0,1,1.69-1.29,5.46,5.46,0,0,1,2.28-.46,5.92,5.92,0,0,1,3,.81Zm0,8a4.6,4.6,0,0,0-1.13-.62,4.38,4.38,0,0,0-1.6-.29,3.48,3.48,0,0,0-1.58.33,2.86,2.86,0,0,0-1.06.92,3.74,3.74,0,0,0-.6,1.39,7.76,7.76,0,0,0-.18,1.72,4.61,4.61,0,0,0,1,3.22,3.54,3.54,0,0,0,2.75,1.14,11.72,11.72,0,0,0,1.46-.08,6.59,6.59,0,0,0,.91-.18Z" transform="translate(-92.77 -74.54)"/><path class="a" d="M249.35,86.4a7.55,7.55,0,0,1,.46-2.77,5.81,5.81,0,0,1,1.21-2,5,5,0,0,1,1.75-1.17,5.42,5.42,0,0,1,2-.39,4.6,4.6,0,0,1,3.69,1.5,6.91,6.91,0,0,1,1.29,4.58v.36a2.5,2.5,0,0,1,0,.4h-8.17a4.33,4.33,0,0,0,1.08,2.82,3.93,3.93,0,0,0,2.94,1,7.76,7.76,0,0,0,1.89-.2,6.26,6.26,0,0,0,1.16-.38l.3,1.79a6.07,6.07,0,0,1-1.37.44,9.81,9.81,0,0,1-2.21.23,7.12,7.12,0,0,1-2.7-.47,5.19,5.19,0,0,1-1.87-1.3,5.29,5.29,0,0,1-1.09-2A8.24,8.24,0,0,1,249.35,86.4Zm8.19-1.17a3.67,3.67,0,0,0-.72-2.38,2.51,2.51,0,0,0-2.06-.93,2.79,2.79,0,0,0-1.29.29,3,3,0,0,0-1,.75,3.2,3.2,0,0,0-.6,1.05,4.81,4.81,0,0,0-.29,1.22Z" transform="translate(-92.77 -74.54)"/></svg>