<svg xmlns="http://www.w3.org/2000/svg" width="389.27" height="93.72" viewBox="0 0 389.27 93.72"><defs><style>.a{fill:#fff;}</style></defs><title>td</title><path class="a" d="M438.46,150.42q.74-.18,2-.39a18,18,0,0,1,2.8-.2,6,6,0,0,1,2.37.4,3.66,3.66,0,0,1,1.5,1.12,4.22,4.22,0,0,1,.79,1.74,9.58,9.58,0,0,1,.23,2.22V162H446v-6.24a10.14,10.14,0,0,0-.15-1.88,3.32,3.32,0,0,0-.49-1.26,2,2,0,0,0-.92-.7,4,4,0,0,0-1.43-.22l-.71,0-.7.06-.59.08-.38.07V162h-2.14Z" transform="translate(-315.7 -72.54)"/><path class="a" d="M462.17,156.05a7.7,7.7,0,0,1-.41,2.57,6.11,6.11,0,0,1-1.16,2,5,5,0,0,1-1.78,1.27,5.85,5.85,0,0,1-4.5,0,5,5,0,0,1-1.78-1.27,5.94,5.94,0,0,1-1.16-2,8.23,8.23,0,0,1,0-5.13,5.83,5.83,0,0,1,1.16-2,5.14,5.14,0,0,1,1.78-1.27,5.85,5.85,0,0,1,4.5,0,5.14,5.14,0,0,1,1.78,1.27,6,6,0,0,1,1.16,2A7.68,7.68,0,0,1,462.17,156.05Zm-2.23,0a5.18,5.18,0,0,0-.9-3.21,3.18,3.18,0,0,0-4.94,0,6.16,6.16,0,0,0,0,6.41,3.18,3.18,0,0,0,4.94,0A5.17,5.17,0,0,0,459.94,156.05Z" transform="translate(-315.7 -72.54)"/><path class="a" d="M468,160.48a4.19,4.19,0,0,0,1.94-.35,1.17,1.17,0,0,0,.63-1.1,1.45,1.45,0,0,0-.62-1.24,9.39,9.39,0,0,0-2-1c-.46-.19-.9-.37-1.32-.56a5.06,5.06,0,0,1-1.09-.68,2.91,2.91,0,0,1-.73-.94,2.94,2.94,0,0,1-.28-1.36,3,3,0,0,1,1.17-2.51,5,5,0,0,1,3.19-.93,8.55,8.55,0,0,1,1,.06c.34,0,.65.08.94.14s.55.11.77.17.39.11.52.16l-.39,1.84a5,5,0,0,0-1.08-.38,7,7,0,0,0-1.77-.2,3.21,3.21,0,0,0-1.56.36,1.17,1.17,0,0,0-.66,1.11,1.52,1.52,0,0,0,.14.69,1.66,1.66,0,0,0,.46.54,4.23,4.23,0,0,0,.77.45c.31.13.67.28,1.1.43s1.07.43,1.52.63a5,5,0,0,1,1.13.72,2.78,2.78,0,0,1,.73,1,3.61,3.61,0,0,1,.25,1.44,2.85,2.85,0,0,1-1.23,2.5,6.07,6.07,0,0,1-3.5.85,9,9,0,0,1-2.48-.27,11.86,11.86,0,0,1-1.21-.4l.39-1.83,1.17.41A6.78,6.78,0,0,0,468,160.48Z" transform="translate(-315.7 -72.54)"/><path class="a" d="M488,159.81l-.61-1.4c-.26-.57-.53-1.18-.82-1.84s-.6-1.33-.93-2l-.93-2c-.29-.62-.56-1.17-.81-1.66s-.46-.87-.61-1.13q-.25,2.72-.41,5.86t-.28,6.37h-2.18c.06-1.37.13-2.76.21-4.16s.16-2.78.26-4.13.21-2.68.32-4,.25-2.5.38-3.65h1.95c.42.67.86,1.47,1.33,2.39s.95,1.87,1.43,2.88.93,2,1.37,3,.85,1.92,1.22,2.74c.37-.82.77-1.74,1.22-2.74s.9-2,1.37-3,.95-2,1.43-2.88.91-1.72,1.33-2.39h1.95c.52,5.12.91,10.43,1.17,15.9h-2.18q-.12-3.21-.28-6.37t-.41-5.86c-.15.26-.36.64-.61,1.13s-.52,1-.81,1.66l-.93,2c-.33.7-.64,1.38-.93,2s-.56,1.27-.82,1.84-.45,1-.6,1.4Z" transform="translate(-315.7 -72.54)"/><path class="a" d="M510.2,161.67c-.49.12-1.14.25-1.94.39a16.36,16.36,0,0,1-2.79.21,5.87,5.87,0,0,1-2.32-.41,3.68,3.68,0,0,1-1.51-1.13,4.72,4.72,0,0,1-.83-1.73,9,9,0,0,1-.25-2.22v-6.7h2.13v6.24a5.37,5.37,0,0,0,.69,3.12,2.68,2.68,0,0,0,2.32.94c.23,0,.47,0,.71,0a6.83,6.83,0,0,0,.69-.06l.59-.07a1.5,1.5,0,0,0,.37-.08V150.08h2.14Z" transform="translate(-315.7 -72.54)"/><path class="a" d="M513.87,150.42q.74-.18,2-.39a17.86,17.86,0,0,1,2.8-.2,6,6,0,0,1,2.36.4,3.77,3.77,0,0,1,1.51,1.12,4.35,4.35,0,0,1,.79,1.74,10.16,10.16,0,0,1,.23,2.22V162h-2.14v-6.24a11.19,11.19,0,0,0-.14-1.88,3.17,3.17,0,0,0-.5-1.26,1.9,1.9,0,0,0-.92-.7,3.89,3.89,0,0,0-1.42-.22l-.71,0-.7.06-.6.08-.38.07V162h-2.13Z" transform="translate(-315.7 -72.54)"/><path class="a" d="M528.1,147.92a1.36,1.36,0,0,1-1-.38,1.5,1.5,0,0,1,0-2,1.4,1.4,0,0,1,1-.38,1.36,1.36,0,0,1,1,.38,1.4,1.4,0,0,1-1,2.42ZM529.18,162H527V150.08h2.14Z" transform="translate(-315.7 -72.54)"/><path class="a" d="M538,162.29a6.6,6.6,0,0,1-2.53-.46,5.18,5.18,0,0,1-1.84-1.29,5.33,5.33,0,0,1-1.11-2,8,8,0,0,1-.37-2.51,7.85,7.85,0,0,1,.4-2.53,6,6,0,0,1,1.14-2,5.17,5.17,0,0,1,1.8-1.31,5.88,5.88,0,0,1,2.38-.47,9.61,9.61,0,0,1,1.6.14,7.78,7.78,0,0,1,1.54.43l-.48,1.82a5.16,5.16,0,0,0-1.11-.37,6.5,6.5,0,0,0-1.35-.14,3.4,3.4,0,0,0-2.74,1.13,5,5,0,0,0-1,3.28,6.6,6.6,0,0,0,.22,1.77,3.6,3.6,0,0,0,.68,1.37,3.11,3.11,0,0,0,1.21.89,4.74,4.74,0,0,0,1.79.31,7.21,7.21,0,0,0,1.54-.16,6,6,0,0,0,1.08-.35l.29,1.79a2,2,0,0,1-.52.22,6.47,6.47,0,0,1-.78.18c-.29.06-.6.1-.93.14A8,8,0,0,1,538,162.29Z" transform="translate(-315.7 -72.54)"/><path class="a" d="M547.37,145.56l-3.23,3.14-1.08-1,2.94-3.53ZM545.65,162h-2.13V150.08h2.13Z" transform="translate(-315.7 -72.54)"/><path class="a" d="M559.83,156.07a8.3,8.3,0,0,1-.35,2.5,5.78,5.78,0,0,1-1,2,4.89,4.89,0,0,1-1.69,1.29,5.54,5.54,0,0,1-2.29.46,5.84,5.84,0,0,1-3-.81v4.78h-2.14V150.45c.51-.13,1.14-.26,1.9-.4a13.67,13.67,0,0,1,2.63-.22,6.67,6.67,0,0,1,2.47.43,5.36,5.36,0,0,1,1.89,1.24,5.48,5.48,0,0,1,1.2,2A7.68,7.68,0,0,1,559.83,156.07Zm-2.22,0a4.62,4.62,0,0,0-1-3.21,3.57,3.57,0,0,0-2.76-1.13,11.71,11.71,0,0,0-1.5.07,6.74,6.74,0,0,0-.86.16v7.53a4.51,4.51,0,0,0,1.12.62,4.23,4.23,0,0,0,1.61.3,3.31,3.31,0,0,0,1.57-.34,2.86,2.86,0,0,0,1.07-.91,4.13,4.13,0,0,0,.6-1.38A7.73,7.73,0,0,0,557.61,156.07Z" transform="translate(-315.7 -72.54)"/><path class="a" d="M563.9,147.92a1.34,1.34,0,0,1-1-.38,1.5,1.5,0,0,1,0-2,1.44,1.44,0,0,1,2,0,1.5,1.5,0,0,1,0,2A1.33,1.33,0,0,1,563.9,147.92ZM565,162h-2.14V150.08H565Z" transform="translate(-315.7 -72.54)"/><path class="a" d="M579.18,156.05a7.7,7.7,0,0,1-.41,2.57,6.11,6.11,0,0,1-1.16,2,5,5,0,0,1-1.78,1.27,5.85,5.85,0,0,1-4.5,0,5,5,0,0,1-1.78-1.27,6.11,6.11,0,0,1-1.16-2,8.23,8.23,0,0,1,0-5.13,6,6,0,0,1,1.16-2,5.14,5.14,0,0,1,1.78-1.27,5.85,5.85,0,0,1,4.5,0,5.14,5.14,0,0,1,1.78,1.27,6,6,0,0,1,1.16,2A7.68,7.68,0,0,1,579.18,156.05Zm-2.23,0a5.18,5.18,0,0,0-.9-3.21,3.18,3.18,0,0,0-4.94,0,6.16,6.16,0,0,0,0,6.41,3.18,3.18,0,0,0,4.94,0A5.17,5.17,0,0,0,577,156.05Z" transform="translate(-315.7 -72.54)"/><path class="a" d="M585,160.48a4.19,4.19,0,0,0,1.94-.35,1.17,1.17,0,0,0,.63-1.1,1.45,1.45,0,0,0-.62-1.24,9.39,9.39,0,0,0-2-1c-.46-.19-.9-.37-1.32-.56a5.06,5.06,0,0,1-1.09-.68,3.05,3.05,0,0,1-.73-.94,2.94,2.94,0,0,1-.28-1.36,3,3,0,0,1,1.17-2.51,5,5,0,0,1,3.19-.93,8.55,8.55,0,0,1,1,.06c.34,0,.65.08.94.14s.55.11.77.17.39.11.52.16l-.39,1.84a5,5,0,0,0-1.08-.38,7,7,0,0,0-1.77-.2,3.24,3.24,0,0,0-1.56.36,1.17,1.17,0,0,0-.66,1.11,1.41,1.41,0,0,0,.6,1.23,4.23,4.23,0,0,0,.77.45c.31.13.68.28,1.1.43.57.22,1.07.43,1.52.63a5,5,0,0,1,1.13.72,2.78,2.78,0,0,1,.73,1,3.61,3.61,0,0,1,.25,1.44,2.85,2.85,0,0,1-1.23,2.5,6.07,6.07,0,0,1-3.5.85,9,9,0,0,1-2.48-.27,11.86,11.86,0,0,1-1.21-.4l.39-1.83,1.17.41A6.82,6.82,0,0,0,585,160.48Z" transform="translate(-315.7 -72.54)"/><path class="a" d="M602.15,162.15l-1,0-1.13-.07q-.56,0-1.11-.12a7,7,0,0,1-1-.18V146.34a7,7,0,0,1,1-.18L600,146l1.12-.07,1,0a15,15,0,0,1,2.58.21,6.35,6.35,0,0,1,2.09.7,3.47,3.47,0,0,1,1.89,3.27,3.52,3.52,0,0,1-.62,2.14,3.64,3.64,0,0,1-1.65,1.25,4.89,4.89,0,0,1,2.23,1.31,3.59,3.59,0,0,1,.82,2.52,4.08,4.08,0,0,1-1.75,3.6Q606,162.15,602.15,162.15Zm-2.09-9.34h2.34a11,11,0,0,0,1.56-.11,3.93,3.93,0,0,0,1.28-.42,2.37,2.37,0,0,0,.85-.78,2.24,2.24,0,0,0,.31-1.21,2,2,0,0,0-.33-1.16,2.19,2.19,0,0,0-.88-.76,4.66,4.66,0,0,0-1.32-.42,8.22,8.22,0,0,0-1.6-.14l-1.34,0-.87.07Zm0,1.79v5.6l.6.05.7,0h.93a13.89,13.89,0,0,0,1.87-.12,5.65,5.65,0,0,0,1.55-.45,2.66,2.66,0,0,0,1.06-.9,2.43,2.43,0,0,0,.41-1.44,2.68,2.68,0,0,0-.3-1.32,2.22,2.22,0,0,0-.86-.86,4.05,4.05,0,0,0-1.35-.46,10.22,10.22,0,0,0-1.74-.14Z" transform="translate(-315.7 -72.54)"/><path class="a" d="M616.88,149.83l.63,0c.24,0,.47.06.7.09l.64.12.42.1L618.9,152a8.26,8.26,0,0,0-.84-.22,7.69,7.69,0,0,0-1.5-.12,5.83,5.83,0,0,0-1.18.12l-.77.17v10h-2.13V150.58a14.82,14.82,0,0,1,1.88-.51A12.12,12.12,0,0,1,616.88,149.83Z" transform="translate(-315.7 -72.54)"/><path class="a" d="M625.19,149.78a6.23,6.23,0,0,1,2.17.33,3.64,3.64,0,0,1,1.42.94,3.56,3.56,0,0,1,.77,1.45,7.1,7.1,0,0,1,.23,1.85v7.46l-.77.12q-.5.09-1.11.15l-1.34.13c-.49,0-1,.06-1.44.06a7.79,7.79,0,0,1-1.86-.21,4.29,4.29,0,0,1-1.47-.66,3,3,0,0,1-1-1.18,4.12,4.12,0,0,1-.34-1.76,3.37,3.37,0,0,1,.4-1.7,3.09,3.09,0,0,1,1.09-1.15,5.11,5.11,0,0,1,1.6-.64,8.71,8.71,0,0,1,1.93-.21,5.12,5.12,0,0,1,.67,0,6.37,6.37,0,0,1,.65.09l.54.1.32.07v-.6a5.17,5.17,0,0,0-.11-1,2.42,2.42,0,0,0-.42-.92,2.08,2.08,0,0,0-.81-.64,3.21,3.21,0,0,0-1.34-.24,10,10,0,0,0-1.85.15,6.19,6.19,0,0,0-1.18.31l-.25-1.77a6.88,6.88,0,0,1,1.37-.36A12.37,12.37,0,0,1,625.19,149.78Zm.18,10.7c.51,0,1,0,1.35,0a4.75,4.75,0,0,0,1-.13v-3.55a2.77,2.77,0,0,0-.74-.2,9,9,0,0,0-1.26-.08,7.39,7.39,0,0,0-1,.07,3.1,3.1,0,0,0-1,.29,2.07,2.07,0,0,0-.75.59,1.59,1.59,0,0,0-.3,1,1.72,1.72,0,0,0,.74,1.6A3.78,3.78,0,0,0,625.37,160.48Z" transform="translate(-315.7 -72.54)"/><path class="a" d="M636.09,160.48a4.19,4.19,0,0,0,1.94-.35,1.17,1.17,0,0,0,.63-1.1,1.48,1.48,0,0,0-.62-1.24,9.39,9.39,0,0,0-2-1c-.46-.19-.9-.37-1.32-.56a4.82,4.82,0,0,1-1.09-.68,2.77,2.77,0,0,1-1-2.3,3,3,0,0,1,1.17-2.51,5,5,0,0,1,3.19-.93,8.55,8.55,0,0,1,1,.06c.34,0,.65.08.94.14s.55.11.77.17a4.58,4.58,0,0,1,.51.16l-.39,1.84a4.64,4.64,0,0,0-1.07-.38,7,7,0,0,0-1.77-.2,3.21,3.21,0,0,0-1.56.36,1.18,1.18,0,0,0-.67,1.11,1.52,1.52,0,0,0,.15.69,1.55,1.55,0,0,0,.46.54,3.91,3.91,0,0,0,.77.45c.31.13.67.28,1.1.43s1.07.43,1.52.63a5,5,0,0,1,1.13.72,2.64,2.64,0,0,1,.72,1,3.6,3.6,0,0,1,.26,1.44,2.85,2.85,0,0,1-1.23,2.5,6.1,6.1,0,0,1-3.5.85,9,9,0,0,1-2.48-.27,11.86,11.86,0,0,1-1.21-.4l.39-1.83,1.17.41A6.78,6.78,0,0,0,636.09,160.48Z" transform="translate(-315.7 -72.54)"/><path class="a" d="M644.6,147.92a1.33,1.33,0,0,1-1-.38,1.5,1.5,0,0,1,0-2,1.44,1.44,0,0,1,2,0,1.5,1.5,0,0,1,0,2A1.34,1.34,0,0,1,644.6,147.92ZM645.68,162h-2.13V150.08h2.13Z" transform="translate(-315.7 -72.54)"/><path class="a" d="M652.93,162.24a4.1,4.1,0,0,1-2.8-.85,3.35,3.35,0,0,1-.82-2.5V144.57l2.13-.36v14.34a3.52,3.52,0,0,0,.09.87,1.17,1.17,0,0,0,.3.55,1.28,1.28,0,0,0,.55.31,5.09,5.09,0,0,0,.85.17Z" transform="translate(-315.7 -72.54)"/><path class="a" d="M655,156.07a7.76,7.76,0,0,1,.46-2.77,5.83,5.83,0,0,1,1.22-2,4.86,4.86,0,0,1,1.74-1.17,5.45,5.45,0,0,1,2-.39,4.61,4.61,0,0,1,3.7,1.5,7,7,0,0,1,1.28,4.58v.36c0,.14,0,.28,0,.4h-8.17a4.33,4.33,0,0,0,1.08,2.82,3.93,3.93,0,0,0,2.93,1,7.85,7.85,0,0,0,1.9-.2,6.26,6.26,0,0,0,1.16-.38l.3,1.79a6.07,6.07,0,0,1-1.37.44,9.87,9.87,0,0,1-2.21.23,7.09,7.09,0,0,1-2.7-.47,5.1,5.1,0,0,1-1.87-1.3,5.29,5.29,0,0,1-1.09-2A8.23,8.23,0,0,1,655,156.07Zm8.2-1.17a3.62,3.62,0,0,0-.73-2.38,2.47,2.47,0,0,0-2-.93,2.86,2.86,0,0,0-1.3.29,3,3,0,0,0-1,.75,3.41,3.41,0,0,0-.61,1.05,5.26,5.26,0,0,0-.28,1.22Z" transform="translate(-315.7 -72.54)"/><path class="a" d="M669.5,147.92a1.43,1.43,0,0,1-1-2.42,1.36,1.36,0,0,1,1-.38,1.4,1.4,0,0,1,1,.38,1.5,1.5,0,0,1,0,2A1.36,1.36,0,0,1,669.5,147.92ZM670.58,162h-2.13V150.08h2.13Z" transform="translate(-315.7 -72.54)"/><path class="a" d="M678.66,149.83l.63,0c.24,0,.47.06.7.09l.63.12.42.1-.36,1.86c-.17-.06-.45-.13-.84-.22a7.69,7.69,0,0,0-1.5-.12,5.83,5.83,0,0,0-1.18.12l-.77.17v10h-2.14V150.58a15.3,15.3,0,0,1,1.88-.51A12.22,12.22,0,0,1,678.66,149.83Z" transform="translate(-315.7 -72.54)"/><path class="a" d="M693.64,156.05a7.45,7.45,0,0,1-.41,2.57,5.94,5.94,0,0,1-1.16,2,5,5,0,0,1-1.78,1.27,5.85,5.85,0,0,1-4.5,0,5,5,0,0,1-1.77-1.27,5.77,5.77,0,0,1-1.16-2,8,8,0,0,1,0-5.13,5.68,5.68,0,0,1,1.16-2,5.1,5.1,0,0,1,1.77-1.27,5.85,5.85,0,0,1,4.5,0,5.14,5.14,0,0,1,1.78,1.27,5.83,5.83,0,0,1,1.16,2A7.43,7.43,0,0,1,693.64,156.05Zm-2.22,0a5.19,5.19,0,0,0-.91-3.21,3.16,3.16,0,0,0-4.93,0,6.1,6.1,0,0,0,0,6.41,3.16,3.16,0,0,0,4.93,0A5.17,5.17,0,0,0,691.42,156.05Z" transform="translate(-315.7 -72.54)"/><path class="a" d="M699.43,160.48a4.22,4.22,0,0,0,1.94-.35A1.17,1.17,0,0,0,702,159a1.48,1.48,0,0,0-.62-1.24,9.76,9.76,0,0,0-2-1L698,156.2a5.06,5.06,0,0,1-1.09-.68,3.21,3.21,0,0,1,.17-4.81,5,5,0,0,1,3.19-.93,8.39,8.39,0,0,1,1,.06c.34,0,.66.08,1,.14s.54.11.76.17a4.24,4.24,0,0,1,.52.16l-.39,1.84a5,5,0,0,0-1.08-.38,6.93,6.93,0,0,0-1.76-.2,3.28,3.28,0,0,0-1.57.36,1.17,1.17,0,0,0-.66,1.11,1.52,1.52,0,0,0,.15.69,1.55,1.55,0,0,0,.46.54,3.64,3.64,0,0,0,.77.45c.3.13.67.28,1.1.43s1.07.43,1.51.63a5.06,5.06,0,0,1,1.14.72,2.88,2.88,0,0,1,.72,1,3.61,3.61,0,0,1,.25,1.44,2.86,2.86,0,0,1-1.22,2.5,6.1,6.1,0,0,1-3.5.85A8.91,8.91,0,0,1,697,162a12.32,12.32,0,0,1-1.22-.4l.39-1.83,1.17.41A6.89,6.89,0,0,0,699.43,160.48Z" transform="translate(-315.7 -72.54)"/><path class="a" d="M341.29,101.15v4H330.82v29.23h-4.65V105.18H315.7v-4Z" transform="translate(-315.7 -72.54)"/><path class="a" d="M353.67,108.93c.38,0,.82,0,1.32.07s1,.11,1.46.19l1.32.24a6.7,6.7,0,0,1,.89.22l-.77,3.88a15.28,15.28,0,0,0-1.75-.45,14.94,14.94,0,0,0-3.14-.27,11.4,11.4,0,0,0-2.47.27c-.82.17-1.36.29-1.61.36v21h-4.47v-23.9a31.87,31.87,0,0,1,3.94-1.08A25.06,25.06,0,0,1,353.67,108.93Z" transform="translate(-315.7 -72.54)"/><path class="a" d="M371.52,108.83a13,13,0,0,1,4.54.69,7.1,7.1,0,0,1,4.59,5,15,15,0,0,1,.47,3.86V134l-1.6.27c-.69.11-1.47.21-2.33.31s-1.8.18-2.81.26-2,.12-3,.12a16.38,16.38,0,0,1-3.89-.43,8.7,8.7,0,0,1-3.07-1.37,6.28,6.28,0,0,1-2-2.47,8.66,8.66,0,0,1-.72-3.7,7.11,7.11,0,0,1,.83-3.55,6.75,6.75,0,0,1,2.29-2.4,10.24,10.24,0,0,1,3.36-1.34,18.11,18.11,0,0,1,4-.43,13.34,13.34,0,0,1,1.39.07c.48.05.93.11,1.37.19l1.12.22.68.14v-1.25a10,10,0,0,0-.24-2.18,5,5,0,0,0-.87-1.92,4.37,4.37,0,0,0-1.7-1.35,6.8,6.8,0,0,0-2.81-.5,20.87,20.87,0,0,0-3.86.31,13.72,13.72,0,0,0-2.47.65l-.53-3.7a14,14,0,0,1,2.88-.74A24.82,24.82,0,0,1,371.52,108.83Zm.39,22.37c1.06,0,2,0,2.81-.07a12.37,12.37,0,0,0,2-.27v-7.44a6,6,0,0,0-1.56-.41,17.83,17.83,0,0,0-2.62-.16,16.07,16.07,0,0,0-2.13.14,6.47,6.47,0,0,0-2.07.6,4.43,4.43,0,0,0-1.56,1.25,3.25,3.25,0,0,0-.62,2.09,3.58,3.58,0,0,0,1.53,3.33A8,8,0,0,0,371.91,131.2Z" transform="translate(-315.7 -72.54)"/><path class="a" d="M393.46,110.56a12.43,12.43,0,0,1,2.47-1.11,11.76,11.76,0,0,1,3.82-.57,11.29,11.29,0,0,1,4.77,1,9.87,9.87,0,0,1,3.53,2.68,12,12,0,0,1,2.19,4.13,18,18,0,0,1,.74,5.28,15.77,15.77,0,0,1-.89,5.45,11.26,11.26,0,0,1-2.52,4.1,11.07,11.07,0,0,1-3.93,2.6,14.2,14.2,0,0,1-5.19.91,31.25,31.25,0,0,1-5.52-.43q-2.4-.44-3.93-.87V97.93l4.46-.76Zm0,20a15.22,15.22,0,0,0,1.9.37,23.41,23.41,0,0,0,3,.16,7.41,7.41,0,0,0,5.76-2.37c1.44-1.59,2.16-3.83,2.16-6.75a15.9,15.9,0,0,0-.38-3.6,8.12,8.12,0,0,0-1.25-2.9,5.93,5.93,0,0,0-2.23-1.92,7.23,7.23,0,0,0-3.29-.7,8.81,8.81,0,0,0-3.36.63,9.24,9.24,0,0,0-2.35,1.29Z" transform="translate(-315.7 -72.54)"/><path class="a" d="M425.81,108.83a13.06,13.06,0,0,1,4.54.69,7.48,7.48,0,0,1,3,2,7.38,7.38,0,0,1,1.61,3,14.57,14.57,0,0,1,.48,3.86V134l-1.61.27c-.68.11-1.46.21-2.32.31s-1.8.18-2.81.26-2,.12-3,.12a16.32,16.32,0,0,1-3.89-.43,8.62,8.62,0,0,1-3.07-1.37,6.22,6.22,0,0,1-2-2.47A8.66,8.66,0,0,1,416,127a7.12,7.12,0,0,1,.84-3.55,6.72,6.72,0,0,1,2.28-2.4,10.33,10.33,0,0,1,3.36-1.34,18.24,18.24,0,0,1,4-.43,13.53,13.53,0,0,1,1.4.07c.48.05.93.11,1.36.19l1.13.22.67.14v-1.25a10,10,0,0,0-.24-2.18,4.93,4.93,0,0,0-.86-1.92,4.44,4.44,0,0,0-1.7-1.35,6.8,6.8,0,0,0-2.81-.5,21.06,21.06,0,0,0-3.87.31,14.21,14.21,0,0,0-2.47.65l-.53-3.7a14.36,14.36,0,0,1,2.88-.74A24.93,24.93,0,0,1,425.81,108.83Zm.39,22.37c1.05,0,2,0,2.8-.07a12.07,12.07,0,0,0,2-.27v-7.44a6,6,0,0,0-1.56-.41,17.68,17.68,0,0,0-2.61-.16,16.21,16.21,0,0,0-2.14.14,6.49,6.49,0,0,0-2.06.6,4.26,4.26,0,0,0-1.56,1.25,3.25,3.25,0,0,0-.63,2.09,3.58,3.58,0,0,0,1.54,3.33A7.94,7.94,0,0,0,426.2,131.2Z" transform="translate(-315.7 -72.54)"/><path class="a" d="M450.77,134.89q-4.12-.09-5.85-1.77c-1.16-1.12-1.73-2.87-1.73-5.23v-30l4.46-.76v30a7.64,7.64,0,0,0,.19,1.82,2.51,2.51,0,0,0,.63,1.15,2.63,2.63,0,0,0,1.15.65,12.88,12.88,0,0,0,1.78.36Z" transform="translate(-315.7 -72.54)"/><path class="a" d="M456.87,134.41V97.93l4.46-.76v12.76a15.35,15.35,0,0,1,2.67-.74,14.82,14.82,0,0,1,2.8-.26,12.65,12.65,0,0,1,4.95.84,7.68,7.68,0,0,1,3.14,2.35,9,9,0,0,1,1.66,3.62,21,21,0,0,1,.48,4.66v14h-4.47v-13a21.19,21.19,0,0,0-.31-3.94,6.66,6.66,0,0,0-1-2.64,4.06,4.06,0,0,0-1.92-1.46,8.29,8.29,0,0,0-3-.46,10.82,10.82,0,0,0-1.48.1q-.78.09-1.47.21c-.46.08-.88.17-1.25.27a5.24,5.24,0,0,0-.79.24v20.73Z" transform="translate(-315.7 -72.54)"/><path class="a" d="M506.79,121.93a15.69,15.69,0,0,1-.87,5.38,12.18,12.18,0,0,1-2.42,4.13,10.63,10.63,0,0,1-3.72,2.66,12.25,12.25,0,0,1-9.41,0,10.63,10.63,0,0,1-3.72-2.66,12.18,12.18,0,0,1-2.42-4.13,17,17,0,0,1,0-10.73,12.18,12.18,0,0,1,2.42-4.15,10.63,10.63,0,0,1,3.72-2.66,12.25,12.25,0,0,1,9.41,0,10.63,10.63,0,0,1,3.72,2.66,12.18,12.18,0,0,1,2.42,4.15A15.76,15.76,0,0,1,506.79,121.93Zm-4.66,0a10.7,10.7,0,0,0-1.9-6.69,6.61,6.61,0,0,0-10.31,0,12.75,12.75,0,0,0,0,13.39,6.61,6.61,0,0,0,10.31,0A10.71,10.71,0,0,0,502.13,121.93Z" transform="translate(-315.7 -72.54)"/><path class="a" d="M552.72,117.76a19.37,19.37,0,0,1-1.34,7.51,13.93,13.93,0,0,1-3.79,5.28,16.24,16.24,0,0,1-5.86,3.12,25.69,25.69,0,0,1-7.49,1c-1.34,0-2.82,0-4.44-.17a26.12,26.12,0,0,1-4.39-.64V101.63a26.08,26.08,0,0,1,4.39-.65c1.62-.11,3.1-.17,4.44-.17a25.68,25.68,0,0,1,7.49,1,16.07,16.07,0,0,1,5.86,3.11,14,14,0,0,1,3.79,5.29A19.34,19.34,0,0,1,552.72,117.76Zm-18.09,12.86q6.61,0,9.88-3.38t3.27-9.48q0-6.11-3.27-9.48t-9.88-3.39c-1.32,0-2.33,0-3,0s-1.23.07-1.51.1v25.44c.28,0,.79.06,1.51.09S533.31,130.62,534.63,130.62Z" transform="translate(-315.7 -72.54)"/><path class="a" d="M558.43,122a15.91,15.91,0,0,1,1-5.78,12.06,12.06,0,0,1,2.55-4.11,10.28,10.28,0,0,1,3.65-2.44,11.24,11.24,0,0,1,4.22-.82q5,0,7.73,3.14t2.69,9.58v.74a7,7,0,0,1-.05.84H563.09a9.1,9.1,0,0,0,2.26,5.91q2,2,6.14,2a16.49,16.49,0,0,0,4-.4,14.39,14.39,0,0,0,2.42-.8l.63,3.75a13.35,13.35,0,0,1-2.86.91A20.27,20.27,0,0,1,571,135a14.59,14.59,0,0,1-5.64-1,10.35,10.35,0,0,1-3.91-2.71,10.9,10.9,0,0,1-2.28-4.1A17.26,17.26,0,0,1,558.43,122Zm17.14-2.45a7.52,7.52,0,0,0-1.51-5,5.22,5.22,0,0,0-4.3-1.94,5.88,5.88,0,0,0-2.71.6,6.39,6.39,0,0,0-2,1.56,7,7,0,0,0-1.27,2.21,10.31,10.31,0,0,0-.6,2.54Z" transform="translate(-315.7 -72.54)"/><path class="a" d="M598,135a13.6,13.6,0,0,1-5.31-1,10.7,10.7,0,0,1-3.84-2.69,11.28,11.28,0,0,1-2.33-4.1,17.14,17.14,0,0,1-.76-5.26,15.89,15.89,0,0,1,.84-5.28,12.53,12.53,0,0,1,2.37-4.15,10.73,10.73,0,0,1,3.77-2.74,12.28,12.28,0,0,1,5-1,20.06,20.06,0,0,1,3.36.29,15,15,0,0,1,3.21.91l-1,3.79a11.37,11.37,0,0,0-2.33-.77,13.32,13.32,0,0,0-2.81-.28,7.1,7.1,0,0,0-5.74,2.35c-1.32,1.57-2,3.85-2,6.86a13.83,13.83,0,0,0,.46,3.7,7.51,7.51,0,0,0,1.44,2.88,6.42,6.42,0,0,0,2.52,1.85,9.65,9.65,0,0,0,3.74.64,14.43,14.43,0,0,0,3.22-.33A12.48,12.48,0,0,0,604,130l.63,3.74a5.09,5.09,0,0,1-1.11.46,15.86,15.86,0,0,1-1.63.38c-.61.11-1.25.21-1.94.29A17.25,17.25,0,0,1,598,135Z" transform="translate(-315.7 -72.54)"/><path class="a" d="M608.55,122a15.91,15.91,0,0,1,1-5.78,12,12,0,0,1,2.54-4.11,10.37,10.37,0,0,1,3.65-2.44,11.24,11.24,0,0,1,4.22-.82q5,0,7.73,3.14t2.69,9.58v.74a7,7,0,0,1-.05.84H613.2a9.15,9.15,0,0,0,2.26,5.91q2,2,6.14,2a16.49,16.49,0,0,0,4-.4,14.89,14.89,0,0,0,2.43-.8l.62,3.75a13.35,13.35,0,0,1-2.86.91,20.27,20.27,0,0,1-4.63.48,14.66,14.66,0,0,1-5.64-1,10.35,10.35,0,0,1-3.91-2.71,11,11,0,0,1-2.28-4.1A17.27,17.27,0,0,1,608.55,122Zm17.13-2.45a7.52,7.52,0,0,0-1.51-5,5.22,5.22,0,0,0-4.3-1.94,5.91,5.91,0,0,0-2.71.6,6.39,6.39,0,0,0-2,1.56A7,7,0,0,0,613.9,117a10.31,10.31,0,0,0-.6,2.54Z" transform="translate(-315.7 -72.54)"/><path class="a" d="M637.25,110.17q1.53-.37,4.08-.81a35.08,35.08,0,0,1,5.86-.43,12.63,12.63,0,0,1,4.94.84,7.68,7.68,0,0,1,3.14,2.35,9,9,0,0,1,1.66,3.62,21,21,0,0,1,.48,4.66v14H653v-13a21.1,21.1,0,0,0-.32-3.94,6.66,6.66,0,0,0-1-2.64,4.06,4.06,0,0,0-1.92-1.46,8.27,8.27,0,0,0-3-.46c-.48,0-1,0-1.49,0s-1,.07-1.47.12-.88.1-1.24.17l-.8.14v21.07h-4.46Z" transform="translate(-315.7 -72.54)"/><path class="a" d="M669.46,109.45h9.45v3.75h-9.45v11.52a13.33,13.33,0,0,0,.29,3.09,4.63,4.63,0,0,0,.86,1.92,3.09,3.09,0,0,0,1.44,1,6.42,6.42,0,0,0,2,.28,9.55,9.55,0,0,0,3.24-.45c.82-.3,1.39-.52,1.71-.65l.86,3.7a17.72,17.72,0,0,1-2.35.84,13.59,13.59,0,0,1-3.84.5,11.44,11.44,0,0,1-4.2-.65,6.12,6.12,0,0,1-2.66-1.94,7.84,7.84,0,0,1-1.42-3.19,21.22,21.22,0,0,1-.41-4.39V102.49l4.47-.76Z" transform="translate(-315.7 -72.54)"/><path class="a" d="M683.19,122a15.7,15.7,0,0,1,1-5.78,11.89,11.89,0,0,1,2.54-4.11,10.28,10.28,0,0,1,3.65-2.44,11.24,11.24,0,0,1,4.22-.82q5,0,7.73,3.14t2.69,9.58v.74a7,7,0,0,1-.05.84H687.84A9.1,9.1,0,0,0,690.1,129q2,2,6.14,2a16.49,16.49,0,0,0,4-.4,14.39,14.39,0,0,0,2.42-.8l.63,3.75a13.35,13.35,0,0,1-2.86.91,20.27,20.27,0,0,1-4.63.48,14.59,14.59,0,0,1-5.64-1,10.35,10.35,0,0,1-3.91-2.71,10.9,10.9,0,0,1-2.28-4.1A17.27,17.27,0,0,1,683.19,122Zm17.13-2.45a7.52,7.52,0,0,0-1.51-5,5.22,5.22,0,0,0-4.3-1.94,5.88,5.88,0,0,0-2.71.6,6.39,6.39,0,0,0-2,1.56,7,7,0,0,0-1.27,2.21,10.31,10.31,0,0,0-.6,2.54Z" transform="translate(-315.7 -72.54)"/><path class="a" d="M316.27,82.38a10,10,0,0,1,.6-3.6,7.54,7.54,0,0,1,1.66-2.61A6.79,6.79,0,0,1,321,74.6a8.26,8.26,0,0,1,3-.53,8,8,0,0,1,2.9.53,6.85,6.85,0,0,1,2.4,1.57,7.65,7.65,0,0,1,1.64,2.61,10.93,10.93,0,0,1,0,7.2,7.65,7.65,0,0,1-1.64,2.61,6.85,6.85,0,0,1-2.4,1.57,8,8,0,0,1-2.9.53,8.26,8.26,0,0,1-3-.53,6.79,6.79,0,0,1-2.43-1.57A7.54,7.54,0,0,1,316.87,86,10,10,0,0,1,316.27,82.38Zm2.34,0A9,9,0,0,0,319,85a6.09,6.09,0,0,0,1,2,4.57,4.57,0,0,0,1.65,1.27,5.17,5.17,0,0,0,2.19.45,5.09,5.09,0,0,0,2.18-.45A4.63,4.63,0,0,0,327.68,87a6.09,6.09,0,0,0,1.05-2,9.79,9.79,0,0,0,0-5.26,6,6,0,0,0-1.05-2A4.63,4.63,0,0,0,326,76.47a5.09,5.09,0,0,0-2.18-.45,5.17,5.17,0,0,0-2.19.45A4.57,4.57,0,0,0,320,77.74a6,6,0,0,0-1,2A9,9,0,0,0,318.61,82.38Z" transform="translate(-315.7 -72.54)"/><path class="a" d="M336.76,78.94a5.4,5.4,0,0,1,1.18-.53,5.66,5.66,0,0,1,1.82-.28,5.54,5.54,0,0,1,2.29.46,4.76,4.76,0,0,1,1.68,1.29,5.72,5.72,0,0,1,1,2,8.46,8.46,0,0,1,.35,2.53,7.58,7.58,0,0,1-.42,2.6,5.41,5.41,0,0,1-1.21,2,5.19,5.19,0,0,1-1.88,1.24,6.68,6.68,0,0,1-2.48.44,14.67,14.67,0,0,1-2.63-.21c-.77-.14-1.4-.27-1.89-.41V72.9l2.14-.36Zm0,9.54a6.11,6.11,0,0,0,.9.18,11.72,11.72,0,0,0,1.46.08,3.55,3.55,0,0,0,2.76-1.14,4.66,4.66,0,0,0,1-3.22,7.19,7.19,0,0,0-.19-1.72,3.9,3.9,0,0,0-.59-1.39,2.89,2.89,0,0,0-1.07-.92,3.46,3.46,0,0,0-1.57-.33,4.43,4.43,0,0,0-1.61.29,4.51,4.51,0,0,0-1.12.62Z" transform="translate(-315.7 -72.54)"/><path class="a" d="M350.92,88.81a4.19,4.19,0,0,0,1.94-.35,1.17,1.17,0,0,0,.63-1.1,1.48,1.48,0,0,0-.62-1.24,9.89,9.89,0,0,0-2-1c-.46-.19-.9-.37-1.32-.56a4.61,4.61,0,0,1-1.09-.68,2.77,2.77,0,0,1-1-2.3A3,3,0,0,1,348.58,79a5,5,0,0,1,3.19-.93,8.68,8.68,0,0,1,1,.06c.33,0,.65.08.94.14s.54.11.77.17a4.58,4.58,0,0,1,.51.16l-.39,1.84a5,5,0,0,0-1.08-.38,6.93,6.93,0,0,0-1.76-.2,3.21,3.21,0,0,0-1.56.36,1.17,1.17,0,0,0-.67,1.11,1.52,1.52,0,0,0,.15.69,1.55,1.55,0,0,0,.46.54,3.64,3.64,0,0,0,.77.45c.3.13.67.28,1.1.43s1.07.43,1.51.63a4.84,4.84,0,0,1,1.14.72,2.88,2.88,0,0,1,.72,1,3.61,3.61,0,0,1,.25,1.44,2.84,2.84,0,0,1-1.22,2.5,6.1,6.1,0,0,1-3.5.85,9,9,0,0,1-2.48-.27,12.32,12.32,0,0,1-1.22-.4l.39-1.83,1.17.41A6.89,6.89,0,0,0,350.92,88.81Z" transform="translate(-315.7 -72.54)"/><path class="a" d="M357.71,84.4a7.55,7.55,0,0,1,.46-2.77,5.68,5.68,0,0,1,1.22-2,4.86,4.86,0,0,1,1.74-1.17,5.45,5.45,0,0,1,2-.39,4.59,4.59,0,0,1,3.69,1.5,6.91,6.91,0,0,1,1.29,4.58v.36c0,.14,0,.28,0,.4h-8.17A4.38,4.38,0,0,0,361,87.77a3.93,3.93,0,0,0,2.94,1,7.91,7.91,0,0,0,1.9-.2,6.11,6.11,0,0,0,1.15-.38l.3,1.79a6,6,0,0,1-1.36.44,9.9,9.9,0,0,1-2.22.23,7,7,0,0,1-2.69-.47,5,5,0,0,1-3-3.26A8.23,8.23,0,0,1,357.71,84.4Zm8.19-1.17a3.56,3.56,0,0,0-.72-2.38,2.49,2.49,0,0,0-2.05-.93,2.83,2.83,0,0,0-1.3.29,2.93,2.93,0,0,0-.95.75,3.22,3.22,0,0,0-.61,1.05,5.28,5.28,0,0,0-.29,1.22Z" transform="translate(-315.7 -72.54)"/><path class="a" d="M375.61,78.16l.63,0c.24,0,.47.06.7.09l.63.12.43.1-.37,1.86c-.17-.06-.45-.13-.84-.22a7.69,7.69,0,0,0-1.5-.12,5.83,5.83,0,0,0-1.18.12l-.77.17v10H371.2V78.91a15.3,15.3,0,0,1,1.88-.51A12.22,12.22,0,0,1,375.61,78.16Z" transform="translate(-315.7 -72.54)"/><path class="a" d="M389.86,78.41a61.08,61.08,0,0,1-2.1,6.42c-.8,2.06-1.58,3.89-2.33,5.51H383.5c-.75-1.62-1.52-3.45-2.33-5.51a61.08,61.08,0,0,1-2.1-6.42h2.3c.18.75.4,1.55.65,2.4s.52,1.69.81,2.52.57,1.64.86,2.42.56,1.48.82,2.09c.26-.61.54-1.31.83-2.09s.58-1.58.86-2.42.55-1.67.8-2.52.47-1.65.66-2.4Z" transform="translate(-315.7 -72.54)"/><path class="a" d="M395.92,78.11a6.27,6.27,0,0,1,2.17.33,3.64,3.64,0,0,1,1.42.94,3.68,3.68,0,0,1,.77,1.45,7.1,7.1,0,0,1,.23,1.85v7.46l-.77.12q-.5.09-1.11.15l-1.35.13c-.48,0-1,.06-1.43.06a7.79,7.79,0,0,1-1.86-.21,4.13,4.13,0,0,1-1.47-.66,3,3,0,0,1-1-1.18,4.12,4.12,0,0,1-.35-1.76,3.47,3.47,0,0,1,.4-1.7,3.19,3.19,0,0,1,1.1-1.15,5,5,0,0,1,1.6-.64,8.65,8.65,0,0,1,1.93-.21,5.07,5.07,0,0,1,.66,0,6.57,6.57,0,0,1,.66.09l.54.1.32.07v-.6a4.55,4.55,0,0,0-.12-1,2.26,2.26,0,0,0-.41-.92,2.08,2.08,0,0,0-.81-.64,3.26,3.26,0,0,0-1.35-.24,9.91,9.91,0,0,0-1.84.15,6,6,0,0,0-1.18.31l-.26-1.77a7.23,7.23,0,0,1,1.38-.36A12.37,12.37,0,0,1,395.92,78.11Zm.18,10.7c.51,0,.95,0,1.34,0a4.86,4.86,0,0,0,1-.13V85.09a2.75,2.75,0,0,0-.75-.2,8.74,8.74,0,0,0-1.25-.08,7.39,7.39,0,0,0-1,.07,3.16,3.16,0,0,0-1,.29,2.13,2.13,0,0,0-.74.59,1.59,1.59,0,0,0-.3,1,1.74,1.74,0,0,0,.73,1.6A3.82,3.82,0,0,0,396.1,88.81Z" transform="translate(-315.7 -72.54)"/><path class="a" d="M406,78.41h4.52V80.2H406v5.51a6.19,6.19,0,0,0,.14,1.48,2.31,2.31,0,0,0,.41.92,1.52,1.52,0,0,0,.69.47,3.05,3.05,0,0,0,1,.13,4.71,4.71,0,0,0,1.55-.21l.81-.31L411,90a7.72,7.72,0,0,1-1.13.4,6.33,6.33,0,0,1-1.83.25,5.74,5.74,0,0,1-2-.31,3,3,0,0,1-1.27-.93,3.7,3.7,0,0,1-.68-1.53,10,10,0,0,1-.2-2.1V75.08l2.14-.37Z" transform="translate(-315.7 -72.54)"/><path class="a" d="M423.48,84.38a7.7,7.7,0,0,1-.41,2.57,6.11,6.11,0,0,1-1.16,2,5,5,0,0,1-1.78,1.27,5.85,5.85,0,0,1-4.5,0,5,5,0,0,1-1.78-1.27,5.94,5.94,0,0,1-1.16-2,8.23,8.23,0,0,1,0-5.13,5.83,5.83,0,0,1,1.16-2,5.14,5.14,0,0,1,1.78-1.27,5.85,5.85,0,0,1,4.5,0,5.14,5.14,0,0,1,1.78,1.27,6,6,0,0,1,1.16,2A7.68,7.68,0,0,1,423.48,84.38Zm-2.23,0a5.18,5.18,0,0,0-.9-3.21,3.18,3.18,0,0,0-4.94,0,6.16,6.16,0,0,0,0,6.41,3.18,3.18,0,0,0,4.94,0A5.17,5.17,0,0,0,421.25,84.38Zm-.59-10.49L417.42,77l-1.08-1,2.94-3.53Z" transform="translate(-315.7 -72.54)"/><path class="a" d="M430.89,78.16l.63,0c.24,0,.47.06.7.09l.63.12.43.1-.37,1.86c-.17-.06-.45-.13-.84-.22a7.69,7.69,0,0,0-1.5-.12,5.83,5.83,0,0,0-1.18.12l-.77.17v10h-2.14V78.91a15.51,15.51,0,0,1,1.89-.51A12.12,12.12,0,0,1,430.89,78.16Z" transform="translate(-315.7 -72.54)"/><path class="a" d="M436.4,76.25a1.36,1.36,0,0,1-1-.38,1.5,1.5,0,0,1,0-2,1.4,1.4,0,0,1,1-.38,1.36,1.36,0,0,1,1,.38,1.4,1.4,0,0,1-1,2.42Zm1.08,14.09h-2.14V78.41h2.14Z" transform="translate(-315.7 -72.54)"/><path class="a" d="M451.68,84.38a7.7,7.7,0,0,1-.41,2.57,5.94,5.94,0,0,1-1.16,2,5,5,0,0,1-1.78,1.27,5.85,5.85,0,0,1-4.5,0,5,5,0,0,1-1.78-1.27,5.91,5.91,0,0,1-1.15-2,8,8,0,0,1,0-5.13,5.82,5.82,0,0,1,1.15-2,5.14,5.14,0,0,1,1.78-1.27,5.85,5.85,0,0,1,4.5,0,5.14,5.14,0,0,1,1.78,1.27,5.83,5.83,0,0,1,1.16,2A7.68,7.68,0,0,1,451.68,84.38Zm-2.22,0a5.19,5.19,0,0,0-.91-3.21,3.18,3.18,0,0,0-4.94,0,6.16,6.16,0,0,0,0,6.41,3.18,3.18,0,0,0,4.94,0A5.17,5.17,0,0,0,449.46,84.38Z" transform="translate(-315.7 -72.54)"/><path class="a" d="M467.7,72.9l2.13-.36V90c-.49.14-1.11.27-1.88.41a14.71,14.71,0,0,1-2.64.21,6.72,6.72,0,0,1-2.48-.44A5.27,5.27,0,0,1,461,88.94a5.39,5.39,0,0,1-1.2-2,7.35,7.35,0,0,1-.43-2.6,8.45,8.45,0,0,1,.36-2.53,5.7,5.7,0,0,1,1-2,4.79,4.79,0,0,1,1.69-1.29,5.49,5.49,0,0,1,2.28-.46,5.84,5.84,0,0,1,3,.81Zm0,8a4.6,4.6,0,0,0-1.13-.62A4.38,4.38,0,0,0,465,80a3.44,3.44,0,0,0-1.57.33,2.81,2.81,0,0,0-1.07.92,3.74,3.74,0,0,0-.6,1.39,7.76,7.76,0,0,0-.18,1.72,4.61,4.61,0,0,0,1,3.22,3.54,3.54,0,0,0,2.75,1.14,11.6,11.6,0,0,0,1.46-.08,6.59,6.59,0,0,0,.91-.18Z" transform="translate(-315.7 -72.54)"/><path class="a" d="M484,84.38a7.45,7.45,0,0,1-.42,2.57,5.91,5.91,0,0,1-1.15,2,5,5,0,0,1-1.78,1.27,5.85,5.85,0,0,1-4.5,0,5,5,0,0,1-1.78-1.27,5.94,5.94,0,0,1-1.16-2,8.23,8.23,0,0,1,0-5.13,5.83,5.83,0,0,1,1.16-2,5.14,5.14,0,0,1,1.78-1.27,5.85,5.85,0,0,1,4.5,0,5.14,5.14,0,0,1,1.78,1.27,5.82,5.82,0,0,1,1.15,2A7.43,7.43,0,0,1,484,84.38Zm-2.23,0a5.18,5.18,0,0,0-.9-3.21,3.18,3.18,0,0,0-4.94,0,6.1,6.1,0,0,0,0,6.41,3.18,3.18,0,0,0,4.94,0A5.17,5.17,0,0,0,481.81,84.38Z" transform="translate(-315.7 -72.54)"/></svg>