<?xml version="1.0" encoding="utf-8"?>
<!-- Generator: Adobe Illustrator 23.0.3, SVG Export Plug-In . SVG Version: 6.00 Build 0)  -->
<svg version="1.1" id="guarda-chuva" xmlns="http://www.w3.org/2000/svg" xmlns:xlink="http://www.w3.org/1999/xlink" x="0px"
	 y="0px" viewBox="0 0 48 48" style="enable-background:new 0 0 48 48;" xml:space="preserve">
<style type="text/css">
	.st0{fill:#0E0F12;}
</style>
<path class="st0" d="M7,26.5c-1-0.2-1.7,0.1-2.5,0.4c-1.4,0.4-2.5-0.2-3.3-1.3c-0.7-1-0.7-2.2,0-3.3c0.8-1.1,1.9-1.6,3.3-1.2
	c0.7,0.2,1.4,0.4,2.2,0.4c1.6,0,3-0.1,3.1-2.2c0-0.4,0.2-0.8,0.4-1.2c1.4-3.2,1-4.9-1.9-6.9c-1.1-0.8-1.7-1.5-1.4-2.8
	C7.1,7.5,7.7,7,8.6,6.8c1.2-0.2,1.9,0.5,2.6,1.5c0.9,1.1,2.2,2,3.4,2.9c0.6,0.6,1.2,0.2,1.8-0.1c0.8-0.4,1.6-0.9,2.5-1.2
	c2.6-0.9,3.3-2.1,2.5-4.7c-0.5-1.7-0.4-3,1-4c1-0.8,2.3-0.8,3.3,0c1.4,1,1.6,2.3,1.1,4c-0.9,2.7-0.1,3.8,2.4,4.7
	c0.2,0.1,0.5,0.2,0.7,0.2c1.1,0.4,2,1.7,3.1,1.3c1.5-0.7,3.1-1.7,4-3.3c0.7-1.1,1.5-1.5,2.7-1.3C40.5,7,41,7.6,41.2,8.5
	C41.4,9.7,41,10.5,40,11c-1.5,0.8-2,2.4-3.1,3.5c-0.6,0.6-0.3,1.2,0,1.8c0.5,0.8,0.9,1.6,1.2,2.5c1,2.7,2.1,3.4,4.9,2.5
	c1.6-0.5,2.8-0.3,3.8,1c0.8,1.1,0.8,2.4,0,3.5c-1,1.2-2.2,1.4-3.8,0.9c-2.7-0.9-3.8-0.2-4.8,2.6c-1.6,4.5-1.6,4.6,2.2,7.8
	c1.2,1,1.5,2.3,0.3,3.5c-1.1,1.1-2.5,0.9-3.4-0.3c-0.4-0.6-0.8-1.3-1.4-1.7c-1.1-0.6-1.9-2.2-3-2c-2,0.5-3.9,1.4-5.7,2.3
	c-1,0.5-0.8,2.6-0.3,4c0.6,1.6,0.3,2.8-0.9,3.8c-1.1,0.9-2.4,0.9-3.5,0c-1.2-1-1.5-2.2-1-3.8c0.9-2.8,0.2-3.9-2.5-4.8
	c-0.2-0.1-0.3-0.1-0.5-0.1c-1.3-0.2-2.3-2.3-4-0.9c-1.1,1-2.6,1.6-3.3,3c-0.5,1-1.4,1.4-2.5,1.2C7.6,41,7,40.5,6.8,39.6
	c-0.2-1.1,0.1-2,1.1-2.5c1.5-0.8,2.1-2.4,3.2-3.5c0.7-0.7,0.4-1.3,0-2c-0.5-0.9-1.1-1.9-1.3-2.9C9.5,26.8,8.5,26.2,7,26.5z
	 M9.9,37.5c2.6-0.3,3.6-3.1,5.5-2.8c1.9,0.3,3.4,1.9,5.5,2.3c0.3,0.1,0.7,0.1,1,0.2c0.7,0.2,1.2,0.7,1.2,1.4c0,1.5,0.1,3-0.1,4.5
	c-0.1,0.8-0.6,1.6,0.4,2.2c0.5,0.3,1.1,0.3,1.6-0.1c0.7-0.6,0.4-1.2,0.3-2c-0.9-4-0.2-5.4,3.6-6.7c0.2-0.1,0.5-0.1,0.7-0.3
	c2.9-2.7,5.2-1,7.3,1.2c0.3,0.3,0.5,0.8,1.1,0.7c0-0.3,0.1-0.7-0.1-0.8c-3-2.6-3.5-5.3-1.3-9c1.8-3.1,2.6-4.1,6.3-3.4
	c0.4,0.1,0.8,0.3,1.2,0.4c1,0.1,1.6-0.5,1.5-1.5c0-0.9-0.6-1.4-1.5-1.3c-0.4,0-0.8,0.4-1.2,0.4c-1.8-0.1-4.7,0.9-5.3-0.8
	c-1-3.3-5.1-6.8-0.7-10.6c0,0-0.1-0.3-0.2-0.4c-0.2,0-0.4-0.2-0.5-0.1c-2.3,2.9-4.8,2.1-7.4,0.4c-0.1,0-0.2,0-0.2-0.1
	C25,10.2,24.2,8.8,25,5.1c0.1-0.4,0.4-0.8,0.4-1.2c0-0.9-0.5-1.4-1.4-1.4c-0.9,0-1.4,0.5-1.4,1.4c0,0.4,0.3,0.8,0.4,1.2
	c0.8,3.7,0,5.2-3.5,6.4c-0.9,0.3-1.9,0.7-2.7,1.3c-1.1,0.8-2,0.8-3.1-0.1c-0.6-0.6-1.4-1.4-2.8-0.7c3,2.1,2.6,4.4,0.8,6.8
	c-0.5,0.7-0.6,1.7-0.8,2.6c-0.3,1.1-0.9,1.7-2.1,1.7c-1.4-0.1-2.8,0.4-4.2-0.2c-0.8-0.3-1.5-0.4-2,0.4c-0.4,0.5-0.3,1.1,0.1,1.6
	c0.6,0.7,1.2,0.5,2,0.3c4.1-1,5.4-0.2,6.7,3.6c0.1,0.3,0.2,0.7,0.4,0.9c2.4,2.6,1.1,4.7-0.9,6.7C10.7,36.6,10.5,36.9,9.9,37.5z
	 M30.8,30.7c0,2-1.8,3.8-3.9,3.8c-2.1,0-3.9-1.9-3.8-3.9c0.1-1.9,1.8-3.6,3.8-3.6C29,27,30.8,28.7,30.8,30.7z M27.1,28.5
	c-1.3,0.1-2.2,0.8-2.2,2.2c0,1.4,0.7,2.2,2,2.3c1.3,0.1,2.2-0.7,2.2-2.1C29.2,29.5,28.4,28.7,27.1,28.5z M16.5,20.2
	c1.8,0.1,2.9,1.1,3,3c0.1,1.9-1.1,3-2.9,3.1c-1.8,0.1-3-1.1-3-2.9C13.5,21.5,14.6,20.4,16.5,20.2z M18,23.2
	c-0.1-0.8-0.6-1.3-1.5-1.3c-0.9,0-1.5,0.5-1.5,1.3c0,0.9,0.6,1.4,1.4,1.4C17.3,24.6,17.8,24.1,18,23.2z M27.7,20.1
	c1.4,0,2.2-0.8,2.2-2.1c0-1.3-0.8-2.1-2.2-2.1c-1.4,0-2.1,0.8-2.3,2.1C25.7,19.3,26.4,20.1,27.7,20.1z M20.9,30.3
	c0.2-0.5,0-1.2-0.6-1.1c-1,0.2-1.9,1-2.3,2c-0.2,0.5-0.1,1,0.8,1.2C19.6,31.8,20.6,31.4,20.9,30.3z M20.9,14.3
	c0.1-0.7-0.5-1-0.9-0.7c-0.8,0.6-1.9,1-2,2.2c0,0.5,0.3,0.7,1,0.6C19.5,15.7,20.8,15.5,20.9,14.3z M33.7,22.6
	c-0.9,0.5-1.9,1-2.1,2.1c-0.1,0.6,0.5,1,0.9,0.7c0.8-0.5,1.9-1,2-2.1C34.4,22.7,34,22.4,33.7,22.6z"/>
<polygon points="45.9,18 40.2,8.1 29.7,14 29.7,2 24,2 18.3,2 18.3,14 7.8,8.1 2.1,18 12.6,24 2.1,30.1 7.8,40 18.3,33.9 18.3,46 
	24,46 29.7,46 29.7,33.9 40.2,40 45.9,30.1 35.4,24 "/>
<path d="M18.9,41.6c0.2,1.3-0.5,2.4-1.9,2.5c-1.3,0.1-2.8,0.1-4.2,0c-1-0.1-1.7-0.7-2.1-1.7c-0.8-3-1.6-6.1-2.5-9.3
	c-0.1-0.4-0.2-0.8-0.3-1.3h8.4c-0.3,1.1-0.5,2.3-0.5,3.5c0,1.3,0.4,2.6,1.5,3.4C18.1,39.6,18.7,40.4,18.9,41.6z"/>
<path d="M19.9,14H9c-3.6,0-6.6,3.4-6.6,7.5S5.4,29,9,29h2.3h8.6l17.4,10.1V3.9L19.9,14z"/>
<path d="M45.6,21.5c0-3.9-2.1-7.2-5.1-8.7v17.6C43.6,28.7,45.6,25.3,45.6,21.5z"/>
<path d="M24,24c0-6.5,5.5-12,12-12s12,5.5,12,12H24z M24,24c0,6.5-5.5,12-12,12S0,30.5,0,24H24z M24,24c-6.5,0-12-5.5-12-12
	S17.5,0,24,0V24z M24,24c6.5,0,12,5.5,12,12s-5.5,12-12,12V24z"/>
<path d="M30.1,44c-0.2,0-12.3,0-12.1,0c-0.8,0-1.3-0.8-0.8-1.5c0.1-0.2,4.9-8.5,4.8-8.4c0.1-0.1,0.2-0.2,0.4-0.1
	c1.1,0.6,2.3,0.6,3.4,0c0.1-0.1,0.4,0,0.4,0.1c0.1,0.1,4.9,8.5,4.8,8.4C31.4,43.2,30.8,44,30.1,44z"/>
<path d="M10.3,14.3c2.8,0,5.1-2.2,5.1-5.1S13.2,4,10.3,4S5.1,6.2,5.1,9.1S7.5,14.3,10.3,14.3z M10.3,16.7C6.8,16.7,0,18.4,0,21.9
	v2.5h20.5v-2.5C20.5,18.5,13.7,16.7,10.3,16.7z"/>
<path d="M37.7,14.3c2.8,0,5.1-2.2,5.1-5.1S40.7,4,37.7,4c-2.9,0-5.1,2.2-5.1,5.1S35,14.3,37.7,14.3z M37.7,16.7
	c-3.5,0-10.3,1.7-10.3,5.1v2.5H48v-2.5C48,18.5,41.2,16.7,37.7,16.7z"/>
<path d="M48,28.8c-0.1-0.9-0.7-1.5-1.1-1.5H27.2c-0.6-1.1-1.7-1.8-3-1.9c-0.1,0-0.1,0-0.2,0l0,0l0,0c-1.4,0-2.6,0.8-3.3,1.9H1.1
	c-0.6,0-1,0.6-1.1,1.5C-0.1,30.1,0.5,31,1.1,31h19.6c0.7,1.1,1.9,1.9,3.3,1.9l0,0l0,0c0.1,0,0.1,0,0.2,0c1.3-0.1,2.4-0.8,3-1.9h19.7
	C47.5,31,48.1,29.9,48,28.8z"/>
<path d="M41.5,43.7c-3,0-6.1-1-8.7-2.9c-5.3,3.8-12.1,3.8-17.5,0c-2.7,1.9-5.7,2.9-8.7,2.9H2.2V48h4.3c3,0,6-0.8,8.7-2.1
	c5.5,2.8,11.9,2.8,17.5,0c2.8,1.4,5.7,2.1,8.7,2.1h4.3v-4.3H41.5z M6.5,39.3L6.5,39.3c3.6,0,6.7-1.9,8.8-4.3
	c2.1,2.5,5.2,4.3,8.7,4.3s6.6-1.9,8.7-4.3c2.1,2.5,5.2,4.3,8.7,4.3h0.1l4.1-14.6c0.2-0.6,0.1-1.2-0.1-1.7c-0.2-0.4-0.8-0.9-1.3-1.1
	L41.3,21V10.9c0-2.5-2-4.3-4.3-4.3h-6.6V0H17.5v6.6h-6.6c-2.5,0-4.3,2-4.3,4.3V21l-2.8,0.9c-0.6,0.2-1,0.6-1.3,1.1
	c-0.2,0.6-0.3,1.1-0.1,1.7L6.5,39.3z M10.9,10.9h26.2v8.7l-13-4.3L11,19.6L10.9,10.9L10.9,10.9z"/>
<path d="M15,42H0c0.1-5.5,3.5-10.1,7.4-10.1C11.6,32,14.9,36.5,15,42z"/>
<path d="M40.5,42c-4,0-7.3-4.6-7.4-10.1h15C47.9,37.4,44.6,41.9,40.5,42z"/>
<rect x="16.2" y="6" width="7.2" height="36"/>
<rect x="24.6" y="6" width="7.2" height="36"/>
<path d="M35.9,2H12C9.8,2,8,4,8,6.4v35.2C8,44,9.8,46,12,46h24c2.2,0,4-2,4-4.4V6.4C39.9,4,38.1,2,35.9,2z M30.2,29.5l-6.3-4l-6.5,4
	l1.8-7.3l-5.6-5l7.4-0.5l3-6.8l2.8,6.8l7.4,0.5l-5.6,5L30.2,29.5z"/>
<rect y="29.1" width="48" height="5"/>
<rect x="2.5" y="38.1" width="10.6" height="7.4"/>
<rect x="34.9" y="38.1" width="10.6" height="7.4"/>
<path d="M22,10.8c-0.3-0.3-0.8-0.6-1.2-0.6h-0.4l-5.3,1.2v-8c0-1.4-1.1-2.6-2.4-2.6h-2.2c-0.3,0-0.6,0.1-0.8,0.2L1.4,4.9
	C0.6,5.3,0,6.2,0,7.3v11.6c0,1.4,1,2.6,2.3,2.6h0.2v3.6h10.6v-3.6h0.8c0.6,0,1.2-0.3,1.6-0.8l7.7-8.5L22,10.8z"/>
<path d="M46.6,4.9L38.4,1c-0.3-0.1-0.5-0.2-0.8-0.2h-2.2h-0.2c-1.3,0-2.3,1.2-2.3,2.6v8.2l-5.3-1.3h-0.4c-0.5,0-0.9,0.2-1.2,0.6
	l-1.2,1.4l7.7,8.5c0.4,0.5,1,0.8,1.6,0.8h0.8v3.5h10.6v-3.5h0.2c1.3,0,2.3-1.2,2.3-2.6V7.3C48,6.2,47.4,5.3,46.6,4.9z"/>
<path d="M45.2,21.5C44.9,12.8,40.1,7,33.7,4.2L33,8l-0.8,4l-0.6,3.4c-0.3,1.6-3.3,1.2-3-0.6l0.8-4l0.8-4l0.7-3.7
	c-0.2-4-13.6-4-13.8,0l0.7,3.7l0.8,4l0.8,4c0.3,1.8-2.6,2.2-3,0.6L15.8,12L15,8l-0.7-3.7C8.1,7.1,3.1,12.9,2.8,21.5
	C-1,22.1-1,27.5,3,27.9C3.5,39.1,12.7,48,24,48s20.5-8.9,21-20.1C49,27.5,49,22.1,45.2,21.5z M24,44c-9.1,0-16.5-7.1-17-16h34
	C40.5,36.9,33.1,44,24,44z"/>
<path d="M39.4,28c0,0,0-2.1,0-2v-2.3c-0.3-0.3-0.7-0.4-1.3-0.4c-0.5,0-1.1-0.2-1.4-0.4c-0.3-0.2-0.8-0.6-1-0.9l-0.2-0.3l-1.9,1v24.6
	h5.7v-19C39.4,28.2,39.4,28.1,39.4,28z M29.6,25l-3.9,2v20.3h5.8V23.9L29.6,25z M23.1,30.2c-0.1,0.1-1.5,0.9-5.3,3.1v14h5.7V29.6
	C23.4,29.8,23.2,30,23.1,30.2z M13.5,35.7c-1.3,0.8-2.6,1.5-3.8,2.1v9.5h5.7V34.6C14.8,35,14.2,35.3,13.5,35.7z M3.7,41.3
	c-0.6,0.3-1,0.4-1.6,0.2c-0.1,0-0.2-0.1-0.3-0.1v5.9h5.7v-8.1C5.3,40.4,3.8,41.2,3.7,41.3z M47.8,22.8c-0.1-0.1-0.1-0.3-0.1-0.4
	c-0.2-0.5-0.5-1-0.9-1.3c-0.2-0.2-0.7-0.3-1-0.4c-0.1,0-0.3,0-0.5,0H45v-0.1c-0.3-0.6-0.4-1.1-0.5-2.1c-0.1-1.2-0.3-1.7-0.7-2.9
	c-0.4-1.1-0.6-1.5-1.1-2.5c-3.7-7.2-3.8-7.2-4.6-8.3c-1.1-1.4-2.5-2.4-4.3-3.2c-0.4-0.2-2-0.7-2.4-0.8c-1.6-0.3-2.8-0.5-4.4-0.5
	c-0.6,0-0.6,0-0.5,0.1s0.2,0.1,0.5,0.1s0.5,0.1,0.9,0.2c0.5,0.2,1,0.3,0.8,0.3c0,0-0.4,0-0.9,0c-0.4,0-0.9,0-1.1,0
	c0.1,0.1,0.2,0.1,0.4,0.1c2.1,0.1,4.9,2.1,6.5,4.7c0.7,1.1,0.9,1.9,0.9,2.9c0,0.3,0,0.4-0.1,0.8c-0.2,0.5-0.3,0.8-0.7,1.2
	c-0.3,0.3-0.4,0.6-0.5,1s-0.1,0.7,0,1.1l0.1,0.3L30,14.9c-1.8,1-4.6,2.5-6.2,3.4l-2.9,1.6l-0.1-0.1c-0.5-0.6-1.4-0.9-2-0.6
	c-0.1,0-1.5,0.7-3.1,1.5c-3,1.5-4.5,2.3-8.3,4.3c-1.3,0.6-3.8,1.9-5.6,2.9C1,28,0.5,28.3,0,28.5v9.3c0.4,0.4,0.8,0.7,1.3,0.9
	c0.6,0.2,1,0.1,1.7-0.2c0.2-0.1,4.8-2.7,10.1-5.8c7.3-4.2,9.7-5.6,9.9-5.7c0.5-0.4,0.7-1.3,0.5-1.8L23.4,25l6.3-3.4l6.3-3.4l0.2,0.3
	c0.2,0.3,0.7,0.8,1,1s0.9,0.4,1.4,0.4c1.1,0.1,1.6,0.5,2.2,1.5c0.2,0.4,0.6,1.2,0.6,1.4c0,0-0.2,0.1-0.4,0.3c-0.6,0.3-0.9,0.6-1,1.2
	c-0.1,0.2-0.1,0.4-0.1,0.5c0,0.3,0.1,0.7,0.2,1c0.1,0.1,0.1,0.3,0.1,0.4c0.1,0.3,0.4,0.8,0.6,1c0.3,0.3,0.5,0.4,1,0.5
	c0.4,0.1,0.7,0.1,1,0c0.1-0.1,1.2-0.6,2.4-1.3c2.3-1.2,2.3-1.2,2.6-1.7C48,24.1,48.1,23.4,47.8,22.8z M37.5,17.7
	c-0.2-0.5-0.5-1-0.7-1.6L1.5,33.8L35.8,14c-0.2-0.5-0.5-1-0.7-1.6c3.6,0.1,5.9,0,5.9,0S38.9,15.3,37.5,17.7z"/>
<path d="M13.1,36.7c0,0.1,0,0.3,0,0.4h0.1c0.1-0.2,0.2-0.4,0.3-0.6c0.8-1.2,1.7-2.4,2.5-3.6c1.5-2.2,2.9-4.4,4.3-6.6
	c0.8-1.2,1.5-2.3,2.3-3.4c0.2-0.4,0.3-0.6-0.1-0.8c-1.7-0.9-3.4-2-5.3-2.6c-0.2-0.1-0.4-0.2-0.6-0.4c-1.1-1.5-2.4-2.7-3.8-3.8
	c-2.3-1.9-4.9-3.5-7.6-4.8c-0.3-0.1-0.6-0.2-0.8-0.3c0.3-1.9-0.5-3.3-2-4.2C1.6,5.4,0.8,5,0,4.5c0,0,0.1-0.1,0.2-0.1
	c2.3-0.3,4.7-0.7,7-1c3.4-0.4,6.9-0.7,10.4-0.3c2.1,0.2,4.1,1,6,1.8c0.4,0.2,0.8,0.3,1.2,0.3c1.5,0,2.7,0.6,3.9,1.4
	c0.9,0.6,1.8,1.2,2.6,1.9c0.5,0.3,0.6,0.3,0.9-0.2c0.5-0.7,1-1.4,1.5-2.2C33.8,6,33.9,5.8,34,5.7c0,0.1,0.1,0.2,0.2,0.3
	c-0.5,0.8-1.1,1.7-1.7,2.5c-0.3,0.4-0.3,0.6,0.1,0.8c0.2,0.1,0.4,0.2,0.6,0.3c1.3,0.5,2.2,1.3,2.9,2.5c0.1,0.3,0.4,0.5,0.7,0.7
	c1.1,0.9,2.2,1.8,3.2,2.8c2.4,2.2,3.9,4.9,5,8c1.1,3.2,1.9,6.4,2.5,9.7c0.1,0.6,0.3,1.1,0.4,1.7c0.1,0.3,0,0.6,0.1,1
	c-0.6-0.7-1.1-1.3-1.9-1.6c-1-0.3-1.7,0.1-2,1c0,0.1-0.1,0.2-0.1,0.3c-0.2-0.2-0.4-0.5-0.6-0.7c-3-2.4-6.2-4.5-10-5.7
	c-0.6-0.2-1.2-0.2-1.8-0.3c-0.1,0-0.2-0.1-0.3-0.2c-2.2-2.3-4.7-4.2-7.4-6c-0.4-0.2-0.5-0.2-0.8,0.2c-2.3,3.5-4.7,7-7,10.5
	c-0.7,1-1.5,2-2,3.1c-0.9,1.8-2.1,3.4-3.2,5c-0.6,1,0.2,2.6,1.3,2.7c0.2,0,0.5-0.1,0.7-0.2c0.7-0.4,1.1-1,1.1-1.8
	c0-0.3,0.1-0.5,0.4-0.4c0.3,0,0.5,0.1,0.5,0.5c0,1.1-0.9,2.3-1.9,2.7c-0.9,0.3-2-0.1-2.6-0.9c-0.7-1-0.8-2.2-0.1-3.2
	c0.8-1.2,1.7-2.4,2.5-3.6C12.9,37.2,13,37,13.1,36.7L13.1,36.7z"/>
</svg>
