<svg xmlns="http://www.w3.org/2000/svg" width="887.6" height="89.78" viewBox="0 0 887.6 89.78"><defs><style>.cls-1{fill:#fff;}</style></defs><title>des</title><g id="Logo"><path class="cls-1" d="M768.63,97.25q.73-.18,2-.39a16.87,16.87,0,0,1,2.8-.21,6,6,0,0,1,2.36.4,3.7,3.7,0,0,1,1.5,1.12,4.36,4.36,0,0,1,.79,1.73,10.06,10.06,0,0,1,.23,2.23v6.7h-2.13V102.6a10.22,10.22,0,0,0-.15-1.88,3.19,3.19,0,0,0-.49-1.26,2,2,0,0,0-.92-.7,4,4,0,0,0-1.42-.22l-.71,0-.7.06-.6.08-.38.07v10.07h-2.13Z" transform="translate(-1.33 -19.36)"/><path class="cls-1" d="M792.34,102.87a7.54,7.54,0,0,1-.41,2.57,5.89,5.89,0,0,1-1.16,2,5.1,5.1,0,0,1-1.78,1.27,5.88,5.88,0,0,1-4.5,0,5.1,5.1,0,0,1-1.78-1.27,5.88,5.88,0,0,1-1.16-2,8.17,8.17,0,0,1,0-5.13,5.86,5.86,0,0,1,1.16-2,5.1,5.1,0,0,1,1.78-1.27,5.87,5.87,0,0,1,4.5,0,5.1,5.1,0,0,1,1.78,1.27,5.87,5.87,0,0,1,1.16,2A7.58,7.58,0,0,1,792.34,102.87Zm-2.23,0a5.14,5.14,0,0,0-.91-3.2,3.17,3.17,0,0,0-4.93,0,6.11,6.11,0,0,0,0,6.4,3.17,3.17,0,0,0,4.93,0A5.14,5.14,0,0,0,790.11,102.87Z" transform="translate(-1.33 -19.36)"/><path class="cls-1" d="M811.41,92.94v1.93h-5v14h-2.23v-14h-5V92.94Z" transform="translate(-1.33 -19.36)"/><path class="cls-1" d="M817.1,96.66q.28,0,.63,0l.7.09.63.11.42.1-.37,1.86a7.24,7.24,0,0,0-.84-.22,7.39,7.39,0,0,0-1.5-.13,5.63,5.63,0,0,0-1.18.13l-.77.17v10h-2.13V97.41a14.5,14.5,0,0,1,1.88-.52A12.08,12.08,0,0,1,817.1,96.66Z" transform="translate(-1.33 -19.36)"/><path class="cls-1" d="M825.41,96.61a6.19,6.19,0,0,1,2.17.33,3.52,3.52,0,0,1,1.42.94,3.57,3.57,0,0,1,.77,1.45,7,7,0,0,1,.23,1.85v7.46l-.77.13-1.11.15-1.34.13q-.72.06-1.43.06a7.85,7.85,0,0,1-1.86-.21,4.15,4.15,0,0,1-1.47-.65,3,3,0,0,1-1-1.18,4.14,4.14,0,0,1-.34-1.77,3.41,3.41,0,0,1,.4-1.7,3.2,3.2,0,0,1,1.09-1.15,5,5,0,0,1,1.61-.64,8.75,8.75,0,0,1,1.93-.21q.32,0,.67,0l.65.09.54.1.32.07v-.6a4.79,4.79,0,0,0-.11-1,2.4,2.4,0,0,0-.41-.92,2.1,2.1,0,0,0-.81-.64,3.19,3.19,0,0,0-1.34-.24,10.11,10.11,0,0,0-1.85.15,6.51,6.51,0,0,0-1.18.31l-.25-1.77a6.6,6.6,0,0,1,1.38-.36A11.89,11.89,0,0,1,825.41,96.61Zm.18,10.69q.76,0,1.34,0a5.82,5.82,0,0,0,1-.13v-3.56a2.75,2.75,0,0,0-.75-.19,8.34,8.34,0,0,0-1.25-.08,8.07,8.07,0,0,0-1,.07,3.15,3.15,0,0,0-1,.29,2.11,2.11,0,0,0-.75.6,1.56,1.56,0,0,0-.3,1,1.71,1.71,0,0,0,.73,1.6A3.82,3.82,0,0,0,825.59,107.3Z" transform="translate(-1.33 -19.36)"/><path class="cls-1" d="M835.66,97.44a5.77,5.77,0,0,1,1.18-.53,5.54,5.54,0,0,1,1.82-.28,5.42,5.42,0,0,1,2.28.46,4.75,4.75,0,0,1,1.69,1.29,5.66,5.66,0,0,1,1,2,8.49,8.49,0,0,1,.36,2.52,7.53,7.53,0,0,1-.42,2.6,5.48,5.48,0,0,1-1.2,2,5.31,5.31,0,0,1-1.88,1.24,6.69,6.69,0,0,1-2.48.44,15,15,0,0,1-2.64-.21q-1.15-.21-1.88-.41V91.4l2.13-.37Zm0,9.55a6.86,6.86,0,0,0,.91.17,11,11,0,0,0,1.46.08,3.54,3.54,0,0,0,2.75-1.14,4.63,4.63,0,0,0,1-3.22,7.7,7.7,0,0,0-.18-1.72,3.88,3.88,0,0,0-.6-1.39,2.89,2.89,0,0,0-1.07-.92,3.44,3.44,0,0,0-1.57-.33,4.23,4.23,0,0,0-1.61.3,4.37,4.37,0,0,0-1.12.62Z" transform="translate(-1.33 -19.36)"/><path class="cls-1" d="M850.9,96.61a6.19,6.19,0,0,1,2.17.33,3.52,3.52,0,0,1,1.42.94,3.57,3.57,0,0,1,.77,1.45,7,7,0,0,1,.23,1.85v7.46l-.77.13-1.11.15-1.34.13q-.72.06-1.43.06a7.85,7.85,0,0,1-1.86-.21,4.15,4.15,0,0,1-1.47-.65,3,3,0,0,1-1-1.18,4.14,4.14,0,0,1-.34-1.77,3.41,3.41,0,0,1,.4-1.7,3.2,3.2,0,0,1,1.09-1.15,5,5,0,0,1,1.61-.64,8.75,8.75,0,0,1,1.93-.21q.32,0,.67,0l.65.09.54.1.32.07v-.6a4.79,4.79,0,0,0-.11-1,2.4,2.4,0,0,0-.41-.92,2.1,2.1,0,0,0-.81-.64,3.19,3.19,0,0,0-1.34-.24,10.11,10.11,0,0,0-1.85.15,6.51,6.51,0,0,0-1.18.31l-.25-1.77a6.6,6.6,0,0,1,1.38-.36A11.89,11.89,0,0,1,850.9,96.61Zm.18,10.69q.76,0,1.34,0a5.82,5.82,0,0,0,1-.13v-3.56a2.75,2.75,0,0,0-.75-.19,8.34,8.34,0,0,0-1.25-.08,8.07,8.07,0,0,0-1,.07,3.15,3.15,0,0,0-1,.29,2.11,2.11,0,0,0-.75.6,1.56,1.56,0,0,0-.3,1,1.71,1.71,0,0,0,.73,1.6A3.82,3.82,0,0,0,851.09,107.3Z" transform="translate(-1.33 -19.36)"/><path class="cls-1" d="M862.61,109.07a4.09,4.09,0,0,1-2.8-.85,3.35,3.35,0,0,1-.83-2.5V91.4l2.13-.37v14.34a3.44,3.44,0,0,0,.09.87,1.19,1.19,0,0,0,.3.55,1.28,1.28,0,0,0,.55.31,5.68,5.68,0,0,0,.85.17Z" transform="translate(-1.33 -19.36)"/><path class="cls-1" d="M865.29,108.84V91.4l2.13-.37v6.1a7.22,7.22,0,0,1,1.27-.36,7.32,7.32,0,0,1,1.34-.13,6,6,0,0,1,2.36.4,3.7,3.7,0,0,1,1.5,1.12,4.36,4.36,0,0,1,.79,1.73,10.06,10.06,0,0,1,.23,2.23v6.7h-2.13V102.6a10.22,10.22,0,0,0-.15-1.88,3.19,3.19,0,0,0-.49-1.26,2,2,0,0,0-.92-.7,4,4,0,0,0-1.42-.22,5.8,5.8,0,0,0-.71,0l-.7.1-.6.13-.38.11v9.91Z" transform="translate(-1.33 -19.36)"/><path class="cls-1" d="M888.93,102.87a7.54,7.54,0,0,1-.41,2.57,5.89,5.89,0,0,1-1.16,2,5.1,5.1,0,0,1-1.78,1.27,5.88,5.88,0,0,1-4.5,0,5.1,5.1,0,0,1-1.78-1.27,5.88,5.88,0,0,1-1.16-2,8.17,8.17,0,0,1,0-5.13,5.86,5.86,0,0,1,1.16-2,5.1,5.1,0,0,1,1.78-1.27,5.87,5.87,0,0,1,4.5,0,5.1,5.1,0,0,1,1.78,1.27,5.87,5.87,0,0,1,1.16,2A7.58,7.58,0,0,1,888.93,102.87Zm-2.23,0a5.14,5.14,0,0,0-.91-3.2,3.17,3.17,0,0,0-4.93,0,6.11,6.11,0,0,0,0,6.4,3.17,3.17,0,0,0,4.93,0A5.14,5.14,0,0,0,886.7,102.87Z" transform="translate(-1.33 -19.36)"/><path class="cls-1" d="M31.44,64.59A19.27,19.27,0,0,1,30.1,72.1a13.91,13.91,0,0,1-3.79,5.28,16.08,16.08,0,0,1-5.86,3.12,25.74,25.74,0,0,1-7.49,1q-2,0-4.44-.17a26.3,26.3,0,0,1-4.39-.65V48.46a26.41,26.41,0,0,1,4.39-.65q2.42-.17,4.44-.17a25.76,25.76,0,0,1,7.49,1,16.09,16.09,0,0,1,5.86,3.12,13.91,13.91,0,0,1,3.79,5.28A19.28,19.28,0,0,1,31.44,64.59ZM13.34,77.45q6.62,0,9.89-3.38t3.26-9.48q0-6.1-3.26-9.48t-9.89-3.38q-2,0-3,0t-1.51.1V77.31q.43,0,1.51.1T13.34,77.45Z" transform="translate(-1.33 -19.36)"/><path class="cls-1" d="M37.87,51.77a2.86,2.86,0,0,1-2-.79,3.14,3.14,0,0,1,0-4.27,3,3,0,0,1,4.08,0,3.13,3.13,0,0,1,0,4.27A2.86,2.86,0,0,1,37.87,51.77Zm2.26,29.47H35.66v-25h4.46Z" transform="translate(-1.33 -19.36)"/><path class="cls-1" d="M64.9,56.28A125.75,125.75,0,0,1,60.5,69.72Q58,76.15,55.63,81.24h-4q-2.35-5.09-4.87-11.52a125.75,125.75,0,0,1-4.39-13.44h4.8q.58,2.35,1.37,5t1.68,5.28q.89,2.62,1.8,5.06T53.71,76q.82-1.92,1.73-4.37t1.8-5.06q.89-2.62,1.68-5.28t1.37-5Z" transform="translate(-1.33 -19.36)"/><path class="cls-1" d="M65,68.81A15.92,15.92,0,0,1,66,63a12.08,12.08,0,0,1,2.54-4.1,10.33,10.33,0,0,1,3.65-2.45,11.4,11.4,0,0,1,4.22-.82q5,0,7.73,3.14t2.69,9.58v.74a6.84,6.84,0,0,1,0,.84H69.7A9.13,9.13,0,0,0,72,75.87q2,2,6.14,2a16.35,16.35,0,0,0,4-.41,14.24,14.24,0,0,0,2.42-.79l.62,3.74a13.28,13.28,0,0,1-2.86.91,20.34,20.34,0,0,1-4.63.48,14.7,14.7,0,0,1-5.64-1,10.5,10.5,0,0,1-3.91-2.71A11.05,11.05,0,0,1,65.78,74,17.34,17.34,0,0,1,65,68.81Zm17.14-2.45a7.49,7.49,0,0,0-1.51-5,5.21,5.21,0,0,0-4.3-1.94,5.89,5.89,0,0,0-2.71.6,6.39,6.39,0,0,0-2,1.56,7.17,7.17,0,0,0-1.27,2.21,10.87,10.87,0,0,0-.6,2.54Z" transform="translate(-1.33 -19.36)"/><path class="cls-1" d="M100.08,55.75q.58,0,1.32.07t1.46.19l1.32.24a8.22,8.22,0,0,1,.89.22l-.77,3.89a15.11,15.11,0,0,0-1.75-.46,15.37,15.37,0,0,0-3.14-.26,11.7,11.7,0,0,0-2.47.26l-1.61.36v21H90.86V57.34a30.28,30.28,0,0,1,3.94-1.08A25.28,25.28,0,0,1,100.08,55.75Z" transform="translate(-1.33 -19.36)"/><path class="cls-1" d="M112.8,78a8.79,8.79,0,0,0,4.06-.72,2.44,2.44,0,0,0,1.32-2.3,3.06,3.06,0,0,0-1.3-2.59,20.59,20.59,0,0,0-4.27-2.16q-1.44-.58-2.76-1.18a9.65,9.65,0,0,1-2.28-1.42,6.18,6.18,0,0,1-1.54-2,6.29,6.29,0,0,1-.58-2.83,6.36,6.36,0,0,1,2.45-5.26,10.45,10.45,0,0,1,6.67-1.94,18.81,18.81,0,0,1,2.11.12q1.05.12,2,.29t1.61.36q.7.19,1.08.34l-.82,3.84a11.35,11.35,0,0,0-2.26-.79,14.59,14.59,0,0,0-3.7-.41,6.83,6.83,0,0,0-3.26.74,2.47,2.47,0,0,0-1.39,2.33,3.17,3.17,0,0,0,.31,1.44,3.31,3.31,0,0,0,1,1.13,7.84,7.84,0,0,0,1.61.94q1,.43,2.3.91,1.78.67,3.17,1.32a9.93,9.93,0,0,1,2.38,1.51,5.81,5.81,0,0,1,1.51,2.09,7.57,7.57,0,0,1,.53,3A6,6,0,0,1,120.12,80q-2.57,1.78-7.32,1.78a19.14,19.14,0,0,1-5.18-.55q-1.87-.55-2.54-.84l.82-3.84q.77.29,2.45.86A14.13,14.13,0,0,0,112.8,78Z" transform="translate(-1.33 -19.36)"/><path class="cls-1" d="M128.21,51.77a2.86,2.86,0,0,1-2-.79,3.14,3.14,0,0,1,0-4.27,3,3,0,0,1,4.08,0,3.13,3.13,0,0,1,0,4.27A2.86,2.86,0,0,1,128.21,51.77Zm2.26,29.47H126v-25h4.46Z" transform="translate(-1.33 -19.36)"/><path class="cls-1" d="M151.87,44.76l4.46-.77V80.52q-1.54.43-3.94.86a31.42,31.42,0,0,1-5.52.43,14,14,0,0,1-5.18-.91,11.09,11.09,0,0,1-3.94-2.59,11.44,11.44,0,0,1-2.52-4.1,15.74,15.74,0,0,1-.89-5.45,17.75,17.75,0,0,1,.74-5.28,11.85,11.85,0,0,1,2.18-4.13,9.94,9.94,0,0,1,3.53-2.69,11.32,11.32,0,0,1,4.78-1,11.59,11.59,0,0,1,3.82.58,12.07,12.07,0,0,1,2.47,1.1Zm0,16.8a9.23,9.23,0,0,0-2.35-1.3,8.86,8.86,0,0,0-3.36-.62,7.18,7.18,0,0,0-3.29.7,6,6,0,0,0-2.23,1.92,8.12,8.12,0,0,0-1.25,2.9,16.12,16.12,0,0,0-.38,3.6q0,4.37,2.16,6.74a7.41,7.41,0,0,0,5.76,2.38,23,23,0,0,0,3-.17,14.33,14.33,0,0,0,1.9-.36Z" transform="translate(-1.33 -19.36)"/><path class="cls-1" d="M169.68,55.66a13,13,0,0,1,4.54.7,7.37,7.37,0,0,1,3,2,7.46,7.46,0,0,1,1.61,3,14.63,14.63,0,0,1,.48,3.86v15.6l-1.61.26q-1,.17-2.33.31t-2.81.26q-1.51.12-3,.12a16.46,16.46,0,0,1-3.89-.43A8.7,8.7,0,0,1,162.57,80a6.26,6.26,0,0,1-2-2.47,8.65,8.65,0,0,1-.72-3.7,7.12,7.12,0,0,1,.84-3.55,6.7,6.7,0,0,1,2.28-2.4,10.56,10.56,0,0,1,3.36-1.34,18.31,18.31,0,0,1,4-.43q.67,0,1.39.07t1.37.19l1.13.22.67.14V65.45a10.06,10.06,0,0,0-.24-2.18,5,5,0,0,0-.86-1.92A4.39,4.39,0,0,0,172.1,60a6.68,6.68,0,0,0-2.81-.5,21.13,21.13,0,0,0-3.86.31,13.61,13.61,0,0,0-2.47.65l-.53-3.7a13.78,13.78,0,0,1,2.88-.74A24.9,24.9,0,0,1,169.68,55.66ZM170.06,78q1.58,0,2.81-.07a12.27,12.27,0,0,0,2-.26V70.25a5.75,5.75,0,0,0-1.56-.41,17.38,17.38,0,0,0-2.62-.17,16.86,16.86,0,0,0-2.14.14,6.58,6.58,0,0,0-2.06.6A4.43,4.43,0,0,0,165,71.67a3.28,3.28,0,0,0-.62,2.09,3.58,3.58,0,0,0,1.54,3.34A8,8,0,0,0,170.06,78Z" transform="translate(-1.33 -19.36)"/><path class="cls-1" d="M200.4,44.76l4.46-.77V80.52q-1.54.43-3.94.86a31.42,31.42,0,0,1-5.52.43,14,14,0,0,1-5.18-.91,11.09,11.09,0,0,1-3.94-2.59,11.44,11.44,0,0,1-2.52-4.1,15.74,15.74,0,0,1-.89-5.45,17.75,17.75,0,0,1,.74-5.28,11.85,11.85,0,0,1,2.18-4.13,9.94,9.94,0,0,1,3.53-2.69,11.32,11.32,0,0,1,4.78-1,11.59,11.59,0,0,1,3.82.58,12.07,12.07,0,0,1,2.47,1.1Zm0,16.8a9.23,9.23,0,0,0-2.35-1.3,8.86,8.86,0,0,0-3.36-.62,7.18,7.18,0,0,0-3.29.7,6,6,0,0,0-2.23,1.92,8.12,8.12,0,0,0-1.25,2.9,16.12,16.12,0,0,0-.38,3.6q0,4.37,2.16,6.74a7.41,7.41,0,0,0,5.76,2.38,23,23,0,0,0,3-.17,14.33,14.33,0,0,0,1.9-.36Z" transform="translate(-1.33 -19.36)"/><path class="cls-1" d="M208.75,68.81a15.92,15.92,0,0,1,1-5.78,12.08,12.08,0,0,1,2.54-4.1,10.33,10.33,0,0,1,3.65-2.45,11.4,11.4,0,0,1,4.22-.82q5,0,7.73,3.14t2.69,9.58v.74a6.84,6.84,0,0,1,0,.84H213.4a9.13,9.13,0,0,0,2.26,5.9q2,2,6.14,2a16.35,16.35,0,0,0,4-.41,14.24,14.24,0,0,0,2.42-.79l.62,3.74a13.28,13.28,0,0,1-2.86.91,20.34,20.34,0,0,1-4.63.48,14.7,14.7,0,0,1-5.64-1,10.5,10.5,0,0,1-3.91-2.71,11.05,11.05,0,0,1-2.28-4.1A17.34,17.34,0,0,1,208.75,68.81Zm17.14-2.45a7.49,7.49,0,0,0-1.51-5,5.21,5.21,0,0,0-4.3-1.94,5.89,5.89,0,0,0-2.71.6,6.39,6.39,0,0,0-2,1.56,7.17,7.17,0,0,0-1.27,2.21,10.87,10.87,0,0,0-.6,2.54Z" transform="translate(-1.33 -19.36)"/><path class="cls-1" d="M241.87,68.81a15.92,15.92,0,0,1,1-5.78,12.08,12.08,0,0,1,2.54-4.1A10.33,10.33,0,0,1,249,56.47a11.4,11.4,0,0,1,4.22-.82q5,0,7.73,3.14t2.69,9.58v.74a6.84,6.84,0,0,1,0,.84H246.52a9.13,9.13,0,0,0,2.26,5.9q2,2,6.14,2a16.35,16.35,0,0,0,4-.41,14.24,14.24,0,0,0,2.42-.79l.62,3.74a13.28,13.28,0,0,1-2.86.91,20.34,20.34,0,0,1-4.63.48,14.7,14.7,0,0,1-5.64-1,10.5,10.5,0,0,1-3.91-2.71,11.05,11.05,0,0,1-2.28-4.1A17.34,17.34,0,0,1,241.87,68.81ZM259,66.36a7.49,7.49,0,0,0-1.51-5,5.21,5.21,0,0,0-4.3-1.94,5.89,5.89,0,0,0-2.71.6,6.39,6.39,0,0,0-2,1.56,7.17,7.17,0,0,0-1.27,2.21,10.87,10.87,0,0,0-.6,2.54Z" transform="translate(-1.33 -19.36)"/><path class="cls-1" d="M292.51,44.76,297,44V80.52q-1.54.43-3.94.86a31.42,31.42,0,0,1-5.52.43,14,14,0,0,1-5.18-.91,11.09,11.09,0,0,1-3.94-2.59,11.44,11.44,0,0,1-2.52-4.1,15.74,15.74,0,0,1-.89-5.45,17.75,17.75,0,0,1,.74-5.28,11.85,11.85,0,0,1,2.18-4.13,9.94,9.94,0,0,1,3.53-2.69,11.32,11.32,0,0,1,4.78-1,11.59,11.59,0,0,1,3.82.58,12.07,12.07,0,0,1,2.47,1.1Zm0,16.8a9.23,9.23,0,0,0-2.35-1.3,8.86,8.86,0,0,0-3.36-.62,7.18,7.18,0,0,0-3.29.7,6,6,0,0,0-2.23,1.92,8.12,8.12,0,0,0-1.25,2.9,16.12,16.12,0,0,0-.38,3.6q0,4.37,2.16,6.74a7.41,7.41,0,0,0,5.76,2.38,23,23,0,0,0,3-.17,14.33,14.33,0,0,0,1.9-.36Z" transform="translate(-1.33 -19.36)"/><path class="cls-1" d="M310.31,55.66a13,13,0,0,1,4.54.7,7.37,7.37,0,0,1,3,2,7.46,7.46,0,0,1,1.61,3,14.63,14.63,0,0,1,.48,3.86v15.6l-1.61.26q-1,.17-2.33.31t-2.81.26q-1.51.12-3,.12a16.46,16.46,0,0,1-3.89-.43A8.7,8.7,0,0,1,303.21,80a6.26,6.26,0,0,1-2-2.47,8.65,8.65,0,0,1-.72-3.7,7.12,7.12,0,0,1,.84-3.55,6.7,6.7,0,0,1,2.28-2.4A10.56,10.56,0,0,1,307,66.51a18.31,18.31,0,0,1,4-.43q.67,0,1.39.07t1.37.19l1.13.22.67.14V65.45a10.06,10.06,0,0,0-.24-2.18,5,5,0,0,0-.86-1.92,4.39,4.39,0,0,0-1.7-1.34,6.68,6.68,0,0,0-2.81-.5,21.13,21.13,0,0,0-3.86.31,13.61,13.61,0,0,0-2.47.65l-.53-3.7a13.78,13.78,0,0,1,2.88-.74A24.9,24.9,0,0,1,310.31,55.66ZM310.7,78q1.58,0,2.81-.07a12.27,12.27,0,0,0,2-.26V70.25a5.75,5.75,0,0,0-1.56-.41,17.38,17.38,0,0,0-2.62-.17,16.86,16.86,0,0,0-2.14.14,6.58,6.58,0,0,0-2.06.6,4.43,4.43,0,0,0-1.56,1.25,3.28,3.28,0,0,0-.62,2.09,3.58,3.58,0,0,0,1.54,3.34A8,8,0,0,0,310.7,78Z" transform="translate(-1.33 -19.36)"/><path class="cls-1" d="M333.88,48h4.66V81.24h-4.66Z" transform="translate(-1.33 -19.36)"/><path class="cls-1" d="M359.75,78.75a11.82,11.82,0,0,1-2.23,1,11.31,11.31,0,0,1-3.86.6,12.4,12.4,0,0,1-4.25-.72,9.22,9.22,0,0,1-3.48-2.23,10.79,10.79,0,0,1-2.35-3.77,15,15,0,0,1-.86-5.38,14.78,14.78,0,0,1,.82-5,11.12,11.12,0,0,1,2.38-3.94,10.89,10.89,0,0,1,3.82-2.59,13.16,13.16,0,0,1,5.09-.94,28.68,28.68,0,0,1,5.45.46q2.33.46,3.91.84V79.32q0,5.76-3,8.35t-9,2.59a24.59,24.59,0,0,1-4.44-.38A25.54,25.54,0,0,1,344.1,89l.82-3.89a20.78,20.78,0,0,0,3.29.94,19.74,19.74,0,0,0,4.06.41q4,0,5.74-1.58t1.75-5Zm0-18.53a14.91,14.91,0,0,0-1.8-.36,21.75,21.75,0,0,0-3-.17A6.79,6.79,0,0,0,349.31,62a9.49,9.49,0,0,0-1.94,6.24,11,11,0,0,0,.55,3.7,7.31,7.31,0,0,0,1.49,2.54A5.81,5.81,0,0,0,351.57,76a6.84,6.84,0,0,0,2.52.48,10.12,10.12,0,0,0,3.26-.5,8,8,0,0,0,2.35-1.18Z" transform="translate(-1.33 -19.36)"/><path class="cls-1" d="M389.32,80.52q-1.54.39-4.06.82a34.9,34.9,0,0,1-5.83.43,12.37,12.37,0,0,1-4.85-.84,7.81,7.81,0,0,1-3.17-2.38,9.63,9.63,0,0,1-1.73-3.62,18.87,18.87,0,0,1-.53-4.63v-14h4.46V69.34q0,4.56,1.44,6.53t4.85,2q.72,0,1.49,0t1.44-.12l1.22-.14a3.58,3.58,0,0,0,.79-.17V56.28h4.46Z" transform="translate(-1.33 -19.36)"/><path class="cls-1" d="M402.66,55.66a13,13,0,0,1,4.54.7,7.37,7.37,0,0,1,3,2,7.46,7.46,0,0,1,1.61,3,14.63,14.63,0,0,1,.48,3.86v15.6l-1.61.26q-1,.17-2.33.31t-2.81.26q-1.51.12-3,.12a16.46,16.46,0,0,1-3.89-.43A8.7,8.7,0,0,1,395.56,80a6.26,6.26,0,0,1-2-2.47,8.65,8.65,0,0,1-.72-3.7,7.12,7.12,0,0,1,.84-3.55,6.7,6.7,0,0,1,2.28-2.4,10.56,10.56,0,0,1,3.36-1.34,18.31,18.31,0,0,1,4-.43q.67,0,1.39.07t1.37.19l1.13.22.67.14V65.45a10.06,10.06,0,0,0-.24-2.18,5,5,0,0,0-.86-1.92,4.39,4.39,0,0,0-1.7-1.34,6.68,6.68,0,0,0-2.81-.5,21.13,21.13,0,0,0-3.86.31,13.61,13.61,0,0,0-2.47.65l-.53-3.7A13.78,13.78,0,0,1,398.3,56,24.9,24.9,0,0,1,402.66,55.66ZM403,78q1.58,0,2.81-.07a12.27,12.27,0,0,0,2-.26V70.25a5.75,5.75,0,0,0-1.56-.41,17.38,17.38,0,0,0-2.62-.17,16.86,16.86,0,0,0-2.14.14,6.58,6.58,0,0,0-2.06.6A4.43,4.43,0,0,0,398,71.67a3.28,3.28,0,0,0-.62,2.09,3.58,3.58,0,0,0,1.54,3.34A8,8,0,0,0,403,78Z" transform="translate(-1.33 -19.36)"/><path class="cls-1" d="M424.74,81.72q-4.13-.1-5.86-1.78t-1.73-5.23v-30l4.46-.77V74a7.24,7.24,0,0,0,.19,1.82,2.5,2.5,0,0,0,.62,1.15,2.68,2.68,0,0,0,1.15.65,11.83,11.83,0,0,0,1.78.36Z" transform="translate(-1.33 -19.36)"/><path class="cls-1" d="M444.09,44.76l4.46-.77V80.52q-1.54.43-3.94.86a31.42,31.42,0,0,1-5.52.43,14,14,0,0,1-5.18-.91A11.09,11.09,0,0,1,430,78.31a11.44,11.44,0,0,1-2.52-4.1,15.74,15.74,0,0,1-.89-5.45,17.75,17.75,0,0,1,.74-5.28,11.85,11.85,0,0,1,2.18-4.13A9.94,9.94,0,0,1,433,56.67a11.32,11.32,0,0,1,4.78-1,11.59,11.59,0,0,1,3.82.58,12.07,12.07,0,0,1,2.47,1.1Zm0,16.8a9.23,9.23,0,0,0-2.35-1.3,8.86,8.86,0,0,0-3.36-.62,7.18,7.18,0,0,0-3.29.7,6,6,0,0,0-2.23,1.92,8.12,8.12,0,0,0-1.25,2.9,16.12,16.12,0,0,0-.38,3.6q0,4.37,2.16,6.74a7.41,7.41,0,0,0,5.76,2.38,23,23,0,0,0,3-.17,14.33,14.33,0,0,0,1.9-.36Z" transform="translate(-1.33 -19.36)"/><path class="cls-1" d="M461.89,55.66a13,13,0,0,1,4.54.7,7.37,7.37,0,0,1,3,2,7.46,7.46,0,0,1,1.61,3,14.63,14.63,0,0,1,.48,3.86v15.6l-1.61.26q-1,.17-2.33.31t-2.81.26q-1.51.12-3,.12a16.46,16.46,0,0,1-3.89-.43A8.7,8.7,0,0,1,454.79,80a6.26,6.26,0,0,1-2-2.47,8.65,8.65,0,0,1-.72-3.7,7.12,7.12,0,0,1,.84-3.55,6.7,6.7,0,0,1,2.28-2.4,10.56,10.56,0,0,1,3.36-1.34,18.31,18.31,0,0,1,4-.43q.67,0,1.39.07t1.37.19l1.13.22.67.14V65.45a10.06,10.06,0,0,0-.24-2.18,5,5,0,0,0-.86-1.92,4.39,4.39,0,0,0-1.7-1.34,6.68,6.68,0,0,0-2.81-.5,21.13,21.13,0,0,0-3.86.31,13.61,13.61,0,0,0-2.47.65l-.53-3.7a13.78,13.78,0,0,1,2.88-.74A24.9,24.9,0,0,1,461.89,55.66ZM462.28,78q1.58,0,2.81-.07a12.27,12.27,0,0,0,2-.26V70.25a5.75,5.75,0,0,0-1.56-.41,17.38,17.38,0,0,0-2.62-.17,16.86,16.86,0,0,0-2.14.14,6.58,6.58,0,0,0-2.06.6,4.43,4.43,0,0,0-1.56,1.25,3.28,3.28,0,0,0-.62,2.09,3.58,3.58,0,0,0,1.54,3.34A8,8,0,0,0,462.28,78Z" transform="translate(-1.33 -19.36)"/><path class="cls-1" d="M492.61,44.76l4.46-.77V80.52q-1.54.43-3.94.86a31.42,31.42,0,0,1-5.52.43,14,14,0,0,1-5.18-.91,11.09,11.09,0,0,1-3.94-2.59,11.44,11.44,0,0,1-2.52-4.1,15.74,15.74,0,0,1-.89-5.45,17.75,17.75,0,0,1,.74-5.28A11.85,11.85,0,0,1,478,59.35a9.94,9.94,0,0,1,3.53-2.69,11.32,11.32,0,0,1,4.78-1,11.59,11.59,0,0,1,3.82.58,12.07,12.07,0,0,1,2.47,1.1Zm0,16.8a9.23,9.23,0,0,0-2.35-1.3,8.86,8.86,0,0,0-3.36-.62,7.18,7.18,0,0,0-3.29.7,6,6,0,0,0-2.23,1.92,8.12,8.12,0,0,0-1.25,2.9,16.12,16.12,0,0,0-.38,3.6q0,4.37,2.16,6.74a7.41,7.41,0,0,0,5.76,2.38,23,23,0,0,0,3-.17,14.33,14.33,0,0,0,1.9-.36Z" transform="translate(-1.33 -19.36)"/><path class="cls-1" d="M501,68.81a15.92,15.92,0,0,1,1-5.78,12.08,12.08,0,0,1,2.54-4.1,10.33,10.33,0,0,1,3.65-2.45,11.4,11.4,0,0,1,4.22-.82q5,0,7.73,3.14t2.69,9.58v.74a6.84,6.84,0,0,1,0,.84H505.62a9.13,9.13,0,0,0,2.26,5.9q2,2,6.14,2a16.35,16.35,0,0,0,4-.41,14.24,14.24,0,0,0,2.42-.79l.62,3.74a13.28,13.28,0,0,1-2.86.91,20.34,20.34,0,0,1-4.63.48,14.7,14.7,0,0,1-5.64-1A10.5,10.5,0,0,1,504,78.12a11.05,11.05,0,0,1-2.28-4.1A17.34,17.34,0,0,1,501,68.81Zm17.14-2.45a7.49,7.49,0,0,0-1.51-5,5.21,5.21,0,0,0-4.3-1.94,5.89,5.89,0,0,0-2.71.6,6.39,6.39,0,0,0-2,1.56,7.17,7.17,0,0,0-1.27,2.21,10.87,10.87,0,0,0-.6,2.54Z" transform="translate(-1.33 -19.36)"/><path class="cls-1" d="M551.6,44.76l4.46-.77V80.52q-1.54.43-3.94.86a31.42,31.42,0,0,1-5.52.43,14,14,0,0,1-5.18-.91,11.09,11.09,0,0,1-3.94-2.59,11.44,11.44,0,0,1-2.52-4.1,15.74,15.74,0,0,1-.89-5.45,17.75,17.75,0,0,1,.74-5.28A11.85,11.85,0,0,1,537,59.35a9.94,9.94,0,0,1,3.53-2.69,11.32,11.32,0,0,1,4.78-1,11.59,11.59,0,0,1,3.82.58,12.07,12.07,0,0,1,2.47,1.1Zm0,16.8a9.23,9.23,0,0,0-2.35-1.3,8.86,8.86,0,0,0-3.36-.62,7.18,7.18,0,0,0-3.29.7,6,6,0,0,0-2.23,1.92,8.12,8.12,0,0,0-1.25,2.9,16.12,16.12,0,0,0-.38,3.6q0,4.37,2.16,6.74a7.41,7.41,0,0,0,5.76,2.38,23,23,0,0,0,3-.17,14.33,14.33,0,0,0,1.9-.36Z" transform="translate(-1.33 -19.36)"/><path class="cls-1" d="M560,68.81a15.92,15.92,0,0,1,1-5.78,12.08,12.08,0,0,1,2.54-4.1,10.33,10.33,0,0,1,3.65-2.45,11.4,11.4,0,0,1,4.22-.82q5,0,7.73,3.14t2.69,9.58v.74a6.84,6.84,0,0,1,0,.84H564.61a9.13,9.13,0,0,0,2.26,5.9q2,2,6.14,2a16.35,16.35,0,0,0,4-.41,14.24,14.24,0,0,0,2.42-.79l.62,3.74a13.28,13.28,0,0,1-2.86.91,20.34,20.34,0,0,1-4.63.48,14.7,14.7,0,0,1-5.64-1A10.5,10.5,0,0,1,563,78.12,11.05,11.05,0,0,1,560.7,74,17.34,17.34,0,0,1,560,68.81Zm17.14-2.45a7.49,7.49,0,0,0-1.51-5,5.21,5.21,0,0,0-4.3-1.94,5.89,5.89,0,0,0-2.71.6,6.39,6.39,0,0,0-2,1.56,7.17,7.17,0,0,0-1.27,2.21,10.87,10.87,0,0,0-.6,2.54Z" transform="translate(-1.33 -19.36)"/><path class="cls-1" d="M593.41,64.59A20.65,20.65,0,0,1,594.68,57a15.57,15.57,0,0,1,3.46-5.45,14.31,14.31,0,0,1,5.09-3.29,17.22,17.22,0,0,1,6.17-1.1,16.71,16.71,0,0,1,6.07,1.1,14.18,14.18,0,0,1,5,3.29A15.78,15.78,0,0,1,623.92,57a20.67,20.67,0,0,1,1.27,7.54,20.67,20.67,0,0,1-1.27,7.54,15.77,15.77,0,0,1-3.43,5.45,14.15,14.15,0,0,1-5,3.29A16.71,16.71,0,0,1,609.4,82a17.22,17.22,0,0,1-6.17-1.1,14.28,14.28,0,0,1-5.09-3.29,15.56,15.56,0,0,1-3.46-5.45A20.65,20.65,0,0,1,593.41,64.59Zm4.9,0a18.45,18.45,0,0,0,.77,5.5,12.29,12.29,0,0,0,2.18,4.2,9.57,9.57,0,0,0,3.46,2.66,10.87,10.87,0,0,0,4.58.94,10.71,10.71,0,0,0,4.56-.94,9.63,9.63,0,0,0,3.43-2.66,12.31,12.31,0,0,0,2.18-4.2,20,20,0,0,0,0-11,12.32,12.32,0,0,0-2.18-4.2,9.63,9.63,0,0,0-3.43-2.66,10.71,10.71,0,0,0-4.56-.94,10.87,10.87,0,0,0-4.58.94,9.57,9.57,0,0,0-3.46,2.66,12.29,12.29,0,0,0-2.18,4.2A18.45,18.45,0,0,0,598.31,64.59Z" transform="translate(-1.33 -19.36)"/><path class="cls-1" d="M651.4,68.81a17.6,17.6,0,0,1-.74,5.23,11.85,11.85,0,0,1-2.18,4.13,9.93,9.93,0,0,1-3.53,2.69,11.32,11.32,0,0,1-4.78,1,11.6,11.6,0,0,1-3.82-.58,12,12,0,0,1-2.47-1.1v10h-4.46V57q1.58-.38,4-.84a29.44,29.44,0,0,1,5.5-.46,14,14,0,0,1,5.18.91A11.12,11.12,0,0,1,648,59.26a11.48,11.48,0,0,1,2.52,4.1A15.76,15.76,0,0,1,651.4,68.81Zm-4.66,0q0-4.37-2.16-6.72a7.44,7.44,0,0,0-5.76-2.35,26.3,26.3,0,0,0-3.14.14,12.66,12.66,0,0,0-1.8.34V76a9.15,9.15,0,0,0,2.35,1.3,8.84,8.84,0,0,0,3.36.62,7.18,7.18,0,0,0,3.29-.7,6,6,0,0,0,2.23-1.92,8.13,8.13,0,0,0,1.25-2.88A15.85,15.85,0,0,0,646.74,68.81Z" transform="translate(-1.33 -19.36)"/><path class="cls-1" d="M677.31,68.76a15.78,15.78,0,0,1-.86,5.38A12.29,12.29,0,0,1,674,78.27a10.66,10.66,0,0,1-3.72,2.66,12.29,12.29,0,0,1-9.41,0,10.66,10.66,0,0,1-3.72-2.66,12.29,12.29,0,0,1-2.42-4.13,17.09,17.09,0,0,1,0-10.73,12.26,12.26,0,0,1,2.42-4.15,10.66,10.66,0,0,1,3.72-2.66,12.29,12.29,0,0,1,9.41,0A10.66,10.66,0,0,1,674,59.26a12.26,12.26,0,0,1,2.42,4.15A15.84,15.84,0,0,1,677.31,68.76Zm-4.66,0a10.74,10.74,0,0,0-1.9-6.7,6.62,6.62,0,0,0-10.32,0,10.74,10.74,0,0,0-1.9,6.7,10.73,10.73,0,0,0,1.9,6.7,6.62,6.62,0,0,0,10.32,0A10.74,10.74,0,0,0,672.66,68.76Z" transform="translate(-1.33 -19.36)"/><path class="cls-1" d="M690.42,55.75q.58,0,1.32.07t1.46.19l1.32.24a8.22,8.22,0,0,1,.89.22l-.77,3.89a15.11,15.11,0,0,0-1.75-.46,15.37,15.37,0,0,0-3.14-.26,11.7,11.7,0,0,0-2.47.26l-1.61.36v21H681.2V57.34a30.28,30.28,0,0,1,3.94-1.08A25.28,25.28,0,0,1,690.42,55.75Z" transform="translate(-1.33 -19.36)"/><path class="cls-1" d="M701.51,56.28H711V60h-9.46V71.55a13.82,13.82,0,0,0,.29,3.1,4.65,4.65,0,0,0,.86,1.92,3.11,3.11,0,0,0,1.44,1,6.39,6.39,0,0,0,2,.29,9.48,9.48,0,0,0,3.24-.46l1.7-.65.86,3.7a16.61,16.61,0,0,1-2.35.84,13.38,13.38,0,0,1-3.84.5,11.64,11.64,0,0,1-4.2-.65,6.11,6.11,0,0,1-2.66-1.94A7.78,7.78,0,0,1,697.45,76a21,21,0,0,1-.41-4.39V49.32l4.46-.77Z" transform="translate(-1.33 -19.36)"/><path class="cls-1" d="M734.1,80.52q-1.54.39-4.06.82a34.9,34.9,0,0,1-5.83.43,12.37,12.37,0,0,1-4.85-.84,7.81,7.81,0,0,1-3.17-2.38,9.63,9.63,0,0,1-1.73-3.62,18.87,18.87,0,0,1-.53-4.63v-14h4.46V69.34q0,4.56,1.44,6.53t4.85,2q.72,0,1.49,0t1.44-.12l1.22-.14a3.58,3.58,0,0,0,.79-.17V56.28h4.46Z" transform="translate(-1.33 -19.36)"/><path class="cls-1" d="M739.38,57q1.54-.38,4.08-.82a35.29,35.29,0,0,1,5.86-.43,12.66,12.66,0,0,1,4.94.84,7.73,7.73,0,0,1,3.14,2.35,9.1,9.1,0,0,1,1.66,3.62,21.07,21.07,0,0,1,.48,4.66v14h-4.46V68.19a21.36,21.36,0,0,0-.31-3.94,6.66,6.66,0,0,0-1-2.64,4.09,4.09,0,0,0-1.92-1.46,8.45,8.45,0,0,0-3-.46q-.72,0-1.49,0t-1.46.12q-.7.07-1.25.17l-.79.14V81.24h-4.46Z" transform="translate(-1.33 -19.36)"/><path class="cls-1" d="M766.74,51.77a2.86,2.86,0,0,1-2-.79,3.14,3.14,0,0,1,0-4.27,3,3,0,0,1,4.08,0,3.13,3.13,0,0,1,0,4.27A2.86,2.86,0,0,1,766.74,51.77ZM769,81.24h-4.46v-25H769Z" transform="translate(-1.33 -19.36)"/><path class="cls-1" d="M790.4,44.76l4.46-.77V80.52q-1.54.43-3.94.86a31.42,31.42,0,0,1-5.52.43,14,14,0,0,1-5.18-.91,11.09,11.09,0,0,1-3.94-2.59,11.44,11.44,0,0,1-2.52-4.1,15.74,15.74,0,0,1-.89-5.45,17.75,17.75,0,0,1,.74-5.28,11.85,11.85,0,0,1,2.18-4.13,9.94,9.94,0,0,1,3.53-2.69,11.32,11.32,0,0,1,4.78-1,11.59,11.59,0,0,1,3.82.58,12.07,12.07,0,0,1,2.47,1.1Zm0,16.8a9.23,9.23,0,0,0-2.35-1.3,8.86,8.86,0,0,0-3.36-.62,7.18,7.18,0,0,0-3.29.7,6,6,0,0,0-2.23,1.92,8.12,8.12,0,0,0-1.25,2.9,16.12,16.12,0,0,0-.38,3.6q0,4.37,2.16,6.74a7.41,7.41,0,0,0,5.76,2.38,23,23,0,0,0,3-.17,14.33,14.33,0,0,0,1.9-.36Z" transform="translate(-1.33 -19.36)"/><path class="cls-1" d="M808.21,55.66a13,13,0,0,1,4.54.7,7.37,7.37,0,0,1,3,2,7.46,7.46,0,0,1,1.61,3,14.63,14.63,0,0,1,.48,3.86v15.6l-1.61.26q-1,.17-2.33.31t-2.81.26q-1.51.12-3,.12a16.46,16.46,0,0,1-3.89-.43A8.7,8.7,0,0,1,801.1,80a6.26,6.26,0,0,1-2-2.47,8.65,8.65,0,0,1-.72-3.7,7.12,7.12,0,0,1,.84-3.55,6.7,6.7,0,0,1,2.28-2.4,10.56,10.56,0,0,1,3.36-1.34,18.31,18.31,0,0,1,4-.43q.67,0,1.39.07t1.37.19l1.13.22.67.14V65.45a10.06,10.06,0,0,0-.24-2.18,5,5,0,0,0-.86-1.92,4.39,4.39,0,0,0-1.7-1.34,6.68,6.68,0,0,0-2.81-.5,21.13,21.13,0,0,0-3.86.31,13.61,13.61,0,0,0-2.47.65l-.53-3.7a13.78,13.78,0,0,1,2.88-.74A24.9,24.9,0,0,1,808.21,55.66ZM808.59,78q1.58,0,2.81-.07a12.27,12.27,0,0,0,2-.26V70.25a5.75,5.75,0,0,0-1.56-.41,17.38,17.38,0,0,0-2.62-.17,16.86,16.86,0,0,0-2.14.14,6.58,6.58,0,0,0-2.06.6,4.43,4.43,0,0,0-1.56,1.25,3.28,3.28,0,0,0-.62,2.09,3.58,3.58,0,0,0,1.54,3.34A8,8,0,0,0,808.59,78Z" transform="translate(-1.33 -19.36)"/><path class="cls-1" d="M838.93,44.76l4.46-.77V80.52q-1.54.43-3.94.86a31.42,31.42,0,0,1-5.52.43,14,14,0,0,1-5.18-.91,11.09,11.09,0,0,1-3.94-2.59,11.44,11.44,0,0,1-2.52-4.1,15.74,15.74,0,0,1-.89-5.45,17.75,17.75,0,0,1,.74-5.28,11.85,11.85,0,0,1,2.18-4.13,9.94,9.94,0,0,1,3.53-2.69,11.32,11.32,0,0,1,4.78-1,11.59,11.59,0,0,1,3.82.58,12.07,12.07,0,0,1,2.47,1.1Zm0,16.8a9.23,9.23,0,0,0-2.35-1.3,8.86,8.86,0,0,0-3.36-.62,7.18,7.18,0,0,0-3.29.7,6,6,0,0,0-2.23,1.92,8.12,8.12,0,0,0-1.25,2.9,16.12,16.12,0,0,0-.38,3.6q0,4.37,2.16,6.74A7.41,7.41,0,0,0,834,77.88a23,23,0,0,0,3-.17,14.33,14.33,0,0,0,1.9-.36Z" transform="translate(-1.33 -19.36)"/><path class="cls-1" d="M847.28,68.81a15.92,15.92,0,0,1,1-5.78,12.08,12.08,0,0,1,2.54-4.1,10.33,10.33,0,0,1,3.65-2.45,11.4,11.4,0,0,1,4.22-.82q5,0,7.73,3.14t2.69,9.58v.74a6.84,6.84,0,0,1,0,.84H851.93a9.13,9.13,0,0,0,2.26,5.9q2,2,6.14,2a16.35,16.35,0,0,0,4-.41,14.24,14.24,0,0,0,2.42-.79l.62,3.74a13.28,13.28,0,0,1-2.86.91,20.34,20.34,0,0,1-4.63.48,14.7,14.7,0,0,1-5.64-1,10.5,10.5,0,0,1-3.91-2.71A11.05,11.05,0,0,1,848,74,17.34,17.34,0,0,1,847.28,68.81Zm17.14-2.45a7.49,7.49,0,0,0-1.51-5,5.21,5.21,0,0,0-4.3-1.94,5.89,5.89,0,0,0-2.71.6,6.39,6.39,0,0,0-2,1.56,7.17,7.17,0,0,0-1.27,2.21,10.87,10.87,0,0,0-.6,2.54Z" transform="translate(-1.33 -19.36)"/><path class="cls-1" d="M878.91,78a8.79,8.79,0,0,0,4.06-.72,2.44,2.44,0,0,0,1.32-2.3,3.06,3.06,0,0,0-1.3-2.59,20.59,20.59,0,0,0-4.27-2.16q-1.44-.58-2.76-1.18a9.65,9.65,0,0,1-2.28-1.42,6.18,6.18,0,0,1-1.54-2,6.29,6.29,0,0,1-.58-2.83A6.36,6.36,0,0,1,874,57.6a10.45,10.45,0,0,1,6.67-1.94,18.81,18.81,0,0,1,2.11.12q1.05.12,2,.29t1.61.36q.7.19,1.08.34l-.82,3.84a11.35,11.35,0,0,0-2.26-.79,14.59,14.59,0,0,0-3.7-.41,6.83,6.83,0,0,0-3.26.74A2.47,2.47,0,0,0,876,62.47a3.17,3.17,0,0,0,.31,1.44,3.31,3.31,0,0,0,1,1.13,7.84,7.84,0,0,0,1.61.94q1,.43,2.3.91,1.78.67,3.17,1.32a9.93,9.93,0,0,1,2.38,1.51,5.81,5.81,0,0,1,1.51,2.09,7.57,7.57,0,0,1,.53,3A6,6,0,0,1,886.23,80q-2.57,1.78-7.32,1.78a19.14,19.14,0,0,1-5.18-.55q-1.87-.55-2.54-.84l.82-3.84q.77.29,2.45.86A14.13,14.13,0,0,0,878.91,78Z" transform="translate(-1.33 -19.36)"/><path class="cls-1" d="M1.33,29.21a9.88,9.88,0,0,1,.61-3.6A7.45,7.45,0,0,1,3.59,23,6.84,6.84,0,0,1,6,21.43,8.23,8.23,0,0,1,9,20.9a8,8,0,0,1,2.9.53A6.78,6.78,0,0,1,14.27,23a7.54,7.54,0,0,1,1.64,2.6,9.88,9.88,0,0,1,.61,3.6,9.88,9.88,0,0,1-.61,3.6,7.54,7.54,0,0,1-1.64,2.6A6.76,6.76,0,0,1,11.88,37a8,8,0,0,1-2.9.53A8.23,8.23,0,0,1,6,37a6.83,6.83,0,0,1-2.43-1.57,7.45,7.45,0,0,1-1.65-2.6A9.88,9.88,0,0,1,1.33,29.21Zm2.34,0A8.82,8.82,0,0,0,4,31.84a5.87,5.87,0,0,0,1,2,4.57,4.57,0,0,0,1.65,1.27,5.19,5.19,0,0,0,2.19.45,5.12,5.12,0,0,0,2.18-.45,4.6,4.6,0,0,0,1.64-1.27,5.89,5.89,0,0,0,1-2,9.59,9.59,0,0,0,0-5.26,5.89,5.89,0,0,0-1-2,4.6,4.6,0,0,0-1.64-1.27,5.12,5.12,0,0,0-2.18-.45,5.19,5.19,0,0,0-2.19.45,4.57,4.57,0,0,0-1.65,1.27,5.87,5.87,0,0,0-1,2A8.83,8.83,0,0,0,3.67,29.21Z" transform="translate(-1.33 -19.36)"/><path class="cls-1" d="M21.82,25.77A5.77,5.77,0,0,1,23,25.24,5.54,5.54,0,0,1,24.83,25a5.42,5.42,0,0,1,2.28.46,4.75,4.75,0,0,1,1.69,1.29,5.66,5.66,0,0,1,1,2,8.49,8.49,0,0,1,.36,2.52,7.53,7.53,0,0,1-.42,2.6,5.48,5.48,0,0,1-1.2,2A5.31,5.31,0,0,1,26.69,37a6.69,6.69,0,0,1-2.48.44,15,15,0,0,1-2.64-.21q-1.15-.21-1.88-.41V19.73l2.13-.37Zm0,9.55a6.86,6.86,0,0,0,.91.17,11,11,0,0,0,1.46.08,3.54,3.54,0,0,0,2.75-1.14,4.63,4.63,0,0,0,1-3.22,7.7,7.7,0,0,0-.18-1.72,3.88,3.88,0,0,0-.6-1.39,2.89,2.89,0,0,0-1.07-.92,3.44,3.44,0,0,0-1.57-.33,4.23,4.23,0,0,0-1.61.3,4.37,4.37,0,0,0-1.12.62Z" transform="translate(-1.33 -19.36)"/><path class="cls-1" d="M36,35.63a4.2,4.2,0,0,0,1.94-.34,1.16,1.16,0,0,0,.63-1.1,1.46,1.46,0,0,0-.62-1.24,9.86,9.86,0,0,0-2-1q-.69-.28-1.32-.56a4.6,4.6,0,0,1-1.09-.68,3,3,0,0,1-.73-.94,3,3,0,0,1-.28-1.35,3,3,0,0,1,1.17-2.51,5,5,0,0,1,3.19-.93,9,9,0,0,1,1,.06q.5.06.94.14t.77.17l.52.16-.39,1.84a5.39,5.39,0,0,0-1.08-.38,7,7,0,0,0-1.77-.19,3.27,3.27,0,0,0-1.56.36,1.18,1.18,0,0,0-.67,1.11,1.52,1.52,0,0,0,.15.69,1.59,1.59,0,0,0,.46.54,3.76,3.76,0,0,0,.77.45q.46.21,1.1.44.85.32,1.51.63a4.76,4.76,0,0,1,1.14.72,2.78,2.78,0,0,1,.72,1,3.62,3.62,0,0,1,.25,1.43,2.85,2.85,0,0,1-1.23,2.5,6.11,6.11,0,0,1-3.5.85,9.15,9.15,0,0,1-2.48-.26,12.75,12.75,0,0,1-1.22-.4l.39-1.84,1.17.41A6.75,6.75,0,0,0,36,35.63Z" transform="translate(-1.33 -19.36)"/><path class="cls-1" d="M42.78,31.23a7.62,7.62,0,0,1,.46-2.77,5.77,5.77,0,0,1,1.22-2,4.94,4.94,0,0,1,1.74-1.17,5.45,5.45,0,0,1,2-.39,4.6,4.6,0,0,1,3.69,1.5A6.92,6.92,0,0,1,53.19,31v.36a3.27,3.27,0,0,1,0,.4H45a4.37,4.37,0,0,0,1.08,2.82,4,4,0,0,0,2.94,1,7.84,7.84,0,0,0,1.89-.19A6.8,6.8,0,0,0,52.07,35l.3,1.79a6.34,6.34,0,0,1-1.37.44,9.72,9.72,0,0,1-2.21.23,7,7,0,0,1-2.7-.47,5,5,0,0,1-1.87-1.3,5.29,5.29,0,0,1-1.09-2A8.29,8.29,0,0,1,42.78,31.23ZM51,30.06a3.58,3.58,0,0,0-.72-2.38,2.49,2.49,0,0,0-2.05-.93,2.82,2.82,0,0,0-1.3.29,3.06,3.06,0,0,0-1,.75,3.42,3.42,0,0,0-.61,1.06A5.2,5.2,0,0,0,45,30.06Z" transform="translate(-1.33 -19.36)"/><path class="cls-1" d="M60.67,25q.28,0,.63,0l.7.09.63.11.42.1-.37,1.86a7.24,7.24,0,0,0-.84-.22,7.39,7.39,0,0,0-1.5-.13,5.63,5.63,0,0,0-1.18.13l-.77.17v10H56.27V25.74a14.5,14.5,0,0,1,1.88-.52A12.08,12.08,0,0,1,60.67,25Z" transform="translate(-1.33 -19.36)"/><path class="cls-1" d="M74.92,25.24a60.12,60.12,0,0,1-2.1,6.43q-1.2,3.08-2.33,5.51H68.57q-1.12-2.43-2.33-5.51a60.12,60.12,0,0,1-2.1-6.43h2.29q.28,1.13.65,2.4t.8,2.52q.42,1.25.86,2.42t.83,2.09q.39-.92.83-2.09t.86-2.42q.42-1.25.8-2.52t.65-2.4Z" transform="translate(-1.33 -19.36)"/><path class="cls-1" d="M81,24.94a6.19,6.19,0,0,1,2.17.33,3.52,3.52,0,0,1,1.42.94,3.57,3.57,0,0,1,.77,1.45,7,7,0,0,1,.23,1.85V37l-.77.13-1.11.15-1.34.13q-.72.06-1.43.06a7.85,7.85,0,0,1-1.86-.21,4.15,4.15,0,0,1-1.47-.65,3,3,0,0,1-1-1.18,4.14,4.14,0,0,1-.34-1.77,3.41,3.41,0,0,1,.4-1.7,3.2,3.2,0,0,1,1.09-1.15,5,5,0,0,1,1.61-.64,8.75,8.75,0,0,1,1.93-.21q.32,0,.67,0l.65.09.54.1.32.07v-.6a4.79,4.79,0,0,0-.11-1,2.4,2.4,0,0,0-.41-.92,2.1,2.1,0,0,0-.81-.64,3.19,3.19,0,0,0-1.34-.24,10.11,10.11,0,0,0-1.85.15,6.51,6.51,0,0,0-1.18.31l-.25-1.77a6.6,6.6,0,0,1,1.38-.36A11.89,11.89,0,0,1,81,24.94Zm.18,10.69q.76,0,1.34,0a5.82,5.82,0,0,0,1-.13V31.92a2.75,2.75,0,0,0-.75-.19,8.34,8.34,0,0,0-1.25-.08,8.07,8.07,0,0,0-1,.07,3.15,3.15,0,0,0-1,.29,2.11,2.11,0,0,0-.75.6,1.56,1.56,0,0,0-.3,1,1.71,1.71,0,0,0,.73,1.6A3.82,3.82,0,0,0,81.17,35.63Z" transform="translate(-1.33 -19.36)"/><path class="cls-1" d="M91.1,25.24h4.52V27H91.1v5.51A6.62,6.62,0,0,0,91.24,34a2.22,2.22,0,0,0,.41.92,1.49,1.49,0,0,0,.69.47,3,3,0,0,0,1,.14,4.53,4.53,0,0,0,1.55-.22l.81-.31.41,1.77a7.83,7.83,0,0,1-1.12.4,6.39,6.39,0,0,1-1.84.24,5.57,5.57,0,0,1-2-.31,2.92,2.92,0,0,1-1.27-.93,3.72,3.72,0,0,1-.68-1.53,10.07,10.07,0,0,1-.19-2.1V21.91l2.13-.37Z" transform="translate(-1.33 -19.36)"/><path class="cls-1" d="M108.54,31.21a7.54,7.54,0,0,1-.41,2.57,5.89,5.89,0,0,1-1.16,2A5.1,5.1,0,0,1,105.19,37a5.88,5.88,0,0,1-4.5,0,5.1,5.1,0,0,1-1.78-1.27,5.88,5.88,0,0,1-1.16-2,8.17,8.17,0,0,1,0-5.13,5.86,5.86,0,0,1,1.16-2,5.1,5.1,0,0,1,1.78-1.27,5.87,5.87,0,0,1,4.5,0A5.1,5.1,0,0,1,107,26.66a5.87,5.87,0,0,1,1.16,2A7.58,7.58,0,0,1,108.54,31.21Zm-2.23,0a5.14,5.14,0,0,0-.91-3.2,3.17,3.17,0,0,0-4.93,0,5.13,5.13,0,0,0-.91,3.2,5.13,5.13,0,0,0,.91,3.2,3.17,3.17,0,0,0,4.93,0A5.14,5.14,0,0,0,106.32,31.21Zm-.6-10.49-3.24,3.14-1.08-1,2.94-3.53Z" transform="translate(-1.33 -19.36)"/><path class="cls-1" d="M116,25q.28,0,.63,0l.7.09.63.11.42.1L118,27.19a7.24,7.24,0,0,0-.84-.22,7.39,7.39,0,0,0-1.5-.13,5.63,5.63,0,0,0-1.18.13l-.77.17v10h-2.13V25.74a14.5,14.5,0,0,1,1.88-.52A12.08,12.08,0,0,1,116,25Z" transform="translate(-1.33 -19.36)"/><path class="cls-1" d="M121.46,23.08a1.37,1.37,0,0,1-1-.38,1.5,1.5,0,0,1,0-2,1.45,1.45,0,0,1,2,0,1.5,1.5,0,0,1,0,2A1.37,1.37,0,0,1,121.46,23.08Zm1.08,14.09h-2.13V25.24h2.13Z" transform="translate(-1.33 -19.36)"/><path class="cls-1" d="M136.75,31.21a7.54,7.54,0,0,1-.41,2.57,5.89,5.89,0,0,1-1.16,2A5.1,5.1,0,0,1,133.4,37a5.88,5.88,0,0,1-4.5,0,5.1,5.1,0,0,1-1.78-1.27,5.88,5.88,0,0,1-1.16-2,8.17,8.17,0,0,1,0-5.13,5.86,5.86,0,0,1,1.16-2,5.1,5.1,0,0,1,1.78-1.27,5.87,5.87,0,0,1,4.5,0,5.1,5.1,0,0,1,1.78,1.27,5.87,5.87,0,0,1,1.16,2A7.58,7.58,0,0,1,136.75,31.21Zm-2.23,0a5.14,5.14,0,0,0-.91-3.2,3.17,3.17,0,0,0-4.93,0,5.13,5.13,0,0,0-.91,3.2,5.13,5.13,0,0,0,.91,3.2,3.17,3.17,0,0,0,4.93,0A5.14,5.14,0,0,0,134.52,31.21Z" transform="translate(-1.33 -19.36)"/><path class="cls-1" d="M152.76,19.73l2.13-.37V36.83q-.73.21-1.88.41a15,15,0,0,1-2.64.21A6.69,6.69,0,0,1,147.9,37,5.31,5.31,0,0,1,146,35.77a5.47,5.47,0,0,1-1.21-2,7.53,7.53,0,0,1-.42-2.6,8.49,8.49,0,0,1,.36-2.52,5.66,5.66,0,0,1,1-2,4.75,4.75,0,0,1,1.69-1.29,5.41,5.41,0,0,1,2.28-.46,5.55,5.55,0,0,1,1.82.28,5.78,5.78,0,0,1,1.18.53Zm0,8a4.38,4.38,0,0,0-1.12-.62,4.23,4.23,0,0,0-1.61-.3,3.44,3.44,0,0,0-1.57.33,2.89,2.89,0,0,0-1.07.92,3.87,3.87,0,0,0-.6,1.39,7.7,7.7,0,0,0-.18,1.72,4.63,4.63,0,0,0,1,3.22,3.54,3.54,0,0,0,2.75,1.14,11,11,0,0,0,1.46-.08,6.87,6.87,0,0,0,.91-.17Z" transform="translate(-1.33 -19.36)"/><path class="cls-1" d="M162.42,24.94a6.19,6.19,0,0,1,2.17.33,3.52,3.52,0,0,1,1.42.94,3.57,3.57,0,0,1,.77,1.45,7,7,0,0,1,.23,1.85V37l-.77.13-1.11.15-1.34.13q-.72.06-1.43.06a7.85,7.85,0,0,1-1.86-.21,4.15,4.15,0,0,1-1.47-.65,3,3,0,0,1-1-1.18,4.14,4.14,0,0,1-.34-1.77,3.41,3.41,0,0,1,.4-1.7,3.2,3.2,0,0,1,1.09-1.15,5,5,0,0,1,1.61-.64,8.75,8.75,0,0,1,1.93-.21q.32,0,.67,0l.65.09.54.1.32.07v-.6a4.79,4.79,0,0,0-.11-1,2.4,2.4,0,0,0-.41-.92,2.1,2.1,0,0,0-.81-.64,3.19,3.19,0,0,0-1.34-.24,10.11,10.11,0,0,0-1.85.15,6.51,6.51,0,0,0-1.18.31L159,25.47a6.6,6.6,0,0,1,1.38-.36A11.89,11.89,0,0,1,162.42,24.94Zm.18,10.69q.76,0,1.34,0a5.82,5.82,0,0,0,1-.13V31.92a2.75,2.75,0,0,0-.75-.19,8.34,8.34,0,0,0-1.25-.08,8.07,8.07,0,0,0-1,.07,3.15,3.15,0,0,0-1,.29,2.11,2.11,0,0,0-.75.6,1.56,1.56,0,0,0-.3,1,1.71,1.71,0,0,0,.73,1.6A3.82,3.82,0,0,0,162.61,35.63Z" transform="translate(-1.33 -19.36)"/></g></svg>