<?xml version="1.0" encoding="utf-8"?>
<!-- Generator: Adobe Illustrator 25.2.3, SVG Export Plug-In . SVG Version: 6.00 Build 0)  -->
<svg version="1.1" id="Camada_1" xmlns="http://www.w3.org/2000/svg" xmlns:xlink="http://www.w3.org/1999/xlink" x="0px" y="0px"
	 viewBox="0 0 112.4 39.2" style="enable-background:new 0 0 112.4 39.2;" xml:space="preserve">
<style type="text/css">
	.st0{fill-rule:evenodd;clip-rule:evenodd;fill:#FFFFFF;}
	.st1{fill:#FFFFFF;}
</style>
<g>
	<path class="st0" d="M18.1,35.5c0.3-0.3,0.5-0.6,0.6-1l0,0c0,0,0,0-0.1,0c0,0,0,0-0.1,0l0,0c0,0,0,0-0.1,0l0,0c0,0-0.1,0-0.1,0h0
		c0,0-0.1,0-0.1,0l0,0h0l0,0c0,0-0.1,0-0.1,0l0,0c0,0-0.1,0-0.1,0s-0.1,0-0.1,0h0c0,0-0.1,0-0.1,0l0,0l0,0h0c0,0-0.1,0-0.1,0h0
		c0,0-0.1,0-0.1,0l0,0c0,0,0,0-0.1,0l0,0c0,0,0,0-0.1,0c0,0,0,0-0.1,0l0,0C17.6,34.9,17.8,35.2,18.1,35.5L18.1,35.5z M19.1,4.2
		L19.1,4.2v21.2c-0.3-0.1-0.7-0.1-1-0.1c-0.3,0-0.7,0-1,0.1V4.2v0c0-1,0.4-2,1-2.7C18.7,2.3,19.1,3.2,19.1,4.2L19.1,4.2z M21.7,28.2
		c-0.6-1.3-2-2.3-3.6-2.3s-3,0.9-3.6,2.3c0.2,0,0.4-0.1,0.6-0.1c1.2,0,2.2,0.5,3,1.3c0.7-0.8,1.8-1.3,3-1.3
		C21.3,28.2,21.5,28.2,21.7,28.2L21.7,28.2z M18.1,34c0.2,0,0.4,0,0.6-0.1c0.3-0.5,0.4-1.1,0.4-1.7c0-1-0.4-2-1-2.7
		c-0.6,0.7-1,1.7-1,2.7c0,0.6,0.1,1.2,0.4,1.7C17.7,34,17.9,34,18.1,34L18.1,34z"/>
	<path class="st0" d="M10,24.6c1.8-2,3.3-4.3,4.5-6.7l-0.1,0c-0.1,0-0.2,0-0.4,0.1c-0.1,0-0.3,0-0.4,0.1l-0.3,0
		c-0.2,0-0.3,0-0.5,0.1l-0.2,0c-0.2,0-0.4,0-0.6,0l-0.1,0c-0.2,0-0.4,0-0.7,0h0h0h0c-0.2,0-0.5,0-0.7,0l0,0c-0.2,0-0.5,0-0.7,0
		c-0.2,0-0.5,0-0.7,0h0c-0.2,0-0.5,0-0.7,0h0l0,0h0c-0.2,0-0.4,0-0.7,0l-0.1,0c-0.2,0-0.4,0-0.6-0.1l-0.2,0c-0.1,0-0.3,0-0.4-0.1
		l-0.3,0C6.2,18,6,18,5.9,18c-0.1,0-0.3,0-0.4-0.1l-0.1,0C6.7,20.3,8.2,22.6,10,24.6L10,24.6z"/>
	<path class="st0" d="M26.2,24.6c1.8-2,3.3-4.3,4.5-6.7l-0.1,0c-0.1,0-0.2,0-0.4,0.1c-0.1,0-0.3,0-0.4,0.1l-0.3,0
		c-0.2,0-0.3,0-0.5,0.1l-0.2,0c-0.2,0-0.4,0-0.6,0l-0.1,0c-0.2,0-0.4,0-0.7,0h0h0h0c-0.2,0-0.5,0-0.7,0h0c-0.2,0-0.5,0-0.7,0
		c-0.2,0-0.5,0-0.7,0h0c-0.2,0-0.5,0-0.7,0h0l0,0h0c-0.2,0-0.4,0-0.7,0l-0.1,0c-0.2,0-0.4,0-0.6-0.1l-0.2,0c-0.1,0-0.3,0-0.4-0.1
		l-0.3,0c-0.1,0-0.2,0-0.4-0.1c-0.1,0-0.2,0-0.4-0.1l-0.1,0C22.9,20.3,24.4,22.6,26.2,24.6L26.2,24.6z"/>
	<path class="st0" d="M30.9,0.3C42.2,3.5,50,10.5,50,18.7c0,11.2-14.6,20.2-32.7,20.2C10.9,38.9,5,37.8,0,35.8
		c4.2,1.2,8.8,1.8,13.6,1.8c18.1,0,32.7-9.1,32.7-20.2C46.3,10.2,40.2,3.9,30.9,0.3L30.9,0.3z"/>
	<polygon class="st1" points="60.6,11.6 65.2,26 70,11.6 75.7,11.6 75.7,30 72,30 72,16.2 67.2,30 63.1,30 58.6,16.2 58.6,30 
		54.9,30 54.9,11.6 	"/>
	<path class="st1" d="M83.3,23.6V30h-3.9V11.6h9.2c1.7,0,2.9,0.1,3.6,0.3c1.2,0.4,2.2,1.2,2.9,2.5c0.5,0.9,0.8,2,0.8,3.1
		c0,1.1-0.3,2.2-0.8,3.2c-0.6,1.1-1.4,1.9-2.5,2.4c-0.7,0.3-1.6,0.4-2.9,0.4H83.3L83.3,23.6z M83.3,20.3h5.3c1,0,1.6-0.2,2-0.5
		c0.6-0.5,0.9-1.2,0.9-2.4c0-1.2-0.4-2-1.3-2.4c-0.3-0.1-0.8-0.2-1.5-0.2h-5.4L83.3,20.3L83.3,20.3z"/>
	<polygon class="st1" points="102.4,14.9 96.6,14.9 96.6,11.6 112.4,11.6 112.4,14.9 106.3,14.9 106.3,30 102.4,30 	"/>
</g>
</svg>
