<?xml version="1.0" encoding="utf-8"?>
<!-- Generator: Adobe Illustrator 14.0.0, SVG Export Plug-In . SVG Version: 6.00 Build 43363)  -->
<!DOCTYPE svg PUBLIC "-//W3C//DTD SVG 1.1//EN" "http://www.w3.org/Graphics/SVG/1.1/DTD/svg11.dtd">
<svg version="1.1" id="Camada_1" xmlns="http://www.w3.org/2000/svg" xmlns:xlink="http://www.w3.org/1999/xlink" x="0px" y="0px"
	 width="112.41px" height="49.414px" viewBox="0 0 112.41 49.414" enable-background="new 0 0 112.41 49.414" xml:space="preserve">
<g>
	<path fill-rule="evenodd" clip-rule="evenodd" fill="#FFFFFF" d="M18.099,35.816c0.261-0.285,0.479-0.61,0.648-0.963l-0.011,0.002
		c-0.018,0.002-0.033,0.006-0.052,0.009s-0.038,0.005-0.057,0.007l-0.041,0.008c-0.021,0.001-0.043,0.003-0.065,0.007l-0.026,0.002
		c-0.026,0.002-0.054,0.004-0.081,0.007h-0.015c-0.031,0.005-0.063,0.007-0.095,0.007l0,0h-0.001l0,0
		c-0.035,0.002-0.068,0.004-0.101,0.004l0,0c-0.035,0-0.07,0-0.104,0s-0.068,0-0.103,0h-0.001c-0.034,0-0.067-0.002-0.102-0.004l0,0
		l0,0h-0.001c-0.032,0-0.063-0.002-0.095-0.007h-0.016c-0.027-0.003-0.054-0.005-0.081-0.007l-0.025-0.002
		c-0.021-0.003-0.042-0.006-0.063-0.007l-0.047-0.008c-0.017-0.002-0.034-0.004-0.053-0.007s-0.035-0.007-0.053-0.009l-0.011-0.002
		C17.619,35.206,17.838,35.531,18.099,35.816L18.099,35.816z M19.08,4.521L19.08,4.521v21.223c-0.322-0.086-0.663-0.13-1.012-0.13
		c-0.344,0-0.675,0.043-0.991,0.124V4.522V4.521c0-1.035,0.378-1.978,1.001-2.689C18.699,2.543,19.08,3.486,19.08,4.521L19.08,4.521
		z M21.719,28.516c-0.645-1.344-2.019-2.272-3.607-2.272s-2.963,0.928-3.607,2.272c0.21-0.034,0.427-0.052,0.648-0.052
		c1.172,0,2.228,0.503,2.959,1.309c0.73-0.806,1.786-1.309,2.958-1.309C21.291,28.464,21.508,28.481,21.719,28.516L21.719,28.516z
		 M18.104,34.281c0.221,0,0.438-0.019,0.648-0.054c0.251-0.521,0.391-1.108,0.391-1.726c0-1.035-0.394-1.98-1.039-2.689
		c-0.646,0.708-1.04,1.654-1.04,2.689c0,0.617,0.142,1.204,0.392,1.726C17.666,34.263,17.883,34.281,18.104,34.281L18.104,34.281z"
		/>
	<path fill-rule="evenodd" clip-rule="evenodd" fill="#FFFFFF" d="M9.996,24.886c1.814-1.995,3.343-4.254,4.522-6.713l-0.069,0.011
		c-0.12,0.021-0.24,0.039-0.362,0.057c-0.133,0.02-0.267,0.039-0.402,0.057l-0.28,0.035c-0.151,0.02-0.305,0.036-0.457,0.052
		l-0.183,0.019c-0.188,0.018-0.374,0.035-0.563,0.05l-0.107,0.009c-0.221,0.016-0.438,0.029-0.659,0.04h-0.003h-0.001h-0.003
		c-0.237,0.013-0.474,0.022-0.713,0.029l0,0c-0.239,0.005-0.479,0.009-0.719,0.009c-0.241,0-0.48-0.003-0.719-0.009H9.277
		c-0.238-0.006-0.476-0.016-0.713-0.029H8.563l0,0H8.56c-0.222-0.01-0.441-0.024-0.66-0.04l-0.107-0.009
		c-0.189-0.015-0.378-0.032-0.566-0.051l-0.175-0.017c-0.147-0.016-0.294-0.033-0.442-0.051L6.29,18.293
		c-0.124-0.016-0.247-0.033-0.371-0.051c-0.126-0.019-0.251-0.038-0.376-0.059l-0.068-0.011C6.653,20.632,8.183,22.891,9.996,24.886
		L9.996,24.886z"/>
	<path fill-rule="evenodd" clip-rule="evenodd" fill="#FFFFFF" d="M26.226,24.886c1.814-1.995,3.343-4.254,4.521-6.713l-0.069,0.011
		c-0.12,0.021-0.24,0.039-0.362,0.057c-0.133,0.02-0.267,0.039-0.401,0.057l-0.28,0.035c-0.152,0.02-0.305,0.036-0.457,0.052
		l-0.184,0.019c-0.187,0.018-0.373,0.035-0.561,0.05l-0.11,0.009c-0.219,0.016-0.438,0.029-0.658,0.04h-0.003H27.66h-0.002
		c-0.238,0.013-0.475,0.022-0.713,0.029h-0.001c-0.239,0.005-0.479,0.009-0.719,0.009s-0.479-0.003-0.718-0.009h-0.002
		c-0.237-0.006-0.476-0.016-0.713-0.029h-0.002l0,0h-0.003c-0.22-0.01-0.441-0.024-0.66-0.04l-0.107-0.009
		c-0.188-0.015-0.378-0.032-0.566-0.051l-0.175-0.017c-0.147-0.016-0.294-0.033-0.44-0.051l-0.319-0.041
		c-0.125-0.016-0.248-0.033-0.372-0.051c-0.125-0.019-0.25-0.038-0.374-0.059l-0.07-0.011
		C22.884,20.632,24.411,22.891,26.226,24.886L26.226,24.886z"/>
	<path fill-rule="evenodd" clip-rule="evenodd" fill="#FFFFFF" d="M30.922,0.573c11.257,3.197,19.077,10.229,19.077,18.386
		c0,11.167-14.646,20.224-32.71,20.224c-6.347,0-12.272-1.119-17.289-3.058c4.15,1.18,8.768,1.84,13.632,1.84
		c18.063,0,32.71-9.058,32.71-20.225C46.342,10.499,40.18,4.146,30.922,0.573L30.922,0.573z"/>
	<polygon fill="#FFFFFF" points="60.591,11.923 65.162,26.247 69.979,11.923 75.681,11.923 75.681,30.283 71.952,30.283 
		71.952,16.497 67.155,30.283 63.136,30.283 58.603,16.497 58.603,30.283 54.875,30.283 54.875,11.923 60.591,11.923 	"/>
	<path fill="#FFFFFF" d="M83.348,23.869v6.414h-3.902V11.923h9.163c1.667,0,2.864,0.115,3.59,0.349
		c1.202,0.404,2.153,1.245,2.852,2.516c0.52,0.941,0.779,1.978,0.779,3.108c0,1.138-0.253,2.195-0.752,3.164
		c-0.565,1.111-1.405,1.905-2.518,2.377c-0.655,0.289-1.631,0.432-2.934,0.432H83.348L83.348,23.869z M83.348,20.602h5.323
		c0.951,0,1.622-0.153,2.007-0.46c0.573-0.454,0.858-1.249,0.858-2.378c0-1.239-0.437-2.034-1.305-2.383
		c-0.312-0.124-0.806-0.188-1.477-0.188h-5.407V20.602L83.348,20.602z"/>
	<polygon fill="#FFFFFF" points="102.43,15.192 96.577,15.192 96.577,11.923 112.41,11.923 112.41,15.192 106.332,15.192 
		106.332,30.283 102.43,30.283 102.43,15.192 	"/>
	<polygon fill="#FFFFFF" points="2.143,44.134 3.443,48.208 4.813,44.134 6.436,44.134 6.436,49.358 5.375,49.358 5.375,45.436 
		4.01,49.358 2.865,49.358 1.577,45.436 1.577,49.358 0.518,49.358 0.518,44.134 2.143,44.134 	"/>
	<path fill="#FFFFFF" d="M7.486,45.542h1.05v3.816h-1.05V45.542L7.486,45.542z M7.486,45.152v-1.019h1.05v1.019H7.486L7.486,45.152z
		"/>
	<path fill="#FFFFFF" d="M9.572,45.542h2.023c0.313,0,0.563,0.029,0.749,0.088c0.521,0.188,0.778,0.648,0.777,1.376v2.353h-1.049
		v-2.47c0-0.215-0.065-0.369-0.195-0.461c-0.062-0.044-0.176-0.068-0.344-0.07h-0.913v3.001H9.572V45.542L9.572,45.542z"/>
	<path fill="#FFFFFF" d="M14.105,45.542h1.049v3.816h-1.049V45.542L14.105,45.542z M14.105,45.152v-1.019h1.049v1.019H14.105
		L14.105,45.152z"/>
	<path fill="#FFFFFF" d="M19.499,45.542v0.815h-1.857c-0.214,0-0.348,0.012-0.407,0.032c-0.12,0.04-0.18,0.142-0.18,0.304
		c0,0.136,0.058,0.238,0.172,0.31c0.062,0.042,0.232,0.062,0.51,0.062h0.619c0.396,0,0.708,0.086,0.938,0.258
		c0.256,0.187,0.384,0.465,0.384,0.829c0,0.275-0.078,0.529-0.231,0.761c-0.167,0.254-0.406,0.394-0.714,0.422
		c-0.158,0.016-0.337,0.024-0.532,0.024h-2.17v-0.816h1.867c0.232,0,0.391-0.004,0.476-0.012c0.187-0.02,0.279-0.124,0.279-0.313
		c0-0.158-0.062-0.267-0.185-0.326c-0.066-0.033-0.219-0.048-0.459-0.048h-0.635c-0.264,0-0.455-0.017-0.579-0.046
		c-0.271-0.072-0.479-0.22-0.623-0.438c-0.132-0.208-0.199-0.443-0.199-0.705c0-0.384,0.14-0.688,0.417-0.911
		c0.166-0.133,0.456-0.2,0.869-0.2H19.499L19.499,45.542z"/>
	<path fill="#FFFFFF" d="M20.72,45.542v-1.408h1.049v1.408h0.971v0.815h-0.971v1.385c0,0.323,0.028,0.526,0.087,0.61
		c0.091,0.126,0.247,0.189,0.471,0.189h0.413v0.816h-0.761c-0.424,0-0.732-0.098-0.925-0.29c-0.153-0.15-0.254-0.358-0.303-0.618
		c-0.021-0.098-0.031-0.271-0.031-0.525v-1.567h-0.665v-0.815H20.72L20.72,45.542z"/>
	<path fill="#FFFFFF" d="M26.494,47.039v0.813h-2.21c0.017,0.254,0.111,0.439,0.285,0.559c0.123,0.083,0.336,0.129,0.644,0.131
		h1.281v0.816h-1.396c-0.339,0-0.609-0.034-0.811-0.101c-0.365-0.124-0.649-0.348-0.858-0.673c-0.203-0.318-0.305-0.712-0.305-1.184
		c0-0.466,0.123-0.866,0.367-1.209c0.199-0.273,0.45-0.456,0.753-0.549c0.212-0.067,0.472-0.102,0.777-0.102h1.473v0.815h-1.396
		c-0.355,0.006-0.582,0.084-0.681,0.232c-0.072,0.102-0.116,0.251-0.133,0.449H26.494L26.494,47.039z M26.326,44.068l-0.972,1.023
		H24.68l0.72-1.023H26.326L26.326,44.068z"/>
	<path fill="#FFFFFF" d="M27.359,45.542h1.553c0.313,0,0.57,0.024,0.769,0.074c0.335,0.09,0.547,0.285,0.64,0.585
		c0.05,0.162,0.077,0.391,0.077,0.691v0.371h-1.007v-0.206c-0.007-0.276-0.053-0.458-0.143-0.547
		c-0.091-0.102-0.271-0.153-0.537-0.153h-0.303v3.001h-1.049V45.542L27.359,45.542z"/>
	<path fill="#FFFFFF" d="M30.972,45.542h1.048v3.816h-1.048V45.542L30.972,45.542z M30.972,45.152v-1.019h1.048v1.019H30.972
		L30.972,45.152z"/>
	<path fill="#FFFFFF" d="M34.84,45.485c0.686,0,1.196,0.203,1.532,0.612c0.31,0.372,0.464,0.836,0.464,1.396
		c0,0.6-0.193,1.077-0.581,1.431c-0.355,0.328-0.84,0.49-1.454,0.49c-0.641,0-1.142-0.183-1.505-0.548
		c-0.331-0.333-0.496-0.81-0.496-1.429c0-0.542,0.158-0.992,0.478-1.347C33.639,45.686,34.157,45.485,34.84,45.485L34.84,45.485z
		 M34.809,46.287c-0.625,0-0.935,0.396-0.935,1.184c0,0.314,0.052,0.554,0.153,0.72c0.171,0.279,0.438,0.42,0.8,0.42
		c0.624,0,0.934-0.39,0.934-1.171C35.761,46.671,35.444,46.287,34.809,46.287L34.809,46.287z"/>
	<path fill="#FFFFFF" d="M40.703,47.532v1.826h-1.109v-5.225H42.2c0.474,0,0.814,0.034,1.021,0.099
		c0.342,0.116,0.611,0.355,0.812,0.718c0.146,0.268,0.223,0.562,0.223,0.883c0,0.323-0.072,0.626-0.216,0.899
		c-0.159,0.316-0.399,0.542-0.715,0.678c-0.187,0.081-0.465,0.122-0.835,0.122H40.703L40.703,47.532z M40.703,46.604h1.515
		c0.271,0,0.461-0.043,0.571-0.131c0.163-0.129,0.244-0.354,0.244-0.679c0-0.35-0.124-0.576-0.371-0.678
		c-0.089-0.034-0.23-0.054-0.42-0.054h-1.539V46.604L40.703,46.604z"/>
	<path fill="#FFFFFF" d="M47.442,48.542v-3h1.048v3.816h-2.065c-0.313,0-0.564-0.03-0.749-0.091
		c-0.521-0.186-0.779-0.646-0.777-1.381v-2.345h1.048v2.453c0,0.17,0.046,0.304,0.135,0.403c0.09,0.094,0.213,0.144,0.372,0.144
		H47.442L47.442,48.542z M47.853,44.068l-0.972,1.023h-0.674l0.719-1.023H47.853L47.853,44.068z"/>
	<path fill="#FFFFFF" d="M50.57,45.542h0.929c0.342,0,0.633,0.048,0.872,0.138c0.236,0.088,0.442,0.23,0.613,0.424
		c0.287,0.328,0.432,0.76,0.432,1.296c0,0.77-0.281,1.331-0.842,1.677c-0.183,0.114-0.388,0.191-0.608,0.234
		c-0.156,0.031-0.402,0.048-0.738,0.048h-1.707v-5.225h1.05V45.542L50.57,45.542z M50.57,46.357v2.185h0.776
		c0.331,0,0.578-0.102,0.742-0.305c0.171-0.217,0.257-0.486,0.257-0.809c0-0.714-0.334-1.071-0.999-1.071H50.57L50.57,46.357z"/>
	<polygon fill="#FFFFFF" points="55.244,49.358 54.195,49.358 54.195,44.134 55.244,44.134 55.244,49.358 	"/>
	<path fill="#FFFFFF" d="M56.281,45.542h1.048v3.816h-1.048V45.542L56.281,45.542z M56.281,45.152v-1.019h1.048v1.019H56.281
		L56.281,45.152z"/>
	<path fill="#FFFFFF" d="M61.549,45.542v0.815H60.29c-0.417,0-0.711,0.092-0.876,0.284c-0.155,0.176-0.233,0.447-0.233,0.81
		c0,0.411,0.127,0.709,0.382,0.893c0.106,0.076,0.223,0.129,0.349,0.16c0.108,0.024,0.277,0.038,0.505,0.038h1.133v0.816h-1.438
		c-0.508,0-0.892-0.08-1.154-0.232c-0.255-0.147-0.461-0.371-0.619-0.672c-0.151-0.291-0.229-0.628-0.229-1.015
		c0-0.678,0.197-1.186,0.589-1.523c0.2-0.169,0.461-0.282,0.784-0.332c0.184-0.026,0.394-0.042,0.63-0.042H61.549L61.549,45.542z"/>
	<path fill="#FFFFFF" d="M64.143,45.485c0.686,0,1.198,0.203,1.535,0.612c0.307,0.372,0.46,0.836,0.46,1.396
		c0,0.6-0.191,1.077-0.577,1.431c-0.358,0.328-0.842,0.49-1.456,0.49c-0.642,0-1.143-0.183-1.503-0.548
		c-0.332-0.333-0.499-0.81-0.499-1.429c0-0.542,0.161-0.992,0.479-1.347C62.941,45.686,63.461,45.485,64.143,45.485L64.143,45.485z
		 M64.111,46.287c-0.622,0-0.934,0.396-0.934,1.184c0,0.314,0.05,0.554,0.151,0.72c0.172,0.279,0.438,0.42,0.803,0.42
		c0.621,0,0.933-0.39,0.933-1.171C65.064,46.671,64.749,46.287,64.111,46.287L64.111,46.287z"/>
	<path fill="#FFFFFF" d="M71.43,45.542v-1.408h1.047v5.225h-1.806c-0.365,0-0.642-0.03-0.825-0.086
		c-0.447-0.143-0.781-0.418-1.003-0.83c-0.146-0.282-0.222-0.621-0.222-1.019c0-0.655,0.22-1.164,0.657-1.525
		c0.288-0.237,0.674-0.356,1.165-0.356H71.43L71.43,45.542z M71.43,48.542v-2.185h-0.759c-0.331,0-0.587,0.11-0.759,0.334
		c-0.147,0.188-0.224,0.434-0.224,0.732c0,0.432,0.124,0.741,0.372,0.927c0.17,0.128,0.373,0.191,0.61,0.191H71.43L71.43,48.542z"/>
	<path fill="#FFFFFF" d="M75.299,45.485c0.685,0,1.197,0.203,1.531,0.612c0.311,0.372,0.466,0.836,0.466,1.396
		c0,0.6-0.193,1.077-0.583,1.431c-0.354,0.328-0.838,0.49-1.455,0.49c-0.637,0-1.139-0.183-1.502-0.548
		c-0.333-0.333-0.495-0.81-0.495-1.429c0-0.542,0.157-0.992,0.477-1.347C74.099,45.686,74.616,45.485,75.299,45.485L75.299,45.485z
		 M75.268,46.287c-0.624,0-0.934,0.396-0.934,1.184c0,0.314,0.052,0.554,0.153,0.72c0.17,0.279,0.437,0.42,0.8,0.42
		c0.622,0,0.934-0.39,0.934-1.171C76.221,46.671,75.902,46.287,75.268,46.287L75.268,46.287z"/>
	<polygon fill="#FFFFFF" points="81.221,45.063 79.556,45.063 79.556,44.134 84.059,44.134 84.059,45.063 82.33,45.063 
		82.33,49.358 81.221,49.358 81.221,45.063 	"/>
	<path fill="#FFFFFF" d="M83.978,45.542h1.555c0.312,0,0.569,0.024,0.769,0.074c0.334,0.09,0.547,0.285,0.637,0.585
		c0.054,0.162,0.079,0.391,0.079,0.691v0.371H86.01v-0.206c-0.006-0.276-0.053-0.458-0.144-0.547
		c-0.09-0.102-0.271-0.153-0.538-0.153h-0.3v3.001h-1.051V45.542L83.978,45.542z"/>
	<path fill="#FFFFFF" d="M90.18,47.039c0.002-0.21-0.026-0.361-0.088-0.451c-0.088-0.122-0.219-0.194-0.393-0.21
		c-0.111-0.015-0.217-0.021-0.319-0.021h-1.775v-0.815h1.775c0.374,0,0.636,0.014,0.789,0.036c0.444,0.067,0.76,0.32,0.938,0.757
		c0.081,0.219,0.121,0.508,0.121,0.872v2.151h-2.212c-0.359,0-0.61-0.012-0.75-0.03c-0.33-0.04-0.581-0.185-0.746-0.434
		c-0.126-0.192-0.191-0.414-0.191-0.666c0-0.326,0.094-0.602,0.284-0.827c0.156-0.188,0.397-0.301,0.714-0.337
		c0.159-0.018,0.349-0.025,0.567-0.025H90.18L90.18,47.039z M90.18,47.853h-1.213c-0.021,0-0.05,0-0.088,0
		c-0.036-0.002-0.066-0.004-0.089-0.004c-0.112,0-0.203,0.029-0.271,0.086c-0.079,0.061-0.119,0.153-0.119,0.271
		c0,0.138,0.059,0.232,0.174,0.282c0.078,0.036,0.21,0.054,0.393,0.054h1.213V47.853L90.18,47.853z"/>
	<path fill="#FFFFFF" d="M93.256,45.542h0.932c0.34,0,0.632,0.048,0.871,0.138c0.234,0.088,0.44,0.23,0.612,0.424
		c0.287,0.328,0.432,0.76,0.432,1.296c0,0.77-0.28,1.331-0.843,1.677c-0.181,0.114-0.387,0.191-0.608,0.234
		c-0.155,0.031-0.399,0.048-0.735,0.048h-1.707v-5.225h1.047V45.542L93.256,45.542z M93.256,46.357v2.185h0.777
		c0.332,0,0.58-0.102,0.743-0.305c0.171-0.217,0.255-0.486,0.255-0.809c0-0.714-0.332-1.071-0.998-1.071H93.256L93.256,46.357z"/>
	<path fill="#FFFFFF" d="M99.517,47.039c0.005-0.21-0.027-0.361-0.086-0.451c-0.09-0.122-0.222-0.194-0.396-0.21
		c-0.108-0.015-0.214-0.021-0.315-0.021h-1.776v-0.815h1.776c0.37,0,0.633,0.014,0.785,0.036c0.448,0.067,0.76,0.32,0.939,0.757
		c0.08,0.219,0.121,0.508,0.121,0.872v2.151h-2.212c-0.357,0-0.61-0.012-0.748-0.03c-0.332-0.04-0.583-0.185-0.745-0.434
		c-0.13-0.192-0.192-0.414-0.192-0.666c0-0.326,0.095-0.602,0.282-0.827c0.158-0.188,0.397-0.301,0.716-0.337
		c0.158-0.018,0.346-0.025,0.565-0.025H99.517L99.517,47.039z M99.517,47.853h-1.213c-0.021,0-0.048,0-0.086,0
		c-0.038-0.002-0.066-0.004-0.088-0.004c-0.112,0-0.204,0.029-0.274,0.086c-0.078,0.061-0.117,0.153-0.117,0.271
		c0,0.138,0.058,0.232,0.172,0.282c0.079,0.036,0.21,0.054,0.394,0.054h1.213V47.853L99.517,47.853z"/>
	<polygon fill="#FFFFFF" points="102.595,49.358 101.544,49.358 101.544,44.134 102.595,44.134 102.595,49.358 	"/>
	<path fill="#FFFFFF" d="M104.68,44.134v1.408h1.078c0.382,0.004,0.678,0.044,0.888,0.126c0.443,0.186,0.669,0.624,0.676,1.313
		v2.377h-1.048v-2.172c0-0.228-0.012-0.377-0.034-0.449c-0.04-0.154-0.126-0.258-0.26-0.314c-0.093-0.043-0.24-0.065-0.447-0.065
		h-0.853v3.001h-1.051v-5.225H104.68L104.68,44.134z"/>
	<path fill="#FFFFFF" d="M110.087,45.485c0.688,0,1.198,0.203,1.534,0.612c0.308,0.372,0.461,0.836,0.461,1.396
		c0,0.6-0.191,1.077-0.578,1.431c-0.357,0.328-0.841,0.49-1.455,0.49c-0.64,0-1.141-0.183-1.503-0.548
		c-0.332-0.333-0.499-0.81-0.499-1.429c0-0.542,0.16-0.992,0.479-1.347C108.886,45.686,109.407,45.485,110.087,45.485
		L110.087,45.485z M110.058,46.287c-0.624,0-0.936,0.396-0.936,1.184c0,0.314,0.05,0.554,0.151,0.72
		c0.175,0.279,0.438,0.42,0.802,0.42c0.624,0,0.934-0.39,0.934-1.171C111.009,46.671,110.693,46.287,110.058,46.287L110.058,46.287z
		"/>
</g>
</svg>
