<?xml version="1.0" encoding="utf-8"?>
<!-- Generator: Adobe Illustrator 14.0.0, SVG Export Plug-In . SVG Version: 6.00 Build 43363)  -->
<!DOCTYPE svg PUBLIC "-//W3C//DTD SVG 1.1//EN" "http://www.w3.org/Graphics/SVG/1.1/DTD/svg11.dtd">
<svg version="1.1" id="Camada_1" xmlns="http://www.w3.org/2000/svg" xmlns:xlink="http://www.w3.org/1999/xlink" x="0px" y="0px"
	 width="50px" height="50px" viewBox="0 0 50 50" enable-background="new 0 0 50 50" xml:space="preserve">
<g>
	<path fill="#FFFFFF" d="M18.305,40.457c0.252-0.278,0.466-0.591,0.628-0.933h-0.013c-0.017,0.004-0.03,0.009-0.047,0.009
		s-0.039,0.005-0.056,0.005l-0.04,0.008c-0.019,0.005-0.041,0.005-0.062,0.009H18.69c-0.025,0.004-0.051,0.004-0.079,0.008h-0.015
		c-0.03,0.006-0.059,0.012-0.089,0.012l0,0h-0.002l0,0c-0.036,0-0.066,0-0.098,0l0,0c-0.036,0-0.068,0-0.101,0
		c-0.034,0-0.066,0-0.103,0l0,0c-0.032,0-0.064,0-0.098,0l0,0l0,0l0,0c-0.032,0-0.06-0.006-0.094-0.012h-0.015
		c-0.025-0.004-0.053-0.004-0.079-0.008h-0.023c-0.022-0.004-0.041-0.004-0.062-0.009l-0.045-0.008
		c-0.017,0-0.036-0.005-0.049-0.005c-0.021,0-0.036-0.005-0.051-0.009h-0.013C17.839,39.866,18.053,40.179,18.305,40.457
		L18.305,40.457z M19.258,10.106L19.258,10.106v20.583c-0.312-0.085-0.643-0.13-0.983-0.13c-0.329,0-0.654,0.04-0.958,0.121V10.106
		l0,0c0-1.003,0.365-1.918,0.97-2.607C18.889,8.188,19.258,9.104,19.258,10.106L19.258,10.106z M21.816,33.374
		c-0.622-1.3-1.959-2.201-3.498-2.201c-1.539,0-2.875,0.901-3.497,2.201c0.201-0.03,0.412-0.047,0.624-0.047
		c1.141,0,2.163,0.491,2.873,1.27c0.705-0.778,1.733-1.27,2.87-1.27C21.4,33.327,21.611,33.344,21.816,33.374L21.816,33.374z
		 M18.31,38.965c0.216,0,0.427-0.017,0.628-0.051c0.243-0.503,0.38-1.077,0.38-1.672c0-1.005-0.38-1.919-1.009-2.607
		c-0.624,0.687-1.009,1.603-1.009,2.607c0,0.595,0.139,1.167,0.382,1.672C17.886,38.948,18.096,38.965,18.31,38.965L18.31,38.965z"
		/>
	<path fill="#FFFFFF" d="M10.449,29.856c1.761-1.937,3.242-4.125,4.385-6.51l-0.066,0.011c-0.118,0.021-0.229,0.037-0.351,0.054
		c-0.131,0.02-0.259,0.038-0.389,0.055l-0.271,0.033c-0.147,0.02-0.299,0.037-0.444,0.051l-0.178,0.018
		c-0.181,0.02-0.361,0.035-0.544,0.048l-0.105,0.009c-0.216,0.016-0.425,0.028-0.639,0.04h-0.002h-0.002H11.84
		c-0.229,0.011-0.459,0.021-0.69,0.025l0,0c-0.231,0.006-0.466,0.011-0.697,0.011c-0.232,0-0.466-0.005-0.697-0.011l0,0
		c-0.23-0.002-0.463-0.015-0.692-0.025l0,0l0,0H9.06c-0.216-0.012-0.428-0.024-0.639-0.04l-0.104-0.009
		c-0.184-0.016-0.366-0.03-0.55-0.048L7.596,23.55c-0.139-0.016-0.284-0.033-0.425-0.049L6.859,23.46
		c-0.12-0.015-0.239-0.031-0.359-0.051c-0.122-0.017-0.243-0.035-0.365-0.056l-0.066-0.012C7.207,25.731,8.69,27.92,10.449,29.856
		L10.449,29.856z"/>
	<path fill="#FFFFFF" d="M26.188,29.856c1.761-1.937,3.239-4.125,4.386-6.51l-0.065,0.011c-0.118,0.021-0.232,0.037-0.354,0.054
		c-0.128,0.02-0.256,0.038-0.389,0.055l-0.27,0.033c-0.146,0.02-0.297,0.037-0.444,0.051l-0.175,0.018
		c-0.184,0.02-0.364,0.035-0.548,0.048l-0.106,0.014c-0.212,0.015-0.423,0.027-0.637,0.039h-0.004l0,0h-0.004
		c-0.229,0.011-0.463,0.021-0.688,0.025h-0.002c-0.234,0.007-0.469,0.011-0.697,0.011c-0.233,0-0.466-0.004-0.694-0.011h-0.004
		c-0.229-0.002-0.462-0.015-0.689-0.025H24.8l0,0h-0.005c-0.216-0.012-0.427-0.024-0.639-0.039L24.05,23.62
		c-0.18-0.016-0.368-0.031-0.547-0.048l-0.169-0.019c-0.143-0.015-0.284-0.033-0.428-0.048l-0.31-0.04
		c-0.12-0.017-0.239-0.029-0.359-0.05c-0.124-0.017-0.244-0.035-0.363-0.057l-0.066-0.011C22.947,25.731,24.427,27.92,26.188,29.856
		L26.188,29.856z"/>
	<path fill="#FFFFFF" d="M30.741,6.278c10.917,3.101,18.504,9.921,18.504,17.831c0,10.829-14.206,19.612-31.724,19.612
		c-6.157,0-11.902-1.085-16.766-2.964c4.026,1.143,8.502,1.78,13.218,1.78c17.519,0,31.722-8.78,31.722-19.612
		C45.695,15.905,39.72,9.742,30.741,6.278L30.741,6.278z"/>
</g>
</svg>
