<?xml version="1.0" encoding="utf-8"?>
<!-- Generator: Adobe Illustrator 14.0.0, SVG Export Plug-In . SVG Version: 6.00 Build 43363)  -->
<!DOCTYPE svg PUBLIC "-//W3C//DTD SVG 1.1//EN" "http://www.w3.org/Graphics/SVG/1.1/DTD/svg11.dtd">
<svg version="1.1" id="Camada_1" xmlns="http://www.w3.org/2000/svg" xmlns:xlink="http://www.w3.org/1999/xlink" x="0px" y="0px"
	 width="133.334px" height="50px" viewBox="0 12.5 133.334 50" enable-background="new 0 12.5 133.334 50" xml:space="preserve">
<g id="g4303" transform="translate(0,-0.00421769)">
	<path id="path233-3" fill="#FFFFFF" d="M27.405,61.451l-0.14-0.039l-0.304-0.07l-0.305-0.07l-0.148-0.063l-0.147-0.062l0.422-0.475
		l0.42-0.476l0.461-0.398l0.462-0.399l0.243-0.183l0.245-0.181l0.072-0.059l0.073-0.059l0.554-0.373l0.553-0.37l0.385-0.225
		l0.386-0.223l0.027-0.04l0.023-0.038h0.066h0.066l0.235-0.139l0.238-0.14h0.064h0.065l0.028-0.046l0.027-0.048l-0.131-0.048
		l-0.129-0.053l-0.304-0.038L30.61,57.1l-0.368-0.026l-0.368-0.03L29.5,57.095l-0.371,0.05l-0.232,0.076l-0.232,0.075l-0.048,0.01
		l-0.047,0.011l-0.464,0.221l-0.464,0.223l-0.371,0.252l-0.37,0.255l-0.487,0.354l-0.486,0.355l-0.227,0.137l-0.224,0.139
		l-0.193,0.124l-0.193,0.127l-0.141,0.066l-0.144,0.064l-0.183,0.114l-0.182,0.114l-0.44,0.19l-0.44,0.188l-0.348,0.119
		l-0.349,0.121l-0.162,0.027l-0.163,0.026l-0.254,0.067l-0.253,0.064l-0.72,0.029l-0.719,0.032l-0.487-0.056l-0.486-0.054
		l-0.253-0.065l-0.256-0.063l-0.348-0.076l-0.348-0.076l-0.188-0.07l-0.185-0.072l-0.232-0.095l-0.232-0.093l-0.511-0.252
		l-0.51-0.253l-0.153-0.086l-0.154-0.085l-0.182-0.121l-0.183-0.12l-0.197-0.126l-0.197-0.125l-0.666-0.535l-0.664-0.534
		l-0.113-0.071l-0.112-0.068v-0.027v-0.026l0.063-0.087l0.063-0.084l0.136,0.093l0.134,0.095l0.193,0.098l0.193,0.097l0.34,0.112
		l0.34,0.11l0.441,0.075l0.441,0.074l0.812,0.064l0.813,0.064l0.301-0.014l0.303-0.015l0.58-0.052l0.581-0.052l0.263-0.069
		l0.266-0.069l0.167-0.021l0.168-0.023l0.215-0.063l0.219-0.065l0.276-0.082l0.279-0.083l0.092-0.011l0.091-0.014l0.348-0.101
		l0.35-0.101l0.812-0.206l0.813-0.206l0.325-0.089l0.324-0.088l0.439-0.075l0.44-0.076L26,56.63l0.441-0.086l0.16-0.004l0.164-0.007
		l0.439-0.038l0.44-0.039l0.812-0.008l0.812-0.008l0.371,0.047l0.371,0.047l0.208,0.026l0.209,0.027l0.301,0.069l0.302,0.069
		l0.303,0.072l0.301,0.073l0.244,0.087l0.243,0.084l0.128-0.051l0.129-0.051l0.3-0.085l0.304-0.086l0.556-0.113l0.555-0.115
		l0.208-0.028l0.209-0.027l0.755-0.027l0.754-0.026l0.822,0.056l0.823,0.054l0.116,0.014l0.116,0.015l0.371,0.073l0.37,0.073
		l0.465,0.077l0.464,0.078l0.302,0.086l0.301,0.085l0.349,0.077l0.35,0.076l0.602,0.163l0.602,0.164l0.222,0.069l0.223,0.069
		l0.102,0.012l0.103,0.013L43,57.768l0.277,0.079l0.232,0.068l0.232,0.068l0.14,0.016l0.14,0.017l0.394,0.076l0.394,0.072
		l0.615,0.056l0.615,0.054l0.892-0.058l0.891-0.058l0.372-0.072l0.371-0.072l0.141-0.018l0.139-0.018l0.253-0.088l0.255-0.09
		l0.17-0.071l0.17-0.073l0.232-0.139l0.232-0.135l0.029,0.07l0.027,0.07v0.039v0.039l-0.565,0.455l-0.564,0.455l-0.317,0.231
		l-0.316,0.232l-0.263,0.161l-0.26,0.163l-0.307,0.174l-0.307,0.173l-0.234,0.112l-0.232,0.113l-0.208,0.092l-0.208,0.092
		l-0.163,0.067l-0.161,0.067l-0.233,0.075l-0.232,0.074l-0.302,0.076l-0.302,0.074l-0.162,0.022l-0.162,0.022l-0.294,0.068
		l-0.293,0.067l-0.888,0.002h-0.89l-0.441-0.099l-0.441-0.097l-0.276-0.069l-0.279-0.073l-0.146-0.064l-0.146-0.063h-0.031h-0.028
		l-0.147-0.065l-0.145-0.066l-0.364-0.165l-0.361-0.165l-0.472-0.283L38.6,59.18l-0.092-0.053l-0.091-0.056l-0.546-0.378
		l-0.526-0.368l-0.392-0.268l-0.392-0.265l-0.422-0.212l-0.423-0.214l-0.334-0.106l-0.332-0.11l-0.263-0.031l-0.266-0.033
		l-0.287-0.003l-0.287-0.002l-0.404,0.034l-0.403,0.035l-0.2,0.058l-0.2,0.061l0.009,0.037l0.008,0.037l0.235,0.097l0.236,0.1
		l0.054,0.056l0.056,0.058h0.044h0.044l0.375,0.215l0.375,0.213l0.599,0.4l0.599,0.399l0.172,0.115l0.172,0.115l0.181,0.154
		l0.18,0.15l0.448,0.368l0.448,0.365l0.271,0.31l0.271,0.312l0.068,0.078l0.071,0.076l0.081,0.094l0.083,0.093l-0.245,0.082
		l-0.245,0.081l-0.279,0.067l-0.276,0.067l-0.093,0.023l-0.092,0.023l-0.233-0.358l-0.233-0.362l-0.257-0.349l-0.257-0.348
		l-0.273-0.298l-0.274-0.295l-0.465-0.401l-0.465-0.4l-0.23-0.187l-0.232-0.181l-0.188-0.121l-0.187-0.117l-0.539-0.27l-0.538-0.27
		h-0.117h-0.117l-0.437,0.211l-0.438,0.213l-0.305,0.179l-0.305,0.178l-0.222,0.184l-0.224,0.185l-0.351,0.307l-0.35,0.311
		l-0.477,0.483l-0.475,0.485v0.043v0.04l-0.105,0.115l-0.105,0.117l-0.264,0.4l-0.265,0.401l-0.027,0.072l-0.027,0.076l-0.032-0.003
		l-0.03-0.006L27.405,61.451L27.405,61.451z M16.485,57.283l-0.303-0.032l-0.349-0.062l-0.348-0.061l-0.348-0.082l-0.349-0.081
		l-0.445-0.16l-0.446-0.163l-0.133-0.073l-0.135-0.072l-0.263-0.117l-0.264-0.121l-0.305-0.209l-0.304-0.209h-0.028h-0.028
		l-0.306-0.22L11.828,55.4l-0.49-0.445l-0.487-0.441l-0.493-0.531l-0.494-0.527L9.57,53.081l-0.296-0.37L8.996,52.34l-0.278-0.371
		l-0.371-0.546l-0.371-0.546l-0.066-0.109l-0.069-0.108l0.061-0.071l0.058-0.072l0.346,0.344l0.348,0.342L9,51.393l0.344,0.19
		l0.084,0.019l0.082,0.016l0.697,0.231l0.696,0.23l0.581,0.19l0.581,0.189l0.198,0.071l0.197,0.071l0.29,0.141l0.288,0.139
		L13.243,53l0.208,0.117l0.171,0.104l0.168,0.101l0.296,0.204l0.293,0.205l0.292,0.282l0.295,0.283l0.067,0.014l0.065,0.016V54.25
		v-0.073l-0.572-0.639l-0.57-0.639l-0.223-0.348l-0.222-0.348l-0.087-0.124l-0.087-0.127v-0.027V51.9l-0.154-0.314l-0.154-0.312
		l-0.077-0.254l-0.075-0.254l-0.079-0.276L12.72,50.21l-0.066-0.37l-0.069-0.37l-0.034-1.577l-0.034-1.578l-0.08-0.203l-0.08-0.207
		l0.041-0.04l0.04-0.043l0.085,0.017l0.085,0.017l0.016,0.116l0.017,0.114l0.116,0.278l0.117,0.279l0.034,0.023l0.034,0.024
		l0.112,0.19l0.11,0.19l0.274,0.367l0.274,0.364l0.031,0.024l0.028,0.023l0.266,0.349l0.263,0.347l0.188,0.249l0.185,0.246
		l0.324,0.485l0.326,0.485l0.159,0.358l0.159,0.357l0.069,0.14l0.068,0.141l0.185,0.672l0.186,0.672l0.076,0.255l0.077,0.255
		l0.086,0.225l0.085,0.229v0.057v0.059l0.072,0.134l0.069,0.135v0.069l0.001,0.067l0.067,0.132l0.069,0.13l0.044,0.147l0.044,0.149
		l0.092,0.242l0.092,0.243l0.105,0.175l0.104,0.176l0.111,0.133l0.108,0.136l0.243,0.195l0.24,0.194l0.246,0.147l0.244,0.145
		l0.172,0.046l0.174,0.043l0.278,0.067l0.277,0.072l0.403,0.056l0.404,0.057l0.57-0.059l0.571-0.06l0.348-0.085l0.348-0.084
		l0.042,0.038l0.039,0.039l-0.017,0.082l-0.014,0.08l-0.233,0.063l-0.232,0.065l-0.464,0.113l-0.463,0.116l-0.301,0.073
		l-0.304,0.071l-0.208,0.023l-0.208,0.024l-0.18,0.046l-0.179,0.046l-0.608,0.092l-0.611,0.091l-0.625,0.019l-0.627,0.019
		L16.477,57.3L16.485,57.283z M45.675,57.189l-0.602-0.081l-0.325-0.056l-0.325-0.057l-0.371-0.084l-0.37-0.085l-0.371-0.083
		l-0.371-0.08l-0.361-0.112l-0.363-0.108h-0.068h-0.067v-0.063v-0.065l0.064-0.053l0.065-0.051l0.411,0.098l0.413,0.101l0.858,0.002
		l0.859,0.003l0.437-0.125l0.44-0.124l0.255-0.129l0.253-0.128l0.267-0.214l0.268-0.215l0.177-0.226l0.174-0.227l0.102-0.208
		l0.101-0.208l0.19-0.556l0.19-0.558l0.119-0.37l0.117-0.37l0.084-0.255l0.085-0.254l0.078-0.324l0.08-0.325l0.094-0.301
		l0.095-0.302l0.113-0.28l0.115-0.276l0.14-0.279l0.141-0.276l0.338-0.512l0.339-0.511l0.087-0.093l0.087-0.091l0.196-0.276
		l0.196-0.281l0.257-0.323l0.256-0.324l0.266-0.37l0.267-0.372l0.12-0.251l0.118-0.258l0.059-0.196l0.059-0.195h0.115h0.112
		l-0.03,0.103l-0.028,0.104l-0.069,0.348l-0.068,0.35l0.001,1.286l0.003,1.29l-0.023,0.036L51.5,49.38l-0.008,0.229l-0.009,0.23
		l-0.066,0.276l-0.065,0.279l-0.024,0.115L51.3,50.627l-0.085,0.277l-0.082,0.279l-0.216,0.456l-0.216,0.457l-0.085,0.124
		l-0.082,0.123l-0.213,0.316l-0.213,0.319l-0.15,0.168l-0.149,0.169l-0.386,0.424l-0.385,0.424v0.047v0.048l0.044,0.028l0.045,0.026
		l0.408-0.36l0.408-0.362l0.264-0.197l0.264-0.197h0.031h0.03l0.376-0.227l0.38-0.227l0.253-0.102l0.254-0.104l0.163-0.06
		l0.161-0.062l0.254-0.095l0.256-0.094l0.231-0.072l0.232-0.074l0.893-0.298l0.892-0.298l0.22-0.12l0.222-0.122l0.295-0.235
		l0.296-0.235l0.077-0.135l0.076-0.134h0.052h0.051l0.062,0.069l0.058,0.072l-0.116,0.127l-0.115,0.125l-0.397,0.604l-0.396,0.603
		l-0.342,0.446l-0.341,0.446l-0.395,0.48l-0.394,0.481l-0.58,0.581l-0.579,0.579l-0.466,0.351l-0.474,0.348l-0.338,0.218
		l-0.341,0.217l-0.418,0.193l-0.417,0.192l-0.463,0.177l-0.464,0.18l-0.141,0.027l-0.14,0.027l-0.112,0.026l-0.116,0.027
		l-0.278,0.035l-0.277,0.037l-0.325,0.051l-0.325,0.049l-0.625-0.006l-0.627-0.003l-0.603-0.082L45.675,57.189z M33.944,54.489
		l-0.093-0.051l-0.08-0.086l-0.082-0.082L33.6,54.038l-0.092-0.229l-0.097-0.41l-0.097-0.409l-0.019-0.074l-0.021-0.072
		l-0.093-0.102l-0.094-0.1h-1.006h-1.007l-0.148,0.088l-0.147,0.092l-0.07,0.105l-0.07,0.105l-0.093,0.352l-0.093,0.351l-0.04,0.113
		l-0.044,0.114l-0.003,0.024v0.022l-0.081,0.17l-0.083,0.171l-0.178,0.079l-0.179,0.081l-0.383-0.027l-0.383-0.028l-0.186-0.026
		l-0.186-0.025l-0.484-0.093l-0.486-0.092l-0.109-0.102l-0.11-0.104l-0.053-0.093l-0.054-0.093l-0.023-0.857l-0.024-0.859
		l-0.208-0.102l-0.208-0.102l-0.348-0.103l-0.349-0.102l-0.407-0.153l-0.406-0.155h-0.081h-0.082l-0.14,0.085l-0.141,0.084
		l-0.105,0.137l-0.105,0.134l-0.203,0.316l-0.202,0.314l-0.085,0.095l-0.085,0.096l-0.183,0.093l-0.181,0.091l-0.143-0.023
		l-0.143-0.024l-0.371-0.171l-0.37-0.175l-0.336-0.201l-0.334-0.203h-0.04h-0.041l-0.19-0.162l-0.189-0.162l-0.032-0.175
		l-0.028-0.174l0.184-0.486l0.184-0.485l0.074-0.141l0.074-0.14V49.92v-0.195l-0.158-0.16l-0.16-0.158l-0.315-0.222l-0.314-0.222
		l-0.164-0.149l-0.162-0.149l-0.198-0.103l-0.197-0.103l-0.19,0.03l-0.188,0.029l-0.39,0.301l-0.39,0.302l-0.149,0.092l-0.153,0.092
		H18.82h-0.198l-0.126-0.067l-0.126-0.066l-0.396-0.41l-0.397-0.409l-0.346-0.409l-0.345-0.413l-0.044-0.063l-0.046-0.063
		l0.486-0.498l0.487-0.502l0.885-0.917l0.887-0.913h0.022h0.024l0.171,0.219l0.171,0.221l0.241,0.272l0.242,0.278l0.556,0.558
		l0.559,0.559l0.417,0.356l0.417,0.356l0.253,0.186l0.255,0.187l0.232,0.166l0.232,0.167l0.255,0.168l0.253,0.164l0.325,0.188
		l0.325,0.189l0.439,0.221l0.44,0.219l0.254,0.115l0.255,0.118l0.254,0.1l0.251,0.102l0.116,0.049l0.117,0.047l0.537,0.178
		l0.538,0.178l0.365,0.088l0.366,0.089l0.371,0.076l0.37,0.073l0.395,0.075l0.394,0.073l0.974,0.074l0.975,0.072l0.928-0.056
		l0.928-0.056l0.394-0.07l0.394-0.067l0.256-0.04l0.255-0.039l0.356-0.074l0.356-0.074l0.269-0.069l0.271-0.071l0.208-0.069
		L36.724,50l0.255-0.082l0.254-0.08l0.024-0.004l0.022-0.002l0.395-0.153l0.396-0.152l0.44-0.188l0.44-0.189l0.376-0.197
		l0.375-0.198l0.312-0.188l0.313-0.19h0.016h0.015l0.267-0.178l0.269-0.173l0.371-0.263l0.371-0.267l0.309-0.245l0.309-0.245
		l0.315-0.26l0.315-0.263l0.558-0.573l0.557-0.573l0.311-0.348l0.311-0.349l1.346,1.358l1.345,1.36v0.049v0.048l-0.429,0.488
		l-0.428,0.491l-0.302,0.308l-0.301,0.311l-0.197,0.123l-0.196,0.124h-0.166h-0.163l-0.174-0.115l-0.173-0.115l-0.369-0.308
		l-0.372-0.307l-0.144-0.072l-0.142-0.069l-0.15,0.077l-0.148,0.078l-0.19,0.171l-0.191,0.173l-0.199,0.139l-0.199,0.14
		l-0.367,0.266l-0.366,0.268l-0.027,0.072l-0.027,0.075v0.126v0.126l0.216,0.53l0.216,0.531l0.019,0.194l0.019,0.194l-0.103,0.183
		l-0.102,0.183l-0.24,0.142l-0.239,0.141l-0.12,0.063l-0.122,0.062l-0.53,0.263l-0.528,0.262L40.229,52.8l-0.144,0.029l-0.155-0.067
		l-0.157-0.066l-0.123-0.135l-0.121-0.134l-0.109-0.166l-0.109-0.168l-0.167-0.251l-0.168-0.251l-0.096-0.086l-0.099-0.086
		l-0.222,0.022l-0.222,0.022l-0.302,0.115l-0.302,0.116l-0.278,0.083l-0.278,0.082l-0.209,0.073l-0.208,0.073l-0.128,0.128
		l-0.128,0.126v0.801v0.8l-0.185,0.176l-0.186,0.176l-0.174,0.03l-0.175,0.03l-0.253,0.065l-0.255,0.063l-0.324,0.026l-0.326,0.026
		l-0.16,0.044l-0.164,0.043l-0.141-0.002h-0.138l-0.093-0.054L33.944,54.489z M12.283,51.724l-0.189-0.217l-0.083-0.128
		l-0.083-0.126l-0.216-0.134l-0.216-0.131l-0.394-0.127l-0.393-0.123l-0.279-0.088l-0.278-0.09l-0.441-0.158l-0.441-0.16
		l-0.51-0.265l-0.509-0.267l-0.422-0.316l-0.42-0.316l-0.254-0.275L6.9,48.527l-0.205-0.273L6.49,47.983L6.35,47.749l-0.138-0.23
		L6.11,47.333l-0.1-0.187l-0.093-0.186l-0.092-0.187l-0.161-0.347l-0.158-0.349l-0.14-0.439l-0.14-0.439L5.13,44.852l-0.095-0.348
		L4.944,44.11l-0.089-0.395l-0.078-0.37L4.7,42.975l-0.085-0.348l-0.086-0.35L4.5,42.104l-0.028-0.173l0.05-0.007l0.048-0.008
		l0.049-0.005l0.051-0.003l0.084,0.241l0.085,0.24l0.146,0.287l0.145,0.287l0.192,0.284l0.191,0.284l0.273,0.355l0.273,0.355
		l0.363,0.316l0.361,0.317l0.184,0.146l0.182,0.146l0.418,0.283l0.419,0.283l0.506,0.498l0.509,0.5l0.342,0.45l0.342,0.45
		l0.169,0.29l0.168,0.289l0.102,0.016l0.103,0.017v-0.024v-0.024l-0.167-0.292L9.896,47.61l-0.182-0.38l-0.182-0.383l-0.089-0.406
		l-0.09-0.407l-0.052-0.418l-0.052-0.415l0.071-0.674l0.067-0.671l0.054-0.209l0.054-0.208l0.058-0.162l0.06-0.162l0.264-0.834
		l0.264-0.836l0.046-0.139l0.044-0.141l0.113-0.455l0.112-0.455v-0.298v-0.3h0.109h0.108l0.028,0.244l0.029,0.245v0.186l0.002,0.185
		l0.086,0.324l0.086,0.324l0.045,0.116l0.045,0.117l0.004,0.032l0.002,0.035l0.074,0.174l0.074,0.175l0.085,0.252l0.085,0.254
		l0.075,0.256l0.077,0.254l0.047,0.278l0.048,0.279l0.05,0.277l0.049,0.277l-0.001,0.997v0.999l-0.072,0.44l-0.07,0.438
		l-0.081,0.512l-0.081,0.509v0.533l0.002,0.535l0.079,0.418l0.083,0.417l0.071,0.231l0.073,0.231l0.117,0.279l0.116,0.276
		l0.154,0.232l0.153,0.233l0.187,0.265l0.188,0.267v0.04v0.041l-0.059,0.05l-0.061,0.051l-0.187-0.22L12.283,51.724z M51.573,51.87
		l-0.031-0.03v-0.069v-0.07l0.159-0.193l0.158-0.194L52,51.083l0.141-0.229l0.135-0.277l0.134-0.279l0.12-0.418l0.118-0.418
		l0.058-0.516l0.058-0.517l-0.061-0.595l-0.06-0.597l-0.066-0.302l-0.068-0.302l-0.072-0.953l-0.074-0.947l0.059-0.674l0.058-0.673
		l0.11-0.485l0.11-0.487l0.075-0.231l0.074-0.231l0.06-0.141l0.062-0.14l0.16-0.511l0.163-0.509v-0.071v-0.07l0.031-0.324
		l0.029-0.322l0.02-0.106l0.021-0.104h0.085h0.085l0.031,0.373l0.029,0.371l0.052,0.199l0.052,0.195l0.069,0.251l0.069,0.257
		l0.248,0.741l0.246,0.743l0.141,0.464l0.14,0.466l0.05,0.252l0.052,0.254l0.049,0.487l0.05,0.486l-0.027,0.232l-0.028,0.231
		l-0.073,0.394l-0.071,0.395l-0.047,0.187l-0.045,0.19l-0.091,0.207l-0.092,0.209l-0.124,0.247l-0.124,0.249l-0.108,0.212
		l-0.107,0.21l0.052,0.051l0.053,0.052l0.112-0.14l0.112-0.141l0.001-0.046v-0.045l0.22-0.327l0.22-0.325l0.331-0.416l0.331-0.417
		l0.382-0.348l0.381-0.349l0.075-0.041l0.077-0.04l0.116-0.101l0.115-0.103l0.222-0.127l0.221-0.127l-0.029-0.055l-0.029-0.056
		l0.033,0.031l0.033,0.03l0.217-0.16l0.216-0.16l0.403-0.372l0.403-0.371l0.142-0.217l0.14-0.217l0.104-0.138l0.104-0.136
		l0.104-0.164l0.103-0.168l0.156-0.303l0.156-0.302l0.107-0.265l0.11-0.268h0.028l0.026,0.003l0.058,0.035l0.058,0.036l-0.064,0.298
		l-0.064,0.301l-0.048,0.185l-0.05,0.186l-0.026,0.179l-0.028,0.177l-0.067,0.287l-0.063,0.289l-0.115,0.486l-0.115,0.485
		l-0.168,0.574l-0.168,0.569l-0.04,0.079l-0.039,0.077l-0.131,0.302l-0.131,0.302l-0.227,0.441l-0.227,0.44l-0.124,0.185
		l-0.124,0.188l-0.177,0.251l-0.177,0.256l-0.285,0.297l-0.284,0.295l-0.429,0.321l-0.428,0.319l-0.499,0.256l-0.498,0.256
		l-0.512,0.179l-0.51,0.179l-0.209,0.066l-0.208,0.069l-0.278,0.085l-0.277,0.084l-0.023,0.006l-0.027,0.005l-0.188,0.096
		l-0.185,0.098l-0.116,0.111l-0.116,0.111l-0.203,0.286L51.713,51.9h-0.055h-0.055L51.573,51.87L51.573,51.87z M8.415,44.783
		L8.37,44.659v-0.035v-0.034l-0.226-0.321l-0.226-0.319l-0.364-0.33l-0.366-0.327l-0.303-0.229l-0.3-0.227l-0.597-0.6l-0.595-0.601
		l-0.168-0.258l-0.166-0.26l-0.077-0.14l-0.078-0.14l-0.163-0.301l-0.166-0.304l-0.163-0.396l-0.166-0.396l-0.068-0.205
		l-0.069-0.204l-0.093-0.394l-0.094-0.394l-0.051-0.429l-0.048-0.429l-0.027-0.586l-0.028-0.587l0.047-0.4l0.049-0.399l0.027-0.348
		l0.024-0.349l0.049-0.279l0.051-0.278l0.04-0.348l0.041-0.348l0.032-0.31l0.032-0.313h0.103h0.103l-0.001,0.335L4.36,33.513
		l0.055,0.255l0.058,0.256l0.039,0.091l0.042,0.094l0.217,0.555l0.219,0.556l0.163,0.348l0.164,0.349l0.207,0.348l0.205,0.348
		l0.119,0.186l0.117,0.186l0.085,0.125l0.084,0.124l0.101,0.178l0.103,0.178l0.126,0.254l0.127,0.254l0.119,0.254l0.119,0.254
		l0.169,0.439l0.168,0.443l0.045,0.301l0.044,0.302l0.027,0.082l0.029,0.081h0.053H7.42v-0.847v-0.845l0.084-0.349l0.085-0.348
		l0.074-0.252l0.074-0.251l0.243-0.476l0.244-0.478l0.112-0.2l0.114-0.199l0.155-0.255L8.76,35.6l0.029-0.024l0.027-0.025
		l0.096-0.165l0.096-0.167l0.341-0.465l0.342-0.467l0.211-0.296l0.211-0.294l0.141-0.233l0.143-0.232l0.085-0.244l0.084-0.244h0.082
		h0.08l0.02,0.036l0.021,0.035l-0.085,0.417L10.6,33.648l-0.028,1.091l-0.026,1.091l-0.075,0.486l-0.071,0.491l-0.092,0.439
		l-0.092,0.441l-0.086,0.302l-0.087,0.301l-0.075,0.255L9.892,38.8l-0.066,0.151L9.76,39.104v0.049v0.049l-0.075,0.171l-0.072,0.169
		l-0.087,0.188L9.44,39.913l-0.189,0.464l-0.188,0.464l-0.046,0.082l-0.045,0.082v0.053v0.057l-0.086,0.188l-0.086,0.189
		l-0.051,0.14l-0.051,0.141l-0.046,0.187l-0.044,0.185l-0.048,0.186l-0.049,0.187l-0.07,0.445l-0.068,0.447l0.049,0.412l0.047,0.412
		l0.092,0.241l0.095,0.239l-0.017,0.085l-0.014,0.085l-0.081,0.016l-0.081,0.016L8.415,44.783L8.415,44.783z M55.443,44.812
		l-0.062-0.041l0.052-0.094l0.051-0.096l0.092-0.386l0.094-0.384v-0.349v-0.349l-0.068-0.258l-0.069-0.255v-0.114v-0.119
		l-0.154-0.484l-0.154-0.485l-0.172-0.418l-0.174-0.419l-0.062-0.139l-0.062-0.141l-0.162-0.369l-0.163-0.372l-0.105-0.277
		l-0.103-0.278l-0.062-0.163l-0.063-0.161l-0.16-0.603l-0.158-0.603l-0.071-0.348l-0.072-0.348l-0.097-0.628l-0.094-0.628v-0.927
		l-0.002-0.925l-0.082-0.325l-0.081-0.324v-0.114l0.001-0.116l0.099-0.015l0.098-0.014l0.03,0.164l0.03,0.165l0.194,0.337
		l0.192,0.335l0.211,0.288l0.211,0.286l0.234,0.328l0.231,0.328l0.174,0.22l0.175,0.218v0.054v0.053l0.073,0.061l0.074,0.061
		l0.095,0.188l0.095,0.189l0.034,0.024l0.034,0.024l0.076,0.163l0.074,0.162l0.185,0.324l0.183,0.325l0.148,0.348l0.145,0.348
		l0.111,0.439l0.107,0.441v0.871v0.868h0.067h0.068l0.022-0.036l0.023-0.034l0.027-0.28l0.027-0.276l0.093-0.277l0.095-0.276
		l0.053-0.116l0.051-0.115l0.041-0.092l0.039-0.094l0.146-0.349l0.149-0.348l0.161-0.301l0.16-0.301l0.285-0.444l0.284-0.443
		l0.059-0.09l0.058-0.09l0.284-0.58l0.283-0.58l0.041-0.092l0.04-0.093l0.115-0.302l0.116-0.301l0.124-0.371l0.124-0.371
		l0.006-0.406l0.002-0.407h0.095h0.098l0.056,0.522l0.059,0.522l0.067,0.353l0.068,0.355l0.048,0.458l0.046,0.458l0.028,0.789
		l0.026,0.788l-0.055,0.464l-0.055,0.464l-0.074,0.396l-0.076,0.395l-0.137,0.418l-0.137,0.416l-0.113,0.254l-0.115,0.255
		l-0.126,0.255l-0.124,0.255l-0.034,0.016l-0.033,0.015v0.047v0.046l-0.158,0.239l-0.154,0.24L58.8,41.388l-0.04,0.075l-0.253,0.295
		l-0.252,0.297l-0.351,0.34l-0.351,0.342l-0.58,0.478l-0.58,0.477l-0.19,0.203l-0.189,0.202l-0.147,0.234l-0.146,0.237l-0.051,0.145
		l-0.052,0.147h-0.054l-0.053-0.003l-0.064-0.037L55.443,44.812z M29.453,43.987l-0.03-0.03v-0.432v-0.434h0.465h0.467l0.179-0.092
		l0.181-0.092l0.089-0.129l0.087-0.128l0.079-0.169l0.078-0.171v-7.417v-7.419l-0.184-0.185l-0.188-0.186l-0.145-0.028l-0.144-0.029
		h-0.503h-0.505v-0.441v-0.441h2.805h2.806v0.434v0.437l-0.57,0.016l-0.566,0.017l-0.157,0.11l-0.156,0.112l-0.111,0.236
		l-0.109,0.238l0.001,7.188v7.188l0.063,0.266l0.062,0.264l0.077,0.117l0.079,0.118l0.183,0.091l0.183,0.094h0.513h0.512v0.464
		v0.464h-2.75h-2.752l-0.03-0.028H29.453z M13.905,42.267L13.807,42l-0.174-0.556l-0.174-0.557l-0.063-0.205l-0.065-0.205v-0.331
		v-0.331l0.104-0.093l0.103-0.091l0.187-0.099l0.185-0.1h0.034l0.034-0.001l0.265-0.096l0.266-0.097l0.079-0.046l0.083-0.045h0.062
		h0.062l0.108-0.115l0.108-0.113l-0.031-0.293l-0.034-0.291l-0.002-0.092l-0.003-0.093l-0.103-0.739l-0.104-0.739l-0.099-0.081
		l-0.1-0.082l-0.243-0.052l-0.243-0.053l-0.371-0.039l-0.37-0.039l-0.12-0.046l-0.12-0.045l-0.123-0.145l-0.122-0.145l-0.044-0.16
		l-0.044-0.161l0.019-0.522l0.021-0.522l0.045-0.455l0.044-0.455l0.067-0.132L13,33.411l0.193-0.077l0.193-0.078l0.193-0.021
		l0.193-0.02l0.396-0.021l0.396-0.021l0.122-0.056l0.124-0.055l0.071-0.169l0.072-0.168L15,32.493l0.051-0.232l0.044-0.255
		l0.045-0.254l0.075-0.346l0.074-0.345l-0.03-0.178l-0.029-0.179l-0.181-0.114l-0.181-0.114l-0.463-0.238l-0.465-0.237l-0.058-0.071
		l-0.059-0.07l-0.049-0.19l-0.05-0.192l0.042-0.219l0.039-0.22l0.18-0.477l0.181-0.478l0.081-0.185l0.079-0.183l0.076-0.153
		l0.075-0.152l0.111-0.073l0.11-0.073l0.285,0.001l0.285,0.002l0.278,0.09l0.278,0.09l0.261,0.058l0.261,0.059l0.118-0.029
		l0.119-0.028l0.089-0.127l0.089-0.128l0.162-0.302l0.162-0.303l0.102-0.186l0.104-0.185l0.131-0.232l0.13-0.232l0.029-0.143
		l0.03-0.142l-0.05-0.132l-0.055-0.129l-0.404-0.421l-0.406-0.421l-0.079-0.147l-0.081-0.144v-0.108v-0.111l0.105-0.208l0.106-0.208
		l0.338-0.441l0.337-0.439l0.275-0.29l0.277-0.29l0.079-0.005l0.08-0.004l0.144-0.001l0.144-0.001l0.333,0.202l0.334,0.203
		l0.08,0.047l0.08,0.046l0.205,0.152l0.202,0.152h0.153h0.15l0.71-0.643l0.711-0.642l0.067-0.081l0.066-0.083v-0.216l-0.002-0.216
		l-0.25-0.487l-0.25-0.485l-0.008-0.209l-0.008-0.208l0.105-0.184l0.104-0.182l0.32-0.228l0.32-0.229l0.143-0.085l0.145-0.085
		l0.348-0.196l0.349-0.199l0.189-0.001l0.19-0.001l0.114,0.06l0.11,0.061l0.351,0.448l0.348,0.449l0.158,0.154l0.157,0.154
		l0.167-0.024l0.167-0.024l0.233-0.098l0.232-0.098l0.139-0.077l0.139-0.077l0.008,0.009l0.008,0.01l0.173-0.076l0.173-0.076
		l0.285-0.133l0.286-0.133l0.073-0.184l0.072-0.181l-0.071-0.5l-0.074-0.499l0.003-0.193l0.002-0.191l0.1-0.17l0.099-0.17
		l0.134-0.069l0.134-0.068l0.197-0.042l0.196-0.042l0.372-0.096l0.371-0.095l0.518-0.092l0.518-0.093h0.042h0.04l0.084,0.29
		l0.084,0.291l0.058,0.209l0.059,0.208l0.264,0.905l0.265,0.904l0.06,0.208l0.059,0.209l0.074,0.274l0.075,0.277l-0.034,0.035
		l-0.034,0.034l-0.237,0.024l-0.239,0.023l-0.575,0.119L28.57,20.14l-0.254,0.066l-0.255,0.066l-0.512,0.161l-0.508,0.164
		l-0.233,0.085l-0.232,0.088l-0.302,0.13l-0.302,0.131l-0.439,0.205l-0.441,0.207l-0.389,0.217l-0.389,0.216l-0.19,0.107
		l-0.188,0.105l-0.028,0.033l-0.027,0.033l-0.252,0.154l-0.253,0.155l-0.556,0.423l-0.559,0.425l-0.906,0.895L20.448,25.1
		l-0.324,0.421L19.8,25.943l-0.375,0.544l-0.375,0.544l-0.158,0.274l-0.158,0.274l-0.126,0.232l-0.127,0.232l-0.202,0.418
		l-0.203,0.418l-0.104,0.253l-0.106,0.256l-0.061,0.143l-0.061,0.141l-0.146,0.408l-0.145,0.409l-0.042,0.125l-0.039,0.126
		l-0.121,0.408l-0.122,0.409l-0.02,0.148l-0.02,0.147l-0.045,0.121l-0.046,0.122l-0.104,0.597l-0.105,0.598l-0.008,0.162
		l-0.008,0.162l-0.063,0.439l-0.065,0.441l0.001,0.974l0.003,0.975l0.061,0.526l0.057,0.524l0.009,0.147l0.008,0.146l0.08,0.488
		l0.081,0.485l0.071,0.276l0.073,0.276l0.008,0.095l0.006,0.095l0.081,0.276l0.08,0.279l0.067,0.209l0.067,0.208l0.001,0.071
		l0.001,0.069l0.089,0.185l0.089,0.186l0.001,0.051l0.002,0.051l0.066,0.137l0.066,0.134l0.016,0.112l0.016,0.114l-0.325,0.079
		l-0.325,0.08l-0.277,0.081L16.541,41.9l-0.266,0.066l-0.266,0.065l-0.266,0.064l-0.266,0.065l-0.279,0.076l-0.278,0.078
		l-0.441,0.112L14.04,42.54h-0.023h-0.03l-0.098-0.265L13.905,42.267z M49.779,42.48l-0.161-0.048l-0.371-0.095l-0.371-0.094
		l-0.232-0.061l-0.232-0.063l-0.58-0.144l-0.58-0.146l-0.164-0.039l-0.162-0.04l-0.325-0.079l-0.324-0.077l-0.017-0.014
		l-0.015-0.014l0.069-0.153l0.067-0.155l0.081-0.209l0.081-0.206l0.151-0.464l0.151-0.464l0.094-0.372l0.094-0.37l0.092-0.419
		l0.091-0.417l0.053-0.324l0.055-0.325l0.063-0.673l0.067-0.671v-0.946v-0.944l-0.048-0.422l-0.05-0.422l-0.067-0.469l-0.071-0.463
		l-0.094-0.418l-0.093-0.419l-0.114-0.434l-0.112-0.435l-0.047-0.087l-0.047-0.087l0.019-0.033l0.02-0.034l-0.088-0.182
		l-0.093-0.184v-0.082v-0.082l-0.039-0.026l-0.04-0.026l-0.03-0.128l-0.031-0.128l-0.21-0.486l-0.21-0.486l-0.149-0.302l-0.15-0.304
		l-0.168-0.302l-0.167-0.302l-0.075-0.139l-0.072-0.141l-0.138-0.208l-0.139-0.209l-0.08-0.132l-0.082-0.133l-0.222-0.309
		l-0.222-0.309l-0.195-0.25l-0.197-0.25l-0.33-0.399l-0.33-0.4l-0.667-0.649l-0.667-0.645l-0.386-0.3l-0.387-0.301l-0.263-0.197
		l-0.262-0.198l-0.211-0.136l-0.207-0.135l-0.186-0.135l-0.187-0.135l-0.069-0.028l-0.071-0.029L39.55,21.83l-0.187-0.117
		l-0.879-0.438l-0.88-0.435l-0.439-0.172l-0.44-0.171l-0.487-0.151l-0.487-0.152l-0.279-0.074l-0.279-0.073l-0.325-0.073
		l-0.324-0.075l-0.162-0.021l-0.162-0.02l-0.224-0.053l-0.222-0.053l0.029-0.073l0.032-0.077l0.06-0.208l0.064-0.209l0.069-0.254
		l0.069-0.255l0.097-0.348l0.096-0.348l0.066-0.232l0.067-0.233l0.077-0.277l0.078-0.278l0.083-0.277l0.082-0.278l0.053-0.197
		l0.054-0.197h0.041h0.039l0.458,0.094l0.458,0.093l0.14,0.028l0.139,0.029l0.551,0.158l0.55,0.159l0.106,0.08l0.105,0.08
		l0.077,0.127l0.076,0.128l-0.008,0.244l-0.008,0.245l-0.086,0.415l-0.084,0.415v0.155v0.157l0.115,0.113l0.113,0.114h0.052h0.053
		l0.169,0.073l0.17,0.074l0.158,0.079l0.158,0.078l0.027,0.003l0.027,0.002l0.182,0.079l0.18,0.079h0.016h0.016l0.281,0.13
		l0.287,0.14h0.14h0.14l0.217-0.225l0.217-0.227l0.261-0.347l0.26-0.347l0.119-0.053l0.119-0.053h0.195l0.196,0.001l0.116,0.068
		l0.116,0.067l0.069,0.033l0.071,0.032l0.185,0.125l0.186,0.125l0.466,0.306l0.464,0.305l0.114,0.154l0.113,0.152l-0.003,0.234
		l-0.002,0.231l-0.256,0.535l-0.256,0.533l-0.027,0.116l-0.028,0.116l0.105,0.149l0.105,0.149l0.662,0.601l0.663,0.604l0.156,0.028
		l0.156,0.029l0.091-0.029l0.089-0.028l0.529-0.328l0.529-0.327l0.185-0.008l0.187-0.007l0.147,0.062l0.146,0.062l0.269,0.313
		l0.271,0.315l0.092,0.11l0.092,0.109l0.289,0.383l0.291,0.381v0.201v0.201l-0.134,0.182l-0.133,0.181l-0.423,0.417l-0.422,0.417
		v0.159v0.158l0.274,0.446l0.271,0.445l0.097,0.162l0.095,0.162l0.066,0.14l0.065,0.139l0.169,0.161l0.169,0.159h0.172h0.173
		l0.464-0.125l0.464-0.124l0.227-0.001h0.228l0.17,0.178l0.169,0.179l0.085,0.181l0.086,0.182l0.087,0.232l0.089,0.232l0.184,0.51
		l0.182,0.51l-0.023,0.114l-0.028,0.116l-0.114,0.148l-0.113,0.15l-0.264,0.152l-0.266,0.153l-0.277,0.112l-0.278,0.112
		l-0.126,0.141l-0.128,0.142l-0.002,0.188v0.189l0.087,0.367l0.089,0.368l0.047,0.254l0.05,0.254l0.03,0.197l0.03,0.196l0.088,0.115
		l0.089,0.113l0.149,0.048l0.149,0.05l0.563,0.041l0.561,0.041l0.132,0.064l0.133,0.064l0.131,0.21l0.131,0.211l0.045,0.276
		l0.046,0.275v0.665l0.001,0.665l-0.077,0.162L51.3,36.228l-0.1,0.074l-0.104,0.067l-0.154,0.046l-0.157,0.047l-0.564,0.061
		l-0.565,0.059l-0.111,0.073l-0.109,0.073l-0.054,0.249l-0.053,0.248l-0.048,0.37l-0.049,0.371l-0.031,0.44l-0.03,0.441l0.118,0.139
		l0.118,0.14l0.156,0.078l0.155,0.08l0.346,0.13l0.348,0.131l0.195,0.188l0.193,0.185l0.034,0.18l0.033,0.18l-0.168,0.587
		l-0.172,0.585l-0.195,0.545l-0.196,0.543l-0.092-0.003l-0.093-0.005l-0.162-0.046h-0.009V42.48z M23.371,42.018l-0.51-0.09
		l-0.232-0.073l-0.232-0.073l-0.334-0.163l-0.332-0.166l-0.224-0.18l-0.224-0.18l-0.294-0.244l-0.294-0.243l-0.343-0.451
		l-0.342-0.45l-0.229-0.479l-0.23-0.476l-0.126-0.395l-0.126-0.394l-0.035-0.046l-0.034-0.046l0.001-0.074l0.001-0.074l-0.075-0.32
		l-0.076-0.321l-0.048-0.581l-0.049-0.58v-0.58v-0.58l0.049-0.581l0.047-0.58l0.053-0.301l0.05-0.301l0.086-0.325l0.086-0.326
		l0.044-0.172l0.044-0.172l0.196-0.453l0.194-0.452l0.209-0.372l0.208-0.373l0.311-0.371l0.31-0.37l0.134-0.117l0.133-0.117
		l0.186-0.142l0.187-0.14l0.318-0.192l0.316-0.19l0.34-0.141l0.34-0.14L23,28.407l0.18-0.029l0.315-0.065l0.316-0.066h0.334h0.337
		l0.483,0.09l0.482,0.092l0.288,0.092l0.288,0.09l0.085,0.043l0.084,0.043l0.255,0.131l0.254,0.129l0.255,0.174l0.253,0.174
		l0.399,0.386l0.398,0.385l0.188,0.279l0.189,0.281l0.166,0.325l0.166,0.327l0.113,0.298l0.111,0.3l0.005,0.046l0.003,0.045
		l0.066,0.187l0.065,0.186l0.081,0.348l0.08,0.348l0.016,0.14l0.017,0.141l0.058,0.323l0.058,0.326v1.252v1.253l-0.061,0.237
		l-0.061,0.238l-0.008,0.133l-0.008,0.135l-0.08,0.324L29.09,37.87l-0.068,0.215l-0.067,0.214v0.056v0.055l-0.172,0.402l-0.17,0.402
		l-0.154,0.245l-0.155,0.245v0.021v0.024l-0.318,0.429l-0.321,0.429l-0.27,0.258l-0.27,0.256l-0.276,0.204l-0.276,0.202
		l-0.458,0.205l-0.462,0.199l-0.141,0.027l-0.145,0.026l-0.37,0.067l-0.371,0.064l-0.371-0.003l-0.369-0.005L23.371,42.018
		L23.371,42.018z M24.992,41.211l0.246-0.072l0.295-0.177l0.297-0.181l0.244-0.294l0.246-0.298l0.155-0.324l0.158-0.324l0.047-0.161
		l0.046-0.163l0.063-0.208l0.063-0.208v-3.687V31.43l-0.065-0.348l-0.065-0.348l-0.034-0.093l-0.033-0.092l-0.059-0.162
		l-0.059-0.163l-0.162-0.217l-0.162-0.217l-0.242-0.217l-0.243-0.217l-0.182-0.067l-0.18-0.065l-0.475-0.115l-0.475-0.115h-0.197
		l-0.197,0.001l-0.28,0.07l-0.276,0.07l-0.047,0.014l-0.047,0.012l-0.232,0.088l-0.232,0.085l-0.166,0.102l-0.165,0.102
		l-0.205,0.232l-0.206,0.23l-0.101,0.202l-0.102,0.202l-0.118,0.326l-0.119,0.324l-0.07,0.412l-0.069,0.411v3.376v3.375l0.094,0.418
		l0.097,0.416l0.217,0.376l0.217,0.374l0.18,0.212l0.181,0.214l0.254,0.169l0.253,0.169l0.169,0.089l0.167,0.087l0.208,0.058
		l0.209,0.059l0.458,0.006l0.456,0.003l0.245-0.073L24.992,41.211z M37.259,41.513v-0.419h0.388h0.389l0.146-0.027l0.145-0.03
		l0.092-0.176l0.089-0.178v-5.521v-5.521h-0.265l-0.266,0.001l-0.324,0.085l-0.325,0.085l-0.325,0.165l-0.326,0.165l-0.247,0.253
		l-0.247,0.254l-0.158,0.322l-0.155,0.323l-0.095,0.607l-0.094,0.606v0.305v0.305h-0.393h-0.394v-2.132v-2.13h4.706h4.707v2.108
		v2.11h-0.365h-0.366l-0.028-0.477l-0.032-0.476l-0.074-0.37l-0.074-0.371l-0.158-0.349l-0.156-0.348l-0.265-0.269l-0.263-0.268
		l-0.279-0.157l-0.279-0.155l-0.411-0.099l-0.412-0.1l-0.169,0.014l-0.168,0.014l-0.008,5.496l-0.008,5.494l0.082,0.16l0.081,0.164
		l0.139,0.066l0.14,0.069l0.452,0.019l0.452,0.019v0.389v0.389h-2.434h-2.435L37.259,41.513z M6.918,36.981L6.89,36.62l-0.068-0.197
		L6.75,36.226h0.02h0.021L6.636,35.89l-0.152-0.337l-0.175-0.37l-0.173-0.371l-0.324-0.671L5.49,33.467l-0.155-0.485l-0.153-0.487
		l-0.084-0.348l-0.085-0.348v-1.09v-1.089L5.1,29.249l0.086-0.372l0.177-0.485l0.174-0.486l0.103-0.256l0.1-0.253l0.068-0.184
		l0.066-0.183l0.109-0.235l0.109-0.235l0.34-0.787l0.342-0.789l0.05-0.088l0.052-0.088l0.076,0.029l0.072,0.027v0.083v0.083
		l-0.072,0.133l-0.07,0.135L6.815,25.69l-0.067,0.394v0.26v0.262l0.089,0.624l0.09,0.626l0.069,0.44l0.067,0.439l0.071,0.302
		l0.07,0.302l0.083,0.394l0.085,0.394v0.976v0.974l-0.081,0.285l-0.081,0.285v0.125v0.124l0.078-0.014l0.079-0.017l0.064-0.318
		l0.064-0.318l0.135-0.366l0.134-0.366l0.264-0.381l0.266-0.38l0.422-0.444l0.423-0.445l0.602-0.549l0.601-0.549l0.658-0.646
		l0.657-0.646l0.084-0.155l0.085-0.156h0.08h0.08l0.027,0.042l0.028,0.043l-0.159,0.317l-0.167,0.312l-0.065,0.185l-0.066,0.185
		l-0.119,0.348l-0.118,0.348l-0.08,0.278l-0.083,0.278l-0.125,0.394l-0.129,0.396l-0.123,0.376l-0.125,0.376l-0.345,0.689
		L9.992,32.4l-0.328,0.394l-0.329,0.394l-0.286,0.304l-0.286,0.301L8.37,34.237L7.976,34.68L7.875,34.8l-0.102,0.121l-0.185,0.34
		L7.402,35.6l-0.09,0.263L7.22,36.126l-0.028,0.456l-0.031,0.455l-0.027,0.151l-0.024,0.15H7.027H6.944L6.918,36.981z
		 M56.903,37.188l-0.024-0.15l-0.055-0.534l-0.056-0.534l-0.033-0.045l-0.034-0.046l-0.057-0.186l-0.057-0.187l-0.166-0.278
		l-0.166-0.278l-0.229-0.279l-0.228-0.278l-0.496-0.535l-0.498-0.533l-0.276-0.325l-0.274-0.324l-0.144-0.188l-0.146-0.186
		l-0.263-0.534l-0.263-0.533l-0.042-0.081l-0.039-0.081l-0.191-0.592l-0.191-0.591l-0.085-0.232l-0.082-0.231l-0.077-0.278
		l-0.079-0.28l-0.039-0.116l-0.04-0.116l-0.169-0.464l-0.171-0.464l-0.117-0.217l-0.117-0.217l0.026-0.073l0.027-0.072l0.061,0.001
		l0.059,0.001l0.155,0.23l0.154,0.228l0.327,0.314l0.329,0.316l0.559,0.537l0.561,0.538l0.326,0.297l0.326,0.297l0.476,0.51
		l0.475,0.51l0.161,0.255l0.159,0.254l0.098,0.208l0.098,0.208l0.093,0.302l0.093,0.303l0.029,0.208l0.03,0.208l0.082,0.016
		l0.081,0.015v-0.139v-0.14l-0.081-0.292l-0.079-0.294L56.62,31.14l-0.001-0.88l0.083-0.44l0.084-0.441l0.085-0.369l0.087-0.371
		l0.078-0.535l0.078-0.534l0.071-0.439l0.073-0.439l-0.029-0.465l-0.026-0.465l-0.069-0.254l-0.071-0.254l-0.058-0.15l-0.061-0.149
		l0.053-0.053l0.054-0.052l0.062,0.024l0.061,0.025l0.504,1.176l0.503,1.176l0.104,0.255l0.104,0.254l0.141,0.37l0.14,0.371
		l0.061,0.187l0.057,0.186l0.105,0.463l0.104,0.465l-0.008,1.043l-0.008,1.042l-0.082,0.324l-0.082,0.323l-0.114,0.396l-0.115,0.394
		l-0.04,0.043l-0.04,0.044v0.057v0.06l-0.211,0.43l-0.214,0.43l-0.107,0.255l-0.108,0.255l-0.239,0.51l-0.238,0.51l-0.044,0.081
		L57.3,36.076l-0.094,0.42l-0.092,0.418v0.209v0.209h-0.091h-0.09l-0.023-0.151h-0.007V37.188z M55.615,29.061l-0.149-0.304
		l-0.221-0.249l-0.223-0.25l-0.417-0.278l-0.415-0.279l-0.316-0.145l-0.313-0.143L53.51,27.38l-0.053-0.036l-0.202-0.134
		l-0.203-0.135l-0.351-0.289l-0.348-0.29l-0.255-0.275l-0.255-0.275l-0.261-0.302l-0.263-0.302l-0.251-0.367l-0.248-0.367
		l-0.206-0.324L50.41,23.96l-0.083-0.141l-0.084-0.14l-0.092-0.185l-0.094-0.184l-0.183-0.253l-0.184-0.252l-0.189-0.2l-0.185-0.198
		v-0.027v-0.027l0.063-0.062l0.062-0.064l0.34,0.298l0.34,0.299h0.057h0.057l0.299,0.134l0.299,0.133l0.366,0.127l0.368,0.128
		l0.368,0.182l0.371,0.182l0.09,0.057l0.088,0.055l0.095,0.068l0.091,0.069l0.399,0.354l0.398,0.355l0.247,0.28l0.248,0.28
		l0.137,0.214l0.137,0.215l0.144,0.287l0.143,0.288l0.02,0.02l0.021,0.021l0.063-0.067l0.063-0.067l-0.221-0.463l-0.221-0.465
		l-0.13-0.324l-0.128-0.325l-0.088-0.277l-0.092-0.279l-0.071-0.324l-0.071-0.325l-0.04-0.209l-0.04-0.209l-0.095-0.763
		l-0.094-0.765l-0.063-0.394l-0.062-0.396l-0.149-0.44l-0.146-0.44l-0.045-0.094l-0.047-0.092l-0.045-0.13l-0.047-0.128
		l-0.162-0.254l-0.164-0.254v-0.041v-0.041l0.081-0.03l0.081-0.031l0.116,0.151l0.115,0.151l0.419,0.475l0.418,0.475l0.37,0.429
		l0.372,0.428l0.256,0.328l0.26,0.328l0.196,0.299l0.197,0.298l0.184,0.338l0.188,0.339l0.091,0.244l0.09,0.246l0.097,0.302
		l0.096,0.302l0.008,0.092l0.008,0.091l0.051,0.275l0.052,0.275v0.432v0.432l-0.07,0.428l-0.071,0.428l-0.066,0.279l-0.064,0.277
		l-0.076,0.464l-0.076,0.463l-0.007,0.535l-0.009,0.533l0.091,0.247l0.089,0.248l-0.068,0.043l-0.067,0.043H55.78l-0.034,0.001
		l-0.149-0.303L55.615,29.061z M8.07,29.273l-0.029-0.043l0.093-0.279l0.095-0.279l-0.017-0.523l-0.012-0.523L8.12,27.205
		l-0.08-0.418l-0.063-0.302l-0.062-0.297l-0.078-0.432l-0.08-0.432l0.024-0.566l0.021-0.565l0.077-0.348l0.077-0.348l0.163-0.441
		l0.162-0.438l0.088-0.162l0.087-0.162l0.072-0.141l0.073-0.14l0.172-0.26l0.173-0.261l0.205-0.272l0.205-0.271l0.467-0.553
		l0.467-0.553l0.166-0.166l0.165-0.166l0.36-0.429l0.362-0.429h0.063h0.063l0.027,0.046l0.027,0.045l-0.14,0.199l-0.136,0.197
		l-0.08,0.186L11.09,19.51l-0.092,0.232l-0.09,0.232l-0.085,0.277l-0.087,0.278l-0.094,0.556l-0.095,0.557l-0.073,0.672
		l-0.072,0.673l-0.1,0.44l-0.099,0.44l-0.105,0.348l-0.105,0.348l-0.075,0.209l-0.076,0.209L9.77,25.143l-0.073,0.163L9.498,25.71
		L9.3,26.112l0.067,0.055l0.067,0.056l0.008-0.019l0.008-0.018l0.086-0.141l0.088-0.139l0.009-0.059l0.008-0.055l0.149-0.243
		l0.146-0.243l0.332-0.371l0.331-0.371l0.368-0.326l0.367-0.323l0.212-0.14l0.21-0.14l0.322-0.155l0.323-0.155l0.327-0.108
		l0.327-0.107l0.302-0.136l0.302-0.136l0.119-0.029l0.12-0.028l0.309-0.285l0.31-0.283l0.067,0.057l0.069,0.057v0.03v0.028
		L14.35,22.73l-0.301,0.343v0.042v0.042l-0.11,0.148l-0.108,0.147l-0.167,0.3l-0.171,0.302l-0.103,0.173l-0.1,0.173l-0.085,0.097
		l-0.083,0.097l-0.041,0.101l-0.039,0.1l-0.245,0.325l-0.243,0.324l-0.464,0.525l-0.464,0.523l-0.087,0.061l-0.086,0.063
		l-0.173,0.159l-0.173,0.16l-0.348,0.231l-0.347,0.232l-0.186,0.087l-0.186,0.085l-0.069,0.039L9.9,27.647L9.803,27.69l-0.097,0.042
		L9.35,27.974l-0.358,0.242l-0.256,0.283l-0.255,0.283L8.358,29.05l-0.123,0.267H8.155H8.076L8.07,29.273z M52.396,22.927
		l-0.377-0.358l-0.202-0.101l-0.205-0.101l-0.485-0.208l-0.488-0.208l-0.323-0.099l-0.326-0.096l-0.139-0.064l-0.14-0.063
		l-0.418-0.176l-0.418-0.176l-0.434-0.25l-0.432-0.25l-0.354-0.259l-0.354-0.259l-1.159-1.164l-1.159-1.163l-0.092-0.054
		l-0.091-0.054l0.079-0.082l0.08-0.084l0.082,0.071l0.084,0.072l0.209,0.094l0.208,0.096l0.116,0.03l0.116,0.028l0.163,0.064
		l0.161,0.063l0.441,0.075l0.439,0.077l0.37,0.097l0.371,0.097l0.302,0.113l0.302,0.115l0.045,0.042l0.045,0.041h0.062h0.063
		l0.379,0.242l0.378,0.241l0.141,0.111l0.14,0.112l0.564,0.529l0.564,0.529h0.049h0.051V20.54v-0.06l-0.075-0.115l-0.077-0.114
		l-0.176-0.185l-0.175-0.186l-0.325-0.418l-0.324-0.418L49.3,18.525l-0.351-0.521v-0.016v-0.019l-0.176-0.32l-0.175-0.319
		l-0.132-0.325l-0.132-0.324l-0.083-0.187l-0.083-0.186l-0.13-0.278l-0.131-0.277l-0.227-0.29l-0.226-0.29h-0.042h-0.039v-0.088
		v-0.087l0.075-0.029l0.076-0.028l0.266,0.244l0.264,0.246l0.497,0.278l0.495,0.278l0.404,0.3l0.405,0.298l0.296,0.257l0.299,0.258
		l0.242,0.254l0.243,0.253l0.157,0.209l0.158,0.208l0.068,0.141l0.072,0.139l0.053,0.093l0.053,0.092l0.205,0.441l0.202,0.44
		L52,19.694l0.095,0.325l0.074,0.36l0.071,0.362l0.048,0.591l0.047,0.588l0.05,0.21l0.047,0.209l0.1,0.205l0.101,0.204l0.078,0.083
		l0.077,0.082l0.077,0.119l0.08,0.12l-0.027,0.069l-0.027,0.07l-0.06-0.002l-0.061-0.002L52.396,22.927L52.396,22.927z
		 M11.09,23.212l-0.031-0.031V23.13v-0.052l0.114-0.123l0.115-0.124l0.134-0.249l0.135-0.247l0.051-0.232l0.051-0.232l0.024-0.208
		l0.025-0.209l0.027-0.394l0.027-0.394l0.068-0.348l0.067-0.348l0.076-0.256l0.076-0.253l0.075-0.182L12.2,19.1l0.24-0.497
		l0.24-0.499l0.171-0.249l0.17-0.249l0.377-0.387l0.378-0.386l0.369-0.288l0.37-0.287l0.326-0.213l0.325-0.213l0.44-0.248
		l0.439-0.248l0.218-0.204l0.219-0.205l0.071,0.029l0.072,0.028v0.067v0.068l-0.108,0.085l-0.108,0.084l-0.176,0.224l-0.171,0.226
		l-0.119,0.262l-0.118,0.262l-0.065,0.139l-0.065,0.14l-0.184,0.444l-0.184,0.444l-0.232,0.391l-0.232,0.39l-0.098,0.18
		l-0.097,0.178l-0.25,0.332l-0.25,0.333l-0.06,0.069l-0.061,0.069l-0.229,0.302l-0.229,0.302l-0.2,0.218l-0.199,0.217v0.068v0.065
		l0.063,0.026l0.062,0.024l0.168-0.198l0.166-0.199l0.477-0.414l0.478-0.413l0.162-0.115l0.161-0.114l0.079-0.046l0.08-0.045
		l0.201-0.116l0.2-0.118l0.208-0.086l0.209-0.086l0.14-0.058l0.14-0.06l0.348-0.092l0.349-0.093l0.417-0.075l0.417-0.077
		l0.326-0.095l0.325-0.094l0.339-0.159l0.338-0.159l0.044,0.028l0.044,0.027v0.04v0.042l-0.26,0.246l-0.261,0.247l-0.909,0.921
		l-0.91,0.92l-0.349,0.262l-0.348,0.263l-0.253,0.162l-0.254,0.163l-0.491,0.234l-0.487,0.24l-0.394,0.158l-0.394,0.158
		l-0.388,0.126l-0.385,0.125l-0.309,0.141l-0.309,0.14l-0.197,0.1l-0.195,0.099l-0.417,0.359L11.2,23.243h-0.04h-0.042L11.09,23.212
		z M48.101,18.146l-0.158-0.14l-0.391-0.182l-0.391-0.182l-0.419-0.145l-0.418-0.146l-0.092-0.022L46.14,17.31l-0.371-0.14
		l-0.371-0.142h-0.04h-0.041l-0.359-0.163l-0.357-0.163l-0.07-0.044l-0.071-0.043l-0.277-0.146l-0.276-0.146l-0.348-0.284
		l-0.35-0.284l-0.023-0.029L43.159,15.7l-0.525-0.496l-0.523-0.497L41.788,14.5l-0.323-0.208h-0.044h-0.045l-0.028-0.044
		l-0.028-0.045l0.049-0.092l0.05-0.092l0.243,0.13l0.243,0.13l0.315,0.08l0.317,0.079l0.471,0.043l0.472,0.043l0.371-0.001
		l0.372-0.001l0.255,0.055l0.253,0.054l0.162,0.035l0.164,0.037l0.185,0.069l0.187,0.071l0.288,0.164l0.288,0.163l0.205,0.142
		l0.205,0.141l0.254,0.257l0.258,0.258l0.205,0.31l0.205,0.312l0.135,0.231l0.133,0.232l0.099,0.208l0.097,0.209l0.077,0.063
		l0.078,0.063v0.061v0.059l0.21,0.185l0.207,0.183v0.046v0.047l-0.065,0.054l-0.063,0.054l-0.158-0.139h0.016V18.146z M15.64,18.158
		l-0.072-0.073l0.264-0.265l0.263-0.264l0.173-0.346l0.173-0.344l0.228-0.371l0.229-0.371l0.362-0.381l0.361-0.383l0.208-0.123
		l0.208-0.121l0.188-0.104l0.189-0.103l0.115-0.059l0.113-0.061l0.085-0.041l0.082-0.04l0.219-0.045l0.218-0.044l0.232-0.042
		l0.229-0.047l0.703-0.028l0.702-0.029l0.459-0.094l0.456-0.095l0.24-0.131l0.243-0.129l0.047,0.048l0.05,0.05v0.06v0.059
		l-0.221,0.114l-0.22,0.112l-0.242,0.182l-0.242,0.182l-0.617,0.592l-0.617,0.593l-0.324,0.217L19.8,16.452l-0.139,0.07l-0.14,0.07
		l-0.162,0.089l-0.162,0.09l-0.255,0.097l-0.255,0.102l-0.463,0.17l-0.464,0.17l-0.14,0.026l-0.139,0.024l-0.047,0.035l-0.044,0.036
		l-0.348,0.12l-0.349,0.118l-0.231,0.102l-0.232,0.104l-0.209,0.145l-0.209,0.147l-0.05,0.031l-0.05,0.03L15.64,18.158z"/>
	<g id="text4192" transform="translate(0,-0.03929555)">
		<path id="path4198" fill="#FFFFFF" d="M69.709,24.414c0-1.282,0.345-2.285,1.034-3.008c0.688-0.728,1.576-1.091,2.666-1.091
			c0.711,0,1.354,0.17,1.929,0.511c0.573,0.341,1.007,0.816,1.308,1.428c0.301,0.607,0.453,1.298,0.453,2.071
			c0,0.784-0.157,1.485-0.474,2.104c-0.319,0.618-0.765,1.086-1.346,1.406c-0.58,0.316-1.205,0.475-1.874,0.475
			c-0.729,0-1.379-0.175-1.951-0.527c-0.572-0.353-1.006-0.832-1.302-1.438C69.857,25.737,69.709,25.092,69.709,24.414z
			 M70.763,24.428c0,0.931,0.25,1.665,0.749,2.203c0.501,0.535,1.132,0.801,1.886,0.801c0.769,0,1.401-0.27,1.896-0.812
			c0.5-0.541,0.749-1.309,0.749-2.303c0-0.628-0.107-1.176-0.32-1.645c-0.212-0.47-0.522-0.833-0.933-1.091
			c-0.407-0.258-0.866-0.39-1.376-0.39c-0.723,0-1.348,0.25-1.872,0.749C71.021,22.437,70.763,23.266,70.763,24.428L70.763,24.428z"
			/>
		<path id="path4200" fill="#FFFFFF" d="M78.275,28.175v-5.596h0.854v0.848c0.218-0.396,0.419-0.658,0.6-0.785
			c0.187-0.127,0.39-0.19,0.611-0.19c0.32,0,0.645,0.101,0.976,0.306l-0.325,0.879c-0.233-0.137-0.465-0.205-0.696-0.205
			c-0.207,0-0.395,0.063-0.559,0.19c-0.166,0.124-0.284,0.296-0.354,0.517c-0.105,0.337-0.156,0.706-0.156,1.107v2.929H78.275z"/>
		<path id="path4202" fill="#FFFFFF" d="M81.717,28.638l0.923,0.138c0.038,0.285,0.145,0.491,0.321,0.622
			c0.236,0.176,0.557,0.263,0.965,0.263c0.438,0,0.778-0.087,1.018-0.263c0.237-0.175,0.401-0.422,0.484-0.738
			c0.048-0.194,0.072-0.599,0.069-1.217c-0.418,0.488-0.933,0.732-1.55,0.732c-0.769,0-1.364-0.277-1.785-0.831
			c-0.421-0.555-0.632-1.221-0.632-1.997c0-0.535,0.093-1.027,0.288-1.476c0.193-0.454,0.474-0.803,0.839-1.048
			c0.369-0.248,0.802-0.369,1.296-0.369c0.659,0,1.205,0.268,1.634,0.801v-0.675h0.874v4.837c0,0.871-0.09,1.488-0.268,1.85
			c-0.178,0.365-0.461,0.653-0.843,0.865c-0.386,0.211-0.857,0.315-1.419,0.315c-0.669,0-1.206-0.151-1.616-0.453
			C81.902,29.694,81.701,29.244,81.717,28.638L81.717,28.638z M82.503,25.277c0,0.734,0.146,1.269,0.438,1.606
			c0.29,0.337,0.656,0.506,1.097,0.506c0.434,0,0.8-0.168,1.096-0.501c0.295-0.337,0.442-0.864,0.442-1.581
			c0-0.685-0.153-1.202-0.458-1.548c-0.304-0.349-0.668-0.522-1.097-0.522c-0.424,0-0.781,0.172-1.075,0.517
			C82.65,24.095,82.503,24.603,82.503,25.277z"/>
		<path id="path4204" fill="#FFFFFF" d="M91.55,27.485c-0.354,0.299-0.691,0.51-1.018,0.632c-0.322,0.123-0.671,0.185-1.043,0.185
			c-0.614,0-1.086-0.148-1.419-0.448c-0.33-0.301-0.493-0.686-0.493-1.152c0-0.274,0.062-0.524,0.184-0.749
			c0.128-0.228,0.292-0.412,0.489-0.548c0.204-0.138,0.432-0.242,0.687-0.311c0.185-0.048,0.468-0.095,0.844-0.141
			c0.766-0.091,1.328-0.2,1.691-0.327c0.002-0.131,0.004-0.212,0.004-0.248c0-0.386-0.088-0.659-0.269-0.816
			c-0.243-0.214-0.604-0.321-1.081-0.321c-0.444,0-0.776,0.079-0.99,0.237c-0.21,0.154-0.365,0.43-0.47,0.827l-0.928-0.127
			c0.086-0.397,0.224-0.716,0.417-0.959c0.192-0.247,0.473-0.433,0.838-0.563c0.365-0.134,0.788-0.2,1.27-0.2
			c0.479,0,0.866,0.057,1.164,0.169c0.296,0.112,0.519,0.253,0.657,0.426c0.142,0.168,0.241,0.383,0.296,0.644
			c0.03,0.163,0.047,0.453,0.047,0.874v1.265c0,0.881,0.02,1.44,0.06,1.676c0.041,0.231,0.123,0.455,0.242,0.669h-0.99
			C91.642,27.979,91.577,27.748,91.55,27.485L91.55,27.485z M91.472,25.367c-0.345,0.14-0.861,0.259-1.549,0.358
			c-0.392,0.057-0.664,0.12-0.828,0.19c-0.161,0.07-0.285,0.174-0.372,0.311c-0.089,0.133-0.134,0.283-0.134,0.448
			c0,0.253,0.096,0.464,0.286,0.632c0.192,0.169,0.475,0.254,0.842,0.254c0.366,0,0.691-0.08,0.976-0.238
			c0.285-0.162,0.494-0.38,0.628-0.658c0.102-0.214,0.152-0.532,0.152-0.949L91.472,25.367L91.472,25.367z"/>
		<path id="path4206" fill="#FFFFFF" d="M93.904,28.175v-5.596h0.854v0.796c0.411-0.615,1.004-0.923,1.78-0.923
			c0.338,0,0.646,0.062,0.928,0.185c0.284,0.12,0.495,0.278,0.637,0.475c0.142,0.196,0.24,0.43,0.296,0.701
			c0.035,0.176,0.054,0.483,0.054,0.922v3.441h-0.949v-3.406c0-0.385-0.036-0.674-0.109-0.865c-0.075-0.194-0.205-0.347-0.396-0.458
			c-0.188-0.116-0.406-0.174-0.658-0.174c-0.406,0-0.753,0.127-1.048,0.384c-0.292,0.256-0.438,0.743-0.438,1.459v3.057
			L93.904,28.175L93.904,28.175z"/>
		<path id="path4208" fill="#FFFFFF" d="M99.917,21.542V20.45h0.948v1.092H99.917z M99.917,28.175v-5.596h0.948v5.595L99.917,28.175
			L99.917,28.175z"/>
		<path id="path4210" fill="#FFFFFF" d="M101.814,28.175v-0.769l3.563-4.088c-0.405,0.022-0.761,0.031-1.07,0.031h-2.28V22.58h4.572
			v0.627l-3.028,3.552l-0.585,0.647c0.424-0.031,0.821-0.047,1.195-0.047h2.587v0.815H101.814z"/>
		<path id="path4212" fill="#FFFFFF" d="M111.362,27.485c-0.353,0.299-0.689,0.51-1.018,0.632c-0.321,0.123-0.671,0.185-1.043,0.185
			c-0.613,0-1.087-0.148-1.418-0.448c-0.329-0.301-0.495-0.686-0.495-1.152c0-0.274,0.064-0.524,0.186-0.749
			c0.128-0.228,0.291-0.412,0.49-0.548c0.203-0.138,0.432-0.242,0.686-0.311c0.186-0.048,0.468-0.095,0.842-0.141
			c0.767-0.091,1.33-0.2,1.691-0.327c0.003-0.131,0.005-0.212,0.005-0.248c0-0.386-0.089-0.659-0.268-0.816
			c-0.244-0.214-0.603-0.321-1.08-0.321c-0.446,0-0.777,0.079-0.992,0.237c-0.209,0.154-0.366,0.43-0.469,0.827l-0.929-0.127
			c0.087-0.397,0.225-0.716,0.417-0.959c0.193-0.247,0.472-0.433,0.839-0.563c0.364-0.134,0.788-0.2,1.269-0.2
			c0.478,0,0.868,0.057,1.165,0.169s0.519,0.253,0.656,0.426c0.141,0.168,0.241,0.383,0.297,0.644
			c0.031,0.163,0.047,0.453,0.047,0.874v1.265c0,0.881,0.021,1.44,0.059,1.676c0.041,0.231,0.123,0.455,0.242,0.669h-0.99
			C111.452,27.979,111.389,27.748,111.362,27.485L111.362,27.485z M111.283,25.367c-0.345,0.14-0.86,0.259-1.55,0.357
			c-0.388,0.057-0.664,0.12-0.825,0.19c-0.163,0.07-0.287,0.174-0.376,0.31c-0.087,0.134-0.129,0.284-0.129,0.448
			c0,0.254,0.095,0.465,0.285,0.633c0.193,0.169,0.475,0.254,0.842,0.254c0.364,0,0.691-0.08,0.976-0.238
			c0.284-0.162,0.493-0.38,0.627-0.658c0.1-0.215,0.153-0.532,0.153-0.949L111.283,25.367z"/>
		<path id="path4214" fill="#FFFFFF" d="M117.368,26.125l0.934,0.122c-0.102,0.643-0.364,1.148-0.786,1.513
			c-0.418,0.363-0.932,0.542-1.544,0.542c-0.765,0-1.381-0.25-1.85-0.749c-0.464-0.502-0.696-1.221-0.696-2.156
			c0-0.605,0.101-1.134,0.301-1.586c0.201-0.454,0.506-0.792,0.912-1.018c0.411-0.228,0.859-0.343,1.339-0.343
			c0.606,0,1.104,0.154,1.49,0.465c0.386,0.306,0.634,0.742,0.742,1.307l-0.923,0.142c-0.088-0.375-0.243-0.659-0.468-0.849
			c-0.222-0.189-0.491-0.284-0.808-0.284c-0.478,0-0.865,0.172-1.163,0.516c-0.3,0.341-0.447,0.881-0.447,1.623
			c0,0.752,0.142,1.297,0.431,1.638c0.289,0.342,0.662,0.512,1.127,0.512c0.372,0,0.685-0.115,0.933-0.343
			C117.14,26.95,117.301,26.6,117.368,26.125L117.368,26.125z M115.171,28.881l0.275-0.932h0.705l-0.173,0.564
			c0.3,0.035,0.521,0.126,0.673,0.273c0.151,0.151,0.229,0.317,0.229,0.5c0,0.263-0.128,0.496-0.381,0.697
			c-0.252,0.203-0.635,0.306-1.143,0.306c-0.29,0-0.543-0.022-0.76-0.063l0.06-0.617c0.222,0.015,0.388,0.022,0.494,0.022
			c0.328,0,0.561-0.046,0.695-0.138c0.103-0.07,0.152-0.157,0.152-0.258c0-0.063-0.021-0.121-0.064-0.168
			c-0.037-0.049-0.111-0.091-0.219-0.126C115.606,28.904,115.425,28.885,115.171,28.881L115.171,28.881z"/>
		<path id="path4216" fill="#FFFFFF" d="M122.765,27.485c-0.352,0.299-0.69,0.51-1.018,0.632c-0.323,0.123-0.67,0.185-1.041,0.185
			c-0.617,0-1.089-0.148-1.419-0.448c-0.33-0.301-0.494-0.686-0.494-1.152c0-0.274,0.061-0.524,0.184-0.749
			c0.127-0.228,0.29-0.412,0.491-0.548c0.203-0.138,0.432-0.242,0.683-0.311c0.188-0.048,0.47-0.095,0.846-0.141
			c0.764-0.091,1.328-0.2,1.691-0.327c0.002-0.131,0.002-0.212,0.002-0.248c0-0.386-0.088-0.659-0.269-0.816
			c-0.242-0.214-0.603-0.321-1.08-0.321c-0.444,0-0.776,0.079-0.989,0.237c-0.211,0.154-0.365,0.43-0.468,0.827l-0.93-0.127
			c0.084-0.397,0.224-0.716,0.417-0.959c0.192-0.247,0.472-0.433,0.838-0.563c0.365-0.134,0.787-0.2,1.269-0.2
			c0.478,0,0.868,0.057,1.164,0.169c0.297,0.112,0.52,0.253,0.659,0.426c0.139,0.168,0.238,0.383,0.294,0.644
			c0.031,0.163,0.049,0.453,0.049,0.874v1.265c0,0.881,0.019,1.44,0.057,1.676c0.044,0.231,0.125,0.455,0.244,0.669h-0.991
			C122.856,27.979,122.791,27.748,122.765,27.485L122.765,27.485z M122.684,25.367c-0.343,0.14-0.859,0.259-1.546,0.358
			c-0.392,0.057-0.666,0.12-0.828,0.19c-0.161,0.07-0.286,0.174-0.372,0.311c-0.09,0.133-0.132,0.283-0.132,0.448
			c0,0.253,0.094,0.464,0.283,0.632c0.193,0.169,0.476,0.254,0.846,0.254c0.362,0,0.688-0.08,0.974-0.238
			c0.286-0.162,0.492-0.38,0.627-0.658c0.101-0.214,0.152-0.532,0.152-0.949L122.684,25.367z M119.608,21.752
			c-0.003-0.366,0.098-0.658,0.302-0.875c0.198-0.217,0.455-0.327,0.769-0.327c0.217,0,0.515,0.095,0.891,0.285
			c0.206,0.105,0.371,0.158,0.493,0.158c0.112,0,0.199-0.03,0.258-0.089c0.06-0.063,0.101-0.186,0.128-0.368h0.686
			c-0.011,0.4-0.113,0.701-0.308,0.901c-0.19,0.2-0.432,0.3-0.726,0.3c-0.222,0-0.513-0.098-0.874-0.295
			c-0.236-0.127-0.408-0.19-0.518-0.19c-0.121,0-0.215,0.042-0.29,0.126c-0.077,0.085-0.115,0.209-0.109,0.374L119.608,21.752
			L119.608,21.752z"/>
		<path id="path4218" fill="#FFFFFF" d="M124.767,25.377c0-1.037,0.289-1.804,0.864-2.303c0.48-0.416,1.069-0.622,1.761-0.622
			c0.77,0,1.396,0.254,1.886,0.759c0.488,0.502,0.733,1.198,0.733,2.086c0,0.721-0.11,1.287-0.326,1.703
			c-0.216,0.412-0.528,0.731-0.942,0.959c-0.412,0.229-0.863,0.343-1.35,0.343c-0.784,0-1.417-0.252-1.901-0.754
			C125.008,27.046,124.767,26.322,124.767,25.377L124.767,25.377z M125.741,25.377c0,0.716,0.157,1.254,0.471,1.612
			c0.312,0.355,0.706,0.533,1.181,0.533c0.47,0,0.862-0.179,1.173-0.537c0.313-0.357,0.471-0.905,0.471-1.639
			c0-0.692-0.157-1.215-0.476-1.57c-0.312-0.359-0.702-0.537-1.169-0.537c-0.474,0-0.868,0.178-1.18,0.533
			C125.9,24.126,125.741,24.66,125.741,25.377L125.741,25.377z"/>
		<path id="path4220" fill="#FFFFFF" d="M70.193,41.665V33.94h1.022v7.725H70.193z"/>
		<path id="path4222" fill="#FFFFFF" d="M72.892,41.665v-5.596h0.854v0.797c0.412-0.616,1.005-0.923,1.783-0.923
			c0.336,0,0.646,0.062,0.924,0.185c0.285,0.12,0.498,0.277,0.639,0.475c0.142,0.197,0.239,0.43,0.298,0.702
			c0.034,0.176,0.053,0.482,0.053,0.922v3.441h-0.948v-3.403c0-0.386-0.037-0.674-0.11-0.865c-0.074-0.194-0.206-0.347-0.396-0.459
			c-0.188-0.116-0.405-0.173-0.657-0.173c-0.405,0-0.755,0.128-1.048,0.384c-0.294,0.256-0.438,0.743-0.438,1.459v3.057h-0.952
			V41.665z"/>
		<path id="path4224" fill="#FFFFFF" d="M80.968,40.816l0.139,0.838c-0.269,0.058-0.508,0.085-0.717,0.085
			c-0.345,0-0.61-0.054-0.8-0.164c-0.191-0.108-0.323-0.252-0.403-0.426c-0.078-0.179-0.114-0.553-0.114-1.121v-3.22h-0.697v-0.739
			h0.697v-1.386l0.943-0.569v1.954h0.952v0.738h-0.952v3.273c0,0.27,0.016,0.442,0.047,0.521c0.034,0.079,0.088,0.139,0.162,0.186
			c0.079,0.045,0.188,0.068,0.326,0.068C80.658,40.854,80.798,40.84,80.968,40.816L80.968,40.816z"/>
		<path id="path4226" fill="#FFFFFF" d="M85.723,39.862l0.979,0.122c-0.154,0.573-0.44,1.018-0.858,1.334
			c-0.419,0.314-0.953,0.475-1.604,0.475c-0.818,0-1.469-0.252-1.948-0.755c-0.478-0.506-0.717-1.213-0.717-2.124
			c0-0.941,0.242-1.671,0.727-2.192c0.485-0.52,1.112-0.779,1.887-0.779c0.748,0,1.359,0.253,1.833,0.763
			c0.473,0.51,0.712,1.227,0.712,2.15c0,0.057-0.003,0.141-0.006,0.254h-4.173c0.035,0.615,0.209,1.086,0.521,1.411
			c0.314,0.327,0.702,0.491,1.17,0.491c0.348,0,0.645-0.092,0.891-0.273C85.385,40.553,85.578,40.264,85.723,39.862L85.723,39.862z
			 M82.608,38.33h3.122c-0.04-0.472-0.161-0.823-0.357-1.06c-0.302-0.366-0.695-0.548-1.173-0.548c-0.438,0-0.804,0.146-1.103,0.438
			C82.804,37.45,82.64,37.84,82.608,38.33L82.608,38.33z"/>
		<path id="path4228" fill="#FFFFFF" d="M87.887,41.665v-5.596h0.854v0.849c0.217-0.397,0.418-0.658,0.601-0.785
			c0.185-0.126,0.389-0.19,0.611-0.19c0.318,0,0.643,0.101,0.974,0.306l-0.325,0.879c-0.23-0.138-0.464-0.205-0.694-0.205
			c-0.209,0-0.396,0.063-0.559,0.19c-0.167,0.123-0.285,0.295-0.354,0.517c-0.105,0.337-0.157,0.706-0.157,1.105v2.93L87.887,41.665
			L87.887,41.665z"/>
		<path id="path4230" fill="#FFFFFF" d="M91.503,41.665v-5.596h0.853v0.797c0.411-0.616,1.005-0.923,1.782-0.923
			c0.335,0,0.646,0.062,0.927,0.185c0.284,0.12,0.496,0.277,0.639,0.475c0.142,0.197,0.238,0.43,0.295,0.702
			c0.034,0.176,0.054,0.482,0.054,0.922v3.441h-0.949v-3.403c0-0.386-0.035-0.674-0.109-0.865c-0.074-0.194-0.205-0.347-0.395-0.459
			c-0.188-0.116-0.407-0.173-0.66-0.173c-0.404,0-0.753,0.128-1.048,0.384c-0.292,0.256-0.437,0.743-0.437,1.459v3.057h-0.951
			V41.665z"/>
		<path id="path4232" fill="#FFFFFF" d="M101.161,40.974c-0.353,0.301-0.692,0.51-1.018,0.633c-0.323,0.123-0.672,0.186-1.043,0.186
			c-0.615,0-1.087-0.149-1.418-0.448c-0.331-0.303-0.495-0.687-0.495-1.154c0-0.273,0.063-0.523,0.186-0.749
			c0.125-0.228,0.29-0.41,0.488-0.547c0.205-0.137,0.432-0.241,0.686-0.311c0.187-0.048,0.47-0.096,0.844-0.142
			c0.765-0.09,1.327-0.199,1.693-0.325c0.002-0.132,0.002-0.212,0.002-0.25c0-0.385-0.089-0.658-0.269-0.815
			c-0.242-0.215-0.603-0.321-1.08-0.321c-0.444,0-0.777,0.079-0.989,0.237c-0.211,0.154-0.366,0.431-0.471,0.827l-0.929-0.127
			c0.086-0.396,0.226-0.716,0.418-0.959c0.193-0.247,0.472-0.433,0.836-0.563c0.368-0.134,0.788-0.2,1.271-0.2
			c0.478,0,0.866,0.057,1.164,0.169c0.297,0.112,0.52,0.253,0.657,0.426c0.141,0.168,0.24,0.383,0.296,0.644
			c0.031,0.162,0.047,0.453,0.047,0.874v1.266c0,0.881,0.021,1.439,0.059,1.676c0.042,0.231,0.124,0.454,0.243,0.669h-0.991
			C101.251,41.467,101.188,41.237,101.161,40.974L101.161,40.974z M101.084,38.856c-0.347,0.141-0.861,0.259-1.55,0.359
			c-0.391,0.057-0.665,0.119-0.827,0.19c-0.162,0.07-0.286,0.174-0.371,0.31c-0.091,0.133-0.135,0.283-0.135,0.448
			c0,0.253,0.094,0.464,0.284,0.633c0.194,0.169,0.475,0.253,0.843,0.253c0.366,0,0.691-0.079,0.976-0.237
			c0.284-0.162,0.494-0.379,0.627-0.658c0.102-0.214,0.153-0.53,0.153-0.948V38.856L101.084,38.856z"/>
		<path id="path4234" fill="#FFFFFF" d="M107.167,39.615l0.932,0.121c-0.101,0.644-0.363,1.147-0.784,1.512
			c-0.419,0.363-0.932,0.542-1.546,0.542c-0.763,0-1.38-0.249-1.848-0.748c-0.465-0.501-0.696-1.22-0.696-2.155
			c0-0.604,0.1-1.134,0.302-1.586c0.199-0.453,0.503-0.792,0.911-1.017c0.411-0.228,0.856-0.343,1.34-0.343
			c0.605,0,1.103,0.154,1.49,0.464c0.383,0.306,0.633,0.742,0.743,1.308l-0.923,0.141c-0.088-0.375-0.247-0.658-0.469-0.848
			c-0.223-0.191-0.491-0.285-0.808-0.285c-0.479,0-0.868,0.173-1.165,0.517c-0.3,0.341-0.447,0.881-0.447,1.623
			c0,0.754,0.143,1.298,0.432,1.638c0.288,0.343,0.663,0.513,1.127,0.513c0.371,0,0.685-0.115,0.934-0.344
			C106.941,40.441,107.102,40.089,107.167,39.615L107.167,39.615z"/>
		<path id="path4236" fill="#FFFFFF" d="M108.916,35.03V33.94h0.949v1.091H108.916z M108.916,41.665v-5.596h0.949v5.596H108.916z"/>
		<path id="path4238" fill="#FFFFFF" d="M110.962,38.866c0-1.037,0.29-1.803,0.864-2.303c0.48-0.415,1.067-0.622,1.76-0.622
			c0.77,0,1.397,0.254,1.887,0.76c0.489,0.502,0.732,1.198,0.732,2.086c0,0.722-0.11,1.287-0.324,1.702
			c-0.218,0.413-0.531,0.732-0.943,0.96c-0.411,0.228-0.862,0.344-1.35,0.344c-0.784,0-1.417-0.252-1.902-0.755
			C111.202,40.535,110.963,39.811,110.962,38.866L110.962,38.866z M111.936,38.866c0,0.718,0.157,1.255,0.471,1.613
			c0.311,0.354,0.706,0.531,1.18,0.531c0.471,0,0.863-0.18,1.175-0.537c0.31-0.359,0.469-0.904,0.469-1.638
			c0-0.692-0.159-1.216-0.476-1.571c-0.311-0.359-0.702-0.537-1.168-0.537c-0.474,0-0.869,0.178-1.181,0.533
			C112.093,37.615,111.936,38.149,111.936,38.866L111.936,38.866z"/>
		<path id="path4240" fill="#FFFFFF" d="M117.321,41.665v-5.596h0.854v0.797c0.412-0.616,1.006-0.923,1.781-0.923
			c0.337,0,0.646,0.062,0.928,0.185c0.285,0.12,0.498,0.277,0.639,0.475c0.142,0.197,0.239,0.43,0.296,0.702
			c0.035,0.176,0.054,0.482,0.054,0.922v3.441h-0.949v-3.403c0-0.386-0.035-0.674-0.109-0.865c-0.076-0.194-0.206-0.347-0.396-0.459
			c-0.188-0.116-0.406-0.173-0.658-0.173c-0.406,0-0.755,0.128-1.048,0.384s-0.438,0.743-0.438,1.459v3.057h-0.953V41.665z"/>
		<path id="path4242" fill="#FFFFFF" d="M126.98,40.974c-0.354,0.301-0.691,0.51-1.018,0.633c-0.322,0.123-0.671,0.186-1.042,0.186
			c-0.615,0-1.088-0.149-1.419-0.448c-0.329-0.303-0.494-0.687-0.494-1.154c0-0.273,0.063-0.523,0.185-0.749
			c0.128-0.228,0.291-0.41,0.489-0.547c0.204-0.137,0.431-0.241,0.686-0.311c0.186-0.048,0.469-0.096,0.843-0.142
			c0.766-0.09,1.329-0.199,1.691-0.325c0.003-0.132,0.005-0.212,0.005-0.25c0-0.385-0.089-0.658-0.268-0.815
			c-0.244-0.215-0.604-0.321-1.082-0.321c-0.444,0-0.776,0.079-0.99,0.237c-0.209,0.154-0.365,0.431-0.47,0.827l-0.928-0.127
			c0.086-0.396,0.224-0.716,0.417-0.959c0.193-0.247,0.472-0.433,0.839-0.563c0.364-0.134,0.787-0.2,1.269-0.2
			c0.478,0,0.866,0.057,1.165,0.169c0.296,0.112,0.519,0.253,0.656,0.426c0.141,0.168,0.241,0.383,0.296,0.644
			c0.031,0.162,0.048,0.453,0.048,0.874v1.266c0,0.881,0.02,1.439,0.059,1.676c0.04,0.231,0.123,0.454,0.241,0.669h-0.989
			C127.069,41.467,127.007,41.237,126.98,40.974L126.98,40.974z M126.901,38.856c-0.345,0.141-0.861,0.259-1.55,0.359
			c-0.388,0.057-0.664,0.119-0.825,0.19c-0.164,0.07-0.287,0.174-0.373,0.31c-0.09,0.133-0.135,0.283-0.135,0.448
			c0,0.253,0.094,0.464,0.285,0.633c0.193,0.169,0.475,0.253,0.845,0.253c0.364,0,0.688-0.079,0.975-0.237
			c0.285-0.162,0.493-0.379,0.627-0.658c0.101-0.214,0.151-0.53,0.151-0.948V38.856L126.901,38.856z"/>
		<path id="path4244" fill="#FFFFFF" d="M129.313,41.665V33.94h0.949v7.725H129.313z"/>
		<path id="path4246" fill="#FFFFFF" d="M73.529,55.154v-0.706c-0.354,0.555-0.876,0.834-1.564,0.834
			c-0.447,0-0.857-0.123-1.233-0.369c-0.372-0.247-0.661-0.59-0.868-1.027c-0.207-0.443-0.307-0.949-0.307-1.523
			c0-0.559,0.092-1.063,0.277-1.517c0.186-0.458,0.466-0.808,0.839-1.049c0.371-0.241,0.788-0.364,1.247-0.364
			c0.339,0,0.639,0.072,0.902,0.216c0.263,0.141,0.478,0.325,0.645,0.554V47.43h0.942v7.724H73.529z M70.53,52.359
			c0,0.718,0.151,1.256,0.453,1.608s0.658,0.532,1.07,0.532c0.415,0,0.765-0.168,1.054-0.505c0.291-0.342,0.437-0.861,0.437-1.555
			c0-0.764-0.146-1.327-0.442-1.687c-0.295-0.358-0.659-0.535-1.091-0.535c-0.424,0-0.774,0.171-1.059,0.516
			C70.673,51.076,70.53,51.619,70.53,52.359z"/>
		<path id="path4248" fill="#FFFFFF" d="M75.552,52.353c0-1.035,0.289-1.802,0.866-2.301c0.479-0.415,1.066-0.621,1.76-0.621
			c0.768,0,1.398,0.253,1.886,0.759c0.487,0.502,0.732,1.197,0.732,2.086c0,0.722-0.108,1.287-0.325,1.703
			c-0.217,0.412-0.53,0.731-0.943,0.959c-0.411,0.229-0.862,0.344-1.349,0.344c-0.785,0-1.418-0.252-1.901-0.755
			C75.793,54.024,75.555,53.3,75.552,52.353L75.552,52.353z M76.526,52.353c0,0.718,0.156,1.256,0.471,1.614
			c0.311,0.354,0.704,0.532,1.18,0.532c0.471,0,0.862-0.18,1.174-0.537c0.312-0.356,0.469-0.904,0.469-1.638
			c0-0.691-0.157-1.216-0.475-1.571c-0.311-0.358-0.702-0.535-1.168-0.535c-0.476,0-0.869,0.177-1.18,0.531
			C76.684,51.105,76.526,51.638,76.526,52.353L76.526,52.353z"/>
		<path id="path4250" fill="#FFFFFF" d="M86.803,55.154v-6.813h-2.547V47.43h6.123v0.911h-2.555v6.813H86.803z"/>
		<path id="path4252" fill="#FFFFFF" d="M90.901,55.154v-5.596h0.854v0.85c0.218-0.396,0.419-0.659,0.601-0.785
			c0.187-0.128,0.391-0.19,0.611-0.19c0.321,0,0.646,0.102,0.978,0.306l-0.326,0.879c-0.232-0.137-0.465-0.204-0.698-0.204
			c-0.206,0-0.395,0.063-0.558,0.191c-0.165,0.122-0.284,0.295-0.354,0.516c-0.104,0.336-0.158,0.705-0.158,1.105v2.93
			L90.901,55.154L90.901,55.154z"/>
		<path id="path4254" fill="#FFFFFF" d="M98.167,54.464c-0.353,0.298-0.689,0.509-1.017,0.633c-0.323,0.123-0.671,0.185-1.043,0.185
			c-0.615,0-1.088-0.149-1.418-0.447c-0.329-0.304-0.496-0.688-0.496-1.155c0-0.273,0.063-0.524,0.185-0.749
			c0.128-0.228,0.292-0.41,0.491-0.547c0.203-0.139,0.432-0.241,0.685-0.311c0.188-0.048,0.468-0.095,0.844-0.142
			c0.766-0.089,1.329-0.199,1.691-0.327c0.002-0.129,0.004-0.211,0.004-0.248c0-0.386-0.088-0.657-0.268-0.815
			c-0.243-0.214-0.604-0.32-1.08-0.32c-0.447,0-0.778,0.079-0.992,0.236c-0.21,0.155-0.364,0.432-0.468,0.828l-0.929-0.128
			c0.085-0.396,0.223-0.716,0.416-0.958c0.193-0.247,0.472-0.435,0.839-0.564c0.365-0.134,0.787-0.2,1.269-0.2
			c0.477,0,0.869,0.058,1.165,0.169c0.295,0.112,0.518,0.254,0.657,0.427c0.141,0.169,0.24,0.383,0.295,0.644
			c0.033,0.161,0.049,0.452,0.049,0.874v1.266c0,0.88,0.02,1.438,0.058,1.675c0.042,0.232,0.124,0.455,0.243,0.668h-0.99
			C98.259,54.958,98.196,54.727,98.167,54.464L98.167,54.464z M98.089,52.345c-0.344,0.14-0.861,0.26-1.549,0.36
			c-0.39,0.056-0.666,0.118-0.826,0.19c-0.163,0.069-0.287,0.173-0.374,0.309c-0.088,0.134-0.134,0.283-0.134,0.448
			c0,0.253,0.097,0.464,0.286,0.633c0.195,0.167,0.475,0.253,0.844,0.253c0.364,0,0.689-0.08,0.976-0.236
			c0.284-0.162,0.493-0.382,0.627-0.659c0.101-0.214,0.151-0.53,0.151-0.948L98.089,52.345L98.089,52.345z"/>
		<path id="path4256" fill="#FFFFFF" d="M101.397,55.154h-0.881V47.43h0.949v2.756c0.401-0.504,0.912-0.755,1.534-0.755
			c0.344,0,0.67,0.069,0.976,0.21c0.308,0.137,0.563,0.332,0.758,0.585c0.202,0.25,0.36,0.552,0.471,0.906
			c0.112,0.355,0.168,0.733,0.168,1.139c0,0.96-0.235,1.702-0.71,2.224c-0.474,0.521-1.043,0.784-1.708,0.784
			c-0.66,0-1.18-0.273-1.553-0.826v0.701H101.397z M101.386,52.314c0,0.67,0.092,1.154,0.273,1.452
			c0.301,0.489,0.702,0.733,1.212,0.733c0.417,0,0.774-0.18,1.074-0.537c0.304-0.361,0.454-0.899,0.454-1.611
			c0-0.732-0.146-1.27-0.438-1.617c-0.287-0.347-0.638-0.521-1.048-0.521c-0.414,0-0.771,0.179-1.075,0.541
			C101.539,51.113,101.386,51.633,101.386,52.314L101.386,52.314z"/>
		<path id="path4258" fill="#FFFFFF" d="M110.182,54.464c-0.351,0.298-0.69,0.509-1.017,0.633c-0.322,0.123-0.669,0.185-1.043,0.185
			c-0.614,0-1.088-0.149-1.417-0.447c-0.33-0.304-0.497-0.688-0.497-1.155c0-0.273,0.064-0.524,0.186-0.749
			c0.128-0.228,0.291-0.41,0.49-0.547c0.204-0.139,0.432-0.241,0.686-0.311c0.187-0.048,0.467-0.095,0.843-0.142
			c0.765-0.089,1.329-0.199,1.691-0.327c0.003-0.129,0.004-0.211,0.004-0.248c0-0.386-0.089-0.657-0.268-0.815
			c-0.243-0.214-0.603-0.32-1.081-0.32c-0.446,0-0.777,0.079-0.989,0.236c-0.212,0.155-0.365,0.432-0.47,0.828l-0.928-0.128
			c0.085-0.396,0.222-0.716,0.415-0.958c0.193-0.247,0.473-0.435,0.84-0.564c0.364-0.134,0.786-0.2,1.268-0.2
			c0.478,0,0.869,0.058,1.165,0.169c0.297,0.112,0.519,0.254,0.657,0.427c0.14,0.169,0.241,0.383,0.296,0.644
			c0.032,0.161,0.048,0.452,0.048,0.874v1.266c0,0.88,0.019,1.438,0.058,1.675c0.042,0.232,0.124,0.455,0.243,0.668h-0.989
			C110.272,54.958,110.208,54.727,110.182,54.464L110.182,54.464z M110.103,52.345c-0.345,0.14-0.861,0.26-1.549,0.36
			c-0.39,0.056-0.664,0.118-0.827,0.19c-0.162,0.069-0.285,0.173-0.372,0.309c-0.09,0.134-0.132,0.283-0.132,0.448
			c0,0.253,0.093,0.464,0.283,0.633c0.192,0.167,0.475,0.253,0.844,0.253c0.365,0,0.689-0.08,0.974-0.236
			c0.285-0.162,0.494-0.382,0.628-0.659c0.102-0.214,0.152-0.53,0.152-0.948L110.103,52.345L110.103,52.345z"/>
		<path id="path4260" fill="#FFFFFF" d="M112.516,55.154V47.43h0.948v7.724H112.516z"/>
		<path id="path4262" fill="#FFFFFF" d="M114.939,55.154V47.43h0.949v2.771c0.442-0.514,1-0.77,1.675-0.77
			c0.416,0,0.773,0.083,1.081,0.248c0.306,0.162,0.522,0.386,0.651,0.674c0.134,0.29,0.201,0.705,0.201,1.255v3.546h-0.947v-3.546
			c0-0.476-0.106-0.817-0.31-1.032c-0.207-0.217-0.497-0.327-0.872-0.327c-0.281,0-0.547,0.073-0.796,0.222
			c-0.246,0.143-0.421,0.342-0.526,0.591c-0.106,0.249-0.157,0.593-0.157,1.032v3.062h-0.949V55.154z"/>
		<path id="path4264" fill="#FFFFFF" d="M120.594,52.353c0-1.035,0.288-1.802,0.864-2.301c0.48-0.415,1.068-0.621,1.761-0.621
			c0.769,0,1.397,0.253,1.885,0.759c0.489,0.502,0.733,1.197,0.733,2.086c0,0.722-0.109,1.287-0.325,1.703
			c-0.216,0.412-0.53,0.731-0.942,0.959c-0.413,0.229-0.863,0.344-1.35,0.344c-0.785,0-1.418-0.252-1.903-0.755
			C120.835,54.024,120.595,53.3,120.594,52.353L120.594,52.353z M121.569,52.353c0,0.718,0.155,1.256,0.469,1.614
			c0.312,0.354,0.705,0.532,1.181,0.532c0.472,0,0.862-0.18,1.175-0.537c0.311-0.356,0.47-0.904,0.47-1.638
			c0-0.691-0.159-1.216-0.477-1.571c-0.311-0.358-0.702-0.535-1.168-0.535c-0.476,0-0.869,0.177-1.181,0.531
			C121.726,51.105,121.569,51.638,121.569,52.353z"/>
	</g>
</g>
</svg>
