<?xml version="1.0" encoding="utf-8"?>
<!-- Generator: Adobe Illustrator 14.0.0, SVG Export Plug-In . SVG Version: 6.00 Build 43363)  -->
<!DOCTYPE svg PUBLIC "-//W3C//DTD SVG 1.1//EN" "http://www.w3.org/Graphics/SVG/1.1/DTD/svg11.dtd">
<svg version="1.1" id="Camada_1" xmlns="http://www.w3.org/2000/svg" xmlns:xlink="http://www.w3.org/1999/xlink" x="0px" y="0px"
	 width="50px" height="50px" viewBox="41.667 0 50 50" enable-background="new 41.667 0 50 50" xml:space="preserve">
<path id="path233-3" fill="#FFFFFF" d="M62.756,45.174l-0.119-0.033l-0.259-0.061l-0.26-0.06l-0.126-0.053l-0.125-0.054l0.359-0.404
	l0.357-0.405l0.393-0.338l0.394-0.341l0.207-0.154l0.208-0.155l0.062-0.05l0.062-0.052l0.473-0.317l0.471-0.314l0.327-0.19
	l0.329-0.19l0.022-0.034l0.021-0.032h0.056h0.057l0.2-0.118l0.202-0.119h0.055h0.055l0.024-0.04l0.023-0.04l-0.111-0.042
	l-0.11-0.045L65.742,41.5l-0.257-0.031l-0.313-0.021l-0.313-0.027l-0.318,0.045l-0.316,0.042l-0.197,0.064l-0.197,0.065
	l-0.041,0.008l-0.04,0.009l-0.395,0.188l-0.396,0.191l-0.315,0.215l-0.315,0.216l-0.415,0.301l-0.413,0.303l-0.194,0.116
	l-0.19,0.118l-0.164,0.106l-0.165,0.108l-0.119,0.057l-0.123,0.055l-0.156,0.097l-0.154,0.097l-0.375,0.163l-0.374,0.159
	l-0.297,0.102l-0.297,0.103l-0.138,0.023l-0.14,0.021l-0.216,0.057l-0.215,0.056l-0.613,0.024l-0.613,0.026l-0.414-0.048
	l-0.414-0.045l-0.215-0.055l-0.218-0.055l-0.296-0.065l-0.297-0.064l-0.16-0.059l-0.157-0.062l-0.197-0.081l-0.198-0.078
	l-0.435-0.217l-0.435-0.214l-0.13-0.073l-0.132-0.073l-0.154-0.104l-0.156-0.102l-0.167-0.106l-0.168-0.106l-0.567-0.455
	l-0.565-0.456l-0.097-0.06l-0.095-0.059v-0.023v-0.021l0.054-0.074l0.054-0.072l0.115,0.08l0.114,0.082l0.164,0.083l0.164,0.081
	l0.29,0.097l0.29,0.093l0.375,0.063l0.376,0.063l0.69,0.055l0.692,0.055l0.257-0.012l0.258-0.013l0.493-0.045l0.495-0.044
	l0.225-0.06l0.226-0.059l0.143-0.018l0.143-0.019l0.184-0.055l0.186-0.055l0.235-0.07l0.238-0.069l0.078-0.011l0.077-0.012
	l0.297-0.086l0.298-0.087l0.69-0.175l0.693-0.176l0.276-0.075l0.275-0.074l0.374-0.065l0.375-0.063l0.377-0.07l0.376-0.075
	l0.136-0.003l0.14-0.005l0.374-0.033l0.375-0.033l0.69-0.007l0.692-0.007l0.315,0.04l0.315,0.04l0.177,0.023l0.179,0.023
	l0.257,0.058l0.257,0.059l0.258,0.062l0.256,0.062l0.208,0.074l0.207,0.072l0.108-0.044l0.11-0.043l0.256-0.073l0.259-0.073
	l0.473-0.096l0.472-0.099l0.179-0.023l0.178-0.023l0.644-0.022l0.642-0.022l0.698,0.049l0.702,0.045l0.098,0.013l0.1,0.012
	l0.316,0.063l0.314,0.062l0.396,0.064l0.396,0.067l0.257,0.072l0.256,0.073l0.298,0.065l0.298,0.064l0.514,0.14l0.512,0.14
	l0.188,0.059l0.191,0.059l0.086,0.011l0.088,0.011l0.236,0.069l0.236,0.068l0.196,0.057l0.198,0.058l0.119,0.014l0.12,0.015
	l0.334,0.065l0.336,0.062l0.523,0.048l0.524,0.045l0.76-0.048l0.759-0.05l0.315-0.062l0.316-0.062l0.119-0.016l0.12-0.015
	l0.215-0.075l0.218-0.076l0.145-0.062l0.145-0.062l0.196-0.118l0.198-0.114l0.024,0.058l0.023,0.061v0.033v0.033l-0.48,0.387
	l-0.48,0.388l-0.27,0.196l-0.27,0.198l-0.225,0.138L80.23,43.34l-0.262,0.147l-0.261,0.148l-0.199,0.095l-0.198,0.096l-0.177,0.079
	l-0.178,0.078l-0.138,0.056l-0.139,0.059l-0.197,0.063l-0.198,0.063l-0.258,0.065l-0.256,0.063l-0.138,0.018l-0.139,0.019
	l-0.251,0.059l-0.249,0.057l-0.755,0.001H75.48l-0.376-0.083l-0.376-0.083l-0.234-0.059l-0.237-0.063l-0.123-0.054l-0.125-0.055
	h-0.026h-0.023l-0.126-0.055l-0.123-0.057l-0.31-0.14l-0.308-0.142l-0.402-0.241l-0.402-0.236l-0.079-0.045l-0.078-0.048
	l-0.464-0.321l-0.446-0.314l-0.335-0.228l-0.334-0.226l-0.359-0.18l-0.36-0.184l-0.285-0.09l-0.282-0.093l-0.223-0.026l-0.227-0.028
	l-0.244-0.004l-0.245-0.001l-0.344,0.029l-0.343,0.03l-0.171,0.048l-0.17,0.054l0.007,0.031l0.007,0.032l0.201,0.081l0.201,0.085
	l0.045,0.048l0.048,0.05h0.037h0.038l0.319,0.184l0.319,0.181l0.511,0.341l0.509,0.34l0.146,0.098l0.146,0.099l0.155,0.131
	l0.152,0.127l0.383,0.314l0.381,0.311l0.231,0.263l0.23,0.267l0.057,0.066l0.062,0.064l0.068,0.08l0.071,0.08l-0.209,0.069
	l-0.208,0.068l-0.238,0.058l-0.234,0.057l-0.079,0.021l-0.079,0.019l-0.197-0.305l-0.2-0.308l-0.218-0.298l-0.219-0.296
	l-0.233-0.255l-0.232-0.251l-0.396-0.341l-0.396-0.341l-0.196-0.159l-0.197-0.153l-0.16-0.104l-0.159-0.1l-0.459-0.229l-0.458-0.231
	h-0.099h-0.101l-0.372,0.18l-0.372,0.184l-0.26,0.151l-0.261,0.151l-0.188,0.157l-0.19,0.156l-0.299,0.262l-0.298,0.266
	l-0.407,0.411l-0.403,0.412v0.037v0.034l-0.09,0.099l-0.089,0.1L63.2,44.744l-0.226,0.343l-0.023,0.062l-0.022,0.063l-0.027-0.002
	l-0.025-0.005L62.756,45.174L62.756,45.174z M53.458,41.625L53.2,41.597l-0.297-0.052l-0.297-0.053l-0.296-0.068l-0.298-0.07
	l-0.379-0.136l-0.379-0.139l-0.113-0.063l-0.115-0.062l-0.224-0.099l-0.225-0.103l-0.261-0.179l-0.258-0.178h-0.024h-0.023
	l-0.261-0.188l-0.258-0.188l-0.418-0.379l-0.414-0.376l-0.42-0.452l-0.421-0.449l-0.25-0.319l-0.252-0.314l-0.236-0.315L46.845,37.1
	l-0.315-0.464l-0.315-0.466l-0.057-0.093l-0.06-0.092l0.053-0.06l0.049-0.062l0.295,0.293l0.297,0.291l0.294,0.161l0.293,0.161
	l0.072,0.017l0.068,0.014l0.594,0.197l0.593,0.195l0.495,0.163l0.495,0.159l0.168,0.062l0.168,0.06l0.247,0.12l0.245,0.12
	l0.174,0.101l0.178,0.101l0.146,0.088l0.143,0.086l0.252,0.173l0.25,0.175l0.248,0.241l0.251,0.241l0.058,0.012l0.056,0.014v-0.065
	V38.98l-0.487-0.545l-0.485-0.544l-0.189-0.296L50.926,37.3l-0.074-0.106l-0.074-0.108v-0.021v-0.021l-0.13-0.268l-0.132-0.267
	l-0.065-0.216l-0.064-0.217l-0.067-0.234l-0.065-0.239l-0.057-0.314l-0.059-0.314l-0.029-1.344l-0.028-1.344l-0.068-0.173
	l-0.068-0.176l0.035-0.033l0.034-0.037l0.072,0.016l0.072,0.013l0.014,0.1l0.015,0.097l0.098,0.236l0.101,0.237l0.028,0.021
	l0.029,0.02l0.096,0.163l0.094,0.161l0.233,0.313l0.232,0.309l0.026,0.021l0.024,0.02l0.227,0.298l0.224,0.294l0.16,0.213
	l0.157,0.21l0.276,0.412l0.277,0.414l0.136,0.305l0.136,0.305l0.058,0.117l0.059,0.122l0.157,0.572l0.158,0.571l0.065,0.217
	l0.064,0.218l0.074,0.191l0.072,0.194v0.048v0.052l0.061,0.113l0.06,0.114v0.061l0.001,0.057l0.057,0.112l0.059,0.11l0.037,0.124
	l0.038,0.129l0.078,0.206l0.078,0.206l0.09,0.149l0.089,0.149l0.094,0.113l0.092,0.115l0.207,0.166l0.205,0.166l0.209,0.125
	l0.207,0.123l0.147,0.04l0.148,0.036l0.236,0.057l0.235,0.062l0.344,0.047l0.344,0.05l0.485-0.052l0.486-0.05l0.296-0.073
	l0.296-0.071l0.036,0.033l0.033,0.033l-0.015,0.07l-0.012,0.067l-0.198,0.054l-0.197,0.055l-0.396,0.097l-0.395,0.098l-0.256,0.063
	l-0.259,0.06l-0.177,0.021l-0.177,0.02l-0.154,0.04l-0.152,0.038l-0.517,0.078l-0.521,0.078l-0.532,0.017l-0.534,0.016l-0.255-0.025
	L53.458,41.625z M78.311,41.545l-0.512-0.069l-0.276-0.047l-0.277-0.05l-0.316-0.071l-0.314-0.072l-0.315-0.071l-0.316-0.068
	l-0.308-0.095l-0.309-0.091H75.31h-0.059v-0.054V40.8l0.055-0.045l0.055-0.043l0.352,0.083l0.351,0.087l0.731,0.001l0.73,0.002
	l0.372-0.106l0.375-0.104l0.218-0.11l0.214-0.109l0.229-0.182l0.228-0.183l0.151-0.192l0.147-0.193l0.087-0.178l0.087-0.177
	l0.161-0.474l0.163-0.476l0.101-0.314l0.099-0.314l0.071-0.218l0.073-0.216l0.066-0.276l0.068-0.276l0.08-0.256l0.081-0.258
	l0.097-0.237l0.097-0.236l0.119-0.238l0.12-0.234l0.288-0.436l0.289-0.436l0.073-0.078l0.074-0.078l0.167-0.234l0.168-0.239
	l0.218-0.274l0.218-0.276l0.228-0.316l0.227-0.315l0.103-0.215l0.1-0.22l0.051-0.166l0.05-0.166h0.098h0.097l-0.026,0.088
	l-0.023,0.088l-0.059,0.296l-0.058,0.298v1.096l0.003,1.098l-0.02,0.032l-0.021,0.026l-0.007,0.194l-0.008,0.196L83.2,35.521
	l-0.055,0.238l-0.021,0.098l-0.024,0.1l-0.071,0.236l-0.07,0.238l-0.185,0.387l-0.183,0.39l-0.073,0.106l-0.07,0.104l-0.181,0.268
	l-0.182,0.273l-0.128,0.143l-0.127,0.144l-0.329,0.36l-0.327,0.361v0.039v0.042l0.038,0.023l0.038,0.023l0.348-0.308l0.348-0.308
	l0.225-0.168l0.225-0.168h0.026h0.025l0.32-0.193l0.323-0.192l0.216-0.087l0.216-0.09l0.139-0.05l0.138-0.053l0.216-0.082
	l0.218-0.08l0.196-0.062l0.198-0.063l0.76-0.253l0.76-0.255l0.188-0.102l0.188-0.104l0.251-0.199l0.253-0.2l0.065-0.114l0.064-0.115
	h0.045h0.043l0.054,0.059l0.048,0.062l-0.098,0.108l-0.099,0.106l-0.337,0.514l-0.338,0.514l-0.291,0.381l-0.291,0.379l-0.336,0.409
	l-0.336,0.409l-0.494,0.494l-0.492,0.494l-0.397,0.299l-0.402,0.296l-0.288,0.185l-0.291,0.185L82.5,40.908l-0.355,0.164
	l-0.395,0.15l-0.395,0.152l-0.119,0.023l-0.12,0.023l-0.095,0.021l-0.1,0.023l-0.236,0.03l-0.236,0.031l-0.275,0.043l-0.278,0.042
	l-0.532-0.005l-0.533-0.002l-0.513-0.069L78.311,41.545z M68.323,39.245l-0.078-0.043l-0.068-0.073l-0.069-0.07l-0.077-0.197
	l-0.078-0.195l-0.083-0.349l-0.081-0.348l-0.017-0.063l-0.019-0.062l-0.078-0.086l-0.082-0.085h-0.855H65.88l-0.126,0.074
	l-0.125,0.078l-0.06,0.09l-0.06,0.089l-0.08,0.301l-0.078,0.298l-0.034,0.096l-0.038,0.099l-0.002,0.02v0.019l-0.069,0.145
	l-0.07,0.146l-0.151,0.066l-0.152,0.07l-0.327-0.023l-0.325-0.025l-0.158-0.021l-0.159-0.021l-0.411-0.078l-0.414-0.078
	l-0.094-0.088l-0.093-0.088l-0.046-0.08l-0.046-0.078l-0.019-0.73l-0.021-0.731l-0.177-0.087l-0.177-0.086l-0.296-0.088
	l-0.298-0.087l-0.347-0.13l-0.346-0.133h-0.068h-0.07l-0.119,0.073l-0.12,0.071l-0.089,0.116l-0.09,0.113l-0.173,0.27l-0.172,0.268
	l-0.073,0.082l-0.072,0.081l-0.155,0.078l-0.153,0.078l-0.122-0.02L59.481,37.8l-0.315-0.146l-0.315-0.147l-0.286-0.172
	l-0.284-0.173h-0.034h-0.035l-0.162-0.138l-0.16-0.138l-0.027-0.15l-0.024-0.147l0.157-0.413l0.156-0.414l0.063-0.119l0.063-0.12
	v-0.166v-0.166l-0.134-0.137l-0.137-0.135l-0.269-0.188l-0.267-0.189l-0.141-0.127l-0.138-0.128l-0.169-0.087l-0.167-0.088
	l-0.162,0.025l-0.159,0.024l-0.333,0.256l-0.332,0.258l-0.127,0.078l-0.13,0.079h-0.167h-0.169l-0.107-0.057l-0.106-0.057
	l-0.337-0.35l-0.339-0.348l-0.294-0.349l-0.295-0.352l-0.037-0.053l-0.039-0.055l0.414-0.425l0.415-0.427l0.753-0.78l0.755-0.778
	h0.02H56.1l0.146,0.187l0.146,0.189l0.205,0.231l0.206,0.235l0.473,0.477l0.477,0.476l0.355,0.302l0.354,0.305l0.216,0.158
	l0.217,0.159l0.198,0.142l0.197,0.142l0.217,0.143l0.215,0.14l0.277,0.16l0.276,0.161l0.375,0.188l0.374,0.187l0.216,0.099
	l0.217,0.101l0.217,0.085l0.214,0.087l0.099,0.041l0.1,0.04l0.457,0.151l0.459,0.153l0.311,0.075l0.311,0.074l0.316,0.065
	l0.315,0.063l0.336,0.063l0.336,0.062l0.829,0.063l0.83,0.062l0.79-0.049l0.79-0.046l0.336-0.061l0.335-0.056l0.218-0.035
	l0.218-0.033l0.303-0.063l0.304-0.063l0.229-0.058l0.23-0.061l0.178-0.06l0.177-0.06l0.216-0.07l0.217-0.068l0.02-0.003l0.021-0.002
	l0.335-0.13l0.338-0.129l0.374-0.16l0.374-0.161l0.321-0.168l0.319-0.168l0.266-0.161l0.267-0.161h0.014h0.013l0.227-0.151
	l0.229-0.148l0.315-0.223l0.316-0.228l0.263-0.21l0.263-0.208l0.27-0.221l0.268-0.225l0.476-0.487l0.474-0.487l0.265-0.298
	l0.265-0.296l1.146,1.156l1.146,1.157v0.041v0.042l-0.365,0.416l-0.364,0.417l-0.256,0.263l-0.257,0.265l-0.168,0.104l-0.168,0.106
	h-0.141h-0.139l-0.147-0.098l-0.148-0.099l-0.314-0.263l-0.315-0.261l-0.123-0.062l-0.122-0.059l-0.126,0.065l-0.126,0.066
	l-0.162,0.146L76.1,34.412l-0.17,0.118l-0.17,0.12l-0.313,0.226l-0.311,0.229l-0.023,0.062L75.09,35.23v0.106v0.108l0.185,0.45
	l0.183,0.453l0.017,0.164l0.017,0.166l-0.088,0.155l-0.087,0.156l-0.204,0.121l-0.204,0.12l-0.102,0.053l-0.104,0.054l-0.452,0.225
	l-0.449,0.223l-0.126,0.023l-0.123,0.023l-0.132-0.057l-0.133-0.057l-0.104-0.115l-0.104-0.113l-0.093-0.141l-0.094-0.144
	l-0.141-0.214l-0.144-0.213l-0.083-0.073l-0.083-0.075l-0.189,0.02l-0.189,0.019l-0.257,0.099l-0.258,0.098l-0.235,0.071
	l-0.238,0.07l-0.178,0.062l-0.176,0.063l-0.11,0.107l-0.107,0.108v0.682v0.681l-0.158,0.149l-0.158,0.151l-0.148,0.024l-0.149,0.025
	l-0.214,0.057l-0.219,0.053l-0.275,0.022l-0.278,0.021l-0.136,0.038l-0.14,0.036l-0.12-0.001h-0.116l-0.08-0.047L68.323,39.245z
	 M49.881,36.892l-0.162-0.185l-0.07-0.109l-0.07-0.108l-0.185-0.112l-0.184-0.112l-0.335-0.107l-0.335-0.105l-0.237-0.074
	L48.066,35.9l-0.376-0.134l-0.375-0.137l-0.436-0.227l-0.433-0.228l-0.359-0.268l-0.357-0.27l-0.216-0.234l-0.218-0.234
	l-0.174-0.233l-0.175-0.23l-0.119-0.2l-0.118-0.194l-0.086-0.159l-0.086-0.158l-0.079-0.16l-0.078-0.157l-0.138-0.297l-0.135-0.297
	l-0.118-0.373l-0.119-0.374L43.79,31.04l-0.081-0.296l-0.077-0.336l-0.076-0.336l-0.066-0.314l-0.065-0.316l-0.072-0.296
	l-0.073-0.298L43.253,28.7l-0.022-0.146l0.042-0.007l0.041-0.006l0.041-0.006l0.044-0.002l0.071,0.205l0.072,0.205l0.125,0.244
	l0.123,0.244l0.163,0.241l0.163,0.243l0.232,0.303l0.232,0.301l0.309,0.27l0.308,0.27l0.156,0.124l0.155,0.125l0.356,0.241
	l0.356,0.241l0.431,0.424l0.434,0.426l0.291,0.383l0.292,0.384l0.144,0.246l0.143,0.246l0.087,0.014l0.088,0.015v-0.02v-0.021
	l-0.142-0.248l-0.14-0.25l-0.156-0.322l-0.154-0.326l-0.075-0.346l-0.077-0.348l-0.045-0.355l-0.044-0.353l0.061-0.574l0.058-0.572
	l0.046-0.178l0.046-0.176l0.05-0.139l0.051-0.138l0.225-0.71l0.225-0.712l0.039-0.118l0.038-0.121l0.096-0.388l0.095-0.386v-0.254
	v-0.257h0.094h0.091l0.024,0.208l0.025,0.209v0.158l0.001,0.158l0.073,0.276l0.073,0.274l0.038,0.1l0.039,0.1l0.003,0.027
	l0.002,0.029l0.063,0.148l0.063,0.149l0.072,0.214l0.072,0.217l0.064,0.218l0.065,0.216l0.04,0.236l0.041,0.238l0.042,0.236
	l0.042,0.235l-0.001,0.849v0.852l-0.062,0.374l-0.06,0.372l-0.068,0.436l-0.069,0.435v0.454l0.002,0.455l0.067,0.356l0.07,0.354
	l0.06,0.197l0.063,0.196l0.1,0.238l0.1,0.234l0.131,0.197l0.13,0.198l0.16,0.227l0.159,0.226v0.035v0.035l-0.05,0.043l-0.053,0.043
	l-0.158-0.188L49.881,36.892z M83.333,37.015l-0.026-0.024v-0.059v-0.06l0.137-0.165l0.134-0.164l0.12-0.198l0.12-0.194l0.114-0.236
	l0.115-0.236l0.102-0.355l0.101-0.356l0.049-0.44l0.05-0.438l-0.052-0.508l-0.052-0.509l-0.057-0.256l-0.058-0.258l-0.06-0.812
	l-0.063-0.807l0.05-0.573l0.05-0.572l0.093-0.414l0.094-0.414l0.064-0.196l0.063-0.198l0.05-0.119l0.053-0.119l0.137-0.436
	l0.138-0.434v-0.061v-0.059l0.027-0.277l0.024-0.273l0.017-0.09l0.019-0.088h0.073h0.071l0.026,0.317l0.025,0.315l0.043,0.17
	l0.045,0.164l0.059,0.215l0.06,0.22l0.211,0.63l0.21,0.633l0.119,0.396l0.12,0.397l0.042,0.215l0.045,0.216l0.041,0.414l0.042,0.414
	l-0.021,0.198l-0.025,0.196l-0.062,0.335l-0.06,0.336l-0.04,0.16l-0.04,0.161l-0.076,0.177l-0.078,0.178l-0.106,0.209l-0.105,0.213
	l-0.091,0.18l-0.092,0.18l0.043,0.043l0.045,0.045l0.097-0.119l0.095-0.12l0.002-0.04v-0.038l0.187-0.277l0.188-0.278l0.281-0.354
	l0.282-0.354l0.324-0.296l0.326-0.298l0.063-0.035l0.064-0.034l0.1-0.085l0.099-0.089l0.188-0.107l0.188-0.108l-0.023-0.047
	l-0.025-0.048l0.028,0.026l0.028,0.025l0.185-0.137l0.184-0.135l0.344-0.317l0.343-0.316l0.121-0.185l0.118-0.185l0.09-0.118
	l0.088-0.114l0.089-0.14l0.088-0.144l0.133-0.259l0.133-0.257l0.09-0.226l0.095-0.228h0.023l0.021,0.003l0.05,0.028l0.051,0.031
	l-0.056,0.254l-0.055,0.257l-0.04,0.156l-0.043,0.158l-0.021,0.153l-0.025,0.151l-0.057,0.244l-0.053,0.246l-0.099,0.414
	l-0.098,0.412l-0.143,0.489l-0.144,0.484l-0.035,0.066l-0.031,0.066l-0.113,0.258l-0.111,0.256l-0.192,0.376l-0.193,0.374
	l-0.106,0.158l-0.104,0.159l-0.151,0.215l-0.15,0.218l-0.242,0.253l-0.243,0.251l-0.364,0.272l-0.364,0.273l-0.426,0.218
	l-0.424,0.218l-0.436,0.151l-0.434,0.152l-0.179,0.057l-0.178,0.059l-0.236,0.073l-0.235,0.071l-0.021,0.005l-0.021,0.003
	l-0.161,0.082l-0.156,0.085l-0.1,0.093l-0.099,0.095l-0.173,0.245l-0.178,0.251h-0.047h-0.047L83.333,37.015L83.333,37.015z
	 M46.587,30.981l-0.038-0.106v-0.029v-0.028l-0.192-0.273l-0.192-0.272l-0.31-0.281l-0.312-0.277l-0.259-0.194l-0.256-0.193
	l-0.508-0.513l-0.506-0.51l-0.144-0.221l-0.142-0.222l-0.065-0.118l-0.066-0.119l-0.139-0.257l-0.142-0.259l-0.139-0.336
	l-0.142-0.338l-0.058-0.175l-0.059-0.175l-0.079-0.334l-0.081-0.335l-0.043-0.366l-0.041-0.365l-0.022-0.499l-0.023-0.5l0.04-0.341
	l0.041-0.339l0.023-0.296l0.02-0.298l0.042-0.238l0.044-0.236l0.034-0.297l0.035-0.296l0.026-0.264l0.027-0.267h0.088h0.088
	L43.139,21.1l-0.004,0.287l0.046,0.217l0.05,0.218l0.034,0.078l0.035,0.08l0.185,0.473l0.187,0.474l0.139,0.296l0.14,0.296
	l0.177,0.297l0.174,0.296l0.102,0.158l0.1,0.158l0.072,0.106l0.071,0.106l0.087,0.151l0.087,0.151l0.107,0.216l0.107,0.216
	l0.102,0.215l0.102,0.217l0.144,0.374l0.144,0.378l0.038,0.256l0.037,0.258l0.023,0.07l0.025,0.067h0.045h0.047v-0.72V25.77
	l0.072-0.297l0.072-0.295l0.063-0.215l0.063-0.213l0.207-0.405l0.208-0.407l0.095-0.17l0.098-0.169l0.132-0.218l0.131-0.216
	l0.025-0.02l0.023-0.021l0.081-0.141l0.082-0.142l0.291-0.396l0.291-0.397l0.18-0.253l0.18-0.25l0.119-0.199l0.122-0.197
	l0.072-0.208l0.072-0.208h0.069h0.068l0.017,0.03l0.019,0.03l-0.072,0.355l-0.072,0.354l-0.023,0.928l-0.022,0.93l-0.063,0.414
	l-0.061,0.417l-0.078,0.374L48.12,24.94l-0.073,0.257l-0.074,0.255l-0.063,0.218l-0.064,0.219l-0.057,0.127l-0.057,0.131v0.041
	v0.041l-0.063,0.146l-0.062,0.143l-0.074,0.162l-0.073,0.154l-0.161,0.396l-0.16,0.396L47.1,27.695l-0.038,0.07v0.045v0.049
	l-0.074,0.159l-0.073,0.161l-0.043,0.119l-0.043,0.12l-0.039,0.158l-0.037,0.157l-0.041,0.158l-0.043,0.16l-0.059,0.379
	l-0.059,0.381l0.042,0.351l0.04,0.352l0.079,0.204l0.08,0.205l-0.014,0.071l-0.013,0.073l-0.069,0.013l-0.068,0.014L46.587,30.981
	L46.587,30.981z M86.629,31.007l-0.053-0.035l0.045-0.08l0.043-0.083l0.078-0.327l0.08-0.328v-0.296V29.56l-0.059-0.219
	l-0.058-0.219v-0.097v-0.101l-0.132-0.413L86.443,28.1l-0.146-0.355l-0.148-0.357l-0.053-0.118l-0.054-0.12l-0.138-0.314
	l-0.138-0.317l-0.09-0.234l-0.087-0.237l-0.054-0.139l-0.053-0.139l-0.137-0.512l-0.135-0.513l-0.062-0.296l-0.062-0.297
	l-0.081-0.535l-0.08-0.536v-0.788l-0.001-0.789l-0.07-0.276l-0.07-0.276v-0.098l0.002-0.099l0.083-0.013l0.085-0.012l0.025,0.14
	l0.024,0.141l0.167,0.286l0.162,0.286l0.18,0.244l0.18,0.245l0.2,0.279l0.196,0.279l0.147,0.187l0.149,0.186v0.046v0.045
	l0.062,0.052l0.063,0.052l0.082,0.16l0.079,0.161l0.03,0.02l0.028,0.021l0.064,0.138l0.063,0.138l0.158,0.276l0.154,0.276
	l0.127,0.297l0.123,0.297l0.095,0.374l0.091,0.375v0.741v0.74h0.057h0.059l0.019-0.032l0.02-0.027l0.023-0.238l0.023-0.236
	l0.078-0.236l0.081-0.234l0.045-0.098l0.043-0.098l0.035-0.078l0.033-0.08l0.125-0.298l0.126-0.296l0.139-0.256l0.136-0.257
	l0.243-0.377l0.241-0.378l0.05-0.076l0.05-0.077l0.241-0.494l0.241-0.494l0.035-0.078l0.034-0.079l0.099-0.257l0.098-0.256
	l0.105-0.316l0.106-0.316l0.005-0.346l0.001-0.347h0.082h0.083l0.047,0.445l0.051,0.444l0.057,0.301l0.059,0.302l0.04,0.39
	l0.04,0.39l0.023,0.672l0.022,0.671l-0.048,0.395l-0.047,0.395l-0.063,0.337l-0.065,0.336l-0.116,0.355l-0.116,0.354l-0.097,0.217
	l-0.098,0.218l-0.106,0.216l-0.106,0.219l-0.028,0.013l-0.028,0.013v0.041v0.037l-0.135,0.205l-0.132,0.205l-0.031,0.066
	l-0.033,0.063l-0.217,0.252l-0.214,0.252l-0.298,0.289l-0.3,0.292l-0.493,0.407l-0.494,0.405l-0.161,0.174l-0.161,0.173
	l-0.125,0.197l-0.125,0.203l-0.043,0.123l-0.045,0.125h-0.045l-0.047-0.002l-0.053-0.031L86.629,31.007z M64.5,30.304l-0.026-0.025
	v-0.367v-0.369h0.396h0.397l0.152-0.08l0.154-0.078l0.076-0.11l0.074-0.107l0.067-0.145l0.065-0.145v-6.316v-6.317l-0.156-0.157
	l-0.16-0.159l-0.123-0.024l-0.122-0.024h-0.43h-0.43v-0.376v-0.375h2.389h2.39v0.369v0.373l-0.485,0.013l-0.482,0.015l-0.133,0.093
	l-0.134,0.095l-0.095,0.201l-0.093,0.203l0.002,6.12v6.121l0.053,0.226l0.054,0.225l0.064,0.1l0.068,0.1l0.154,0.078l0.156,0.08
	h0.438h0.436v0.396v0.395h-2.342h-2.343l-0.026-0.023H64.5V30.304z M51.262,28.84l-0.083-0.229l-0.149-0.473l-0.147-0.475
	l-0.054-0.175l-0.056-0.175v-0.281v-0.282l0.089-0.078l0.088-0.078l0.159-0.085l0.157-0.084h0.029h0.029l0.225-0.084l0.227-0.081
	l0.067-0.04l0.07-0.038h0.054h0.052l0.093-0.099l0.092-0.096l-0.026-0.25l-0.029-0.248l-0.001-0.078l-0.003-0.078l-0.088-0.63
	l-0.088-0.628l-0.085-0.069l-0.085-0.07l-0.207-0.044l-0.207-0.045l-0.315-0.033l-0.314-0.033l-0.103-0.04l-0.103-0.039
	l-0.104-0.123l-0.104-0.123l-0.037-0.136l-0.037-0.138l0.016-0.444l0.019-0.444l0.038-0.387l0.037-0.388l0.058-0.113l0.058-0.108
	l0.165-0.064l0.164-0.067l0.164-0.018l0.165-0.017l0.337-0.019l0.338-0.017l0.104-0.047l0.105-0.048l0.06-0.144l0.062-0.143
	l0.04-0.198l0.044-0.197l0.038-0.217l0.038-0.216l0.063-0.294l0.063-0.294l-0.025-0.151l-0.024-0.153l-0.154-0.097L52.081,18.8
	l-0.394-0.202l-0.396-0.203l-0.05-0.06l-0.05-0.06l-0.041-0.162l-0.043-0.164l0.036-0.187l0.033-0.187l0.153-0.406l0.153-0.407
	l0.069-0.158l0.067-0.155l0.064-0.131l0.064-0.129l0.094-0.062l0.094-0.063l0.243,0.001l0.242,0.001l0.236,0.077l0.237,0.077
	l0.222,0.05l0.223,0.05l0.101-0.025l0.101-0.023l0.076-0.108l0.075-0.11l0.139-0.256l0.138-0.257l0.087-0.159l0.089-0.157
	l0.111-0.198l0.11-0.198l0.025-0.122l0.025-0.121l-0.042-0.112l-0.048-0.11l-0.344-0.358l-0.346-0.358l-0.067-0.125l-0.068-0.122
	v-0.092v-0.095l0.09-0.177l0.089-0.177l0.288-0.375l0.287-0.374l0.234-0.247l0.236-0.247l0.067-0.004l0.067-0.003l0.123-0.001
	l0.122-0.001l0.283,0.172l0.284,0.173l0.068,0.04l0.068,0.039l0.175,0.13l0.172,0.129h0.131h0.127l0.604-0.547l0.605-0.546
	l0.058-0.069l0.057-0.071v-0.185l-0.003-0.184l-0.213-0.414l-0.213-0.414l-0.007-0.178l-0.007-0.177l0.09-0.157l0.089-0.154
	L57.748,9l0.271-0.195l0.123-0.072l0.123-0.073l0.296-0.167l0.297-0.169l0.162,0l0.161-0.001l0.097,0.051l0.095,0.051l0.298,0.382
	l0.296,0.382l0.135,0.131l0.134,0.131l0.143-0.02l0.143-0.021l0.198-0.083l0.197-0.084l0.118-0.065l0.119-0.065l0.006,0.007
	l0.007,0.008l0.147-0.065L61.461,9l0.242-0.114l0.244-0.113l0.063-0.156l0.062-0.155L62.01,8.036l-0.063-0.425l0.002-0.164
	l0.002-0.163l0.086-0.145l0.084-0.145l0.113-0.059l0.114-0.058l0.168-0.036l0.167-0.036l0.317-0.083l0.315-0.081l0.44-0.078
	l0.441-0.079h0.036h0.034l0.071,0.247l0.071,0.248l0.05,0.178l0.05,0.177l0.225,0.77l0.226,0.77l0.052,0.177l0.05,0.178l0.063,0.234
	l0.063,0.235l-0.028,0.03L65.132,9.76L64.93,9.78l-0.204,0.019l-0.488,0.102L63.748,10l-0.216,0.056l-0.218,0.057l-0.437,0.137
	l-0.432,0.14l-0.198,0.072l-0.198,0.075l-0.257,0.111l-0.257,0.111l-0.374,0.174l-0.376,0.176l-0.331,0.185l-0.331,0.184
	l-0.162,0.091l-0.159,0.09l-0.024,0.027l-0.023,0.028l-0.214,0.131l-0.216,0.132l-0.473,0.36L58.376,12.7l-0.771,0.762l-0.772,0.762
	l-0.275,0.358l-0.276,0.36l-0.319,0.462l-0.319,0.464l-0.134,0.233l-0.135,0.233l-0.107,0.198l-0.107,0.198l-0.173,0.356
	l-0.173,0.356l-0.088,0.215l-0.091,0.218l-0.052,0.123l-0.052,0.12l-0.124,0.348l-0.124,0.347l-0.036,0.106l-0.033,0.108
	l-0.103,0.347l-0.104,0.348l-0.017,0.126l-0.018,0.125l-0.038,0.103l-0.039,0.104l-0.088,0.508l-0.09,0.509l-0.007,0.138
	l-0.007,0.138l-0.054,0.374l-0.055,0.376l0.001,0.829l0.002,0.831l0.052,0.447l0.049,0.446l0.008,0.125l0.007,0.124l0.068,0.415
	l0.068,0.415l0.061,0.234l0.062,0.234l0.008,0.081l0.005,0.08l0.069,0.236l0.068,0.237l0.057,0.178l0.057,0.177l0.001,0.06
	l0.001,0.061l0.076,0.158l0.075,0.157l0.001,0.044l0.002,0.043l0.057,0.116l0.056,0.114l0.014,0.096l0.014,0.096l-0.277,0.068
	l-0.276,0.068l-0.235,0.068l-0.236,0.066l-0.227,0.057l-0.227,0.055l-0.227,0.055l-0.226,0.055l-0.238,0.064l-0.237,0.067
	l-0.375,0.095l-0.374,0.097h-0.019h-0.026l-0.083-0.225L51.262,28.84z M81.807,29.021l-0.138-0.042L81.353,28.9l-0.316-0.082
	l-0.195-0.052l-0.198-0.054l-0.494-0.123l-0.494-0.124l-0.14-0.033l-0.138-0.034l-0.276-0.066l-0.275-0.066l-0.016-0.012
	l-0.013-0.012l0.06-0.131l0.057-0.131l0.068-0.178l0.069-0.176l0.128-0.395l0.13-0.396l0.08-0.316l0.08-0.314l0.078-0.357
	l0.076-0.354l0.047-0.276l0.046-0.277l0.054-0.573l0.057-0.571v-0.806v-0.804l-0.04-0.359l-0.043-0.359l-0.057-0.399l-0.062-0.394
	l-0.08-0.356l-0.078-0.356l-0.099-0.37l-0.095-0.37l-0.039-0.074l-0.04-0.074l0.017-0.028l0.017-0.029l-0.075-0.155l-0.08-0.156
	v-0.07v-0.07l-0.033-0.022l-0.033-0.022l-0.026-0.109l-0.025-0.109l-0.179-0.414l-0.18-0.414l-0.127-0.257l-0.128-0.259
	l-0.143-0.257l-0.142-0.257l-0.065-0.118l-0.06-0.12l-0.118-0.177l-0.118-0.178l-0.067-0.112l-0.07-0.114l-0.189-0.263l-0.188-0.263
	l-0.166-0.213l-0.168-0.213l-0.281-0.34l-0.28-0.341l-0.569-0.552l-0.566-0.55l-0.33-0.255l-0.329-0.256l-0.225-0.168l-0.223-0.169
	l-0.18-0.116l-0.176-0.115l-0.158-0.115l-0.16-0.115l-0.058-0.023l-0.06-0.025l-0.155-0.097l-0.158-0.099l-0.748-0.373l-0.75-0.37
	l-0.374-0.147l-0.374-0.146l-0.414-0.128l-0.416-0.13l-0.236-0.063l-0.237-0.062L69.11,9.858l-0.276-0.064l-0.138-0.018L68.56,9.76
	l-0.191-0.045l-0.189-0.046l0.024-0.062l0.027-0.066l0.051-0.177l0.056-0.178l0.058-0.216l0.061-0.217l0.081-0.297l0.081-0.296
	l0.057-0.198l0.057-0.198l0.066-0.236l0.067-0.237l0.069-0.235l0.07-0.237l0.045-0.168l0.046-0.167h0.035h0.033l0.391,0.08
	l0.39,0.079l0.119,0.024l0.118,0.025l0.469,0.134l0.47,0.135l0.09,0.068l0.09,0.068l0.064,0.108l0.064,0.109l-0.007,0.208
	l-0.006,0.208l-0.073,0.354l-0.071,0.354V8.57v0.134L71.368,8.8l0.095,0.098h0.045h0.045l0.145,0.062l0.145,0.063l0.135,0.067
	l0.135,0.066l0.021,0.002l0.023,0.002l0.154,0.067l0.155,0.067h0.013h0.014l0.239,0.11l0.245,0.119h0.117h0.12l0.185-0.191
	l0.185-0.193l0.223-0.296l0.222-0.295l0.102-0.045l0.102-0.045h0.166l0.166,0l0.1,0.058l0.099,0.058l0.058,0.027l0.062,0.027
	l0.156,0.106l0.16,0.106l0.396,0.261l0.396,0.259l0.097,0.131l0.097,0.129l-0.003,0.2l-0.002,0.196l-0.218,0.456l-0.218,0.454
	l-0.023,0.099l-0.023,0.099l0.09,0.126l0.09,0.127l0.563,0.511l0.564,0.515l0.133,0.023l0.133,0.025l0.076-0.025l0.077-0.023
	l0.45-0.279l0.451-0.279l0.156-0.006l0.159-0.006l0.125,0.052l0.125,0.053l0.229,0.266l0.23,0.269l0.078,0.093l0.078,0.093
	l0.246,0.326l0.248,0.324v0.171v0.171l-0.114,0.154l-0.113,0.155l-0.361,0.355l-0.358,0.355v0.136v0.135l0.234,0.379l0.229,0.379
	l0.083,0.138l0.081,0.138l0.057,0.119l0.055,0.119l0.144,0.137l0.145,0.135h0.146h0.146l0.396-0.106l0.396-0.105l0.193-0.001h0.194
	l0.145,0.151l0.144,0.152l0.072,0.155l0.073,0.154l0.073,0.198l0.077,0.198l0.156,0.434l0.154,0.434l-0.02,0.096l-0.023,0.1
	l-0.097,0.125l-0.097,0.127l-0.225,0.13l-0.226,0.13l-0.236,0.096l-0.238,0.095l-0.105,0.12l-0.11,0.122l-0.002,0.16v0.161
	l0.075,0.313l0.075,0.313l0.04,0.217l0.043,0.216l0.024,0.167l0.027,0.168l0.074,0.098l0.075,0.096l0.128,0.041l0.126,0.042
	l0.479,0.035l0.478,0.035l0.112,0.054l0.113,0.055l0.111,0.179l0.111,0.18l0.039,0.234l0.039,0.235v0.565v0.567l-0.064,0.138
	l-0.071,0.135l-0.085,0.063l-0.088,0.057l-0.132,0.039l-0.133,0.041l-0.48,0.052L81.702,24l-0.095,0.062l-0.094,0.063l-0.046,0.212
	l-0.045,0.211l-0.04,0.315l-0.042,0.316l-0.026,0.375l-0.026,0.375l0.101,0.118l0.101,0.118l0.133,0.066l0.131,0.068l0.297,0.111
	l0.296,0.111l0.166,0.16l0.163,0.158l0.029,0.152l0.028,0.152l-0.143,0.502l-0.146,0.496l-0.166,0.465l-0.168,0.462l-0.078-0.002
	l-0.078-0.005l-0.139-0.038h-0.008V29.021L81.807,29.021z M59.321,28.627l-0.435-0.076l-0.197-0.063l-0.197-0.063l-0.284-0.139
	l-0.283-0.141l-0.191-0.153l-0.19-0.153l-0.25-0.207l-0.25-0.208l-0.292-0.384l-0.292-0.383l-0.194-0.408l-0.196-0.405l-0.107-0.336
	l-0.107-0.335l-0.028-0.04l-0.029-0.038l0.001-0.063v-0.063l-0.063-0.273l-0.065-0.272l-0.04-0.496l-0.042-0.494v-0.493v-0.494
	l0.042-0.495l0.04-0.494l0.045-0.256l0.043-0.256l0.073-0.277l0.073-0.277l0.037-0.146l0.037-0.147l0.167-0.385l0.165-0.385
	l0.178-0.317l0.178-0.318l0.265-0.316l0.264-0.315l0.114-0.1l0.113-0.1l0.158-0.12l0.159-0.12l0.271-0.163l0.27-0.163l0.29-0.12
	l0.289-0.119l0.148-0.021l0.154-0.025l0.268-0.055l0.27-0.057h0.284h0.287l0.41,0.078l0.411,0.078l0.245,0.078l0.245,0.077
	l0.072,0.037l0.072,0.037l0.217,0.111l0.216,0.11l0.218,0.148l0.215,0.148l0.34,0.33l0.339,0.328l0.16,0.237l0.16,0.239l0.142,0.277
	l0.142,0.277l0.097,0.254l0.095,0.255l0.004,0.039l0.003,0.039l0.057,0.16l0.055,0.158l0.068,0.296l0.068,0.297l0.014,0.119
	l0.015,0.12l0.049,0.276l0.05,0.277v1.066v1.066l-0.052,0.202l-0.052,0.202l-0.008,0.114l-0.006,0.115l-0.068,0.276l-0.068,0.273
	l-0.058,0.183l-0.058,0.182v0.048v0.047l-0.146,0.343l-0.146,0.342l-0.131,0.208l-0.132,0.208v0.019v0.021l-0.271,0.365
	l-0.273,0.365l-0.229,0.221l-0.23,0.217l-0.234,0.174l-0.235,0.172l-0.391,0.176l-0.393,0.169l-0.12,0.021l-0.124,0.023
	l-0.314,0.057L60.39,28.71l-0.316-0.003l-0.313-0.004L59.321,28.627L59.321,28.627z M60.701,27.939l0.21-0.061l0.251-0.15
	l0.253-0.154l0.208-0.251l0.209-0.253l0.133-0.275l0.134-0.277l0.04-0.136l0.039-0.14l0.054-0.176l0.054-0.178v-3.14v-3.136
	l-0.056-0.296l-0.055-0.296l-0.029-0.08l-0.028-0.078l-0.05-0.138l-0.051-0.139l-0.138-0.185l-0.138-0.186l-0.206-0.185
	l-0.207-0.185l-0.155-0.057l-0.153-0.056l-0.403-0.097l-0.405-0.098h-0.168h-0.167l-0.239,0.06l-0.235,0.06l-0.039,0.012l-0.04,0.01
	l-0.197,0.075l-0.198,0.073l-0.141,0.086l-0.141,0.086l-0.175,0.198l-0.176,0.196l-0.086,0.171l-0.087,0.173l-0.1,0.277
	l-0.102,0.276l-0.06,0.351l-0.06,0.35v2.874v2.873l0.081,0.357l0.082,0.354l0.185,0.32l0.185,0.318l0.154,0.18l0.153,0.184
	l0.217,0.143l0.215,0.145l0.144,0.075l0.143,0.075l0.177,0.048l0.179,0.052l0.39,0.005l0.389,0.001l0.208-0.061V27.939z
	 M71.146,28.197V27.84h0.331h0.33l0.125-0.023l0.123-0.024l0.078-0.149l0.076-0.151v-4.701v-4.701h-0.226l-0.227,0.001l-0.275,0.072
	l-0.276,0.072l-0.277,0.141l-0.278,0.141l-0.209,0.215l-0.21,0.216l-0.135,0.274l-0.133,0.274l-0.08,0.517l-0.079,0.516v0.26v0.26
	h-0.336h-0.335v-1.816V17.42h4.006h4.008v1.795v1.796h-0.311h-0.311L76.5,20.605L76.474,20.2l-0.063-0.314l-0.063-0.316
	l-0.135-0.297l-0.131-0.296l-0.227-0.229l-0.225-0.228l-0.237-0.133l-0.238-0.133l-0.349-0.083l-0.352-0.086l-0.143,0.013
	l-0.143,0.012l-0.009,4.68l-0.007,4.677l0.07,0.137l0.069,0.139l0.118,0.055l0.12,0.061l0.384,0.017l0.386,0.015v0.331v0.333h-2.073
	h-2.072L71.146,28.197z M45.313,24.339l-0.023-0.308l-0.059-0.167l-0.062-0.168h0.018h0.018l-0.132-0.286l-0.129-0.287l-0.149-0.315
	l-0.147-0.316l-0.275-0.571l-0.274-0.574l-0.133-0.412l-0.129-0.416l-0.072-0.296l-0.072-0.296v-0.928v-0.928l0.074-0.316
	l0.073-0.316l0.15-0.414l0.148-0.413l0.088-0.218l0.085-0.216l0.058-0.156l0.056-0.156l0.094-0.2l0.092-0.2l0.29-0.669l0.292-0.673
	l0.042-0.075l0.044-0.075L45.341,14l0.062,0.022v0.07v0.071l-0.062,0.113l-0.06,0.115l-0.057,0.333l-0.057,0.336v0.221v0.223
	l0.075,0.531l0.076,0.533l0.06,0.375l0.058,0.374l0.06,0.258l0.06,0.257l0.071,0.335l0.072,0.336v0.831v0.829l-0.069,0.243
	l-0.069,0.243v0.106v0.105l0.066-0.012l0.067-0.014l0.056-0.271l0.054-0.271l0.114-0.311l0.115-0.313l0.225-0.324l0.226-0.323
	l0.359-0.379l0.361-0.378l0.512-0.467l0.512-0.468l0.561-0.55l0.56-0.549l0.071-0.132l0.072-0.133h0.068h0.068l0.023,0.036
	l0.022,0.036l-0.135,0.271l-0.143,0.265l-0.055,0.158l-0.057,0.157l-0.102,0.296l-0.1,0.296l-0.068,0.236l-0.07,0.238l-0.106,0.334
	l-0.11,0.337l-0.104,0.32l-0.106,0.32l-0.294,0.587l-0.294,0.585l-0.279,0.334l-0.28,0.336l-0.243,0.259l-0.243,0.256l-0.335,0.377
	l-0.335,0.377l-0.087,0.103l-0.086,0.103l-0.158,0.289l-0.158,0.289l-0.076,0.225L45.57,23.61L45.546,24l-0.026,0.388l-0.023,0.128
	l-0.021,0.128h-0.07h-0.07L45.313,24.339z M87.871,24.515l-0.02-0.128l-0.047-0.454l-0.048-0.455l-0.028-0.039L87.7,23.401
	l-0.048-0.158l-0.051-0.16l-0.141-0.237l-0.142-0.237l-0.194-0.237l-0.194-0.237l-0.423-0.456l-0.423-0.454L85.85,20.95
	l-0.233-0.276l-0.123-0.16l-0.124-0.159L85.146,19.9l-0.225-0.454l-0.034-0.068l-0.033-0.07l-0.163-0.504l-0.163-0.503l-0.071-0.197
	l-0.07-0.197l-0.066-0.237l-0.066-0.238l-0.033-0.1l-0.035-0.098l-0.143-0.395l-0.146-0.395l-0.1-0.185l-0.101-0.185l0.023-0.063
	l0.021-0.061l0.054,0.001l0.05,0l0.131,0.196l0.132,0.194l0.279,0.268l0.279,0.269l0.476,0.457l0.478,0.458l0.277,0.253l0.278,0.253
	l0.405,0.434l0.404,0.434l0.138,0.218l0.135,0.216l0.083,0.177l0.084,0.178l0.079,0.257l0.08,0.258l0.023,0.177l0.026,0.177
	l0.07,0.014l0.067,0.013v-0.119v-0.118l-0.067-0.25l-0.068-0.25l-0.004-0.75v-0.749l0.07-0.374l0.071-0.376l0.073-0.314l0.073-0.316
	l0.066-0.456l0.066-0.454l0.062-0.374l0.062-0.375l-0.024-0.396l-0.021-0.396l-0.061-0.216l-0.06-0.216l-0.05-0.128l-0.052-0.127
	l0.045-0.045l0.047-0.044l0.053,0.02l0.052,0.021l0.429,1.001l0.43,1.001l0.088,0.218l0.088,0.216l0.12,0.315l0.119,0.315
	l0.052,0.16l0.049,0.158l0.09,0.395l0.088,0.396l-0.007,0.888l-0.007,0.887l-0.069,0.276l-0.07,0.274l-0.097,0.338l-0.098,0.336
	l-0.035,0.036l-0.033,0.037v0.049v0.051l-0.18,0.366l-0.183,0.367l-0.09,0.217l-0.093,0.218L88.49,23l-0.203,0.434l-0.036,0.068
	l-0.042,0.066l-0.08,0.358l-0.078,0.355v0.178v0.178h-0.076h-0.076l-0.021-0.129h-0.007V24.515z M86.775,17.596l-0.128-0.259
	l-0.188-0.212l-0.19-0.213l-0.354-0.237l-0.354-0.237l-0.27-0.124l-0.266-0.123l-0.044-0.027l-0.045-0.031l-0.173-0.115
	l-0.173-0.115l-0.298-0.246l-0.296-0.246l-0.218-0.234l-0.218-0.235l-0.221-0.257l-0.225-0.257l-0.213-0.313l-0.211-0.313
	l-0.177-0.276l-0.173-0.276l-0.071-0.12L82.2,13.013l-0.078-0.158l-0.079-0.157l-0.156-0.215l-0.156-0.214l-0.162-0.17l-0.156-0.169
	v-0.022v-0.023l0.054-0.053l0.053-0.054l0.29,0.253l0.289,0.254h0.048h0.049l0.254,0.114l0.255,0.114l0.313,0.108l0.313,0.109
	l0.314,0.155l0.315,0.155l0.077,0.049l0.074,0.047l0.08,0.058l0.078,0.058l0.34,0.302l0.339,0.302l0.21,0.239l0.211,0.239
	l0.118,0.182l0.116,0.183l0.121,0.245l0.123,0.246l0.017,0.017l0.019,0.019l0.053-0.059l0.054-0.056L85.8,14.713l-0.188-0.396
	L85.5,14.042l-0.108-0.277l-0.074-0.236l-0.078-0.237l-0.062-0.276l-0.061-0.277l-0.034-0.178l-0.033-0.178l-0.082-0.649
	l-0.08-0.652l-0.053-0.335l-0.054-0.337l-0.126-0.375L84.53,9.66l-0.038-0.08l-0.04-0.078l-0.038-0.111l-0.04-0.109l-0.138-0.217
	l-0.14-0.216V8.814V8.779l0.068-0.025l0.069-0.027l0.099,0.129l0.098,0.128l0.357,0.405l0.356,0.404l0.313,0.365l0.318,0.365
	l0.218,0.278l0.221,0.279l0.167,0.254l0.168,0.254l0.156,0.288l0.161,0.289l0.076,0.208l0.076,0.209l0.084,0.257l0.081,0.257
	l0.007,0.078l0.007,0.078l0.043,0.233l0.045,0.235v0.367v0.368l-0.06,0.365l-0.061,0.365l-0.057,0.237l-0.055,0.235l-0.064,0.396
	l-0.065,0.394l-0.005,0.456l-0.008,0.454l0.078,0.209l0.074,0.211l-0.056,0.037l-0.059,0.037h-0.035l-0.028,0.001l-0.126-0.259
	L86.775,17.596z M46.293,17.777l-0.024-0.038l0.079-0.237l0.081-0.238l-0.015-0.446l-0.01-0.446l-0.068-0.357l-0.068-0.356
	l-0.054-0.258l-0.053-0.252l-0.066-0.368l-0.068-0.368l0.021-0.481l0.018-0.481l0.065-0.296l0.066-0.297l0.139-0.375l0.138-0.374
	l0.075-0.138l0.074-0.138l0.062-0.12l0.063-0.119l0.146-0.222l0.147-0.222l0.175-0.231l0.175-0.231l0.397-0.471l0.397-0.471
	l0.141-0.141l0.141-0.142l0.308-0.366l0.308-0.365h0.054h0.053l0.023,0.039l0.023,0.039l-0.12,0.169l-0.115,0.168L48.93,9.307
	l-0.065,0.157l-0.078,0.197L48.71,9.858l-0.072,0.235l-0.074,0.237l-0.08,0.473l-0.081,0.475l-0.062,0.572l-0.062,0.573
	l-0.086,0.375l-0.084,0.374l-0.089,0.297l-0.09,0.296l-0.064,0.178l-0.064,0.178l-0.061,0.138l-0.063,0.139l-0.17,0.343
	l-0.169,0.343l0.058,0.046l0.058,0.048l0.007-0.017l0.006-0.015l0.073-0.12l0.075-0.118l0.008-0.051l0.007-0.047l0.127-0.206
	l0.124-0.207l0.283-0.316l0.282-0.316l0.313-0.278l0.313-0.275l0.181-0.119l0.179-0.119l0.274-0.132l0.275-0.132l0.278-0.091
	l0.278-0.092l0.257-0.115l0.257-0.116l0.102-0.025l0.103-0.024l0.263-0.243l0.265-0.24l0.057,0.048l0.059,0.048v0.025v0.024
	l-0.258,0.293l-0.257,0.292v0.036v0.036l-0.093,0.126l-0.093,0.125l-0.143,0.255l-0.146,0.258l-0.087,0.147l-0.086,0.147
	l-0.072,0.082l-0.07,0.083l-0.035,0.085l-0.033,0.085l-0.209,0.276l-0.206,0.276l-0.396,0.447l-0.396,0.446l-0.073,0.052
	l-0.073,0.053l-0.147,0.136l-0.147,0.136l-0.297,0.197l-0.295,0.198l-0.158,0.073l-0.158,0.073l-0.059,0.033l-0.061,0.032
	l-0.082,0.037l-0.083,0.037l-0.303,0.205l-0.306,0.207l-0.218,0.24l-0.217,0.241l-0.104,0.229l-0.105,0.227h-0.068h-0.067
	L46.293,17.777z M84.035,12.373l-0.321-0.305l-0.173-0.086l-0.175-0.086l-0.412-0.177l-0.416-0.177l-0.274-0.084l-0.277-0.082
	l-0.118-0.055l-0.12-0.053l-0.355-0.151l-0.356-0.149l-0.369-0.213l-0.369-0.213l-0.301-0.22l-0.301-0.22L78.71,9.11l-0.987-0.99
	l-0.078-0.047l-0.078-0.046l0.067-0.07l0.068-0.071l0.07,0.061l0.071,0.062l0.178,0.08l0.177,0.082l0.1,0.025l0.098,0.024
	l0.14,0.054l0.137,0.054l0.376,0.063l0.374,0.065l0.314,0.083l0.315,0.083l0.258,0.097l0.257,0.097l0.038,0.036l0.038,0.035h0.053
	h0.054l0.322,0.206l0.323,0.206l0.119,0.095l0.12,0.095l0.48,0.451l0.479,0.451h0.042h0.045V10.34v-0.051l-0.064-0.098l-0.065-0.097
	L82.4,9.937l-0.149-0.158l-0.276-0.356l-0.276-0.357l-0.301-0.441L81.1,8.182V8.167V8.151L80.95,7.879l-0.149-0.272l-0.113-0.276
	l-0.111-0.276l-0.071-0.16l-0.07-0.158L80.323,6.5l-0.111-0.236l-0.193-0.246l-0.192-0.247h-0.035h-0.033V5.695V5.621l0.063-0.024
	l0.064-0.024l0.227,0.208l0.226,0.209l0.423,0.236l0.421,0.237l0.344,0.255l0.346,0.254l0.251,0.219l0.255,0.22l0.206,0.216
	l0.208,0.215l0.133,0.178l0.135,0.177l0.059,0.12l0.062,0.119l0.045,0.079l0.045,0.078l0.175,0.376l0.171,0.374l0.083,0.276
	l0.082,0.277l0.062,0.307l0.062,0.308l0.039,0.503l0.04,0.501l0.044,0.179l0.039,0.178l0.085,0.174l0.087,0.173l0.066,0.071
	l0.064,0.07l0.066,0.102l0.068,0.102l-0.023,0.059l-0.022,0.059l-0.052-0.001l-0.052-0.002L84.035,12.373L84.035,12.373z
	 M48.864,12.616l-0.025-0.026v-0.043v-0.045l0.096-0.104l0.099-0.106l0.114-0.212l0.115-0.21l0.043-0.197l0.043-0.198l0.021-0.177
	l0.021-0.178l0.023-0.335l0.023-0.336l0.057-0.296l0.058-0.296l0.065-0.218l0.063-0.216l0.064-0.155l0.064-0.152l0.205-0.423
	l0.204-0.425l0.146-0.212l0.145-0.212l0.321-0.33l0.321-0.329l0.314-0.245l0.315-0.244l0.276-0.181l0.277-0.182L52.71,6.12
	l0.373-0.211l0.187-0.173l0.187-0.174l0.061,0.024l0.061,0.024v0.058v0.057l-0.092,0.073l-0.092,0.071L53.244,6.06l-0.146,0.192
	l-0.102,0.223l-0.101,0.224l-0.056,0.118l-0.056,0.119l-0.156,0.378l-0.157,0.378l-0.196,0.333l-0.198,0.332L51.994,8.51
	l-0.083,0.151l-0.213,0.283l-0.213,0.284l-0.051,0.059l-0.053,0.058l-0.194,0.258l-0.195,0.257l-0.17,0.186l-0.169,0.185v0.058
	v0.055l0.053,0.022l0.054,0.021l0.143-0.169l0.142-0.169l0.405-0.353l0.407-0.352l0.139-0.097l0.136-0.097l0.067-0.039l0.068-0.038
	l0.172-0.099l0.17-0.101l0.177-0.073l0.179-0.073l0.118-0.05l0.12-0.051l0.296-0.078l0.297-0.079l0.355-0.064l0.354-0.065
	l0.278-0.081l0.276-0.081l0.289-0.135l0.287-0.135l0.038,0.023l0.037,0.023v0.034v0.036l-0.222,0.209l-0.222,0.21l-0.774,0.784
	l-0.774,0.783l-0.297,0.223l-0.297,0.224l-0.216,0.138l-0.216,0.138l-0.417,0.199l-0.415,0.205l-0.336,0.135l-0.335,0.134
	l-0.33,0.107l-0.329,0.106l-0.263,0.121l-0.263,0.119l-0.168,0.086l-0.166,0.084l-0.355,0.306l-0.358,0.307h-0.034h-0.035
	L48.864,12.616z M80.378,8.302l-0.135-0.119l-0.334-0.156l-0.333-0.154l-0.355-0.124l-0.356-0.124l-0.078-0.019L78.708,7.59
	l-0.315-0.119L78.076,7.35h-0.034h-0.035L77.7,7.211l-0.302-0.139l-0.061-0.038l-0.062-0.037l-0.234-0.124L76.806,6.75L76.51,6.508
	l-0.298-0.241l-0.02-0.025l-0.023-0.022l-0.447-0.422l-0.444-0.423l-0.275-0.176L74.728,5.02h-0.038H74.65l-0.022-0.038
	l-0.023-0.038l0.041-0.078l0.042-0.078l0.208,0.11l0.206,0.111l0.27,0.068l0.27,0.067l0.4,0.036l0.402,0.037l0.316,0l0.315-0.001
	l0.218,0.046l0.215,0.047l0.138,0.029l0.14,0.032l0.158,0.059l0.16,0.061l0.244,0.14l0.244,0.139l0.175,0.121l0.175,0.12
	l0.216,0.219l0.22,0.22l0.175,0.264l0.175,0.266l0.116,0.196l0.113,0.198l0.083,0.177l0.083,0.178l0.064,0.053l0.066,0.054v0.051
	v0.051l0.18,0.157l0.177,0.155v0.04v0.04l-0.055,0.046L80.499,8.42l-0.135-0.118h0.016l0,0H80.378z M52.739,8.312L52.678,8.25
	l0.225-0.225L53.127,7.8l0.146-0.295l0.147-0.292l0.193-0.316L53.81,6.58l0.309-0.324l0.308-0.326l0.177-0.104l0.177-0.104
	l0.161-0.088l0.16-0.088l0.098-0.05l0.097-0.052l0.072-0.035l0.07-0.034l0.186-0.039l0.186-0.037l0.198-0.036l0.194-0.04L56.8,5.199
	l0.598-0.024l0.392-0.08l0.388-0.082l0.205-0.111l0.206-0.109l0.041,0.041l0.042,0.042v0.051v0.05l-0.188,0.097L58.295,5.17
	l-0.206,0.154l-0.205,0.155l-0.525,0.505l-0.526,0.504l-0.275,0.185L56.28,6.859l-0.118,0.06l-0.119,0.06l-0.138,0.076l-0.138,0.077
	l-0.217,0.082l-0.218,0.087l-0.394,0.145L54.543,7.59l-0.118,0.021l-0.118,0.021l-0.04,0.03l-0.037,0.031l-0.297,0.102l-0.297,0.1
	l-0.197,0.087l-0.197,0.088l-0.178,0.124l-0.178,0.125l-0.043,0.027L52.8,8.372L52.739,8.312z"/>
</svg>
