<?xml version="1.0" encoding="utf-8"?>
<!-- Generator: Adobe Illustrator 14.0.0, SVG Export Plug-In . SVG Version: 6.00 Build 43363)  -->
<!DOCTYPE svg PUBLIC "-//W3C//DTD SVG 1.1//EN" "http://www.w3.org/Graphics/SVG/1.1/DTD/svg11.dtd">
<svg version="1.1" id="Camada_1" xmlns="http://www.w3.org/2000/svg" xmlns:xlink="http://www.w3.org/1999/xlink" x="0px" y="0px"
	 width="119.833px" height="50px" viewBox="0 0 119.833 50" enable-background="new 0 0 119.833 50" xml:space="preserve">
<g>
	<path fill-rule="evenodd" clip-rule="evenodd" fill="#FFFFFF" d="M12.08,0.617c0,1.308,0,2.633,0,3.969c0,1.409,0.13,2.837,0,3.967
		c0,0-0.09,0.028-0.094,0.094c-0.012,0.219,0.012,0.313-0.095,0.474c-0.022,0.034-0.062,0.255-0.094,0.283
		c-0.011,0.01-0.088-0.014-0.094,0c-0.019,0.034,0.028,0.165,0,0.188c-0.012,0.009-0.089-0.012-0.095,0
		c-0.016,0.034,0.027,0.167,0,0.189c-0.125,0.102-0.404,0.518-0.566,0.661c-0.088,0.076-0.237,0.094-0.378,0.188
		c-0.102,0.068-0.224,0.255-0.283,0.283c-0.111,0.053-0.384,0.042-0.568,0.095c-0.026,0.008-0.004,0.09-0.094,0.095
		c-0.035,0.002-0.264-0.025-0.283,0c-0.241,0.294-2.548,0.094-3.496,0.094c-1.193,0-2.366,0-3.4,0
		C2.58,9.857,2.439,8.567,2.633,7.514c0.013-0.069-0.046-0.333,0-0.379c0.006-0.006,0.093,0.008,0.094,0
		c0.065-0.313,0.044-0.716,0.189-0.944c0.06-0.093,0.062-0.148,0.094-0.283C3.032,5.823,3.122,5.63,3.199,5.435
		c0.029-0.071,0.048-0.188,0.095-0.283c0.031-0.063,0.16-0.136,0.189-0.188C3.541,4.854,3.52,4.774,3.578,4.68
		C3.616,4.617,3.73,4.547,3.767,4.491C3.853,4.352,3.913,4.185,4.05,4.019c0.095-0.117,0.136-0.315,0.283-0.472
		c0.072-0.077,0.272-0.146,0.378-0.283c0.044-0.057,0.042-0.23,0.095-0.283c0.101-0.104,0.346-0.167,0.472-0.283
		c0.145-0.135,0.227-0.254,0.377-0.379c0.12-0.1,0.229-0.179,0.378-0.283c0.055-0.038,0.139-0.162,0.189-0.189
		C6.331,1.788,6.411,1.807,6.506,1.75c0.06-0.034,0.137-0.16,0.189-0.188c0.182-0.098,0.328-0.061,0.566-0.188
		c0.056-0.03,0.141-0.168,0.189-0.189C7.517,1.153,7.854,1.176,7.923,1.09c0.063-0.078,0.072-0.065,0.189-0.094
		c0.083-0.021,0.161-0.064,0.283-0.095C8.478,0.88,8.79,0.758,9.057,0.711c0.4-0.07,0.855-0.058,1.323-0.095
		C10.927,0.575,11.49,0.379,12.08,0.617z"/>
	<path fill-rule="evenodd" clip-rule="evenodd" fill="#FFFFFF" d="M13.687,0.522c8.601,0,18.687,0,27.774,0
		c0.827,0,1.556,0.006,2.456,0.095c0.196,0.02,0.244,0.077,0.378,0.095c0.311,0.043,0.589,0.024,0.85,0.094
		c0.025,0.008,0.007,0.091,0.094,0.096c0.025,0.001,0.072-0.01,0.095,0c0.09,0.035,0.271,0.11,0.473,0.189
		c0.136,0.052,0.245,0.027,0.378,0.094c0.058,0.029,0.14,0.165,0.189,0.189c0.213,0.101,0.433,0.159,0.661,0.283
		c0.109,0.06,0.17,0.127,0.283,0.188c0.066,0.036,0.207,0.043,0.283,0.095c0.081,0.056,0.11,0.229,0.188,0.283
		c0.092,0.063,0.205,0.025,0.284,0.095c0.209,0.184,0.408,0.43,0.661,0.662c0.064,0.059,0.129,0.126,0.19,0.188
		c0.185,0.188,0.365,0.415,0.566,0.661c0.104,0.129,0.158,0.271,0.283,0.473c0.039,0.062,0.154,0.132,0.189,0.188
		c0.021,0.034-0.03,0.164,0,0.189c0.125,0.103,0.168,0.165,0.283,0.377c0.042,0.08,0.04,0.186,0.094,0.284
		c0.028,0.051,0.172,0.146,0.189,0.189c0.022,0.054-0.015,0.132,0,0.188c0.021,0.083,0.064,0.163,0.094,0.283
		c0.02,0.082,0.085,0.064,0.095,0.095c0.109,0.34,0.111,0.558,0.188,0.944c0.007,0.03-0.021,0.172,0,0.189
		c0.142,0.115,0.17,0.834,0.189,1.229c0.041,0.855-0.031,1.778,0,2.74c-9.824,0-21.158,0-31.648,0c-1.481,0-3.225,0.155-4.156-0.284
		c-0.046-0.021,0.009-0.088-0.095-0.094c-0.178-0.009-0.655-0.449-0.85-0.661c-0.077-0.083-0.209-0.19-0.283-0.284
		c-0.026-0.034,0.031-0.164,0-0.189c-0.027-0.022-0.174-0.068-0.189-0.095c-0.021-0.035,0.029-0.165,0-0.188
		c-0.098-0.081-0.117-0.249-0.188-0.567c-0.005-0.019-0.091-0.013-0.095-0.095c-0.103-1.95,0.134-4.521,0-6.613
		c-0.006-0.09,0.019-0.195,0-0.283c-0.026-0.122-0.126-0.4-0.095-0.755c-0.001,0.006,0.091-0.032,0.095-0.094
		c0.004-0.081-0.163-0.172,0-0.19C13.583,0.672,13.576,0.54,13.687,0.522z"/>
	<path fill-rule="evenodd" clip-rule="evenodd" fill="#FFFFFF" d="M2.633,12.426c2.243,0.132,4.33-0.176,6.612,0
		c0.063,0.005,0.338-0.04,0.378,0c0.008,0.007-0.008,0.092,0,0.094c0.071,0.016,0.331-0.047,0.379,0
		c0.009,0.009-0.011,0.091,0,0.094c0.136,0.045,0.247,0.028,0.378,0.095c0.065,0.034,0.132,0.155,0.188,0.188
		c0.034,0.022,0.165-0.03,0.189,0c0.074,0.093,0.146,0.25,0.283,0.378c0.141,0.132,0.338,0.206,0.472,0.378
		c0.061,0.078,0.047,0.206,0.095,0.284c0.036,0.058,0.162,0.137,0.189,0.189c0.019,0.035-0.028,0.166,0,0.189
		c0.322,0.264,0.276,1.329,0.283,2.079c0.108,10.241,0,20.74,0,30.986c0,0.724,0.077,1.415-0.094,2.079
		c-1.243-0.02-2.401-0.043-3.495-0.283c-0.018-0.004-0.014-0.092-0.095-0.096c-0.298-0.015-0.551-0.145-0.85-0.283
		c-0.074-0.033-0.191-0.045-0.284-0.094c-0.059-0.033-0.139-0.164-0.188-0.189c-0.156-0.078-0.394-0.094-0.567-0.189
		c-0.064-0.035-0.104-0.14-0.189-0.188c-0.068-0.042-0.203-0.042-0.283-0.096c-0.081-0.057-0.11-0.229-0.188-0.284
		c-0.091-0.063-0.204-0.024-0.283-0.094c-0.133-0.114-0.244-0.255-0.378-0.377c-0.129-0.119-0.252-0.241-0.378-0.379
		c-0.189-0.207-0.366-0.394-0.566-0.661c-0.199-0.266-0.53-0.74-0.756-1.135c-0.047-0.08-0.041-0.18-0.096-0.283
		c-0.029-0.055-0.167-0.141-0.188-0.188c-0.063-0.139-0.13-0.395-0.189-0.568c-0.064-0.189-0.141-0.39-0.188-0.566
		c-0.091-0.334-0.129-0.559-0.188-0.943c-0.01-0.061,0.015-0.131,0-0.189c-0.209-0.837-0.095-2.581-0.095-3.874
		c0-7.999,0-18.069,0-25.791C2.53,12.575,2.522,12.442,2.633,12.426z"/>
	<path fill-rule="evenodd" clip-rule="evenodd" fill="#FFFFFF" d="M51.097,12.426c-0.169,9.057,0.225,19.357,0,28.719
		c-0.012,0.496-0.029,0.873-0.095,1.322c-0.009,0.066,0.045,0.335,0,0.379c-0.006,0.007-0.093-0.008-0.095,0
		c-0.055,0.272-0.036,0.536-0.094,0.756c-0.002,0.006-0.081,0.035-0.094,0.094c-0.049,0.193-0.004,0.223-0.095,0.473
		c-0.013,0.035-0.089-0.002-0.094,0.094c-0.011,0.194-0.091,0.271-0.189,0.473c-0.037,0.076-0.043,0.189-0.094,0.283
		c-0.034,0.063-0.159,0.136-0.189,0.189c-0.358,0.637-0.733,1.247-1.323,1.794c-0.297,0.231-0.553,0.528-0.85,0.756
		c-0.072,0.056-0.126,0.142-0.188,0.19c-0.08,0.061-0.188,0.031-0.284,0.094c-0.061,0.041-0.132,0.154-0.189,0.189
		c-0.077,0.047-0.244,0.182-0.378,0.189c-0.044,0.002-0.137,0.07-0.188,0.094c-0.078,0.036-0.187,0.044-0.283,0.094
		c-0.063,0.032-0.137,0.161-0.189,0.189c-0.101,0.054-0.19,0.058-0.283,0.096c-0.299,0.116-0.622,0.177-1.04,0.283
		c-0.142,0.035-0.632,0.15-1.039,0.188c-0.174,0.016-0.369-0.025-0.567,0c-1.769,0.229-4.343,0.096-6.424,0.096
		c-7.3,0-14.742,0-22.106,0c-0.638,0-1.285,0.074-1.89-0.096c0-10.176,0-22.142,0-32.875c0-0.417-0.026-0.801,0-1.134
		c0.028-0.343,0.095-0.563,0.189-0.851c0.011-0.033-0.024-0.169,0-0.188c0.011-0.009,0.089,0.012,0.095,0
		c0.017-0.035-0.028-0.167,0-0.189c0.011-0.008,0.089,0.011,0.095,0c0.055-0.12,0.019-0.269,0.095-0.379
		c0.136-0.194,0.376-0.295,0.566-0.472c0.228-0.209,0.247-0.296,0.566-0.472c0.203-0.111,0.416-0.198,0.661-0.283
		c0.484-0.167,1.676-0.094,2.551-0.094C28.641,12.426,40.001,12.426,51.097,12.426z M26.345,16.678
		c-0.236,0.304-0.61,0.302-0.945,0.189c-0.279-0.095-0.556-0.19-0.85-0.283c-0.115-0.038-0.135-0.087-0.283-0.095
		c-0.086-0.004-0.071-0.089-0.094-0.094c-0.19-0.05-0.364-0.059-0.567-0.094c-0.665-0.121-1.656-0.103-2.173,0
		c-0.313,0.06-0.698,0.18-0.85,0.188c-0.104,0.006-0.049,0.072-0.094,0.095c-0.2,0.094-0.397,0.119-0.567,0.188
		c-0.214,0.087-0.366,0.215-0.473,0.284c-0.204,0.13-0.261,0.14-0.378,0.283c-0.025,0.031-0.155-0.026-0.188,0
		c-0.148,0.114-0.299,0.393-0.473,0.567c-0.182,0.181-0.433,0.3-0.566,0.472c-0.03,0.038,0.02,0.144,0,0.189
		c-0.031,0.07-0.183,0.068-0.189,0.188c-0.006,0.11-0.061,0.043-0.094,0.095c-0.585,0.905-1.052,2.319-0.945,3.591
		c0.072,0.853,0.489,1.98,0.85,2.55c0.07,0.11,0.209,0.18,0.283,0.283c0.1,0.138,0.111,0.291,0.189,0.378
		c0.171,0.191,0.352,0.327,0.472,0.472c0.025,0.032,0.156-0.025,0.189,0c0.205,0.159,0.347,0.469,0.661,0.473
		c-0.009,0.106,0.138,0.146,0,0.188c-0.799,0.019-1.828-0.023-2.55,0c-0.257,0.009-0.729-0.15-0.756,0.189
		c-0.069,0.3,0.279,0.173,0.377,0.189c0.642,0.106,1.124,0.097,1.417,0.566c0.286,0.458,0.189,1.591,0.189,2.739
		c0,2.01,0,3.984,0,5.857c0,0.949,0.155,2.818-0.094,3.023c-0.026,0.021,0.013,0.155,0,0.188c-0.063,0.16-0.287,0.564-0.378,0.569
		c-0.109,0.005-0.042,0.06-0.095,0.094c-0.173,0.112-0.282,0.179-0.472,0.189c-0.095,0.004-0.062,0.082-0.095,0.094
		c-0.374,0.126-0.934-0.271-0.851,0.377c0.087,0.186,0.309,0.089,0.473,0.096c1.262,0.049,2.854,0.085,3.968,0
		c0.133-0.011,0.532,0.12,0.472-0.189c-0.015-0.46-0.496-0.247-0.661-0.283c-0.589-0.134-0.735-0.205-1.04-0.566
		c-0.132-0.157-0.221-0.206-0.283-0.38c-0.031-0.084-0.088-0.231-0.095-0.283c-0.156-1.301,0-3.408,0-5.478
		c0-1.615-0.022-3.308,0-4.724c0.004-0.233-0.087-0.503,0.095-0.662c0.197,0.545,0.428,1.066,0.661,1.606
		c0.046,0.106,0.088,0.143,0.096,0.284c0.008,0.174,0.181,0.241,0.189,0.377c0.004,0.102,0.075,0.051,0.094,0.095
		c0.141,0.323,0.214,0.717,0.377,0.851c0.026,0.02-0.014,0.154,0,0.188c0.084,0.214,0.178,0.254,0.189,0.473
		c0.008,0.174,0.181,0.242,0.188,0.378c0.005,0.102,0.077,0.054,0.095,0.095c0.091,0.218,0.11,0.408,0.188,0.473
		c0.028,0.021-0.016,0.154,0,0.188c0.006,0.012,0.083-0.009,0.095,0c0.026,0.022-0.015,0.156,0,0.189
		c0.047,0.109,0.135,0.257,0.189,0.378c0.091,0.209,0.276,0.51,0.283,0.661c0.006,0.101,0.077,0.052,0.094,0.094
		c0.135,0.315,0.224,0.726,0.378,0.852c0.018,0.014,0.09,0.366,0.095,0.378c0.299,0.654,0.568,1.33,0.851,1.982
		c0.088,0.205,0.275,0.507,0.284,0.662c0.004,0.101,0.076,0.053,0.094,0.094c0.146,0.346,0.22,0.723,0.378,0.85
		c0.027,0.023-0.016,0.156,0,0.189c0.005,0.013,0.083-0.009,0.094,0c0.026,0.023-0.015,0.155,0,0.19
		c0.056,0.129,0.129,0.25,0.189,0.377c0.107,0.231,0.105,0.655,0.472,0.662c0.229-0.198,0.262-0.493,0.378-0.756
		c0.111-0.252,0.271-0.431,0.283-0.663c0.006-0.1,0.078-0.052,0.094-0.094c0.128-0.303,0.236-0.732,0.378-0.85
		c0.019-0.016,0.09-0.367,0.095-0.378c0.535-1.173,0.994-2.391,1.512-3.59c0.095-0.22,0.275-0.504,0.284-0.661
		c0.005-0.102,0.076-0.053,0.094-0.095c0.125-0.296,0.159-0.554,0.283-0.851c0.106-0.249,0.271-0.424,0.283-0.661
		c0.006-0.101,0.078-0.054,0.095-0.095c0.131-0.312,0.219-0.719,0.378-0.85c0.026-0.021-0.013-0.154,0-0.189
		c0.085-0.211,0.177-0.252,0.188-0.472c0.006-0.101,0.078-0.054,0.095-0.095c0.125-0.303,0.242-0.738,0.377-0.85
		c0.029-0.023-0.016-0.155,0-0.189c0.006-0.013,0.084,0.009,0.095,0c0.027-0.022-0.014-0.154,0-0.188
		c0.179-0.413,0.301-0.811,0.567-1.135c-0.178,2.964,0.233,7.684,0,10.958c-0.03,0.423-0.083,0.594-0.283,0.757
		c-0.032,0.026,0.029,0.159,0,0.189c-0.034,0.033-0.25,0.078-0.284,0.094c-0.084,0.043-0.03,0.087-0.189,0.096
		c-0.084,0.004-0.073,0.089-0.094,0.094c-0.253,0.063-0.596-0.13-0.756,0.094c-0.247-0.025-0.472-0.031-0.377,0.283
		c0.149,0.176,0.634,0.093,0.85,0.096c1.886,0.024,4.033,0.1,5.763,0c0.179-0.011,0.83,0.183,0.756-0.283
		c0.016-0.374-0.145,0.029-0.284-0.189c-0.623,0.088-1.273-0.113-1.511-0.566c-0.087-0.164-0.061-0.359-0.094-0.663
		c-0.078-0.689-0.094-1.467-0.094-2.266c0-2.739-0.196-6.024,0.094-8.502c0.041-0.354,0.005-0.607,0.094-0.757
		c0.035-0.06,0.383-0.383,0.378-0.377c0.063-0.077,0.416-0.077,0.472-0.096c0.392-0.123,0.903,0.019,1.039-0.283
		c-0.208-0.31-0.698-0.177-1.039-0.189c-0.868-0.033-1.683,0.019-2.457,0c-0.5-0.011-0.935,0.032-1.228-0.095
		c-0.026-0.012-0.064-0.166-0.095-0.188c-0.11-0.082-0.274-0.006-0.283-0.188c-0.006-0.102-0.076-0.051-0.094-0.095
		c-0.098-0.226-0.072-0.354-0.095-0.567c-0.014-0.129-0.085-0.2-0.094-0.283c-0.111-0.922,0-2.212,0-3.401
		c0-0.904-0.012-1.809,0-2.551c0.004-0.261-0.081-0.561,0.094-0.755c0.582,0.618,1.065,1.323,1.605,1.984
		c0.056,0.068,0.129,0.109,0.189,0.189c0.073,0.097,0.115,0.189,0.189,0.283c0.146,0.183,0.559,0.512,0.568,0.661
		c0.005,0.116,0.228,0.309,0.283,0.379c0.138,0.172,0.337,0.308,0.472,0.472c0.066,0.079,0.03,0.191,0.094,0.283
		c0.118,0.169,0.369,0.196,0.378,0.378c0.006,0.115,0.229,0.31,0.283,0.377c0.147,0.18,0.559,0.514,0.567,0.661
		c0.005,0.11,0.055,0.042,0.094,0.095c0.214,0.285,0.373,0.518,0.567,0.755c0.123,0.15,0.561,0.538,0.567,0.661
		c0.006,0.11,0.054,0.041,0.094,0.094c0.22,0.295,0.469,0.535,0.567,0.851c-0.248-0.025-0.473-0.031-0.377,0.284
		c0.015,0.103,0.086,0.073,0.188,0.095c0.357,0.071,0.573,0.062,0.85,0.189c0.026,0.331,0.352-0.237,0.378,0.094
		c0.55,0.321,0.521,0.844,0.567,1.7c0.025,0.472,0,1.038,0,1.606c0,2.569,0.129,5.427,0,7.841c-0.053,0.995-0.121,1.426-0.567,1.7
		c-0.142,0.089-0.333,0.147-0.472,0.189c-0.3,0.091-0.989-0.262-0.944,0.377c0.017,0.14,0.228,0.089,0.377,0.096
		c1.975,0.094,4.314,0.091,6.141,0c0.262-0.014,0.618,0.129,0.755-0.189c-0.073-0.021-0.109-0.079-0.094-0.189
		c-0.074-0.021-0.187-0.003-0.189-0.094c-0.679,0.033-1.222-0.031-1.512-0.473c-0.325-0.495-0.189-1.627-0.189-2.646
		c0-0.795-0.012-1.547,0-2.172c0.005-0.254-0.085-0.528,0.094-0.661c0.611-0.026,1.151,0.034,1.701,0
		c0.929-0.058,2.424-0.255,2.834-0.756c0.023-0.028,0.154,0.016,0.189,0c0.011-0.006-0.01-0.085,0-0.095
		c0.024-0.03,0.153,0.021,0.188,0c0.063-0.041,0.199-0.217,0.283-0.284c0.379-0.306,0.521-0.487,0.756-0.851
		c0.185-0.285,0.396-0.645,0.472-0.943c0.13-0.515,0.085-1.342,0-1.701c-0.043-0.186,0.026-0.279-0.094-0.377
		c-0.027-0.023,0.016-0.155,0-0.189c-0.006-0.013-0.083,0.009-0.095,0c-0.027-0.023,0.017-0.154,0-0.189
		c-0.088-0.177-0.274-0.305-0.283-0.471c-0.011-0.201-0.333-0.332-0.378-0.38c-0.056-0.06-0.092-0.278-0.188-0.283
		c-0.11-0.006-0.043-0.061-0.095-0.094c-0.22-0.144-0.567-0.462-0.756-0.473c-0.174-0.009-0.241-0.183-0.378-0.189
		c-0.097-0.005-0.057-0.079-0.094-0.094c-0.119-0.044-0.313-0.052-0.474-0.095c-2.1-0.555-5.032-0.169-7.651-0.284
		c0-2.121,0-4.891,0-7.085c0-0.862-0.126-1.821,0.094-2.361c-0.001,0.004,0.079-0.071,0.094-0.094
		c0.043-0.068,0.042-0.134,0.095-0.189c0.135,0.017,0.201-0.063,0.283-0.094c0.333-0.132,0.851-0.099,0.85-0.473
		c-0.273-0.247-0.841-0.013-0.944,0c-0.094,0.012-0.112-0.088-0.188-0.094c-0.947-0.088-1.549,0.125-2.173,0
		c-0.206-0.017-0.3,0.078-0.283,0.283c0.015,0.154,0.232,0.068,0.377,0.094c0.159,0.028,0.235,0.039,0.379,0.095
		c0.967,0.377,0.756,1.687,0.756,3.117c0,1.075,0,2.127,0,2.93c-0.292-0.159-0.438-0.479-0.661-0.755
		c-0.107-0.132-0.266-0.234-0.378-0.379c-0.097-0.124-0.174-0.333-0.284-0.472c-0.106-0.133-0.265-0.231-0.378-0.378
		c-0.103-0.133-0.173-0.332-0.283-0.472c-0.114-0.146-0.274-0.241-0.378-0.379c-0.113-0.15-0.17-0.327-0.283-0.472
		c-0.103-0.13-0.258-0.227-0.378-0.377c-0.058-0.072-0.14-0.125-0.189-0.189c-0.059-0.076-0.031-0.204-0.094-0.284
		c-0.095-0.117-0.259-0.238-0.378-0.377c-0.116-0.135-0.283-0.26-0.378-0.378c-0.06-0.075-0.042-0.214-0.094-0.283
		c-0.047-0.062-0.134-0.12-0.189-0.189c-0.112-0.141-0.266-0.246-0.379-0.378c-0.15-0.178-0.173-0.355-0.283-0.472
		c-0.138-0.146-0.252-0.211-0.472-0.283c-0.095-0.032-0.07,0.088-0.094,0.094c-0.087,0.023-0.119-0.091-0.189-0.094
		c-0.693-0.034-1.647-0.028-2.173,0c-0.073,0.003-0.088,0.092-0.094,0.094c-0.082,0.013-0.183-0.095-0.189-0.094
		c-0.324,0.019-0.85-0.155-0.85,0.283c0.015,0.102,0.086,0.074,0.189,0.094c0.284,0.057,0.339,0.025,0.567,0.095
		c0.029,0.009,0.151,0.164,0.188,0.189c0.297,0.192,0.479,0.446,0.662,0.755c-0.138,2.012,0.181,5.438,0,7.558
		c-0.032,0.374-0.091,0.792-0.19,0.945c-0.045,0.071-0.399,0.389-0.377,0.377c-0.143,0.068-0.193-0.015-0.283,0.095
		c-0.016,0.02-0.161-0.003-0.189,0c-0.317,0.039-0.595-0.092-0.567,0.284c0.287,0.281,1.225-0.092,1.511,0.188
		c-0.751,1.802-1.552,3.791-2.267,5.479c-0.251,0.593-0.439,1.191-0.661,1.7c-0.021,0.047-0.072,0.001-0.095,0.096
		c-0.014,0.056,0.022,0.136,0,0.188c-0.02,0.047-0.166,0.132-0.188,0.189c-0.023,0.054,0.013,0.134,0,0.19
		c-0.02,0.075-0.084,0.066-0.096,0.094c-0.141,0.355-0.109,0.613-0.377,0.85c-0.372-1.139-0.907-2.246-1.322-3.213
		c-0.097-0.223-0.261-0.568-0.284-0.66c-0.014-0.055,0.023-0.137,0-0.189c-0.02-0.045-0.164-0.133-0.188-0.189
		c-0.141-0.324-0.259-0.766-0.378-0.943c-0.063-0.095-0.063-0.155-0.094-0.283c-0.044-0.172-0.138-0.252-0.189-0.379
		c-0.098-0.24-0.258-0.557-0.284-0.66c-0.014-0.057,0.022-0.138,0-0.189c-0.02-0.047-0.165-0.132-0.189-0.189
		c-0.069-0.164-0.114-0.396-0.189-0.566c-0.156-0.361-0.352-0.743-0.472-1.134c0.48-0.029,1.462-0.014,1.606-0.189
		c0.019-0.022,0.157,0.009,0.189,0c0.278-0.077,0.446-0.134,0.661-0.188c0.247-0.061,0.625-0.297,0.756-0.379
		c0.075-0.045,0.203-0.184,0.283-0.188c0.187-0.009,0.219-0.274,0.378-0.283c0.082-0.004,0.666-0.578,0.662-0.567
		c0.098-0.248-0.07-0.416,0-0.755c-0.182-0.181-0.367,0.095-0.472,0.189c-0.135,0.119-0.238,0.354-0.379,0.472
		c-0.08,0.068-0.192,0.031-0.283,0.094c-0.079,0.054-0.108,0.228-0.189,0.283c-0.08,0.056-0.214,0.055-0.283,0.095
		c-0.025,0.016-0.05,0.066-0.095,0.095c-0.378,0.242-0.898,0.422-1.417,0.473c-0.504,0.051-1.213-0.027-1.512-0.095
		c-0.279-0.063-0.49-0.14-0.566-0.188c-0.068-0.044-0.127-0.051-0.189-0.095c-0.112-0.075-0.178-0.193-0.284-0.284
		c-0.203-0.172-0.42-0.356-0.566-0.566c-0.749-1.07-1.146-3.385-0.755-5.007c0.072-0.299,0.081-0.428,0.094-0.662
		c0.004-0.087,0.087-0.068,0.095-0.095c0.088-0.317,0.17-0.732,0.283-0.85c0.082-0.087,0.12-0.175,0.188-0.283
		c0.067-0.105,0.123-0.179,0.189-0.283c0.1-0.157,0.349-0.466,0.472-0.472c0.107-0.006,0.045-0.067,0.095-0.094
		c0.088-0.049,0.19-0.034,0.283-0.095c0.041-0.026,0.052-0.157,0.095-0.189c0.025-0.019,0.284-0.094,0.283-0.094
		c0.163-0.01,0.258-0.156,0.378-0.189c1.395-0.39,2.966,0.198,3.778,1.417c0.173,0.259,0.27,0.526,0.379,0.756
		c0.077,0.163-0.004,0.669,0.472,0.661c0.178-0.194,0.09-0.542,0.095-0.85c0.01-0.708,0.017-1.375,0-1.983
		c-0.011-0.34,0.144-0.878-0.189-0.85C26.296,16.228,26.433,16.563,26.345,16.678z"/>
	<path fill-rule="evenodd" clip-rule="evenodd" fill="#FFFFFF" d="M58.655,20.834c0.021,0.607,0.15,1.107,0.094,1.795
		c-0.234-0.125-0.257-0.449-0.379-0.662c-0.097-0.171-0.231-0.454-0.378-0.567c-0.032-0.025-0.162,0.031-0.188,0
		c-0.104-0.128-0.084-0.139-0.283-0.189c-0.086-0.021-0.218-0.035-0.473-0.094c-0.077-0.018-0.093-0.093-0.188-0.095
		c-0.154-0.002-0.161,0.073-0.283,0.095c-0.192,0.033-0.303-0.014-0.473,0.094c-0.107,0.069-0.197,0.107-0.283,0.189
		c-0.034,0.033-0.268,0.179-0.378,0.283c-0.031,0.029-0.173,0.162-0.189,0.189c-0.021,0.035,0.03,0.166,0,0.19
		c-0.205,0.168-0.409,1.165-0.378,1.7c0.021,0.347,0.063,0.827,0.188,1.133c0.145,0.348,0.494,0.829,0.662,0.944
		c0.034,0.023,0.164-0.03,0.189,0c0.009,0.011-0.013,0.089,0,0.094c0.034,0.018,0.166-0.026,0.188,0
		c0.063,0.078,0.072,0.066,0.189,0.095c0.095,0.024,0.632,0.159,1.039,0.095c0.364-0.057,0.761-0.295,1.038-0.566
		c0.124-0.121,0.144-0.45,0.474-0.472c0.002,0.244-0.211,0.368-0.379,0.566c-0.11,0.132-0.233,0.375-0.378,0.472
		c-0.114,0.078-0.25,0.03-0.378,0.095c-0.048,0.025-0.149,0.175-0.188,0.188c-0.082,0.03-0.197-0.018-0.283,0
		c-0.314,0.069-1.014,0.12-1.512,0c0,0-0.04-0.08-0.094-0.094c-0.172-0.043-0.359-0.139-0.568-0.284
		c-0.064-0.045-0.128-0.144-0.188-0.188c-0.152-0.111-0.282-0.236-0.472-0.567c-0.048-0.081-0.04-0.181-0.095-0.283
		c-0.028-0.053-0.17-0.145-0.189-0.189c-0.021-0.053,0.015-0.133,0-0.189c-0.06-0.24-0.208-1.173-0.094-1.7
		c-0.001,0.004,0.082-0.044,0.094-0.095c0.044-0.173,0.071-0.389,0.189-0.566c0.067-0.102,0.12-0.181,0.188-0.284
		c0.104-0.154,0.228-0.224,0.378-0.378c0.127-0.129,0.197-0.318,0.283-0.378c0.035-0.023,0.165,0.031,0.19,0
		c0.008-0.01-0.013-0.088,0-0.094c0.033-0.016,0.166,0.027,0.188,0c0.009-0.011-0.013-0.088,0-0.095
		c0.034-0.017,0.165,0.028,0.188,0c0.009-0.011-0.012-0.088,0-0.094c0.034-0.016,0.167,0.027,0.189,0
		c0.08-0.098,0.454-0.179,0.661-0.189c0.473-0.021,0.956,0.139,1.511,0.378C58.506,21.252,58.335,20.797,58.655,20.834z"/>
	<path fill-rule="evenodd" clip-rule="evenodd" fill="#FFFFFF" d="M60.827,22.441c0.01-0.003,0.026-0.084,0.094-0.095
		c0.328-0.054,0.806,0.036,1.04,0.095c0.114,0.028,0.279,0.026,0.378,0.094c0.034,0.023,0.064,0.175,0.095,0.189
		c0.043,0.019,0.151-0.03,0.188,0c0.096,0.079,0.271,0.372,0.378,0.567c0.219,0.396,0.355,0.64,0.283,1.322
		c-0.016,0.148-0.106,0.539-0.188,0.661c-0.022,0.034-0.062,0.257-0.095,0.284c-0.014,0.011-0.086-0.013-0.095,0
		c-0.09,0.148-0.14,0.328-0.188,0.377c-0.076,0.076-0.193,0.027-0.283,0.095c-0.041,0.031-0.056,0.167-0.095,0.189
		c-0.035,0.021-0.165-0.029-0.188,0c-0.01,0.011,0.011,0.089,0,0.095c-0.035,0.017-0.167-0.027-0.189,0
		c-0.099,0.121-0.162,0.038-0.473,0.094c-0.091,0.018-0.14,0.104-0.283,0.095c0.012,0.002-0.036-0.091-0.095-0.095
		c-0.227-0.012-0.298-0.05-0.473-0.094c-0.055-0.014-0.138,0.022-0.188,0c-0.044-0.02-0.06-0.172-0.095-0.189
		c-0.046-0.021-0.148,0.03-0.188,0c-0.018-0.013-0.166-0.233-0.283-0.378c-0.154-0.188-0.22-0.216-0.284-0.472
		c-0.021-0.083-0.063-0.161-0.094-0.283c-0.084-0.336-0.16-0.938,0-1.417c0.012-0.034,0.09-0.001,0.094-0.095
		c0.007-0.136,0.18-0.204,0.189-0.377c0.002-0.045,0.153-0.257,0.188-0.284c0.124-0.094,0.291-0.172,0.473-0.283
		C60.567,22.461,60.648,22.482,60.827,22.441z M60.827,22.63c-0.167,0.007-0.471,0.443-0.473,0.472
		c-0.006,0.103-0.072,0.049-0.094,0.094c-0.084,0.176-0.084,0.266-0.095,0.472c-0.004,0.076-0.093,0.083-0.095,0.095
		c-0.072,0.402-0.05,0.956,0,1.228c0.001,0.007,0.088-0.005,0.095,0c0.022,0.019-0.009,0.157,0,0.189
		c0.058,0.213,0.182,0.344,0.188,0.472c0.006,0.11,0.055,0.042,0.095,0.094c0.216,0.288,0.37,0.429,0.661,0.473
		c0.744,0.113,1.226-0.367,1.323-0.756c0.035-0.142,0.083-0.172,0.094-0.377c0.004-0.072,0.094-0.089,0.095-0.095
		c0.076-0.5-0.007-1.363-0.188-1.511c-0.026-0.021,0.013-0.155,0-0.188c-0.087-0.217-0.389-0.652-0.566-0.661
		c-0.089-0.006-0.068-0.087-0.096-0.095c-0.154-0.044-0.481-0.049-0.756,0c-0.08,0.013-0.066,0.085-0.095,0.095
		C60.896,22.637,60.854,22.628,60.827,22.63z"/>
	<path fill-rule="evenodd" clip-rule="evenodd" fill="#FFFFFF" d="M70.652,22.441c-0.038,0.402,0.091,0.973-0.095,1.228
		c-0.163-0.111-0.104-0.393-0.188-0.566c0.001,0.002-0.081-0.074-0.095-0.095c-0.144-0.216-0.216-0.264-0.567-0.377
		c-0.031-0.012-0.002-0.091-0.094-0.095c-0.426-0.022-0.774,0.061-0.944,0.567c0.044,0.066,0.061,0.106,0.095,0.189
		c0.013,0.034-0.027,0.167,0,0.188c0.034,0.028,0.167,0.18,0.188,0.189c0.043,0.019,0.153-0.03,0.188,0
		c0.045,0.038,0.05,0.156,0.095,0.189c0.033,0.024,0.163-0.032,0.188,0c0.012,0.013-0.014,0.085,0,0.094
		c0.034,0.023,0.164-0.03,0.189,0c0.024,0.03,0.065,0.17,0.094,0.189c0.034,0.022,0.165-0.03,0.189,0
		c0.01,0.012-0.012,0.089,0,0.095c0.034,0.016,0.166-0.027,0.189,0c0.052,0.063,0.153,0.176,0.283,0.283
		c0.141,0.118,0.252,0.181,0.377,0.378c0.037,0.057,0.176,0.57,0.095,0.85c0.016-0.054-0.354,0.483-0.472,0.567
		c-0.035,0.023-0.164-0.031-0.189,0c-0.047,0.059-0.335,0.179-0.473,0.188c-0.151,0.013-0.164-0.073-0.283-0.095
		c-0.225-0.038-0.578,0.042-0.755-0.188c-0.162-0.004-0.245,0.07-0.284,0.188c-0.216-0.184-0.036-0.886-0.095-1.322
		c0.206,0.204,0.267,0.551,0.379,0.849c0.128,0.013,0.193,0.04,0.283,0.095c0.036,0.022,0.162,0.183,0.188,0.189
		c0.797,0.215,1.519-0.406,1.039-1.039c-0.073-0.096-0.079-0.125-0.189-0.189c-0.146-0.085-0.279-0.172-0.472-0.283
		c-0.072-0.042-0.198-0.04-0.283-0.095c-0.123-0.079-0.237-0.275-0.378-0.377c-0.088-0.064-0.203-0.032-0.283-0.095
		c-0.095-0.072-0.216-0.285-0.284-0.472c-0.083-0.23-0.109-0.338,0-0.661c0.101-0.294,0.252-0.366,0.567-0.566
		c0.18-0.115,1.055-0.202,1.322,0.094C70.477,22.582,70.43,22.208,70.652,22.441z"/>
	<path fill-rule="evenodd" clip-rule="evenodd" fill="#FFFFFF" d="M74.431,22.441c0,0.283,0,0.566,0,0.85
		c-0.229-0.055-0.21-0.357-0.283-0.567c-0.109,0.015-0.168-0.021-0.189-0.094c-0.503,0-1.007,0-1.511,0c0,0.472,0,0.944,0,1.417
		c0.011,0.208,0.4,0.04,0.567,0.094c0.22,0,0.44,0,0.66,0c0.243-0.009,0.152-0.352,0.283-0.472c0.217,0.184,0.036,0.886,0.095,1.322
		c-0.173-0.142-0.222-0.408-0.378-0.566c-0.409,0-0.818,0-1.228,0c0,0.535,0,1.071,0,1.605c0.458,0.089,1.01,0.21,1.417,0.095
		c0.48-0.134,0.47-0.585,0.85-0.661c-0.146,0.296-0.201,0.682-0.378,0.944c-0.976,0-1.952,0-2.929,0
		c-0.012-0.326,0.479-0.15,0.474-0.473c0-1.038,0-2.077,0-3.116c0.063-0.262-0.605-0.264-0.379-0.377
		c0.151-0.082,0.412-0.007,0.662,0c0.498,0.011,1.123,0.013,1.7,0C74.087,22.435,74.301,22.354,74.431,22.441z"/>
	<path fill-rule="evenodd" clip-rule="evenodd" fill="#FFFFFF" d="M76.698,22.441c-0.131,0.151-0.467,0.1-0.566,0.283
		c0,1.101,0,2.204,0,3.305c0.397,0.094,0.929,0.195,1.321,0.095c0.481-0.123,0.688-0.502,0.852-0.85
		c0.184,0.106-0.032,0.374-0.095,0.567c-0.065,0.2-0.097,0.423-0.188,0.566c-1.008,0-2.016,0-3.023,0
		c0.138-0.207,0.505-0.188,0.566-0.473c0-1.038,0-2.077,0-3.116c-0.086-0.166-0.176-0.329-0.472-0.283
		c0.015-0.111,0.172-0.08,0.283-0.094c0.018-0.108,0.095-0.053,0.095,0C76.065,22.465,76.225,22.358,76.698,22.441z"/>
	<path fill-rule="evenodd" clip-rule="evenodd" fill="#FFFFFF" d="M80.288,22.441c-0.016,0.109-0.172,0.079-0.283,0.094
		c-0.218-0.029-0.104,0.272-0.283,0.283c0,0.44,0,0.881,0,1.322c0.427,0.202,1.216,0.044,1.795,0.095
		c0.211-0.041,0.038-0.466,0.095-0.661c0-0.252,0-0.504,0-0.756c-0.087-0.166-0.176-0.329-0.474-0.283
		c0.157-0.189,0.456-0.081,0.663-0.094c0.096-0.007,0.062-0.089,0.094-0.095c0.023-0.005,0.31,0.246,0.378,0
		c0.084,0.073,0.214,0.101,0.378,0.095c-0.115,0.136-0.361,0.143-0.473,0.283c0,1.101,0,2.204,0,3.305
		c-0.056,0.341,0.563,0.003,0.473,0.378c-0.536,0-1.071,0-1.606,0c0.011-0.242,0.353-0.15,0.473-0.283
		c-0.016-0.109,0.021-0.168,0.095-0.189c0-0.472,0-0.944,0-1.416c-0.428-0.202-1.216-0.044-1.796-0.094
		c-0.193,0.311-0.051,0.957-0.094,1.417c0.018,0.077,0.094,0.094,0.094,0.188c-0.056,0.341,0.564,0.003,0.473,0.378
		c-0.536,0-1.069,0-1.605,0c-0.091-0.342,0.407-0.095,0.473-0.283c0-1.133,0-2.267,0-3.4c-0.042-0.117-0.121-0.194-0.283-0.189
		c-0.17,0.026-0.194-0.09-0.096-0.094C79.143,22.312,79.694,22.516,80.288,22.441z"/>
	<path fill-rule="evenodd" clip-rule="evenodd" fill="#FFFFFF" d="M84.445,22.441c0.016-0.006,0.02-0.084,0.095-0.095
		c0.388-0.059,0.899,0.036,1.133,0.095c0.107,0.026,0.289,0.027,0.379,0.094c0.101,0.076,0.226,0.287,0.377,0.472
		c0.037,0.045,0.155,0.05,0.189,0.095c0.024,0.033-0.032,0.162,0,0.189c0.012,0.009,0.086-0.013,0.094,0
		c0.021,0.034-0.028,0.164,0,0.188c0.012,0.01,0.089-0.011,0.095,0c0.016,0.034-0.027,0.167,0,0.189
		c0.008,0.007,0.093-0.008,0.095,0c0.108,0.376,0.042,1.305-0.095,1.511c-0.022,0.034-0.062,0.257-0.095,0.283
		c-0.122,0.1-0.24,0.232-0.377,0.378c-0.089,0.093-0.182,0.308-0.283,0.378c-0.035,0.024-0.164-0.03-0.189,0
		c-0.01,0.011,0.012,0.089,0,0.095c-0.034,0.017-0.166-0.027-0.189,0c-0.09,0.111-0.192,0.069-0.377,0.094
		c-0.139,0.02-0.174,0.095-0.283,0.095c-0.155,0.002-0.162-0.071-0.283-0.095c-0.118-0.021-0.267,0.036-0.38,0
		c-0.029-0.01-0.003-0.088-0.094-0.094c-0.105-0.006-0.328-0.164-0.473-0.284c-0.053-0.043,0.017-0.089-0.094-0.095
		c-0.121-0.005-0.037-0.124-0.095-0.188c-0.06-0.064-0.241-0.117-0.284-0.188c-0.019-0.034,0.03-0.165,0-0.189
		c-0.076-0.063-0.064-0.072-0.094-0.189c-0.022-0.087-0.034-0.217-0.094-0.472c-0.019-0.078-0.092-0.093-0.096-0.189
		c-0.007-0.209,0.074-0.236,0.096-0.378c0.021-0.147-0.044-0.331,0-0.472c0.008-0.029,0.089-0.004,0.094-0.094
		c0.003-0.044,0.071-0.138,0.094-0.189c0.088-0.187,0.263-0.485,0.473-0.661c0.081-0.067,0.188-0.031,0.283-0.094
		c0.084-0.056,0.077-0.138,0.189-0.189C84.308,22.417,84.39,22.455,84.445,22.441z M85.39,26.219c0.008-0.002-0.007-0.087,0-0.095
		c0.023-0.026,0.154,0.018,0.189,0c0.012-0.006-0.01-0.083,0-0.095c0.024-0.03,0.154,0.024,0.188,0
		c0.112-0.077,0.279-0.377,0.284-0.472c0.004-0.094,0.082-0.061,0.094-0.095c0.159-0.478,0.158-1.789,0-2.172
		c-0.018-0.042-0.158-0.141-0.189-0.189c-0.034-0.057-0.045-0.24-0.094-0.284c-0.033-0.03-0.147,0.019-0.189,0
		c-0.069-0.032-0.068-0.183-0.188-0.188c-0.087-0.006-0.069-0.089-0.095-0.095c-0.358-0.096-0.779,0.047-0.85,0.095
		c-0.085,0.056-0.195,0.032-0.284,0.094c-0.213,0.149-0.321,0.531-0.378,0.755c-0.012,0.05-0.096,0.099-0.095,0.095
		c-0.094,0.434,0.058,1.551,0.095,1.7c0.014,0.056-0.021,0.137,0,0.189c0.019,0.044,0.16,0.138,0.188,0.189
		c0.107,0.185,0.198,0.361,0.283,0.472C84.671,26.149,85.048,26.305,85.39,26.219z"/>
	<path fill-rule="evenodd" clip-rule="evenodd" fill="#FFFFFF" d="M63.473,22.535c0.192-0.217,0.784-0.035,1.133-0.094
		c0.264,0.383,0.525,0.729,0.851,1.133c0.154,0.191,0.312,0.323,0.473,0.566c0.035,0.053,0.089-0.015,0.095,0.095
		c0.006,0.136,0.254,0.232,0.378,0.377c0.065,0.078,0.028,0.213,0.094,0.284c0.094,0.1,0.277,0.225,0.473,0.377
		c-0.146-0.593,0.192-1.834,0-2.361c-0.09-0.246-0.209-0.469-0.566-0.378c0.04-0.211,0.466-0.039,0.66-0.094
		c0.222,0,0.441,0,0.662,0c-0.024,0.195-0.415,0.025-0.473,0.189c0,1.228,0,2.456,0,3.684c-0.197,0.188-0.273-0.089-0.378-0.189
		c-0.119-0.115-0.272-0.258-0.378-0.378c-0.12-0.136-0.162-0.332-0.283-0.472c-0.095-0.109-0.286-0.171-0.377-0.283
		c-0.063-0.077-0.037-0.208-0.095-0.283c-0.113-0.146-0.394-0.359-0.567-0.567c-0.218-0.26-0.341-0.617-0.661-0.755
		c0,0.882,0,1.763,0,2.644c0.01,0.243,0.352,0.152,0.472,0.284c-0.223,0.217-0.848,0.033-1.228,0.094
		c0.022-0.166,0.162-0.215,0.378-0.188c-0.016-0.11,0.021-0.169,0.094-0.189c0-1.006,0-2.015,0-3.022
		C64.065,22.761,63.888,22.528,63.473,22.535z"/>
	<path fill-rule="evenodd" clip-rule="evenodd" fill="#FFFFFF" d="M41.555,33.683c0-2.016,0-4.03,0-6.046
		c0.207,0.042,0.778-0.054,1.134,0c0.006,0.001,0.021,0.09,0.095,0.094c0.035,0.002,0.263-0.023,0.283,0
		c0.062,0.077,0.294,0.096,0.472,0.189c0.059,0.03,0.112,0.141,0.189,0.188c0.324,0.199,0.691,0.804,0.85,1.418
		c0.023,0.088-0.019,0.193,0,0.283c0.018,0.079,0.083,0.092,0.095,0.188c0.052,0.422,0.059,1.015,0,1.417
		c0,0.004-0.091,0.023-0.095,0.094c-0.005,0.116,0.029,0.268,0,0.379c-0.005,0.023-0.09,0.008-0.094,0.094
		c-0.001,0.026,0.009,0.072,0,0.094c-0.026,0.065-0.084,0.069-0.094,0.096c-0.055,0.134-0.025,0.247-0.095,0.377
		c-0.025,0.049-0.089-0.012-0.095,0.095c-0.006,0.126-0.181,0.148-0.188,0.284c-0.011,0.197-0.224,0.139-0.378,0.283
		c-0.032,0.029-0.062,0.17-0.095,0.188c-0.095,0.056-0.516,0.132-0.661,0.189C42.693,33.662,42.048,33.725,41.555,33.683z"/>
	<path fill-rule="evenodd" clip-rule="evenodd" fill="#FFFFFF" d="M53.553,28.487c0.173-0.178,0.449-0.092,0.661-0.096
		c0.229-0.002,0.503-0.045,0.661,0c0.375,0.107,0.623,0.542,0.945,0.945c0.271,0.34,0.616,0.75,0.851,1.039
		c0.628,0.775,1.149,1.519,1.699,1.983c0-1.164,0-2.33,0-3.495c-0.029-0.349-0.533-0.223-0.755-0.377
		c0.173-0.178,0.573-0.092,0.945-0.096c0.305-0.002,0.661,0.003,0.944,0c-0.05,0.266-0.455,0.175-0.661,0.285
		c-0.208,1.586-0.042,3.549-0.095,5.289c-0.13,0.016-0.297-0.094-0.379-0.188c-0.027-0.033,0.032-0.163,0-0.189
		c-0.039-0.032-0.156-0.056-0.188-0.094c-0.146-0.179-0.239-0.397-0.378-0.567c-0.084-0.104-0.194-0.166-0.283-0.284
		c-0.071-0.093-0.114-0.19-0.188-0.283c-0.131-0.163-0.343-0.313-0.473-0.472c-0.053-0.064-0.185-0.192-0.188-0.283
		c-0.006-0.105-0.349-0.4-0.473-0.567c-0.282-0.378-0.703-0.942-1.135-1.322c-0.178,0.176-0.09,0.563-0.094,0.944
		c-0.008,0.836-0.054,2.018,0.094,2.835c0.021,0.326,0.702-0.009,0.662,0.377c-0.63,0-1.26,0-1.89,0
		c-0.005-0.238,0.24-0.137,0.378-0.188c0.197-0.074,0.255-0.086,0.378-0.188c0.113-0.511,0.095-1.257,0.095-2.079
		c0-0.74,0.148-1.72,0-2.172C54.502,28.684,54.036,28.659,53.553,28.487z"/>
	<path fill-rule="evenodd" clip-rule="evenodd" fill="#FFFFFF" d="M61.771,29.81c0.081-0.019,0.09,0.035,0.096,0.094
		c0.538,1.13,0.953,2.385,1.511,3.495c0.068,0.216,0.284,0.283,0.472,0.379c-0.135,0.177-0.45,0.089-0.755,0.094
		c-0.234,0.003-0.548-0.003-0.756,0c0.025-0.194,0.352-0.088,0.378-0.283c0.042-0.483-0.259-0.623-0.283-1.04
		c-0.505,0-1.008,0-1.513,0c-0.186,0.244-0.407,0.501-0.377,1.04c0.063,0.127,0.202,0.176,0.377,0.189
		c-0.224,0.217-0.848,0.032-1.228,0.094c0.075-0.208,0.331-0.237,0.473-0.377c0.161-0.493,0.444-0.97,0.661-1.513
		c0.013-0.033-0.025-0.167,0-0.189c0.052-0.041,0.201-0.275,0.283-0.472c0.015-0.034-0.026-0.167,0-0.188
		c0.012-0.01,0.089,0.012,0.095,0c0.017-0.034-0.027-0.166,0-0.189c0.086-0.07,0.146-0.17,0.188-0.283
		c0.014-0.033-0.025-0.168,0-0.189c0.011-0.008,0.09,0.012,0.095,0c0.015-0.033-0.026-0.167,0-0.188c0.011-0.01,0.09,0.011,0.095,0
		c0.017-0.035-0.028-0.167,0-0.189C61.669,30.021,61.727,29.923,61.771,29.81z M61.016,32.359c0.41,0,0.819,0,1.229,0
		c-0.072-0.524-0.331-0.865-0.473-1.322c-0.02-0.106-0.105-0.147-0.188-0.188C61.455,31.413,61.036,31.687,61.016,32.359z"/>
	<path fill-rule="evenodd" clip-rule="evenodd" fill="#FFFFFF" d="M67.629,29.81c-0.058,0.475,0.089,1.116,0,1.322
		c-0.144-0.115-0.111-0.225-0.188-0.378c-0.055-0.107-0.225-0.208-0.189-0.378c-0.439-0.146-0.577-0.369-0.944-0.378
		c-0.188-0.004-0.435,0.064-0.661,0.188c-0.107,0.059-0.155,0.16-0.283,0.283c-0.146,0.141-0.213,0.093-0.283,0.379
		c-0.022,0.082-0.064,0.162-0.096,0.283c-0.321,1.288,0.148,2.837,1.701,2.551c0.464-0.086,0.606-0.373,0.944-0.756
		c0.331,0.029-0.063,0.231-0.095,0.283c-0.076,0.128-0.127,0.322-0.188,0.378c-0.031,0.028-0.163-0.031-0.189,0
		c-0.023,0.028-0.065,0.171-0.095,0.189c-0.033,0.021-0.164-0.031-0.188,0c-0.179,0.22-1.072,0.265-1.511,0.094
		c-0.04-0.016,0.004-0.089-0.095-0.094c-0.206-0.011-0.311-0.217-0.473-0.379c-0.066-0.066-0.232-0.114-0.283-0.188
		c-0.023-0.035,0.03-0.164,0-0.189c-0.011-0.009-0.09,0.013-0.095,0c-0.017-0.034,0.027-0.166,0-0.189
		c-0.076-0.063-0.065-0.071-0.095-0.188c-0.032-0.128-0.189-0.858-0.095-1.322c-0.001,0.007,0.082-0.046,0.095-0.095
		c0.047-0.187,0.18-0.293,0.189-0.472c0,0.013,0.436-0.578,0.567-0.661c0.116-0.075,0.239-0.046,0.377-0.095
		c0.021-0.007,0.024-0.077,0.095-0.095c0.279-0.069,0.905-0.145,1.322,0c0.035,0.012,0,0.09,0.095,0.095
		c0.108,0.006,0.169,0.004,0.188,0.095C67.509,30.192,67.306,29.737,67.629,29.81z"/>
	<path fill-rule="evenodd" clip-rule="evenodd" fill="#FFFFFF" d="M71.786,29.903c0.003-0.001,0.028-0.086,0.095-0.094
		c0.178-0.023,0.445-0.032,0.661,0c0.005,0,0.022,0.09,0.094,0.094c0.076,0.004,0.214-0.027,0.283,0
		c0.023,0.01,0.189,0.215,0.284,0.283c0.12,0.09,0.388,0.201,0.378,0.189c0.057,0.061,0.053,0.216,0.094,0.283
		c0.034,0.055,0.165,0.141,0.189,0.189c0.033,0.068,0.008,0.4,0.094,0.472c0.008,0.006,0.094-0.006,0.095,0
		c0.09,0.448,0.003,1.125-0.095,1.417c-0.01,0.033-0.089,0.002-0.094,0.094c-0.012,0.217-0.228,0.311-0.378,0.474
		c-0.099,0.106-0.192,0.318-0.283,0.378c-0.034,0.022-0.165-0.031-0.188,0c-0.01,0.01,0.011,0.089,0,0.095
		c-0.035,0.016-0.167-0.028-0.189,0c-0.185,0.226-0.963,0.271-1.418,0.094c-0.039-0.016,0.004-0.089-0.095-0.094
		c-0.149-0.009-0.521-0.315-0.66-0.473c-0.047-0.052-0.155-0.141-0.189-0.19c-0.023-0.033,0.031-0.162,0-0.188
		c-0.011-0.009-0.089,0.011-0.094,0c-0.017-0.035,0.026-0.167,0-0.189c-0.009-0.006-0.093,0.01-0.095,0
		c-0.04-0.137-0.078-0.482-0.095-0.662c-0.024-0.277-0.029-0.482,0-0.66c0.001-0.008,0.091-0.021,0.095-0.095
		c0.019-0.354,0.175-0.503,0.378-0.755c0.261-0.329,0.423-0.548,0.944-0.662C71.656,29.891,71.725,29.914,71.786,29.903z
		 M71.502,30.282c-0.025,0.031-0.155-0.028-0.189,0c-0.055,0.046-0.197,0.345-0.283,0.566c-0.16,0.422-0.243,0.938-0.188,1.416
		c0.011,0.097,0.077,0.054,0.095,0.095c0.033,0.079-0.025,0.2,0,0.283c0.088,0.298,0.204,0.554,0.377,0.756
		c0.215,0.251,0.476,0.375,0.757,0.379c0.188,0.003,0.263-0.06,0.378-0.095c0.479-0.148,0.569-0.383,0.756-0.662
		c0.062-0.093,0.062-0.154,0.095-0.283c0.012-0.049,0.095-0.098,0.094-0.095c0.083-0.383-0.061-1.375-0.094-1.511
		c-0.016-0.059,0.016-0.131,0-0.189c-0.06-0.215-0.198-0.358-0.283-0.473c-0.225-0.299-0.396-0.371-0.851-0.472
		c-0.107-0.023-0.152,0.088-0.188,0.095C71.592,30.157,71.65,30.102,71.502,30.282z"/>
	<path fill-rule="evenodd" clip-rule="evenodd" fill="#FFFFFF" d="M80.761,29.81c0.079-0.019,0.089,0.035,0.094,0.094
		c0.547,1.125,0.988,2.35,1.513,3.495c0.101,0.216,0.286,0.343,0.566,0.379c-0.167,0.179-0.434,0.089-0.756,0.094
		c-0.263,0.005-0.607-0.003-0.85,0c0.025-0.194,0.352-0.088,0.377-0.283c0.043-0.483-0.226-0.656-0.283-1.04
		c-0.504,0-1.007,0-1.512,0c-0.213,0.229-0.339,0.545-0.378,0.946c-0.027,0.247,0.198,0.243,0.378,0.283
		c-0.224,0.217-0.849,0.032-1.228,0.094c0.13-0.216,0.389-0.303,0.566-0.473C79.702,32.151,80.231,30.98,80.761,29.81z
		 M80.005,32.359c0.41,0,0.819,0,1.228,0c0.033-0.323-0.179-0.495-0.188-0.661c-0.005-0.1-0.077-0.053-0.095-0.094
		c-0.107-0.257-0.077-0.629-0.378-0.756C80.431,31.399,80.077,31.737,80.005,32.359z"/>
	<path fill-rule="evenodd" clip-rule="evenodd" fill="#FFFFFF" d="M93.985,29.903c0.01-0.002,0.026-0.084,0.096-0.094
		c0.322-0.043,0.629,0.038,0.851,0.094c0.187,0.047,0.293,0.18,0.473,0.189c-0.013-0.001,0.579,0.439,0.66,0.566
		c0.023,0.034-0.029,0.164,0,0.189c0.012,0.01,0.09-0.012,0.096,0c0.015,0.033-0.028,0.166,0,0.188
		c0.076,0.063,0.063,0.071,0.094,0.188c0.027,0.113,0.157,0.701,0.094,1.134c-0.001,0.005-0.09,0.023-0.094,0.095
		c-0.02,0.357-0.176,0.502-0.378,0.756c-0.129,0.162-0.273,0.402-0.378,0.473c-0.033,0.022-0.164-0.031-0.189,0
		c-0.008,0.01,0.012,0.089,0,0.095c-0.034,0.016-0.166-0.028-0.188,0c-0.168,0.204-0.853,0.244-1.229,0.094
		c-0.032-0.015-0.167,0.026-0.189,0c-0.007-0.01,0.011-0.09,0-0.094c-0.032-0.013-0.168,0.024-0.188,0
		c-0.009-0.012,0.012-0.09,0-0.095c-0.035-0.016-0.166,0.027-0.189,0c-0.011-0.012,0.014-0.087,0-0.095
		c-0.112-0.065-0.313-0.118-0.378-0.189c-0.056-0.06-0.053-0.218-0.095-0.284c-0.033-0.054-0.165-0.139-0.188-0.188
		c-0.034-0.068-0.007-0.401-0.095-0.473c-0.007-0.006-0.093,0.008-0.094,0c-0.102-0.503,0.034-1.281,0.188-1.512
		c0.022-0.033,0.061-0.256,0.095-0.283c0.231-0.19,0.608-0.629,1.039-0.756C93.856,29.887,93.928,29.916,93.985,29.903z
		 M93.798,30.282c-0.026,0.031-0.157-0.027-0.189,0c-0.078,0.063-0.034,0.193-0.094,0.283c-0.051,0.076-0.144,0.079-0.189,0.188
		c-0.221,0.524-0.2,1.254-0.094,1.7c0.043,0.186-0.026,0.279,0.094,0.377c0.028,0.025-0.02,0.155,0,0.189
		c0.028,0.052,0.149,0.136,0.189,0.189c0.104,0.145,0.148,0.285,0.283,0.378c0.148,0.103,0.376,0.183,0.567,0.189
		c0.043,0.001,0.44-0.043,0.566-0.095c0.015-0.007,0.08-0.172,0.094-0.188c0.026-0.033,0.158,0.026,0.189,0
		c0.062-0.054,0.122-0.249,0.189-0.38c0.007-0.011,0.081,0.011,0.094,0c0.026-0.02-0.013-0.154,0-0.188
		c0.203-0.535,0.209-1.313,0.095-1.701c-0.113-0.379-0.279-0.935-0.472-0.943c-0.109-0.006-0.044-0.061-0.096-0.096
		c-0.138-0.09-0.514-0.187-0.66-0.188c-0.082-0.001-0.085,0.093-0.096,0.095C93.887,30.15,93.942,30.104,93.798,30.282z"/>
	<path fill-rule="evenodd" clip-rule="evenodd" fill="#FFFFFF" d="M68.101,29.998c0.192-0.177,0.492-0.091,0.852-0.095
		c0.266-0.004,0.619,0.002,0.85,0c-0.08,0.141-0.304,0.137-0.472,0.189c-0.191,0.942-0.053,2.213-0.095,3.306
		c0.082,0.232,0.22,0.409,0.566,0.379c-0.19,0.177-0.492,0.089-0.85,0.094c-0.266,0.003-0.62-0.003-0.852,0
		c0.127-0.157,0.421-0.146,0.568-0.283c0-1.103,0-2.204,0-3.306C68.589,30.077,68.436,29.947,68.101,29.998z"/>
	<path fill-rule="evenodd" clip-rule="evenodd" fill="#FFFFFF" d="M74.241,29.998c0.193-0.218,0.785-0.034,1.135-0.095
		c0.114,0.303,0.371,0.514,0.567,0.756c0.104,0.131,0.177,0.249,0.283,0.378c0.396,0.486,0.945,1.134,1.416,1.7
		c0.182-0.108,0.092-0.403,0.095-0.566c0.009-0.475-0.007-1.207,0-1.795c-0.082-0.232-0.221-0.41-0.567-0.378
		c0.041-0.212,0.466-0.039,0.662-0.095c0.251,0,0.504,0,0.756,0c-0.132,0.151-0.466,0.101-0.566,0.283c0,1.229,0,2.456,0,3.685
		c-0.195-0.015-0.344-0.146-0.473-0.283c-0.125-0.133-0.18-0.352-0.283-0.474c-0.122-0.142-0.281-0.26-0.379-0.377
		c-0.106-0.127-0.179-0.248-0.283-0.378c-0.117-0.146-0.264-0.242-0.377-0.378c-0.063-0.075-0.031-0.197-0.095-0.283
		c-0.039-0.051-0.149-0.047-0.188-0.094c-0.218-0.26-0.334-0.609-0.662-0.756c0,0.882,0,1.763,0,2.646
		c0.087,0.196,0.278,0.288,0.566,0.283c-0.218,0.214-0.948,0.036-1.417,0.094c0.127-0.157,0.421-0.146,0.567-0.283
		c0-1.04,0-2.079,0-3.118C74.87,30.188,74.596,30.054,74.241,29.998z"/>
	<path fill-rule="evenodd" clip-rule="evenodd" fill="#FFFFFF" d="M83.123,29.998c0.188-0.176,0.506-0.091,0.85-0.095
		c0.306-0.004,0.661,0.003,0.944,0c-0.155,0.159-0.513,0.117-0.661,0.283c0,1.103,0,2.205,0,3.308
		c0.455,0.084,1.021,0.212,1.417,0.094c0.276-0.082,0.353-0.243,0.473-0.378c0.118-0.133,0.143-0.381,0.377-0.379
		c-0.107,0.335-0.292,0.59-0.283,1.04c-1.038,0-2.078,0-3.116,0c0.079-0.14,0.303-0.137,0.472-0.188c0.151-1.019,0.151-2.572,0-3.59
		C83.366,30.13,83.39,29.92,83.123,29.998z"/>
	<path fill-rule="evenodd" clip-rule="evenodd" fill="#FFFFFF" d="M88.035,29.998c0.148-0.187,0.383-0.091,0.566-0.095
		c0.44-0.01,1.294-0.059,1.795,0c-0.001,0,0.028,0.092,0.094,0.095c0.108,0.006,0.277-0.036,0.379,0
		c0.034,0.011,0,0.089,0.094,0.095c0.206,0.011,0.312,0.215,0.474,0.377c0.066,0.066,0.233,0.113,0.283,0.189
		c0.022,0.034-0.031,0.164,0,0.189c0.011,0.01,0.088-0.012,0.094,0c0.017,0.033-0.026,0.166,0,0.188
		c0.078,0.063,0.065,0.071,0.096,0.188c0.061,0.244,0.096,0.938,0,1.322c-0.031,0.119-0.028,0.275-0.096,0.379
		c-0.022,0.035-0.176,0.063-0.188,0.094c-0.052,0.111-0.051,0.256-0.189,0.378c-0.067,0.058-0.396,0.175-0.567,0.284
		c-0.117,0.074-0.206,0.043-0.379,0.095c-0.426,0.129-1.537,0.097-2.455,0.094c0.021-0.136,0.281-0.032,0.283-0.188
		c0.209,0.052,0.135-0.181,0.283-0.188c-0.052-1.114,0.11-2.442-0.094-3.401C88.28,30.13,88.302,29.92,88.035,29.998z
		 M90.396,33.588c0.037-0.015,0.145-0.161,0.189-0.189c0.17-0.104,0.368-0.116,0.377-0.284c0.007-0.108,0.062-0.041,0.095-0.094
		c0.095-0.146,0.143-0.285,0.189-0.473c0.087-0.344,0.063-1.017,0-1.228c-0.047-0.154,0.01-0.198-0.094-0.283
		c-0.031-0.024,0.02-0.155,0-0.188c-0.042-0.071-0.222-0.128-0.284-0.189c-0.162-0.162-0.268-0.367-0.473-0.377
		c-0.092-0.006-0.063-0.086-0.094-0.096c-0.372-0.116-0.69,0.005-1.135,0c0,1.134,0,2.268,0,3.401
		C89.643,33.656,90.084,33.702,90.396,33.588z"/>
	<path fill-rule="evenodd" clip-rule="evenodd" fill="#FFFFFF" d="M53.836,35.95c0.167-0.179,0.434-0.09,0.756-0.094
		c0.264-0.005,0.608,0.002,0.851,0c-0.04,0.213,0.111,0.402,0.189,0.566c0.034,0.073,0.043,0.188,0.094,0.283
		c0.03,0.056,0.167,0.14,0.189,0.188c0.089,0.19,0.114,0.396,0.188,0.567c0.03,0.069,0.046,0.192,0.095,0.283
		c0.03,0.056,0.166,0.141,0.188,0.188c0.082,0.176,0.109,0.393,0.189,0.567c0.025,0.057,0.169,0.144,0.188,0.188
		c0.022,0.053-0.014,0.135,0,0.189c0.024,0.097,0.072,0.045,0.095,0.094c0.077,0.168,0.098,0.383,0.188,0.566
		c0.031,0.063,0.161,0.137,0.189,0.189c0.058,0.107,0.024,0.199,0.095,0.284c0.303-0.272,0.319-0.703,0.472-1.04
		c0.028-0.063,0.161-0.135,0.188-0.188c0.111-0.205,0.151-0.557,0.284-0.852c0.029-0.062,0.16-0.135,0.188-0.188
		c0.121-0.223,0.135-0.52,0.284-0.851c0.028-0.063,0.16-0.136,0.189-0.188c0.056-0.104,0.052-0.189,0.094-0.283
		c0.075-0.17,0.159-0.365,0.189-0.566c0.535,0,1.069,0,1.605,0c-0.029,0.127-0.236,0.076-0.378,0.094
		c-0.069,0.087-0.172,0.143-0.283,0.189c-0.146,0.309-0.095,1.31-0.095,2.36c0,0.917-0.103,1.895,0,2.174
		c0.126,0.339,0.36,0.577,0.756,0.472c-0.133,0.318-0.651,0.176-1.039,0.188c-0.433,0.015-0.879-0.011-1.228,0
		c0.011-0.334,0.535-0.156,0.661-0.377c0.199-1.187,0.046-2.726,0.094-4.063c-0.336,0.248-0.394,0.667-0.566,1.038
		c-0.129,0.279-0.24,0.502-0.379,0.852c-0.01,0.027-0.075,0.018-0.094,0.094c-0.05,0.198-0.112,0.307-0.189,0.473
		c-0.037,0.08-0.045,0.18-0.095,0.283c-0.025,0.057-0.169,0.143-0.188,0.189c-0.021,0.053,0.015,0.133,0,0.188
		c-0.023,0.097-0.071,0.045-0.095,0.096c-0.062,0.131-0.025,0.243-0.094,0.377c-0.029,0.058-0.166,0.14-0.189,0.189
		c-0.075,0.157-0.141,0.401-0.188,0.566c-0.407-0.083-0.509-0.711-0.661-1.039c-0.093-0.198-0.179-0.361-0.283-0.567
		c-0.04-0.078-0.043-0.187-0.095-0.283c-0.03-0.056-0.166-0.141-0.188-0.189c-0.066-0.14-0.052-0.267-0.095-0.377
		c-0.029-0.074-0.048-0.187-0.095-0.284c-0.03-0.062-0.16-0.136-0.188-0.188c-0.057-0.104-0.051-0.188-0.095-0.283
		c-0.174-0.373-0.338-0.769-0.474-1.134c-0.176,0.19-0.09,0.629-0.094,1.038c-0.002,0.321,0,0.709,0,1.039
		c0,0.716-0.072,1.443,0.094,1.985c0.092,0.19,0.364,0.203,0.662,0.188c-0.079,0.302-0.519,0.174-0.851,0.188
		c-0.36,0.017-0.751-0.013-1.039,0c-0.15-0.37,0.408-0.032,0.378-0.283c0.304,0.084,0.196-0.245,0.378-0.283c0-0.761,0-1.54,0-2.362
		c0-0.754,0.074-1.526-0.095-2.172C54.411,36.005,54.117,35.982,53.836,35.95z"/>
	<path fill-rule="evenodd" clip-rule="evenodd" fill="#FFFFFF" d="M78.776,36.044c-0.089,0.363-0.406,0.49-0.66,0.756
		c-0.064,0.066,0.001,0.251-0.19,0.189C78.035,36.499,78.01,35.874,78.776,36.044z"/>
	<path fill-rule="evenodd" clip-rule="evenodd" fill="#FFFFFF" d="M97.293,36.044c0.221,0,0.44,0,0.661,0
		c-0.222,0.346-0.509,0.625-0.756,0.945C96.952,36.767,97.354,36.392,97.293,36.044z"/>
	<path fill-rule="evenodd" clip-rule="evenodd" fill="#FFFFFF" d="M112.692,37.272c0.272,0.23,0.17,0.837,0.188,1.322
		c-0.151-0.075-0.17-0.295-0.283-0.473c-0.082-0.131-0.331-0.353-0.471-0.566c-0.597-0.108-0.873-0.195-1.322,0.094
		c-0.124,0.08-0.41,0.281-0.474,0.379c-0.022,0.033,0.03,0.164,0,0.188c-0.077,0.063-0.065,0.071-0.095,0.188
		c-0.055,0.216-0.195,1.195-0.095,1.606c0.028,0.11,0.266,0.646,0.379,0.756c0.077,0.077,0.429,0.25,0.567,0.283
		c0.657,0.165,1.408-0.06,1.793-0.756c0.192,0.194-0.141,0.42-0.283,0.566c-0.035,0.039-0.055,0.161-0.094,0.189
		c-0.033,0.026-0.163-0.03-0.189,0c-0.074,0.093-0.082,0.122-0.188,0.189c-0.264,0.167-0.797,0.2-1.229,0.094
		c-0.17-0.041-0.347-0.051-0.474-0.094c-0.033-0.012,0-0.091-0.094-0.095c0.021,0-0.307-0.182-0.473-0.378
		c-0.063-0.075-0.029-0.197-0.094-0.283c-0.027-0.034-0.172-0.062-0.189-0.094c-0.063-0.124-0.061-0.281-0.094-0.379
		c-0.493-1.42,0.88-3.516,2.833-2.55C112.529,37.487,112.669,37.438,112.692,37.272z"/>
	<path fill-rule="evenodd" clip-rule="evenodd" fill="#FFFFFF" d="M115.242,37.272c0,0,0.022-0.096,0.096-0.095
		c0.153,0.006,0.16,0.072,0.283,0.095c0.217,0.037,0.303-0.018,0.472,0.094c0.035,0.023,0.257,0.062,0.283,0.096
		c0.063,0.076,0.111,0.273,0.284,0.283c0.009,0,0.339,0.316,0.378,0.377c0.022,0.034-0.031,0.164,0,0.189
		c0.011,0.01,0.089-0.012,0.094,0c0.017,0.033-0.027,0.166,0,0.188c0.093,0.075,0.076,0.128,0.096,0.284
		c0.003,0.027-0.021,0.174,0,0.188c0.076,0.064,0.112,0.308,0.094,0.566c-0.014,0.186-0.1,0.529-0.189,0.663
		c-0.022,0.033-0.061,0.256-0.094,0.283c-0.045,0.036-0.266,0.171-0.378,0.283c-0.092,0.091-0.181,0.307-0.284,0.378
		c-0.034,0.023-0.164-0.031-0.188,0c-0.009,0.011,0.013,0.09,0,0.095c-0.035,0.016-0.166-0.028-0.189,0
		c-0.09,0.111-0.192,0.071-0.377,0.094c-0.139,0.019-0.174,0.095-0.283,0.095c-0.155,0.001-0.162-0.072-0.284-0.095
		c-0.116-0.02-0.266,0.037-0.378,0c-0.031-0.011-0.003-0.089-0.094-0.094c-0.144-0.008-0.417-0.232-0.566-0.379
		c-0.046-0.044-0.221-0.2-0.284-0.283c-0.026-0.032,0.031-0.163,0-0.188c-0.128-0.106-0.14-0.085-0.189-0.283
		c-0.021-0.087-0.034-0.219-0.095-0.474c-0.018-0.078-0.09-0.094-0.095-0.189c-0.009-0.209,0.075-0.236,0.095-0.377
		c0.074-0.507,0.063-0.665,0.379-1.039c0.183-0.218,0.27-0.376,0.566-0.566c0.063-0.042,0.121-0.052,0.189-0.096
		C114.711,37.284,114.896,37.299,115.242,37.272z M114.865,37.556c-0.11,0.006-0.041,0.056-0.095,0.094
		c-0.263,0.191-0.418,0.353-0.472,0.567c-0.017,0.063-0.092,0.081-0.096,0.095c-0.336,1.104-0.01,2.695,0.945,2.834
		c0.138,0.02,0.409,0.039,0.566,0c0.008-0.002-0.007-0.087,0-0.095c0.023-0.026,0.154,0.017,0.189,0
		c0.012-0.006-0.009-0.082,0-0.094c0.024-0.032,0.154,0.022,0.188,0c0.438-0.313,0.646-1.684,0.472-2.457
		c-0.001-0.007-0.086,0.006-0.094,0c-0.026-0.021,0.014-0.155,0-0.188c-0.082-0.217-0.208-0.277-0.283-0.379
		c-0.069-0.091-0.001-0.218-0.095-0.283c-0.029-0.02-0.281-0.094-0.284-0.094c-0.083-0.004-0.071-0.089-0.094-0.094
		c-0.185-0.047-0.521-0.021-0.661,0c-0.082,0.011-0.067,0.084-0.095,0.094C114.935,37.564,114.891,37.554,114.865,37.556z"/>
	<path fill-rule="evenodd" clip-rule="evenodd" fill="#FFFFFF" d="M61.299,37.272c0.331,0.034,0.803-0.045,1.229,0
		c0.09,0.01,0.165,0.15,0.189,0c0.357,0.214-0.326,0.167-0.378,0.283c0,1.133,0,2.268,0,3.401c0.014,0.206,0.238,0.202,0.473,0.188
		c-0.184,0.385-1.031,0.104-1.513,0.188c-0.043-0.2,0.136-0.181,0.284-0.188c0.081-0.076,0.057-0.259,0.188-0.284
		c0-1.007,0-2.015,0-3.022c-0.095-0.126-0.089-0.352-0.283-0.377C61.327,37.496,61.311,37.388,61.299,37.272z"/>
	<path fill-rule="evenodd" clip-rule="evenodd" fill="#FFFFFF" d="M63,37.272c0.13,0.15,0.714-0.158,0.944,0.094
		c0.2-0.069,0.128,0.119,0.189,0.189c0.093,0.105,0.325,0.299,0.472,0.473c0.14,0.166,0.33,0.334,0.474,0.566
		c0.043,0.072,0.368,0.309,0.377,0.473c0.007,0.137,0.258,0.23,0.379,0.377c0.064,0.081,0.025,0.211,0.094,0.283
		c0.077,0.084,0.396,0.195,0.378,0.474c0.311-0.106,0.179-0.655,0.188-1.04c0.017-0.582,0.019-1.048-0.094-1.512
		c-0.023-0.166-0.163-0.215-0.378-0.188c0.087-0.354,0.758-0.123,1.133-0.189c0.045,0.201-0.135,0.18-0.283,0.189
		c-0.081,0.074-0.056,0.258-0.188,0.283c0,1.196,0,2.393,0,3.589c-0.531-0.411-0.898-0.995-1.322-1.511
		c-0.214-0.26-0.448-0.496-0.662-0.756c-0.212-0.258-0.358-0.588-0.661-0.756c-0.181,0.109-0.091,0.404-0.095,0.566
		c-0.011,0.58-0.041,1.509,0.095,2.079c0.015,0.206,0.238,0.202,0.473,0.188c-0.109,0.363-0.828,0.116-1.229,0.188
		c-0.044-0.2,0.136-0.181,0.283-0.188c0.082-0.076,0.056-0.259,0.189-0.284c0-0.976,0-1.952,0-2.929
		c-0.063-0.176-0.229-0.279-0.378-0.377C63.25,37.472,62.949,37.52,63,37.272z"/>
	<path fill-rule="evenodd" clip-rule="evenodd" fill="#FFFFFF" d="M69.141,37.366c-0.024,0.197-0.415,0.027-0.472,0.189
		c0,1.133,0,2.268,0,3.401c-0.057,0.339,0.563,0.003,0.472,0.377c-0.535,0-1.07,0-1.606,0c0.01-0.243,0.353-0.151,0.473-0.283
		c0.189-0.913,0.054-2.149,0.094-3.212c-0.105-0.177-0.111-0.455-0.472-0.377C67.811,37.101,68.802,37.286,69.141,37.366z"/>
	<path fill-rule="evenodd" clip-rule="evenodd" fill="#FFFFFF" d="M71.976,37.272c0.21,0.04,0.037,0.466,0.094,0.66
		c0,0.222,0,0.442,0,0.662c-0.16-0.061-0.125-0.327-0.188-0.473c-0.049-0.105-0.139-0.112-0.188-0.189
		c-0.059-0.086-0.018-0.223-0.096-0.283c-0.098-0.074-0.252-0.053-0.378-0.094c-0.032-0.011-0.001-0.09-0.095-0.094
		c-0.565-0.031-1.234,0.404-0.755,0.943c0.019,0.021,0.075,0.182,0.094,0.189c0.044,0.021,0.153-0.03,0.189,0
		c0.045,0.037,0.05,0.155,0.094,0.189c0.034,0.024,0.163-0.032,0.189,0c0.012,0.013-0.015,0.085,0,0.094
		c0.034,0.023,0.164-0.03,0.188,0c0.024,0.029,0.066,0.171,0.095,0.189c0.034,0.021,0.164-0.031,0.188,0
		c0.01,0.011-0.011,0.088,0,0.094c0.035,0.018,0.168-0.026,0.189,0c0.011,0.014-0.014,0.087,0,0.094
		c0.035,0.021,0.165-0.027,0.189,0c0.107,0.134,0.327,0.341,0.473,0.568c0.08,0.126,0.16,0.703,0,0.944
		c-0.143,0.212-0.35,0.331-0.566,0.566c-0.283-0.016-0.57,0.023-0.852,0c-0.388-0.03-0.817-0.335-0.944,0
		c-0.212-0.04-0.039-0.466-0.095-0.66c0-0.221,0-0.442,0-0.662c0.162,0.106,0.154,0.461,0.284,0.662
		c0.033,0.052,0.088-0.015,0.094,0.094c0.001,0.013,0.259,0.271,0.283,0.283c0.079,0.037,0.204-0.033,0.283,0
		c0.04,0.018,0.002,0.082,0.095,0.095c0.411,0.06,0.684-0.062,0.945-0.284c-0.018-0.37,0.061-0.706-0.189-0.943
		c-0.03-0.03-0.163,0.03-0.189,0c-0.026-0.034-0.061-0.166-0.095-0.19c-0.033-0.022-0.163,0.033-0.188,0
		c-0.008-0.011,0.013-0.088,0-0.094c-0.034-0.016-0.166,0.027-0.188,0c-0.011-0.013,0.013-0.087,0-0.096
		c-0.034-0.018-0.164,0.031-0.189,0c-0.025-0.029-0.063-0.168-0.094-0.188c-0.034-0.023-0.164,0.03-0.189,0
		c-0.009-0.011,0.013-0.09,0-0.096c-0.033-0.014-0.166,0.029-0.188,0c-0.143-0.174-0.554-0.479-0.567-0.943
		c-0.011-0.384,0.192-0.634,0.473-0.85c0.035-0.027,0.16-0.18,0.189-0.189c0.375-0.121,0.935,0.061,1.323,0.094
		c0.023,0.002,0.091,0.131,0.188,0.096C71.922,37.446,71.956,37.317,71.976,37.272z"/>
	<path fill-rule="evenodd" clip-rule="evenodd" fill="#FFFFFF" d="M76.132,37.272c0.026,0.318,0.15,0.542,0.095,0.944
		c-0.373,0.151-0.034-0.407-0.283-0.378c0.027-0.217-0.273-0.104-0.284-0.283c-0.283,0-0.566,0-0.85,0c0,1.07,0,2.143,0,3.212
		c-0.082,0.429,0.471,0.221,0.472,0.566c-0.489-0.045-1.173,0.102-1.512-0.094c0.121-0.161,0.45-0.117,0.472-0.379
		c0-1.069,0-2.14,0-3.212c-0.13-0.185-0.802-0.115-0.943,0c-0.198,0.087-0.288,0.28-0.283,0.567
		c-0.213-0.041-0.04-0.465-0.096-0.661c-0.025-0.152,0.09-0.162,0.096-0.283C74.053,37.272,75.093,37.272,76.132,37.272z"/>
	<path fill-rule="evenodd" clip-rule="evenodd" fill="#FFFFFF" d="M79.438,37.272c0.175,0.222,0.067,0.726,0.188,0.756
		c-0.161,0.357-0.156-0.206-0.283-0.189c-0.054-0.137-0.147-0.23-0.284-0.283c-0.472,0-0.943,0-1.417,0c0,0.473,0,0.944,0,1.416
		c0.013,0.211,0.401,0.042,0.567,0.096c0.189,0,0.378,0,0.566,0c0.322,0.006,0.146-0.485,0.473-0.473c0,0.44,0,0.882,0,1.323
		c-0.202,0.044-0.181-0.136-0.189-0.284c-0.033-0.123-0.166-0.148-0.188-0.283c-0.41,0-0.819,0-1.229,0c0,0.535,0,1.07,0,1.606
		c0.387,0.074,1.009,0.222,1.417,0.094c0.118-0.036,0.11-0.136,0.189-0.189c0.091-0.06,0.216-0.017,0.283-0.094
		c0.055-0.063,0.057-0.214,0.095-0.283c0.022-0.04,0.128-0.085,0.095-0.189c0.238,0.087-0.057,0.511-0.095,0.662
		c-0.045,0.177-0.001,0.266-0.095,0.377c-1.007,0-2.016,0-3.022,0c-0.091-0.343,0.408-0.095,0.472-0.283
		c-0.015-0.109,0.021-0.168,0.095-0.189c-0.081-1.115,0.188-2.58-0.189-3.399c-0.125,0-0.252,0-0.377,0
		c0.196-0.329,0.872-0.184,1.416-0.189C78.457,37.267,78.995,37.276,79.438,37.272z"/>
	<path fill-rule="evenodd" clip-rule="evenodd" fill="#FFFFFF" d="M80.194,37.272c0.374,0.02,0.78-0.025,1.228,0
		c0.203,0.012,0.239,0.074,0.379,0.094c0.533,0.08,0.65-0.051,0.943,0.189c0.223,0.183,0.646,0.477,0.473,1.133
		c-0.007,0.025-0.09,0.009-0.094,0.096c-0.012,0.217-0.534,0.507-0.851,0.566c0.326,0.525,0.713,0.987,1.038,1.511
		c0.188,0.024,0.367,0.274,0.567,0.284c0.159,0.008,0.18,0.041,0.188,0.188c-0.346,0-0.692,0-1.039,0
		c-0.026-0.246-0.46-0.429-0.472-0.66c-0.006-0.109-0.187-0.244-0.283-0.379c-0.069-0.097-0.116-0.186-0.188-0.283
		c-0.061-0.08-0.131-0.12-0.189-0.188c-0.027-0.033,0.031-0.164,0-0.189c-0.129-0.104-0.188-0.213-0.473-0.189
		c-0.37,0.135-0.112,0.896-0.189,1.323c0.019,0.077,0.096,0.094,0.096,0.189c-0.056,0.339,0.563,0.003,0.473,0.377
		c-0.536,0-1.072,0-1.606,0c-0.092-0.343,0.407-0.095,0.472-0.283c0-1.133,0-2.267,0-3.401
		C80.722,37.311,80.102,37.647,80.194,37.272z M81.328,37.556c-0.153,0.377-0.153,1.323,0,1.699c0.48,0.043,0.736-0.144,1.039-0.283
		c0.219-0.23,0.247-0.798,0.094-1.133C82.229,37.599,81.854,37.501,81.328,37.556z"/>
	<path fill-rule="evenodd" clip-rule="evenodd" fill="#FFFFFF" d="M84.256,37.272c0.521,0.047,1.237-0.104,1.606,0.094
		c-0.025,0.197-0.416,0.027-0.473,0.189c0.016,0.109-0.021,0.168-0.094,0.189c0,1.039,0,2.078,0,3.116
		c0.079,0.204,0.232,0.336,0.566,0.284c-0.21,0.39-1.097,0.101-1.606,0.188c-0.095-0.284,0.21-0.167,0.378-0.188
		c-0.016-0.11,0.021-0.169,0.096-0.188c0-1.071,0-2.142,0-3.212C84.734,37.423,84.243,37.6,84.256,37.272z"/>
	<path fill-rule="evenodd" clip-rule="evenodd" fill="#FFFFFF" d="M87.657,37.366c0.014-0.004,0.021-0.084,0.094-0.094
		c0.376-0.051,0.885,0.031,1.134,0.094c0.056,0.015,0.136-0.021,0.189,0c0.044,0.02,0.059,0.173,0.094,0.189
		c0.143,0.064,0.232,0.043,0.379,0.189c0.08,0.08,0.119,0.188,0.188,0.283c0.213,0.283,0.524,0.997,0.378,1.795
		c-0.002,0.011-0.09,0.018-0.095,0.095c-0.009,0.187-0.085,0.28-0.188,0.473c-0.051,0.093-0.143,0.118-0.189,0.188
		c-0.063,0.095-0.021,0.21-0.094,0.283c-0.075,0.076-0.194,0.028-0.283,0.096c-0.042,0.03-0.056,0.165-0.096,0.188
		c-0.034,0.021-0.164-0.029-0.188,0c-0.01,0.011,0.011,0.09,0,0.095c-0.035,0.016-0.167-0.028-0.189,0
		c-0.007,0.009,0.009,0.091,0,0.094c-0.354,0.101-1.045-0.023-1.323-0.094c-0.053-0.014-0.141,0.022-0.189,0
		c-0.041-0.021-0.06-0.173-0.094-0.189c-0.225-0.101-0.205-0.05-0.473-0.377c-0.144-0.178-0.221-0.223-0.283-0.473
		c-0.021-0.085-0.064-0.161-0.094-0.283c-0.085-0.337-0.149-0.932,0-1.418c0.004-0.013,0.077-0.03,0.094-0.095
		c0.014-0.055-0.023-0.137,0-0.188c0.021-0.044,0.173-0.059,0.189-0.095c0.055-0.122,0.038-0.262,0.188-0.377
		c0.123-0.096,0.29-0.172,0.472-0.283C87.396,37.389,87.479,37.41,87.657,37.366z M87.657,37.556
		c-0.226,0.012-0.562,0.557-0.567,0.661c-0.004,0.097-0.081,0.059-0.095,0.095c-0.038,0.109,0.021,0.263,0,0.377
		c-0.021,0.123-0.08,0.133-0.094,0.283c-0.042,0.479,0.013,1.084,0.188,1.229c0.026,0.021-0.013,0.155,0,0.189
		c0.049,0.119,0.101,0.116,0.188,0.188c0.033,0.026-0.023,0.157,0,0.189c0.073,0.097,0.308,0.279,0.379,0.283
		c0.089,0.005,0.066,0.087,0.094,0.095c0.709,0.205,1.15-0.254,1.417-0.472c0.028-0.023-0.015-0.155,0-0.189
		c0.006-0.013,0.084,0.009,0.096,0c0.024-0.022-0.014-0.155,0-0.189c0.004-0.011,0.084,0.009,0.094,0
		c0.025-0.019-0.002-0.247,0-0.283c0.004-0.075,0.093-0.084,0.094-0.094c0.092-0.517-0.009-1.366-0.188-1.513
		c-0.027-0.021,0.013-0.154,0-0.188c-0.088-0.218-0.389-0.651-0.567-0.661c-0.089-0.005-0.067-0.087-0.095-0.094
		c-0.154-0.045-0.481-0.049-0.756,0c-0.08,0.013-0.067,0.084-0.095,0.094C87.727,37.564,87.684,37.554,87.657,37.556z"/>
	<path fill-rule="evenodd" clip-rule="evenodd" fill="#FFFFFF" d="M92.003,37.272c0.404,0.064,0.883-0.026,1.322,0
		c0.118,0.007,0.315,0.077,0.473,0.094c0.244,0.027,0.39-0.022,0.567,0.096c0.092,0.062,0.198,0.114,0.283,0.188
		c0.235,0.213,0.187,0.246,0.283,0.567c0.026,0.087,0.101,0.3,0,0.661c-0.008,0.026-0.089,0.007-0.094,0.094
		c-0.011,0.184-0.568,0.537-0.853,0.566c-0.264,0.03-0.44-0.062-0.754-0.094c-0.214,0.071-0.038,0.531-0.096,0.757
		c0,0.252,0,0.503,0,0.756c0.015,0.206,0.238,0.202,0.473,0.188c-0.208,0.39-1.097,0.101-1.605,0.188
		c-0.09-0.343,0.408-0.095,0.473-0.283c0-1.133,0-2.267,0-3.401C92.531,37.311,91.912,37.647,92.003,37.272z M93.136,39.255
		c0.553,0.221,0.72-0.107,1.039-0.188c0.309-0.827-0.045-1.684-1.039-1.512C93.136,38.122,93.136,38.688,93.136,39.255z"/>
	<path fill-rule="evenodd" clip-rule="evenodd" fill="#FFFFFF" d="M95.309,37.272c0.536,0,1.071,0,1.605,0
		c0.097,0.284-0.21,0.167-0.377,0.189c-0.082,0.074-0.056,0.258-0.189,0.283c0.103,1.549-0.423,3.541,1.229,3.4
		c0.451-0.039,0.551-0.305,0.943-0.567c0.18-0.764,0.061-1.829,0.096-2.739c0.069-0.258-0.188-0.19-0.189-0.377
		c-0.19,0.031-0.296-0.02-0.283-0.189c0.596-0.025,0.754,0.083,1.229,0c0.012,0.327-0.479,0.15-0.473,0.473
		c-0.011,0.938,0.054,2.05-0.094,2.646c-0.033,0.127-0.033,0.188-0.096,0.283c-0.035,0.054-0.081,0.274-0.189,0.377
		c-0.081,0.079-0.172,0.035-0.283,0.095c-0.045,0.024-0.153,0.176-0.188,0.188c-0.111,0.037-0.264-0.02-0.379,0
		c-0.091,0.017-0.142,0.094-0.284,0.095c-0.343,0.005-1.004-0.165-1.227-0.378c-0.078-0.075-0.027-0.192-0.096-0.283
		c-0.021-0.028-0.179-0.069-0.188-0.094c-0.032-0.078,0.058-0.322,0-0.379c-0.384-0.384,0.162-2.115-0.188-2.833
		C95.521,37.439,95.214,37.557,95.309,37.272z"/>
	<path fill-rule="evenodd" clip-rule="evenodd" fill="#FFFFFF" d="M99.655,37.272c0.601-0.055,1.476,0.029,2.079,0.094
		c0.241,0.027,0.385,0.049,0.566,0.096c0.178,0.044,0.192,0.074,0.377,0.188c0.073,0.046,0.184,0.082,0.189,0.189
		c0.015,0.262,0.363,0.646,0,1.039c-0.01,0.244-0.369,0.137-0.379,0.377c0.2,0.212,0.56,0.262,0.662,0.568
		c0.149,0.403,0.042,0.807-0.283,1.134c-0.463,0.464-2.042,0.372-3.118,0.377c-0.043-0.2,0.136-0.181,0.283-0.188
		c0.082-0.076,0.057-0.259,0.189-0.284c-0.005-0.538,0.007-1.182,0-1.794c-0.006-0.598,0.093-1.229-0.189-1.605
		C99.865,37.439,99.559,37.557,99.655,37.272z M100.883,39.161c0.922,0.072,1.531-0.197,1.512-0.85
		c-0.02-0.65-0.691-0.852-1.605-0.756C100.835,38.075,100.685,38.792,100.883,39.161z M101.639,41.051
		c0.247-0.03,0.453-0.138,0.662-0.189c-0.005-0.162,0.071-0.241,0.188-0.283c0.03-0.345-0.014-0.614-0.094-0.851
		c-0.352-0.31-0.903-0.418-1.605-0.377c0,0.567,0,1.134,0,1.7C101.068,41.026,101.359,41.086,101.639,41.051z"/>
	<path fill-rule="evenodd" clip-rule="evenodd" fill="#FFFFFF" d="M103.717,37.272c0.567,0,1.134,0,1.7,0
		c0.088,0.37-0.498,0.068-0.566,0.283c0.016,0.109-0.02,0.168-0.094,0.189c0.007,0.539-0.01,1.182,0,1.793
		c0.009,0.575-0.09,1.153,0.189,1.513c1.015,0.071,1.864-0.023,1.982-0.85c0.23,0.101-0.06,0.524-0.094,0.66
		c-0.042,0.165-0.02,0.258-0.096,0.473c-1.007,0-2.016,0-3.022,0c-0.089-0.343,0.408-0.095,0.474-0.283c0-1.133,0-2.267,0-3.401
		C104.167,37.39,103.656,37.616,103.717,37.272z"/>
	<path fill-rule="evenodd" clip-rule="evenodd" fill="#FFFFFF" d="M107.402,37.272c0.534,0,1.069,0,1.605,0
		c0.09,0.342-0.408,0.096-0.473,0.283c-0.141,0.949-0.162,2.453,0,3.401c-0.056,0.339,0.563,0.003,0.473,0.377
		c-0.536,0-1.071,0-1.605,0c-0.092-0.343,0.407-0.095,0.473-0.283c0-1.133,0-2.267,0-3.401
		C107.931,37.311,107.309,37.647,107.402,37.272z"/>
</g>
</svg>
