<?xml version="1.0" encoding="utf-8"?>
<!-- Generator: Adobe Illustrator 14.0.0, SVG Export Plug-In . SVG Version: 6.00 Build 43363)  -->
<!DOCTYPE svg PUBLIC "-//W3C//DTD SVG 1.1//EN" "http://www.w3.org/Graphics/SVG/1.1/DTD/svg11.dtd">
<svg version="1.1" id="Camada_1" xmlns="http://www.w3.org/2000/svg" xmlns:xlink="http://www.w3.org/1999/xlink" x="0px" y="0px"
	 width="851.958px" height="242.988px" viewBox="0 0 851.958 242.988" enable-background="new 0 0 851.958 242.988"
	 xml:space="preserve">
<g>
	<path fill-rule="evenodd" clip-rule="evenodd" fill="#EEF2F4" d="M187.32,24.139c0-0.023,0-0.046,0-0.069c0.23,0,0.461,0,0.691,0
		c0,0.023,0,0.046,0,0.069C187.781,24.139,187.551,24.139,187.32,24.139z"/>
	<path fill-rule="evenodd" clip-rule="evenodd" fill="#68CEEF" d="M188.012,24.139c0-0.023,0-0.046,0-0.069c0.415,0,0.83,0,1.244,0
		c0,0.023,0,0.046,0,0.069C188.842,24.139,188.427,24.139,188.012,24.139z"/>
	<path fill-rule="evenodd" clip-rule="evenodd" fill="#EEF2F4" d="M189.256,24.139c0-0.023,0-0.046,0-0.069c0.23,0,0.461,0,0.691,0
		c0,0.023,0,0.046,0,0.069C189.717,24.139,189.486,24.139,189.256,24.139z"/>
	<path fill-rule="evenodd" clip-rule="evenodd" fill="#68CEEF" d="M152.619,59.324c0.045-0.301-0.09-0.781,0.069-0.967
		C152.644,58.658,152.778,59.137,152.619,59.324z"/>
	<path fill-rule="evenodd" clip-rule="evenodd" fill="#68CEEF" d="M224.58,59.117c0.114,0.508,0.114,1.497,0,2.005
		C224.58,60.454,224.58,59.785,224.58,59.117z"/>
	<path fill-rule="evenodd" clip-rule="evenodd" fill="#68CEEF" d="M123.103,59.876c0,0.024,0,0.047,0,0.069
		c-5.531,0-12.182,0-18.042,0c-0.661,0-2.419-0.174-2.627,0c-0.254,0.212,0.043,0.918-0.069,1.383
		c-0.16-0.347-0.023-0.989-0.068-1.452C109.231,59.876,116.167,59.876,123.103,59.876z"/>
	<path fill-rule="evenodd" clip-rule="evenodd" fill="#EEF2F4" d="M123.103,59.946c0-0.022,0-0.045,0-0.069
		c4.171,0.047,8.525-0.092,12.58,0.069C131.489,59.946,127.296,59.946,123.103,59.946z"/>
	<path fill-rule="evenodd" clip-rule="evenodd" fill="#68CEEF" d="M148.195,59.946c1.475,0,2.949,0,4.424,0
		C151.306,60.061,149.509,60.061,148.195,59.946z"/>
	<path fill-rule="evenodd" clip-rule="evenodd" fill="#68CEEF" d="M102.503,64.993c0-1.221,0-2.443,0-3.664
		c0.161,1.083,0.023,2.466,0.069,3.664C102.549,64.993,102.526,64.993,102.503,64.993z"/>
	<path fill-rule="evenodd" clip-rule="evenodd" fill="#EEF2F4" d="M110.452,61.329c4.194,0,8.388,0,12.581,0
		c0,0.022,0,0.047,0,0.069C118.862,61.351,114.508,61.49,110.452,61.329z"/>
	<path fill-rule="evenodd" clip-rule="evenodd" fill="#68CEEF" d="M123.033,61.398c0-0.022,0-0.047,0-0.069
		c8.364,0.047,16.913-0.093,25.162,0.069C139.808,61.398,131.421,61.398,123.033,61.398z"/>
	<path fill-rule="evenodd" clip-rule="evenodd" fill="#EEF2F4" d="M103.954,62.297c0.161,0.737,0.023,1.773,0.07,2.625
		c-0.023,0-0.047,0-0.07,0C103.954,64.048,103.954,63.171,103.954,62.297z"/>
	<path fill-rule="evenodd" clip-rule="evenodd" fill="#68CEEF" d="M103.954,64.922c0.023,0,0.047,0,0.07,0c0,1.729,0,3.457,0,5.185
		C103.862,68.517,104.001,66.628,103.954,64.922z"/>
	<path fill-rule="evenodd" clip-rule="evenodd" fill="#EEF2F4" d="M102.503,64.993c0.023,0,0.046,0,0.069,0c0,0.874,0,1.751,0,2.625
		C102.411,66.88,102.549,65.844,102.503,64.993z"/>
	<path fill-rule="evenodd" clip-rule="evenodd" fill="#68CEEF" d="M102.572,70.176c0.115,1.359,0.115,3.203,0,4.563
		c0-0.022,0-0.045,0-0.069C102.572,73.172,102.572,71.675,102.572,70.176z"/>
	<path fill-rule="evenodd" clip-rule="evenodd" fill="#EEF2F4" d="M104.024,72.734c0.16,0.508,0.022,1.313,0.068,1.936
		c-0.022,0-0.046,0-0.068,0C104.024,74.024,104.024,73.379,104.024,72.734z"/>
	<path fill-rule="evenodd" clip-rule="evenodd" fill="#EEF2F4" d="M101.742,74.739c0.142-0.158,0.574-0.024,0.83-0.069
		c0,0.024,0,0.047,0,0.069C102.296,74.739,102.019,74.739,101.742,74.739z"/>
	<path fill-rule="evenodd" clip-rule="evenodd" fill="#68CEEF" d="M104.024,74.669c0.022,0,0.046,0,0.068,0c0.322,0,0.646,0,0.968,0
		c0,0.024,0,0.047,0,0.069C104.737,74.694,104.232,74.83,104.024,74.669z"/>
	<path fill-rule="evenodd" clip-rule="evenodd" fill="#EEF2F4" d="M105.061,74.739c0-0.022,0-0.045,0-0.069
		c0.232,0.044,0.642-0.089,0.761,0.069C105.567,74.739,105.314,74.739,105.061,74.739z"/>
	<path fill-rule="evenodd" clip-rule="evenodd" fill="#68CEEF" d="M100.429,74.809c0.141-0.16,0.574-0.026,0.83-0.07
		C101.118,74.897,100.685,74.763,100.429,74.809z"/>
	<path fill-rule="evenodd" clip-rule="evenodd" fill="#68CEEF" d="M106.374,74.739c0.255,0.044,0.688-0.09,0.83,0.07
		C106.948,74.763,106.515,74.897,106.374,74.739z"/>
	<path fill-rule="evenodd" clip-rule="evenodd" fill="#68CEEF" d="M240.202,85.453c0.37-0.114,1.22-0.114,1.59,0
		C241.262,85.453,240.732,85.453,240.202,85.453z"/>
	<path fill-rule="evenodd" clip-rule="evenodd" fill="#68CEEF" d="M189.671,96.098c0.163-0.158,0.621-0.024,0.898-0.067
		C190.406,96.189,189.949,96.055,189.671,96.098z"/>
	<path fill-rule="evenodd" clip-rule="evenodd" fill="#EEF2F4" d="M187.32,96.098c0.115,6.521,0.115,13.527,0,20.047
		C187.32,109.464,187.32,102.781,187.32,96.098z"/>
	<path fill-rule="evenodd" clip-rule="evenodd" fill="#68CEEF" d="M188.842,96.098c0,6.66,0,13.318,0,19.979
		C188.727,109.579,188.727,102.597,188.842,96.098z"/>
	<path fill-rule="evenodd" clip-rule="evenodd" fill="#68CEEF" d="M213.935,111.583c0.044-0.232-0.09-0.642,0.068-0.762
		C213.96,111.055,214.093,111.465,213.935,111.583z"/>
	<path fill-rule="evenodd" clip-rule="evenodd" fill="#68CEEF" d="M213.935,113.38c0.158,0.118,0.025,0.528,0.068,0.762
		C213.845,114.022,213.979,113.613,213.935,113.38z"/>
	<path fill-rule="evenodd" clip-rule="evenodd" fill="#68CEEF" d="M179.44,125.685c-0.115-0.118-0.115-0.71,0-0.83
		C179.44,125.131,179.44,125.408,179.44,125.685z"/>
	<path fill-rule="evenodd" clip-rule="evenodd" fill="#68CEEF" d="M207.644,131.007c0.462-0.114,1.404-0.114,1.867,0
		C208.888,131.007,208.267,131.007,207.644,131.007z"/>
	<path fill-rule="evenodd" clip-rule="evenodd" fill="#68CEEF" d="M189.049,134.464c0.029,0.066-0.054,0.049-0.069,0.068
		c-0.367,0.481-0.138,2.596-0.138,3.664c0,9.004,0,18.307,0,26.96c-0.162-10.093-0.023-20.484-0.069-30.692
		C188.864,134.464,188.957,134.464,189.049,134.464z"/>
	<path fill-rule="evenodd" clip-rule="evenodd" fill="#68CEEF" d="M33.93,141.514c0.044-0.209-0.088-0.595,0.069-0.69
		C33.955,141.035,34.088,141.418,33.93,141.514z"/>
	<path fill-rule="evenodd" clip-rule="evenodd" fill="#EEF2F4" d="M239.926,141.031c0,1.036,0,2.074,0,3.111
		c-0.023,0-0.047,0-0.069,0C239.902,143.128,239.765,141.93,239.926,141.031z"/>
	<path fill-rule="evenodd" clip-rule="evenodd" fill="#68CEEF" d="M241.653,141.1c0,1.336,0,2.673,0,4.01
		C241.539,143.935,241.539,142.276,241.653,141.1z"/>
	<path fill-rule="evenodd" clip-rule="evenodd" fill="#68CEEF" d="M173.634,141.514c0.159,0.188,0.024,0.668,0.069,0.969
		C173.543,142.296,173.678,141.815,173.634,141.514z"/>
	<path fill-rule="evenodd" clip-rule="evenodd" fill="#68CEEF" d="M33.86,142.483c0.023,0,0.046,0,0.069,0c0,1.428,0,2.857,0,4.286
		c-0.023,0-0.046,0-0.069,0C33.86,145.34,33.86,143.911,33.86,142.483z"/>
	<path fill-rule="evenodd" clip-rule="evenodd" fill="#EEF2F4" d="M173.703,143.105c0.115,0.853,0.115,2.188,0,3.042
		C173.703,145.133,173.703,144.119,173.703,143.105z"/>
	<path fill-rule="evenodd" clip-rule="evenodd" fill="#68CEEF" d="M194.924,145.317c-0.114-0.301-0.114-1.081,0-1.382
		C194.924,144.396,194.924,144.856,194.924,145.317z"/>
	<path fill-rule="evenodd" clip-rule="evenodd" fill="#68CEEF" d="M241.653,145.8c-0.043,0.211,0.089,0.595-0.068,0.692
		C241.628,146.283,241.496,145.896,241.653,145.8z"/>
	<path fill-rule="evenodd" clip-rule="evenodd" fill="#68CEEF" d="M173.703,146.769c-0.045,0.301,0.09,0.781-0.069,0.967
		C173.678,147.435,173.543,146.956,173.703,146.769z"/>
	<path fill-rule="evenodd" clip-rule="evenodd" fill="#68CEEF" d="M33.93,147.736c0.158,0.096,0.025,0.482,0.069,0.692
		C33.842,148.331,33.974,147.947,33.93,147.736z"/>
	<path fill-rule="evenodd" clip-rule="evenodd" fill="#EEF2F4" d="M207.574,159.625c0,0.669,0,1.337,0,2.005
		c-0.022,0-0.046,0-0.068,0C207.552,160.985,207.414,160.156,207.574,159.625z"/>
	<path fill-rule="evenodd" clip-rule="evenodd" fill="#68CEEF" d="M209.303,159.695c0,1.313,0,2.628,0,3.94
		c-0.023,0-0.046,0-0.068,0C209.279,162.345,209.142,160.871,209.303,159.695z"/>
	<path fill-rule="evenodd" clip-rule="evenodd" fill="#68CEEF" d="M207.506,161.63c0.022,0,0.046,0,0.068,0
		c-0.045,1.152,0.092,2.488-0.068,3.526C207.506,163.981,207.506,162.806,207.506,161.63z"/>
	<path fill-rule="evenodd" clip-rule="evenodd" fill="#EEF2F4" d="M209.234,163.635c0.022,0,0.045,0,0.068,0
		c-0.046,0.646,0.092,1.475-0.068,2.005C209.234,164.972,209.234,164.303,209.234,163.635z"/>
	<path fill-rule="evenodd" clip-rule="evenodd" fill="#68CEEF" d="M187.252,165.157c0,0.461,0,0.922,0,1.383
		c7.327,0,14.654,0,21.982,0c-7.213,0.159-14.725,0.022-22.052,0.067C187.228,166.146,187.091,165.502,187.252,165.157z"/>
	<path fill-rule="evenodd" clip-rule="evenodd" fill="#68CEEF" d="M101.052,214.511c-0.256-0.044-0.689,0.091-0.83-0.067
		C100.477,214.487,100.91,214.353,101.052,214.511z"/>
	<path fill-rule="evenodd" clip-rule="evenodd" fill="#68CEEF" d="M106.581,214.511c0.119-0.156,0.527-0.024,0.761-0.067
		C107.224,214.602,106.814,214.467,106.581,214.511z"/>
	<path fill-rule="evenodd" clip-rule="evenodd" fill="#68CEEF" d="M102.157,214.581c0-0.022,0-0.045,0-0.069
		c1.106,0,2.212,0,3.318,0c0,0.024,0,0.047,0,0.069C104.369,214.581,103.264,214.581,102.157,214.581z"/>
	<path fill-rule="evenodd" clip-rule="evenodd" fill="#EEF2F4" d="M162.573,35.199c0.363-0.42,0.755-0.812,1.176-1.175
		C163.386,34.445,162.994,34.835,162.573,35.199z"/>
	<path fill-rule="evenodd" clip-rule="evenodd" fill="#68CEEF" d="M162.09,35.752c0.119-0.227,0.364-0.327,0.483-0.554
		c0.421-0.363,0.813-0.754,1.176-1.175c0.227-0.118,0.326-0.365,0.553-0.483C163.593,34.305,162.855,35.042,162.09,35.752z"/>
	<path fill-rule="evenodd" clip-rule="evenodd" fill="#68CEEF" d="M55.773,93.75c0.227-0.12,0.327-0.365,0.554-0.485
		c-0.248,0.306-0.524,0.582-0.83,0.829C55.544,93.933,55.727,93.909,55.773,93.75z"/>
	<path fill-rule="evenodd" clip-rule="evenodd" fill="#EEF2F4" d="M54.944,94.579c0.247-0.306,0.523-0.583,0.829-0.829
		c-0.047,0.159-0.229,0.184-0.276,0.344C55.271,94.213,55.17,94.458,54.944,94.579z"/>
	<path fill-rule="evenodd" clip-rule="evenodd" fill="#68CEEF" d="M53.769,95.754c0.363-0.421,0.755-0.814,1.176-1.176
		C54.581,95,54.189,95.391,53.769,95.754z"/>
	<path fill-rule="evenodd" clip-rule="evenodd" fill="#EEF2F4" d="M52.87,96.652c0.271-0.329,0.57-0.628,0.898-0.897
		c-0.119,0.226-0.364,0.325-0.483,0.553C53.104,96.378,53.053,96.581,52.87,96.652z"/>
	<path fill-rule="evenodd" clip-rule="evenodd" fill="#68CEEF" d="M52.455,97.136c0.096-0.205,0.32-0.279,0.415-0.484
		c0.183-0.071,0.233-0.273,0.415-0.345C53.037,96.612,52.761,96.888,52.455,97.136z"/>
	<path fill-rule="evenodd" clip-rule="evenodd" fill="#EEF2F4" d="M152.343,195.018c0.593-0.65,1.216-1.273,1.866-1.866
		C153.616,193.802,152.994,194.424,152.343,195.018z"/>
	<path fill-rule="evenodd" clip-rule="evenodd" fill="#68CEEF" d="M151.651,195.64c1.031-1.089,2.092-2.149,3.18-3.179
		c-0.166,0.271-0.456,0.419-0.622,0.69c-0.65,0.593-1.273,1.216-1.866,1.866C152.07,195.185,151.924,195.475,151.651,195.64z"/>
	<path fill-rule="evenodd" clip-rule="evenodd" fill="#EEF2F4" d="M153.933,95.822c-0.467-0.408-0.904-0.847-1.313-1.313
		C153.086,94.917,153.523,95.356,153.933,95.822z"/>
	<path fill-rule="evenodd" clip-rule="evenodd" fill="#68CEEF" d="M151.79,93.75c0.317,0.212,0.512,0.548,0.829,0.76
		c0.409,0.466,0.847,0.904,1.313,1.313c0.213,0.318,0.548,0.513,0.761,0.83C153.696,95.712,152.729,94.746,151.79,93.75z"/>
	<path fill-rule="evenodd" clip-rule="evenodd" fill="#68CEEF" d="M162.366,84.762c0.559,0.501,1.089,1.031,1.59,1.59
		C163.397,85.851,162.867,85.321,162.366,84.762z"/>
	<path fill-rule="evenodd" clip-rule="evenodd" fill="#EEF2F4" d="M181.514,119.395c0.34-0.49,0.755-0.906,1.244-1.245
		C182.357,118.58,181.926,118.976,181.514,119.395z"/>
	<path fill-rule="evenodd" clip-rule="evenodd" fill="#EEF2F4" d="M187.252,134.395c0.32,4.827,0.047,10.253,0.138,15.346
		c-0.046,5.116,0.093,10.415-0.069,15.416C187.274,154.925,187.413,144.51,187.252,134.395z"/>
	<path fill-rule="evenodd" clip-rule="evenodd" fill="#68CEEF" d="M217.667,154.857c0.34-0.398,0.709-0.767,1.105-1.105
		C218.433,154.148,218.064,154.516,217.667,154.857z"/>
	<path fill-rule="evenodd" clip-rule="evenodd" fill="#EEF2F4" d="M259.558,132.252c0.119-0.228,0.364-0.327,0.483-0.553
		c0.1-0.04,0.169-0.107,0.208-0.209c0.203-0.096,0.279-0.318,0.483-0.414C260.37,131.498,259.978,131.889,259.558,132.252z"/>
	<path fill-rule="evenodd" clip-rule="evenodd" fill="#68CEEF" d="M260.249,131.491c0.271-0.328,0.57-0.628,0.898-0.897
		c-0.096,0.204-0.319,0.28-0.415,0.483C260.528,131.172,260.452,131.395,260.249,131.491z"/>
	<path fill-rule="evenodd" clip-rule="evenodd" fill="#EEF2F4" d="M260.525,93.679c-0.282-0.224-0.536-0.478-0.761-0.76
		C260.048,93.144,260.301,93.398,260.525,93.679z"/>
	<path fill-rule="evenodd" clip-rule="evenodd" fill="#68CEEF" d="M259.212,92.434c0.227,0.12,0.326,0.365,0.553,0.485
		c0.225,0.282,0.479,0.536,0.761,0.76c0.119,0.227,0.364,0.327,0.483,0.554C260.381,93.663,259.782,93.064,259.212,92.434z"/>
	<path fill-rule="evenodd" clip-rule="evenodd" fill="#68CEEF" d="M221.055,94.163c0.524-0.58,1.077-1.134,1.658-1.658
		C222.189,93.086,221.636,93.639,221.055,94.163z"/>
	<path fill-rule="evenodd" clip-rule="evenodd" fill="#EEF2F4" d="M221.331,131.147c0.351,0.292,0.674,0.615,0.968,0.967
		C221.947,131.82,221.625,131.498,221.331,131.147z"/>
	<path fill-rule="evenodd" clip-rule="evenodd" fill="#68CEEF" d="M222.299,132.114c-0.294-0.352-0.617-0.675-0.968-0.967
		c-0.096-0.205-0.319-0.28-0.415-0.485c0.674,0.617,1.319,1.263,1.936,1.936C222.625,132.479,222.524,132.234,222.299,132.114z"/>
	<path fill-rule="evenodd" clip-rule="evenodd" fill="#68CEEF" d="M239.856,144.142c0.022,0,0.046,0,0.069,0
		c-0.03,0.314,0.07,0.762-0.069,0.968c-5.853-0.047-11.89,0.091-17.627-0.069c5.875,0,11.751,0,17.627,0
		C239.856,144.74,239.856,144.441,239.856,144.142z"/>
	<path fill-rule="evenodd" clip-rule="evenodd" fill="#68CEEF" d="M217.736,134.464c0.352,0.294,0.674,0.616,0.968,0.967
		C218.353,135.137,218.03,134.816,217.736,134.464z"/>
	<path fill-rule="evenodd" clip-rule="evenodd" fill="#EEF2F4" d="M198.174,135.708c0.405-0.562,0.889-1.045,1.451-1.451
		C199.142,134.741,198.658,135.226,198.174,135.708z"/>
	<path fill-rule="evenodd" clip-rule="evenodd" fill="#EEF2F4" d="M199.694,155.064c-0.609-0.45-1.14-0.98-1.59-1.59
		C198.625,154.013,199.155,154.542,199.694,155.064z"/>
	<path fill-rule="evenodd" clip-rule="evenodd" fill="#EEF2F4" d="M195.754,131.147c-0.339,0.488-0.754,0.904-1.244,1.243
		C194.928,131.978,195.325,131.546,195.754,131.147z"/>
	<path fill-rule="evenodd" clip-rule="evenodd" fill="#68CEEF" d="M194.718,118.357c0.305,0.248,0.581,0.525,0.829,0.829
		C195.241,118.939,194.965,118.663,194.718,118.357z"/>
	<path fill-rule="evenodd" clip-rule="evenodd" fill="#68CEEF" d="M212.759,86.836c0.226-0.283,0.479-0.537,0.761-0.761
		c-0.047,0.161-0.229,0.186-0.276,0.346C213.039,86.517,212.963,86.742,212.759,86.836z"/>
	<path fill-rule="evenodd" clip-rule="evenodd" fill="#EEF2F4" d="M213.243,86.421c0.047-0.16,0.229-0.185,0.276-0.346
		c0.397-0.34,0.766-0.708,1.106-1.106c0.16-0.047,0.185-0.229,0.345-0.276C214.424,85.298,213.848,85.874,213.243,86.421z"/>
	<path fill-rule="evenodd" clip-rule="evenodd" fill="#68CEEF" d="M214.626,84.969c0.201-0.259,0.432-0.488,0.69-0.69
		c-0.071,0.181-0.273,0.233-0.346,0.414C214.811,84.74,214.786,84.922,214.626,84.969z"/>
	<path fill-rule="evenodd" clip-rule="evenodd" fill="#68CEEF" d="M213.381,33.954c0.49,0.434,0.951,0.895,1.383,1.383
		C214.274,34.906,213.813,34.445,213.381,33.954z"/>
	<path fill-rule="evenodd" clip-rule="evenodd" fill="#68CEEF" d="M259.143,132.597c0.271-0.329,0.57-0.628,0.898-0.897
		c-0.119,0.226-0.364,0.325-0.483,0.553C259.375,132.324,259.325,132.526,259.143,132.597z"/>
	<path fill-rule="evenodd" clip-rule="evenodd" fill="#68CEEF" d="M55.704,195.364c0.282,0.225,0.536,0.479,0.761,0.76
		c-0.227-0.118-0.326-0.363-0.553-0.483C55.892,195.5,55.725,195.504,55.704,195.364z"/>
	<path fill-rule="evenodd" clip-rule="evenodd" fill="#EEF2F4" d="M55.221,194.95c0.203,0.096,0.28,0.318,0.483,0.414
		c0.021,0.141,0.188,0.136,0.208,0.276C55.652,195.439,55.422,195.209,55.221,194.95z"/>
	<path fill-rule="evenodd" clip-rule="evenodd" fill="#68CEEF" d="M53.492,193.221c0.605,0.546,1.182,1.124,1.729,1.729
		C54.615,194.402,54.04,193.827,53.492,193.221z"/>
	<path fill-rule="evenodd" clip-rule="evenodd" fill="#EEF2F4" d="M53.077,192.738c0.096,0.204,0.319,0.28,0.415,0.483
		c-0.282-0.224-0.535-0.478-0.761-0.76C52.893,192.508,52.917,192.691,53.077,192.738z"/>
	<path fill-rule="evenodd" clip-rule="evenodd" fill="#68CEEF" d="M53.077,192.738c-0.16-0.047-0.185-0.229-0.346-0.276
		c-0.095-0.205-0.318-0.28-0.414-0.485C52.6,192.203,52.854,192.455,53.077,192.738z"/>
	<path fill-rule="evenodd" clip-rule="evenodd" fill="#68CEEF" d="M267.991,110.754c0.157,0.096,0.025,0.479,0.068,0.69
		C267.902,111.349,268.034,110.964,267.991,110.754z"/>
	<path fill-rule="evenodd" clip-rule="evenodd" fill="#EEF2F4" d="M268.06,112.136c0.114,0.075,0.114,0.616,0,0.69
		C268.06,112.597,268.06,112.366,268.06,112.136z"/>
	<path fill-rule="evenodd" clip-rule="evenodd" fill="#68CEEF" d="M268.06,113.519c-0.043,0.21,0.089,0.595-0.068,0.69
		C268.034,114,267.902,113.615,268.06,113.519z"/>
	<g>
		<g>
			<path fill-rule="evenodd" clip-rule="evenodd" fill="#FFFFFF" stroke="#FFFFFF" stroke-width="5" d="M818.097,132.252
				c-0.214,0.588-0.201,1.737-0.276,2.557c-1.133,12.327-6.819,21.792-15.346,26.614c-4.706,2.662-11.656,4.384-18.319,2.765
				c-4.488-1.092-8.229-3.097-11.544-5.253c-1.137-0.739-2.189-1.588-3.387-2.212c-0.232,2.118-0.392,4.309-0.553,6.498
				c-1.152,0-2.305,0-3.457,0c0-32.628,0-65.257,0-97.883c1.314,0,2.627,0,3.94,0c-0.038,13.995,0.129,28.193-0.207,41.89
				c0.335,0.163,0.497-0.258,0.691-0.414c1.87-1.512,3.702-2.847,5.737-4.147c4.392-2.809,9.854-5.852,16.729-5.807
				c18.211,0.118,24.83,12.971,25.991,30.347C818.097,128.888,818.097,130.57,818.097,132.252z M784.294,102.114
				c-5.051,1.883-9.202,4.836-12.996,8.088c-0.698,0.598-1.986,1.413-2.143,2.142c-0.145,0.677,0,1.682,0,2.419
				c0.001,11.839-0.001,22.848,0,34.702c0,0.864-0.163,1.927,0,2.488c0.201,0.69,1.67,1.475,2.281,1.936
				c0.925,0.696,1.721,1.307,2.489,1.798c4.973,3.18,11.74,6.615,19.77,5.045c9.185-1.793,14.714-8.62,17.696-16.52
				c3.201-8.48,3.021-21.205,0.139-29.449c-2.765-7.905-8.911-14.464-20.116-14.101C788.634,100.751,786.42,101.321,784.294,102.114
				z"/>
			<path fill-rule="evenodd" clip-rule="evenodd" fill="#FFFFFF" stroke="#FFFFFF" stroke-width="5" d="M357.025,82.688
				c-0.758,1.109-1.726,2.008-2.627,2.974c-5.322-5.45-12.464-9.943-23.02-9.402c-5.164,0.266-9.323,1.5-12.58,3.733
				c-3.168,2.172-5.668,5.291-6.637,9.609c-1.159,5.173,0.272,9.912,2.488,12.995c2.317,3.224,5.617,5.355,9.125,7.119
				c7.33,3.685,15.109,6.63,22.259,10.301c7.364,3.781,13.19,8.704,14.171,18.388c1.074,10.607-4.108,17.965-10.368,21.912
				c-6.433,4.056-17.203,5.805-27.028,3.457c-8.741-2.088-15.069-6.592-20.186-12.374c0.671-0.9,1.331-1.399,2.212-2.281
				c0.187-0.187,0.61-0.758,0.691-0.76c0.192-0.004,1.554,1.622,1.729,1.796c6.201,6.201,14.771,11.398,27.581,10.646
				c4.129-0.241,8.045-1.391,10.991-2.901c6.022-3.094,10.712-8.697,10.161-17.559c-0.817-13.158-11.401-16.257-21.152-20.669
				c-3.184-1.439-6.445-2.858-9.608-4.286c-6.42-2.896-12.427-6.41-15.554-12.305c-1.674-3.156-2.547-7.443-2.073-11.752
				c0.438-3.991,1.987-7.429,3.939-9.954c4.008-5.18,10.822-8.689,19.01-9.124C343.212,71.578,350.847,76.678,357.025,82.688z"/>
			<path fill-rule="evenodd" clip-rule="evenodd" fill="#FFFFFF" stroke="#FFFFFF" stroke-width="5" d="M641.687,159.557
				c14.01,0,28.02,0,42.029,0c0,1.221,0,2.441,0,3.664c-15.438,0-30.876,0-46.314,0c0-29.815,0-59.635,0-89.451
				c1.405,0,2.811,0,4.216,0c0,28.527,0,57.052,0,85.579C641.598,159.461,641.683,159.468,641.687,159.557z"/>
			<path fill-rule="evenodd" clip-rule="evenodd" fill="#FFFFFF" stroke="#FFFFFF" stroke-width="5" d="M601.317,98.45
				c6.406,0,12.812,0,19.217,0c0,1.243,0,2.488,0,3.731c-6.405,0-12.811,0-19.217,0c-0.127,13.053-0.069,27.091-0.069,40.439
				c0,7.26,0.01,13.121,3.94,16.314c3.887,3.157,11.524,2.408,15.83,0c0.56,1.076,0.976,2.295,1.382,3.524
				c-2.812,0.775-5.721,2.091-8.917,2.352c-3.729,0.304-7.109-0.489-9.471-1.799c-4.745-2.629-6.704-8.352-6.705-15.76
				c-0.001-14.844,0.001-30.285,0-45.002c-3.318-0.16-6.936-0.022-10.368-0.069c0-1.059,0-2.12,0-3.179
				c3.461-0.156,6.918-0.316,10.299-0.553c0.244-6.255,0.402-12.594,0.554-18.94c1.151,0,2.304,0,3.456,0c0,6.244,0,12.488,0,18.733
				C601.229,98.354,601.313,98.361,601.317,98.45z"/>
			<path fill-rule="evenodd" clip-rule="evenodd" fill="#FFFFFF" stroke="#FFFFFF" stroke-width="5" d="M421.866,110.269
				c0.483-0.004,0.699-0.544,0.967-0.829c4.401-4.673,9.588-9.787,16.66-11.82c4.329-1.245,9.386-0.777,12.995,0.69
				c3.574,1.454,6.161,4.036,7.881,7.259c3.612,6.773,3.112,16.958,3.11,27.305c-0.001,10.173,0.001,20.326,0,30.348
				c-1.337,0-2.673,0-4.009,0c0-9.438,0-18.687,0-27.997c0-9.135,0.704-19.34-2.005-25.991c-1.29-3.167-3.572-5.982-6.705-7.328
				c-3.379-1.45-7.999-1.686-11.752-0.414c-5.881,1.991-10.119,6.156-14.102,10.369c-0.419,0.443-1.59,1.599-1.59,2.005
				c-0.003,16.167,0.003,33.021,0,49.356c-1.337,0-2.673,0-4.01,0c0-9.453,0-18.745,0-28.066c0-9.184,0.634-19.286-2.073-25.922
				c-1.351-3.31-3.497-5.927-6.706-7.328c-3.438-1.499-8.021-1.637-11.751-0.345c-5.891,2.042-10.15,6.184-14.102,10.438
				c-0.498,0.537-1.462,1.346-1.59,1.867c-0.192,0.786,0,2.051,0,3.109c0,15.4,0,30.936,0,46.247c-1.313,0-2.627,0-3.94,0
				c0-21.591,0-43.183,0-64.771c1.152,0,2.305,0,3.457,0c0.11,3.482,0.392,6.797,0.483,10.3c0.563,0.128,0.839-0.534,1.105-0.83
				c2.158-2.395,4.743-4.727,7.535-6.636c3.203-2.19,7.321-4.331,12.098-4.424C414.097,96.66,419.736,101.941,421.866,110.269z"/>
			<path fill-rule="evenodd" clip-rule="evenodd" fill="#FFFFFF" stroke="#FFFFFF" stroke-width="5" d="M530.117,163.221
				c-1.152,0-2.304,0-3.456,0c-0.109-2.934-0.396-5.688-0.484-8.641c-0.55-0.045-0.94,0.472-1.313,0.76
				c-2.775,2.147-5.765,4.186-9.125,5.876c-3.833,1.927-7.999,3.595-13.549,3.595c-10.745,0-18.067-5.455-18.595-15.762
				c-0.601-11.716,6.349-16.772,14.309-20.047c8.192-3.37,18.016-4.887,28.204-6.083c0.28-11.32-2.728-19.796-11.821-21.844
				c-5.056-1.14-10.419-0.042-14.517,1.382c-4.2,1.463-7.667,3.699-10.853,6.016c-0.65-1.126-1.47-2.078-2.074-3.249
				c6.3-4.156,13.077-8.169,23.158-8.364c14.014-0.272,20.114,9.544,20.115,23.157C530.118,134.181,530.116,148.987,530.117,163.221
				z M525.624,126.445c-1.135-0.077-2.313,0.271-3.387,0.415c-7.859,1.058-15.665,2.468-21.775,4.978
				c-6.706,2.754-13.769,7.336-12.512,17.765c1.047,8.683,8.619,12.817,18.595,11.129c7.301-1.234,12.743-5.168,17.628-9.124
				c0.579-0.47,1.861-1.319,2.004-1.866c0.193-0.738,0-1.916,0-2.903c0-6.438,0.001-12.886,0-19.218
				c0-0.564,0.107-1.132-0.276-1.243c-0.055-0.017-0.143,0.068-0.138,0.068C525.719,126.438,525.669,126.448,525.624,126.445z"/>
			<path fill-rule="evenodd" clip-rule="evenodd" fill="#FFFFFF" stroke="#FFFFFF" stroke-width="5" d="M740.952,163.221
				c-1.152,0-2.305,0-3.457,0c-0.108-2.934-0.395-5.688-0.483-8.641c-0.55-0.045-0.941,0.472-1.313,0.76
				c-2.775,2.147-5.764,4.186-9.124,5.876c-3.833,1.927-7.999,3.595-13.549,3.595c-10.744,0-18.069-5.455-18.596-15.762
				c-0.598-11.716,6.349-16.772,14.31-20.047c8.192-3.37,18.016-4.887,28.203-6.083c0.281-11.32-2.727-19.796-11.82-21.844
				c-5.057-1.14-10.42-0.042-14.517,1.382c-4.2,1.463-7.668,3.699-10.853,6.016c-0.65-1.126-1.47-2.078-2.074-3.249
				c6.3-4.156,13.077-8.169,23.158-8.364c14.014-0.272,20.115,9.544,20.115,23.157C740.952,134.181,740.952,148.987,740.952,163.221
				z M736.459,126.445c-1.135-0.077-2.313,0.271-3.388,0.415c-7.86,1.058-15.666,2.47-21.774,4.978
				c-6.708,2.754-13.769,7.336-12.512,17.765c1.046,8.683,8.62,12.817,18.595,11.129c7.3-1.234,12.744-5.168,17.627-9.124
				c0.579-0.47,1.862-1.319,2.005-1.866c0.193-0.738,0-1.916,0-2.903c0.001-6.438-0.001-12.886,0-19.218
				c0-0.568,0.106-1.132-0.276-1.243c-0.056-0.017-0.143,0.068-0.139,0.068C736.553,126.438,736.504,126.448,736.459,126.445z"/>
			<path fill-rule="evenodd" clip-rule="evenodd" fill="#FFFFFF" stroke="#FFFFFF" stroke-width="5" d="M583.344,98.173
				c-0.386,1.248-0.719,2.553-1.105,3.801c-6.034-2.84-12.454,0.22-15.691,3.388c-2.662,2.606-4.689,5.665-6.567,9.4
				c-0.591,1.176-1.473,2.574-1.658,3.595c-0.303,1.657-0.001,3.749,0,5.669c0,12.853-0.001,26.525,0,39.195
				c-1.314,0-2.628,0-3.94,0c0-21.591,0-43.183,0-64.771c1.151,0,2.304,0,3.456,0c0.155,4.107,0.312,8.213,0.553,12.235
				c0.551-0.071,0.678-0.736,0.899-1.106c1.628-2.737,3.563-5.419,5.944-7.604c2.707-2.484,6.108-4.723,10.507-5.046
				C578.86,96.699,581.255,97.236,583.344,98.173z"/>
			<path fill-rule="evenodd" clip-rule="evenodd" fill="#FFFFFF" stroke="#FFFFFF" stroke-width="5" d="M818.097,133.496
				c-0.023,0-0.046,0-0.069,0c-1.063,13.275-6.522,23.15-15.899,28.273c-4.528,2.473-11.442,4.16-18.18,2.488
				c-2.924-0.727-5.519-1.815-7.949-3.11c-2.401-1.28-4.539-2.869-6.705-4.287c-0.143,2.209-0.305,4.396-0.553,6.499
				c-1.198,0-2.396,0-3.596,0c-0.161-32.559-0.022-65.415-0.068-98.09c1.246-0.115,2.97-0.115,4.217,0
				c-0.042,13.944,0.135,28.108-0.208,41.752c0.155,0.116,0.51-0.214,0.761-0.414c3.718-2.963,7.951-6.008,12.789-7.95
				c2.635-1.058,5.902-1.899,9.193-1.936c3.304-0.037,6.678,0.528,9.539,1.521c10.936,3.789,15.646,13.813,16.729,27.581
				c0,0.437,0,0.875,0,1.313c-1.035-17.45-7.846-30.149-25.922-30.346c-3.394-0.036-6.613,0.878-9.332,1.936
				c-5.374,2.087-9.865,5.37-13.825,8.502c0.336-13.696,0.169-27.895,0.207-41.89c-1.221-0.162-2.742-0.024-4.079-0.069
				c0,32.675,0,65.346,0,98.021c1.176,0,2.351,0,3.526,0c0.258-2.093,0.418-4.281,0.553-6.497c1.191,0.621,2.24,1.466,3.387,2.212
				c3.304,2.147,7.063,4.163,11.544,5.253c6.602,1.605,13.658-0.128,18.319-2.765c9.388-5.311,14.764-15.426,15.553-29.172
				c0.023,0,0.046,0,0.069,0C818.097,132.713,818.097,133.105,818.097,133.496z"/>
			<path fill-rule="evenodd" clip-rule="evenodd" fill="#FFFFFF" stroke="#FFFFFF" stroke-width="5" d="M357.163,82.688
				c-0.806,1.152-1.805,2.112-2.765,3.11c-5.323-5.442-12.518-9.986-23.088-9.4c-9.858,0.546-17.295,4.793-19.079,13.48
				c-1.069,5.206,0.435,9.917,2.696,12.926c2.365,3.147,5.783,5.342,9.263,7.051c7.431,3.652,15.159,6.411,22.328,10.23
				c7.26,3.869,13.002,8.877,13.825,18.803c0.872,10.529-4.283,17.659-10.646,21.636c-3.375,2.111-7.536,3.575-12.167,4.147
				c-4.94,0.61-10.378,0.273-14.931-0.829c-8.741-2.114-15.021-6.673-20.116-12.442c0.905-1.168,2.08-2.067,3.042-3.181
				c4.545,4.974,9.7,8.949,16.867,11.062c16.406,4.834,34.664-2.259,33.457-19.217c-0.919-12.91-11.627-15.993-21.43-20.393
				c-3.197-1.437-6.392-2.918-9.539-4.356c-6.527-2.98-12.291-6.392-15.415-12.441c-1.66-3.216-2.424-7.469-1.936-11.752
				c0.465-4.079,1.999-7.313,4.009-9.884c4.042-5.17,10.735-8.687,19.01-9.126C343.306,71.433,350.963,76.61,357.163,82.688z
				 M330.55,72.181c-8.312,0.441-14.928,3.961-19.01,9.124c-1.979,2.504-3.558,5.937-4.009,9.886
				c-0.5,4.374,0.429,8.601,2.073,11.752c3.161,6.057,8.895,9.42,15.484,12.372c3.145,1.411,6.354,2.906,9.54,4.356
				c9.815,4.469,20.401,7.5,21.29,20.53c1.15,16.865-17.144,23.975-33.525,19.147c-7.166-2.111-12.323-6.087-16.867-11.06
				c-0.938,1.088-2.091,1.965-2.973,3.11c5.091,5.706,11.417,10.364,20.116,12.442c4.568,1.092,10.029,1.377,14.931,0.762
				c4.633-0.583,8.731-2.12,12.098-4.217c6.58-4.104,11.555-11.291,10.576-21.706c-1.372-14.589-13.951-18.803-25.093-23.779
				c-3.721-1.663-7.516-3.294-11.198-5.116c-3.455-1.708-6.886-3.878-9.194-7.052c-2.197-3.021-3.751-7.808-2.627-12.995
				c0.926-4.272,3.47-7.529,6.567-9.677c3.254-2.256,7.456-3.45,12.581-3.733c10.575-0.586,17.756,3.954,23.088,9.4
				c0.931-0.98,1.914-1.909,2.696-3.041C350.905,76.645,343.259,71.506,330.55,72.181z"/>
			<path fill-rule="evenodd" clip-rule="evenodd" fill="#FFFFFF" stroke="#FFFFFF" stroke-width="5" d="M637.401,73.633
				c1.429,0,2.856,0,4.285,0c0.161,28.456,0.023,57.214,0.069,85.785c14.01,0,28.02,0,42.028,0c0.115,1.154,0.115,2.785,0,3.94
				c-15.483-0.045-31.152,0.092-46.521-0.069c0-29.816,0-59.634,0-89.449C637.26,73.722,637.314,73.661,637.401,73.633z
				 M637.332,73.91c0,29.791,0,59.588,0,89.38c15.484,0,30.969,0,46.452,0c0-1.269,0-2.534,0-3.802
				c-14.009-0.047-28.203,0.092-42.098-0.069c0-28.572,0-57.146,0-85.716c-1.429,0-2.856,0-4.285,0
				C637.32,73.713,637.326,73.812,637.332,73.91z"/>
			<path fill-rule="evenodd" clip-rule="evenodd" fill="#FFFFFF" stroke="#FFFFFF" stroke-width="5" d="M597.792,79.37
				c1.175,0,2.351,0,3.525,0c0.161,6.177,0.023,12.651,0.069,18.94c6.405,0.047,12.995-0.092,19.286,0.07c0,1.29,0,2.58,0,3.87
				c-6.291,0.162-12.881,0.022-19.286,0.07c0.001,13.165-0.002,27.024,0,40.369c0,7.131-0.043,13.214,3.939,16.245
				c4.036,3.07,11.51,2.135,15.83-0.14c0.482,1.2,0.989,2.376,1.383,3.664c-2.693,0.995-5.654,2.082-8.917,2.421
				c-3.617,0.374-7.093-0.372-9.471-1.659c-4.789-2.595-6.981-8.202-6.981-15.622c-0.001-14.912,0.001-30.423,0-45.209
				c-3.296-0.162-6.89-0.022-10.3-0.069c-0.159-0.993-0.025-2.28-0.069-3.388c3.389-0.252,6.859-0.421,10.369-0.553
				c0.09-6.339,0.374-12.482,0.483-18.802C597.65,79.46,597.705,79.4,597.792,79.37z M597.723,79.646
				c-0.158,6.294-0.308,12.598-0.553,18.804c-3.508,0.087-6.81,0.379-10.3,0.483c0,1.105,0,2.212,0,3.317
				c3.433,0.047,7.051-0.092,10.368,0.07c0.001,14.738-0.001,30.203,0,45.069c0.001,7.474,2.06,13.037,6.844,15.692
				c2.352,1.306,5.727,2.118,9.471,1.798c3.177-0.273,6.17-1.584,8.917-2.421c-0.36-1.274-0.915-2.356-1.313-3.594
				c-4.291,2.255-11.879,3.235-15.898,0.139c-3.969-3.059-3.939-9.185-3.94-16.314c-0.003-13.347-0.056-27.387,0.069-40.439
				c6.405,0,12.811,0,19.217,0c0-1.29,0-2.58,0-3.87c-6.429,0-12.857,0-19.286,0c0-6.314,0-12.627,0-18.941
				c-1.175,0-2.351,0-3.525,0C597.711,79.452,597.717,79.549,597.723,79.646z"/>
			<path fill-rule="evenodd" clip-rule="evenodd" fill="#FFFFFF" stroke="#FFFFFF" stroke-width="5" d="M422.004,110.131
				c4.857-4.745,9.906-10.588,17.627-12.719c4.41-1.217,9.479-0.666,13.065,0.83c3.541,1.475,6.123,4.156,7.812,7.396
				c3.569,6.85,3.108,16.958,3.11,27.374c0.001,10.152,0.056,20.461-0.069,30.347c-1.383,0-2.765,0-4.147,0
				c-0.127-9.26-0.069-18.605-0.069-27.858c-0.001-14.054,1.319-28.993-8.503-33.387c-3.322-1.487-7.968-1.795-11.751-0.554
				c-5.872,1.926-10.089,6.214-14.033,10.37c-0.511,0.537-1.463,1.342-1.59,1.865c-0.191,0.79,0,2.051,0,3.111
				c0,15.445,0,31.027,0,46.383c-1.269,0.159-2.833,0.024-4.216,0.069c-0.128-9.281-0.069-18.655-0.069-27.928
				c-0.001-14.103,1.307-28.933-8.571-33.317c-3.354-1.49-7.919-1.779-11.683-0.485c-5.884,2.025-10.156,6.123-14.102,10.369
				c-0.489,0.526-1.463,1.348-1.591,1.867c-0.192,0.786,0.001,2.051,0,3.109c-0.001,15.423,0.002,30.982,0,46.315
				c-1.246,0.114-2.97,0.114-4.216,0c0-21.637,0-43.273,0-64.909c1.084-0.16,2.464-0.024,3.663-0.07
				c0.255,3.363,0.405,6.831,0.553,10.3c0.482-0.067,0.752-0.588,1.038-0.897c2.187-2.38,4.705-4.656,7.534-6.567
				c3.253-2.196,7.208-4.33,12.028-4.424C414.15,96.521,419.743,101.884,422.004,110.131z M403.824,96.791
				c-4.827,0.094-8.78,2.231-12.028,4.424c-2.859,1.931-5.328,4.226-7.534,6.636c-0.276,0.303-0.617,0.831-1.106,0.829
				c-0.098-3.496-0.379-6.81-0.484-10.299c-1.198,0-2.396,0-3.595,0c0,21.636,0,43.272,0,64.909c1.36,0,2.72,0,4.079,0
				c-0.001-15.333,0-30.893,0-46.315c0-1.059-0.193-2.323,0-3.109c0.127-0.52,1.1-1.341,1.59-1.867
				c3.893-4.189,8.27-8.434,14.032-10.438c3.743-1.302,8.412-1.043,11.751,0.414c9.983,4.356,8.71,19.165,8.711,33.32
				c0,9.303-0.001,18.563,0,27.995c1.382,0,2.765,0,4.147,0c0.001-15.355-0.001-30.938,0-46.383c0-1.061-0.192-2.321,0-3.111
				c0.127-0.523,1.094-1.344,1.59-1.865c3.942-4.155,8.188-8.506,14.032-10.439c3.822-1.266,8.432-0.914,11.752,0.553
				c3.228,1.427,5.31,4.003,6.636,7.328c2.656,6.658,2.004,16.782,2.005,25.923c0.001,9.307-0.001,18.561,0,27.995
				c1.383,0,2.765,0,4.147,0c0-10.043,0-20.223,0-30.416c0-10.347,0.502-20.533-3.111-27.305c-1.709-3.203-4.323-5.867-7.88-7.326
				c-3.562-1.463-8.722-2.009-13.064-0.762c-6.604,1.898-11.438,6.667-15.692,10.922c-0.613,0.614-1.146,1.323-1.866,1.799
				C419.74,101.914,414.124,96.59,403.824,96.791z"/>
			<path fill-rule="evenodd" clip-rule="evenodd" fill="#FFFFFF" stroke="#FFFFFF" stroke-width="5" d="M530.187,163.359
				c-1.198,0-2.396,0-3.595,0c-0.248-2.815-0.406-5.723-0.553-8.641c-0.902,0.439-1.676,1.127-2.488,1.729
				c-2.413,1.784-4.985,3.544-7.881,4.977c-3.871,1.914-8.074,3.524-13.688,3.524c-10.655,0-18-5.66-18.525-15.898
				c-0.601-11.703,6.366-16.833,14.309-20.114c8.2-3.39,18.053-4.96,28.273-6.152c0.066-11.237-2.753-19.769-11.89-21.638
				c-5.173-1.058-10.382,0.098-14.447,1.521c-4.204,1.471-7.627,3.603-10.784,5.943c-0.76-1.083-1.498-2.188-2.212-3.317
				c4.554-3.386,9.69-6.208,16.037-7.673c2.203-0.508,4.691-0.849,7.259-0.898c14.006-0.273,20.253,9.592,20.253,23.227
				C530.255,134.122,530.313,149.197,530.187,163.359z M530.187,119.948c0.002-13.626-6.306-23.427-20.185-23.157
				c-2.565,0.049-5.008,0.4-7.189,0.899c-6.336,1.448-11.463,4.232-16.037,7.603c0.687,1.111,1.433,2.161,2.143,3.25
				c3.175-2.374,6.595-4.47,10.853-5.945c4.039-1.4,9.283-2.628,14.447-1.521c9.104,1.95,11.982,10.465,11.891,21.774
				c-10.218,1.2-20.03,2.727-28.272,6.085c-7.938,3.232-14.907,8.453-14.31,20.114c0.525,10.254,7.848,15.831,18.525,15.831
				c5.56-0.002,9.845-1.593,13.688-3.526c2.849-1.434,5.5-3.218,7.88-4.978c0.822-0.608,1.521-1.393,2.489-1.729
				c0.095,2.946,0.381,5.702,0.483,8.642c1.198,0,2.396,0,3.595,0C530.188,149.009,530.184,134.157,530.187,119.948z"/>
			<path fill-rule="evenodd" clip-rule="evenodd" fill="#FFFFFF" stroke="#FFFFFF" stroke-width="5" d="M741.021,163.359
				c-1.198,0-2.396,0-3.595,0c-0.248-2.815-0.406-5.723-0.554-8.641c-0.901,0.439-1.675,1.127-2.488,1.729
				c-2.412,1.784-4.984,3.544-7.88,4.977c-3.871,1.914-8.074,3.524-13.688,3.524c-10.655,0-18.001-5.66-18.525-15.898
				c-0.6-11.703,6.365-16.833,14.309-20.114c8.2-3.39,18.053-4.96,28.272-6.152c0.067-11.237-2.752-19.769-11.889-21.638
				c-5.173-1.058-10.382,0.098-14.448,1.521c-4.203,1.471-7.626,3.603-10.783,5.943c-0.76-1.083-1.498-2.188-2.212-3.317
				c4.555-3.386,9.689-6.208,16.037-7.673c2.202-0.508,4.69-0.849,7.259-0.898c13.89-0.27,20.255,9.565,20.254,23.227
				C741.088,134.122,741.149,149.197,741.021,163.359z M741.021,119.948c0.001-13.626-6.305-23.427-20.185-23.157
				c-2.565,0.049-5.008,0.4-7.19,0.899c-6.335,1.448-11.463,4.232-16.036,7.603c0.687,1.111,1.433,2.161,2.143,3.25
				c3.175-2.374,6.595-4.47,10.853-5.945c4.039-1.4,9.283-2.628,14.447-1.521c9.104,1.95,11.982,10.465,11.89,21.774
				c-10.217,1.2-20.029,2.727-28.272,6.085c-7.938,3.232-14.906,8.453-14.309,20.114c0.524,10.254,7.848,15.831,18.525,15.831
				c5.559-0.002,9.844-1.595,13.688-3.526c2.849-1.434,5.5-3.218,7.88-4.978c0.822-0.608,1.52-1.393,2.488-1.729
				c0.096,2.946,0.382,5.702,0.484,8.642c1.198,0,2.396,0,3.595,0C741.021,149.009,741.021,134.157,741.021,119.948z"/>
			<path fill-rule="evenodd" clip-rule="evenodd" fill="#FFFFFF" stroke="#FFFFFF" stroke-width="5" d="M583.482,98.173
				c-0.416,1.288-0.72,2.689-1.175,3.94c-6.019-2.815-12.411,0.167-15.692,3.317c-3.037,2.918-5.464,6.8-7.396,11.129
				c-0.292,0.652-0.681,1.374-0.761,1.866c-0.279,1.717,0,3.73,0,5.669c-0.001,12.826,0.001,26.498,0,39.194
				c-1.246,0.159-2.787,0.024-4.147,0.069c-0.115-21.521-0.115-43.527,0-65.049c1.198,0,2.396,0,3.595,0
				c0.255,4.009,0.413,8.114,0.553,12.235c0.431-0.259,0.582-0.765,0.83-1.174c1.669-2.76,3.601-5.344,6.014-7.535
				c2.731-2.481,6.006-4.721,10.438-5.046C578.897,96.557,581.475,97.086,583.482,98.173z M575.74,96.86
				c-4.392,0.322-7.799,2.56-10.507,5.045c-2.385,2.189-4.283,4.858-5.944,7.604c-0.226,0.372-0.395,0.993-0.899,1.105
				c-0.09-4.148-0.379-8.1-0.483-12.234c-1.198,0-2.396,0-3.595,0c0,21.636,0,43.272,0,64.909c1.359,0,2.719,0,4.078,0
				c-0.001-12.689,0.003-26.389,0-39.264c0-1.924-0.303-4.009,0-5.669c0.188-1.028,1.065-2.412,1.659-3.595
				c1.872-3.725,3.879-6.818,6.566-9.4c3.271-3.143,9.66-6.137,15.692-3.318c0.355-1.302,0.725-2.594,1.106-3.87
				C581.361,97.163,578.896,96.627,575.74,96.86z"/>
			<g>
				<path fill-rule="evenodd" clip-rule="evenodd" fill="#FFFFFF" stroke="#FFFFFF" stroke-width="5" d="M818.097,127.207
					c-1.161-17.376-7.78-30.229-25.991-30.347c-6.875-0.045-12.337,2.998-16.729,5.807c-2.035,1.301-3.867,2.636-5.737,4.147
					c-0.194,0.156-0.356,0.577-0.691,0.414c0.336-13.696,0.169-27.895,0.207-41.89c-1.313,0-2.626,0-3.94,0
					c0,32.626,0,65.255,0,97.883c1.152,0,2.305,0,3.457,0c0.161-2.189,0.32-4.38,0.553-6.498c1.197,0.624,2.25,1.473,3.387,2.212
					c3.315,2.156,7.056,4.161,11.544,5.253c6.663,1.619,13.613-0.103,18.319-2.765c8.526-4.822,14.213-14.287,15.346-26.614
					c0.075-0.819,0.063-1.969,0.276-2.557c0,0.022,0,0.045,0,0.068c-0.023,0-0.046,0-0.069,0
					c-0.789,13.746-6.165,23.861-15.553,29.172c-4.661,2.637-11.718,4.37-18.319,2.765c-4.48-1.09-8.24-3.105-11.544-5.253
					c-1.146-0.746-2.195-1.591-3.387-2.212c-0.135,2.216-0.295,4.404-0.553,6.497c-1.176,0-2.351,0-3.526,0
					c0-32.675,0-65.346,0-98.021c1.337,0.045,2.858-0.093,4.079,0.069c-0.038,13.995,0.129,28.193-0.207,41.89
					c3.96-3.132,8.451-6.415,13.825-8.502c2.719-1.058,5.938-1.972,9.332-1.936c18.076,0.196,24.887,12.896,25.922,30.346
					C818.097,127.16,818.097,127.182,818.097,127.207z"/>
			</g>
			<path fill-rule="evenodd" clip-rule="evenodd" fill="#FFFFFF" stroke="#FFFFFF" stroke-width="5" d="M791.414,100.662
				c11.205-0.363,17.352,6.195,20.116,14.101c2.883,8.244,3.063,20.969-0.139,29.449c-2.982,7.899-8.512,14.727-17.696,16.52
				c-8.029,1.57-14.797-1.865-19.77-5.045c-0.769-0.491-1.564-1.102-2.489-1.798c-0.611-0.461-2.08-1.245-2.281-1.936
				c-0.163-0.562,0-1.624,0-2.488c-0.001-11.854,0.001-22.863,0-34.702c0-0.737-0.145-1.742,0-2.419
				c0.156-0.729,1.444-1.544,2.143-2.142c3.794-3.252,7.945-6.205,12.996-8.088C786.42,101.321,788.634,100.751,791.414,100.662z
				 M784.363,102.181c-5.14,1.907-9.125,4.841-12.996,8.088c-0.718,0.604-1.977,1.321-2.143,2.074c-0.146,0.663,0,1.699,0,2.419
				c0.001,11.846,0,22.841,0,34.702c0,0.864-0.166,1.933,0,2.488c0.199,0.672,1.681,1.483,2.281,1.936
				c2.516,1.899,5.229,3.523,8.019,4.771c3.871,1.729,9.032,3.041,14.24,2.005c9.099-1.813,14.653-8.604,17.558-16.521
				c3.103-8.457,3.1-20.911,0.139-29.38c-2.758-7.886-8.867-14.393-20.047-14.031C788.624,100.822,786.494,101.392,784.363,102.181z
				"/>
			<path fill-rule="evenodd" clip-rule="evenodd" fill="#FFFFFF" stroke="#FFFFFF" stroke-width="5" d="M791.414,100.731
				c11.18-0.361,17.289,6.146,20.047,14.031c2.961,8.469,2.964,20.923-0.139,29.38c-2.904,7.917-8.459,14.708-17.558,16.521
				c-5.208,1.036-10.369-0.276-14.24-2.005c-2.789-1.247-5.503-2.871-8.019-4.771c-0.601-0.452-2.082-1.264-2.281-1.936
				c-0.166-0.556,0-1.624,0-2.488c0-11.861,0.001-22.856,0-34.702c0-0.72-0.146-1.756,0-2.419c0.166-0.753,1.425-1.471,2.143-2.074
				c3.871-3.247,7.856-6.181,12.996-8.088C786.494,101.392,788.624,100.822,791.414,100.731z M778.764,105.016
				c-2.477,1.481-5.031,3.355-7.327,5.253c-0.709,0.586-2.006,1.473-2.143,2.074c-0.153,0.677-0.001,1.55,0,2.419
				c0.002,11.948-0.002,22.716,0,34.702c0,0.859-0.165,1.944,0,2.488c0.105,0.35,0.716,0.652,1.105,0.969
				c5.356,4.327,13.879,9.563,23.365,7.673c9.124-1.817,14.503-8.481,17.488-16.522c3.129-8.425,3.063-20.759,0.139-29.24
				c-2.685-7.785-8.616-14.419-19.978-14.101C786.171,100.877,782.338,102.878,778.764,105.016z"/>
			<path fill-rule="evenodd" clip-rule="evenodd" fill="#FFFFFF" stroke="#FFFFFF" stroke-width="5" d="M525.763,126.445
				c-0.005,0,0.083-0.085,0.138-0.068c0.384,0.111,0.276,0.679,0.276,1.243c0.001,6.332,0,12.78,0,19.218
				c0,0.987,0.193,2.165,0,2.903c-0.143,0.547-1.425,1.396-2.004,1.866c-4.885,3.956-10.327,7.89-17.628,9.124
				c-9.976,1.688-17.548-2.446-18.595-11.129c-1.257-10.429,5.806-15.011,12.512-17.765c6.11-2.51,13.916-3.92,21.775-4.978
				c1.073-0.144,2.252-0.492,3.387-0.415C525.669,126.448,525.719,126.438,525.763,126.445z M522.237,126.93
				c-7.888,1.061-15.474,2.466-21.637,4.977c-7.034,2.864-13.796,7.293-12.581,17.627c1.025,8.723,8.563,12.814,18.525,11.13
				c4.259-0.722,7.61-2.374,10.854-4.356c2.131-1.303,4.653-3.029,6.705-4.7c0.572-0.466,1.87-1.359,2.005-1.866
				c0.19-0.718,0-1.921,0-2.903c-0.002-6.475,0.001-12.827,0-19.078c0-0.457,0.165-1.2-0.208-1.314
				C524.866,126.582,523.477,126.763,522.237,126.93z"/>
			<path fill-rule="evenodd" clip-rule="evenodd" fill="#FFFFFF" stroke="#FFFFFF" stroke-width="5" d="M736.597,126.445
				c-0.004,0,0.083-0.085,0.139-0.068c0.383,0.111,0.276,0.675,0.276,1.243c-0.001,6.332,0.001,12.78,0,19.218
				c0,0.987,0.193,2.165,0,2.903c-0.143,0.547-1.426,1.396-2.005,1.866c-4.883,3.956-10.327,7.89-17.627,9.124
				c-9.975,1.688-17.549-2.446-18.595-11.129c-1.257-10.429,5.804-15.011,12.512-17.765c6.108-2.508,13.914-3.92,21.774-4.978
				c1.074-0.144,2.253-0.492,3.388-0.415C736.504,126.448,736.553,126.438,736.597,126.445z M733.071,126.93
				c-7.888,1.061-15.473,2.466-21.637,4.977c-7.034,2.865-13.795,7.293-12.58,17.627c1.025,8.723,8.563,12.814,18.525,11.13
				c4.259-0.722,7.61-2.374,10.853-4.356c2.132-1.303,4.654-3.029,6.706-4.7c0.572-0.466,1.869-1.359,2.004-1.866
				c0.191-0.718,0-1.921,0-2.903c0-6.475,0-12.827,0-19.078c0-0.457,0.166-1.2-0.207-1.314
				C735.701,126.582,734.312,126.763,733.071,126.93z"/>
			<path fill-rule="evenodd" clip-rule="evenodd" fill="#FFFFFF" stroke="#FFFFFF" stroke-width="5" d="M525.9,126.445
				c0.373,0.114,0.208,0.857,0.208,1.314c0.001,6.251-0.002,12.604,0,19.078c0,0.982,0.19,2.186,0,2.903
				c-0.135,0.507-1.433,1.4-2.005,1.866c-2.052,1.671-4.574,3.397-6.705,4.7c-3.243,1.982-6.595,3.635-10.854,4.356
				c-9.962,1.685-17.5-2.407-18.525-11.13c-1.215-10.334,5.547-14.763,12.581-17.627c6.163-2.511,13.749-3.916,21.637-4.977
				C523.477,126.763,524.866,126.582,525.9,126.445z M522.306,126.998c-7.936,1.042-15.492,2.511-21.636,4.979
				c-7.001,2.811-13.755,7.144-12.582,17.488c0.976,8.6,8.417,12.906,18.457,11.199c7.242-1.233,12.695-5.283,17.489-9.126
				c0.588-0.47,1.858-1.256,2.005-1.797c0.194-0.72,0-1.916,0-2.903c-0.001-6.932,0.114-13.834-0.139-20.323
				C524.94,126.629,523.495,126.843,522.306,126.998z"/>
			<path fill-rule="evenodd" clip-rule="evenodd" fill="#FFFFFF" stroke="#FFFFFF" stroke-width="5" d="M736.735,126.445
				c0.373,0.114,0.207,0.857,0.207,1.314c0,6.251,0,12.604,0,19.078c0,0.982,0.191,2.186,0,2.903
				c-0.135,0.507-1.432,1.4-2.004,1.866c-2.052,1.671-4.574,3.397-6.706,4.7c-3.242,1.982-6.594,3.635-10.853,4.356
				c-9.963,1.685-17.5-2.407-18.525-11.13c-1.215-10.334,5.546-14.762,12.58-17.627c6.164-2.511,13.749-3.916,21.637-4.977
				C734.312,126.763,735.701,126.582,736.735,126.445z M733.141,126.998c-7.936,1.042-15.492,2.511-21.637,4.979
				c-6.999,2.809-13.755,7.144-12.58,17.488c0.976,8.6,8.415,12.906,18.456,11.199c7.241-1.233,12.695-5.283,17.489-9.126
				c0.588-0.47,1.858-1.256,2.004-1.797c0.194-0.72,0.001-1.916,0-2.903c0-6.932,0.115-13.834-0.138-20.323
				C735.775,126.629,734.33,126.843,733.141,126.998z"/>
		</g>
		<path fill-rule="evenodd" clip-rule="evenodd" fill="#00ACE4" d="M164.302,33.541c5.746-5.063,12.691-8.923,23.019-9.401
			c0.23,0,0.461,0,0.691,0c0.415,0,0.83,0,1.244,0c0.23,0,0.461,0,0.691,0c10.572,0.512,17.631,4.535,23.434,9.814
			c0.433,0.491,0.894,0.952,1.383,1.383c5.32,5.88,9.423,12.976,9.816,23.78c0,0.668,0,1.337,0,2.005
			c-0.373,10.434-4.238,17.375-9.264,23.157c-0.259,0.202-0.489,0.432-0.69,0.69c-0.341,0.398-0.709,0.767-1.106,1.106
			c-0.282,0.224-0.535,0.478-0.761,0.761c-5.595,4.864-12.315,8.606-22.189,9.194c-0.277,0.043-0.735-0.091-0.898,0.067
			c-0.276,0-0.553,0-0.829,0c-0.115,6.499-0.115,13.48,0,19.979c2.646,0.071,4.397,1.04,5.876,2.28
			c0.247,0.306,0.523,0.582,0.829,0.829c2.836,2.398,2.999,9.375,0.207,11.961c-0.429,0.399-0.826,0.831-1.244,1.243
			c-1.41,1.101-3.014,2.01-5.461,2.074c-0.092,0-0.185,0-0.276,0c0.046,10.208-0.093,20.6,0.069,30.692c6.221,0,12.442,0,18.664,0
			c0.16-1.038,0.023-2.374,0.068-3.526c0-0.668,0-1.336,0-2.005c0-0.437,0-0.875,0-1.313c-3.373-0.335-5.875-1.544-7.88-3.248
			c-0.539-0.521-1.069-1.051-1.59-1.59c-1.687-2.093-3.034-4.524-3.181-8.157c0-0.461,0-0.921,0-1.382
			c0.152-3.675,1.537-6.114,3.25-8.228c0.484-0.481,0.968-0.967,1.451-1.451c2.055-1.701,4.464-3.049,8.019-3.249
			c0.623,0,1.244,0,1.867,0c3.672,0.221,6.129,1.659,8.226,3.457c0.294,0.352,0.616,0.673,0.968,0.967
			c2.021,2.356,3.596,5.161,3.525,9.609c5.737,0.16,11.774,0.022,17.627,0.069c0.14-0.206,0.039-0.653,0.069-0.968
			c0-1.037,0-2.075,0-3.111c-0.103-0.473,0.226-1.377-0.207-1.52c-7.531-0.396-12.622-3.233-16.867-6.914
			c-0.616-0.673-1.262-1.318-1.936-1.936c-3.629-4.183-6.452-9.171-6.913-16.52c-0.043-0.233,0.09-0.644-0.068-0.762
			c0-0.599,0-1.198,0-1.797c0.158-0.118,0.025-0.528,0.068-0.762c0.475-7.429,3.343-12.463,7.052-16.659
			c0.581-0.523,1.135-1.076,1.658-1.658c4.366-3.813,9.581-6.778,17.489-7.052c0.53,0,1.06,0,1.59,0
			c7.863,0.271,13.065,3.203,17.42,6.981c0.57,0.63,1.169,1.229,1.797,1.799c3.66,4.175,6.499,9.169,6.982,16.521
			c0.043,0.21-0.089,0.595,0.068,0.69c0,0.231,0,0.461,0,0.691c0,0.229,0,0.461,0,0.69c0,0.231,0,0.461,0,0.692
			c-0.157,0.096-0.025,0.481-0.068,0.69c-0.472,7.272-3.261,12.225-6.844,16.384c-0.328,0.27-0.628,0.569-0.898,0.897
			c-0.039,0.102-0.108,0.169-0.208,0.209c-0.328,0.27-0.628,0.568-0.898,0.897c-4.328,3.807-9.651,6.616-17.42,6.981
			c-0.16,0.37-0.023,1.036-0.069,1.521c-0.114,1.176-0.114,2.835,0,4.01c0,0.23,0,0.46,0,0.69c-0.157,0.096-0.025,0.482-0.068,0.692
			c-6.475,0-12.95,0-19.425,0c-0.513,3.034-1.707,5.389-3.388,7.259c-0.396,0.339-0.766,0.707-1.105,1.105
			c-2.077,1.815-4.651,3.136-8.227,3.455c-0.31,0.197-0.055,0.96-0.138,1.383c-0.161,1.176-0.023,2.65-0.068,3.94
			c0,0.668,0,1.337,0,2.005c0,0.299,0,0.599,0,0.899c-7.328,0-14.655,0-21.982,0c0-0.461,0-0.922,0-1.383c0.022,0,0.046,0,0.068,0
			c0.162-5.001,0.023-10.3,0.069-15.416c-0.091-5.093,0.183-10.519-0.138-15.346c-4.557-0.951-7.358-3.655-7.812-8.71
			c0-0.277,0-0.554,0-0.83c0.063-2.446,0.973-4.05,2.073-5.46c0.412-0.419,0.844-0.815,1.244-1.245
			c1.218-0.971,2.663-1.715,4.563-2.005c0.115-6.52,0.115-13.525,0-20.047c-10.491-0.546-17.583-4.489-23.364-9.746
			c-0.501-0.559-1.031-1.089-1.59-1.59c-5.205-5.81-9.258-12.771-9.678-23.364c-1.498,0-2.996,0-4.493,0
			c-8.249-0.162-16.798-0.022-25.162-0.069c-4.193,0-8.387,0-12.581,0c-2.166,0-4.332,0-6.498,0c0,0.323,0,0.645,0,0.969
			c0,0.874,0,1.751,0,2.625c0.047,1.706-0.092,3.595,0.07,5.185c0,0.876,0,1.753,0,2.627c0,0.646,0,1.29,0,1.936
			c0.208,0.16,0.713,0.024,1.036,0.069c0.254,0,0.507,0,0.761,0c0.185,0,0.368,0,0.553,0c0.141,0.158,0.574,0.024,0.83,0.07
			c19.996,1.179,33.495,8.854,44.586,18.94c0.938,0.996,1.906,1.963,2.903,2.902c10.12,11.147,17.831,24.705,18.94,44.862
			c0.044,0.301-0.091,0.782,0.069,0.969c0,0.207,0,0.414,0,0.622c0,1.014,0,2.028,0,3.042c0,0.207,0,0.414,0,0.622
			c-0.16,0.187-0.025,0.666-0.069,0.967c-1.101,20.076-8.755,33.597-18.803,44.726c-1.088,1.029-2.148,2.09-3.18,3.179
			c-11.044,9.994-24.472,17.604-44.31,18.804c-0.233,0.043-0.642-0.089-0.761,0.067c-0.368,0-0.737,0-1.105,0
			c-1.106,0-2.212,0-3.318,0c-0.368,0-0.737,0-1.105,0c-0.142-0.158-0.575-0.024-0.83-0.067
			c-19.511-1.183-32.791-8.595-43.757-18.32c-0.225-0.281-0.479-0.535-0.761-0.76c-0.203-0.096-0.28-0.318-0.483-0.414
			c-0.547-0.604-1.123-1.183-1.729-1.729c-0.096-0.203-0.319-0.279-0.415-0.483c-0.224-0.283-0.478-0.535-0.76-0.762
			c-9.696-10.926-17.093-24.151-18.318-43.548c-0.044-0.21,0.089-0.597-0.069-0.692c0-0.321,0-0.645,0-0.967
			c0-1.429,0-2.858,0-4.286c0-0.323,0-0.646,0-0.969c0.158-0.096,0.025-0.479,0.069-0.69c1.239-19.475,8.683-32.747,18.456-43.688
			c0.306-0.248,0.582-0.524,0.83-0.829c0.119-0.228,0.364-0.327,0.483-0.553c0.421-0.363,0.813-0.755,1.176-1.176
			c0.226-0.12,0.326-0.365,0.553-0.485c0.306-0.247,0.582-0.523,0.83-0.829c11.022-9.829,24.389-17.316,44.102-18.455
			c0.256-0.046,0.689,0.088,0.83-0.07c0.161,0,0.322,0,0.483,0c0.276,0,0.554,0,0.83,0c0.115-1.359,0.115-3.203,0-4.563
			c0-0.853,0-1.704,0-2.559c0-0.874,0-1.751,0-2.625c-0.046-1.198,0.092-2.581-0.069-3.664c-0.046,0-0.092,0-0.139,0
			c0.112-0.465-0.185-1.171,0.069-1.383c0.208-0.174,1.966,0,2.627,0c5.86,0,12.511,0,18.042,0c4.193,0,8.387,0,12.58,0
			c4.171,0,8.342,0,12.513,0c1.313,0.115,3.11,0.115,4.424,0c0-0.207,0-0.415,0-0.622c0.159-0.187,0.024-0.666,0.069-0.967
			c0.549-10.121,4.397-16.941,9.401-22.604C162.855,35.042,163.593,34.305,164.302,33.541z"/>
	</g>
	<g>
		<path fill="#FFFFFF" d="M306.194,198.517c2.234,0,3.951,0.425,5.152,1.274s1.802,2.115,1.802,3.798
			c0,0.918-0.165,1.702-0.494,2.352c-0.329,0.65-0.803,1.178-1.423,1.583c-0.619,0.406-1.373,0.7-2.26,0.884
			s-1.89,0.275-3.006,0.275h-1.767v5.897h-2.226v-15.674c0.627-0.152,1.327-0.256,2.1-0.31
			C304.844,198.544,305.552,198.517,306.194,198.517z M306.377,200.467c-0.949,0-1.675,0.023-2.18,0.069v6.242h1.675
			c0.765,0,1.454-0.05,2.065-0.149c0.612-0.099,1.128-0.268,1.549-0.505c0.42-0.237,0.746-0.562,0.975-0.975
			s0.344-0.941,0.344-1.583c0-0.612-0.119-1.117-0.355-1.515c-0.238-0.397-0.559-0.715-0.964-0.952
			c-0.406-0.237-0.876-0.402-1.412-0.494S306.974,200.467,306.377,200.467z"/>
		<path fill="#FFFFFF" d="M320.192,202.395c0.184,0,0.394,0.012,0.631,0.035c0.237,0.023,0.47,0.054,0.7,0.092
			s0.44,0.077,0.631,0.115c0.191,0.038,0.333,0.073,0.424,0.103l-0.367,1.859c-0.168-0.061-0.447-0.134-0.837-0.218
			c-0.39-0.083-0.892-0.126-1.503-0.126c-0.398,0-0.792,0.042-1.182,0.126c-0.39,0.084-0.646,0.142-0.769,0.172v10.028h-2.134
			v-11.428c0.505-0.184,1.132-0.355,1.882-0.516C318.417,202.476,319.259,202.395,320.192,202.395z"/>
		<path fill="#FFFFFF" d="M335.177,208.614c0,0.949-0.138,1.805-0.413,2.57c-0.275,0.765-0.662,1.423-1.159,1.974
			c-0.498,0.551-1.09,0.976-1.779,1.274c-0.688,0.298-1.438,0.447-2.249,0.447s-1.56-0.149-2.249-0.447
			c-0.688-0.298-1.282-0.723-1.779-1.274s-0.883-1.208-1.159-1.974c-0.275-0.765-0.413-1.621-0.413-2.57
			c0-0.933,0.138-1.786,0.413-2.559c0.275-0.772,0.662-1.434,1.159-1.985s1.09-0.975,1.779-1.273s1.438-0.448,2.249-0.448
			s1.561,0.149,2.249,0.448s1.281,0.723,1.779,1.273c0.497,0.551,0.883,1.212,1.159,1.985
			C335.04,206.828,335.177,207.681,335.177,208.614z M332.951,208.614c0-1.346-0.302-2.414-0.906-3.202
			c-0.604-0.788-1.427-1.182-2.467-1.182s-1.863,0.394-2.467,1.182c-0.604,0.788-0.906,1.855-0.906,3.202s0.302,2.413,0.906,3.201
			c0.604,0.788,1.426,1.182,2.467,1.182s1.863-0.394,2.467-1.182C332.649,211.027,332.951,209.96,332.951,208.614z"/>
		<path fill="#FFFFFF" d="M338.184,202.992c0.489-0.122,1.136-0.252,1.939-0.39s1.733-0.207,2.788-0.207
			c0.765,0,1.408,0.104,1.928,0.31s0.956,0.509,1.308,0.906c0.107-0.076,0.275-0.184,0.505-0.321s0.512-0.271,0.849-0.401
			c0.336-0.13,0.711-0.245,1.125-0.344s0.856-0.149,1.331-0.149c0.918,0,1.667,0.134,2.249,0.402
			c0.581,0.268,1.036,0.646,1.365,1.136c0.329,0.49,0.551,1.071,0.666,1.744s0.172,1.408,0.172,2.203v6.701h-2.134v-6.242
			c0-0.704-0.035-1.308-0.104-1.813s-0.199-0.926-0.39-1.262s-0.451-0.585-0.78-0.746s-0.753-0.241-1.273-0.241
			c-0.719,0-1.312,0.096-1.779,0.287c-0.467,0.192-0.784,0.364-0.952,0.517c0.122,0.398,0.214,0.834,0.275,1.308
			c0.061,0.474,0.092,0.972,0.092,1.492v6.701h-2.134v-6.242c0-0.704-0.038-1.308-0.115-1.813s-0.21-0.926-0.401-1.262
			c-0.191-0.336-0.452-0.585-0.78-0.746c-0.329-0.161-0.746-0.241-1.251-0.241c-0.214,0-0.444,0.008-0.688,0.023
			c-0.245,0.016-0.478,0.034-0.7,0.057c-0.222,0.023-0.424,0.05-0.608,0.081s-0.307,0.054-0.367,0.069v10.074h-2.134V202.992z"/>
		<path fill="#FFFFFF" d="M368.475,208.614c0,0.949-0.138,1.805-0.413,2.57c-0.275,0.765-0.662,1.423-1.159,1.974
			c-0.498,0.551-1.09,0.976-1.779,1.274c-0.688,0.298-1.438,0.447-2.249,0.447s-1.56-0.149-2.249-0.447
			c-0.688-0.298-1.282-0.723-1.779-1.274s-0.883-1.208-1.159-1.974c-0.275-0.765-0.413-1.621-0.413-2.57
			c0-0.933,0.138-1.786,0.413-2.559c0.275-0.772,0.662-1.434,1.159-1.985s1.09-0.975,1.779-1.273s1.438-0.448,2.249-0.448
			s1.561,0.149,2.249,0.448s1.281,0.723,1.779,1.273c0.497,0.551,0.883,1.212,1.159,1.985
			C368.337,206.828,368.475,207.681,368.475,208.614z M366.249,208.614c0-1.346-0.302-2.414-0.906-3.202
			c-0.604-0.788-1.427-1.182-2.467-1.182s-1.863,0.394-2.467,1.182c-0.604,0.788-0.906,1.855-0.906,3.202s0.302,2.413,0.906,3.201
			c0.604,0.788,1.426,1.182,2.467,1.182s1.863-0.394,2.467-1.182C365.947,211.027,366.249,209.96,366.249,208.614z"/>
		<path fill="#FFFFFF" d="M376.943,214.856l-0.252,0.574c0.444,0.214,0.765,0.447,0.964,0.7s0.298,0.624,0.298,1.113
			c0,0.168-0.038,0.352-0.115,0.551c-0.077,0.199-0.207,0.382-0.39,0.551c-0.184,0.168-0.428,0.306-0.734,0.413
			c-0.306,0.106-0.681,0.161-1.125,0.161c-0.398,0-0.761-0.031-1.09-0.092c-0.329-0.062-0.593-0.13-0.792-0.207l0.252-1.308
			c0.184,0.061,0.378,0.115,0.585,0.161s0.439,0.069,0.7,0.069c0.551,0,0.826-0.176,0.826-0.528c0-0.168-0.084-0.31-0.252-0.425
			s-0.405-0.233-0.711-0.355l-0.161-0.069c0.061-0.184,0.145-0.406,0.252-0.666c0.106-0.26,0.221-0.505,0.344-0.734
			c-0.78-0.107-1.465-0.333-2.054-0.677s-1.083-0.784-1.48-1.32c-0.398-0.535-0.696-1.151-0.895-1.847
			c-0.199-0.696-0.298-1.458-0.298-2.283c0-0.918,0.134-1.759,0.401-2.524s0.646-1.426,1.136-1.985
			c0.489-0.558,1.09-0.994,1.801-1.308s1.503-0.471,2.375-0.471c0.536,0,1.071,0.046,1.606,0.138s1.048,0.237,1.538,0.436
			l-0.482,1.813c-0.321-0.153-0.692-0.275-1.113-0.367c-0.421-0.092-0.869-0.138-1.343-0.138c-1.193,0-2.107,0.375-2.742,1.125
			s-0.952,1.844-0.952,3.282c0,0.642,0.072,1.231,0.218,1.767c0.146,0.536,0.375,0.995,0.688,1.377
			c0.313,0.383,0.715,0.677,1.205,0.884c0.489,0.207,1.086,0.31,1.79,0.31c0.566,0,1.079-0.053,1.538-0.161
			c0.459-0.107,0.818-0.222,1.079-0.344l0.298,1.79c-0.123,0.062-0.287,0.126-0.493,0.195s-0.44,0.129-0.7,0.183
			s-0.539,0.1-0.837,0.138S377.233,214.84,376.943,214.856z"/>
		<path fill="#FFFFFF" d="M386.007,202.349c0.857,0,1.58,0.111,2.169,0.333c0.589,0.222,1.063,0.536,1.423,0.94
			c0.359,0.406,0.616,0.888,0.769,1.446c0.153,0.559,0.229,1.174,0.229,1.848v7.458c-0.184,0.031-0.44,0.073-0.769,0.126
			c-0.329,0.054-0.7,0.103-1.113,0.149s-0.86,0.088-1.342,0.126s-0.96,0.058-1.435,0.058c-0.673,0-1.293-0.069-1.858-0.207
			c-0.566-0.138-1.056-0.355-1.469-0.654s-0.734-0.692-0.964-1.182c-0.229-0.489-0.344-1.079-0.344-1.767
			c0-0.657,0.134-1.224,0.401-1.698c0.268-0.474,0.631-0.856,1.09-1.147s0.994-0.505,1.606-0.643
			c0.611-0.138,1.254-0.207,1.927-0.207c0.214,0,0.436,0.011,0.666,0.034s0.448,0.054,0.654,0.092
			c0.207,0.039,0.386,0.073,0.539,0.104s0.26,0.054,0.321,0.069v-0.597c0-0.352-0.038-0.7-0.115-1.044s-0.214-0.65-0.413-0.918
			c-0.199-0.267-0.47-0.482-0.814-0.643s-0.792-0.241-1.342-0.241c-0.704,0-1.32,0.05-1.848,0.149
			c-0.528,0.1-0.922,0.203-1.182,0.31l-0.252-1.767c0.275-0.122,0.734-0.241,1.377-0.355S385.258,202.349,386.007,202.349z
			 M390.138,198.264c-0.077,0.184-0.18,0.398-0.31,0.643c-0.13,0.245-0.295,0.471-0.494,0.677s-0.432,0.382-0.7,0.528
			c-0.268,0.146-0.563,0.218-0.884,0.218c-0.306,0-0.593-0.053-0.86-0.161c-0.268-0.107-0.524-0.222-0.769-0.344
			c-0.26-0.122-0.481-0.214-0.665-0.275c-0.184-0.061-0.36-0.092-0.528-0.092c-0.261,0-0.501,0.107-0.723,0.321
			c-0.222,0.214-0.394,0.444-0.516,0.688l-1.102-0.551c0.061-0.184,0.161-0.397,0.298-0.643c0.138-0.244,0.306-0.47,0.505-0.677
			c0.199-0.207,0.432-0.382,0.7-0.528c0.268-0.145,0.563-0.218,0.884-0.218c0.306,0,0.592,0.054,0.86,0.16
			c0.268,0.107,0.524,0.222,0.769,0.344c0.26,0.123,0.482,0.215,0.666,0.275c0.184,0.062,0.359,0.092,0.528,0.092
			c0.26,0,0.501-0.106,0.723-0.321c0.222-0.214,0.394-0.443,0.516-0.688L390.138,198.264z M386.191,213.043
			c0.505,0,0.953-0.011,1.343-0.034s0.715-0.065,0.975-0.126v-3.557c-0.153-0.076-0.401-0.141-0.746-0.195
			c-0.344-0.053-0.761-0.081-1.251-0.081c-0.321,0-0.662,0.023-1.021,0.069c-0.36,0.046-0.688,0.142-0.987,0.287
			c-0.298,0.146-0.547,0.344-0.746,0.597c-0.199,0.252-0.298,0.585-0.298,0.998c0,0.765,0.245,1.297,0.734,1.595
			C384.684,212.894,385.35,213.043,386.191,213.043z"/>
		<path fill="#FFFFFF" d="M404.664,208.614c0,0.949-0.138,1.805-0.413,2.57c-0.275,0.765-0.662,1.423-1.159,1.974
			c-0.498,0.551-1.09,0.976-1.779,1.274c-0.688,0.298-1.438,0.447-2.249,0.447s-1.56-0.149-2.249-0.447
			c-0.688-0.298-1.282-0.723-1.779-1.274s-0.883-1.208-1.159-1.974c-0.275-0.765-0.413-1.621-0.413-2.57
			c0-0.933,0.138-1.786,0.413-2.559c0.275-0.772,0.662-1.434,1.159-1.985s1.09-0.975,1.779-1.273s1.438-0.448,2.249-0.448
			s1.561,0.149,2.249,0.448s1.281,0.723,1.779,1.273c0.497,0.551,0.883,1.212,1.159,1.985
			C404.526,206.828,404.664,207.681,404.664,208.614z M402.438,208.614c0-1.346-0.302-2.414-0.906-3.202
			c-0.604-0.788-1.427-1.182-2.467-1.182s-1.863,0.394-2.467,1.182c-0.604,0.788-0.906,1.855-0.906,3.202s0.302,2.413,0.906,3.201
			c0.604,0.788,1.426,1.182,2.467,1.182s1.863-0.394,2.467-1.182C402.136,211.027,402.438,209.96,402.438,208.614z"/>
		<path fill="#FFFFFF" d="M420.682,197.14l2.134-0.367v17.463c-0.49,0.138-1.117,0.275-1.882,0.413
			c-0.765,0.138-1.645,0.207-2.639,0.207c-0.918,0-1.744-0.146-2.478-0.436s-1.362-0.704-1.882-1.239
			c-0.521-0.535-0.922-1.189-1.205-1.962s-0.424-1.641-0.424-2.604c0-0.918,0.118-1.759,0.355-2.524s0.585-1.423,1.044-1.974
			s1.021-0.979,1.687-1.285c0.666-0.306,1.426-0.459,2.283-0.459c0.688,0,1.297,0.092,1.825,0.275s0.921,0.36,1.182,0.528V197.14z
			 M420.682,205.172c-0.26-0.214-0.635-0.421-1.125-0.62s-1.025-0.298-1.606-0.298c-0.612,0-1.136,0.111-1.572,0.333
			c-0.436,0.222-0.792,0.528-1.067,0.918s-0.475,0.853-0.597,1.389c-0.123,0.536-0.184,1.109-0.184,1.721
			c0,1.392,0.344,2.467,1.033,3.224s1.606,1.136,2.753,1.136c0.582,0,1.067-0.026,1.458-0.08s0.692-0.111,0.906-0.172V205.172z"/>
		<path fill="#FFFFFF" d="M437.021,208.614c0,0.949-0.138,1.805-0.413,2.57c-0.275,0.765-0.662,1.423-1.159,1.974
			c-0.498,0.551-1.09,0.976-1.779,1.274c-0.688,0.298-1.438,0.447-2.249,0.447s-1.56-0.149-2.249-0.447
			c-0.688-0.298-1.282-0.723-1.779-1.274s-0.883-1.208-1.159-1.974c-0.275-0.765-0.413-1.621-0.413-2.57
			c0-0.933,0.138-1.786,0.413-2.559c0.275-0.772,0.662-1.434,1.159-1.985s1.09-0.975,1.779-1.273s1.438-0.448,2.249-0.448
			s1.561,0.149,2.249,0.448s1.281,0.723,1.779,1.273c0.497,0.551,0.883,1.212,1.159,1.985
			C436.883,206.828,437.021,207.681,437.021,208.614z M434.794,208.614c0-1.346-0.302-2.414-0.906-3.202
			c-0.604-0.788-1.427-1.182-2.467-1.182s-1.863,0.394-2.467,1.182c-0.604,0.788-0.906,1.855-0.906,3.202s0.302,2.413,0.906,3.201
			c0.604,0.788,1.426,1.182,2.467,1.182s1.863-0.394,2.467-1.182C434.492,211.027,434.794,209.96,434.794,208.614z"/>
		<path fill="#FFFFFF" d="M456.09,198.677v1.928h-5.003v13.976h-2.226v-13.976h-5.003v-1.928H456.09z"/>
		<path fill="#FFFFFF" d="M461.781,202.395c0.184,0,0.394,0.012,0.631,0.035c0.237,0.023,0.47,0.054,0.7,0.092
			s0.44,0.077,0.631,0.115c0.191,0.038,0.333,0.073,0.424,0.103l-0.367,1.859c-0.168-0.061-0.447-0.134-0.837-0.218
			c-0.39-0.083-0.892-0.126-1.503-0.126c-0.398,0-0.792,0.042-1.182,0.126c-0.39,0.084-0.646,0.142-0.769,0.172v10.028h-2.134
			v-11.428c0.505-0.184,1.132-0.355,1.882-0.516C460.006,202.476,460.848,202.395,461.781,202.395z"/>
		<path fill="#FFFFFF" d="M470.088,202.349c0.857,0,1.58,0.111,2.169,0.333c0.589,0.222,1.063,0.536,1.423,0.94
			c0.359,0.406,0.616,0.888,0.769,1.446c0.153,0.559,0.229,1.174,0.229,1.848v7.458c-0.184,0.031-0.44,0.073-0.769,0.126
			c-0.329,0.054-0.7,0.103-1.113,0.149s-0.86,0.088-1.342,0.126s-0.96,0.058-1.435,0.058c-0.673,0-1.293-0.069-1.858-0.207
			c-0.566-0.138-1.056-0.355-1.469-0.654s-0.734-0.692-0.964-1.182c-0.229-0.489-0.344-1.079-0.344-1.767
			c0-0.657,0.134-1.224,0.401-1.698c0.268-0.474,0.631-0.856,1.09-1.147s0.994-0.505,1.606-0.643
			c0.611-0.138,1.254-0.207,1.927-0.207c0.214,0,0.436,0.011,0.666,0.034s0.448,0.054,0.654,0.092
			c0.207,0.039,0.386,0.073,0.539,0.104s0.26,0.054,0.321,0.069v-0.597c0-0.352-0.038-0.7-0.115-1.044s-0.214-0.65-0.413-0.918
			c-0.199-0.267-0.47-0.482-0.814-0.643s-0.792-0.241-1.342-0.241c-0.704,0-1.32,0.05-1.848,0.149
			c-0.528,0.1-0.922,0.203-1.182,0.31l-0.252-1.767c0.275-0.122,0.734-0.241,1.377-0.355S469.338,202.349,470.088,202.349z
			 M470.271,213.043c0.505,0,0.953-0.011,1.343-0.034s0.715-0.065,0.975-0.126v-3.557c-0.153-0.076-0.401-0.141-0.746-0.195
			c-0.344-0.053-0.761-0.081-1.251-0.081c-0.321,0-0.662,0.023-1.021,0.069c-0.36,0.046-0.688,0.142-0.987,0.287
			c-0.298,0.146-0.547,0.344-0.746,0.597c-0.199,0.252-0.298,0.585-0.298,0.998c0,0.765,0.245,1.297,0.734,1.595
			C468.765,212.894,469.43,213.043,470.271,213.043z"/>
		<path fill="#FFFFFF" d="M480.346,203.175c0.26-0.168,0.654-0.344,1.182-0.528s1.136-0.275,1.824-0.275
			c0.857,0,1.618,0.153,2.284,0.459c0.666,0.306,1.228,0.734,1.687,1.285s0.807,1.208,1.044,1.974s0.356,1.606,0.356,2.524
			c0,0.963-0.142,1.832-0.425,2.604s-0.685,1.427-1.205,1.962c-0.52,0.536-1.147,0.949-1.882,1.239s-1.561,0.436-2.479,0.436
			c-0.995,0-1.874-0.069-2.639-0.207c-0.765-0.138-1.393-0.275-1.882-0.413V197.14l2.134-0.367V203.175z M480.346,212.722
			c0.214,0.062,0.516,0.119,0.906,0.172s0.875,0.08,1.457,0.08c1.147,0,2.065-0.378,2.754-1.136s1.033-1.832,1.033-3.224
			c0-0.612-0.061-1.186-0.184-1.721s-0.321-0.999-0.597-1.389s-0.631-0.696-1.067-0.918c-0.436-0.221-0.96-0.333-1.572-0.333
			c-0.582,0-1.117,0.1-1.606,0.298c-0.49,0.199-0.865,0.405-1.125,0.62V212.722z"/>
		<path fill="#FFFFFF" d="M495.583,202.349c0.857,0,1.58,0.111,2.169,0.333c0.589,0.222,1.063,0.536,1.423,0.94
			c0.359,0.406,0.616,0.888,0.769,1.446c0.153,0.559,0.229,1.174,0.229,1.848v7.458c-0.184,0.031-0.44,0.073-0.769,0.126
			c-0.329,0.054-0.7,0.103-1.113,0.149s-0.86,0.088-1.342,0.126s-0.96,0.058-1.435,0.058c-0.673,0-1.293-0.069-1.858-0.207
			c-0.566-0.138-1.056-0.355-1.469-0.654s-0.734-0.692-0.964-1.182c-0.229-0.489-0.344-1.079-0.344-1.767
			c0-0.657,0.134-1.224,0.401-1.698c0.268-0.474,0.631-0.856,1.09-1.147s0.994-0.505,1.606-0.643
			c0.611-0.138,1.254-0.207,1.927-0.207c0.214,0,0.436,0.011,0.666,0.034s0.448,0.054,0.654,0.092
			c0.207,0.039,0.386,0.073,0.539,0.104s0.26,0.054,0.321,0.069v-0.597c0-0.352-0.038-0.7-0.115-1.044s-0.214-0.65-0.413-0.918
			c-0.199-0.267-0.47-0.482-0.814-0.643s-0.792-0.241-1.342-0.241c-0.704,0-1.32,0.05-1.848,0.149
			c-0.528,0.1-0.922,0.203-1.182,0.31l-0.252-1.767c0.275-0.122,0.734-0.241,1.377-0.355S494.833,202.349,495.583,202.349z
			 M495.766,213.043c0.505,0,0.953-0.011,1.343-0.034s0.715-0.065,0.975-0.126v-3.557c-0.153-0.076-0.401-0.141-0.746-0.195
			c-0.344-0.053-0.761-0.081-1.251-0.081c-0.321,0-0.662,0.023-1.021,0.069c-0.36,0.046-0.688,0.142-0.987,0.287
			c-0.298,0.146-0.547,0.344-0.746,0.597c-0.199,0.252-0.298,0.585-0.298,0.998c0,0.765,0.245,1.297,0.734,1.595
			C494.259,212.894,494.925,213.043,495.766,213.043z"/>
		<path fill="#FFFFFF" d="M507.286,214.81c-1.316-0.031-2.249-0.313-2.8-0.849c-0.551-0.535-0.826-1.369-0.826-2.501V197.14
			l2.134-0.367v14.342c0,0.352,0.03,0.643,0.092,0.872c0.061,0.229,0.161,0.413,0.298,0.551s0.321,0.241,0.551,0.31
			s0.512,0.126,0.849,0.172L507.286,214.81z"/>
		<path fill="#FFFFFF" d="M509.971,214.581v-17.44l2.134-0.367v6.104c0.397-0.153,0.822-0.271,1.273-0.355
			c0.451-0.084,0.898-0.126,1.342-0.126c0.949,0,1.736,0.134,2.364,0.402s1.128,0.643,1.503,1.124
			c0.375,0.482,0.638,1.06,0.792,1.733c0.153,0.673,0.229,1.415,0.229,2.226v6.701h-2.134v-6.242c0-0.734-0.05-1.362-0.149-1.882
			c-0.1-0.52-0.264-0.941-0.494-1.262s-0.536-0.554-0.918-0.7c-0.382-0.145-0.857-0.218-1.423-0.218
			c-0.229,0-0.467,0.016-0.711,0.046c-0.245,0.031-0.478,0.065-0.7,0.103c-0.222,0.039-0.421,0.081-0.597,0.126
			s-0.302,0.084-0.378,0.115v9.914H509.971z"/>
		<path fill="#FFFFFF" d="M533.607,208.614c0,0.949-0.138,1.805-0.413,2.57c-0.275,0.765-0.662,1.423-1.159,1.974
			c-0.498,0.551-1.09,0.976-1.779,1.274c-0.688,0.298-1.438,0.447-2.249,0.447s-1.56-0.149-2.249-0.447
			c-0.688-0.298-1.282-0.723-1.779-1.274s-0.883-1.208-1.159-1.974c-0.275-0.765-0.413-1.621-0.413-2.57
			c0-0.933,0.138-1.786,0.413-2.559c0.275-0.772,0.662-1.434,1.159-1.985s1.09-0.975,1.779-1.273s1.438-0.448,2.249-0.448
			s1.561,0.149,2.249,0.448s1.281,0.723,1.779,1.273c0.497,0.551,0.883,1.212,1.159,1.985
			C533.47,206.828,533.607,207.681,533.607,208.614z M531.381,208.614c0-1.346-0.302-2.414-0.906-3.202
			c-0.604-0.788-1.427-1.182-2.467-1.182s-1.863,0.394-2.467,1.182c-0.604,0.788-0.906,1.855-0.906,3.202s0.302,2.413,0.906,3.201
			c0.604,0.788,1.426,1.182,2.467,1.182s1.863-0.394,2.467-1.182C531.079,211.027,531.381,209.96,531.381,208.614z"/>
		<path fill="#FFFFFF" d="M555.11,206.618c0,1.377-0.214,2.574-0.643,3.591c-0.429,1.018-1.033,1.859-1.813,2.524
			s-1.714,1.163-2.8,1.492c-1.086,0.329-2.28,0.493-3.58,0.493c-0.643,0-1.35-0.027-2.123-0.081s-1.473-0.156-2.1-0.31v-15.421
			c0.627-0.152,1.327-0.256,2.1-0.31c0.772-0.053,1.48-0.081,2.123-0.081c1.3,0,2.494,0.165,3.58,0.494
			c1.086,0.329,2.02,0.826,2.8,1.492s1.384,1.507,1.813,2.524C554.896,204.044,555.11,205.241,555.11,206.618z M546.458,212.768
			c2.111,0,3.687-0.539,4.728-1.618c1.04-1.079,1.561-2.589,1.561-4.532s-0.521-3.454-1.561-4.532
			c-1.041-1.079-2.616-1.618-4.728-1.618c-0.627,0-1.113,0.008-1.457,0.023c-0.344,0.016-0.585,0.031-0.723,0.046v12.163
			c0.138,0.016,0.378,0.031,0.723,0.046C545.345,212.76,545.831,212.768,546.458,212.768z"/>
		<path fill="#FFFFFF" d="M557.611,208.637c0-1.056,0.153-1.978,0.459-2.766c0.306-0.788,0.711-1.442,1.216-1.962
			s1.086-0.91,1.744-1.17c0.657-0.26,1.331-0.39,2.019-0.39c1.606,0,2.838,0.501,3.695,1.503c0.856,1.002,1.285,2.528,1.285,4.579
			c0,0.092,0,0.21,0,0.355c0,0.146-0.008,0.279-0.023,0.401h-8.169c0.092,1.239,0.451,2.18,1.079,2.823
			c0.627,0.643,1.606,0.964,2.937,0.964c0.75,0,1.381-0.065,1.894-0.195c0.512-0.13,0.898-0.256,1.159-0.379l0.298,1.79
			c-0.26,0.138-0.715,0.283-1.365,0.436c-0.65,0.153-1.389,0.229-2.215,0.229c-1.041,0-1.939-0.157-2.696-0.47
			c-0.757-0.313-1.381-0.746-1.87-1.297c-0.49-0.551-0.853-1.205-1.09-1.962S557.611,209.54,557.611,208.637z M565.803,207.467
			c0.015-0.964-0.226-1.756-0.723-2.375c-0.498-0.62-1.182-0.929-2.054-0.929c-0.49,0-0.922,0.096-1.296,0.287
			c-0.375,0.192-0.692,0.44-0.952,0.746c-0.261,0.306-0.463,0.658-0.608,1.056s-0.241,0.803-0.287,1.216H565.803z"/>
		<path fill="#FFFFFF" d="M576.29,214.856c-0.964,0-1.809-0.153-2.536-0.459s-1.339-0.734-1.836-1.285s-0.868-1.205-1.113-1.962
			c-0.245-0.757-0.367-1.595-0.367-2.513c0-0.918,0.134-1.759,0.401-2.524s0.646-1.426,1.136-1.985
			c0.489-0.558,1.09-0.994,1.801-1.308s1.503-0.471,2.375-0.471c0.536,0,1.071,0.046,1.606,0.138s1.048,0.237,1.538,0.436
			l-0.482,1.813c-0.321-0.153-0.692-0.275-1.113-0.367c-0.421-0.092-0.869-0.138-1.343-0.138c-1.193,0-2.107,0.375-2.742,1.125
			s-0.952,1.844-0.952,3.282c0,0.642,0.072,1.231,0.218,1.767c0.146,0.536,0.375,0.995,0.688,1.377
			c0.313,0.383,0.715,0.677,1.205,0.884c0.489,0.207,1.086,0.31,1.79,0.31c0.566,0,1.079-0.053,1.538-0.161
			c0.459-0.107,0.818-0.222,1.079-0.344l0.298,1.79c-0.123,0.077-0.298,0.149-0.528,0.218s-0.49,0.129-0.78,0.183
			s-0.601,0.1-0.929,0.138C576.914,214.836,576.596,214.856,576.29,214.856z"/>
		<path fill="#FFFFFF" d="M581.109,208.637c0-1.056,0.153-1.978,0.459-2.766c0.306-0.788,0.711-1.442,1.216-1.962
			s1.086-0.91,1.744-1.17c0.657-0.26,1.331-0.39,2.019-0.39c1.606,0,2.838,0.501,3.695,1.503c0.856,1.002,1.285,2.528,1.285,4.579
			c0,0.092,0,0.21,0,0.355c0,0.146-0.008,0.279-0.023,0.401h-8.169c0.092,1.239,0.451,2.18,1.079,2.823
			c0.627,0.643,1.606,0.964,2.937,0.964c0.75,0,1.381-0.065,1.894-0.195c0.512-0.13,0.898-0.256,1.159-0.379l0.298,1.79
			c-0.26,0.138-0.715,0.283-1.365,0.436c-0.65,0.153-1.389,0.229-2.215,0.229c-1.041,0-1.939-0.157-2.696-0.47
			c-0.757-0.313-1.381-0.746-1.87-1.297c-0.49-0.551-0.853-1.205-1.09-1.962S581.109,209.54,581.109,208.637z M589.302,207.467
			c0.015-0.964-0.226-1.756-0.723-2.375c-0.498-0.62-1.182-0.929-2.054-0.929c-0.49,0-0.922,0.096-1.296,0.287
			c-0.375,0.192-0.692,0.44-0.952,0.746c-0.261,0.306-0.463,0.658-0.608,1.056s-0.241,0.803-0.287,1.216H589.302z"/>
		<path fill="#FFFFFF" d="M594.603,202.992c0.489-0.122,1.14-0.252,1.951-0.39c0.811-0.138,1.744-0.207,2.799-0.207
			c0.949,0,1.736,0.134,2.364,0.402s1.128,0.643,1.503,1.124c0.375,0.482,0.638,1.06,0.792,1.733
			c0.153,0.673,0.229,1.415,0.229,2.226v6.701h-2.134v-6.242c0-0.734-0.05-1.362-0.149-1.882c-0.1-0.52-0.264-0.941-0.494-1.262
			s-0.536-0.554-0.918-0.7c-0.382-0.145-0.857-0.218-1.423-0.218c-0.229,0-0.467,0.008-0.711,0.023
			c-0.245,0.016-0.478,0.034-0.7,0.057c-0.222,0.023-0.421,0.05-0.597,0.081s-0.302,0.054-0.378,0.069v10.074h-2.134V202.992z"/>
		<path fill="#FFFFFF" d="M609.771,202.647h4.521v1.79h-4.521v5.507c0,0.597,0.046,1.09,0.138,1.48s0.229,0.696,0.413,0.918
			s0.413,0.378,0.688,0.47s0.596,0.138,0.963,0.138c0.643,0,1.159-0.072,1.549-0.218s0.662-0.249,0.814-0.31l0.413,1.767
			c-0.214,0.107-0.589,0.241-1.125,0.401c-0.536,0.161-1.147,0.241-1.836,0.241c-0.811,0-1.48-0.104-2.008-0.31
			c-0.528-0.207-0.952-0.517-1.273-0.93s-0.547-0.921-0.677-1.526s-0.195-1.304-0.195-2.1V199.32l2.134-0.367V202.647z"/>
		<path fill="#FFFFFF" d="M616.105,208.637c0-1.056,0.153-1.978,0.459-2.766c0.306-0.788,0.711-1.442,1.216-1.962
			s1.086-0.91,1.744-1.17c0.657-0.26,1.331-0.39,2.019-0.39c1.606,0,2.838,0.501,3.695,1.503c0.856,1.002,1.285,2.528,1.285,4.579
			c0,0.092,0,0.21,0,0.355c0,0.146-0.008,0.279-0.023,0.401h-8.169c0.092,1.239,0.451,2.18,1.079,2.823
			c0.627,0.643,1.606,0.964,2.937,0.964c0.75,0,1.381-0.065,1.894-0.195c0.512-0.13,0.898-0.256,1.159-0.379l0.298,1.79
			c-0.26,0.138-0.715,0.283-1.365,0.436c-0.65,0.153-1.389,0.229-2.215,0.229c-1.041,0-1.939-0.157-2.696-0.47
			c-0.757-0.313-1.381-0.746-1.87-1.297c-0.49-0.551-0.853-1.205-1.09-1.962S616.105,209.54,616.105,208.637z M624.297,207.467
			c0.015-0.964-0.226-1.756-0.723-2.375c-0.498-0.62-1.182-0.929-2.054-0.929c-0.49,0-0.922,0.096-1.296,0.287
			c-0.375,0.192-0.692,0.44-0.952,0.746c-0.261,0.306-0.463,0.658-0.608,1.056s-0.241,0.803-0.287,1.216H624.297z"/>
		<path fill="#FFFFFF" d="M644.744,206.755h2.226v7.435c-0.184,0.062-0.448,0.13-0.792,0.207c-0.344,0.077-0.742,0.153-1.193,0.229
			s-0.945,0.141-1.48,0.195c-0.536,0.054-1.079,0.081-1.629,0.081c-1.117,0-2.134-0.184-3.052-0.551
			c-0.917-0.367-1.706-0.902-2.363-1.606c-0.658-0.704-1.167-1.568-1.526-2.593c-0.359-1.024-0.539-2.203-0.539-3.534
			s0.203-2.513,0.608-3.545c0.405-1.033,0.953-1.901,1.641-2.605c0.688-0.704,1.495-1.239,2.421-1.606
			c0.925-0.367,1.916-0.551,2.972-0.551c0.719,0,1.357,0.046,1.917,0.138c0.558,0.092,1.036,0.199,1.434,0.321
			c0.397,0.123,0.723,0.245,0.975,0.367c0.252,0.123,0.425,0.215,0.517,0.275l-0.711,1.859c-0.444-0.291-1.033-0.531-1.767-0.723
			s-1.484-0.287-2.249-0.287c-0.811,0-1.549,0.146-2.214,0.436c-0.666,0.291-1.232,0.711-1.698,1.262
			c-0.467,0.551-0.83,1.22-1.09,2.008c-0.261,0.789-0.39,1.672-0.39,2.651c0,0.949,0.111,1.813,0.333,2.593
			c0.222,0.78,0.559,1.45,1.01,2.008s1.01,0.991,1.675,1.296c0.666,0.306,1.449,0.459,2.352,0.459c0.643,0,1.189-0.034,1.641-0.103
			c0.451-0.069,0.776-0.134,0.975-0.195V206.755z"/>
		<path fill="#FFFFFF" d="M659.82,214.236c-0.49,0.123-1.136,0.252-1.939,0.39s-1.733,0.207-2.789,0.207
			c-0.918,0-1.69-0.134-2.317-0.401c-0.627-0.268-1.132-0.646-1.515-1.136c-0.383-0.489-0.658-1.067-0.826-1.732
			c-0.168-0.666-0.252-1.403-0.252-2.215v-6.701h2.134v6.242c0,1.454,0.229,2.494,0.688,3.121c0.459,0.627,1.231,0.941,2.317,0.941
			c0.229,0,0.467-0.007,0.711-0.023c0.245-0.015,0.474-0.034,0.688-0.057s0.409-0.046,0.585-0.069
			c0.176-0.023,0.302-0.05,0.378-0.081v-10.074h2.134V214.236z"/>
		<path fill="#FFFFFF" d="M664.547,200.49c-0.383,0-0.708-0.126-0.976-0.378s-0.401-0.593-0.401-1.021
			c0-0.428,0.134-0.769,0.401-1.021s0.593-0.378,0.976-0.378c0.382,0,0.708,0.126,0.975,0.378s0.402,0.593,0.402,1.021
			c0,0.429-0.134,0.769-0.402,1.021S664.93,200.49,664.547,200.49z M665.626,214.581h-2.134v-11.933h2.134V214.581z"/>
		<path fill="#FFFFFF" d="M673.152,202.349c0.857,0,1.58,0.111,2.169,0.333c0.589,0.222,1.063,0.536,1.423,0.94
			c0.359,0.406,0.616,0.888,0.769,1.446c0.153,0.559,0.229,1.174,0.229,1.848v7.458c-0.184,0.031-0.44,0.073-0.769,0.126
			c-0.329,0.054-0.7,0.103-1.113,0.149s-0.86,0.088-1.342,0.126s-0.96,0.058-1.435,0.058c-0.673,0-1.293-0.069-1.858-0.207
			c-0.566-0.138-1.056-0.355-1.469-0.654s-0.734-0.692-0.964-1.182c-0.229-0.489-0.344-1.079-0.344-1.767
			c0-0.657,0.134-1.224,0.401-1.698c0.268-0.474,0.631-0.856,1.09-1.147s0.994-0.505,1.606-0.643
			c0.611-0.138,1.254-0.207,1.927-0.207c0.214,0,0.436,0.011,0.666,0.034s0.448,0.054,0.654,0.092
			c0.207,0.039,0.386,0.073,0.539,0.104s0.26,0.054,0.321,0.069v-0.597c0-0.352-0.038-0.7-0.115-1.044s-0.214-0.65-0.413-0.918
			c-0.199-0.267-0.47-0.482-0.814-0.643s-0.792-0.241-1.342-0.241c-0.704,0-1.32,0.05-1.848,0.149
			c-0.528,0.1-0.922,0.203-1.182,0.31l-0.252-1.767c0.275-0.122,0.734-0.241,1.377-0.355S672.403,202.349,673.152,202.349z
			 M673.336,213.043c0.505,0,0.953-0.011,1.343-0.034s0.715-0.065,0.975-0.126v-3.557c-0.153-0.076-0.401-0.141-0.746-0.195
			c-0.344-0.053-0.761-0.081-1.251-0.081c-0.321,0-0.662,0.023-1.021,0.069c-0.36,0.046-0.688,0.142-0.987,0.287
			c-0.298,0.146-0.547,0.344-0.746,0.597c-0.199,0.252-0.298,0.585-0.298,0.998c0,0.765,0.245,1.297,0.734,1.595
			C671.829,212.894,672.495,213.043,673.336,213.043z"/>
		<path fill="#FFFFFF" d="M688.986,197.14l2.134-0.367v17.463c-0.49,0.138-1.117,0.275-1.882,0.413
			c-0.765,0.138-1.645,0.207-2.639,0.207c-0.918,0-1.744-0.146-2.478-0.436s-1.362-0.704-1.882-1.239
			c-0.521-0.535-0.922-1.189-1.205-1.962s-0.424-1.641-0.424-2.604c0-0.918,0.118-1.759,0.355-2.524s0.585-1.423,1.044-1.974
			s1.021-0.979,1.687-1.285c0.666-0.306,1.426-0.459,2.283-0.459c0.688,0,1.297,0.092,1.825,0.275s0.921,0.36,1.182,0.528V197.14z
			 M688.986,205.172c-0.26-0.214-0.635-0.421-1.125-0.62s-1.025-0.298-1.606-0.298c-0.612,0-1.136,0.111-1.572,0.333
			c-0.436,0.222-0.792,0.528-1.067,0.918s-0.475,0.853-0.597,1.389c-0.123,0.536-0.184,1.109-0.184,1.721
			c0,1.392,0.344,2.467,1.033,3.224s1.606,1.136,2.753,1.136c0.582,0,1.067-0.026,1.458-0.08s0.692-0.111,0.906-0.172V205.172z"/>
		<path fill="#FFFFFF" d="M698.647,202.349c0.857,0,1.58,0.111,2.169,0.333c0.589,0.222,1.063,0.536,1.423,0.94
			c0.359,0.406,0.616,0.888,0.769,1.446c0.153,0.559,0.229,1.174,0.229,1.848v7.458c-0.184,0.031-0.44,0.073-0.769,0.126
			c-0.329,0.054-0.7,0.103-1.113,0.149s-0.86,0.088-1.342,0.126s-0.96,0.058-1.435,0.058c-0.673,0-1.293-0.069-1.858-0.207
			c-0.566-0.138-1.056-0.355-1.469-0.654s-0.734-0.692-0.964-1.182c-0.229-0.489-0.344-1.079-0.344-1.767
			c0-0.657,0.134-1.224,0.401-1.698c0.268-0.474,0.631-0.856,1.09-1.147s0.994-0.505,1.606-0.643
			c0.611-0.138,1.254-0.207,1.927-0.207c0.214,0,0.436,0.011,0.666,0.034s0.448,0.054,0.654,0.092
			c0.207,0.039,0.386,0.073,0.539,0.104s0.26,0.054,0.321,0.069v-0.597c0-0.352-0.038-0.7-0.115-1.044s-0.214-0.65-0.413-0.918
			c-0.199-0.267-0.47-0.482-0.814-0.643s-0.792-0.241-1.342-0.241c-0.704,0-1.32,0.05-1.848,0.149
			c-0.528,0.1-0.922,0.203-1.182,0.31l-0.252-1.767c0.275-0.122,0.734-0.241,1.377-0.355S697.897,202.349,698.647,202.349z
			 M698.831,213.043c0.505,0,0.953-0.011,1.343-0.034s0.715-0.065,0.975-0.126v-3.557c-0.153-0.076-0.401-0.141-0.746-0.195
			c-0.344-0.053-0.761-0.081-1.251-0.081c-0.321,0-0.662,0.023-1.021,0.069c-0.36,0.046-0.688,0.142-0.987,0.287
			c-0.298,0.146-0.547,0.344-0.746,0.597c-0.199,0.252-0.298,0.585-0.298,0.998c0,0.765,0.245,1.297,0.734,1.595
			C697.324,212.894,697.989,213.043,698.831,213.043z"/>
		<path fill="#FFFFFF" d="M722.582,208.637c0,0.903-0.119,1.736-0.356,2.501c-0.237,0.765-0.585,1.423-1.044,1.974
			s-1.021,0.979-1.687,1.285s-1.427,0.459-2.284,0.459c-0.688,0-1.296-0.092-1.824-0.275s-0.922-0.359-1.182-0.528v4.773h-2.134
			v-15.812c0.505-0.122,1.136-0.256,1.893-0.401s1.633-0.218,2.627-0.218c0.918,0,1.744,0.146,2.479,0.436
			c0.734,0.291,1.362,0.704,1.882,1.239c0.52,0.536,0.921,1.189,1.205,1.962C722.44,206.805,722.582,207.673,722.582,208.637z
			 M720.355,208.637c0-1.392-0.344-2.463-1.033-3.213s-1.606-1.125-2.754-1.125c-0.643,0-1.144,0.023-1.503,0.069
			s-0.646,0.1-0.86,0.161v7.527c0.26,0.214,0.634,0.421,1.125,0.62c0.489,0.199,1.024,0.298,1.606,0.298
			c0.612,0,1.136-0.111,1.572-0.333s0.792-0.528,1.067-0.918s0.474-0.849,0.597-1.377S720.355,209.249,720.355,208.637z"/>
		<path fill="#FFFFFF" d="M736.121,208.614c0,0.949-0.138,1.805-0.413,2.57c-0.275,0.765-0.662,1.423-1.159,1.974
			c-0.498,0.551-1.09,0.976-1.779,1.274c-0.688,0.298-1.438,0.447-2.249,0.447s-1.56-0.149-2.249-0.447
			c-0.688-0.298-1.282-0.723-1.779-1.274s-0.883-1.208-1.159-1.974c-0.275-0.765-0.413-1.621-0.413-2.57
			c0-0.933,0.138-1.786,0.413-2.559c0.275-0.772,0.662-1.434,1.159-1.985s1.09-0.975,1.779-1.273s1.438-0.448,2.249-0.448
			s1.561,0.149,2.249,0.448s1.281,0.723,1.779,1.273c0.497,0.551,0.883,1.212,1.159,1.985
			C735.983,206.828,736.121,207.681,736.121,208.614z M733.895,208.614c0-1.346-0.302-2.414-0.906-3.202
			c-0.604-0.788-1.427-1.182-2.467-1.182s-1.863,0.394-2.467,1.182c-0.604,0.788-0.906,1.855-0.906,3.202s0.302,2.413,0.906,3.201
			c0.604,0.788,1.426,1.182,2.467,1.182s1.863-0.394,2.467-1.182C733.592,211.027,733.895,209.96,733.895,208.614z"/>
		<path fill="#FFFFFF" d="M743.533,202.395c0.184,0,0.394,0.012,0.631,0.035c0.237,0.023,0.47,0.054,0.7,0.092
			s0.44,0.077,0.631,0.115c0.191,0.038,0.333,0.073,0.424,0.103l-0.367,1.859c-0.168-0.061-0.447-0.134-0.837-0.218
			c-0.39-0.083-0.892-0.126-1.503-0.126c-0.398,0-0.792,0.042-1.182,0.126c-0.39,0.084-0.646,0.142-0.769,0.172v10.028h-2.134
			v-11.428c0.505-0.184,1.132-0.355,1.882-0.516C741.758,202.476,742.6,202.395,743.533,202.395z"/>
		<path fill="#FFFFFF" d="M766.481,206.618c0,1.377-0.214,2.574-0.643,3.591c-0.429,1.018-1.033,1.859-1.813,2.524
			s-1.714,1.163-2.8,1.492c-1.086,0.329-2.28,0.493-3.58,0.493c-0.643,0-1.35-0.027-2.123-0.081s-1.473-0.156-2.1-0.31v-15.421
			c0.627-0.152,1.327-0.256,2.1-0.31c0.772-0.053,1.48-0.081,2.123-0.081c1.3,0,2.494,0.165,3.58,0.494
			c1.086,0.329,2.02,0.826,2.8,1.492s1.384,1.507,1.813,2.524C766.267,204.044,766.481,205.241,766.481,206.618z M757.829,212.768
			c2.111,0,3.687-0.539,4.728-1.618c1.04-1.079,1.561-2.589,1.561-4.532s-0.521-3.454-1.561-4.532
			c-1.041-1.079-2.616-1.618-4.728-1.618c-0.627,0-1.113,0.008-1.457,0.023c-0.344,0.016-0.585,0.031-0.723,0.046v12.163
			c0.138,0.016,0.378,0.031,0.723,0.046C756.716,212.76,757.202,212.768,757.829,212.768z"/>
		<path fill="#FFFFFF" d="M773.181,202.349c0.857,0,1.58,0.111,2.169,0.333c0.589,0.222,1.063,0.536,1.423,0.94
			c0.359,0.406,0.616,0.888,0.769,1.446c0.153,0.559,0.229,1.174,0.229,1.848v7.458c-0.184,0.031-0.44,0.073-0.769,0.126
			c-0.329,0.054-0.7,0.103-1.113,0.149s-0.86,0.088-1.342,0.126s-0.96,0.058-1.435,0.058c-0.673,0-1.293-0.069-1.858-0.207
			c-0.566-0.138-1.056-0.355-1.469-0.654s-0.734-0.692-0.964-1.182c-0.229-0.489-0.344-1.079-0.344-1.767
			c0-0.657,0.134-1.224,0.401-1.698c0.268-0.474,0.631-0.856,1.09-1.147s0.994-0.505,1.606-0.643
			c0.611-0.138,1.254-0.207,1.927-0.207c0.214,0,0.436,0.011,0.666,0.034s0.448,0.054,0.654,0.092
			c0.207,0.039,0.386,0.073,0.539,0.104s0.26,0.054,0.321,0.069v-0.597c0-0.352-0.038-0.7-0.115-1.044s-0.214-0.65-0.413-0.918
			c-0.199-0.267-0.47-0.482-0.814-0.643s-0.792-0.241-1.342-0.241c-0.704,0-1.32,0.05-1.848,0.149
			c-0.528,0.1-0.922,0.203-1.182,0.31l-0.252-1.767c0.275-0.122,0.734-0.241,1.377-0.355S772.432,202.349,773.181,202.349z
			 M773.365,213.043c0.505,0,0.953-0.011,1.343-0.034s0.715-0.065,0.975-0.126v-3.557c-0.153-0.076-0.401-0.141-0.746-0.195
			c-0.344-0.053-0.761-0.081-1.251-0.081c-0.321,0-0.662,0.023-1.021,0.069c-0.36,0.046-0.688,0.142-0.987,0.287
			c-0.298,0.146-0.547,0.344-0.746,0.597c-0.199,0.252-0.298,0.585-0.298,0.998c0,0.765,0.245,1.297,0.734,1.595
			C771.858,212.894,772.523,213.043,773.365,213.043z"/>
		<path fill="#FFFFFF" d="M789.015,197.14l2.134-0.367v17.463c-0.49,0.138-1.117,0.275-1.882,0.413
			c-0.765,0.138-1.645,0.207-2.639,0.207c-0.918,0-1.744-0.146-2.478-0.436s-1.362-0.704-1.882-1.239
			c-0.521-0.535-0.922-1.189-1.205-1.962s-0.424-1.641-0.424-2.604c0-0.918,0.118-1.759,0.355-2.524s0.585-1.423,1.044-1.974
			s1.021-0.979,1.687-1.285c0.666-0.306,1.426-0.459,2.283-0.459c0.688,0,1.297,0.092,1.825,0.275s0.921,0.36,1.182,0.528V197.14z
			 M789.015,205.172c-0.26-0.214-0.635-0.421-1.125-0.62s-1.025-0.298-1.606-0.298c-0.612,0-1.136,0.111-1.572,0.333
			c-0.436,0.222-0.792,0.528-1.067,0.918s-0.475,0.853-0.597,1.389c-0.123,0.536-0.184,1.109-0.184,1.721
			c0,1.392,0.344,2.467,1.033,3.224s1.606,1.136,2.753,1.136c0.582,0,1.067-0.026,1.458-0.08s0.692-0.111,0.906-0.172V205.172z"/>
		<path fill="#FFFFFF" d="M805.354,208.614c0,0.949-0.138,1.805-0.413,2.57c-0.275,0.765-0.662,1.423-1.159,1.974
			c-0.498,0.551-1.09,0.976-1.779,1.274c-0.688,0.298-1.438,0.447-2.249,0.447s-1.56-0.149-2.249-0.447
			c-0.688-0.298-1.282-0.723-1.779-1.274s-0.883-1.208-1.159-1.974c-0.275-0.765-0.413-1.621-0.413-2.57
			c0-0.933,0.138-1.786,0.413-2.559c0.275-0.772,0.662-1.434,1.159-1.985s1.09-0.975,1.779-1.273s1.438-0.448,2.249-0.448
			s1.561,0.149,2.249,0.448s1.281,0.723,1.779,1.273c0.497,0.551,0.883,1.212,1.159,1.985
			C805.216,206.828,805.354,207.681,805.354,208.614z M803.128,208.614c0-1.346-0.302-2.414-0.906-3.202
			c-0.604-0.788-1.427-1.182-2.467-1.182s-1.863,0.394-2.467,1.182c-0.604,0.788-0.906,1.855-0.906,3.202s0.302,2.413,0.906,3.201
			c0.604,0.788,1.426,1.182,2.467,1.182s1.863-0.394,2.467-1.182C802.826,211.027,803.128,209.96,803.128,208.614z"/>
		<path fill="#FFFFFF" d="M811.137,213.043c0.872,0,1.518-0.115,1.939-0.344c0.42-0.229,0.631-0.597,0.631-1.102
			c0-0.52-0.207-0.933-0.62-1.239c-0.413-0.306-1.094-0.65-2.042-1.033c-0.459-0.184-0.899-0.371-1.32-0.562
			c-0.421-0.191-0.784-0.417-1.09-0.677c-0.306-0.26-0.551-0.574-0.734-0.941s-0.275-0.818-0.275-1.354
			c0-1.056,0.39-1.894,1.17-2.513c0.78-0.62,1.843-0.93,3.19-0.93c0.336,0,0.673,0.02,1.009,0.058s0.65,0.084,0.941,0.138
			s0.547,0.111,0.769,0.172c0.222,0.062,0.394,0.115,0.516,0.161l-0.39,1.836c-0.229-0.123-0.589-0.249-1.079-0.379
			c-0.49-0.129-1.079-0.195-1.767-0.195c-0.597,0-1.117,0.119-1.561,0.355c-0.444,0.238-0.666,0.608-0.666,1.113
			c0,0.26,0.049,0.49,0.149,0.688s0.252,0.378,0.459,0.539s0.462,0.31,0.769,0.448c0.306,0.138,0.673,0.283,1.101,0.436
			c0.566,0.214,1.071,0.424,1.515,0.631s0.822,0.448,1.136,0.723c0.313,0.275,0.554,0.608,0.723,0.999s0.252,0.868,0.252,1.434
			c0,1.102-0.409,1.936-1.228,2.501c-0.819,0.566-1.985,0.849-3.5,0.849c-1.056,0-1.882-0.088-2.479-0.264
			c-0.597-0.175-1.002-0.31-1.216-0.401l0.39-1.836c0.245,0.092,0.635,0.229,1.17,0.413
			C809.538,212.951,810.25,213.043,811.137,213.043z"/>
	</g>
	<g>
		<path fill="#FFFFFF" d="M42.962,131.367h3.392v26.118h-3.392V131.367z"/>
		<path fill="#FFFFFF" d="M52.458,138.264c0.93-0.276,1.935-0.509,3.015-0.697c1.08-0.188,2.073-0.283,2.978-0.283
			c0.98,0,1.872,0.132,2.676,0.396c0.804,0.264,1.489,0.71,2.054,1.338c0.565,0.628,1.005,1.477,1.319,2.544
			c0.314,1.068,0.471,2.394,0.471,3.976v11.947H61.73v-11.683c0-1.96-0.251-3.392-0.754-4.296c-0.503-0.905-1.445-1.357-2.827-1.357
			c-0.729,0-1.545,0.126-2.45,0.377v16.959h-3.241V138.264z"/>
		<path fill="#FFFFFF" d="M72.245,134.193c-0.578,0-1.074-0.194-1.488-0.584c-0.415-0.389-0.622-0.91-0.622-1.564
			c0-0.653,0.208-1.174,0.622-1.564c0.415-0.389,0.91-0.584,1.488-0.584c0.578,0,1.074,0.195,1.489,0.584
			c0.415,0.39,0.622,0.911,0.622,1.564c0,0.654-0.208,1.175-0.622,1.564C73.319,133.999,72.822,134.193,72.245,134.193z
			 M73.865,157.484h-3.241v-19.786h3.241V157.484z"/>
		<path fill="#FFFFFF" d="M85.774,157.974c-1.357,0-2.487-0.264-3.392-0.791c-0.904-0.528-1.639-1.25-2.205-2.167
			c-0.565-0.917-0.967-2.003-1.206-3.26c-0.239-1.256-0.358-2.625-0.358-4.108c0-3.266,0.597-5.823,1.79-7.669
			s2.996-2.77,5.408-2.77c0.729,0,1.381,0.088,1.96,0.264c0.578,0.176,1.118,0.402,1.621,0.678l-0.829,2.676
			c-0.779-0.502-1.646-0.753-2.601-0.753c-1.357,0-2.355,0.616-2.996,1.847s-0.961,3.141-0.961,5.729
			c0,1.081,0.062,2.079,0.188,2.996c0.125,0.917,0.345,1.703,0.66,2.355c0.314,0.654,0.729,1.168,1.244,1.545
			c0.515,0.376,1.174,0.565,1.979,0.565c0.553,0,1.049-0.069,1.489-0.207c0.439-0.138,0.86-0.32,1.263-0.546l0.716,2.525
			c-0.402,0.277-0.936,0.528-1.602,0.754C87.275,157.861,86.553,157.974,85.774,157.974z"/>
		<path fill="#FFFFFF" d="M94.668,134.193c-0.578,0-1.074-0.194-1.488-0.584c-0.415-0.389-0.622-0.91-0.622-1.564
			c0-0.653,0.208-1.174,0.622-1.564c0.415-0.389,0.91-0.584,1.488-0.584c0.578,0,1.074,0.195,1.489,0.584
			c0.415,0.39,0.622,0.911,0.622,1.564c0,0.654-0.208,1.175-0.622,1.564C95.743,133.999,95.246,134.193,94.668,134.193z
			 M96.289,157.484h-3.241v-19.786h3.241V157.484z"/>
		<path fill="#FFFFFF" d="M102.47,138.113c0.653-0.276,1.344-0.496,2.073-0.66c0.729-0.163,1.52-0.245,2.375-0.245
			c1.758,0,3.19,0.546,4.296,1.639c1.105,1.093,1.658,2.795,1.658,5.107v13.115c-0.905,0.251-1.828,0.452-2.77,0.603
			c-0.942,0.151-1.866,0.226-2.77,0.226c-0.905,0-1.752-0.113-2.544-0.339s-1.483-0.59-2.073-1.093
			c-0.591-0.502-1.062-1.137-1.414-1.903c-0.352-0.766-0.527-1.702-0.527-2.808c0-1.03,0.156-1.928,0.471-2.695
			c0.314-0.766,0.748-1.407,1.3-1.922c0.553-0.515,1.206-0.905,1.96-1.168s1.57-0.396,2.45-0.396c0.829,0,1.746,0.101,2.751,0.301
			v-1.809c0-1.457-0.283-2.474-0.848-3.053c-0.565-0.578-1.376-0.867-2.431-0.867c-0.578,0-1.125,0.057-1.639,0.169
			c-0.516,0.113-1.062,0.296-1.64,0.547L102.47,138.113z M104.015,151.718c0,1.156,0.302,2.01,0.905,2.563
			c0.603,0.553,1.457,0.829,2.563,0.829c0.679,0,1.419-0.087,2.224-0.264v-6.294c-0.753-0.201-1.495-0.301-2.224-0.301
			c-0.478,0-0.93,0.057-1.356,0.169c-0.428,0.113-0.798,0.302-1.112,0.565c-0.314,0.264-0.56,0.616-0.735,1.055
			C104.103,150.481,104.015,151.04,104.015,151.718z"/>
		<path fill="#FFFFFF" d="M121.539,137.698h4.975v2.789h-4.975v10.892c0,1.357,0.245,2.306,0.735,2.846
			c0.49,0.541,1.149,0.81,1.979,0.81c0.427,0,0.835-0.063,1.225-0.188c0.389-0.125,0.722-0.276,0.999-0.452l0.641,2.601
			c-1.031,0.603-2.124,0.904-3.279,0.904c-1.859,0-3.248-0.521-4.164-1.564c-0.917-1.042-1.376-2.77-1.376-5.182v-18.769
			l3.241-0.565V137.698z"/>
		<path fill="#FFFFFF" d="M132.242,134.193c-0.578,0-1.074-0.194-1.488-0.584c-0.415-0.389-0.622-0.91-0.622-1.564
			c0-0.653,0.208-1.174,0.622-1.564c0.415-0.389,0.91-0.584,1.488-0.584c0.578,0,1.074,0.195,1.489,0.584
			c0.415,0.39,0.622,0.911,0.622,1.564c0,0.654-0.208,1.175-0.622,1.564C133.316,133.999,132.82,134.193,132.242,134.193z
			 M133.863,157.484h-3.241v-19.786h3.241V157.484z"/>
		<path fill="#FFFFFF" d="M144.34,153.678c0.301-1.004,0.622-2.186,0.961-3.542c0.339-1.357,0.672-2.757,0.999-4.202
			c0.326-1.444,0.634-2.883,0.923-4.315c0.289-1.432,0.533-2.738,0.735-3.919h3.241c-0.328,1.658-0.712,3.405-1.153,5.239
			s-0.895,3.637-1.361,5.408c-0.466,1.771-0.938,3.448-1.417,5.031c-0.479,1.583-0.92,2.953-1.323,4.108h-3.343
			c-0.401-1.155-0.841-2.525-1.318-4.108s-0.948-3.26-1.413-5.031c-0.465-1.771-0.917-3.574-1.355-5.408
			c-0.439-1.834-0.823-3.581-1.149-5.239h3.43c0.201,1.181,0.446,2.487,0.735,3.919c0.289,1.432,0.59,2.871,0.904,4.315
			c0.314,1.445,0.634,2.845,0.961,4.202C143.724,151.492,144.038,152.673,144.34,153.678z"/>
		<path fill="#FFFFFF" d="M154.666,138.113c0.653-0.276,1.344-0.496,2.073-0.66c0.729-0.163,1.52-0.245,2.375-0.245
			c1.758,0,3.19,0.546,4.296,1.639c1.105,1.093,1.658,2.795,1.658,5.107v13.115c-0.905,0.251-1.828,0.452-2.77,0.603
			c-0.942,0.151-1.866,0.226-2.77,0.226c-0.905,0-1.752-0.113-2.544-0.339s-1.483-0.59-2.073-1.093
			c-0.591-0.502-1.062-1.137-1.414-1.903c-0.352-0.766-0.527-1.702-0.527-2.808c0-1.03,0.156-1.928,0.471-2.695
			c0.314-0.766,0.748-1.407,1.3-1.922c0.553-0.515,1.206-0.905,1.96-1.168s1.57-0.396,2.45-0.396c0.829,0,1.746,0.101,2.751,0.301
			v-1.809c0-1.457-0.283-2.474-0.848-3.053c-0.565-0.578-1.376-0.867-2.431-0.867c-0.578,0-1.125,0.057-1.639,0.169
			c-0.516,0.113-1.062,0.296-1.64,0.547L154.666,138.113z M156.211,151.718c0,1.156,0.302,2.01,0.905,2.563
			c0.603,0.553,1.457,0.829,2.563,0.829c0.679,0,1.419-0.087,2.224-0.264v-6.294c-0.753-0.201-1.495-0.301-2.224-0.301
			c-0.478,0-0.93,0.057-1.356,0.169c-0.428,0.113-0.798,0.302-1.112,0.565c-0.314,0.264-0.56,0.616-0.735,1.055
			C156.299,150.481,156.211,151.04,156.211,151.718z"/>
	</g>
</g>
</svg>
