<svg width="85.474mm" height="12.427mm" version="1.1" viewBox="0 0 85.474 12.427" xmlns="http://www.w3.org/2000/svg">
 <defs>
  <clipPath id="mptb">
   <use width="100%" height="100%" xlink:href="#mpta"/>
  </clipPath>
 </defs>
 <g transform="translate(-4.5573 -8.2021)">
  <g>
   <g transform="translate(-53.247 -86.793)" clip-path="url(#mptb)">
    <g id="mpta">
     <g transform="matrix(.35278 0 0 -.35278 63.632 105.84)">
      <path d="m0 0c.202 0 .399.017.592.048.228.476.357 1.012.357 1.576 0 .943-.36 1.805-.949 2.453-.589-.648-.948-1.51-.948-2.453 0-.564.128-1.1.357-1.576.193-.031.39-.048.591-.048m3.298 5.26c-.588 1.226-1.84 2.073-3.291 2.073-1.45 0-2.703-.847-3.291-2.072.192.031.389.047.591.047 1.07 0 2.033-.46 2.7-1.195.667.735 1.63 1.195 2.7 1.195.201 0 .399-.016.591-.048m-2.407 21.891v-19.361c-.295.076-.604.117-.924.117-.312 0-.614-.039-.904-.113v19.357c0 .946.346 1.807.914 2.454.568-.647.914-1.508.914-2.454m-.895-28.552c.237.261.437.556.591.879l-.009-.002c-.016-.002-.032-.005-.047-.008-.018-.002-.035-.005-.053-.007l-.037-.005c-.02-.002-.04-.004-.059-.006l-.025-.003c-.024-.003-.048-.005-.073-.007l-.014-.001c-.029-.002-.057-.003-.086-.004h-.001c-.031-.002-.062-.004-.093-.004-.031-.001-.063-.002-.094-.002-.032 0-.063.001-.094.002-.032 0-.063.002-.094.004-.029.001-.058.002-.087.004l-.014.001c-.024.002-.049.004-.074.007l-.023.002c-.019.003-.038.005-.057.007l-.042.006c-.016.002-.032.004-.049.006-.016.003-.032.006-.049.008l-.009.002c.155-.323.354-.618.592-.879" fill="#8f1821" fill-rule="evenodd"/>
     </g>
     <g transform="matrix(.35278 0 0 -.35278 61.022 102.82)">
      <path d="m0 0c1.656 1.82 3.05 3.882 4.126 6.125l-.064-.01c-.109-.017-.219-.035-.33-.051-.121-.018-.244-.036-.366-.051l-.257-.033c-.138-.017-.277-.033-.417-.047l-.167-.017c-.171-.018-.341-.032-.512-.046l-.099-.008c-.2-.014-.4-.027-.601-.038h-.006c-.216-.012-.432-.019-.65-.025h-.001c-.218-.006-.436-.008-.656-.008-.219 0-.437.002-.655.008h-.001c-.218.006-.435.013-.651.025h-.004c-.202.011-.403.024-.603.038l-.097.008c-.173.013-.345.028-.517.046l-.16.016c-.134.014-.269.03-.402.047l-.291.037c-.113.013-.226.03-.339.046-.115.017-.229.036-.342.053l-.064.011c1.076-2.244 2.47-4.306 4.126-6.126" fill="#8f1821" fill-rule="evenodd"/>
     </g>
     <g transform="matrix(.35278 0 0 -.35278 66.246 102.82)">
      <path d="m0 0c1.655 1.82 3.05 3.882 4.126 6.125l-.064-.01c-.109-.017-.22-.035-.33-.051-.122-.018-.244-.036-.367-.051l-.256-.033c-.138-.017-.277-.033-.417-.047l-.167-.017c-.171-.018-.341-.032-.512-.046l-.099-.008c-.201-.014-.4-.027-.601-.038h-.006c-.217-.012-.433-.019-.65-.025h-.001c-.218-.006-.436-.008-.656-.008s-.437.002-.656.008c-.218.006-.435.013-.651.025h-.005c-.201.011-.402.024-.602.038l-.097.008c-.173.013-.345.028-.517.046l-.16.016c-.135.014-.269.03-.402.047l-.291.037c-.114.013-.227.03-.34.046-.114.017-.228.036-.342.053l-.063.011c1.076-2.244 2.47-4.306 4.126-6.126" fill="#8f1821" fill-rule="evenodd"/>
     </g>
     <g transform="matrix(.35278 0 0 -.35278 67.758 94.995)">
      <path d="m0 0c10.271-2.916 17.405-9.331 17.405-16.774 0-10.189-13.364-18.452-29.843-18.452-5.792 0-11.198 1.023-15.775 2.788 3.787-1.075 7.999-1.675 12.438-1.675 16.479 0 29.843 8.262 29.843 18.451 0 6.607-5.622 12.403-14.068 15.662" fill="#8f1821" fill-rule="evenodd"/>
     </g>
     <g transform="matrix(.35278 0 0 -.35278 77.307 98.648)">
      <path d="m0 0 4.171-13.067 4.394 13.067h5.202v-16.749h-3.401v12.577l-4.377-12.577h-3.669l-4.134 12.577v-12.577h-3.401v16.749z" fill="#8f1821"/>
     </g>
     <g transform="matrix(.35278 0 0 -.35278 84.631 101.44)">
      <path d="m0 0h4.858c.868 0 1.479.139 1.831.419.523.415.783 1.14.783 2.169 0 1.131-.398 1.855-1.189 2.174-.285.113-.738.172-1.349.172h-4.934zm0-2.982v-5.851h-3.56v16.749h8.36c1.52 0 2.613-.104 3.275-.318 1.097-.369 1.965-1.135 2.601-2.295.473-.86.712-1.805.712-2.836 0-1.039-.23-2.002-.687-2.886-.515-1.013-1.281-1.738-2.295-2.169-.599-.264-1.491-.394-2.677-.394z" fill="#8f1821"/>
     </g>
     <g transform="matrix(.35278 0 0 -.35278 90.773 99.7)">
      <path d="m0 0h-5.34v2.982h14.446v-2.982h-5.545v-13.767h-3.561z" fill="#8f1821"/>
     </g>
     <g transform="matrix(.35278 0 0 -.35278 96.643 98.68)">
      <path d="m0 0 1.564-4.898 1.646 4.898h1.951v-6.279h-1.275v4.715l-1.641-4.715h-1.375l-1.55 4.715v-4.715h-1.275v6.279z" fill="#8f1821"/>
     </g>
     <path d="m98.91 98.681h.44485v.4318h-.44485zm0 .59725h.44485v1.6178h-.44485z" fill="#8f1821"/>
     <g transform="matrix(.35278 0 0 -.35278 99.795 99.278)">
      <path d="m0 0h2.432c.377 0 .678-.034.901-.105.626-.225.938-.778.935-1.657v-2.824h-1.261v2.967c0 .258-.079.443-.234.557-.074.051-.212.08-.415.083h-1.097v-3.607h-1.261z" fill="#8f1821"/>
     </g>
     <path d="m101.72 98.681h.44485v.4318h-.44485zm0 .59725h.44485v1.6178h-.44485z" fill="#8f1821"/>
     <g transform="matrix(.35278 0 0 -.35278 104.01 99.278)">
      <path d="m0 0v-.979h-2.236c-.256 0-.418-.013-.489-.037-.144-.05-.216-.172-.216-.369 0-.162.069-.285.207-.372.074-.049.278-.073.612-.073h.746c.476 0 .852-.103 1.128-.309.306-.226.46-.56.46-.998 0-.331-.093-.635-.276-.916-.204-.303-.491-.472-.862-.505-.189-.018-.403-.028-.638-.028h-2.61v.98h2.245c.28 0 .47.004.572.014.224.024.336.149.336.377 0 .19-.074.32-.221.391-.08.039-.264.059-.553.059h-.764c-.316 0-.547.019-.695.056-.328.086-.577.262-.75.528-.159.248-.239.531-.239.847 0 .46.167.825.501 1.096.199.158.548.238 1.046.238z" fill="#8f1821"/>
     </g>
     <g transform="matrix(.35278 0 0 -.35278 104.52 99.278)">
      <path d="m0 0v1.693h1.261v-1.693h1.168v-.979h-1.168v-1.667c0-.389.034-.633.105-.734.108-.151.297-.226.567-.226h.496v-.98h-.915c-.509 0-.881.115-1.114.346-.183.183-.304.431-.364.744-.023.117-.036.326-.036.631v1.886h-.8v.979z" fill="#8f1821"/>
     </g>
     <g transform="matrix(.35278 0 0 -.35278 106.9 98.653)">
      <path d="m0 0-1.168-1.229h-.81l.865 1.229zm.203-3.57v-.981h-2.658c.02-.303.137-.527.344-.67.147-.101.405-.154.773-.157h1.541v-.979h-1.679c-.408 0-.733.039-.975.119-.44.148-.781.418-1.031.81-.246.38-.368.854-.368 1.421 0 .559.148 1.042.442 1.454.24.328.542.549.906.662.254.08.566.12.934.12h1.771v-.98h-1.679c-.427-.007-.7-.101-.819-.281-.087-.122-.14-.302-.16-.538z" fill="#8f1821"/>
     </g>
     <g transform="matrix(.35278 0 0 -.35278 107.34 99.278)">
      <path d="m0 0h1.867c.377 0 .687-.029.925-.088.402-.109.658-.344.768-.703.061-.196.092-.473.092-.832v-.445h-1.21v.248c-.006.33-.063.55-.17.657-.11.122-.326.184-.648.184h-.362v-3.607h-1.262z" fill="#8f1821"/>
     </g>
     <path d="m108.87 98.681h.44485v.4318h-.44485zm0 .59725h.44485v1.6178h-.44485z" fill="#8f1821"/>
     <g transform="matrix(.35278 0 0 -.35278 110.5 99.594)">
      <path d="m0 0c-.749 0-1.122-.474-1.122-1.422 0-.377.06-.666.184-.865.205-.338.525-.506.961-.506.749 0 1.123.47 1.123 1.408 0 .924-.381 1.385-1.146 1.385m.038.966c.824 0 1.44-.245 1.843-.737.372-.448.557-1.006.557-1.678 0-.721-.232-1.293-.698-1.721-.428-.393-1.01-.589-1.749-.589-.769 0-1.373.22-1.807.658-.399.402-.599.976-.599 1.721 0 .65.192 1.191.575 1.618.434.487 1.059.728 1.878.728" fill="#8f1821"/>
     </g>
     <g transform="matrix(.35278 0 0 -.35278 113 99.728)">
      <path d="m0 0h1.821c.325 0 .555.053.687.158.196.155.293.427.293.813 0 .424-.149.695-.446.815-.106.042-.276.064-.505.064h-1.85zm0-1.117v-2.194h-1.334v6.28h3.134c.569 0 .979-.04 1.227-.12.411-.138.737-.425.975-.861.178-.322.268-.676.268-1.062 0-.39-.087-.751-.258-1.082-.194-.38-.481-.652-.861-.814-.224-.098-.558-.147-1.003-.147z" fill="#8f1821"/>
     </g>
     <g transform="matrix(.35278 0 0 -.35278 116.03 98.653)">
      <path d="m0 0-1.169-1.229h-.81l.866 1.229zm-.493-5.378v3.607h1.261v-4.586h-2.485c-.376 0-.678.035-.901.105-.626.225-.937.778-.934 1.66v2.821h1.261v-2.949c0-.206.054-.366.16-.483.109-.117.257-.175.447-.175z" fill="#8f1821"/>
     </g>
     <g transform="matrix(.35278 0 0 -.35278 117.19 99.623)">
      <path d="m0 0v-2.627h.935c.398 0 .695.122.893.368.205.26.308.584.308.972 0 .858-.401 1.287-1.201 1.287zm0 .979h1.118c.411 0 .76-.054 1.047-.163.286-.108.532-.279.738-.512.347-.393.52-.911.52-1.555 0-.93-.337-1.602-1.013-2.02-.22-.134-.465-.228-.731-.281-.187-.036-.483-.054-.887-.054h-2.053v6.279h1.261z" fill="#8f1821"/>
     </g>
     <path d="m119.17 100.9h-.44485v-2.2151h.44485z" fill="#8f1821"/>
     <path d="m119.61 98.681h.44521v.4318h-.44521zm0 .59725h.44521v1.6178h-.44521z" fill="#8f1821"/>
     <g transform="matrix(.35278 0 0 -.35278 121.84 99.278)">
      <path d="m0 0v-.979h-1.515c-.502 0-.853-.114-1.052-.341-.188-.215-.282-.54-.282-.975 0-.493.155-.851.46-1.072.129-.092.269-.156.419-.194.132-.029.335-.045.608-.045h1.362v-.98h-1.727c-.612 0-1.075.093-1.389.276-.306.178-.554.448-.743.809-.185.351-.277.757-.277 1.22 0 .814.236 1.426.708 1.831.24.206.554.339.944.4.217.032.47.05.757.05z" fill="#8f1821"/>
     </g>
     <g transform="matrix(.35278 0 0 -.35278 122.93 99.594)">
      <path d="m0 0c-.748 0-1.122-.474-1.122-1.422 0-.377.061-.666.184-.865.205-.338.525-.506.961-.506.749 0 1.123.47 1.123 1.408 0 .924-.381 1.385-1.146 1.385m.038.966c.824 0 1.44-.245 1.843-.737.372-.448.557-1.006.557-1.678 0-.721-.232-1.293-.698-1.721-.428-.393-1.01-.589-1.749-.589-.769 0-1.372.22-1.807.658-.399.402-.598.976-.598 1.721 0 .65.191 1.191.574 1.618.434.487 1.059.728 1.878.728" fill="#8f1821"/>
     </g>
     <g transform="matrix(.35278 0 0 -.35278 126.03 100.55)">
      <path d="m0 0v2.627h-.91c-.402 0-.707-.134-.916-.4-.177-.23-.267-.525-.267-.882 0-.521.15-.891.447-1.114.205-.154.45-.231.736-.231zm0 3.606v1.694h1.261v-6.279h-2.171c-.442 0-.773.033-.994.1-.539.169-.941.503-1.204.999-.178.337-.268.745-.268 1.225 0 .787.265 1.398.792 1.835.342.284.809.426 1.397.426z" fill="#8f1821"/>
     </g>
     <g transform="matrix(.35278 0 0 -.35278 127.66 99.594)">
      <path d="m0 0c-.749 0-1.122-.474-1.122-1.422 0-.377.06-.666.184-.865.205-.338.525-.506.961-.506.749 0 1.123.47 1.123 1.408 0 .924-.381 1.385-1.146 1.385m.038.966c.824 0 1.44-.245 1.843-.737.372-.448.557-1.006.557-1.678 0-.721-.232-1.293-.698-1.721-.428-.393-1.01-.589-1.749-.589-.769 0-1.373.22-1.807.658-.399.402-.599.976-.599 1.721 0 .65.192 1.191.575 1.618.434.487 1.059.728 1.878.728" fill="#8f1821"/>
     </g>
     <g transform="matrix(.35278 0 0 -.35278 130.19 99.075)">
      <path d="m0 0h-2.002v1.119h5.415v-1.119h-2.078v-5.16h-1.335z" fill="#8f1821"/>
     </g>
     <g transform="matrix(.35278 0 0 -.35278 131.36 99.278)">
      <path d="m0 0h1.867c.377 0 .686-.029.925-.088.401-.109.657-.344.768-.703.061-.196.092-.473.092-.832v-.445h-1.211v.248c-.005.33-.062.55-.169.657-.11.122-.327.184-.648.184h-.363v-3.607h-1.261z" fill="#8f1821"/>
     </g>
     <g transform="matrix(.35278 0 0 -.35278 133.99 100.26)">
      <path d="m0 0h-1.563c-.044.004-.079.006-.108.006-.135 0-.243-.033-.326-.102-.096-.076-.143-.186-.143-.326 0-.166.07-.279.207-.341.096-.042.253-.064.475-.064h1.458zm0 .98c.003.251-.033.434-.104.543-.11.149-.266.233-.475.253-.132.016-.259.024-.382.024h-2.135v.979h2.135c.448 0 .764-.013.947-.041.536-.083.912-.385 1.127-.91.099-.266.148-.613.148-1.051v-2.584h-2.659c-.433 0-.734.012-.902.034-.399.048-.698.222-.896.522-.155.231-.232.498-.232.801 0 .392.114.723.341.994.191.226.478.361.861.405.19.02.415.031.68.031z" fill="#8f1821"/>
     </g>
     <g transform="matrix(.35278 0 0 -.35278 135.29 99.623)">
      <path d="m0 0v-2.627h.935c.398 0 .695.122.892.368.206.26.309.584.309.972 0 .858-.402 1.287-1.201 1.287zm0 .979h1.118c.411 0 .76-.054 1.047-.163.286-.108.532-.279.738-.512.347-.393.52-.911.52-1.555 0-.93-.338-1.602-1.013-2.02-.22-.134-.465-.228-.731-.281-.188-.036-.483-.054-.888-.054h-2.052v6.279h1.261z" fill="#8f1821"/>
     </g>
     <g transform="matrix(.35278 0 0 -.35278 137.95 100.26)">
      <path d="m0 0h-1.563c-.044.004-.08.006-.108.006-.135 0-.243-.033-.326-.102-.096-.076-.143-.186-.143-.326 0-.166.07-.279.207-.341.096-.042.253-.064.474-.064h1.459zm0 .98c.003.251-.033.434-.105.543-.109.149-.265.233-.474.253-.132.016-.259.024-.382.024h-2.135v.979h2.135c.447 0 .764-.013.947-.041.537-.083.912-.385 1.127-.91.099-.266.148-.613.148-1.051v-2.584h-2.659c-.433 0-.734.012-.902.034-.399.048-.698.222-.896.522-.155.231-.232.498-.232.801 0 .392.114.723.341.994.191.226.478.361.86.405.191.02.416.031.68.031z" fill="#8f1821"/>
     </g>
     <path d="m139.25 100.9h-.44485v-2.2151h.44485z" fill="#8f1821"/>
     <g transform="matrix(.35278 0 0 -.35278 140.14 98.68)">
      <path d="m0 0v-1.693h1.297c.46-.003.814-.053 1.065-.153.534-.222.806-.748.816-1.578v-2.855h-1.261v2.607c0 .277-.015.457-.041.543-.05.185-.154.311-.313.377-.111.053-.29.079-.538.079h-1.025v-3.606h-1.262v6.279z" fill="#8f1821"/>
     </g>
     <g transform="matrix(.35278 0 0 -.35278 142.42 99.594)">
      <path d="m0 0c-.749 0-1.122-.474-1.122-1.422 0-.377.061-.666.184-.865.205-.338.525-.506.961-.506.749 0 1.123.47 1.123 1.408 0 .924-.381 1.385-1.146 1.385m.038.966c.824 0 1.44-.245 1.843-.737.372-.448.557-1.006.557-1.678 0-.721-.232-1.293-.698-1.721-.428-.393-1.01-.589-1.749-.589-.769 0-1.372.22-1.807.658-.399.402-.598.976-.598 1.721 0 .65.191 1.191.574 1.618.434.487 1.059.728 1.878.728" fill="#8f1821"/>
     </g>
     <g aria-label="Laboratório de Tecnologia">
      <path d="m96.913 104.58q-.31577 0-.46905-.0521-.15329-.0537-.27438-.18394-.1119-.1165-.15788-.26365-.04599-.14716-.04599-.41387v-1.3397h.47365v1.3244q0 .19774.01686.27898.01839.0797.06131.12876.06744.0797.16555.11343.0981.0337.27132.0337h.55796v.37402z" fill="#8f1821" stroke-width=".23545"/>
      <path d="m98.337 104.25h.54723v-.34183h-.51504q-.15328 0-.21153.0414-.05825.0414-.05825.14409 0 .0874.04599.12262.04752.0337.19161.0337zm-.58095-1.3213h.89519q.33876 0 .51044.15635.17168.15482.17168.46139v1.0362h-1.1742q-.24679 0-.38015-.12416-.13182-.12417-.13182-.35256 0-.28205.15175-.40467.15329-.12263.50738-.12263h.57482v-.0414q0-.14715-.08737-.20694-.08584-.0598-.3081-.0598h-.72964z" fill="#8f1821" stroke-width=".23545"/>
      <path d="m100.15 102.33v.59935h.37555q.24832 0 .39854.0598.15022.0583.25752.19467.0904.11343.13489.25139.0445.13642.0445.30044 0 .39854-.21307.62387-.21307.2238-.59321.2238h-.84154v-2.2533zm.26672.9565h-.26672v.94271h.30044q.24986 0 .35103-.10424.10116-.10576.10116-.35715 0-.25905-.11189-.36942-.11037-.1119-.37402-.1119z" fill="#8f1821" stroke-width=".23545"/>
      <path d="m101.98 103.75q0 .23606.11037.36788.11037.13183.3081.13183.19621 0 .30811-.13183.1119-.13182.1119-.36788t-.1119-.36635q-.11037-.13183-.30811-.13183-.1962 0-.3081.13183-.11037.13182-.11037.36635zm1.2968 0q0 .38934-.23759.62234-.23606.23146-.63767.23146t-.64073-.233q-.23913-.23299-.23913-.6208 0-.38935.23913-.62234.23912-.23453.64073-.23453.39854 0 .63613.23453.23913.23299.23913.62234z" fill="#8f1821" stroke-width=".23545"/>
      <path d="m103.55 102.93h.73424q.25752 0 .36022.0935.10423.092.10423.32343v.27592h-.41694v-.21307q0-.0966-.0353-.12876-.0337-.0337-.15635-.0337h-.15329v1.3366h-.43686z" fill="#8f1821" stroke-width=".23545"/>
      <path d="m105.64 104.25h.54722v-.34183h-.51503q-.15329 0-.21154.0414-.0582.0414-.0582.14409 0 .0874.046.12262.0475.0337.19161.0337zm-.58096-1.3213h.89519q.33876 0 .51044.15635.17168.15482.17168.46139v1.0362h-1.1742q-.24679 0-.38014-.12416-.13183-.12417-.13183-.35256 0-.28205.15175-.40467.15329-.12263.50738-.12263h.57482v-.0414q0-.14715-.0874-.20694-.0858-.0598-.30811-.0598h-.72964z" fill="#8f1821" stroke-width=".23545"/>
      <path d="m106.85 102.93h.3081v-.59935h.43686v.59935h.46139v.32956h-.46139v.66832q0 .18395.0628.25599.0628.0705.2192.0705h.17934v.32957h-.39854q-.24219 0-.37095-.13336-.12876-.13489-.12876-.38475v-.80628h-.3081z" fill="#8f1821" stroke-width=".23545"/>
      <path d="m108.67 103.75q0 .23606.11037.36788.11036.13183.3081.13183.1962 0 .3081-.13183.1119-.13182.1119-.36788t-.1119-.36635q-.11036-.13183-.3081-.13183-.19621 0-.3081.13183-.11037.13182-.11037.36635zm1.2968 0q0 .38934-.23759.62234-.23606.23146-.63767.23146-.4016 0-.64073-.233-.23912-.23299-.23912-.6208 0-.38935.23912-.62234.23913-.23453.64073-.23453.39855 0 .63614.23453.23912.23299.23912.62234zm-.81854-1.4623h.45219l-.5365.43686h-.22073z" fill="#8f1821" stroke-width=".23545"/>
      <path d="m110.23 102.93h.73424q.25752 0 .36022.0935.10424.092.10424.32343v.27592h-.41694v-.21307q0-.0966-.0353-.12876-.0337-.0337-.15635-.0337h-.15328v1.3366h-.43687z" fill="#8f1821" stroke-width=".23545"/>
      <path d="m112.17 102.74h-.45832v-.41081h.45832zm0 1.8425h-.45832v-1.654h.45832z" fill="#8f1821" stroke-width=".23545"/>
      <path d="m112.89 103.75q0 .23606.11036.36788.11037.13183.30811.13183.1962 0 .3081-.13183.1119-.13182.1119-.36788t-.1119-.36635q-.11037-.13183-.3081-.13183-.19621 0-.30811.13183-.11036.13182-.11036.36635zm1.2968 0q0 .38934-.23759.62234-.23606.23146-.63767.23146t-.64073-.233q-.23913-.23299-.23913-.6208 0-.38935.23913-.62234.23912-.23453.64073-.23453.39854 0 .63614.23453.23912.23299.23912.62234z" fill="#8f1821" stroke-width=".23545"/>
      <path d="m116.76 104.23v-.94271h-.26365q-.26518 0-.37708.1119-.11037.11037-.11037.36942 0 .25139.10117.35715.1027.10424.35103.10424zm.43533.35409h-.83847q-.38015 0-.59321-.2238-.21307-.2238-.21307-.62387 0-.16402.0444-.30044.0445-.13796.13489-.25139.1073-.13642.25752-.19467.15176-.0598.39855-.0598h.37401v-.59935h.43533z" fill="#8f1821" stroke-width=".23545"/>
      <path d="m118.32 104.58q-.41081 0-.62234-.20847-.21-.21-.21-.61774t.21153-.61774.62081-.21h.63766v.34489h-.57788q-.2376 0-.32037.0674-.0812.0674-.0874.24373h.98562v.34489h-.98562q.006.17781.0812.24372.0766.0644.32343.0644h.58095v.3449z" fill="#8f1821" stroke-width=".23545"/>
      <path d="m120.99 102.72h-.72811v-.39241h1.9498v.39241h-.73117v1.8578h-.49051z" fill="#8f1821" stroke-width=".23545"/>
      <path d="m122.74 104.58q-.41081 0-.62234-.20847-.21-.21-.21-.61774t.21153-.61774q.21154-.21.62081-.21h.63767v.34489h-.57789q-.23759 0-.32037.0674-.0812.0674-.0874.24373h.98563v.34489h-.98563q.006.17781.0812.24372.0766.0644.32343.0644h.58096v.3449z" fill="#8f1821" stroke-width=".23545"/>
      <path d="m124.56 104.23h.46445v.35409h-.59321q-.22533 0-.37095-.046-.14409-.0475-.25139-.15175-.11497-.11343-.18088-.27592-.0644-.16401-.0644-.34642 0-.19161.0644-.35716.0644-.16708.18088-.27898.10883-.10423.25445-.15021.14716-.0475.36789-.0475h.59321v.35715h-.46445q-.30811 0-.4246.1073-.1165.10577-.1165.36942 0 .15175.0475.25139.0475.0996.14715.16095.049.0291.11343.0414.0659.0123.233.0123z" fill="#8f1821" stroke-width=".23545"/>
      <path d="m125.31 102.93h.82161q.37248 0 .5319.14102.15942.13949.15942.46445v1.0485h-.43687v-.99483q0-.18547-.0582-.24065-.0567-.0552-.22993-.0552h-.35103v1.2907h-.43686z" fill="#8f1821" stroke-width=".23545"/>
      <path d="m127.54 103.75q0 .23606.11037.36788.11037.13183.3081.13183.19621 0 .30811-.13183.1119-.13182.1119-.36788t-.1119-.36635q-.11037-.13183-.30811-.13183-.1962 0-.3081.13183-.11037.13182-.11037.36635zm1.2968 0q0 .38934-.23759.62234-.23606.23146-.63767.23146t-.64073-.233q-.23913-.23299-.23913-.6208 0-.38935.23913-.62234.23912-.23453.64073-.23453.39854 0 .63613.23453.23913.23299.23913.62234z" fill="#8f1821" stroke-width=".23545"/>
      <path d="m129.56 104.58h-.45526v-2.2533h.45526z" fill="#8f1821" stroke-width=".23545"/>
      <path d="m130.28 103.75q0 .23606.11036.36788.11037.13183.30811.13183.1962 0 .3081-.13183.1119-.13182.1119-.36788t-.1119-.36635q-.11036-.13183-.3081-.13183-.19621 0-.30811.13183-.11036.13182-.11036.36635zm1.2968 0q0 .38934-.23759.62234-.23606.23146-.63767.23146t-.64073-.233q-.23913-.23299-.23913-.6208 0-.38935.23913-.62234.23912-.23453.64073-.23453.39854 0 .63614.23453.23912.23299.23912.62234z" fill="#8f1821" stroke-width=".23545"/>
      <path d="m132.73 104.24h.22686v-.95803h-.22686q-.16402 0-.22993.0123-.0659.0123-.11496.0414-.10117.0613-.14869.16248-.046.0996-.046.26058 0 .26519.11803.37402.11803.1073.42154.1073zm.66679.28205q0 .34029-.15175.49971-.15175.15941-.47365.15941h-.85687v-.33569h.78176q.12569 0 .19314-.0613.0674-.0598.0674-.17474v-.0276h-.35562q-.27591 0-.39701-.0414t-.2238-.14102q-.11803-.1119-.18241-.27898-.0628-.16708-.0628-.36176 0-.1916.0628-.35715.0644-.16708.18241-.27898.10577-.10423.24833-.14869.14255-.046.37248-.046h.79555z" fill="#8f1821" stroke-width=".23545"/>
      <path d="m134.21 102.74h-.45833v-.41081h.45833zm0 1.8425h-.45833v-1.654h.45833z" fill="#8f1821" stroke-width=".23545"/>
      <path d="m135.21 104.25h.54723v-.34183h-.51504q-.15328 0-.21153.0414-.0582.0414-.0582.14409 0 .0874.046.12262.0475.0337.1916.0337zm-.58095-1.3213h.89519q.33876 0 .51044.15635.17168.15482.17168.46139v1.0362h-1.1742q-.24679 0-.38015-.12416-.13182-.12417-.13182-.35256 0-.28205.15175-.40467.15329-.12263.50738-.12263h.57482v-.0414q0-.14715-.0874-.20694-.0858-.0598-.3081-.0598h-.72964z" fill="#8f1821" stroke-width=".23545"/>
     </g>
    </g>
   </g>
  </g>
 </g>
</svg>
