<?xml version="1.0" encoding="utf-8"?>
<!-- Generator: Adobe Illustrator 14.0.0, SVG Export Plug-In . SVG Version: 6.00 Build 43363)  -->
<!DOCTYPE svg PUBLIC "-//W3C//DTD SVG 1.1//EN" "http://www.w3.org/Graphics/SVG/1.1/DTD/svg11.dtd">
<svg version="1.1" id="Camada_1" xmlns="http://www.w3.org/2000/svg" xmlns:xlink="http://www.w3.org/1999/xlink" x="0px" y="0px"
	 width="215px" height="49px" viewBox="0 0 215 49" enable-background="new 0 0 215 49" xml:space="preserve">
<path fill="#FFFFFF" d="M90.5,5c1.8,3,1.4,7.5-0.7,10.2c-2.4,3.2-6.4,4.6-10.3,3.5c-3.6-0.9-6.5-4.3-6.8-8c-0.4-3.9,1.4-7.4,4.7-9.4
	c2.5-1.6,6.5-1.7,9.1-0.3C88,1.8,89.6,3.4,90.5,5 M82.3,0.4v1.3c0-0.1,0.1-0.1,0.1-0.1c0.1,0,0.1,0.2,0.1,0.3c0.6,0,1.3,0.1,1.8,0.3
	C84.9,2.3,85.4,3,86,2.6c0.2,0.2,0.5,0,0.6,0.3c0.2,0,0.4,0.3,0.5,0.4c0,0.2,0.2,0.3,0.2,0.5c0.2-0.4,0.5-0.7,0.9-0.9
	c-1.3-1.2-2.8-2-4.5-2.3C83.3,0.5,82.8,0.6,82.3,0.4 M75.9,3l1,1c1.3-1.3,3-2,4.9-2.1c-0.1-0.4,0-0.9,0-1.4
	C79.5,0.6,77.5,1.5,75.9,3 M89,0.8l0.7,0.7c0.7,1.1,1.7,2.1,2.6,2.8c-0.2-0.4-0.2-0.9-0.5-1.4C91.4,1.7,90.1,1.1,89,0.8 M75.1,0.9
	c-0.8,0.3-1.8,0.6-2.4,1.4C72.2,3,72,3.7,71.8,4.4l0.7-0.6C73.7,3,74,1.7,75.1,0.9 M83.4,1.2l-0.6,0.3c-0.1,0-0.3-0.1-0.3,0.1
	c0.1,0.1,0.3,0.2,0.4,0.2c0.4-0.2,0.9,0.1,1.2-0.3C84,1.3,83.7,1.2,83.4,1.2 M91.6,2c0.9,0.6,0.9,1.8,1.2,2.7
	c0.1,0.4,0.3,0.7,0.4,1.1c-0.5-1.5-2.2-1.6-2.8-3l0.2,0.8c0.5,1.6,2.3,2,3.1,3.4c-0.2-1,0.2-2.1-0.1-3.1C93.2,3,92.4,2.3,91.6,2
	 M71,3.4c-0.7,1.1-0.1,2.5-0.3,3.8c0.3-0.5,0.8-1,1.2-1.4c1-0.6,1.9-1.7,1.9-2.8c-0.5,1.4-2.3,1.5-2.7,3c0.6-1.2,0.3-2.9,1.5-3.8
	C71.8,2.4,71.3,2.9,71,3.4 M82.3,2.4c0.1,0.4,0,1,0,1.4c1.1,0,2.2,0.4,3.1,1c-0.1,0-0.2-0.2-0.2-0.3c0-0.2-0.2-0.2-0.1-0.4
	c0.2,0,0.4,0.3,0.5,0.5c0.6,0,0.3,0.7,0.7,0.9c0.1,0.1,0,0.3,0.1,0.3c0.1,0.1,0.3,0.2,0.3,0.4c0.1,0.3,0.3-0.1,0.5,0.1
	c0.1,0.1-0.1,0.2-0.1,0.3c0.1,0,0.2-0.1,0.2,0s-0.1,0.2-0.1,0.2c0,0.2,0.2,0.1,0.3,0.2c0.1,0.2,0.2,0.5,0,0.8c0.2,0.2,0,0.5-0.1,0.7
	c-0.2,0.2-0.2,0.5-0.5,0.4c-0.1,0.1,0,0.3,0,0.4h0.5c-0.3-0.4,0.1-0.8,0.2-1.2c0.1,0,0.1-0.2,0.2,0c0,0.2,0,0.4-0.1,0.5
	c0.1,0.2,0.1,0.5,0.1,0.7h1.4c-0.1-0.9-0.3-1.8-0.7-2.6c-0.1,0-0.2,0.1-0.3,0c-0.2-0.2-0.3-0.5-0.5-0.6c-0.2,0-0.3-0.1-0.4-0.2
	c-0.3,0-0.2-0.4-0.5-0.4c-0.2-0.1-0.3-0.2-0.3-0.3c0-0.2,0-0.5-0.2-0.6c-0.1-0.1-0.2,0-0.3,0.1c-0.2,0.1-0.2-0.1-0.2-0.2
	c-0.2-0.1,0-0.3-0.1-0.5c-0.3-0.2-0.1-0.6-0.5-0.8c-0.6-0.3-1.2-0.5-1.9-0.6C83,2.5,82.6,2.5,82.3,2.4 M86.4,2.4c-0.1,0,0,0.1,0,0.2
	c0.2,0,0.2,0.4,0.5,0.3l-0.1-0.3C86.7,2.3,86.5,2.4,86.4,2.4 M77.2,4.3c0.4,0.2,0.7,0.6,1,1c0.9-0.9,2.2-1.5,3.6-1.5V2.4
	C80.1,2.6,78.5,3.2,77.2,4.3 M88.6,3.3l-0.9,1h-0.2c0.1,0,0.1,0.1,0.2,0.2c0.4,0.3,0.6,0.7,0.9,1C88.7,5.7,89,5.9,89,6.3
	c0.5,0.9,0.7,2,0.7,3c0.5-0.1,1-0.1,1.4-0.1C91,6.9,90.1,4.9,88.6,3.3 M75.6,3.4V3.3c-1.5,1.7-2.4,3.7-2.5,6h1.4
	c-0.1-0.5,0.1-0.9,0.1-1.4c0.3-1.3,0.9-2.6,1.9-3.6L75.6,3.4z M93.6,3.7c0.7,1,0.3,2.3,0.2,3.4c0,0.5,0.1,1.1,0.1,1.6
	c-0.1-0.2-0.1-0.4-0.2-0.7c-0.3-1.2-1.7-1.8-2.3-2.8c0.1,0.3,0.2,0.7,0.3,1c0.5,1.4,2,2.4,2.2,4c0.1-1.5,1.2-2.7,0.8-4.3
	C94.5,5.2,94.2,4.4,93.6,3.7 M70.4,3.9c-0.5,0.6-0.9,1.3-1,2.1c-0.3,1.7,0.6,3,0.9,4.5c0.3-1.9,2.3-3.1,2.4-5
	c-0.6,1.1-2,1.7-2.2,2.9c0,0.2-0.1,0.4-0.1,0.6l0.1-0.8C70.5,6.7,69.7,5.2,70.4,3.9 M81.8,4.3c-1.3,0.1-2.3,0.6-3.2,1.4
	c0.4,0.2,0.7,0.6,1,0.9C80.2,6,81,5.7,81.8,5.7C81.7,5.2,81.7,4.7,81.8,4.3 M82.3,4.3c0.1,0.4,0.1,0.9,0,1.3c0.9,0.1,1.7,0.4,2.3,1
	c0.3-0.3,0.7-0.7,1-0.9C84.7,4.8,83.6,4.4,82.3,4.3 M76.9,4.6C75.7,6,75.1,7.5,75,9.3h1.4V9.2c0.1-1.4,0.6-2.6,1.5-3.6
	C77.5,5.3,77.1,5,76.9,4.6 M85.9,5.9c-0.4,0.5-0.9,1-1.3,1.4c0,0.1,0.1,0.1,0.1,0.1c0.1-0.1,0-0.5,0.3-0.4s0.5,0.1,0.9,0.1
	c0.2,0.1,0.2,0.3,0.4,0.4c0.1,0.1,0,0.2-0.1,0.2l0.1,0.1c0.1-0.1,0.2-0.2,0.4-0.1C86.8,7.8,86.9,8,87,8c0.1,0.1,0,0.2-0.1,0.2
	c0,0.2-0.2,0.2-0.1,0.4c0.1,0,0.2,0,0.2-0.1c0.3-0.2,0.1-0.6,0-0.9c-0.1-0.3-0.4-0.3-0.6-0.5c0-0.1,0.1-0.2,0.1-0.2
	C86.5,6.5,86.1,6.3,85.9,5.9 M78.2,6c-0.3,0.4-0.6,0.8-0.8,1.2c-0.3,0.6-0.4,1.4-0.6,2.1h0.6c-0.1-0.1-0.1-0.3-0.1-0.4
	c0.1-0.3,0.2-0.8,0.6-0.8c0.2,0,0-0.2,0.2-0.3c0.3,0,0.4-0.3,0.6-0.5C79,7.3,79,7,79.3,7C78.9,6.7,78.6,6.3,78.2,6 M82.3,6.2v1
	l0.4,0.1C82.8,7.1,83,7,83.2,6.9C83.3,6.8,83.3,7,83.4,7c0.1,0.4-0.4,0.6-0.7,0.8h0.1c0.3-0.3,0.4,0.4,0.7,0.1
	c0.1-0.4,0.6-0.3,0.7-0.7c-0.1,0.1-0.1,0-0.2,0c0-0.1,0.2-0.2,0.3-0.3C83.6,6.5,83,6.3,82.3,6.2 M81.8,6.2c-0.7,0.1-1.4,0.4-2,1
	c0.2,0,0.4,0.1,0.5,0.2c0,0.1-0.1,0.1-0.1,0.2c0.1,0.2,0.1,0,0.2-0.1c0.1,0.1,0.2,0.2,0.4,0.1c0.1,0.1,0.2,0,0.3,0
	c0-0.1,0.2-0.2,0.1-0.3C81.3,7.2,81.3,7,81.4,7c-0.1,0.4,0.3,0,0.4,0.2C81.7,6.9,81.8,6.5,81.8,6.2 M95.1,7.2c0.2,1.4-0.6,2.5-1,3.8
	c-0.2,0.5-0.1,1.1-0.4,1.5c0-0.2,0.1-0.5,0.1-0.7c0.2-1.6-1.2-2.6-1.5-3.9c0,0.4,0,0.7,0.1,1c0.1,1.7,1.2,3.1,0.9,4.8
	c0.3-0.4,0.6-0.8,0.9-1.3C95.5,11.1,95.8,8.9,95.1,7.2 M69.1,7.4c-0.5,1-0.4,2.5-0.1,3.6s1.4,1.9,2,2.9c-0.1-0.4-0.1-0.9,0-1.4
	c0.4-1.5,1-2.9,0.9-4.6c-0.2,1.2-1.3,2-1.4,3.2c-0.1,0.5,0,1,0.1,1.4c-0.1-0.2-0.2-0.5-0.2-0.8C70.1,10.3,68.8,9.1,69.1,7.4
	 M81.7,7.9c0.1,0.2,0.1,0.4,0,0.4c-0.2,0.2-0.5,0.2-0.6,0.5c-0.4,0.1-0.3,0.6-0.4,1c-0.3,0.1-0.2-0.3-0.3-0.4l-0.1,0.1
	c-0.4-0.3-0.3,0.4-0.6,0.4c0.3,0.1,0.5-0.1,0.8-0.1l0.1,0.1c0.1-0.1,0.1-0.1,0.1-0.2c0-0.1,0.1-0.1,0.2-0.1c0,0.1,0,0.2,0.1,0.2V10
	c-0.1,0.1,0,0.3-0.2,0.3c0,0-0.1,0-0.1-0.1l0.1,0.2c0.1,0,0.1-0.2,0.3-0.3c0.1,0,0.2-0.2,0.1-0.3c0.2-0.2,0.4-0.1,0.6-0.1
	c0,0.1,0.2,0.1,0.2,0.2c0.1,0.2-0.1,0.3-0.2,0.5c0,0.1-0.1,0.2-0.1,0.3c-0.2,0.2-0.4,0.1-0.6,0.2c0.3,0.2,0.6,0.3,1,0.3
	s0.2-0.4,0.4-0.6H83c0.1-0.1,0.1-0.3,0.1-0.4C83,10,83,9.8,83,9.7c-0.1-0.1-0.1-0.3-0.3-0.3c0-0.1,0.1-0.1,0.1-0.2
	c0.3-0.1-0.1-0.3,0-0.4c-0.3-0.1-0.4-0.5-0.7-0.4C82,8.3,81.8,8.2,81.7,7.9c0.1-0.1,0.4,0,0.4,0s-0.1,0,0-0.1
	C81.9,7.9,81.8,7.9,81.7,7.9 M77.9,9.1c-0.3,0.1,0,0.4,0,0.6c0,0.2-0.2,0-0.3,0.1c0,0.3-0.2,0.3-0.4,0.4c-0.1,0.2,0.1,0.3,0,0.5
	c0.2,0.2,0.4,0.5,0.4,0.9c0.2,0.2,0.1,0.6,0.2,0.9c0.1,0.1,0.2,0.4,0.2,0.6c0,0.1-0.1,0.2-0.2,0.2c-0.1,0.1,0.1,0.1,0.1,0.1l1.2-1.2
	c-0.4-0.5-0.7-1.1-0.9-1.8L78,10.3c0,0.2,0,0.4-0.2,0.5c-0.1-0.1-0.2-0.1-0.2-0.3c0-0.1,0.1,0,0.2,0v-0.2c0-0.1-0.1-0.2,0-0.3
	c0.1,0,0.2,0.1,0.2,0.2l0.2-0.1c-0.1-0.2,0.1-0.5,0-0.7C78.3,9.1,78.1,9.1,77.9,9.1 M86.7,9.3h0.1H86.7z M86.5,9.7l0.2,0.3
	c0,0.3,0.4,0.4,0.4,0.7c0.1-0.3,0.1-0.6,0.2-0.9C87.1,9.8,86.8,9.9,86.5,9.7 M89.7,9.7c0,2-0.8,3.7-2,4.9l1,1c1.2-1.4,2-2.9,2.3-4.6
	c0.1-0.4,0.1-0.9,0.2-1.3C90.8,9.8,90.2,9.8,89.7,9.7z M87.9,9.7c0.1,0.2-0.1,0.3,0,0.5c-0.2,0.3,0.2,0.4,0.1,0.7
	c-0.1,0.1-0.2,0.1-0.3,0c-0.2,0.9-0.7,1.7-1.3,2.4h-0.1c0.2,0.1,0.3,0.3,0.5,0.4v-0.1l0.1-0.1c0.3,0.1,0.4,0.6,0.4,0.8
	c0.9-0.9,1.5-2.1,1.7-3.3c0.1-0.4,0-0.9,0.2-1.3C88.8,9.8,88.3,9.8,87.9,9.7 M76.8,9.8c0.1,0.3,0.2,0.7,0.1,1c0-0.2,0.3-0.3,0.1-0.5
	c0.1-0.2,0-0.5,0.2-0.5H76.8 M73.1,9.8c0.1,2.3,0.9,4.2,2.4,5.9l1-1c-0.2-0.1-0.3-0.3-0.5-0.5c-0.2,0-0.4-0.3-0.4-0.4v0.1
	c-0.2,0.1-0.3-0.1-0.4-0.2c-0.1-0.1,0-0.3-0.2-0.2c-0.1-0.2-0.4-0.2-0.4-0.4l-0.1,0.1c-0.2,0-0.3-0.2-0.4-0.3
	c-0.3,0.1-0.2-0.4-0.4-0.5c-0.1-0.3,0-0.6,0.2-0.8c0.1-0.1,0.3,0,0.3,0c0.2,0.1,0.1-0.1,0.2-0.2c0.2-0.2,0.4,0.1,0.5,0.2
	c-0.2-0.6-0.3-1.2-0.3-1.8C74.1,9.9,73.5,9.8,73.1,9.8 M75,9.8c0.1,0.7,0.3,1.3,0.3,1.9c0.1-0.1,0-0.2,0.1-0.2
	c0-0.3,0.1-0.6,0.3-0.9c0.3,0,0.3-0.4,0.6-0.4c0.1,0.1,0.2,0.1,0.2,0.2c-0.2-0.2-0.2-0.5-0.1-0.7C75.9,9.9,75.4,9.9,75,9.8
	 M78.8,10.4l0.1,0.1c0.1,0.4,0.4,0.8,0.6,1.2l0.4-0.4v-0.2c-0.1-0.1,0-0.3-0.1-0.4c0,0.1,0.1,0.2,0,0.2c-0.1-0.1-0.3-0.1-0.3-0.3
	c0-0.2-0.1-0.1-0.2-0.1C79.2,10.4,78.9,10.5,78.8,10.4 M80.3,10.7c0,0.1-0.1,0.2-0.2,0.3c0.1-0.1,0.2-0.2,0.3-0.2L80.3,10.7z
	 M92.6,10.9c-0.8,1.8-0.2,4.2-1.3,6l0.2-0.1c2-1.1,4.4-2.9,4-5.6c0,0.4-0.1,0.7-0.3,1c-0.8,1.2-2.1,2.2-2.8,3.5c0,0-0.1,0.1-0.1,0
	l0.1-0.2C93.3,14.1,92.5,12.4,92.6,10.9 M84.1,11c-0.2,0.3,0.2,0.3,0.2,0.5h0.1c0-0.1,0-0.2-0.1-0.3C84.2,11.2,84.2,11,84.1,11
	 M71.7,11.1c0.1,0.6-0.1,1.1-0.2,1.6c-0.3,1-0.1,2.2,0.4,3.1c-0.2-0.1-0.3-0.3-0.4-0.5c-0.7-1.4-2.6-2.2-2.7-3.9
	c0,0.6,0,1.3,0.2,1.8c0.5,1.9,2.6,2.9,4,3.8C71.9,15.2,72.5,12.9,71.7,11.1 M86.5,11.2c-0.3-0.2-0.2,0.2-0.4,0.2
	c-0.1,0-0.1-0.1-0.1-0.2c0,0.2-0.2,0.4-0.3,0.5c-0.4-0.1-0.3,0.5-0.7,0.3c0.1,0.2,0.2,0,0.3,0s0.1-0.1,0.1-0.2
	c0-0.2,0.2-0.2,0.4-0.2c0.1,0.1,0.1,0.3,0.1,0.5c-0.1,0.1-0.1,0.2-0.1,0.3c-0.1,0.2-0.1,0.6-0.4,0.6c-0.4-0.1-0.8-0.3-1.2-0.3v0.1
	c0.3,0.1,0.6,0.1,0.8,0.3c0.2,0,0.6,0,0.7-0.1c0-0.2,0.1-0.3,0.2-0.5c0.2,0,0.1,0.2,0.2,0.3c0.5-0.6,0.9-1.2,1-1.9
	C86.9,11.1,86.7,11.2,86.5,11.2 M80.8,11.1l-0.9,1c0.5,0.4,1.1,0.7,1.7,0.8c0-0.2,0-0.3,0.1-0.5c0.1-0.1,0.2,0,0.3-0.1
	c0-0.1-0.1-0.1-0.1-0.2c-0.1-0.1,0-0.2,0-0.3c0-0.1-0.1-0.2,0-0.3c-0.3,0.1-0.5-0.1-0.8-0.1C81,11.4,80.8,11.3,80.8,11.1 M83.5,12.1
	c0.1-0.1,0.3-0.1,0.4-0.3C83.7,11.8,83.5,11.9,83.5,12.1 M84,12.3c-0.1,0.1-0.2,0.1-0.2,0.2c-0.1,0.2-0.3,0-0.4-0.1
	c0,0,0.1,0.2,0,0.2c-0.1,0.1-0.2-0.1-0.3-0.1c-0.1,0.4-0.2-0.1-0.4,0c-0.1-0.2-0.2,0-0.4,0c-0.1,0.1-0.1,0.3-0.3,0.3
	c0,0.1-0.2,0.1-0.2,0.2c0.1,0.1,0.2,0.1,0.3,0c0.2-0.1,0.4-0.1,0.6-0.1c0,0.3,0.4,0.1,0.5,0.3c0.1,0,0.1-0.1,0.2-0.2
	c0.3,0,0.6-0.2,0.7-0.4C84.1,12.5,84.1,12.4,84,12.3 M79.5,12.5c-0.3,0.3-0.6,0.7-1,1h0.1c0.8,0.7,1.8,1.1,2.7,1.3
	c-0.3,0-0.5-0.4-0.6-0.6c-0.1-0.2,0.2-0.2,0.2-0.5c0.1-0.2,0.3-0.3,0.5-0.3c-0.1,0-0.2,0-0.3,0.1C80.5,13.2,79.9,12.9,79.5,12.5
	 M91.7,13.6l-0.7,1c-1,1.4-0.9,3.3-2.3,4.5c0.7-0.2,1.5-0.3,2.3-0.5c1.7-0.4,3.4-2.1,3.7-3.8c-0.3,0.7-0.9,1.3-1.6,1.7
	c-1.1,0.5-2.2,1.1-3.2,1.9h-0.1l0.1-0.1C91.5,17.2,91,15.1,91.7,13.6 M86,13.7c-0.7,0.5,0.3,0.5,0.3,0.9c-0.1,0.2-0.5,0.4-0.2,0.6
	c0.1,0.1,0,0.1-0.1,0.2l0.9-0.8c-0.1,0.1-0.3,0-0.3-0.1C86.7,14.2,86.2,14,86,13.7 M72.5,13.7l0.3,0.7c0.3,1.5,0.4,3.1,1.7,4
	c-0.4-0.2-0.8-0.6-1.2-0.8c-1.3-0.8-3-1.2-3.7-2.7c0.2,1.1,1,2.2,1.9,2.9c1.1,1,2.7,0.9,4.1,1.3c-0.5-0.4-0.8-0.8-1-1.4
	C74.1,16.3,73.6,14.9,72.5,13.7 M78.5,14l0.1,0.1L78.5,14z M78.6,14.2c0,0.2,0.2,0.2,0.1,0.3c-0.3,0.2-0.7,0.1-1,0.3
	c-0.3,0.1-0.5-0.2-0.6-0.1c1.3,1.1,2.8,1.9,4.6,1.9l0.1,0.1c-0.1-0.4,0-0.9,0-1.4C80.6,15.4,79.5,14.9,78.6,14.2 M87.3,15
	c-0.2,0.3-0.5,0.5-0.7,0.7c-0.9,0.3-1,1.4-1.9,1.7c-0.4,0.1-0.6-0.3-0.9-0.4c-0.5,0.1-1,0.2-1.5,0.1v1.5h0.1c2.3-0.1,4.4-1,6-2.5
	L87.3,15 M76.9,15.1l-1,1c1.7,1.5,3.7,2.3,6,2.5l-0.1-0.1v-1.3C79.9,17.1,78.2,16.4,76.9,15.1 M82.3,15.4l0.1,0.2v1.1
	c0.3-0.1,0.8-0.1,1.1-0.2c-0.2-0.2-0.4-0.2-0.5-0.4c-0.1-0.2,0.1-0.4,0-0.5C82.7,15.5,82.4,15.6,82.3,15.4 M89.8,16.5
	c-1,0.7-1.9,1.8-2.8,2.5c-0.5,0.4-1.1,0.5-1.7,0.7c1.3,0.1,2.4,0.7,3.8,0.6c1.5-0.1,2.9-0.9,3.6-2.3c-1,1.2-2.7,1.2-4.2,1.3
	c-0.5,0.1-1,0.2-1.5,0.2c0,0,0-0.1,0.1,0C88.7,19.4,89.1,17.6,89.8,16.5 M74.4,16.6c0.7,0.8,0.7,1.9,1.7,2.5
	c0.4,0.3,0.9,0.4,1.3,0.5c-0.5,0-0.9-0.1-1.3-0.2c-1.5-0.2-3.3,0-4.4-1.2c0.5,0.9,1.4,1.7,2.3,2c1.8,0.7,3.4-0.3,5.1-0.5
	C77.1,19.6,76,17.5,74.4,16.6 M87.2,20.7c-1.5-0.7-3.3-1.5-5-0.8c-0.9-0.3-2.1-0.3-3,0c-1.6,0.7-3.7,1.8-5.3,0.6
	c0.3,0.4,0.6,0.5,1,0.8c1.1,0.7,2.6,0.6,3.7,0.1c1-0.4,1.8-1.7,3.1-1.3c-1.1,0.5-2.1,1.2-3,2.1l0.6,0.5c0.8-1.1,1.9-1.9,3-2.4
	c1.1,0.5,2.1,1.5,3,2.4l0.6-0.5c-0.9-0.9-1.9-1.6-3-2.1c0.3-0.1,0.6-0.1,0.9,0c1.2,0.5,2,1.5,3.3,1.7c1.4,0.2,2.6-0.3,3.5-1.4
	l-0.7,0.3C89,21.1,88,21,87.2,20.7 M196.6,6.9c2.9-0.1,5.7-0.5,8.2-1.1V0.1h-8.2V6.9z M213.2,6.6c-1.5,0.7-3.101,1.4-4.8,1.9v6.4
	c2.699-2,5-4.6,6.6-7.5V5.5C214.4,5.9,213.8,6.2,213.2,6.6 M204.8,17V9.4c-2.6,0.6-5.3,0.9-8.2,1v8.8C199.5,19,202.3,18.2,204.8,17
	 M208.4,0v4.7c2.699-1,5-2.2,6.6-3.6V0H208.4z"/>
<path fill="#FFFFFF" d="M192.3,0h-8.6v5.7c2.6,0.7,5.5,1.1,8.6,1.2V0z M180.2,4.6V0H174v1.1c0.9,0.8,2.1,1.5,3.4,2.2
	C178.2,3.8,179.2,4.2,180.2,4.6 M192.3,10.5c-3-0.1-5.899-0.5-8.6-1.1v7.5c2.6,1.3,5.5,2.2,8.6,2.5V10.5z M180.2,14.6V8.4
	c-2.3-0.8-4.4-1.7-6.2-2.9v1.8C175.5,10.2,177.6,12.6,180.2,14.6 M183.7,41.7v-4h8.6v-4h-8.6v-4h8.6v-6.8
	c-7.3-0.6-13.8-4.1-18.399-9.3v35.1H192.3v-7H183.7z"/>
<path fill="#FFFFFF" d="M196.6,22.9v6.8h8.301v4H196.6v4h8.301v4H196.6v7H215V13.5C210.5,18.8,203.9,22.3,196.6,22.9 M17.3,48.6
	V34.2l-6.2,9.5h-0.2l-6.1-9.4v14.3H0V26.5h5.2l5.9,9.4l5.8-9.4h5.2v22.1 M34.8,49c-5.9,0-9.6-3.301-9.6-9.8V26.5h4.9V39
	c0,3.6,1.8,5.5,4.8,5.5s4.8-1.801,4.8-5.3V26.5h4.9V39C44.5,45.7,40.7,49,34.8,49 M47.5,48.6V26.5h4.9v17.7h11.1v4.4 M79.7,48.6
	v-8.801h-9V48.6h-4.8V26.5h4.8v8.8h9v-8.8h4.9v22.1 M88.6,48.6V26.5h16.7v4.3H93.5v4.5h10.4v4.4H93.5v4.6h12V48.6 M122,48.6
	l-4.7-7.1h-3.8v7.1h-4.9V26.5H118.7c5.2,0,8.3,2.8,8.3,7.3v0.1c0,3.6-1.9,5.8-4.7,6.899l5.4,7.9H122V48.6z M122.1,34.1
	c0-2.1-1.5-3.2-3.8-3.2h-4.8v6.4h4.9C120.7,37.3,122.1,36,122.1,34.1z M130.1,48.6V26.5h16.7v4.3H135v4.5h10.4v4.4H135v4.6h12V48.6
	 M158.5,49c-3.4,0-6.7-1.201-9.4-3.5L152,42c2,1.6,4.1,2.699,6.6,2.699c2,0,3.2-0.8,3.2-2.1v-0.1c0-1.201-0.8-1.9-4.5-2.801
	c-4.5-1.1-7.3-2.4-7.3-6.8v-0.1c0-4,3.2-6.7,7.7-6.7c3.2,0,6,1,8.2,2.8l-2.5,3.7c-2-1.4-3.9-2.2-5.801-2.2c-1.899,0-2.8,0.9-2.8,1.9
	v0.1c0,1.5,1,1.9,4.8,2.9c4.5,1.2,7,2.8,7,6.6V42C166.7,46.5,163.3,49,158.5,49 M110.3,23.2c-6.8,0-11.7-5.1-11.7-11.4v-0.1
	c0-6.3,5-11.4,11.8-11.4c6.8,0,11.699,5.1,11.699,11.4v0.1C122.1,18,117.2,23.2,110.3,23.2 M117,11.7c0-3.8-2.8-7-6.7-7
	c-3.9,0-6.6,3.1-6.6,6.9v0.1c0,3.8,2.8,7,6.7,7C114.3,18.7,117,15.6,117,11.7z M139.5,22.8L128.7,8.7v14.1h-4.8V0.6h4.5L138.8,14.3
	V0.6h4.8v22.2 M156.2,23.1c-5.9,0-9.601-3.3-9.601-9.8V0.6h4.9v12.5c0,3.6,1.8,5.5,4.8,5.5s4.8-1.8,4.8-5.3V0.6h4.9v12.5
	C165.9,19.8,162.2,23.1,156.2,23.1"/>
</svg>
