<svg id="Camada_1" data-name="Camada 1" xmlns="http://www.w3.org/2000/svg" width="99.98" height="50" viewBox="0 0 99.98 50"><defs><style>.cls-1{fill:#fff;}</style></defs><title>pacto</title><path class="cls-1" d="M38.29,21.94H41.1a2.16,2.16,0,1,1,.07,4.32H39.58v2.58H38.29ZM41,25.17c.74,0,1.23-.35,1.23-1.07S41.64,23,40.93,23H39.58v2.14Z"/><path class="cls-1" d="M44,27.44a1.65,1.65,0,0,1,1.83-1.53h1.32v-.46c0-.52-.35-.74-.95-.74s-.89.17-.89.49v.18H44.26v-.14c0-1.08,1-1.45,2-1.45,1.1,0,2.12.37,2.12,1.58v2.41a5.37,5.37,0,0,0,.09,1.06H47.26c0-.08,0-.38,0-.45h0a1.73,1.73,0,0,1-1.45.55C44.71,28.94,44,28.38,44,27.44ZM47.16,27v-.24H46c-.51,0-.83.17-.83.61s.33.63.89.63C47,28,47.16,27.54,47.16,27Z"/><path class="cls-1" d="M49.34,26.94V26a2.11,2.11,0,0,1,2.27-2.17,2,2,0,0,1,2.17,1.94v.1H52.63v-.1a.94.94,0,0,0-1-.94,1,1,0,0,0-1,1V27a1,1,0,0,0,1.08,1,.91.91,0,0,0,1-.95V27h1.15V27A2,2,0,0,1,51.65,29,2.09,2.09,0,0,1,49.34,26.94Z"/><path class="cls-1" d="M54.82,27.67V24.83h-.66v-.94h.66v-1.5H56v1.5h1.08v.94H56v2.56c0,.37.2.47.47.47a4.08,4.08,0,0,0,.61,0v1a4.29,4.29,0,0,1-.87.1C55.44,28.92,54.82,28.55,54.82,27.67Z"/><path class="cls-1" d="M57.64,27V25.88a2.26,2.26,0,0,1,4.51,0v1A2.12,2.12,0,0,1,59.91,29,2,2,0,0,1,57.64,27ZM61,27V25.75a1,1,0,0,0-1.07-.94.94.94,0,0,0-1,1V27a1,1,0,0,0,1.07,1A1,1,0,0,0,61,27Z"/><path class="cls-1" d="M65.5,26.58V24.37a2.52,2.52,0,0,1,2.76-2.54c1.31,0,2.63.64,2.63,2.18v.22H69.67v-.1c0-.9-.78-1.16-1.41-1.16a1.34,1.34,0,0,0-1.48,1.33v2.21a1.38,1.38,0,0,0,1.53,1.31,1.2,1.2,0,0,0,1.36-1.25V26.4H67.89V25.24h3v1.44A2.33,2.33,0,0,1,68.31,29C66.81,29,65.5,28.12,65.5,26.58Z"/><path class="cls-1" d="M72.05,27.52V21.94h1.18v5.57c0,.22.11.4.43.4a4.9,4.9,0,0,0,.54,0v.9a4,4,0,0,1-1,.14C72.08,28.91,72.05,28,72.05,27.52Z"/><path class="cls-1" d="M74.8,27V25.88a2.26,2.26,0,0,1,4.51,0v1A2.12,2.12,0,0,1,77.07,29,2,2,0,0,1,74.8,27Zm3.31,0V25.75A1,1,0,0,0,77,24.81a.94.94,0,0,0-1,1V27a1,1,0,0,0,1.07,1A1,1,0,0,0,78.11,27Z"/><path class="cls-1" d="M81.52,28.35h0v.49H80.35v-6.9h1.19v2.52h0a1.68,1.68,0,0,1,1.37-.67,1.84,1.84,0,0,1,2,1.95v1.2a1.94,1.94,0,0,1-2.09,2A1.58,1.58,0,0,1,81.52,28.35ZM83.66,27V25.75a1,1,0,0,0-1.07-.94,1,1,0,0,0-1,1.05V27a1,1,0,0,0,1.09,1A.94.94,0,0,0,83.66,27Z"/><path class="cls-1" d="M85.59,27.44a1.65,1.65,0,0,1,1.83-1.53h1.32v-.46c0-.52-.35-.74-.95-.74s-.89.17-.89.49v.18H85.83v-.14c0-1.08,1-1.45,2-1.45,1.1,0,2.12.37,2.12,1.58v2.41A5.45,5.45,0,0,0,90,28.84H88.83c0-.08,0-.38,0-.45h0a1.71,1.71,0,0,1-1.45.55A1.52,1.52,0,0,1,85.59,27.44ZM88.74,27v-.24H87.57c-.5,0-.83.17-.83.61s.34.63.89.63C88.58,28,88.74,27.54,88.74,27Z"/><path class="cls-1" d="M91.15,27.52V21.94h1.18v5.57c0,.22.1.4.42.4a4.9,4.9,0,0,0,.54,0v.9a3.94,3.94,0,0,1-.94.14C91.17,28.91,91.15,28,91.15,27.52Z"/><path class="cls-1" d="M38.38,33.21h2.35a2,2,0,0,1,2.23,2,1.91,1.91,0,0,1-1.79,2l2.1,2.9h-.7l-2-2.85H39v2.85h-.61Zm2.17,3.55c1.15,0,1.8-.49,1.8-1.54s-.7-1.49-1.81-1.49H39v3Z"/><path class="cls-1" d="M43.86,38.3v-1a1.91,1.91,0,0,1,2-2.06,1.74,1.74,0,0,1,1.86,1.9v.7H44.45v.57a1.32,1.32,0,0,0,1.47,1.4,1.61,1.61,0,0,0,1.29-.62l.42.27a2,2,0,0,1-1.75.83A1.81,1.81,0,0,1,43.86,38.3Zm3.31-.91v-.33a1.27,1.27,0,0,0-1.35-1.39,1.36,1.36,0,0,0-1.37,1.46v.26Z"/><path class="cls-1" d="M48.5,38.6V37a1.69,1.69,0,0,1,1.79-1.83,1.53,1.53,0,0,1,1.47,1h0V33.23h.58v6.89h-.56v-.95h0a1.73,1.73,0,0,1-1.56,1.07A1.57,1.57,0,0,1,48.5,38.6Zm3.28-.47v-1a1.42,1.42,0,0,0-1.42-1.51,1.21,1.21,0,0,0-1.28,1.26v1.63a1.18,1.18,0,0,0,1.29,1.19A1.52,1.52,0,0,0,51.78,38.13Z"/><path class="cls-1" d="M53.38,38.3v-1a1.91,1.91,0,0,1,2-2.06,1.74,1.74,0,0,1,1.86,1.9v.7H54v.57a1.32,1.32,0,0,0,1.47,1.4,1.61,1.61,0,0,0,1.29-.62l.43.27a2,2,0,0,1-1.76.83A1.81,1.81,0,0,1,53.38,38.3Zm3.31-.91v-.33a1.26,1.26,0,0,0-1.34-1.39A1.36,1.36,0,0,0,54,37.13v.26Z"/><path class="cls-1" d="M60.44,33.21H63c1.16,0,1.93.58,1.93,1.69a1.64,1.64,0,0,1-1.28,1.62h0a1.64,1.64,0,0,1,1.48,1.68A1.9,1.9,0,0,1,63,40.12H60.44Zm2.31,3.1c.81,0,1.56-.4,1.56-1.31s-.65-1.27-1.47-1.27H61.05v2.58Zm.14,3.28c.9,0,1.6-.43,1.6-1.4s-.72-1.36-1.62-1.36H61.05v2.76Z"/><path class="cls-1" d="M66.11,35.3h.55v1h0a1.87,1.87,0,0,1,1.79-1.09,1.79,1.79,0,0,1,.34,0v.53a2.53,2.53,0,0,0-.45,0,1.59,1.59,0,0,0-1.68,1.68v2.68h-.57Z"/><path class="cls-1" d="M69.22,38.85c0-1.08,1-1.44,1.79-1.44h1.42v-.75c0-.75-.51-1-1.23-1s-1.24.21-1.24.84v.15h-.52V36.5c0-1,.89-1.32,1.79-1.32S73,35.52,73,36.57v2.34c0,.28,0,1,.07,1.21h-.56c0-.17,0-.62,0-.77h0a1.66,1.66,0,0,1-1.64.87A1.41,1.41,0,0,1,69.22,38.85Zm3.21-.48v-.54h-1.3c-.66,0-1.33.17-1.33,1,0,.65.56,1,1.17,1A1.32,1.32,0,0,0,72.43,38.37Z"/><path class="cls-1" d="M73.82,39.53l.39-.33a2.05,2.05,0,0,0,1.5.58c.62,0,1.25-.34,1.25-1s-.37-.77-1-.9l-.53-.12c-.85-.16-1.37-.55-1.37-1.23s.61-1.39,1.68-1.39a2.21,2.21,0,0,1,1.61.53l-.38.32a1.94,1.94,0,0,0-1.28-.4c-.64,0-1.06.35-1.06.85s.38.69,1.09.85l.72.15c.67.16,1.15.52,1.15,1.22a1.64,1.64,0,0,1-1.83,1.53A2.43,2.43,0,0,1,73.82,39.53Z"/><path class="cls-1" d="M78.52,33.22h.56v1h-.56Zm0,2.08h.56v4.82h-.56Z"/><path class="cls-1" d="M80.35,39V33.21h.58V39a.62.62,0,0,0,.69.67,3.83,3.83,0,0,0,.53,0v.44a2.59,2.59,0,0,1-.71.1C80.6,40.17,80.35,39.57,80.35,39Z"/><path class="cls-1" d="M25.66,32.18c-.06,0-.08-.29-.08-.29a16.62,16.62,0,0,0-.94-3.7.37.37,0,0,1,0-.16c0-.06,0-.12.17-.19a5.56,5.56,0,0,0,1.52-1c.06-.06.11-.09.13-.08h0s.07,0,.11.11A12.38,12.38,0,0,1,27.81,30a1.25,1.25,0,0,1,0,.31.54.54,0,0,1-.2.42,9.53,9.53,0,0,1-1.75,1.34s-.19.12-.24.07m-.6,1.43s0-.22-.08-.27-.24,0-.24,0a12.75,12.75,0,0,1-4,.71c-.26,0-.25.08-.26.29,0,1.23,0,2.4-.07,3.45,0,0,0,.11,0,.15s.13,0,.13,0a12.45,12.45,0,0,0,3.94-.89c.18-.07.21-.18.26-.38a13.1,13.1,0,0,0,.25-3.11m-.55-6.34a6,6,0,0,0,1.39-1,.28.28,0,0,0,.1-.2.45.45,0,0,0-.11-.26,9.37,9.37,0,0,0-2.58-2.46,4.31,4.31,0,0,1-1.17.47,14.94,14.94,0,0,1,2.05,3.28c0,.12.09.19.13.2s.13,0,.19-.05m-1,.41c.07,0,.12,0,.14-.11a.36.36,0,0,0,0-.18,16.37,16.37,0,0,0-1.89-3.47A10.17,10.17,0,0,1,20.4,24c0,1.34.08,2.66.1,3.94a.3.3,0,0,0,.05.21.22.22,0,0,0,.15,0,9.55,9.55,0,0,0,2.85-.54m.94,10a0,0,0,0,0,0,0l-.17,0a13,13,0,0,1-3.71.61c-.12,0-.15,0-.16.18l-.07,1.13a9.46,9.46,0,0,0,3.48-.7,5.23,5.23,0,0,0,.62-1.12.3.3,0,0,0,0-.11m3.57-6.28s0,0,0,0a8.49,8.49,0,0,1-2,1.4c-.29.15-.32.25-.32.5a10.33,10.33,0,0,1-.46,3.41s0,.06.06,0a9,9,0,0,0,2.23-1.53A2,2,0,0,0,28.09,34a9.23,9.23,0,0,0,0-2.61m.44-1.81a4,4,0,0,0,.58-1.83c0-.06,0-.1,0-.14a7.16,7.16,0,0,0-1.8-3.24,1.43,1.43,0,0,1,0,.29,2.57,2.57,0,0,1-.25,1.08,1,1,0,0,0-.08.29.47.47,0,0,0,.08.2,10.69,10.69,0,0,1,1.45,3.35M15.21,32.49a15.1,15.1,0,0,1,1-4.36.2.2,0,0,0,0-.07s0-.07-.1-.11a5,5,0,0,1-2-1.51s0,0,0-.06.05,0,.05,0a6.23,6.23,0,0,0,2.12,1.22l.09,0s.06,0,.12-.16a15.61,15.61,0,0,1,2.2-3.65,2.54,2.54,0,0,1-1.64-1s0,0,0-.06a.06.06,0,0,1,.07,0c.8.88,3.14.82,3.14.82,1,0,3-.34,3-1.16s-1.07-1.14-3-1.16a9.16,9.16,0,0,0-9.08,9.18,9.28,9.28,0,0,0,9,9.17c0-.08-.06-1.15-.06-1.15s0-.16-.18-.17a11.39,11.39,0,0,1-2.79-.52s0,0,0,0a19,19,0,0,0,2.76.24.14.14,0,0,0,.15-.16c0-.15-.06-3.48-.06-3.48,0-.25-.05-.29-.29-.31a12.27,12.27,0,0,1-4.12-.9h-.06a.09.09,0,0,0,0,.07,19,19,0,0,0,.06,3.05s0,0,0,0,0,0,0,0a10.49,10.49,0,0,1-.33-2.69v-.46a.22.22,0,0,0-.13-.22,8.49,8.49,0,0,1-1.57-1s0,0,0-.06a.05.05,0,0,1,0,0,10.41,10.41,0,0,0,1.6.81h.06s0-.07,0-.14m11.34-7.2a2,2,0,0,0,0-1.38,2.48,2.48,0,0,0-.68-.77A8.35,8.35,0,0,0,23.82,22a.75.75,0,0,1,.12.4,1.11,1.11,0,0,1-.32.71,10,10,0,0,1,2.65,2.18s.12.15.19.14.09-.13.09-.13m2.22,6.77a9.09,9.09,0,0,1-.18,1.83,7.35,7.35,0,0,0,.92-3.63,8.16,8.16,0,0,0-.1-1.28,3.89,3.89,0,0,1-.49,1.27,1.08,1.08,0,0,0-.2.65c.05.62.05,1.16.05,1.16M24.82,37.8a7.29,7.29,0,0,1-.56.94,10,10,0,0,0,3.17-2.69,9.15,9.15,0,0,1-2.23,1.33.82.82,0,0,0-.38.42M20,29.05a.26.26,0,0,0-.26-.3,10.79,10.79,0,0,1-3-.57l-.09,0s-.06,0-.08.09a16.85,16.85,0,0,0-1,4.41c0,.11,0,.13.09.16a12.67,12.67,0,0,0,4.1.69s.16,0,.2,0,.06-.1.06-.28c0-1.14,0-4.13,0-4.13m-3.21-1.46c0,.13,0,.16,0,.16a.11.11,0,0,0,.06,0,11.19,11.19,0,0,0,2.93.45.28.28,0,0,0,.2,0A.38.38,0,0,0,20,28c0-1.28.06-2.61.13-3.92A6.69,6.69,0,0,1,19,23.89a16.57,16.57,0,0,0-2.14,3.7m3.91,5.9a13,13,0,0,0,3.94-.79c.23-.08.28-.19.28-.36a.71.71,0,0,0,0-.14,19.86,19.86,0,0,0-.9-3.79c-.05-.17-.08-.19-.13-.19l-.14,0a10.87,10.87,0,0,1-3,.51.26.26,0,0,0-.27.3c0,.65,0,1.69,0,3.08V33.3a.32.32,0,0,0,0,.16.28.28,0,0,0,.15,0m-14,3.23c.69,1.86,2.43,2,3.6,3.15a2.88,2.88,0,0,0,.68.55l0,0a4.12,4.12,0,0,1-.77-1c-.68-1.12-.44-2.7-.95-3.91a9.51,9.51,0,0,1,1.16,2.09c.42,1.22.58,2.6,1.55,3.52-1-.41-2.27-.32-3.2-1.06a5.42,5.42,0,0,1-2.09-3.34m9.73,5.34a.69.69,0,0,0,.26-.05,5.08,5.08,0,0,1-2.44-1,27,27,0,0,0-2.94-2.42c.14.09.79,1.41,1.33,2.2a2.55,2.55,0,0,0,1.51,1,3,3,0,0,1,.55.16.31.31,0,0,1-.24,0,15.25,15.25,0,0,0-2.31-.32c-3.24,0-4.08-1.23-4.08-1.23a5,5,0,0,0,4.23,2.38c1.85,0,3.24-.71,4.13-.71m11.88.71a5,5,0,0,0,4.23-2.38s-.84,1.23-4.08,1.23a15.25,15.25,0,0,0-2.31.32.31.31,0,0,1-.24,0,3,3,0,0,1,.55-.16,2.55,2.55,0,0,0,1.51-1c.54-.79,1.19-2.11,1.33-2.2A26,26,0,0,0,26.4,41,5.11,5.11,0,0,1,24,42a.69.69,0,0,0,.26.05c.89,0,2.28.71,4.13.71M8.23,37.59a11.33,11.33,0,0,1,1.09,1s-.07-.25-.14-.55A8.45,8.45,0,0,0,8.7,36.4a17.91,17.91,0,0,1-1.42-3s-.7,2.83,1,4.24m20.43,3.53c1-.41,2.26-.32,3.19-1.06a5.46,5.46,0,0,0,2.09-3.34c-.69,1.86-2.43,2-3.6,3.15a3.1,3.1,0,0,1-.68.55l0,0a4.39,4.39,0,0,0,.77-1c.68-1.12.44-2.7.95-3.91A9.51,9.51,0,0,0,30.2,37.6c-.42,1.22-.58,2.6-1.54,3.52m-2.58,2.05c-1.61-.66-3.29-1.49-5.23-1.1a3.39,3.39,0,0,1-.59.09,3.39,3.39,0,0,1-.59-.09c-1.94-.39-3.62.44-5.23,1.1a4.56,4.56,0,0,1-3.84-.32,4.4,4.4,0,0,0,2,1.25,4.73,4.73,0,0,0,4.05-.56c.95-.51,1.78-1.49,3-1.12a12.2,12.2,0,0,0-3.5,2.34l.66.51a9.54,9.54,0,0,1,3.47-2.67,9.54,9.54,0,0,1,3.47,2.67l.66-.51a12.06,12.06,0,0,0-3.5-2.34c1.25-.37,2.07.61,3,1.12a4.73,4.73,0,0,0,4,.56,4.4,4.4,0,0,0,2-1.25,4.56,4.56,0,0,1-3.84.32m6.36-5.58c1.65-1.41,1-4.24,1-4.24a17.91,17.91,0,0,1-1.42,3,8.45,8.45,0,0,0-.48,1.69c-.07.3-.15.55-.15.55a11.6,11.6,0,0,1,1.1-1m-26.18-8,1.46.13c.39,0,.59-.11.63-.48a.67.67,0,0,0-.07-.42.56.56,0,0,0-.49-.25l-1.42-.16a3,3,0,0,1-.16.31h-.1c0-.31.07-.62.11-.93l.1,0,.09.33,1.35.16a.77.77,0,0,1,.66.39,1.22,1.22,0,0,1,.12.68c-.06.58-.36.88-.85.84l-1.48-.12-.15.31H6c0-.38.06-.75.1-1.12h.1l.1.31M7,26.69l1.59.52L8.84,27l.1,0c-.09.27-.18.53-.26.79l-.1,0c0-.11,0-.22,0-.33l-1.88-.6-.21.27-.1,0c.07-.24.15-.48.23-.71.65-.24,1.31-.47,2-.68l-1.32-.47L7,25.45l-.1,0,.29-.81.1,0c0,.12,0,.23,0,.34l2.1.76a1.34,1.34,0,0,1-.07.18q-1.15.36-2.31.78m3.45-4.27.55.4a3.53,3.53,0,0,1-.36.73A1.13,1.13,0,0,1,9,23.86,1.17,1.17,0,0,1,8.68,22a3.41,3.41,0,0,1,.54-.56l0,0,.49.35-.11.14-.48-.13a.61.61,0,0,0-.17.15,1,1,0,0,0,.26,1.53.91.91,0,0,0,1.37-.2.28.28,0,0,0,.07-.15l-.47-.34L9.93,23l-.08-.05.63-.86.08.05Zm1-.27L10.1,20.74l-.31.13-.07-.08.77-.75.07.07-.12.3,1.41,1.45.44-.43L12.14,21l.11-.11.4.49s-.61.57-1.21,1.2l-.08-.08Zm.69-1.94a1.19,1.19,0,0,1,.33-1.8,1.07,1.07,0,0,1,1.6.38,1.24,1.24,0,0,1-.33,1.78,1.11,1.11,0,0,1-1.6-.36m.35-.35c.38.54.86.72,1.19.51s.34-.72,0-1.27-.77-.76-1.17-.51-.4.75,0,1.27m2.7-.4-.78-1.83h-.33l0-.09,1.1-.46a.72.72,0,0,1,.6-.05.53.53,0,0,1,.32.3c.12.31,0,.61-.44.83.48-.18.81-.08.95.28a.63.63,0,0,1-.06.55,1.19,1.19,0,0,1-.58.39l-.94.41,0-.09Zm0-1.21.14-.06a.48.48,0,0,0,.29-.64.41.41,0,0,0-.6-.26l-.2.1Zm.44,1.06.13-.06a.55.55,0,0,0,.34-.25.47.47,0,0,0,0-.4.47.47,0,0,0-.69-.27l-.17.08Zm1.89-1.4-.14.73.3.08,0,.1L17,19v-.1l.24-.17.55-2.41.18,0,1.25,2.08.29.08,0,.1-1,.14,0-.1.25-.17-.36-.65Zm0-.19.61-.11-.42-.77Zm2.39.61,0-2-.31-.13v-.1c.56,0,1.07,0,1.07,0v.1l-.3.13,0,2H21l.24-.44h.15l-.06.63s-.92,0-1.67,0v-.1Zm4.09.6.31-.43.16,0-.18.57h-.06a2.8,2.8,0,0,1-.74-.09,1.14,1.14,0,0,1-.86-1.47c.17-.76.71-1.12,1.63-.91a3,3,0,0,1,.69.3l-.16.58-.16,0,0-.53a1.14,1.14,0,0,0-.19-.07,1,1,0,0,0-1.3.77.94.94,0,0,0,.66,1.23l.24,0m4.56,2,1.67-.77.54.55-.06.08-.32-.11L29.1,22.06l.15.3-.07.08c-.36-.37-.72-.71-.72-.71l.06-.09.31.1,1.1-1.17-1.84.83L28,21.34l.56-1.95-1,1.26.14.29-.07.08-.7-.5.07-.08.31.1L28.58,19l-.15-.29.07-.08.64.47Zm2,1.78-.62.47.07.32-.07.06-.65-.85.08-.06.27.16,1.55-1.21-.07-.31.08-.06L32,22a1.06,1.06,0,0,1,.28.66.62.62,0,0,1-.27.52c-.36.26-.81.13-1.14-.33Zm.19,0a.54.54,0,0,0,.31.26.63.63,0,0,0,.49-.1.59.59,0,0,0,.25-.37.47.47,0,0,0-.12-.37l-.14-.18-.86.67Zm.78,1.66-.74.06v.3l-.1,0c-.18-.35-.41-.71-.41-.71l.09-.05.24.19L33.2,24l.09.19L31.63,26v.31l-.1,0-.39-.95.09,0,.24.19L32,25Zm.19,0,.27.56.63-.62Zm.36,3.58.53.06,0,.15-.58.13,0-.05a2.48,2.48,0,0,1-.3-.68A1.11,1.11,0,0,1,32.69,26a1.18,1.18,0,0,1,1.59.93,3.42,3.42,0,0,1,.09.78l-.59.15,0-.16.42-.29a1,1,0,0,0,0-.23.94.94,0,0,0-1.3-.72c-.61.2-.89.61-.73,1.18a1.8,1.8,0,0,0,.08.21Zm2.27,1.72-2,.15-.1.41h-.1c0-.64-.09-1.25-.09-1.25h.1l.15.39,2-.16,0-.51-.52-.14v-.14l.68-.05a16.74,16.74,0,0,1,.16,2.13l-.67.05,0-.15.49-.22ZM25.21,18.28a1.17,1.17,0,0,1,1.71-.61,1.06,1.06,0,0,1,.48,1.57,1.24,1.24,0,0,1-1.7.61,1.11,1.11,0,0,1-.49-1.57m.47.13c-.27.61-.18,1.11.16,1.29s.79-.07,1.11-.63.27-1.05-.16-1.27-.84,0-1.11.61"/></svg>