<svg xmlns="http://www.w3.org/2000/svg" width="382.62" height="93.72" viewBox="0 0 382.62 93.72"><defs><style>.a{fill:#fff;}</style></defs><title>te</title><path class="a" d="M461.91,156.07a7.55,7.55,0,0,1,.46-2.77,5.81,5.81,0,0,1,1.21-2,5,5,0,0,1,1.75-1.17,5.42,5.42,0,0,1,2-.39,4.6,4.6,0,0,1,3.69,1.5,6.91,6.91,0,0,1,1.29,4.58v.36a2.5,2.5,0,0,1,0,.4h-8.17a4.38,4.38,0,0,0,1.08,2.82,4,4,0,0,0,2.94,1,7.76,7.76,0,0,0,1.89-.2,6,6,0,0,0,1.16-.38l.3,1.79a6,6,0,0,1-1.36.44,10,10,0,0,1-2.22.23,7.12,7.12,0,0,1-2.7-.47,5.19,5.19,0,0,1-1.87-1.3,5.29,5.29,0,0,1-1.09-2A8.56,8.56,0,0,1,461.91,156.07Zm8.19-1.17a3.61,3.61,0,0,0-.72-2.38,2.49,2.49,0,0,0-2.06-.93,2.79,2.79,0,0,0-1.29.29,2.83,2.83,0,0,0-.95.75,3.05,3.05,0,0,0-.61,1.05,5.28,5.28,0,0,0-.29,1.22Z" transform="translate(-318.77 -72.54)"/><path class="a" d="M488.41,144.57l2.14-.36v17.46c-.49.14-1.12.27-1.88.41a14.87,14.87,0,0,1-2.64.21,6.68,6.68,0,0,1-2.48-.44,5.19,5.19,0,0,1-1.88-1.24,5.41,5.41,0,0,1-1.21-2,7.58,7.58,0,0,1-.42-2.6,8.46,8.46,0,0,1,.35-2.53,5.72,5.72,0,0,1,1.05-2,4.85,4.85,0,0,1,1.68-1.29,5.54,5.54,0,0,1,2.29-.46,5.66,5.66,0,0,1,1.82.28,5.4,5.4,0,0,1,1.18.53Zm0,8a4.51,4.51,0,0,0-1.12-.62,4.43,4.43,0,0,0-1.61-.29,3.46,3.46,0,0,0-1.57.33,2.89,2.89,0,0,0-1.07.92,3.9,3.9,0,0,0-.59,1.39,7.19,7.19,0,0,0-.19,1.72,4.62,4.62,0,0,0,1,3.22,3.51,3.51,0,0,0,2.75,1.14,11.72,11.72,0,0,0,1.46-.08,6.11,6.11,0,0,0,.9-.18Z" transform="translate(-318.77 -72.54)"/><path class="a" d="M504.75,156.05a7.7,7.7,0,0,1-.41,2.57,5.94,5.94,0,0,1-1.16,2,5,5,0,0,1-1.78,1.27,5.85,5.85,0,0,1-4.5,0,5.1,5.1,0,0,1-1.78-1.27,5.91,5.91,0,0,1-1.15-2,8,8,0,0,1,0-5.13,5.82,5.82,0,0,1,1.15-2,5.23,5.23,0,0,1,1.78-1.27,5.85,5.85,0,0,1,4.5,0,5.14,5.14,0,0,1,1.78,1.27,5.83,5.83,0,0,1,1.16,2A7.68,7.68,0,0,1,504.75,156.05Zm-2.22,0a5.19,5.19,0,0,0-.91-3.21,3.16,3.16,0,0,0-4.93,0,6.1,6.1,0,0,0,0,6.41,3.16,3.16,0,0,0,4.93,0A5.17,5.17,0,0,0,502.53,156.05Z" transform="translate(-318.77 -72.54)"/><path class="a" d="M523.82,146.11V148h-5v14h-2.23V148h-5v-1.93Z" transform="translate(-318.77 -72.54)"/><path class="a" d="M529.51,149.83l.63,0c.24,0,.47.06.7.09l.63.12.43.1-.37,1.86c-.17-.06-.45-.13-.84-.22a7.69,7.69,0,0,0-1.5-.12,5.83,5.83,0,0,0-1.18.12l-.77.17v10h-2.13V150.58a14.82,14.82,0,0,1,1.88-.51A12.12,12.12,0,0,1,529.51,149.83Z" transform="translate(-318.77 -72.54)"/><path class="a" d="M537.82,149.78a6.23,6.23,0,0,1,2.17.33,3.64,3.64,0,0,1,1.42.94,3.56,3.56,0,0,1,.77,1.45,7.1,7.1,0,0,1,.23,1.85v7.46l-.77.12q-.5.09-1.11.15l-1.35.13c-.48,0-1,.06-1.43.06a7.79,7.79,0,0,1-1.86-.21,4.29,4.29,0,0,1-1.47-.66,3,3,0,0,1-1-1.18,4.12,4.12,0,0,1-.35-1.76,3.37,3.37,0,0,1,.41-1.7,3.09,3.09,0,0,1,1.09-1.15,5.11,5.11,0,0,1,1.6-.64,8.65,8.65,0,0,1,1.93-.21,5.22,5.22,0,0,1,.67,0,6.37,6.37,0,0,1,.65.09l.54.1.32.07v-.6a5.17,5.17,0,0,0-.11-1,2.42,2.42,0,0,0-.42-.92,2.08,2.08,0,0,0-.81-.64,3.21,3.21,0,0,0-1.34-.24,10,10,0,0,0-1.85.15,6.19,6.19,0,0,0-1.18.31l-.26-1.77a7.23,7.23,0,0,1,1.38-.36A12.37,12.37,0,0,1,537.82,149.78Zm.18,10.7c.51,0,1,0,1.35,0a4.75,4.75,0,0,0,1-.13v-3.55a2.75,2.75,0,0,0-.75-.2,8.74,8.74,0,0,0-1.25-.08,7.39,7.39,0,0,0-1,.07,3,3,0,0,0-1,.29,2.07,2.07,0,0,0-.75.59,1.59,1.59,0,0,0-.3,1A1.72,1.72,0,0,0,536,160,3.78,3.78,0,0,0,538,160.48Zm2.94-14.92-3.24,3.14-1.07-1,2.93-3.53Z" transform="translate(-318.77 -72.54)"/><path class="a" d="M550.6,144.21a7.8,7.8,0,0,1,1.38.1,5.7,5.7,0,0,1,.82.19l-.29,1.84a7.12,7.12,0,0,0-.69-.2,5.3,5.3,0,0,0-1.06-.1,2.42,2.42,0,0,0-2.09.82,3.67,3.67,0,0,0-.59,2.19v1h4.59v1.79h-4.59V162h-2.14V149a5.1,5.1,0,0,1,1.13-3.54A4.5,4.5,0,0,1,550.6,144.21Zm5.35,3.71a1.43,1.43,0,0,1-1-2.42,1.4,1.4,0,0,1,1-.38,1.36,1.36,0,0,1,1,.38,1.4,1.4,0,0,1-1,2.42ZM557,162h-2.14V150.08H557Z" transform="translate(-318.77 -72.54)"/><path class="a" d="M565.88,162.29a6.6,6.6,0,0,1-2.53-.46,5.18,5.18,0,0,1-1.84-1.29,5.33,5.33,0,0,1-1.11-2,8,8,0,0,1-.37-2.51,7.85,7.85,0,0,1,.4-2.53,6,6,0,0,1,1.14-2,5.17,5.17,0,0,1,1.8-1.31,5.88,5.88,0,0,1,2.38-.47,9.61,9.61,0,0,1,1.6.14,7.78,7.78,0,0,1,1.54.43l-.48,1.82a5.16,5.16,0,0,0-1.11-.37,6.5,6.5,0,0,0-1.35-.14,3.4,3.4,0,0,0-2.74,1.13,5,5,0,0,0-1,3.28,6.6,6.6,0,0,0,.22,1.77,3.48,3.48,0,0,0,.69,1.37,3,3,0,0,0,1.2.89,4.74,4.74,0,0,0,1.79.31,7.21,7.21,0,0,0,1.54-.16,6,6,0,0,0,1.08-.35l.29,1.79a2,2,0,0,1-.52.22,6.47,6.47,0,0,1-.78.18c-.29.06-.6.1-.93.14A8,8,0,0,1,565.88,162.29Z" transform="translate(-318.77 -72.54)"/><path class="a" d="M581.6,156.05a7.45,7.45,0,0,1-.41,2.57,5.77,5.77,0,0,1-1.16,2,5,5,0,0,1-1.78,1.27,5.83,5.83,0,0,1-4.49,0,4.92,4.92,0,0,1-1.78-1.27,5.77,5.77,0,0,1-1.16-2,8.23,8.23,0,0,1,0-5.13,5.68,5.68,0,0,1,1.16-2,5,5,0,0,1,1.78-1.27,5.83,5.83,0,0,1,4.49,0A5.14,5.14,0,0,1,580,151.5a5.68,5.68,0,0,1,1.16,2A7.43,7.43,0,0,1,581.6,156.05Zm-2.22,0a5.12,5.12,0,0,0-.91-3.21,3.16,3.16,0,0,0-4.93,0,6.1,6.1,0,0,0,0,6.41,3.16,3.16,0,0,0,4.93,0A5.11,5.11,0,0,0,579.38,156.05Z" transform="translate(-318.77 -72.54)"/><path class="a" d="M597.62,144.57l2.14-.36v17.46c-.49.14-1.12.27-1.89.41a14.71,14.71,0,0,1-2.64.21,6.67,6.67,0,0,1-2.47-.44,5.31,5.31,0,0,1-1.89-1.24,5.39,5.39,0,0,1-1.2-2,7.58,7.58,0,0,1-.42-2.6,8.46,8.46,0,0,1,.35-2.53,5.72,5.72,0,0,1,1-2,4.76,4.76,0,0,1,1.68-1.29,5.54,5.54,0,0,1,2.29-.46,5.66,5.66,0,0,1,1.82.28,5.4,5.4,0,0,1,1.18.53Zm0,8a4.51,4.51,0,0,0-1.12-.62,4.43,4.43,0,0,0-1.61-.29,3.44,3.44,0,0,0-1.57.33,2.89,2.89,0,0,0-1.07.92,3.9,3.9,0,0,0-.59,1.39,7.19,7.19,0,0,0-.19,1.72,4.66,4.66,0,0,0,1,3.22,3.55,3.55,0,0,0,2.76,1.14,11.72,11.72,0,0,0,1.46-.08,6.11,6.11,0,0,0,.9-.18Z" transform="translate(-318.77 -72.54)"/><path class="a" d="M602.76,156.07a7.55,7.55,0,0,1,.46-2.77,5.83,5.83,0,0,1,1.22-2,4.86,4.86,0,0,1,1.74-1.17,5.45,5.45,0,0,1,2-.39,4.61,4.61,0,0,1,3.7,1.5,7,7,0,0,1,1.28,4.58v.36c0,.14,0,.28,0,.4H605a4.33,4.33,0,0,0,1.08,2.82,3.93,3.93,0,0,0,2.93,1,7.91,7.91,0,0,0,1.9-.2,6.26,6.26,0,0,0,1.16-.38l.29,1.79a6,6,0,0,1-1.36.44,9.9,9.9,0,0,1-2.22.23,7,7,0,0,1-2.69-.47,5,5,0,0,1-3-3.26A8.23,8.23,0,0,1,602.76,156.07ZM611,154.9a3.56,3.56,0,0,0-.72-2.38,2.49,2.49,0,0,0-2.05-.93,2.86,2.86,0,0,0-1.3.29,3,3,0,0,0-1,.75,3.41,3.41,0,0,0-.61,1.05,5.28,5.28,0,0,0-.29,1.22Z" transform="translate(-318.77 -72.54)"/><path class="a" d="M632.07,156.07a8.3,8.3,0,0,1-.36,2.5,5.62,5.62,0,0,1-1,2,4.79,4.79,0,0,1-1.69,1.29,5.52,5.52,0,0,1-2.28.46,5.84,5.84,0,0,1-3-.81v4.78h-2.13V150.45c.5-.13,1.13-.26,1.89-.4a13.67,13.67,0,0,1,2.63-.22,6.76,6.76,0,0,1,2.48.43,5.41,5.41,0,0,1,1.88,1.24,5.48,5.48,0,0,1,1.2,2A7.68,7.68,0,0,1,632.07,156.07Zm-2.23,0a4.57,4.57,0,0,0-1-3.21,3.57,3.57,0,0,0-2.76-1.13,11.71,11.71,0,0,0-1.5.07,6.74,6.74,0,0,0-.86.16v7.53a4.51,4.51,0,0,0,1.12.62,4.23,4.23,0,0,0,1.61.3,3.31,3.31,0,0,0,1.57-.34,2.86,2.86,0,0,0,1.07-.91,3.93,3.93,0,0,0,.6-1.38A7.73,7.73,0,0,0,629.84,156.07Z" transform="translate(-318.77 -72.54)"/><path class="a" d="M634.41,156.07a7.55,7.55,0,0,1,.46-2.77,5.81,5.81,0,0,1,1.21-2,5,5,0,0,1,1.75-1.17,5.42,5.42,0,0,1,2-.39,4.6,4.6,0,0,1,3.69,1.5,6.91,6.91,0,0,1,1.29,4.58v.36a2.5,2.5,0,0,1,0,.4h-8.17a4.33,4.33,0,0,0,1.08,2.82,4,4,0,0,0,2.94,1,7.76,7.76,0,0,0,1.89-.2,6.26,6.26,0,0,0,1.16-.38l.3,1.79a6.07,6.07,0,0,1-1.37.44,9.81,9.81,0,0,1-2.21.23,7.12,7.12,0,0,1-2.7-.47,5.19,5.19,0,0,1-1.87-1.3,5.29,5.29,0,0,1-1.09-2A8.24,8.24,0,0,1,634.41,156.07Zm8.19-1.17a3.67,3.67,0,0,0-.72-2.38,2.51,2.51,0,0,0-2.06-.93,2.79,2.79,0,0,0-1.29.29,3,3,0,0,0-1,.75,3.2,3.2,0,0,0-.6,1.05,4.81,4.81,0,0,0-.29,1.22Z" transform="translate(-318.77 -72.54)"/><path class="a" d="M650.68,160.48a4.22,4.22,0,0,0,1.94-.35,1.17,1.17,0,0,0,.63-1.1,1.48,1.48,0,0,0-.62-1.24,9.76,9.76,0,0,0-2-1c-.45-.19-.89-.37-1.31-.56a4.61,4.61,0,0,1-1.09-.68,2.94,2.94,0,0,1-.74-.94,3.08,3.08,0,0,1-.27-1.36,3,3,0,0,1,1.17-2.51,5,5,0,0,1,3.19-.93,8.68,8.68,0,0,1,1,.06c.33,0,.65.08.94.14s.54.11.77.17a4.58,4.58,0,0,1,.51.16l-.39,1.84a5,5,0,0,0-1.08-.38,6.93,6.93,0,0,0-1.76-.2,3.21,3.21,0,0,0-1.56.36,1.17,1.17,0,0,0-.67,1.11,1.52,1.52,0,0,0,.15.69,1.55,1.55,0,0,0,.46.54,3.64,3.64,0,0,0,.77.45c.3.13.67.28,1.1.43s1.07.43,1.51.63a5.06,5.06,0,0,1,1.14.72,2.88,2.88,0,0,1,.72,1,3.61,3.61,0,0,1,.25,1.44,2.86,2.86,0,0,1-1.22,2.5,6.1,6.1,0,0,1-3.5.85,8.91,8.91,0,0,1-2.48-.27,12.32,12.32,0,0,1-1.22-.4l.39-1.83,1.17.41A6.89,6.89,0,0,0,650.68,160.48Z" transform="translate(-318.77 -72.54)"/><path class="a" d="M660.91,160.48a4.19,4.19,0,0,0,1.94-.35,1.17,1.17,0,0,0,.63-1.1,1.48,1.48,0,0,0-.62-1.24,9.39,9.39,0,0,0-2-1c-.46-.19-.9-.37-1.32-.56a5.06,5.06,0,0,1-1.09-.68,2.91,2.91,0,0,1-.73-.94,2.94,2.94,0,0,1-.28-1.36,3,3,0,0,1,1.17-2.51,5,5,0,0,1,3.19-.93,8.55,8.55,0,0,1,1,.06c.34,0,.65.08.94.14s.55.11.77.17.39.11.52.16l-.39,1.84a5,5,0,0,0-1.08-.38,7,7,0,0,0-1.77-.2,3.21,3.21,0,0,0-1.56.36,1.18,1.18,0,0,0-.67,1.11,1.52,1.52,0,0,0,.15.69,1.66,1.66,0,0,0,.46.54,3.91,3.91,0,0,0,.77.45c.31.13.67.28,1.1.43s1.07.43,1.52.63a5,5,0,0,1,1.13.72,2.78,2.78,0,0,1,.73,1,3.79,3.79,0,0,1,.25,1.44,2.85,2.85,0,0,1-1.23,2.5,6.07,6.07,0,0,1-3.5.85,9,9,0,0,1-2.48-.27,11.86,11.86,0,0,1-1.21-.4l.39-1.83,1.17.41A6.78,6.78,0,0,0,660.91,160.48Z" transform="translate(-318.77 -72.54)"/><path class="a" d="M678.9,156.05a7.45,7.45,0,0,1-.41,2.57,5.94,5.94,0,0,1-1.16,2,5,5,0,0,1-1.78,1.27,5.85,5.85,0,0,1-4.5,0,5,5,0,0,1-1.77-1.27,5.77,5.77,0,0,1-1.16-2,8,8,0,0,1,0-5.13,5.68,5.68,0,0,1,1.16-2,5.1,5.1,0,0,1,1.77-1.27,5.85,5.85,0,0,1,4.5,0,5.14,5.14,0,0,1,1.78,1.27,5.83,5.83,0,0,1,1.16,2A7.43,7.43,0,0,1,678.9,156.05Zm-2.22,0a5.19,5.19,0,0,0-.91-3.21,3.16,3.16,0,0,0-4.93,0,6.1,6.1,0,0,0,0,6.41,3.16,3.16,0,0,0,4.93,0A5.17,5.17,0,0,0,676.68,156.05Z" transform="translate(-318.77 -72.54)"/><path class="a" d="M685.76,149.78a6.23,6.23,0,0,1,2.17.33,3.34,3.34,0,0,1,2.19,2.39,6.7,6.7,0,0,1,.23,1.85v7.46l-.76.12c-.33.06-.7.11-1.12.15s-.86.09-1.34.13-1,.06-1.43.06a7.67,7.67,0,0,1-1.86-.21,4.13,4.13,0,0,1-1.47-.66,3,3,0,0,1-1-1.18,4.12,4.12,0,0,1-.34-1.76,3.37,3.37,0,0,1,.4-1.7,3.17,3.17,0,0,1,1.09-1.15,5.17,5.17,0,0,1,1.61-.64,8.58,8.58,0,0,1,1.93-.21,5.07,5.07,0,0,1,.66,0,6.57,6.57,0,0,1,.66.09l.53.1.33.07v-.6a4.55,4.55,0,0,0-.12-1,2.4,2.4,0,0,0-.41-.92,2,2,0,0,0-.82-.64,3.18,3.18,0,0,0-1.34-.24,10.1,10.1,0,0,0-1.85.15,6.41,6.41,0,0,0-1.18.31l-.25-1.77a6.82,6.82,0,0,1,1.38-.36A12.25,12.25,0,0,1,685.76,149.78Zm.19,10.7c.5,0,.95,0,1.34,0a4.86,4.86,0,0,0,1-.13v-3.55a3,3,0,0,0-.75-.2,8.74,8.74,0,0,0-1.25-.08,7.39,7.39,0,0,0-1,.07,3.16,3.16,0,0,0-1,.29,2,2,0,0,0-.74.59,1.59,1.59,0,0,0-.3,1A1.72,1.72,0,0,0,684,160,3.82,3.82,0,0,0,686,160.48Z" transform="translate(-318.77 -72.54)"/><path class="a" d="M696.66,160.48a4.16,4.16,0,0,0,1.94-.35,1.17,1.17,0,0,0,.63-1.1,1.45,1.45,0,0,0-.62-1.24,9.39,9.39,0,0,0-2-1c-.46-.19-.9-.37-1.32-.56a5.06,5.06,0,0,1-1.09-.68,3.2,3.2,0,0,1,.16-4.81,5,5,0,0,1,3.19-.93,8.43,8.43,0,0,1,1,.06c.34,0,.65.08.94.14s.55.11.77.17a4.88,4.88,0,0,1,.52.16l-.39,1.84a5,5,0,0,0-1.08-.38,7,7,0,0,0-1.77-.2,3.27,3.27,0,0,0-1.56.36,1.17,1.17,0,0,0-.66,1.11,1.52,1.52,0,0,0,.15.69,1.55,1.55,0,0,0,.46.54,3.81,3.81,0,0,0,.76.45c.31.13.68.28,1.11.43s1.07.43,1.51.63a5.29,5.29,0,0,1,1.14.72,2.88,2.88,0,0,1,.72,1,3.61,3.61,0,0,1,.25,1.44,2.85,2.85,0,0,1-1.23,2.5,6.05,6.05,0,0,1-3.5.85,8.88,8.88,0,0,1-2.47-.27,11.44,11.44,0,0,1-1.22-.4l.39-1.83,1.17.41A6.87,6.87,0,0,0,696.66,160.48Z" transform="translate(-318.77 -72.54)"/><path class="a" d="M344.36,101.15v4H333.89v29.23h-4.65V105.18H318.77v-4Z" transform="translate(-318.77 -72.54)"/><path class="a" d="M357.46,108.93a13.16,13.16,0,0,1,1.32.07c.5,0,1,.11,1.47.19l1.32.24a6.89,6.89,0,0,1,.88.22l-.76,3.88a16.21,16.21,0,0,0-1.76-.45,14.94,14.94,0,0,0-3.14-.27,11.4,11.4,0,0,0-2.47.27c-.82.17-1.36.29-1.61.36v21h-4.46v-23.9a31.17,31.17,0,0,1,3.93-1.08A25.06,25.06,0,0,1,357.46,108.93Z" transform="translate(-318.77 -72.54)"/><path class="a" d="M376,108.83a13,13,0,0,1,4.53.69,7.1,7.1,0,0,1,4.59,5,14.57,14.57,0,0,1,.48,3.86V134l-1.61.27c-.69.11-1.47.21-2.33.31s-1.8.18-2.81.26-2,.12-3,.12a16.38,16.38,0,0,1-3.89-.43,8.7,8.7,0,0,1-3.07-1.37,6.28,6.28,0,0,1-2-2.47,8.66,8.66,0,0,1-.72-3.7,7.12,7.12,0,0,1,.84-3.55,6.72,6.72,0,0,1,2.28-2.4,10.33,10.33,0,0,1,3.36-1.34,18.17,18.17,0,0,1,4-.43,13.34,13.34,0,0,1,1.39.07c.48.05.94.11,1.37.19l1.13.22.67.14v-1.25a10,10,0,0,0-.24-2.18,5,5,0,0,0-.87-1.92,4.37,4.37,0,0,0-1.7-1.35,6.8,6.8,0,0,0-2.81-.5,20.87,20.87,0,0,0-3.86.31,13.72,13.72,0,0,0-2.47.65l-.53-3.7a14,14,0,0,1,2.88-.74A24.85,24.85,0,0,1,376,108.83Zm.38,22.37c1.06,0,2,0,2.81-.07a12.37,12.37,0,0,0,2-.27v-7.44a6,6,0,0,0-1.56-.41,17.74,17.74,0,0,0-2.62-.16A16.07,16.07,0,0,0,375,123a6.55,6.55,0,0,0-2.07.6,4.43,4.43,0,0,0-1.56,1.25,3.31,3.31,0,0,0-.62,2.09,3.58,3.58,0,0,0,1.53,3.33A8,8,0,0,0,376.42,131.2Z" transform="translate(-318.77 -72.54)"/><path class="a" d="M398.69,110.56a12.71,12.71,0,0,1,2.47-1.11,11.76,11.76,0,0,1,3.82-.57,11.37,11.37,0,0,1,4.78,1,9.92,9.92,0,0,1,3.52,2.68,12,12,0,0,1,2.19,4.13,18,18,0,0,1,.74,5.28,15.54,15.54,0,0,1-.89,5.45,11.26,11.26,0,0,1-2.52,4.1,11,11,0,0,1-3.93,2.6,14.2,14.2,0,0,1-5.19.91,31.25,31.25,0,0,1-5.52-.43q-2.4-.44-3.93-.87V97.93l4.46-.76Zm0,20a15.22,15.22,0,0,0,1.9.37,23.47,23.47,0,0,0,3.05.16,7.41,7.41,0,0,0,5.76-2.37c1.44-1.59,2.16-3.83,2.16-6.75a15.89,15.89,0,0,0-.39-3.6,8,8,0,0,0-1.25-2.9,5.93,5.93,0,0,0-2.23-1.92,7.23,7.23,0,0,0-3.29-.7,8.81,8.81,0,0,0-3.36.63,9.42,9.42,0,0,0-2.35,1.29Z" transform="translate(-318.77 -72.54)"/><path class="a" d="M431.76,108.83a13,13,0,0,1,4.54.69,7.59,7.59,0,0,1,3,2,7.49,7.49,0,0,1,1.6,3,14.57,14.57,0,0,1,.48,3.86V134l-1.6.27c-.69.11-1.47.21-2.33.31s-1.8.18-2.81.26-2,.12-3,.12a16.38,16.38,0,0,1-3.89-.43,8.62,8.62,0,0,1-3.07-1.37,6.3,6.3,0,0,1-2-2.47,8.66,8.66,0,0,1-.72-3.7,7.12,7.12,0,0,1,.84-3.55A6.72,6.72,0,0,1,425,121a10.33,10.33,0,0,1,3.36-1.34,18.26,18.26,0,0,1,4-.43,13.47,13.47,0,0,1,1.39.07c.48.05.93.11,1.37.19l1.12.22.68.14v-1.25a10,10,0,0,0-.24-2.18,5.1,5.1,0,0,0-.87-1.92,4.37,4.37,0,0,0-1.7-1.35,6.8,6.8,0,0,0-2.81-.5,20.87,20.87,0,0,0-3.86.31,14.12,14.12,0,0,0-2.48.65l-.52-3.7a14,14,0,0,1,2.88-.74A24.82,24.82,0,0,1,431.76,108.83Zm.39,22.37c1.05,0,2,0,2.81-.07a12.37,12.37,0,0,0,2-.27v-7.44a6,6,0,0,0-1.56-.41,17.83,17.83,0,0,0-2.62-.16,16.32,16.32,0,0,0-2.14.14,6.49,6.49,0,0,0-2.06.6,4.43,4.43,0,0,0-1.56,1.25,3.25,3.25,0,0,0-.62,2.09,3.58,3.58,0,0,0,1.53,3.33A8,8,0,0,0,432.15,131.2Z" transform="translate(-318.77 -72.54)"/><path class="a" d="M457.44,134.89q-4.12-.09-5.85-1.77c-1.16-1.12-1.73-2.87-1.73-5.23v-30l4.46-.76v30a7.64,7.64,0,0,0,.19,1.82,2.51,2.51,0,0,0,.63,1.15,2.63,2.63,0,0,0,1.15.65,12.88,12.88,0,0,0,1.78.36Z" transform="translate(-318.77 -72.54)"/><path class="a" d="M464.26,134.41V97.93l4.46-.76v12.76a15.35,15.35,0,0,1,2.67-.74,14.89,14.89,0,0,1,2.8-.26,12.65,12.65,0,0,1,4.95.84,7.68,7.68,0,0,1,3.14,2.35,9,9,0,0,1,1.66,3.62,21,21,0,0,1,.48,4.66v14H480v-13a21.19,21.19,0,0,0-.31-3.94,6.66,6.66,0,0,0-1-2.64,4.06,4.06,0,0,0-1.92-1.46,8.29,8.29,0,0,0-3-.46,10.82,10.82,0,0,0-1.48.1c-.52.06-1,.13-1.47.21s-.88.17-1.25.27a5.65,5.65,0,0,0-.79.24v20.73Z" transform="translate(-318.77 -72.54)"/><path class="a" d="M514.9,121.93a15.69,15.69,0,0,1-.87,5.38,12.18,12.18,0,0,1-2.42,4.13,10.63,10.63,0,0,1-3.72,2.66,12.25,12.25,0,0,1-9.41,0,10.63,10.63,0,0,1-3.72-2.66,12.18,12.18,0,0,1-2.42-4.13,17,17,0,0,1,0-10.73,12.18,12.18,0,0,1,2.42-4.15,10.63,10.63,0,0,1,3.72-2.66,12.25,12.25,0,0,1,9.41,0,10.63,10.63,0,0,1,3.72,2.66,12.18,12.18,0,0,1,2.42,4.15A15.76,15.76,0,0,1,514.9,121.93Zm-4.66,0a10.76,10.76,0,0,0-1.89-6.69,6.62,6.62,0,0,0-10.32,0,12.75,12.75,0,0,0,0,13.39,6.62,6.62,0,0,0,10.32,0A10.77,10.77,0,0,0,510.24,121.93Z" transform="translate(-318.77 -72.54)"/><path class="a" d="M535,134.41V101.15h20.31v4H539.62V115h13.92v3.89H539.62v11.52h16.85v4Z" transform="translate(-318.77 -72.54)"/><path class="a" d="M569.09,131.2a8.82,8.82,0,0,0,4.06-.72,2.44,2.44,0,0,0,1.32-2.31,3.08,3.08,0,0,0-1.3-2.59,20.52,20.52,0,0,0-4.27-2.16q-1.44-.57-2.76-1.17a9.82,9.82,0,0,1-2.28-1.42,6.22,6.22,0,0,1-1.54-2,7,7,0,0,1,1.87-8.09,10.51,10.51,0,0,1,6.68-1.94A18.79,18.79,0,0,1,573,109c.7.08,1.36.18,2,.29s1.14.23,1.6.36.83.24,1.08.33l-.81,3.84a11.71,11.71,0,0,0-2.26-.79,14.57,14.57,0,0,0-3.69-.41,6.8,6.8,0,0,0-3.27.75,2.45,2.45,0,0,0-1.39,2.33,3.1,3.1,0,0,0,.31,1.43,3.28,3.28,0,0,0,1,1.13,7.77,7.77,0,0,0,1.61.94c.64.29,1.41.59,2.3.91,1.19.45,2.24.89,3.17,1.32a10.11,10.11,0,0,1,2.38,1.51,5.94,5.94,0,0,1,1.51,2.09,7.63,7.63,0,0,1,.53,3,5.94,5.94,0,0,1-2.57,5.23q-2.56,1.78-7.32,1.78a19.39,19.39,0,0,1-5.18-.55q-1.87-.56-2.55-.84l.82-3.84c.51.19,1.32.48,2.45.86A14.18,14.18,0,0,0,569.09,131.2Z" transform="translate(-318.77 -72.54)"/><path class="a" d="M596.74,135a13.6,13.6,0,0,1-5.31-1,10.7,10.7,0,0,1-3.84-2.69,11.11,11.11,0,0,1-2.32-4.1,16.84,16.84,0,0,1-.77-5.26,15.89,15.89,0,0,1,.84-5.28,12.53,12.53,0,0,1,2.37-4.15,10.73,10.73,0,0,1,3.77-2.74,12.31,12.31,0,0,1,5-1,20.06,20.06,0,0,1,3.36.29A15.23,15.23,0,0,1,603,110l-1,3.79a11.17,11.17,0,0,0-2.33-.77,13.32,13.32,0,0,0-2.81-.28,7.08,7.08,0,0,0-5.73,2.35c-1.33,1.57-2,3.85-2,6.86a14.25,14.25,0,0,0,.46,3.7,7.51,7.51,0,0,0,1.44,2.88,6.57,6.57,0,0,0,2.52,1.85,9.65,9.65,0,0,0,3.74.64,14.43,14.43,0,0,0,3.22-.33,12.9,12.9,0,0,0,2.26-.72l.62,3.74a5,5,0,0,1-1.1.46,16.09,16.09,0,0,1-1.64.38c-.6.11-1.25.21-1.94.29A17.25,17.25,0,0,1,596.74,135Z" transform="translate(-318.77 -72.54)"/><path class="a" d="M618.63,108.93c.38,0,.82,0,1.32.07s1,.11,1.46.19l1.32.24a6.7,6.7,0,0,1,.89.22l-.77,3.88a15.88,15.88,0,0,0-1.75-.45,15.11,15.11,0,0,0-3.15-.27,11.47,11.47,0,0,0-2.47.27c-.81.17-1.35.29-1.61.36v21h-4.46v-23.9a31.87,31.87,0,0,1,3.94-1.08A24.93,24.93,0,0,1,618.63,108.93Z" transform="translate(-318.77 -72.54)"/><path class="a" d="M637.2,108.83a13.1,13.1,0,0,1,4.54.69,7.11,7.11,0,0,1,4.58,5,14.57,14.57,0,0,1,.48,3.86V134l-1.61.27c-.69.11-1.46.21-2.33.31s-1.8.18-2.8.26-2,.12-3,.12a16.32,16.32,0,0,1-3.89-.43,8.54,8.54,0,0,1-3.07-1.37,6.22,6.22,0,0,1-2-2.47,8.66,8.66,0,0,1-.72-3.7,7.12,7.12,0,0,1,.84-3.55,6.72,6.72,0,0,1,2.28-2.4,10.33,10.33,0,0,1,3.36-1.34,18.17,18.17,0,0,1,4-.43,13.34,13.34,0,0,1,1.39.07c.49.05.94.11,1.37.19l1.13.22.67.14v-1.25a10,10,0,0,0-.24-2.18,5.08,5.08,0,0,0-.86-1.92,4.47,4.47,0,0,0-1.71-1.35,6.75,6.75,0,0,0-2.8-.5A21,21,0,0,0,633,113a14,14,0,0,0-2.47.65l-.53-3.7a14.36,14.36,0,0,1,2.88-.74A24.93,24.93,0,0,1,637.2,108.83Zm.38,22.37c1.06,0,2,0,2.81-.07a12.07,12.07,0,0,0,2-.27v-7.44a6,6,0,0,0-1.56-.41,17.68,17.68,0,0,0-2.61-.16,16.11,16.11,0,0,0-2.14.14,6.49,6.49,0,0,0-2.06.6,4.26,4.26,0,0,0-1.56,1.25,3.25,3.25,0,0,0-.63,2.09,3.56,3.56,0,0,0,1.54,3.33A7.9,7.9,0,0,0,637.58,131.2Z" transform="translate(-318.77 -72.54)"/><path class="a" d="M674.16,109.45a125.11,125.11,0,0,1-4.39,13.44q-2.52,6.44-4.87,11.52h-4q-2.34-5.08-4.87-11.52a125.11,125.11,0,0,1-4.39-13.44h4.8q.57,2.35,1.37,5t1.68,5.28q.88,2.61,1.8,5.06c.61,1.64,1.18,3.09,1.73,4.37.54-1.28,1.12-2.73,1.72-4.37s1.21-3.32,1.8-5.06,1.16-3.5,1.68-5.28,1-3.45,1.37-5Z" transform="translate(-318.77 -72.54)"/><path class="a" d="M701.33,121.93a15.69,15.69,0,0,1-.87,5.38,12.18,12.18,0,0,1-2.42,4.13,10.63,10.63,0,0,1-3.72,2.66,12.25,12.25,0,0,1-9.41,0,10.63,10.63,0,0,1-3.72-2.66,12.18,12.18,0,0,1-2.42-4.13,17,17,0,0,1,0-10.73,12.18,12.18,0,0,1,2.42-4.15,10.63,10.63,0,0,1,3.72-2.66,12.25,12.25,0,0,1,9.41,0,10.63,10.63,0,0,1,3.72,2.66,12.18,12.18,0,0,1,2.42,4.15A15.76,15.76,0,0,1,701.33,121.93Zm-4.66,0a10.76,10.76,0,0,0-1.89-6.69,6.62,6.62,0,0,0-10.32,0,12.75,12.75,0,0,0,0,13.39,6.62,6.62,0,0,0,10.32,0A10.77,10.77,0,0,0,696.67,121.93Z" transform="translate(-318.77 -72.54)"/><path class="a" d="M319.34,82.38a10,10,0,0,1,.6-3.6,7.54,7.54,0,0,1,1.66-2.61A6.79,6.79,0,0,1,324,74.6a8.3,8.3,0,0,1,3-.53,8,8,0,0,1,2.9.53,6.85,6.85,0,0,1,2.4,1.57,7.5,7.5,0,0,1,1.64,2.61,10.93,10.93,0,0,1,0,7.2,7.5,7.5,0,0,1-1.64,2.61,6.85,6.85,0,0,1-2.4,1.57,8,8,0,0,1-2.9.53,8.3,8.3,0,0,1-3-.53,6.79,6.79,0,0,1-2.43-1.57A7.54,7.54,0,0,1,319.94,86,10,10,0,0,1,319.34,82.38Zm2.34,0A9,9,0,0,0,322,85a6.09,6.09,0,0,0,1,2,4.57,4.57,0,0,0,1.65,1.27,5.17,5.17,0,0,0,2.19.45,5.09,5.09,0,0,0,2.18-.45A4.54,4.54,0,0,0,330.75,87a6.09,6.09,0,0,0,1.05-2,9.53,9.53,0,0,0,0-5.26,6,6,0,0,0-1.05-2,4.54,4.54,0,0,0-1.64-1.27,5.09,5.09,0,0,0-2.18-.45,5.17,5.17,0,0,0-2.19.45,4.57,4.57,0,0,0-1.65,1.27,6,6,0,0,0-1,2A9,9,0,0,0,321.68,82.38Z" transform="translate(-318.77 -72.54)"/><path class="a" d="M339.83,78.94a5.4,5.4,0,0,1,1.18-.53,5.67,5.67,0,0,1,1.83-.28,5.52,5.52,0,0,1,2.28.46,4.89,4.89,0,0,1,1.69,1.29,5.88,5.88,0,0,1,1,2,8.45,8.45,0,0,1,.36,2.53,7.58,7.58,0,0,1-.43,2.6,5.39,5.39,0,0,1-1.2,2,5.23,5.23,0,0,1-1.89,1.24,6.67,6.67,0,0,1-2.47.44,14.71,14.71,0,0,1-2.64-.21c-.77-.14-1.4-.27-1.88-.41V72.9l2.13-.36Zm0,9.54a6.29,6.29,0,0,0,.91.18,11.54,11.54,0,0,0,1.45.08A3.55,3.55,0,0,0,345,87.6a4.61,4.61,0,0,0,1-3.22,7.76,7.76,0,0,0-.18-1.72,4.09,4.09,0,0,0-.6-1.39,2.89,2.89,0,0,0-1.07-.92,3.44,3.44,0,0,0-1.57-.33,4.43,4.43,0,0,0-1.61.29,4.51,4.51,0,0,0-1.12.62Z" transform="translate(-318.77 -72.54)"/><path class="a" d="M354,88.81a4.19,4.19,0,0,0,1.94-.35,1.17,1.17,0,0,0,.63-1.1,1.48,1.48,0,0,0-.62-1.24,9.39,9.39,0,0,0-2-1c-.46-.19-.9-.37-1.32-.56a4.82,4.82,0,0,1-1.09-.68,2.77,2.77,0,0,1-1-2.3A3,3,0,0,1,351.65,79a5,5,0,0,1,3.19-.93,8.68,8.68,0,0,1,1,.06c.33,0,.65.08.94.14s.54.11.77.17a4.58,4.58,0,0,1,.51.16l-.39,1.84a5,5,0,0,0-1.08-.38,6.88,6.88,0,0,0-1.76-.2,3.21,3.21,0,0,0-1.56.36,1.17,1.17,0,0,0-.67,1.11,1.52,1.52,0,0,0,.15.69,1.55,1.55,0,0,0,.46.54,3.91,3.91,0,0,0,.77.45c.3.13.67.28,1.1.43s1.07.43,1.51.63a4.84,4.84,0,0,1,1.14.72,2.88,2.88,0,0,1,.72,1,3.6,3.6,0,0,1,.26,1.44,2.85,2.85,0,0,1-1.23,2.5,6.1,6.1,0,0,1-3.5.85,9,9,0,0,1-2.48-.27,12.32,12.32,0,0,1-1.22-.4l.39-1.83,1.17.41A6.89,6.89,0,0,0,354,88.81Z" transform="translate(-318.77 -72.54)"/><path class="a" d="M360.78,84.4a7.55,7.55,0,0,1,.46-2.77,5.83,5.83,0,0,1,1.22-2,4.86,4.86,0,0,1,1.74-1.17,5.45,5.45,0,0,1,2-.39,4.57,4.57,0,0,1,3.69,1.5,6.91,6.91,0,0,1,1.29,4.58v.36c0,.14,0,.28,0,.4H363a4.33,4.33,0,0,0,1.08,2.82,3.89,3.89,0,0,0,2.93,1,7.91,7.91,0,0,0,1.9-.2,6.53,6.53,0,0,0,1.16-.38l.29,1.79a6,6,0,0,1-1.36.44,9.9,9.9,0,0,1-2.22.23,7,7,0,0,1-2.69-.47,5,5,0,0,1-3-3.26A8.23,8.23,0,0,1,360.78,84.4ZM369,83.23a3.56,3.56,0,0,0-.72-2.38,2.49,2.49,0,0,0-2.05-.93,2.83,2.83,0,0,0-1.3.29A3,3,0,0,0,364,81a3.41,3.41,0,0,0-.61,1.05,5.28,5.28,0,0,0-.29,1.22Z" transform="translate(-318.77 -72.54)"/><path class="a" d="M378.68,78.16l.63,0c.24,0,.47.06.7.09l.63.12.43.1-.37,1.86c-.17-.06-.45-.13-.84-.22a7.69,7.69,0,0,0-1.5-.12,5.83,5.83,0,0,0-1.18.12l-.77.17v10h-2.14V78.91a15.51,15.51,0,0,1,1.89-.51A12.12,12.12,0,0,1,378.68,78.16Z" transform="translate(-318.77 -72.54)"/><path class="a" d="M392.93,78.41a61.08,61.08,0,0,1-2.1,6.42c-.8,2.06-1.58,3.89-2.33,5.51h-1.93c-.75-1.62-1.52-3.45-2.33-5.51a58.82,58.82,0,0,1-2.09-6.42h2.29c.18.75.4,1.55.65,2.4s.52,1.69.81,2.52.57,1.64.86,2.42.56,1.48.82,2.09c.26-.61.54-1.31.83-2.09s.58-1.58.86-2.42.55-1.67.8-2.52.47-1.65.66-2.4Z" transform="translate(-318.77 -72.54)"/><path class="a" d="M399,78.11a6.23,6.23,0,0,1,2.17.33,3.64,3.64,0,0,1,1.42.94,3.56,3.56,0,0,1,.77,1.45,7.1,7.1,0,0,1,.23,1.85v7.46l-.77.12q-.49.09-1.11.15l-1.35.13c-.48,0-1,.06-1.43.06a7.79,7.79,0,0,1-1.86-.21,4.29,4.29,0,0,1-1.47-.66,3,3,0,0,1-1-1.18,4.12,4.12,0,0,1-.35-1.76,3.37,3.37,0,0,1,.41-1.7,3.09,3.09,0,0,1,1.09-1.15,5.11,5.11,0,0,1,1.6-.64,8.65,8.65,0,0,1,1.93-.21,5.22,5.22,0,0,1,.67,0,6.37,6.37,0,0,1,.65.09l.54.1.32.07v-.6a5.17,5.17,0,0,0-.11-1,2.42,2.42,0,0,0-.42-.92,2.08,2.08,0,0,0-.81-.64,3.21,3.21,0,0,0-1.34-.24,10,10,0,0,0-1.85.15,6.19,6.19,0,0,0-1.18.31l-.26-1.77a7.23,7.23,0,0,1,1.38-.36A12.37,12.37,0,0,1,399,78.11Zm.18,10.7c.51,0,.95,0,1.35,0a4.75,4.75,0,0,0,1-.13V85.09a2.75,2.75,0,0,0-.75-.2,8.74,8.74,0,0,0-1.25-.08,7.39,7.39,0,0,0-1,.07,3,3,0,0,0-1,.29,2.07,2.07,0,0,0-.75.59,1.59,1.59,0,0,0-.3,1,1.72,1.72,0,0,0,.74,1.6A3.78,3.78,0,0,0,399.17,88.81Z" transform="translate(-318.77 -72.54)"/><path class="a" d="M409.11,78.41h4.52V80.2h-4.52v5.51a6.75,6.75,0,0,0,.14,1.48,2.31,2.31,0,0,0,.41.92,1.52,1.52,0,0,0,.69.47,3.05,3.05,0,0,0,1,.13,4.71,4.71,0,0,0,1.55-.21l.82-.31.41,1.76a7.72,7.72,0,0,1-1.13.4,6.33,6.33,0,0,1-1.83.25,5.74,5.74,0,0,1-2-.31,3,3,0,0,1-1.27-.93,3.83,3.83,0,0,1-.68-1.53,10,10,0,0,1-.19-2.1V75.08l2.13-.37Z" transform="translate(-318.77 -72.54)"/><path class="a" d="M426.55,84.38a7.7,7.7,0,0,1-.41,2.57,6.11,6.11,0,0,1-1.16,2,5,5,0,0,1-1.78,1.27,5.85,5.85,0,0,1-4.5,0,5,5,0,0,1-1.78-1.27,6.11,6.11,0,0,1-1.16-2,8.23,8.23,0,0,1,0-5.13,6,6,0,0,1,1.16-2,5.14,5.14,0,0,1,1.78-1.27,5.85,5.85,0,0,1,4.5,0A5.14,5.14,0,0,1,425,79.83a6,6,0,0,1,1.16,2A7.68,7.68,0,0,1,426.55,84.38Zm-2.23,0a5.18,5.18,0,0,0-.9-3.21,3.18,3.18,0,0,0-4.94,0,6.16,6.16,0,0,0,0,6.41,3.18,3.18,0,0,0,4.94,0A5.17,5.17,0,0,0,424.32,84.38Zm-.59-10.49L420.49,77l-1.08-1,2.94-3.53Z" transform="translate(-318.77 -72.54)"/><path class="a" d="M434,78.16l.63,0c.24,0,.47.06.7.09l.63.12.43.1L436,80.36c-.17-.06-.45-.13-.84-.22a7.69,7.69,0,0,0-1.5-.12,5.83,5.83,0,0,0-1.18.12l-.77.17v10h-2.13V78.91a14.82,14.82,0,0,1,1.88-.51A12.12,12.12,0,0,1,434,78.16Z" transform="translate(-318.77 -72.54)"/><path class="a" d="M439.47,76.25a1.43,1.43,0,0,1-1-2.42,1.4,1.4,0,0,1,1-.38,1.36,1.36,0,0,1,1,.38,1.4,1.4,0,0,1-1,2.42Zm1.08,14.09h-2.14V78.41h2.14Z" transform="translate(-318.77 -72.54)"/><path class="a" d="M454.75,84.38a7.7,7.7,0,0,1-.41,2.57,5.94,5.94,0,0,1-1.16,2,5,5,0,0,1-1.78,1.27,5.85,5.85,0,0,1-4.5,0,5,5,0,0,1-1.77-1.27A5.77,5.77,0,0,1,444,87a8,8,0,0,1,0-5.13,5.68,5.68,0,0,1,1.16-2,5.1,5.1,0,0,1,1.77-1.27,5.85,5.85,0,0,1,4.5,0,5.14,5.14,0,0,1,1.78,1.27,5.83,5.83,0,0,1,1.16,2A7.68,7.68,0,0,1,454.75,84.38Zm-2.22,0a5.19,5.19,0,0,0-.91-3.21,3.16,3.16,0,0,0-4.93,0,6.1,6.1,0,0,0,0,6.41,3.16,3.16,0,0,0,4.93,0A5.17,5.17,0,0,0,452.53,84.38Z" transform="translate(-318.77 -72.54)"/><path class="a" d="M470.77,72.9l2.13-.36V90c-.49.14-1.11.27-1.88.41a14.71,14.71,0,0,1-2.64.21,6.67,6.67,0,0,1-2.47-.44A5.23,5.23,0,0,1,464,88.94a5.39,5.39,0,0,1-1.2-2,7.58,7.58,0,0,1-.43-2.6,8.45,8.45,0,0,1,.36-2.53,5.7,5.7,0,0,1,1-2,4.79,4.79,0,0,1,1.69-1.29,5.52,5.52,0,0,1,2.28-.46,5.67,5.67,0,0,1,1.83.28,5.4,5.4,0,0,1,1.18.53Zm0,8a4.51,4.51,0,0,0-1.12-.62A4.43,4.43,0,0,0,468,80a3.44,3.44,0,0,0-1.57.33,2.89,2.89,0,0,0-1.07.92,3.91,3.91,0,0,0-.6,1.39,7.76,7.76,0,0,0-.18,1.72,4.61,4.61,0,0,0,1,3.22,3.55,3.55,0,0,0,2.76,1.14,11.54,11.54,0,0,0,1.45-.08,6.29,6.29,0,0,0,.91-.18Z" transform="translate(-318.77 -72.54)"/><path class="a" d="M480.43,78.11a6.23,6.23,0,0,1,2.17.33,3.64,3.64,0,0,1,1.42.94,3.56,3.56,0,0,1,.77,1.45,7.1,7.1,0,0,1,.23,1.85v7.46l-.77.12q-.5.09-1.11.15c-.41,0-.86.09-1.34.13s-1,.06-1.44.06a7.79,7.79,0,0,1-1.86-.21,4.29,4.29,0,0,1-1.47-.66,3,3,0,0,1-1-1.18,4.12,4.12,0,0,1-.34-1.76,3.37,3.37,0,0,1,.4-1.7,3.17,3.17,0,0,1,1.09-1.15,5.11,5.11,0,0,1,1.6-.64,8.71,8.71,0,0,1,1.93-.21,5.12,5.12,0,0,1,.67,0,6,6,0,0,1,.65.09l.54.1.32.07v-.6a5.17,5.17,0,0,0-.11-1,2.42,2.42,0,0,0-.42-.92,2,2,0,0,0-.81-.64,3.18,3.18,0,0,0-1.34-.24,10,10,0,0,0-1.85.15,6.19,6.19,0,0,0-1.18.31L477,78.64a6.88,6.88,0,0,1,1.37-.36A12.46,12.46,0,0,1,480.43,78.11Zm.18,10.7c.51,0,1,0,1.35,0a4.75,4.75,0,0,0,1-.13V85.09a2.77,2.77,0,0,0-.74-.2,8.84,8.84,0,0,0-1.25-.08,7.43,7.43,0,0,0-1,.07,3.1,3.1,0,0,0-1,.29,2.07,2.07,0,0,0-.75.59,1.59,1.59,0,0,0-.3,1,1.72,1.72,0,0,0,.74,1.6A3.78,3.78,0,0,0,480.61,88.81Z" transform="translate(-318.77 -72.54)"/><path class="a" d="M494,90.34V74.44h9.71v1.9h-7.48v4.73h6.65v1.86h-6.65v5.51h8v1.9Z" transform="translate(-318.77 -72.54)"/><path class="a" d="M511.36,78.16l.64,0,.7.09.63.12.42.1-.37,1.86a7.89,7.89,0,0,0-.83-.22A7.8,7.8,0,0,0,511,80a5.91,5.91,0,0,0-1.18.12l-.77.17v10H507V78.91a14.82,14.82,0,0,1,1.88-.51A12.12,12.12,0,0,1,511.36,78.16Z" transform="translate(-318.77 -72.54)"/><path class="a" d="M520.22,78.16l.63,0c.24,0,.47.06.7.09l.63.12.43.1-.37,1.86c-.17-.06-.45-.13-.84-.22a7.69,7.69,0,0,0-1.5-.12,5.83,5.83,0,0,0-1.18.12l-.77.17v10h-2.13V78.91a14.82,14.82,0,0,1,1.88-.51A12.12,12.12,0,0,1,520.22,78.16Z" transform="translate(-318.77 -72.54)"/><path class="a" d="M528.53,78.11a6.23,6.23,0,0,1,2.17.33,3.64,3.64,0,0,1,1.42.94,3.56,3.56,0,0,1,.77,1.45,7.1,7.1,0,0,1,.23,1.85v7.46l-.77.12q-.5.09-1.11.15l-1.35.13c-.48,0-1,.06-1.43.06a7.79,7.79,0,0,1-1.86-.21,4.29,4.29,0,0,1-1.47-.66,3,3,0,0,1-1-1.18,4.12,4.12,0,0,1-.35-1.76,3.37,3.37,0,0,1,.41-1.7,3.09,3.09,0,0,1,1.09-1.15,5.11,5.11,0,0,1,1.6-.64,8.65,8.65,0,0,1,1.93-.21,5.22,5.22,0,0,1,.67,0,6.37,6.37,0,0,1,.65.09l.54.1.32.07v-.6a5.17,5.17,0,0,0-.11-1,2.42,2.42,0,0,0-.42-.92,2.08,2.08,0,0,0-.81-.64,3.21,3.21,0,0,0-1.34-.24,10,10,0,0,0-1.85.15,6.19,6.19,0,0,0-1.18.31l-.26-1.77a7.23,7.23,0,0,1,1.38-.36A12.37,12.37,0,0,1,528.53,78.11Zm.18,10.7c.51,0,1,0,1.35,0a4.75,4.75,0,0,0,1-.13V85.09a2.75,2.75,0,0,0-.75-.2,8.74,8.74,0,0,0-1.25-.08,7.39,7.39,0,0,0-1,.07,3,3,0,0,0-1,.29,2.07,2.07,0,0,0-.75.59,1.59,1.59,0,0,0-.3,1,1.72,1.72,0,0,0,.74,1.6A3.78,3.78,0,0,0,528.71,88.81Z" transform="translate(-318.77 -72.54)"/><path class="a" d="M544.36,72.9l2.14-.36V90c-.49.14-1.12.27-1.88.41a14.87,14.87,0,0,1-2.64.21,6.68,6.68,0,0,1-2.48-.44,5.19,5.19,0,0,1-1.88-1.24,5.41,5.41,0,0,1-1.21-2,7.58,7.58,0,0,1-.42-2.6,8.46,8.46,0,0,1,.35-2.53,5.72,5.72,0,0,1,1-2,4.85,4.85,0,0,1,1.68-1.29,5.54,5.54,0,0,1,2.29-.46,5.66,5.66,0,0,1,1.82.28,5.4,5.4,0,0,1,1.18.53Zm0,8a4.51,4.51,0,0,0-1.12-.62,4.43,4.43,0,0,0-1.61-.29,3.46,3.46,0,0,0-1.57.33,2.89,2.89,0,0,0-1.07.92,3.9,3.9,0,0,0-.59,1.39,7.19,7.19,0,0,0-.19,1.72,4.62,4.62,0,0,0,1,3.22A3.51,3.51,0,0,0,542,88.74a11.72,11.72,0,0,0,1.46-.08,6.11,6.11,0,0,0,.9-.18Z" transform="translate(-318.77 -72.54)"/><path class="a" d="M551.22,76.25a1.33,1.33,0,0,1-1-.38,1.5,1.5,0,0,1,0-2,1.44,1.44,0,0,1,2,0,1.5,1.5,0,0,1,0,2A1.34,1.34,0,0,1,551.22,76.25Zm1.08,14.09h-2.13V78.41h2.13Z" transform="translate(-318.77 -72.54)"/><path class="a" d="M561.16,90.62a6.65,6.65,0,0,1-2.54-.46,5.13,5.13,0,0,1-2.94-3.25,8,8,0,0,1-.37-2.51,7.48,7.48,0,0,1,.4-2.52,6,6,0,0,1,1.14-2,5.17,5.17,0,0,1,1.8-1.31,5.86,5.86,0,0,1,2.37-.47,9.73,9.73,0,0,1,1.61.14,7.18,7.18,0,0,1,1.54.44l-.48,1.81a5.45,5.45,0,0,0-1.12-.37,6.4,6.4,0,0,0-1.34-.14,3.39,3.39,0,0,0-2.74,1.13,4.92,4.92,0,0,0-1,3.28,7,7,0,0,0,.21,1.77,3.76,3.76,0,0,0,.69,1.37,3,3,0,0,0,1.21.89,4.71,4.71,0,0,0,1.79.31,7.19,7.19,0,0,0,1.53-.16,6,6,0,0,0,1.08-.35l.3,1.79a2.11,2.11,0,0,1-.53.22,6.47,6.47,0,0,1-.78.18c-.29.06-.6.1-.93.14A7.82,7.82,0,0,1,561.16,90.62Z" transform="translate(-318.77 -72.54)"/><path class="a" d="M570.5,78.11a6.23,6.23,0,0,1,2.17.33,3.64,3.64,0,0,1,1.42.94,3.56,3.56,0,0,1,.77,1.45,7.1,7.1,0,0,1,.23,1.85v7.46l-.77.12q-.5.09-1.11.15l-1.34.13c-.49,0-1,.06-1.44.06a7.79,7.79,0,0,1-1.86-.21,4.29,4.29,0,0,1-1.47-.66,3,3,0,0,1-1-1.18,4.12,4.12,0,0,1-.34-1.76,3.37,3.37,0,0,1,.4-1.7,3.09,3.09,0,0,1,1.09-1.15,5.11,5.11,0,0,1,1.6-.64,8.71,8.71,0,0,1,1.93-.21,5.12,5.12,0,0,1,.67,0,6.37,6.37,0,0,1,.65.09l.54.1.32.07v-.6a5.17,5.17,0,0,0-.11-1,2.42,2.42,0,0,0-.42-.92,2.08,2.08,0,0,0-.81-.64,3.21,3.21,0,0,0-1.34-.24,10,10,0,0,0-1.85.15,6.19,6.19,0,0,0-1.18.31L567,78.64a6.88,6.88,0,0,1,1.37-.36A12.37,12.37,0,0,1,570.5,78.11Zm.18,10.7c.51,0,1,0,1.35,0a4.75,4.75,0,0,0,1-.13V85.09a2.77,2.77,0,0,0-.74-.2,9,9,0,0,0-1.26-.08,7.39,7.39,0,0,0-1,.07,3.1,3.1,0,0,0-1,.29,2.07,2.07,0,0,0-.75.59,1.59,1.59,0,0,0-.3,1,1.72,1.72,0,0,0,.74,1.6A3.78,3.78,0,0,0,570.68,88.81Z" transform="translate(-318.77 -72.54)"/><path class="a" d="M584.09,90.62l-.26.57a2.79,2.79,0,0,1,1,.7,1.77,1.77,0,0,1,.3,1.11,1.53,1.53,0,0,1-.12.56,1.64,1.64,0,0,1-.39.55,2.29,2.29,0,0,1-.73.41,3.38,3.38,0,0,1-1.13.16,6.08,6.08,0,0,1-1.09-.09,4.18,4.18,0,0,1-.79-.21l.25-1.31a5.08,5.08,0,0,0,.59.16,3,3,0,0,0,.7.07c.55,0,.82-.17.82-.52a.51.51,0,0,0-.25-.43,3.9,3.9,0,0,0-.71-.35l-.16-.07c.06-.19.14-.41.25-.67a7.05,7.05,0,0,1,.35-.73,5.69,5.69,0,0,1-2.06-.68,4.81,4.81,0,0,1-1.48-1.32,5.67,5.67,0,0,1-.89-1.85,8.17,8.17,0,0,1-.3-2.28,7.48,7.48,0,0,1,.4-2.52,6,6,0,0,1,1.14-2,5.17,5.17,0,0,1,1.8-1.31,5.86,5.86,0,0,1,2.37-.47,9.73,9.73,0,0,1,1.61.14,7.35,7.35,0,0,1,1.54.44l-.49,1.81a5.16,5.16,0,0,0-1.11-.37,6.4,6.4,0,0,0-1.34-.14,3.39,3.39,0,0,0-2.74,1.13,4.92,4.92,0,0,0-1,3.28,7,7,0,0,0,.22,1.77,3.76,3.76,0,0,0,.69,1.37,3,3,0,0,0,1.21.89,4.71,4.71,0,0,0,1.79.31,7.19,7.19,0,0,0,1.53-.16,6,6,0,0,0,1.08-.35L587,90a4.4,4.4,0,0,1-.49.2,5.47,5.47,0,0,1-.7.18l-.84.14C584.67,90.58,584.38,90.6,584.09,90.62Z" transform="translate(-318.77 -72.54)"/><path class="a" d="M593.15,78.11a6.23,6.23,0,0,1,2.17.33,3.64,3.64,0,0,1,1.42.94,3.56,3.56,0,0,1,.77,1.45,7.1,7.1,0,0,1,.23,1.85v7.46l-.77.12q-.5.09-1.11.15l-1.34.13c-.49,0-1,.06-1.44.06a7.79,7.79,0,0,1-1.86-.21,4.29,4.29,0,0,1-1.47-.66,3,3,0,0,1-1-1.18,4.12,4.12,0,0,1-.34-1.76,3.37,3.37,0,0,1,.4-1.7,3.09,3.09,0,0,1,1.09-1.15,5.11,5.11,0,0,1,1.6-.64,8.71,8.71,0,0,1,1.93-.21,5.12,5.12,0,0,1,.67,0,6.37,6.37,0,0,1,.65.09l.54.1.32.07v-.6a5.17,5.17,0,0,0-.11-1,2.42,2.42,0,0,0-.42-.92,2.08,2.08,0,0,0-.81-.64A3.21,3.21,0,0,0,593,80a10,10,0,0,0-1.85.15,6.19,6.19,0,0,0-1.18.31l-.25-1.77a6.88,6.88,0,0,1,1.37-.36A12.37,12.37,0,0,1,593.15,78.11ZM597.28,74c-.08.18-.18.39-.31.64a3.16,3.16,0,0,1-.49.68,2.84,2.84,0,0,1-.7.52,1.78,1.78,0,0,1-.89.22,2.27,2.27,0,0,1-.86-.16l-.77-.34a5.11,5.11,0,0,0-.66-.28,1.69,1.69,0,0,0-.53-.09,1,1,0,0,0-.72.32,2.56,2.56,0,0,0-.52.69l-1.1-.55A3.52,3.52,0,0,1,590,75a3.31,3.31,0,0,1,.5-.68,3.07,3.07,0,0,1,.7-.53,1.92,1.92,0,0,1,.89-.22,2.48,2.48,0,0,1,.86.16c.27.11.52.23.77.35a6.65,6.65,0,0,0,.66.27,1.5,1.5,0,0,0,.53.1,1,1,0,0,0,.72-.33,2.52,2.52,0,0,0,.52-.68Zm-3.95,14.78c.51,0,1,0,1.35,0a4.75,4.75,0,0,0,1-.13V85.09a2.77,2.77,0,0,0-.74-.2,9,9,0,0,0-1.26-.08,7.39,7.39,0,0,0-1,.07,3.1,3.1,0,0,0-1,.29,2.07,2.07,0,0,0-.75.59,1.59,1.59,0,0,0-.3,1,1.72,1.72,0,0,0,.74,1.6A3.78,3.78,0,0,0,593.33,88.81Z" transform="translate(-318.77 -72.54)"/><path class="a" d="M611.81,84.38a7.45,7.45,0,0,1-.42,2.57,5.77,5.77,0,0,1-1.16,2,5,5,0,0,1-1.77,1.27,5.85,5.85,0,0,1-4.5,0,5,5,0,0,1-1.78-1.27A5.94,5.94,0,0,1,601,87a8.23,8.23,0,0,1,0-5.13,5.83,5.83,0,0,1,1.16-2A5.14,5.14,0,0,1,604,78.56a5.85,5.85,0,0,1,4.5,0,5.1,5.1,0,0,1,1.77,1.27,5.68,5.68,0,0,1,1.16,2A7.43,7.43,0,0,1,611.81,84.38Zm-2.23,0a5.12,5.12,0,0,0-.91-3.21,3.16,3.16,0,0,0-4.93,0,6.1,6.1,0,0,0,0,6.41,3.16,3.16,0,0,0,4.93,0A5.11,5.11,0,0,0,609.58,84.38Z" transform="translate(-318.77 -72.54)"/><path class="a" d="M627.82,72.9l2.14-.36V90c-.49.14-1.12.27-1.88.41a14.87,14.87,0,0,1-2.64.21,6.68,6.68,0,0,1-2.48-.44,5.27,5.27,0,0,1-1.88-1.24,5.55,5.55,0,0,1-1.21-2,7.58,7.58,0,0,1-.42-2.6,8.79,8.79,0,0,1,.35-2.53,5.72,5.72,0,0,1,1.05-2,4.85,4.85,0,0,1,1.68-1.29,5.54,5.54,0,0,1,2.29-.46,5.61,5.61,0,0,1,1.82.28,5.4,5.4,0,0,1,1.18.53Zm0,8a4.51,4.51,0,0,0-1.12-.62,4.43,4.43,0,0,0-1.61-.29,3.46,3.46,0,0,0-1.57.33,3,3,0,0,0-1.07.92,3.9,3.9,0,0,0-.59,1.39,7.74,7.74,0,0,0-.19,1.72,4.62,4.62,0,0,0,1,3.22,3.52,3.52,0,0,0,2.75,1.14,11.72,11.72,0,0,0,1.46-.08,6.11,6.11,0,0,0,.9-.18Z" transform="translate(-318.77 -72.54)"/><path class="a" d="M644.16,84.38a7.45,7.45,0,0,1-.41,2.57,5.94,5.94,0,0,1-1.16,2,5,5,0,0,1-1.78,1.27,5.85,5.85,0,0,1-4.5,0,5,5,0,0,1-1.77-1.27,5.77,5.77,0,0,1-1.16-2,8,8,0,0,1,0-5.13,5.68,5.68,0,0,1,1.16-2,5.1,5.1,0,0,1,1.77-1.27,5.85,5.85,0,0,1,4.5,0,5.14,5.14,0,0,1,1.78,1.27,5.83,5.83,0,0,1,1.16,2A7.43,7.43,0,0,1,644.16,84.38Zm-2.22,0a5.19,5.19,0,0,0-.91-3.21,3.16,3.16,0,0,0-4.93,0,6.1,6.1,0,0,0,0,6.41,3.16,3.16,0,0,0,4.93,0A5.17,5.17,0,0,0,641.94,84.38Z" transform="translate(-318.77 -72.54)"/></svg>