<?xml version="1.0" encoding="utf-8"?>
<!-- Generator: Adobe Illustrator 14.0.0, SVG Export Plug-In . SVG Version: 6.00 Build 43363)  -->
<!DOCTYPE svg PUBLIC "-//W3C//DTD SVG 1.1//EN" "http://www.w3.org/Graphics/SVG/1.1/DTD/svg11.dtd">
<svg version="1.1" xmlns="http://www.w3.org/2000/svg" xmlns:xlink="http://www.w3.org/1999/xlink" x="0px" y="0px"
	 width="510.126px" height="105.286px" viewBox="0 0 510.126 105.286" enable-background="new 0 0 510.126 105.286"
	 xml:space="preserve">
<g id="Fundo">
</g>
<g id="Textos">
</g>
<g id="Guias">
</g>
<g id="Logo">
	<g>
		<g id="Inferior">
			<path fill="#FFFFFF" d="M9.398,78.324c1.9,0,3.361,0.361,4.383,1.084c1.022,0.722,1.533,1.799,1.533,3.231
				c0,0.781-0.14,1.448-0.419,2.001c-0.28,0.553-0.684,1.002-1.211,1.347c-0.527,0.345-1.168,0.596-1.923,0.752
				c-0.755,0.156-1.608,0.234-2.558,0.234H7.7v5.018H5.806V78.656c0.534-0.13,1.129-0.218,1.787-0.264
				C8.25,78.347,8.852,78.324,9.398,78.324z M9.555,79.983c-0.807,0-1.425,0.02-1.854,0.059v5.311h1.425
				c0.65,0,1.236-0.042,1.757-0.127s0.96-0.228,1.318-0.43c0.358-0.202,0.635-0.479,0.83-0.83c0.195-0.352,0.293-0.801,0.293-1.348
				c0-0.52-0.101-0.95-0.303-1.289c-0.202-0.338-0.476-0.608-0.82-0.81c-0.345-0.202-0.745-0.342-1.201-0.42
				S10.063,79.983,9.555,79.983z"/>
			<path fill="#FFFFFF" d="M21.308,81.624c0.156,0,0.335,0.01,0.537,0.029c0.202,0.02,0.4,0.046,0.596,0.078
				c0.195,0.033,0.374,0.065,0.537,0.098c0.163,0.033,0.283,0.062,0.361,0.088l-0.313,1.582c-0.144-0.052-0.381-0.114-0.712-0.186
				c-0.332-0.071-0.759-0.107-1.279-0.107c-0.339,0-0.674,0.036-1.006,0.107c-0.332,0.072-0.55,0.121-0.654,0.146v8.532H17.56
				v-9.723c0.43-0.156,0.963-0.303,1.601-0.439C19.798,81.692,20.514,81.624,21.308,81.624z"/>
			<path fill="#FFFFFF" d="M34.058,86.915c0,0.807-0.117,1.536-0.352,2.187s-0.563,1.21-0.986,1.679
				c-0.423,0.469-0.928,0.83-1.513,1.083c-0.586,0.254-1.224,0.381-1.914,0.381s-1.328-0.127-1.914-0.381
				c-0.585-0.254-1.09-0.615-1.513-1.083s-0.751-1.028-0.986-1.679s-0.352-1.379-0.352-2.187c0-0.794,0.117-1.52,0.352-2.177
				s0.563-1.22,0.986-1.689s0.928-0.83,1.513-1.083c0.586-0.254,1.224-0.381,1.914-0.381s1.328,0.127,1.914,0.381
				c0.585,0.254,1.09,0.615,1.513,1.083c0.423,0.469,0.751,1.032,0.986,1.689S34.058,86.121,34.058,86.915z M32.164,86.915
				c0-1.146-0.257-2.053-0.771-2.724c-0.515-0.67-1.214-1.005-2.099-1.005s-1.585,0.335-2.099,1.005
				c-0.514,0.671-0.771,1.579-0.771,2.724s0.257,2.053,0.771,2.724s1.214,1.005,2.099,1.005s1.584-0.335,2.099-1.005
				C31.906,88.968,32.164,88.061,32.164,86.915z"/>
			<path fill="#FFFFFF" d="M38.314,81.838h3.846v1.523h-3.846v4.686c0,0.507,0.039,0.927,0.117,1.259s0.195,0.592,0.351,0.781
				c0.156,0.189,0.352,0.322,0.586,0.4s0.508,0.117,0.82,0.117c0.547,0,0.986-0.062,1.318-0.186
				c0.332-0.124,0.563-0.211,0.693-0.264l0.352,1.503c-0.183,0.091-0.501,0.205-0.957,0.342s-0.976,0.205-1.562,0.205
				c-0.69,0-1.26-0.088-1.708-0.264c-0.449-0.176-0.811-0.439-1.084-0.791c-0.273-0.352-0.465-0.784-0.576-1.299
				c-0.111-0.514-0.166-1.109-0.166-1.786v-9.06l1.816-0.313V81.838z"/>
			<path fill="#FFFFFF" d="M43.703,86.934c0-0.898,0.13-1.682,0.391-2.353c0.26-0.67,0.605-1.227,1.035-1.669
				c0.43-0.442,0.924-0.774,1.484-0.996c0.56-0.221,1.133-0.332,1.718-0.332c1.367,0,2.415,0.427,3.144,1.279
				c0.729,0.853,1.093,2.151,1.093,3.896c0,0.078,0,0.179,0,0.302c0,0.124-0.007,0.238-0.02,0.342h-6.951
				c0.078,1.054,0.384,1.855,0.917,2.402c0.534,0.546,1.367,0.82,2.5,0.82c0.637,0,1.174-0.055,1.611-0.166
				c0.436-0.11,0.764-0.218,0.986-0.322l0.254,1.523c-0.222,0.117-0.609,0.241-1.162,0.371s-1.181,0.195-1.884,0.195
				c-0.885,0-1.65-0.134-2.294-0.4c-0.644-0.267-1.175-0.634-1.591-1.103s-0.726-1.025-0.927-1.669
				C43.803,88.408,43.703,87.703,43.703,86.934z M50.673,85.938c0.013-0.82-0.192-1.494-0.615-2.021
				c-0.423-0.527-1.005-0.791-1.748-0.791c-0.417,0-0.784,0.082-1.103,0.244c-0.319,0.163-0.589,0.375-0.811,0.635
				s-0.394,0.56-0.517,0.898c-0.124,0.338-0.205,0.683-0.244,1.035H50.673z"/>
			<path fill="#FFFFFF" d="M59.83,92.226l-0.215,0.488c0.377,0.182,0.651,0.38,0.82,0.595s0.254,0.53,0.254,0.947
				c0,0.143-0.033,0.299-0.098,0.469c-0.065,0.169-0.176,0.325-0.332,0.469c-0.156,0.143-0.364,0.26-0.625,0.352
				c-0.261,0.091-0.58,0.136-0.957,0.136c-0.339,0-0.648-0.026-0.928-0.078c-0.28-0.052-0.504-0.111-0.673-0.176l0.214-1.113
				c0.156,0.052,0.322,0.098,0.498,0.137s0.374,0.059,0.596,0.059c0.468,0,0.703-0.15,0.703-0.449c0-0.144-0.072-0.264-0.215-0.361
				s-0.345-0.199-0.605-0.303l-0.137-0.059c0.052-0.156,0.124-0.345,0.215-0.566c0.091-0.221,0.188-0.429,0.293-0.625
				c-0.664-0.091-1.247-0.283-1.748-0.576c-0.501-0.293-0.921-0.667-1.259-1.123c-0.339-0.456-0.593-0.979-0.762-1.572
				c-0.169-0.592-0.254-1.24-0.254-1.943c0-0.781,0.114-1.497,0.342-2.147c0.228-0.651,0.55-1.213,0.966-1.689
				c0.417-0.475,0.928-0.846,1.533-1.113c0.605-0.267,1.279-0.4,2.021-0.4c0.456,0,0.911,0.039,1.367,0.117s0.892,0.202,1.308,0.371
				l-0.41,1.542c-0.273-0.13-0.589-0.234-0.947-0.313s-0.739-0.117-1.142-0.117c-1.015,0-1.793,0.319-2.333,0.957
				c-0.54,0.638-0.81,1.569-0.81,2.792c0,0.547,0.062,1.048,0.186,1.503c0.124,0.456,0.319,0.847,0.585,1.172
				c0.267,0.325,0.608,0.576,1.025,0.751c0.417,0.176,0.924,0.264,1.523,0.264c0.481,0,0.917-0.045,1.308-0.137
				c0.391-0.091,0.696-0.188,0.917-0.293l0.254,1.523c-0.104,0.052-0.244,0.107-0.42,0.166s-0.374,0.11-0.595,0.156
				c-0.222,0.045-0.459,0.084-0.713,0.117C60.328,92.189,60.077,92.212,59.83,92.226z"/>
			<path fill="#FFFFFF" d="M67.542,81.584c0.729,0,1.344,0.095,1.845,0.283c0.501,0.189,0.905,0.456,1.211,0.8
				c0.306,0.345,0.523,0.755,0.654,1.23c0.13,0.475,0.195,0.999,0.195,1.572v6.345c-0.156,0.026-0.375,0.062-0.654,0.107
				c-0.28,0.046-0.595,0.088-0.947,0.127s-0.732,0.075-1.142,0.107c-0.41,0.032-0.817,0.049-1.22,0.049
				c-0.573,0-1.1-0.059-1.582-0.176c-0.482-0.117-0.898-0.303-1.25-0.557c-0.352-0.253-0.625-0.588-0.82-1.005
				c-0.195-0.417-0.293-0.917-0.293-1.503c0-0.56,0.114-1.041,0.342-1.445c0.228-0.403,0.537-0.729,0.928-0.976
				c0.39-0.247,0.846-0.43,1.367-0.547c0.52-0.117,1.067-0.176,1.64-0.176c0.182,0,0.371,0.01,0.566,0.029s0.381,0.046,0.557,0.078
				c0.176,0.033,0.329,0.062,0.458,0.088c0.13,0.026,0.221,0.046,0.273,0.059v-0.508c0-0.299-0.033-0.595-0.098-0.888
				s-0.182-0.553-0.352-0.781c-0.169-0.228-0.4-0.41-0.693-0.547s-0.674-0.205-1.142-0.205c-0.599,0-1.123,0.042-1.572,0.127
				c-0.449,0.085-0.784,0.173-1.005,0.264l-0.215-1.503c0.234-0.104,0.625-0.205,1.171-0.303S66.904,81.584,67.542,81.584z
				 M71.057,78.109c-0.065,0.156-0.153,0.338-0.264,0.546c-0.11,0.208-0.25,0.4-0.419,0.576c-0.169,0.176-0.368,0.325-0.596,0.449
				c-0.228,0.124-0.479,0.186-0.751,0.186c-0.261,0-0.505-0.045-0.732-0.137c-0.228-0.091-0.446-0.188-0.654-0.292
				c-0.222-0.104-0.41-0.182-0.566-0.234c-0.156-0.052-0.306-0.078-0.449-0.078c-0.221,0-0.426,0.091-0.615,0.273
				c-0.189,0.182-0.335,0.377-0.439,0.585l-0.937-0.468c0.052-0.156,0.137-0.338,0.253-0.547c0.117-0.208,0.26-0.4,0.43-0.576
				c0.169-0.175,0.368-0.325,0.596-0.449c0.228-0.124,0.478-0.186,0.751-0.186c0.26,0,0.504,0.046,0.732,0.137
				c0.228,0.091,0.446,0.188,0.654,0.293c0.221,0.104,0.41,0.182,0.566,0.234c0.156,0.052,0.306,0.078,0.449,0.078
				c0.221,0,0.426-0.091,0.615-0.273c0.188-0.182,0.335-0.377,0.439-0.586L71.057,78.109z M67.699,90.683
				c0.429,0,0.81-0.01,1.142-0.029s0.608-0.055,0.83-0.107V87.52c-0.13-0.065-0.342-0.12-0.634-0.166
				c-0.293-0.045-0.648-0.068-1.064-0.068c-0.273,0-0.563,0.02-0.869,0.059c-0.306,0.039-0.586,0.121-0.839,0.244
				c-0.254,0.124-0.466,0.293-0.635,0.508c-0.169,0.215-0.254,0.498-0.254,0.849c0,0.651,0.208,1.103,0.625,1.357
				C66.417,90.556,66.982,90.683,67.699,90.683z"/>
			<path fill="#FFFFFF" d="M83.416,86.915c0,0.807-0.117,1.536-0.352,2.187s-0.563,1.21-0.986,1.679
				c-0.423,0.469-0.928,0.83-1.513,1.083c-0.586,0.254-1.224,0.381-1.914,0.381s-1.328-0.127-1.914-0.381
				c-0.585-0.254-1.09-0.615-1.513-1.083s-0.751-1.028-0.986-1.679s-0.352-1.379-0.352-2.187c0-0.794,0.117-1.52,0.352-2.177
				s0.563-1.22,0.986-1.689s0.928-0.83,1.513-1.083c0.586-0.254,1.224-0.381,1.914-0.381s1.328,0.127,1.914,0.381
				c0.585,0.254,1.09,0.615,1.513,1.083c0.423,0.469,0.751,1.032,0.986,1.689S83.416,86.121,83.416,86.915z M81.521,86.915
				c0-1.146-0.257-2.053-0.771-2.724c-0.515-0.67-1.214-1.005-2.099-1.005s-1.585,0.335-2.099,1.005
				c-0.514,0.671-0.771,1.579-0.771,2.724s0.257,2.053,0.771,2.724s1.214,1.005,2.099,1.005s1.584-0.335,2.099-1.005
				C81.264,88.968,81.521,88.061,81.521,86.915z"/>
			<path fill="#FFFFFF" d="M90.6,78.46h1.894v13.531H90.6V78.46z"/>
			<path fill="#FFFFFF" d="M95.735,82.131c0.417-0.104,0.97-0.215,1.66-0.332c0.689-0.117,1.484-0.176,2.382-0.176
				c0.807,0,1.477,0.114,2.011,0.342c0.534,0.228,0.959,0.547,1.279,0.957c0.319,0.41,0.543,0.902,0.673,1.474
				c0.13,0.573,0.195,1.204,0.195,1.894v5.701h-1.815v-5.311c0-0.625-0.042-1.159-0.127-1.601c-0.085-0.442-0.225-0.801-0.42-1.074
				c-0.195-0.273-0.456-0.472-0.781-0.596c-0.325-0.124-0.729-0.186-1.21-0.186c-0.195,0-0.397,0.007-0.605,0.02
				c-0.208,0.013-0.407,0.029-0.596,0.049c-0.189,0.02-0.358,0.042-0.508,0.068c-0.149,0.026-0.257,0.046-0.322,0.059v8.571h-1.816
				V82.131z"/>
			<path fill="#FFFFFF" d="M108.641,81.838h3.846v1.523h-3.846v4.686c0,0.507,0.039,0.927,0.117,1.259s0.195,0.592,0.351,0.781
				c0.156,0.189,0.352,0.322,0.586,0.4s0.508,0.117,0.82,0.117c0.547,0,0.986-0.062,1.318-0.186
				c0.332-0.124,0.563-0.211,0.693-0.264l0.352,1.503c-0.183,0.091-0.501,0.205-0.957,0.342s-0.976,0.205-1.562,0.205
				c-0.69,0-1.26-0.088-1.708-0.264c-0.449-0.176-0.811-0.439-1.084-0.791c-0.273-0.352-0.465-0.784-0.576-1.299
				c-0.111-0.514-0.166-1.109-0.166-1.786v-9.06l1.816-0.313V81.838z"/>
			<path fill="#FFFFFF" d="M114.029,86.934c0-0.898,0.13-1.682,0.391-2.353c0.26-0.67,0.605-1.227,1.035-1.669
				c0.43-0.442,0.924-0.774,1.484-0.996c0.56-0.221,1.133-0.332,1.718-0.332c1.367,0,2.415,0.427,3.144,1.279
				c0.729,0.853,1.093,2.151,1.093,3.896c0,0.078,0,0.179,0,0.302c0,0.124-0.007,0.238-0.02,0.342h-6.951
				c0.078,1.054,0.384,1.855,0.917,2.402c0.534,0.546,1.367,0.82,2.5,0.82c0.637,0,1.174-0.055,1.611-0.166
				c0.436-0.11,0.764-0.218,0.986-0.322l0.254,1.523c-0.222,0.117-0.609,0.241-1.162,0.371s-1.181,0.195-1.884,0.195
				c-0.885,0-1.65-0.134-2.294-0.4c-0.644-0.267-1.175-0.634-1.591-1.103s-0.726-1.025-0.927-1.669
				C114.13,88.408,114.029,87.703,114.029,86.934z M121,85.938c0.013-0.82-0.192-1.494-0.615-2.021
				c-0.423-0.527-1.005-0.791-1.748-0.791c-0.417,0-0.784,0.082-1.103,0.244c-0.319,0.163-0.589,0.375-0.811,0.635
				s-0.394,0.56-0.517,0.898c-0.124,0.338-0.205,0.683-0.244,1.035H121z"/>
			<path fill="#FFFFFF" d="M131.875,90.976c-0.156,0.104-0.459,0.237-0.908,0.4c-0.449,0.163-0.973,0.244-1.572,0.244
				c-0.612,0-1.188-0.098-1.728-0.293c-0.54-0.195-1.012-0.498-1.416-0.908s-0.722-0.921-0.957-1.533s-0.352-1.34-0.352-2.187
				c0-0.742,0.11-1.422,0.332-2.041c0.221-0.618,0.543-1.152,0.966-1.601s0.94-0.8,1.552-1.054s1.302-0.381,2.07-0.381
				c0.846,0,1.584,0.062,2.216,0.186c0.631,0.124,1.162,0.238,1.591,0.342v9.06c0,1.562-0.403,2.694-1.21,3.397
				c-0.807,0.703-2.03,1.054-3.67,1.054c-0.638,0-1.24-0.052-1.806-0.156c-0.566-0.104-1.058-0.228-1.474-0.371l0.332-1.582
				c0.364,0.143,0.81,0.27,1.337,0.381c0.527,0.11,1.077,0.166,1.65,0.166c1.08,0,1.858-0.215,2.333-0.645s0.713-1.113,0.713-2.05
				V90.976z M131.855,83.439c-0.183-0.052-0.427-0.101-0.732-0.146c-0.306-0.045-0.719-0.068-1.24-0.068
				c-0.976,0-1.728,0.319-2.255,0.957c-0.527,0.638-0.791,1.484-0.791,2.539c0,0.585,0.075,1.087,0.225,1.503
				c0.149,0.417,0.352,0.761,0.605,1.035c0.254,0.273,0.547,0.475,0.879,0.605c0.332,0.13,0.673,0.195,1.025,0.195
				c0.481,0,0.924-0.068,1.328-0.205c0.403-0.136,0.723-0.296,0.957-0.478V83.439z"/>
			<path fill="#FFFFFF" d="M140.543,81.624c0.156,0,0.335,0.01,0.537,0.029c0.202,0.02,0.4,0.046,0.596,0.078
				c0.195,0.033,0.374,0.065,0.537,0.098c0.163,0.033,0.283,0.062,0.361,0.088l-0.313,1.582c-0.144-0.052-0.381-0.114-0.712-0.186
				c-0.332-0.071-0.759-0.107-1.279-0.107c-0.339,0-0.674,0.036-1.006,0.107c-0.332,0.072-0.55,0.121-0.654,0.146v8.532h-1.816
				v-9.723c0.43-0.156,0.963-0.303,1.601-0.439C139.034,81.692,139.75,81.624,140.543,81.624z"/>
			<path fill="#FFFFFF" d="M147.611,81.584c0.729,0,1.344,0.095,1.845,0.283c0.501,0.189,0.905,0.456,1.211,0.8
				c0.306,0.345,0.523,0.755,0.654,1.23c0.13,0.475,0.195,0.999,0.195,1.572v6.345c-0.156,0.026-0.375,0.062-0.654,0.107
				c-0.28,0.046-0.595,0.088-0.947,0.127s-0.732,0.075-1.142,0.107c-0.41,0.032-0.817,0.049-1.22,0.049
				c-0.573,0-1.1-0.059-1.582-0.176c-0.482-0.117-0.898-0.303-1.25-0.557c-0.352-0.253-0.625-0.588-0.82-1.005
				c-0.195-0.417-0.293-0.917-0.293-1.503c0-0.56,0.114-1.041,0.342-1.445c0.228-0.403,0.537-0.729,0.928-0.976
				c0.39-0.247,0.846-0.43,1.367-0.547c0.52-0.117,1.067-0.176,1.64-0.176c0.182,0,0.371,0.01,0.566,0.029s0.381,0.046,0.557,0.078
				c0.176,0.033,0.329,0.062,0.458,0.088c0.13,0.026,0.221,0.046,0.273,0.059v-0.508c0-0.299-0.033-0.595-0.098-0.888
				s-0.182-0.553-0.352-0.781c-0.169-0.228-0.4-0.41-0.693-0.547s-0.674-0.205-1.142-0.205c-0.599,0-1.123,0.042-1.572,0.127
				c-0.449,0.085-0.784,0.173-1.005,0.264l-0.215-1.503c0.234-0.104,0.625-0.205,1.171-0.303S146.973,81.584,147.611,81.584z
				 M147.768,90.683c0.429,0,0.81-0.01,1.142-0.029s0.608-0.055,0.83-0.107V87.52c-0.13-0.065-0.342-0.12-0.634-0.166
				c-0.293-0.045-0.648-0.068-1.064-0.068c-0.273,0-0.563,0.02-0.869,0.059c-0.306,0.039-0.586,0.121-0.839,0.244
				c-0.254,0.124-0.466,0.293-0.635,0.508c-0.169,0.215-0.254,0.498-0.254,0.849c0,0.651,0.208,1.103,0.625,1.357
				C146.485,90.556,147.051,90.683,147.768,90.683z"/>
			<path fill="#FFFFFF" d="M157.569,92.187c-1.12-0.026-1.914-0.267-2.382-0.723c-0.468-0.455-0.703-1.165-0.703-2.128V77.152
				l1.816-0.313v12.203c0,0.3,0.026,0.547,0.078,0.742c0.052,0.195,0.137,0.351,0.253,0.468c0.117,0.117,0.273,0.205,0.469,0.264
				s0.436,0.107,0.723,0.146L157.569,92.187z"/>
			<path fill="#FFFFFF" d="M172.739,85.333h1.894v6.326c-0.156,0.052-0.381,0.111-0.674,0.176c-0.292,0.065-0.631,0.13-1.015,0.195
				c-0.384,0.065-0.804,0.12-1.259,0.166c-0.456,0.045-0.917,0.068-1.386,0.068c-0.95,0-1.816-0.156-2.597-0.469
				c-0.781-0.313-1.452-0.768-2.011-1.367c-0.56-0.599-0.993-1.334-1.298-2.206c-0.306-0.872-0.459-1.875-0.459-3.007
				c0-1.133,0.172-2.138,0.518-3.017c0.345-0.879,0.81-1.617,1.396-2.216c0.585-0.599,1.272-1.054,2.06-1.367
				s1.63-0.468,2.529-0.468c0.611,0,1.155,0.039,1.63,0.117c0.475,0.078,0.881,0.169,1.22,0.273c0.338,0.104,0.615,0.208,0.83,0.313
				c0.215,0.104,0.361,0.183,0.439,0.234l-0.605,1.582c-0.377-0.247-0.878-0.452-1.503-0.615c-0.625-0.163-1.263-0.244-1.913-0.244
				c-0.69,0-1.318,0.124-1.884,0.371c-0.566,0.248-1.048,0.605-1.445,1.074c-0.397,0.469-0.706,1.039-0.927,1.708
				c-0.222,0.671-0.332,1.422-0.332,2.255c0,0.807,0.094,1.542,0.283,2.206c0.188,0.664,0.475,1.233,0.859,1.708
				c0.384,0.475,0.859,0.843,1.425,1.103c0.566,0.261,1.233,0.391,2.001,0.391c0.546,0,1.012-0.029,1.396-0.088
				c0.384-0.059,0.66-0.114,0.83-0.166V85.333z"/>
			<path fill="#FFFFFF" d="M185.566,91.698c-0.417,0.104-0.966,0.215-1.65,0.332c-0.683,0.117-1.474,0.176-2.372,0.176
				c-0.781,0-1.438-0.114-1.972-0.342s-0.963-0.55-1.289-0.966s-0.56-0.908-0.703-1.474c-0.144-0.566-0.215-1.194-0.215-1.884
				v-5.701h1.816v5.311c0,1.237,0.195,2.122,0.585,2.656c0.391,0.534,1.048,0.8,1.972,0.8c0.195,0,0.397-0.006,0.605-0.02
				c0.208-0.013,0.403-0.029,0.585-0.049s0.348-0.039,0.498-0.059c0.149-0.02,0.257-0.042,0.322-0.068v-8.571h1.815V91.698z"/>
			<path fill="#FFFFFF" d="M189.588,80.003c-0.325,0-0.602-0.107-0.83-0.322c-0.228-0.214-0.342-0.504-0.342-0.869
				c0-0.364,0.114-0.654,0.342-0.869c0.228-0.215,0.504-0.322,0.83-0.322s0.602,0.107,0.83,0.322
				c0.228,0.215,0.341,0.504,0.341,0.869c0,0.365-0.114,0.654-0.341,0.869C190.19,79.896,189.914,80.003,189.588,80.003z
				 M190.506,91.991h-1.816V81.838h1.816V91.991z"/>
			<path fill="#FFFFFF" d="M196.91,81.584c0.729,0,1.344,0.095,1.845,0.283c0.501,0.189,0.905,0.456,1.211,0.8
				c0.306,0.345,0.523,0.755,0.654,1.23c0.13,0.475,0.195,0.999,0.195,1.572v6.345c-0.156,0.026-0.375,0.062-0.654,0.107
				c-0.28,0.046-0.595,0.088-0.947,0.127s-0.732,0.075-1.142,0.107c-0.41,0.032-0.817,0.049-1.22,0.049
				c-0.573,0-1.1-0.059-1.582-0.176c-0.482-0.117-0.898-0.303-1.25-0.557c-0.352-0.253-0.625-0.588-0.82-1.005
				c-0.195-0.417-0.293-0.917-0.293-1.503c0-0.56,0.114-1.041,0.342-1.445c0.228-0.403,0.537-0.729,0.928-0.976
				c0.39-0.247,0.846-0.43,1.367-0.547c0.52-0.117,1.067-0.176,1.64-0.176c0.182,0,0.371,0.01,0.566,0.029s0.381,0.046,0.557,0.078
				c0.176,0.033,0.329,0.062,0.458,0.088c0.13,0.026,0.221,0.046,0.273,0.059v-0.508c0-0.299-0.033-0.595-0.098-0.888
				s-0.182-0.553-0.352-0.781c-0.169-0.228-0.4-0.41-0.693-0.547s-0.674-0.205-1.142-0.205c-0.599,0-1.123,0.042-1.572,0.127
				c-0.449,0.085-0.784,0.173-1.005,0.264l-0.215-1.503c0.234-0.104,0.625-0.205,1.171-0.303S196.272,81.584,196.91,81.584z
				 M197.066,90.683c0.429,0,0.81-0.01,1.142-0.029s0.608-0.055,0.83-0.107V87.52c-0.13-0.065-0.342-0.12-0.634-0.166
				c-0.293-0.045-0.648-0.068-1.064-0.068c-0.273,0-0.563,0.02-0.869,0.059c-0.306,0.039-0.586,0.121-0.839,0.244
				c-0.254,0.124-0.466,0.293-0.635,0.508c-0.169,0.215-0.254,0.498-0.254,0.849c0,0.651,0.208,1.103,0.625,1.357
				C195.784,90.556,196.35,90.683,197.066,90.683z"/>
			<path fill="#FFFFFF" d="M210.381,77.152l1.816-0.313v14.858c-0.417,0.117-0.95,0.234-1.601,0.352s-1.399,0.176-2.245,0.176
				c-0.781,0-1.484-0.124-2.109-0.371c-0.625-0.247-1.159-0.599-1.601-1.054s-0.784-1.012-1.025-1.669
				c-0.241-0.657-0.361-1.396-0.361-2.216c0-0.781,0.101-1.497,0.303-2.148c0.202-0.651,0.498-1.21,0.888-1.679
				c0.391-0.469,0.869-0.833,1.436-1.093c0.566-0.26,1.213-0.391,1.942-0.391c0.586,0,1.103,0.078,1.552,0.234
				s0.784,0.306,1.005,0.449V77.152z M210.381,83.986c-0.221-0.182-0.54-0.358-0.957-0.527c-0.417-0.169-0.872-0.254-1.367-0.254
				c-0.521,0-0.966,0.095-1.337,0.283c-0.371,0.189-0.674,0.449-0.908,0.781c-0.234,0.332-0.404,0.726-0.508,1.182
				c-0.104,0.456-0.156,0.944-0.156,1.464c0,1.185,0.293,2.099,0.878,2.743c0.586,0.644,1.367,0.966,2.343,0.966
				c0.495,0,0.908-0.022,1.24-0.068c0.332-0.045,0.589-0.094,0.771-0.146V83.986z"/>
			<path fill="#FFFFFF" d="M218.602,81.584c0.729,0,1.344,0.095,1.845,0.283c0.501,0.189,0.905,0.456,1.211,0.8
				c0.306,0.345,0.523,0.755,0.654,1.23c0.13,0.475,0.195,0.999,0.195,1.572v6.345c-0.156,0.026-0.375,0.062-0.654,0.107
				c-0.28,0.046-0.595,0.088-0.947,0.127s-0.732,0.075-1.142,0.107c-0.41,0.032-0.817,0.049-1.22,0.049
				c-0.573,0-1.1-0.059-1.582-0.176c-0.482-0.117-0.898-0.303-1.25-0.557c-0.352-0.253-0.625-0.588-0.82-1.005
				c-0.195-0.417-0.293-0.917-0.293-1.503c0-0.56,0.114-1.041,0.342-1.445c0.228-0.403,0.537-0.729,0.928-0.976
				c0.39-0.247,0.846-0.43,1.367-0.547c0.52-0.117,1.067-0.176,1.64-0.176c0.182,0,0.371,0.01,0.566,0.029s0.381,0.046,0.557,0.078
				c0.176,0.033,0.329,0.062,0.458,0.088c0.13,0.026,0.221,0.046,0.273,0.059v-0.508c0-0.299-0.033-0.595-0.098-0.888
				s-0.182-0.553-0.352-0.781c-0.169-0.228-0.4-0.41-0.693-0.547s-0.674-0.205-1.142-0.205c-0.599,0-1.123,0.042-1.572,0.127
				c-0.449,0.085-0.784,0.173-1.005,0.264l-0.215-1.503c0.234-0.104,0.625-0.205,1.171-0.303S217.963,81.584,218.602,81.584z
				 M218.758,90.683c0.429,0,0.81-0.01,1.142-0.029s0.608-0.055,0.83-0.107V87.52c-0.13-0.065-0.342-0.12-0.634-0.166
				c-0.293-0.045-0.648-0.068-1.064-0.068c-0.273,0-0.563,0.02-0.869,0.059c-0.306,0.039-0.586,0.121-0.839,0.244
				c-0.254,0.124-0.466,0.293-0.635,0.508c-0.169,0.215-0.254,0.498-0.254,0.849c0,0.651,0.208,1.103,0.625,1.357
				C217.476,90.556,218.042,90.683,218.758,90.683z"/>
			<path fill="#FFFFFF" d="M238.965,86.934c0,0.769-0.101,1.478-0.303,2.128c-0.202,0.651-0.498,1.21-0.888,1.679
				c-0.391,0.469-0.869,0.833-1.435,1.093c-0.566,0.26-1.214,0.391-1.943,0.391c-0.586,0-1.103-0.078-1.552-0.234
				s-0.784-0.306-1.005-0.449v4.062h-1.816V82.151c0.43-0.104,0.966-0.218,1.611-0.342c0.644-0.124,1.389-0.186,2.235-0.186
				c0.781,0,1.484,0.124,2.109,0.371c0.625,0.248,1.158,0.599,1.601,1.054c0.442,0.456,0.784,1.012,1.025,1.669
				C238.845,85.375,238.965,86.114,238.965,86.934z M237.071,86.934c0-1.184-0.293-2.095-0.878-2.733
				c-0.586-0.637-1.367-0.957-2.343-0.957c-0.546,0-0.973,0.02-1.279,0.059c-0.306,0.039-0.55,0.085-0.732,0.137v6.404
				c0.221,0.183,0.54,0.358,0.957,0.527c0.417,0.169,0.872,0.254,1.367,0.254c0.521,0,0.966-0.094,1.337-0.283
				c0.371-0.188,0.674-0.449,0.908-0.781c0.234-0.332,0.403-0.723,0.507-1.172C237.019,87.94,237.071,87.455,237.071,86.934z"/>
			<path fill="#FFFFFF" d="M250.485,86.915c0,0.807-0.117,1.536-0.352,2.187s-0.563,1.21-0.986,1.679
				c-0.423,0.469-0.928,0.83-1.513,1.083c-0.586,0.254-1.224,0.381-1.914,0.381s-1.328-0.127-1.914-0.381
				c-0.585-0.254-1.09-0.615-1.513-1.083s-0.751-1.028-0.986-1.679s-0.352-1.379-0.352-2.187c0-0.794,0.117-1.52,0.352-2.177
				s0.563-1.22,0.986-1.689s0.928-0.83,1.513-1.083c0.586-0.254,1.224-0.381,1.914-0.381s1.328,0.127,1.914,0.381
				c0.585,0.254,1.09,0.615,1.513,1.083c0.423,0.469,0.751,1.032,0.986,1.689S250.485,86.121,250.485,86.915z M248.591,86.915
				c0-1.146-0.257-2.053-0.771-2.724c-0.515-0.67-1.214-1.005-2.099-1.005s-1.585,0.335-2.099,1.005
				c-0.514,0.671-0.771,1.579-0.771,2.724s0.257,2.053,0.771,2.724s1.214,1.005,2.099,1.005s1.584-0.335,2.099-1.005
				C248.333,88.968,248.591,88.061,248.591,86.915z"/>
			<path fill="#FFFFFF" d="M256.791,81.624c0.156,0,0.335,0.01,0.537,0.029c0.202,0.02,0.4,0.046,0.596,0.078
				c0.195,0.033,0.374,0.065,0.537,0.098c0.163,0.033,0.283,0.062,0.361,0.088l-0.313,1.582c-0.144-0.052-0.381-0.114-0.712-0.186
				c-0.332-0.071-0.759-0.107-1.279-0.107c-0.339,0-0.674,0.036-1.006,0.107c-0.332,0.072-0.55,0.121-0.654,0.146v8.532h-1.816
				v-9.723c0.43-0.156,0.963-0.303,1.601-0.439C255.281,81.692,255.997,81.624,256.791,81.624z"/>
			<path fill="#FFFFFF" d="M276.315,85.216c0,1.171-0.182,2.19-0.546,3.056c-0.365,0.866-0.879,1.581-1.542,2.147
				c-0.664,0.566-1.458,0.989-2.382,1.269c-0.924,0.28-1.939,0.42-3.046,0.42c-0.546,0-1.149-0.023-1.806-0.068
				c-0.658-0.046-1.253-0.133-1.787-0.264V78.656c0.534-0.13,1.129-0.218,1.787-0.264c0.657-0.045,1.259-0.068,1.806-0.068
				c1.106,0,2.122,0.14,3.046,0.42c0.924,0.28,1.718,0.703,2.382,1.269c0.664,0.566,1.178,1.282,1.542,2.148
				C276.133,83.026,276.315,84.044,276.315,85.216z M268.954,90.449c1.796,0,3.137-0.459,4.022-1.376s1.328-2.203,1.328-3.856
				s-0.443-2.938-1.328-3.856c-0.885-0.917-2.226-1.376-4.022-1.376c-0.534,0-0.947,0.007-1.24,0.02
				c-0.293,0.013-0.498,0.026-0.615,0.039V90.39c0.117,0.013,0.322,0.026,0.615,0.039C268.007,90.442,268.42,90.449,268.954,90.449z
				"/>
			<path fill="#FFFFFF" d="M282.017,81.584c0.729,0,1.344,0.095,1.845,0.283c0.501,0.189,0.905,0.456,1.211,0.8
				c0.306,0.345,0.523,0.755,0.654,1.23c0.13,0.475,0.195,0.999,0.195,1.572v6.345c-0.156,0.026-0.375,0.062-0.654,0.107
				c-0.28,0.046-0.595,0.088-0.947,0.127s-0.732,0.075-1.142,0.107c-0.41,0.032-0.817,0.049-1.22,0.049
				c-0.573,0-1.1-0.059-1.582-0.176c-0.482-0.117-0.898-0.303-1.25-0.557c-0.352-0.253-0.625-0.588-0.82-1.005
				c-0.195-0.417-0.293-0.917-0.293-1.503c0-0.56,0.114-1.041,0.342-1.445c0.228-0.403,0.537-0.729,0.928-0.976
				c0.39-0.247,0.846-0.43,1.367-0.547c0.52-0.117,1.067-0.176,1.64-0.176c0.182,0,0.371,0.01,0.566,0.029s0.381,0.046,0.557,0.078
				c0.176,0.033,0.329,0.062,0.458,0.088c0.13,0.026,0.221,0.046,0.273,0.059v-0.508c0-0.299-0.033-0.595-0.098-0.888
				s-0.182-0.553-0.352-0.781c-0.169-0.228-0.4-0.41-0.693-0.547s-0.674-0.205-1.142-0.205c-0.599,0-1.123,0.042-1.572,0.127
				c-0.449,0.085-0.784,0.173-1.005,0.264l-0.215-1.503c0.234-0.104,0.625-0.205,1.171-0.303S281.378,81.584,282.017,81.584z
				 M282.173,90.683c0.429,0,0.81-0.01,1.142-0.029s0.608-0.055,0.83-0.107V87.52c-0.13-0.065-0.342-0.12-0.634-0.166
				c-0.293-0.045-0.648-0.068-1.064-0.068c-0.273,0-0.563,0.02-0.869,0.059c-0.306,0.039-0.586,0.121-0.839,0.244
				c-0.254,0.124-0.466,0.293-0.635,0.508c-0.169,0.215-0.254,0.498-0.254,0.849c0,0.651,0.208,1.103,0.625,1.357
				C280.891,90.556,281.457,90.683,282.173,90.683z"/>
			<path fill="#FFFFFF" d="M295.488,77.152l1.816-0.313v14.858c-0.417,0.117-0.95,0.234-1.601,0.352s-1.399,0.176-2.245,0.176
				c-0.781,0-1.484-0.124-2.109-0.371c-0.625-0.247-1.159-0.599-1.601-1.054s-0.784-1.012-1.025-1.669
				c-0.241-0.657-0.361-1.396-0.361-2.216c0-0.781,0.101-1.497,0.303-2.148c0.202-0.651,0.498-1.21,0.888-1.679
				c0.391-0.469,0.869-0.833,1.436-1.093c0.566-0.26,1.213-0.391,1.942-0.391c0.586,0,1.103,0.078,1.552,0.234
				s0.784,0.306,1.005,0.449V77.152z M295.488,83.986c-0.221-0.182-0.54-0.358-0.957-0.527c-0.417-0.169-0.872-0.254-1.367-0.254
				c-0.521,0-0.966,0.095-1.337,0.283c-0.371,0.189-0.674,0.449-0.908,0.781c-0.234,0.332-0.404,0.726-0.508,1.182
				c-0.104,0.456-0.156,0.944-0.156,1.464c0,1.185,0.293,2.099,0.878,2.743c0.586,0.644,1.367,0.966,2.343,0.966
				c0.495,0,0.908-0.022,1.24-0.068c0.332-0.045,0.589-0.094,0.771-0.146V83.986z"/>
			<path fill="#FFFFFF" d="M309.39,86.915c0,0.807-0.117,1.536-0.352,2.187s-0.563,1.21-0.986,1.679
				c-0.423,0.469-0.928,0.83-1.513,1.083c-0.586,0.254-1.224,0.381-1.914,0.381s-1.328-0.127-1.914-0.381
				c-0.585-0.254-1.09-0.615-1.513-1.083s-0.751-1.028-0.986-1.679s-0.352-1.379-0.352-2.187c0-0.794,0.117-1.52,0.352-2.177
				s0.563-1.22,0.986-1.689s0.928-0.83,1.513-1.083c0.586-0.254,1.224-0.381,1.914-0.381s1.328,0.127,1.914,0.381
				c0.585,0.254,1.09,0.615,1.513,1.083c0.423,0.469,0.751,1.032,0.986,1.689S309.39,86.121,309.39,86.915z M307.496,86.915
				c0-1.146-0.257-2.053-0.771-2.724c-0.515-0.67-1.214-1.005-2.099-1.005s-1.585,0.335-2.099,1.005
				c-0.514,0.671-0.771,1.579-0.771,2.724s0.257,2.053,0.771,2.724s1.214,1.005,2.099,1.005s1.584-0.335,2.099-1.005
				C307.238,88.968,307.496,88.061,307.496,86.915z"/>
			<path fill="#FFFFFF" d="M314.31,90.683c0.742,0,1.292-0.098,1.65-0.293s0.537-0.508,0.537-0.937c0-0.442-0.176-0.794-0.527-1.055
				c-0.352-0.26-0.931-0.553-1.738-0.878c-0.39-0.156-0.765-0.315-1.123-0.479c-0.358-0.163-0.667-0.354-0.927-0.576
				c-0.261-0.221-0.469-0.488-0.625-0.801c-0.156-0.312-0.234-0.696-0.234-1.152c0-0.898,0.332-1.611,0.996-2.138
				c0.664-0.527,1.568-0.791,2.714-0.791c0.286,0,0.573,0.017,0.859,0.049c0.286,0.033,0.553,0.072,0.801,0.117
				c0.247,0.046,0.465,0.095,0.654,0.146c0.188,0.052,0.335,0.098,0.439,0.137l-0.332,1.562c-0.195-0.104-0.501-0.211-0.917-0.322
				c-0.417-0.11-0.918-0.166-1.503-0.166c-0.508,0-0.95,0.101-1.328,0.303c-0.378,0.202-0.566,0.518-0.566,0.947
				c0,0.222,0.042,0.417,0.127,0.586c0.084,0.169,0.215,0.322,0.391,0.459c0.176,0.136,0.394,0.263,0.654,0.38
				s0.573,0.241,0.938,0.371c0.481,0.183,0.911,0.361,1.289,0.537c0.377,0.176,0.699,0.38,0.966,0.615
				c0.267,0.234,0.472,0.518,0.615,0.85c0.143,0.332,0.215,0.739,0.215,1.22c0,0.937-0.349,1.646-1.045,2.128
				c-0.696,0.482-1.689,0.723-2.978,0.723c-0.898,0-1.601-0.075-2.108-0.225c-0.508-0.149-0.853-0.264-1.035-0.342l0.332-1.562
				c0.208,0.078,0.54,0.195,0.996,0.352C312.949,90.605,313.555,90.683,314.31,90.683z"/>
		</g>
		<g id="Principal">
			<path fill="#FFFFFF" d="M26.122,27.287v5.332H12.286v38.652H6.129V32.618H-7.707v-5.332H26.122z"/>
			<path fill="#FFFFFF" d="M43.449,37.568c0.508,0,1.089,0.032,1.745,0.095c0.656,0.063,1.301,0.149,1.936,0.254
				c0.635,0.106,1.216,0.212,1.745,0.317c0.529,0.106,0.92,0.202,1.174,0.286l-1.016,5.141c-0.466-0.168-1.237-0.37-2.316-0.603
				c-1.079-0.232-2.465-0.349-4.157-0.349c-1.101,0-2.19,0.117-3.269,0.349c-1.079,0.233-1.788,0.392-2.126,0.476v27.736h-5.902
				V39.663c1.396-0.508,3.131-0.984,5.204-1.428C38.54,37.791,40.867,37.568,43.449,37.568z"/>
			<path fill="#FFFFFF" d="M68.01,37.441c2.369,0,4.369,0.308,5.998,0.92c1.628,0.614,2.94,1.482,3.935,2.603
				c0.994,1.122,1.703,2.454,2.126,3.999c0.422,1.545,0.635,3.248,0.635,5.109v20.627c-0.508,0.085-1.217,0.201-2.126,0.349
				c-0.91,0.149-1.936,0.286-3.078,0.413s-2.38,0.243-3.713,0.349c-1.333,0.105-2.656,0.159-3.967,0.159
				c-1.862,0-3.576-0.19-5.141-0.571c-1.566-0.381-2.919-0.984-4.062-1.809c-1.142-0.825-2.031-1.914-2.666-3.269
				c-0.635-1.354-0.952-2.983-0.952-4.887c0-1.818,0.37-3.384,1.111-4.696c0.74-1.311,1.746-2.369,3.015-3.174
				c1.27-0.803,2.75-1.396,4.443-1.777c1.692-0.381,3.469-0.571,5.332-0.571c0.592,0,1.206,0.032,1.84,0.095
				c0.635,0.063,1.238,0.149,1.809,0.254c0.571,0.106,1.068,0.201,1.492,0.286c0.422,0.085,0.719,0.149,0.888,0.19v-1.65
				c0-0.973-0.106-1.936-0.317-2.888c-0.212-0.952-0.593-1.798-1.142-2.539c-0.551-0.74-1.301-1.333-2.253-1.777
				s-2.189-0.667-3.713-0.667c-1.947,0-3.649,0.138-5.109,0.413c-1.459,0.276-2.549,0.562-3.269,0.857l-0.698-4.887
				c0.762-0.338,2.031-0.667,3.808-0.984C64.011,37.6,65.936,37.441,68.01,37.441z M68.518,67.018c1.396,0,2.634-0.032,3.713-0.095
				s1.978-0.18,2.697-0.349v-9.837c-0.423-0.211-1.11-0.391-2.063-0.54c-0.952-0.148-2.105-0.222-3.459-0.222
				c-0.889,0-1.831,0.063-2.825,0.19c-0.995,0.127-1.904,0.392-2.729,0.793c-0.825,0.402-1.513,0.952-2.063,1.65
				c-0.551,0.698-0.825,1.619-0.825,2.761c0,2.117,0.676,3.586,2.031,4.411C64.35,66.605,66.19,67.018,68.518,67.018z"/>
			<path fill="#FFFFFF" d="M97.966,39.727c0.719-0.465,1.809-0.952,3.269-1.46c1.46-0.508,3.142-0.762,5.046-0.762
				c2.369,0,4.475,0.424,6.315,1.27c1.84,0.847,3.396,2.031,4.665,3.554c1.27,1.523,2.231,3.343,2.888,5.458
				c0.655,2.116,0.983,4.443,0.983,6.981c0,2.666-0.392,5.068-1.174,7.204c-0.784,2.137-1.894,3.946-3.332,5.427
				c-1.439,1.481-3.174,2.624-5.205,3.427c-2.031,0.803-4.316,1.206-6.854,1.206c-2.751,0-5.184-0.19-7.299-0.571
				c-2.116-0.381-3.851-0.762-5.204-1.143V23.034l5.902-1.016V39.727z M97.966,66.129c0.592,0.17,1.428,0.329,2.507,0.476
				c1.079,0.149,2.421,0.222,4.03,0.222c3.173,0,5.712-1.047,7.616-3.142c1.904-2.095,2.856-5.066,2.856-8.917
				c0-1.692-0.169-3.278-0.508-4.76c-0.339-1.48-0.889-2.761-1.65-3.84c-0.762-1.079-1.746-1.925-2.952-2.539
				c-1.206-0.613-2.656-0.92-4.348-0.92c-1.608,0-3.089,0.276-4.443,0.825c-1.354,0.55-2.391,1.122-3.11,1.714V66.129z"/>
			<path fill="#FFFFFF" d="M141.696,37.441c2.369,0,4.369,0.308,5.998,0.92c1.628,0.614,2.94,1.482,3.935,2.603
				c0.994,1.122,1.703,2.454,2.126,3.999c0.422,1.545,0.635,3.248,0.635,5.109v20.627c-0.508,0.085-1.217,0.201-2.126,0.349
				c-0.91,0.149-1.936,0.286-3.078,0.413s-2.38,0.243-3.713,0.349c-1.333,0.105-2.656,0.159-3.967,0.159
				c-1.862,0-3.576-0.19-5.141-0.571c-1.566-0.381-2.919-0.984-4.062-1.809c-1.142-0.825-2.031-1.914-2.666-3.269
				c-0.635-1.354-0.952-2.983-0.952-4.887c0-1.818,0.37-3.384,1.111-4.696c0.74-1.311,1.746-2.369,3.015-3.174
				c1.27-0.803,2.75-1.396,4.443-1.777c1.692-0.381,3.469-0.571,5.332-0.571c0.592,0,1.206,0.032,1.84,0.095
				c0.635,0.063,1.238,0.149,1.809,0.254c0.571,0.106,1.068,0.201,1.492,0.286c0.422,0.085,0.719,0.149,0.888,0.19v-1.65
				c0-0.973-0.106-1.936-0.317-2.888c-0.212-0.952-0.593-1.798-1.142-2.539c-0.551-0.74-1.301-1.333-2.253-1.777
				s-2.189-0.667-3.713-0.667c-1.947,0-3.649,0.138-5.109,0.413c-1.459,0.276-2.549,0.562-3.269,0.857l-0.698-4.887
				c0.762-0.338,2.031-0.667,3.808-0.984C137.697,37.6,139.622,37.441,141.696,37.441z M142.204,67.018
				c1.396,0,2.634-0.032,3.713-0.095s1.978-0.18,2.697-0.349v-9.837c-0.423-0.211-1.11-0.391-2.063-0.54
				c-0.952-0.148-2.105-0.222-3.459-0.222c-0.889,0-1.831,0.063-2.825,0.19c-0.995,0.127-1.904,0.392-2.729,0.793
				c-0.825,0.402-1.513,0.952-2.063,1.65c-0.551,0.698-0.825,1.619-0.825,2.761c0,2.117,0.676,3.586,2.031,4.411
				C138.036,66.605,139.876,67.018,142.204,67.018z"/>
			<path fill="#FFFFFF" d="M175.651,71.905c-3.64-0.085-6.22-0.867-7.743-2.349c-1.523-1.48-2.285-3.786-2.285-6.918V23.034
				l5.902-1.016v39.668c0,0.974,0.084,1.777,0.254,2.412c0.168,0.635,0.444,1.143,0.825,1.523c0.381,0.381,0.889,0.667,1.523,0.857
				c0.634,0.19,1.417,0.349,2.348,0.476L175.651,71.905z"/>
			<path fill="#FFFFFF" d="M184.663,71.271V23.034l5.902-1.016v16.883c1.1-0.422,2.274-0.75,3.522-0.984
				c1.248-0.232,2.485-0.349,3.713-0.349c2.623,0,4.802,0.371,6.538,1.111c1.734,0.741,3.12,1.777,4.157,3.11
				c1.036,1.333,1.766,2.931,2.189,4.792c0.422,1.862,0.635,3.915,0.635,6.157v18.533h-5.902V54.007
				c0-2.031-0.138-3.765-0.413-5.204c-0.276-1.438-0.73-2.603-1.365-3.491c-0.635-0.889-1.481-1.533-2.539-1.936
				c-1.058-0.402-2.37-0.603-3.935-0.603c-0.635,0-1.292,0.042-1.968,0.127c-0.677,0.085-1.323,0.181-1.936,0.286
				c-0.614,0.106-1.165,0.222-1.65,0.349c-0.487,0.127-0.836,0.233-1.047,0.317v27.418H184.663z"/>
			<path fill="#FFFFFF" d="M251.623,54.769c0,2.624-0.38,4.993-1.142,7.108c-0.762,2.117-1.831,3.935-3.205,5.458
				c-1.375,1.523-3.015,2.697-4.919,3.522c-1.904,0.825-3.978,1.238-6.22,1.238c-2.243,0-4.316-0.413-6.22-1.238
				c-1.904-0.825-3.544-1.999-4.919-3.522c-1.375-1.523-2.443-3.342-3.205-5.458c-0.762-2.115-1.143-4.484-1.143-7.108
				c0-2.581,0.381-4.939,1.143-7.077c0.762-2.136,1.83-3.967,3.205-5.49c1.375-1.523,3.015-2.697,4.919-3.522
				c1.904-0.825,3.977-1.238,6.22-1.238c2.242,0,4.316,0.413,6.22,1.238c1.904,0.825,3.543,2,4.919,3.522
				c1.374,1.523,2.443,3.354,3.205,5.49C251.242,49.829,251.623,52.188,251.623,54.769z M245.466,54.769
				c0-3.723-0.836-6.674-2.507-8.854c-1.672-2.179-3.946-3.269-6.823-3.269c-2.878,0-5.152,1.09-6.823,3.269
				c-1.672,2.18-2.507,5.131-2.507,8.854c0,3.724,0.835,6.675,2.507,8.854c1.671,2.18,3.945,3.269,6.823,3.269
				c2.877,0,5.151-1.089,6.823-3.269C244.63,61.444,245.466,58.493,245.466,54.769z"/>
			<path fill="#FFFFFF" d="M278.151,27.287h6.156v43.984h-6.156V27.287z"/>
			<path fill="#FFFFFF" d="M296.431,39.219c1.354-0.338,3.151-0.698,5.395-1.079c2.242-0.381,4.824-0.571,7.743-0.571
				c2.623,0,4.802,0.371,6.538,1.111c1.734,0.741,3.12,1.777,4.157,3.11c1.036,1.333,1.766,2.931,2.189,4.792
				c0.422,1.862,0.635,3.915,0.635,6.157v18.533h-5.902V54.007c0-2.031-0.138-3.765-0.413-5.204
				c-0.276-1.438-0.73-2.603-1.365-3.491c-0.635-0.889-1.481-1.533-2.539-1.936c-1.058-0.402-2.37-0.603-3.935-0.603
				c-0.635,0-1.292,0.022-1.968,0.063c-0.677,0.042-1.323,0.095-1.936,0.159c-0.614,0.063-1.165,0.138-1.65,0.222
				c-0.487,0.085-0.836,0.149-1.047,0.19v27.863h-5.902V39.219z"/>
			<path fill="#FFFFFF" d="M347.332,22.019c1.735,0,3.226,0.127,4.475,0.381c1.248,0.254,2.126,0.487,2.634,0.698l-1.079,5.078
				c-0.508-0.254-1.228-0.497-2.158-0.73c-0.932-0.232-2.074-0.349-3.428-0.349c-2.751,0-4.676,0.752-5.775,2.253
				c-1.101,1.502-1.65,3.522-1.65,6.061v2.856h12.694v4.951h-12.694v28.053h-5.902V35.284c0-4.23,1.036-7.499,3.11-9.806
				C339.631,23.172,342.89,22.019,347.332,22.019z"/>
			<path fill="#FFFFFF" d="M371.195,37.441c2.369,0,4.369,0.308,5.998,0.92c1.628,0.614,2.94,1.482,3.935,2.603
				c0.994,1.122,1.703,2.454,2.126,3.999c0.422,1.545,0.635,3.248,0.635,5.109v20.627c-0.508,0.085-1.217,0.201-2.126,0.349
				c-0.91,0.149-1.936,0.286-3.078,0.413s-2.38,0.243-3.713,0.349c-1.333,0.105-2.656,0.159-3.967,0.159
				c-1.862,0-3.576-0.19-5.141-0.571c-1.566-0.381-2.919-0.984-4.062-1.809c-1.142-0.825-2.031-1.914-2.666-3.269
				c-0.635-1.354-0.952-2.983-0.952-4.887c0-1.818,0.37-3.384,1.111-4.696c0.74-1.311,1.746-2.369,3.015-3.174
				c1.27-0.803,2.75-1.396,4.443-1.777c1.692-0.381,3.469-0.571,5.332-0.571c0.592,0,1.206,0.032,1.84,0.095
				c0.635,0.063,1.238,0.149,1.809,0.254c0.571,0.106,1.068,0.201,1.492,0.286c0.422,0.085,0.719,0.149,0.888,0.19v-1.65
				c0-0.973-0.106-1.936-0.317-2.888c-0.212-0.952-0.593-1.798-1.142-2.539c-0.551-0.74-1.301-1.333-2.253-1.777
				s-2.189-0.667-3.713-0.667c-1.947,0-3.649,0.138-5.109,0.413c-1.459,0.276-2.549,0.562-3.269,0.857l-0.698-4.887
				c0.762-0.338,2.031-0.667,3.808-0.984C367.197,37.6,369.122,37.441,371.195,37.441z M371.703,67.018
				c1.396,0,2.634-0.032,3.713-0.095s1.978-0.18,2.697-0.349v-9.837c-0.423-0.211-1.11-0.391-2.063-0.54
				c-0.952-0.148-2.105-0.222-3.459-0.222c-0.889,0-1.831,0.063-2.825,0.19c-0.995,0.127-1.904,0.392-2.729,0.793
				c-0.825,0.402-1.513,0.952-2.063,1.65c-0.551,0.698-0.825,1.619-0.825,2.761c0,2.117,0.676,3.586,2.031,4.411
				C367.535,66.605,369.375,67.018,371.703,67.018z"/>
			<path fill="#FFFFFF" d="M395.25,39.219c1.354-0.338,3.151-0.698,5.395-1.079c2.242-0.381,4.824-0.571,7.743-0.571
				c2.623,0,4.802,0.371,6.538,1.111c1.734,0.741,3.12,1.777,4.157,3.11c1.036,1.333,1.766,2.931,2.189,4.792
				c0.422,1.862,0.635,3.915,0.635,6.157v18.533h-5.902V54.007c0-2.031-0.138-3.765-0.413-5.204
				c-0.276-1.438-0.73-2.603-1.365-3.491c-0.635-0.889-1.481-1.533-2.539-1.936c-1.058-0.402-2.37-0.603-3.935-0.603
				c-0.635,0-1.292,0.022-1.968,0.063c-0.677,0.042-1.323,0.095-1.936,0.159c-0.614,0.063-1.165,0.138-1.65,0.222
				c-0.487,0.085-0.836,0.149-1.047,0.19v27.863h-5.902V39.219z"/>
			<path fill="#FFFFFF" d="M438.788,38.267h12.503v4.951h-12.503V58.45c0,1.65,0.127,3.015,0.381,4.094s0.635,1.926,1.143,2.539
				c0.508,0.614,1.143,1.047,1.904,1.301c0.762,0.254,1.65,0.381,2.666,0.381c1.777,0,3.205-0.2,4.284-0.603
				c1.079-0.401,1.83-0.687,2.253-0.857l1.143,4.887c-0.593,0.297-1.629,0.667-3.11,1.111c-1.482,0.444-3.174,0.667-5.078,0.667
				c-2.243,0-4.094-0.286-5.554-0.857c-1.459-0.571-2.634-1.428-3.522-2.57c-0.889-1.143-1.513-2.549-1.872-4.221
				c-0.36-1.671-0.54-3.607-0.54-5.808V29.064l5.902-1.016V38.267z"/>
			<path fill="#FFFFFF" d="M463.287,32.301c-1.058,0-1.958-0.349-2.697-1.047c-0.741-0.698-1.111-1.639-1.111-2.824
				c0-1.184,0.37-2.126,1.111-2.825c0.74-0.698,1.639-1.047,2.697-1.047c1.057,0,1.957,0.349,2.697,1.047
				c0.74,0.698,1.111,1.641,1.111,2.825c0,1.185-0.371,2.126-1.111,2.824C465.243,31.952,464.344,32.301,463.287,32.301z
				 M466.27,71.271h-5.902V38.267h5.902V71.271z"/>
			<path fill="#FFFFFF" d="M487.913,71.905c-3.64-0.085-6.22-0.867-7.743-2.349c-1.523-1.48-2.285-3.786-2.285-6.918V23.034
				l5.902-1.016v39.668c0,0.974,0.084,1.777,0.254,2.412c0.168,0.635,0.444,1.143,0.825,1.523c0.381,0.381,0.889,0.667,1.523,0.857
				c0.634,0.19,1.417,0.349,2.348,0.476L487.913,71.905z"/>
		</g>
		<g id="Supeior">
			<path fill="#FFFFFF" d="M68.065,11.628c0-1.162,0.173-2.188,0.519-3.076C68.93,7.665,69.4,6.924,69.995,6.33
				c0.594-0.594,1.286-1.042,2.076-1.342s1.629-0.451,2.517-0.451c0.875,0,1.701,0.15,2.478,0.451s1.459,0.748,2.047,1.342
				c0.587,0.594,1.054,1.335,1.4,2.223c0.346,0.888,0.519,1.914,0.519,3.076c0,1.163-0.173,2.188-0.519,3.075
				c-0.346,0.889-0.813,1.629-1.4,2.224c-0.588,0.594-1.271,1.042-2.047,1.342s-1.603,0.451-2.478,0.451
				c-0.888,0-1.727-0.15-2.517-0.451s-1.482-0.748-2.076-1.342c-0.595-0.594-1.065-1.335-1.411-2.224
				C68.238,13.816,68.065,12.791,68.065,11.628z M70.063,11.628c0,0.823,0.104,1.57,0.313,2.243
				c0.208,0.673,0.506,1.244,0.891,1.714s0.855,0.833,1.411,1.087c0.555,0.255,1.178,0.382,1.871,0.382
				c0.692,0,1.313-0.127,1.861-0.382c0.549-0.254,1.016-0.617,1.401-1.087c0.385-0.47,0.682-1.042,0.891-1.714
				c0.209-0.672,0.313-1.42,0.313-2.243s-0.104-1.57-0.313-2.243c-0.209-0.672-0.506-1.244-0.891-1.714
				c-0.385-0.47-0.852-0.833-1.401-1.087c-0.548-0.254-1.169-0.382-1.861-0.382c-0.692,0-1.316,0.127-1.871,0.382
				c-0.555,0.255-1.025,0.617-1.411,1.087s-0.683,1.042-0.891,1.714C70.167,10.058,70.063,10.806,70.063,11.628z"/>
			<path fill="#FFFFFF" d="M85.558,8.69c0.222-0.144,0.558-0.294,1.009-0.451c0.45-0.157,0.969-0.235,1.557-0.235
				c0.731,0,1.381,0.131,1.949,0.392c0.568,0.262,1.048,0.627,1.44,1.097c0.392,0.47,0.688,1.032,0.891,1.685
				c0.202,0.653,0.304,1.371,0.304,2.155c0,0.823-0.121,1.564-0.362,2.224c-0.242,0.659-0.585,1.218-1.029,1.675
				s-0.979,0.81-1.606,1.058c-0.627,0.248-1.332,0.372-2.116,0.372c-0.849,0-1.6-0.059-2.253-0.176
				c-0.653-0.117-1.188-0.235-1.606-0.353V3.538l1.822-0.313V8.69z M85.558,16.839c0.183,0.053,0.44,0.102,0.773,0.147
				c0.333,0.046,0.748,0.069,1.244,0.069c0.979,0,1.763-0.323,2.351-0.97s0.881-1.564,0.881-2.752c0-0.522-0.052-1.012-0.157-1.469
				c-0.104-0.457-0.274-0.852-0.509-1.185c-0.235-0.333-0.539-0.594-0.911-0.784c-0.373-0.189-0.82-0.284-1.342-0.284
				c-0.497,0-0.954,0.085-1.372,0.254c-0.418,0.17-0.738,0.346-0.959,0.529V16.839z"/>
			<path fill="#FFFFFF" d="M97.645,17.113c0.744,0,1.296-0.098,1.655-0.294c0.359-0.196,0.539-0.509,0.539-0.94
				c0-0.444-0.176-0.796-0.529-1.058c-0.353-0.261-0.934-0.555-1.744-0.881c-0.392-0.157-0.767-0.316-1.126-0.48
				c-0.359-0.163-0.669-0.355-0.931-0.578c-0.261-0.222-0.47-0.49-0.627-0.803c-0.157-0.313-0.235-0.699-0.235-1.156
				c0-0.901,0.333-1.616,0.999-2.145c0.666-0.529,1.573-0.793,2.723-0.793c0.287,0,0.575,0.017,0.862,0.049
				c0.287,0.033,0.555,0.072,0.803,0.118s0.467,0.095,0.656,0.147s0.336,0.098,0.441,0.137l-0.333,1.567
				c-0.196-0.104-0.503-0.212-0.921-0.323c-0.418-0.111-0.92-0.167-1.508-0.167c-0.509,0-0.953,0.102-1.332,0.304
				c-0.379,0.203-0.568,0.519-0.568,0.95c0,0.222,0.042,0.418,0.127,0.587c0.085,0.17,0.216,0.323,0.392,0.46
				s0.395,0.265,0.656,0.382c0.261,0.118,0.574,0.242,0.94,0.373c0.483,0.183,0.914,0.362,1.292,0.539s0.702,0.382,0.97,0.617
				c0.268,0.235,0.473,0.519,0.617,0.852c0.144,0.333,0.215,0.741,0.215,1.224c0,0.94-0.35,1.652-1.048,2.135
				c-0.699,0.483-1.694,0.725-2.987,0.725c-0.901,0-1.606-0.075-2.116-0.225s-0.855-0.265-1.038-0.343l0.333-1.567
				c0.208,0.079,0.542,0.196,0.999,0.353C96.28,17.035,96.887,17.113,97.645,17.113z"/>
			<path fill="#FFFFFF" d="M103.442,13.352c0-0.901,0.13-1.688,0.392-2.36c0.261-0.672,0.607-1.231,1.039-1.675
				c0.431-0.444,0.927-0.777,1.489-0.999c0.561-0.222,1.136-0.333,1.724-0.333c1.371,0,2.422,0.428,3.154,1.283
				s1.097,2.158,1.097,3.908c0,0.079,0,0.18,0,0.304c0,0.125-0.007,0.238-0.02,0.343h-6.974c0.078,1.058,0.385,1.861,0.92,2.41
				c0.535,0.548,1.371,0.823,2.507,0.823c0.64,0,1.179-0.056,1.616-0.167s0.767-0.219,0.989-0.323l0.255,1.528
				c-0.222,0.118-0.611,0.242-1.166,0.372c-0.556,0.13-1.186,0.196-1.891,0.196c-0.888,0-1.655-0.134-2.302-0.401
				s-1.179-0.637-1.596-1.107c-0.418-0.47-0.729-1.028-0.931-1.675C103.543,14.831,103.442,14.123,103.442,13.352z M110.436,12.353
				c0.013-0.823-0.193-1.499-0.617-2.027c-0.425-0.529-1.009-0.793-1.753-0.793c-0.418,0-0.787,0.082-1.107,0.245
				s-0.591,0.375-0.813,0.637s-0.395,0.562-0.519,0.901c-0.124,0.34-0.206,0.686-0.245,1.038H110.436z"/>
			<path fill="#FFFFFF" d="M118.722,8.024c0.157,0,0.336,0.01,0.539,0.029c0.202,0.02,0.401,0.046,0.597,0.079
				s0.375,0.065,0.539,0.098c0.163,0.033,0.284,0.063,0.363,0.088l-0.313,1.586c-0.144-0.052-0.382-0.114-0.715-0.186
				c-0.333-0.071-0.761-0.107-1.283-0.107c-0.34,0-0.676,0.036-1.009,0.107c-0.333,0.072-0.552,0.121-0.656,0.147v8.561h-1.822V8.67
				c0.431-0.157,0.966-0.304,1.606-0.441C117.207,8.092,117.925,8.024,118.722,8.024z"/>
			<path fill="#FFFFFF" d="M130.887,8.239c-0.509,1.907-1.107,3.735-1.792,5.485s-1.349,3.317-1.988,4.701h-1.646
				c-0.64-1.384-1.303-2.951-1.988-4.701s-1.283-3.578-1.792-5.485h1.959c0.157,0.64,0.343,1.322,0.558,2.047
				c0.215,0.725,0.444,1.443,0.686,2.155s0.486,1.4,0.735,2.066c0.248,0.666,0.483,1.261,0.705,1.783
				c0.222-0.522,0.457-1.117,0.705-1.783s0.493-1.354,0.735-2.066c0.241-0.712,0.47-1.43,0.686-2.155
				c0.215-0.725,0.401-1.407,0.558-2.047H130.887z"/>
			<path fill="#FFFFFF" d="M136.058,7.985c0.731,0,1.349,0.095,1.852,0.284c0.502,0.189,0.907,0.457,1.214,0.803
				c0.307,0.346,0.525,0.758,0.656,1.234c0.13,0.477,0.196,1.002,0.196,1.577v6.367c-0.157,0.026-0.375,0.062-0.656,0.108
				s-0.597,0.088-0.95,0.127c-0.353,0.04-0.734,0.075-1.146,0.108c-0.411,0.032-0.819,0.049-1.224,0.049
				c-0.575,0-1.104-0.059-1.587-0.176c-0.483-0.117-0.901-0.304-1.253-0.558c-0.353-0.255-0.627-0.591-0.823-1.009
				s-0.294-0.921-0.294-1.508c0-0.562,0.114-1.045,0.343-1.45s0.539-0.731,0.931-0.979c0.392-0.248,0.849-0.431,1.371-0.548
				c0.522-0.118,1.071-0.176,1.646-0.176c0.183,0,0.372,0.01,0.568,0.029c0.196,0.02,0.382,0.046,0.559,0.078
				c0.176,0.033,0.33,0.062,0.46,0.088c0.13,0.026,0.222,0.046,0.274,0.059v-0.509c0-0.3-0.033-0.598-0.098-0.891
				c-0.065-0.294-0.183-0.555-0.353-0.784c-0.17-0.229-0.402-0.412-0.696-0.548c-0.293-0.137-0.676-0.206-1.146-0.206
				c-0.601,0-1.126,0.042-1.577,0.127s-0.787,0.173-1.009,0.265L133.1,8.436c0.235-0.104,0.626-0.206,1.175-0.304
				C134.824,8.034,135.418,7.985,136.058,7.985z M136.214,17.113c0.431,0,0.813-0.01,1.146-0.029s0.61-0.056,0.833-0.108V13.94
				c-0.13-0.065-0.343-0.121-0.637-0.167c-0.293-0.046-0.649-0.069-1.067-0.069c-0.274,0-0.565,0.02-0.872,0.059
				c-0.307,0.039-0.588,0.121-0.842,0.245c-0.255,0.125-0.467,0.294-0.637,0.509c-0.17,0.216-0.255,0.5-0.255,0.853
				c0,0.653,0.209,1.106,0.627,1.361C134.928,16.986,135.496,17.113,136.214,17.113z"/>
			<path fill="#FFFFFF" d="M144.697,8.239h3.859v1.528h-3.859v4.701c0,0.509,0.039,0.931,0.118,1.264
				c0.078,0.333,0.196,0.594,0.353,0.783c0.157,0.189,0.353,0.323,0.587,0.402c0.235,0.078,0.509,0.118,0.823,0.118
				c0.548,0,0.989-0.062,1.322-0.187c0.333-0.124,0.565-0.212,0.695-0.264l0.353,1.508c-0.183,0.091-0.503,0.206-0.96,0.343
				c-0.458,0.137-0.979,0.206-1.567,0.206c-0.692,0-1.263-0.088-1.714-0.264s-0.813-0.441-1.087-0.793
				c-0.274-0.353-0.467-0.787-0.578-1.303c-0.111-0.516-0.167-1.113-0.167-1.792V5.399l1.822-0.313V8.239z"/>
			<path fill="#FFFFFF" d="M159.584,13.333c0,0.81-0.118,1.541-0.353,2.194c-0.235,0.653-0.565,1.215-0.989,1.685
				c-0.425,0.47-0.931,0.833-1.518,1.087c-0.588,0.255-1.228,0.382-1.92,0.382c-0.692,0-1.332-0.127-1.92-0.382
				c-0.587-0.254-1.094-0.617-1.518-1.087c-0.424-0.47-0.754-1.032-0.989-1.685c-0.235-0.653-0.353-1.384-0.353-2.194
				c0-0.796,0.118-1.524,0.353-2.184c0.235-0.659,0.565-1.224,0.989-1.694s0.931-0.833,1.518-1.087
				c0.588-0.254,1.228-0.382,1.92-0.382c0.692,0,1.332,0.127,1.92,0.382c0.587,0.255,1.093,0.617,1.518,1.087
				c0.424,0.47,0.754,1.035,0.989,1.694C159.467,11.808,159.584,12.536,159.584,13.333z M157.684,13.333
				c0-1.149-0.258-2.06-0.773-2.732c-0.516-0.673-1.218-1.009-2.106-1.009c-0.888,0-1.59,0.336-2.106,1.009
				c-0.516,0.672-0.773,1.583-0.773,2.732c0,1.149,0.257,2.061,0.773,2.733c0.516,0.673,1.218,1.009,2.106,1.009
				c0.888,0,1.59-0.336,2.106-1.009C157.426,15.393,157.684,14.482,157.684,13.333z M157.175,4.38l-2.762,2.684l-0.921-0.823
				L156,3.225L157.175,4.38z"/>
			<path fill="#FFFFFF" d="M165.911,8.024c0.157,0,0.336,0.01,0.539,0.029c0.202,0.02,0.401,0.046,0.597,0.079
				s0.375,0.065,0.539,0.098c0.163,0.033,0.284,0.063,0.363,0.088l-0.313,1.586c-0.144-0.052-0.382-0.114-0.715-0.186
				c-0.333-0.071-0.761-0.107-1.283-0.107c-0.34,0-0.676,0.036-1.009,0.107c-0.333,0.072-0.552,0.121-0.656,0.147v8.561h-1.822V8.67
				c0.431-0.157,0.966-0.304,1.606-0.441C164.396,8.092,165.115,8.024,165.911,8.024z"/>
			<path fill="#FFFFFF" d="M170.613,6.398c-0.327,0-0.604-0.107-0.833-0.323c-0.229-0.215-0.343-0.506-0.343-0.872
				c0-0.365,0.114-0.656,0.343-0.872c0.229-0.216,0.506-0.323,0.833-0.323c0.326,0,0.604,0.107,0.833,0.323
				c0.229,0.215,0.343,0.506,0.343,0.872c0,0.366-0.114,0.656-0.343,0.872C171.217,6.291,170.939,6.398,170.613,6.398z
				 M171.534,18.426h-1.822V8.239h1.822V18.426z"/>
			<path fill="#FFFFFF" d="M183.659,13.333c0,0.81-0.118,1.541-0.353,2.194c-0.235,0.653-0.565,1.215-0.989,1.685
				c-0.425,0.47-0.931,0.833-1.518,1.087c-0.588,0.255-1.228,0.382-1.92,0.382c-0.692,0-1.332-0.127-1.92-0.382
				c-0.587-0.254-1.094-0.617-1.518-1.087c-0.424-0.47-0.754-1.032-0.989-1.685c-0.235-0.653-0.353-1.384-0.353-2.194
				c0-0.796,0.118-1.524,0.353-2.184c0.235-0.659,0.565-1.224,0.989-1.694s0.931-0.833,1.518-1.087
				c0.588-0.254,1.228-0.382,1.92-0.382c0.692,0,1.332,0.127,1.92,0.382c0.587,0.255,1.093,0.617,1.518,1.087
				c0.424,0.47,0.754,1.035,0.989,1.694C183.541,11.808,183.659,12.536,183.659,13.333z M181.758,13.333
				c0-1.149-0.258-2.06-0.773-2.732c-0.516-0.673-1.218-1.009-2.106-1.009c-0.888,0-1.59,0.336-2.106,1.009
				c-0.516,0.672-0.773,1.583-0.773,2.732c0,1.149,0.257,2.061,0.773,2.733c0.516,0.673,1.218,1.009,2.106,1.009
				c0.888,0,1.59-0.336,2.106-1.009C181.5,15.393,181.758,14.482,181.758,13.333z"/>
			<path fill="#FFFFFF" d="M197.332,3.538l1.822-0.313v14.907c-0.418,0.118-0.953,0.235-1.606,0.353
				c-0.653,0.118-1.404,0.176-2.253,0.176c-0.784,0-1.489-0.124-2.116-0.372s-1.163-0.601-1.606-1.058s-0.787-1.016-1.028-1.675
				c-0.242-0.66-0.362-1.401-0.362-2.224c0-0.784,0.101-1.501,0.304-2.155c0.202-0.653,0.5-1.214,0.891-1.685
				c0.392-0.47,0.872-0.835,1.44-1.097c0.568-0.261,1.218-0.392,1.949-0.392c0.587,0,1.106,0.078,1.557,0.235
				s0.787,0.307,1.009,0.451V3.538z M197.332,10.394c-0.222-0.183-0.542-0.359-0.959-0.529c-0.418-0.169-0.875-0.254-1.372-0.254
				c-0.522,0-0.97,0.095-1.342,0.284c-0.372,0.189-0.676,0.451-0.911,0.784c-0.235,0.333-0.405,0.728-0.51,1.185
				c-0.104,0.458-0.156,0.947-0.156,1.469c0,1.188,0.293,2.106,0.881,2.752c0.587,0.646,1.371,0.97,2.351,0.97
				c0.496,0,0.911-0.023,1.244-0.069c0.333-0.045,0.59-0.094,0.773-0.147V10.394z"/>
			<path fill="#FFFFFF" d="M205.578,7.985c0.731,0,1.349,0.095,1.852,0.284c0.502,0.189,0.907,0.457,1.214,0.803
				c0.307,0.346,0.525,0.758,0.656,1.234c0.13,0.477,0.196,1.002,0.196,1.577v6.367c-0.157,0.026-0.375,0.062-0.656,0.108
				s-0.597,0.088-0.95,0.127c-0.353,0.04-0.734,0.075-1.146,0.108c-0.411,0.032-0.819,0.049-1.224,0.049
				c-0.575,0-1.104-0.059-1.587-0.176c-0.483-0.117-0.901-0.304-1.253-0.558c-0.353-0.255-0.627-0.591-0.823-1.009
				s-0.294-0.921-0.294-1.508c0-0.562,0.114-1.045,0.343-1.45s0.539-0.731,0.931-0.979c0.392-0.248,0.849-0.431,1.371-0.548
				c0.522-0.118,1.071-0.176,1.646-0.176c0.183,0,0.372,0.01,0.568,0.029c0.196,0.02,0.382,0.046,0.559,0.078
				c0.176,0.033,0.33,0.062,0.46,0.088c0.13,0.026,0.222,0.046,0.274,0.059v-0.509c0-0.3-0.033-0.598-0.098-0.891
				c-0.065-0.294-0.183-0.555-0.353-0.784c-0.17-0.229-0.402-0.412-0.696-0.548c-0.293-0.137-0.676-0.206-1.146-0.206
				c-0.601,0-1.126,0.042-1.577,0.127s-0.787,0.173-1.009,0.265l-0.215-1.508c0.235-0.104,0.626-0.206,1.175-0.304
				C204.344,8.034,204.938,7.985,205.578,7.985z M205.735,17.113c0.431,0,0.813-0.01,1.146-0.029s0.61-0.056,0.833-0.108V13.94
				c-0.13-0.065-0.343-0.121-0.637-0.167c-0.293-0.046-0.649-0.069-1.067-0.069c-0.274,0-0.565,0.02-0.872,0.059
				c-0.307,0.039-0.588,0.121-0.842,0.245c-0.255,0.125-0.467,0.294-0.637,0.509c-0.17,0.216-0.255,0.5-0.255,0.853
				c0,0.653,0.209,1.106,0.627,1.361C204.449,16.986,205.017,17.113,205.735,17.113z"/>
			<path fill="#FFFFFF" d="M220.759,4.713c1.907,0,3.373,0.362,4.398,1.087c1.025,0.725,1.538,1.805,1.538,3.242
				c0,0.784-0.141,1.453-0.421,2.008c-0.281,0.555-0.686,1.006-1.214,1.352s-1.172,0.597-1.93,0.754s-1.613,0.235-2.566,0.235
				h-1.508v5.034h-1.9V5.046c0.536-0.13,1.133-0.219,1.792-0.265C219.606,4.736,220.211,4.713,220.759,4.713z M220.916,6.378
				c-0.81,0-1.43,0.02-1.861,0.059v5.329h1.43c0.653,0,1.241-0.042,1.763-0.127c0.522-0.085,0.963-0.229,1.322-0.431
				c0.359-0.202,0.637-0.48,0.833-0.833s0.294-0.803,0.294-1.352c0-0.522-0.102-0.953-0.304-1.293
				c-0.203-0.339-0.477-0.61-0.823-0.813c-0.346-0.202-0.748-0.343-1.205-0.421C221.908,6.417,221.425,6.378,220.916,6.378z"/>
			<path fill="#FFFFFF" d="M232.708,8.024c0.157,0,0.336,0.01,0.539,0.029c0.202,0.02,0.401,0.046,0.597,0.079
				s0.375,0.065,0.539,0.098c0.163,0.033,0.284,0.063,0.363,0.088l-0.313,1.586c-0.144-0.052-0.382-0.114-0.715-0.186
				c-0.333-0.071-0.761-0.107-1.283-0.107c-0.34,0-0.676,0.036-1.009,0.107c-0.333,0.072-0.552,0.121-0.656,0.147v8.561h-1.822V8.67
				c0.431-0.157,0.966-0.304,1.606-0.441C231.193,8.092,231.912,8.024,232.708,8.024z"/>
			<path fill="#FFFFFF" d="M235.94,13.352c0-0.901,0.13-1.688,0.392-2.36c0.261-0.672,0.607-1.231,1.039-1.675
				c0.431-0.444,0.927-0.777,1.489-0.999c0.561-0.222,1.136-0.333,1.724-0.333c1.371,0,2.422,0.428,3.154,1.283
				s1.097,2.158,1.097,3.908c0,0.079,0,0.18,0,0.304c0,0.125-0.007,0.238-0.02,0.343h-6.974c0.078,1.058,0.385,1.861,0.92,2.41
				c0.535,0.548,1.371,0.823,2.507,0.823c0.64,0,1.179-0.056,1.616-0.167s0.767-0.219,0.989-0.323l0.255,1.528
				c-0.222,0.118-0.611,0.242-1.166,0.372c-0.556,0.13-1.186,0.196-1.891,0.196c-0.888,0-1.655-0.134-2.302-0.401
				s-1.179-0.637-1.596-1.107c-0.418-0.47-0.729-1.028-0.931-1.675C236.042,14.831,235.94,14.123,235.94,13.352z M242.934,12.353
				c0.013-0.823-0.193-1.499-0.617-2.027c-0.425-0.529-1.009-0.793-1.753-0.793c-0.418,0-0.787,0.082-1.107,0.245
				s-0.591,0.375-0.813,0.637s-0.395,0.562-0.519,0.901c-0.124,0.34-0.206,0.686-0.245,1.038H242.934z"/>
			<path fill="#FFFFFF" d="M255.412,8.239c-0.509,1.907-1.107,3.735-1.792,5.485s-1.349,3.317-1.988,4.701h-1.646
				c-0.64-1.384-1.303-2.951-1.988-4.701s-1.283-3.578-1.792-5.485h1.959c0.157,0.64,0.343,1.322,0.558,2.047
				c0.215,0.725,0.444,1.443,0.686,2.155s0.486,1.4,0.735,2.066c0.248,0.666,0.483,1.261,0.705,1.783
				c0.222-0.522,0.457-1.117,0.705-1.783s0.493-1.354,0.735-2.066c0.241-0.712,0.47-1.43,0.686-2.155
				c0.215-0.725,0.401-1.407,0.558-2.047H255.412z"/>
			<path fill="#FFFFFF" d="M256.45,13.352c0-0.901,0.13-1.688,0.392-2.36c0.261-0.672,0.607-1.231,1.039-1.675
				c0.431-0.444,0.927-0.777,1.489-0.999c0.561-0.222,1.136-0.333,1.724-0.333c1.371,0,2.422,0.428,3.154,1.283
				s1.097,2.158,1.097,3.908c0,0.079,0,0.18,0,0.304c0,0.125-0.007,0.238-0.02,0.343h-6.974c0.078,1.058,0.385,1.861,0.92,2.41
				c0.535,0.548,1.371,0.823,2.507,0.823c0.64,0,1.179-0.056,1.616-0.167s0.767-0.219,0.989-0.323l0.255,1.528
				c-0.222,0.118-0.611,0.242-1.166,0.372c-0.556,0.13-1.186,0.196-1.891,0.196c-0.888,0-1.655-0.134-2.302-0.401
				s-1.179-0.637-1.596-1.107c-0.418-0.47-0.729-1.028-0.931-1.675C256.551,14.831,256.45,14.123,256.45,13.352z M263.443,12.353
				c0.013-0.823-0.193-1.499-0.617-2.027c-0.425-0.529-1.009-0.793-1.753-0.793c-0.418,0-0.787,0.082-1.107,0.245
				s-0.591,0.375-0.813,0.637s-0.395,0.562-0.519,0.901c-0.124,0.34-0.206,0.686-0.245,1.038H263.443z"/>
			<path fill="#FFFFFF" d="M267.968,8.533c0.418-0.104,0.973-0.215,1.666-0.333c0.692-0.118,1.489-0.176,2.39-0.176
				c0.81,0,1.482,0.114,2.018,0.343s0.963,0.548,1.283,0.96c0.32,0.411,0.545,0.904,0.676,1.479c0.13,0.575,0.196,1.208,0.196,1.9
				v5.72h-1.822v-5.328c0-0.627-0.042-1.162-0.127-1.606c-0.085-0.444-0.225-0.803-0.421-1.077
				c-0.196-0.274-0.458-0.474-0.784-0.598c-0.327-0.124-0.731-0.186-1.214-0.186c-0.196,0-0.398,0.007-0.607,0.02
				c-0.209,0.013-0.408,0.029-0.597,0.049c-0.189,0.02-0.359,0.042-0.51,0.069c-0.15,0.026-0.258,0.046-0.323,0.059v8.6h-1.822
				V8.533z"/>
			<path fill="#FFFFFF" d="M283.875,18.661l-0.216,0.49c0.379,0.183,0.653,0.382,0.823,0.598s0.255,0.532,0.255,0.95
				c0,0.144-0.033,0.3-0.098,0.47c-0.065,0.169-0.176,0.326-0.333,0.47s-0.366,0.261-0.626,0.353
				c-0.262,0.091-0.582,0.137-0.96,0.137c-0.34,0-0.65-0.026-0.931-0.078c-0.281-0.052-0.506-0.111-0.676-0.176l0.215-1.117
				c0.157,0.052,0.323,0.098,0.5,0.137s0.375,0.059,0.598,0.059c0.47,0,0.705-0.15,0.705-0.45c0-0.144-0.072-0.265-0.215-0.363
				c-0.144-0.098-0.346-0.199-0.607-0.303l-0.137-0.059c0.052-0.157,0.124-0.346,0.216-0.568c0.091-0.222,0.189-0.431,0.293-0.627
				c-0.666-0.091-1.25-0.284-1.753-0.578c-0.503-0.293-0.924-0.669-1.264-1.126c-0.34-0.457-0.594-0.983-0.764-1.577
				c-0.17-0.594-0.255-1.244-0.255-1.949c0-0.783,0.114-1.501,0.343-2.155c0.229-0.653,0.552-1.217,0.97-1.694
				c0.418-0.477,0.931-0.849,1.538-1.117c0.607-0.268,1.283-0.401,2.028-0.401c0.457,0,0.914,0.039,1.371,0.118
				c0.457,0.078,0.895,0.202,1.313,0.372l-0.412,1.547c-0.274-0.13-0.591-0.235-0.95-0.313c-0.359-0.078-0.742-0.117-1.146-0.117
				c-1.019,0-1.799,0.32-2.341,0.959c-0.542,0.64-0.813,1.574-0.813,2.801c0,0.549,0.062,1.052,0.186,1.508
				c0.124,0.458,0.32,0.849,0.587,1.176c0.268,0.326,0.61,0.578,1.028,0.754s0.927,0.265,1.528,0.265
				c0.483,0,0.92-0.046,1.313-0.137c0.392-0.091,0.698-0.189,0.92-0.294l0.255,1.528c-0.105,0.053-0.245,0.108-0.421,0.167
				c-0.176,0.059-0.375,0.111-0.597,0.157c-0.223,0.046-0.46,0.085-0.715,0.118C284.375,18.625,284.123,18.647,283.875,18.661z"/>
			<path fill="#FFFFFF" d="M291.612,7.985c0.731,0,1.349,0.095,1.852,0.284c0.502,0.189,0.907,0.457,1.214,0.803
				c0.307,0.346,0.525,0.758,0.656,1.234c0.13,0.477,0.196,1.002,0.196,1.577v6.367c-0.157,0.026-0.375,0.062-0.656,0.108
				s-0.597,0.088-0.95,0.127c-0.353,0.04-0.734,0.075-1.146,0.108c-0.411,0.032-0.819,0.049-1.224,0.049
				c-0.575,0-1.104-0.059-1.587-0.176c-0.483-0.117-0.901-0.304-1.253-0.558c-0.353-0.255-0.627-0.591-0.823-1.009
				s-0.294-0.921-0.294-1.508c0-0.562,0.114-1.045,0.343-1.45s0.539-0.731,0.931-0.979c0.392-0.248,0.849-0.431,1.371-0.548
				c0.522-0.118,1.071-0.176,1.646-0.176c0.183,0,0.372,0.01,0.568,0.029c0.196,0.02,0.382,0.046,0.559,0.078
				c0.176,0.033,0.33,0.062,0.46,0.088c0.13,0.026,0.222,0.046,0.274,0.059v-0.509c0-0.3-0.033-0.598-0.098-0.891
				c-0.065-0.294-0.183-0.555-0.353-0.784c-0.17-0.229-0.402-0.412-0.696-0.548c-0.293-0.137-0.676-0.206-1.146-0.206
				c-0.601,0-1.126,0.042-1.577,0.127s-0.787,0.173-1.009,0.265l-0.215-1.508c0.235-0.104,0.626-0.206,1.175-0.304
				C290.378,8.034,290.973,7.985,291.612,7.985z M295.139,4.498c-0.065,0.157-0.154,0.34-0.265,0.548
				c-0.111,0.209-0.251,0.401-0.421,0.578c-0.17,0.176-0.369,0.326-0.598,0.45c-0.229,0.125-0.48,0.186-0.754,0.186
				c-0.261,0-0.506-0.045-0.734-0.137s-0.447-0.189-0.656-0.294c-0.222-0.104-0.411-0.183-0.568-0.235
				c-0.157-0.052-0.307-0.078-0.451-0.078c-0.222,0-0.428,0.091-0.617,0.274c-0.189,0.183-0.336,0.379-0.441,0.587l-0.94-0.47
				c0.052-0.157,0.137-0.339,0.254-0.548c0.118-0.209,0.261-0.402,0.431-0.578c0.169-0.176,0.369-0.326,0.598-0.45
				c0.228-0.124,0.479-0.186,0.754-0.186c0.261,0,0.506,0.046,0.735,0.137c0.228,0.092,0.447,0.189,0.656,0.294
				c0.222,0.105,0.412,0.183,0.568,0.235s0.307,0.078,0.451,0.078c0.222,0,0.427-0.091,0.617-0.274
				c0.189-0.183,0.336-0.378,0.441-0.587L295.139,4.498z M291.769,17.113c0.431,0,0.813-0.01,1.146-0.029s0.61-0.056,0.833-0.108
				V13.94c-0.13-0.065-0.343-0.121-0.637-0.167c-0.293-0.046-0.649-0.069-1.067-0.069c-0.274,0-0.565,0.02-0.872,0.059
				c-0.307,0.039-0.588,0.121-0.842,0.245c-0.255,0.125-0.467,0.294-0.637,0.509c-0.17,0.216-0.255,0.5-0.255,0.853
				c0,0.653,0.209,1.106,0.627,1.361C290.483,16.986,291.051,17.113,291.769,17.113z"/>
			<path fill="#FFFFFF" d="M307.538,13.333c0,0.81-0.118,1.541-0.353,2.194c-0.235,0.653-0.565,1.215-0.989,1.685
				c-0.425,0.47-0.931,0.833-1.518,1.087c-0.588,0.255-1.228,0.382-1.92,0.382c-0.692,0-1.332-0.127-1.92-0.382
				c-0.587-0.254-1.094-0.617-1.518-1.087c-0.424-0.47-0.754-1.032-0.989-1.685c-0.235-0.653-0.353-1.384-0.353-2.194
				c0-0.796,0.118-1.524,0.353-2.184c0.235-0.659,0.565-1.224,0.989-1.694s0.931-0.833,1.518-1.087
				c0.588-0.254,1.228-0.382,1.92-0.382c0.692,0,1.332,0.127,1.92,0.382c0.587,0.255,1.093,0.617,1.518,1.087
				c0.424,0.47,0.754,1.035,0.989,1.694C307.42,11.808,307.538,12.536,307.538,13.333z M305.638,13.333
				c0-1.149-0.258-2.06-0.773-2.732c-0.516-0.673-1.218-1.009-2.106-1.009c-0.888,0-1.59,0.336-2.106,1.009
				c-0.516,0.672-0.773,1.583-0.773,2.732c0,1.149,0.257,2.061,0.773,2.733c0.516,0.673,1.218,1.009,2.106,1.009
				c0.888,0,1.59-0.336,2.106-1.009C305.38,15.393,305.638,14.482,305.638,13.333z"/>
			<path fill="#FFFFFF" d="M314.061,13.352c0-0.901,0.13-1.688,0.392-2.36c0.261-0.672,0.607-1.231,1.039-1.675
				c0.431-0.444,0.927-0.777,1.489-0.999c0.561-0.222,1.136-0.333,1.724-0.333c1.371,0,2.422,0.428,3.154,1.283
				s1.097,2.158,1.097,3.908c0,0.079,0,0.18,0,0.304c0,0.125-0.007,0.238-0.02,0.343h-6.974c0.078,1.058,0.385,1.861,0.92,2.41
				c0.535,0.548,1.371,0.823,2.507,0.823c0.64,0,1.179-0.056,1.616-0.167s0.767-0.219,0.989-0.323l0.255,1.528
				c-0.222,0.118-0.611,0.242-1.166,0.372c-0.556,0.13-1.186,0.196-1.891,0.196c-0.888,0-1.655-0.134-2.302-0.401
				s-1.179-0.637-1.596-1.107c-0.418-0.47-0.729-1.028-0.931-1.675C314.162,14.831,314.061,14.123,314.061,13.352z M321.054,12.353
				c0.013-0.823-0.193-1.499-0.617-2.027c-0.425-0.529-1.009-0.793-1.753-0.793c-0.418,0-0.787,0.082-1.107,0.245
				s-0.591,0.375-0.813,0.637s-0.395,0.562-0.519,0.901c-0.124,0.34-0.206,0.686-0.245,1.038H321.054z"/>
			<path fill="#FFFFFF" d="M336.686,3.538l1.822-0.313v14.907c-0.418,0.118-0.953,0.235-1.606,0.353
				c-0.653,0.118-1.404,0.176-2.253,0.176c-0.784,0-1.489-0.124-2.116-0.372s-1.163-0.601-1.606-1.058s-0.787-1.016-1.028-1.675
				c-0.242-0.66-0.362-1.401-0.362-2.224c0-0.784,0.101-1.501,0.304-2.155c0.202-0.653,0.5-1.214,0.891-1.685
				c0.392-0.47,0.872-0.835,1.44-1.097c0.568-0.261,1.218-0.392,1.949-0.392c0.587,0,1.106,0.078,1.557,0.235
				s0.787,0.307,1.009,0.451V3.538z M336.686,10.394c-0.222-0.183-0.542-0.359-0.959-0.529c-0.418-0.169-0.875-0.254-1.372-0.254
				c-0.522,0-0.97,0.095-1.342,0.284c-0.372,0.189-0.676,0.451-0.911,0.784c-0.235,0.333-0.405,0.728-0.51,1.185
				c-0.104,0.458-0.156,0.947-0.156,1.469c0,1.188,0.293,2.106,0.881,2.752c0.587,0.646,1.371,0.97,2.351,0.97
				c0.496,0,0.911-0.023,1.244-0.069c0.333-0.045,0.59-0.094,0.773-0.147V10.394z"/>
			<path fill="#FFFFFF" d="M344.933,7.985c0.731,0,1.349,0.095,1.852,0.284c0.502,0.189,0.907,0.457,1.214,0.803
				c0.307,0.346,0.525,0.758,0.656,1.234c0.13,0.477,0.196,1.002,0.196,1.577v6.367c-0.157,0.026-0.375,0.062-0.656,0.108
				s-0.597,0.088-0.95,0.127c-0.353,0.04-0.734,0.075-1.146,0.108c-0.411,0.032-0.819,0.049-1.224,0.049
				c-0.575,0-1.104-0.059-1.587-0.176c-0.483-0.117-0.901-0.304-1.253-0.558c-0.353-0.255-0.627-0.591-0.823-1.009
				s-0.294-0.921-0.294-1.508c0-0.562,0.114-1.045,0.343-1.45s0.539-0.731,0.931-0.979c0.392-0.248,0.849-0.431,1.371-0.548
				c0.522-0.118,1.071-0.176,1.646-0.176c0.183,0,0.372,0.01,0.568,0.029c0.196,0.02,0.382,0.046,0.559,0.078
				c0.176,0.033,0.33,0.062,0.46,0.088c0.13,0.026,0.222,0.046,0.274,0.059v-0.509c0-0.3-0.033-0.598-0.098-0.891
				c-0.065-0.294-0.183-0.555-0.353-0.784c-0.17-0.229-0.402-0.412-0.696-0.548c-0.293-0.137-0.676-0.206-1.146-0.206
				c-0.601,0-1.126,0.042-1.577,0.127s-0.787,0.173-1.009,0.265l-0.215-1.508c0.235-0.104,0.626-0.206,1.175-0.304
				C343.699,8.034,344.293,7.985,344.933,7.985z M345.089,17.113c0.431,0,0.813-0.01,1.146-0.029s0.61-0.056,0.833-0.108V13.94
				c-0.13-0.065-0.343-0.121-0.637-0.167c-0.293-0.046-0.649-0.069-1.067-0.069c-0.274,0-0.565,0.02-0.872,0.059
				c-0.307,0.039-0.588,0.121-0.842,0.245c-0.255,0.125-0.467,0.294-0.637,0.509c-0.17,0.216-0.255,0.5-0.255,0.853
				c0,0.653,0.209,1.106,0.627,1.361C343.803,16.986,344.371,17.113,345.089,17.113z"/>
			<path fill="#FFFFFF" d="M356.509,18.426V4.851h8.286v1.626h-6.386v4.035h5.681v1.587h-5.681V16.8h6.875v1.626H356.509z"/>
			<path fill="#FFFFFF" d="M371.338,8.024c0.157,0,0.336,0.01,0.539,0.029c0.202,0.02,0.401,0.046,0.597,0.079
				s0.375,0.065,0.539,0.098c0.163,0.033,0.284,0.063,0.363,0.088l-0.313,1.586c-0.144-0.052-0.382-0.114-0.715-0.186
				c-0.333-0.071-0.761-0.107-1.283-0.107c-0.34,0-0.676,0.036-1.009,0.107c-0.333,0.072-0.552,0.121-0.656,0.147v8.561h-1.822V8.67
				c0.431-0.157,0.966-0.304,1.606-0.441C369.823,8.092,370.542,8.024,371.338,8.024z"/>
			<path fill="#FFFFFF" d="M378.899,8.024c0.157,0,0.336,0.01,0.539,0.029c0.202,0.02,0.401,0.046,0.597,0.079
				s0.375,0.065,0.539,0.098c0.163,0.033,0.284,0.063,0.363,0.088l-0.313,1.586c-0.144-0.052-0.382-0.114-0.715-0.186
				c-0.333-0.071-0.761-0.107-1.283-0.107c-0.34,0-0.676,0.036-1.009,0.107c-0.333,0.072-0.552,0.121-0.656,0.147v8.561h-1.822V8.67
				c0.431-0.157,0.966-0.304,1.606-0.441C377.384,8.092,378.103,8.024,378.899,8.024z"/>
			<path fill="#FFFFFF" d="M385.99,7.985c0.731,0,1.349,0.095,1.852,0.284c0.502,0.189,0.907,0.457,1.214,0.803
				c0.307,0.346,0.525,0.758,0.656,1.234c0.13,0.477,0.196,1.002,0.196,1.577v6.367c-0.157,0.026-0.375,0.062-0.656,0.108
				s-0.597,0.088-0.95,0.127c-0.353,0.04-0.734,0.075-1.146,0.108c-0.411,0.032-0.819,0.049-1.224,0.049
				c-0.575,0-1.104-0.059-1.587-0.176c-0.483-0.117-0.901-0.304-1.253-0.558c-0.353-0.255-0.627-0.591-0.823-1.009
				s-0.294-0.921-0.294-1.508c0-0.562,0.114-1.045,0.343-1.45s0.539-0.731,0.931-0.979c0.392-0.248,0.849-0.431,1.371-0.548
				c0.522-0.118,1.071-0.176,1.646-0.176c0.183,0,0.372,0.01,0.568,0.029c0.196,0.02,0.382,0.046,0.559,0.078
				c0.176,0.033,0.33,0.062,0.46,0.088c0.13,0.026,0.222,0.046,0.274,0.059v-0.509c0-0.3-0.033-0.598-0.098-0.891
				c-0.065-0.294-0.183-0.555-0.353-0.784c-0.17-0.229-0.402-0.412-0.696-0.548c-0.293-0.137-0.676-0.206-1.146-0.206
				c-0.601,0-1.126,0.042-1.577,0.127s-0.787,0.173-1.009,0.265l-0.215-1.508c0.235-0.104,0.626-0.206,1.175-0.304
				C384.756,8.034,385.351,7.985,385.99,7.985z M386.147,17.113c0.431,0,0.813-0.01,1.146-0.029s0.61-0.056,0.833-0.108V13.94
				c-0.13-0.065-0.343-0.121-0.637-0.167c-0.293-0.046-0.649-0.069-1.067-0.069c-0.274,0-0.565,0.02-0.872,0.059
				c-0.307,0.039-0.588,0.121-0.842,0.245c-0.255,0.125-0.467,0.294-0.637,0.509c-0.17,0.216-0.255,0.5-0.255,0.853
				c0,0.653,0.209,1.106,0.627,1.361C384.861,16.986,385.429,17.113,386.147,17.113z"/>
			<path fill="#FFFFFF" d="M399.506,3.538l1.822-0.313v14.907c-0.418,0.118-0.953,0.235-1.606,0.353
				c-0.653,0.118-1.404,0.176-2.253,0.176c-0.784,0-1.489-0.124-2.116-0.372s-1.163-0.601-1.606-1.058s-0.787-1.016-1.028-1.675
				c-0.242-0.66-0.362-1.401-0.362-2.224c0-0.784,0.101-1.501,0.304-2.155c0.202-0.653,0.5-1.214,0.891-1.685
				c0.392-0.47,0.872-0.835,1.44-1.097c0.568-0.261,1.218-0.392,1.949-0.392c0.587,0,1.106,0.078,1.557,0.235
				s0.787,0.307,1.009,0.451V3.538z M399.506,10.394c-0.222-0.183-0.542-0.359-0.959-0.529c-0.418-0.169-0.875-0.254-1.372-0.254
				c-0.522,0-0.97,0.095-1.342,0.284c-0.372,0.189-0.676,0.451-0.911,0.784c-0.235,0.333-0.405,0.728-0.51,1.185
				c-0.104,0.458-0.156,0.947-0.156,1.469c0,1.188,0.293,2.106,0.881,2.752c0.587,0.646,1.371,0.97,2.351,0.97
				c0.496,0,0.911-0.023,1.244-0.069c0.333-0.045,0.59-0.094,0.773-0.147V10.394z"/>
			<path fill="#FFFFFF" d="M405.364,6.398c-0.327,0-0.604-0.107-0.833-0.323c-0.229-0.215-0.343-0.506-0.343-0.872
				c0-0.365,0.114-0.656,0.343-0.872c0.229-0.216,0.506-0.323,0.833-0.323c0.326,0,0.604,0.107,0.833,0.323
				c0.229,0.215,0.343,0.506,0.343,0.872c0,0.366-0.114,0.656-0.343,0.872C405.968,6.291,405.69,6.398,405.364,6.398z
				 M406.285,18.426h-1.822V8.239h1.822V18.426z"/>
			<path fill="#FFFFFF" d="M413.845,18.661c-0.823,0-1.544-0.13-2.165-0.392s-1.143-0.627-1.567-1.097
				c-0.425-0.47-0.742-1.028-0.95-1.675c-0.209-0.646-0.313-1.361-0.313-2.145c0-0.783,0.114-1.501,0.343-2.155
				c0.229-0.653,0.552-1.217,0.97-1.694c0.418-0.477,0.931-0.849,1.538-1.117c0.607-0.268,1.283-0.401,2.028-0.401
				c0.457,0,0.914,0.039,1.371,0.118c0.457,0.078,0.895,0.202,1.313,0.372L416,10.022c-0.274-0.13-0.591-0.235-0.95-0.313
				c-0.359-0.078-0.742-0.117-1.146-0.117c-1.019,0-1.799,0.32-2.341,0.959c-0.542,0.64-0.813,1.574-0.813,2.801
				c0,0.549,0.062,1.052,0.186,1.508c0.124,0.458,0.32,0.849,0.587,1.176c0.268,0.326,0.61,0.578,1.028,0.754
				s0.927,0.265,1.528,0.265c0.483,0,0.92-0.046,1.313-0.137c0.392-0.091,0.698-0.189,0.92-0.294l0.255,1.528
				c-0.105,0.065-0.255,0.127-0.451,0.186c-0.196,0.059-0.418,0.111-0.666,0.157s-0.513,0.085-0.793,0.118
				S414.106,18.661,413.845,18.661z"/>
			<path fill="#FFFFFF" d="M421.818,7.985c0.731,0,1.349,0.095,1.852,0.284c0.502,0.189,0.907,0.457,1.214,0.803
				c0.307,0.346,0.525,0.758,0.656,1.234c0.13,0.477,0.196,1.002,0.196,1.577v6.367c-0.157,0.026-0.375,0.062-0.656,0.108
				s-0.597,0.088-0.95,0.127c-0.353,0.04-0.734,0.075-1.146,0.108c-0.411,0.032-0.819,0.049-1.224,0.049
				c-0.575,0-1.104-0.059-1.587-0.176c-0.483-0.117-0.901-0.304-1.253-0.558c-0.353-0.255-0.627-0.591-0.823-1.009
				s-0.294-0.921-0.294-1.508c0-0.562,0.114-1.045,0.343-1.45s0.539-0.731,0.931-0.979c0.392-0.248,0.849-0.431,1.371-0.548
				c0.522-0.118,1.071-0.176,1.646-0.176c0.183,0,0.372,0.01,0.568,0.029c0.196,0.02,0.382,0.046,0.558,0.078
				c0.176,0.033,0.33,0.062,0.46,0.088c0.13,0.026,0.222,0.046,0.274,0.059v-0.509c0-0.3-0.033-0.598-0.098-0.891
				c-0.065-0.294-0.183-0.555-0.353-0.784c-0.17-0.229-0.402-0.412-0.696-0.548c-0.293-0.137-0.676-0.206-1.146-0.206
				c-0.601,0-1.126,0.042-1.577,0.127s-0.787,0.173-1.009,0.265l-0.216-1.508c0.235-0.104,0.627-0.206,1.176-0.304
				C420.584,8.034,421.178,7.985,421.818,7.985z M421.975,17.113c0.431,0,0.813-0.01,1.146-0.029s0.61-0.056,0.833-0.108V13.94
				c-0.13-0.065-0.343-0.121-0.637-0.167c-0.293-0.046-0.649-0.069-1.067-0.069c-0.274,0-0.565,0.02-0.872,0.059
				c-0.307,0.039-0.588,0.121-0.842,0.245c-0.255,0.125-0.467,0.294-0.637,0.509c-0.17,0.216-0.255,0.5-0.255,0.853
				c0,0.653,0.209,1.106,0.627,1.361C420.688,16.986,421.256,17.113,421.975,17.113z"/>
			<path fill="#FFFFFF" d="M433.415,18.661l-0.216,0.49c0.379,0.183,0.653,0.382,0.823,0.598s0.255,0.532,0.255,0.95
				c0,0.144-0.033,0.3-0.098,0.47c-0.065,0.169-0.176,0.326-0.333,0.47s-0.366,0.261-0.626,0.353
				c-0.262,0.091-0.582,0.137-0.96,0.137c-0.34,0-0.65-0.026-0.931-0.078c-0.281-0.052-0.506-0.111-0.676-0.176l0.215-1.117
				c0.157,0.052,0.323,0.098,0.5,0.137s0.375,0.059,0.598,0.059c0.47,0,0.705-0.15,0.705-0.45c0-0.144-0.072-0.265-0.215-0.363
				c-0.144-0.098-0.346-0.199-0.607-0.303l-0.137-0.059c0.052-0.157,0.124-0.346,0.216-0.568c0.091-0.222,0.189-0.431,0.293-0.627
				c-0.666-0.091-1.25-0.284-1.753-0.578c-0.503-0.293-0.924-0.669-1.264-1.126c-0.34-0.457-0.594-0.983-0.764-1.577
				c-0.17-0.594-0.255-1.244-0.255-1.949c0-0.783,0.114-1.501,0.343-2.155c0.229-0.653,0.552-1.217,0.97-1.694
				c0.418-0.477,0.931-0.849,1.538-1.117c0.607-0.268,1.283-0.401,2.028-0.401c0.457,0,0.914,0.039,1.371,0.118
				c0.457,0.078,0.895,0.202,1.313,0.372l-0.412,1.547c-0.274-0.13-0.591-0.235-0.95-0.313c-0.359-0.078-0.742-0.117-1.146-0.117
				c-1.019,0-1.799,0.32-2.341,0.959c-0.542,0.64-0.813,1.574-0.813,2.801c0,0.549,0.062,1.052,0.186,1.508
				c0.124,0.458,0.32,0.849,0.587,1.176c0.268,0.326,0.61,0.578,1.028,0.754s0.927,0.265,1.528,0.265
				c0.483,0,0.92-0.046,1.313-0.137c0.392-0.091,0.698-0.189,0.92-0.294l0.255,1.528c-0.105,0.053-0.245,0.108-0.421,0.167
				c-0.176,0.059-0.375,0.111-0.597,0.157c-0.223,0.046-0.46,0.085-0.715,0.118C433.915,18.625,433.663,18.647,433.415,18.661z"/>
			<path fill="#FFFFFF" d="M441.152,7.985c0.731,0,1.349,0.095,1.852,0.284c0.502,0.189,0.907,0.457,1.214,0.803
				c0.307,0.346,0.525,0.758,0.656,1.234c0.13,0.477,0.196,1.002,0.196,1.577v6.367c-0.157,0.026-0.375,0.062-0.656,0.108
				s-0.597,0.088-0.95,0.127c-0.353,0.04-0.734,0.075-1.146,0.108c-0.411,0.032-0.819,0.049-1.224,0.049
				c-0.575,0-1.104-0.059-1.587-0.176c-0.483-0.117-0.901-0.304-1.253-0.558c-0.353-0.255-0.627-0.591-0.823-1.009
				s-0.294-0.921-0.294-1.508c0-0.562,0.114-1.045,0.343-1.45s0.539-0.731,0.931-0.979c0.392-0.248,0.849-0.431,1.371-0.548
				c0.522-0.118,1.071-0.176,1.646-0.176c0.183,0,0.372,0.01,0.568,0.029c0.196,0.02,0.382,0.046,0.559,0.078
				c0.176,0.033,0.33,0.062,0.46,0.088c0.13,0.026,0.222,0.046,0.274,0.059v-0.509c0-0.3-0.033-0.598-0.098-0.891
				c-0.065-0.294-0.183-0.555-0.353-0.784c-0.17-0.229-0.402-0.412-0.696-0.548c-0.293-0.137-0.676-0.206-1.146-0.206
				c-0.601,0-1.126,0.042-1.577,0.127s-0.787,0.173-1.009,0.265l-0.215-1.508c0.235-0.104,0.626-0.206,1.175-0.304
				C439.918,8.034,440.513,7.985,441.152,7.985z M444.679,4.498c-0.065,0.157-0.154,0.34-0.265,0.548
				c-0.111,0.209-0.251,0.401-0.421,0.578c-0.17,0.176-0.369,0.326-0.598,0.45c-0.229,0.125-0.48,0.186-0.754,0.186
				c-0.261,0-0.506-0.045-0.734-0.137s-0.447-0.189-0.656-0.294c-0.222-0.104-0.411-0.183-0.568-0.235
				c-0.157-0.052-0.307-0.078-0.451-0.078c-0.222,0-0.428,0.091-0.617,0.274c-0.189,0.183-0.336,0.379-0.441,0.587l-0.94-0.47
				c0.052-0.157,0.137-0.339,0.254-0.548c0.118-0.209,0.261-0.402,0.431-0.578c0.169-0.176,0.369-0.326,0.598-0.45
				c0.228-0.124,0.479-0.186,0.754-0.186c0.261,0,0.506,0.046,0.735,0.137c0.228,0.092,0.447,0.189,0.656,0.294
				c0.222,0.105,0.412,0.183,0.568,0.235s0.307,0.078,0.451,0.078c0.222,0,0.427-0.091,0.617-0.274
				c0.189-0.183,0.336-0.378,0.441-0.587L444.679,4.498z M441.309,17.113c0.431,0,0.813-0.01,1.146-0.029s0.61-0.056,0.833-0.108
				V13.94c-0.13-0.065-0.343-0.121-0.637-0.167c-0.293-0.046-0.649-0.069-1.067-0.069c-0.274,0-0.565,0.02-0.872,0.059
				c-0.307,0.039-0.588,0.121-0.842,0.245c-0.255,0.125-0.467,0.294-0.637,0.509c-0.17,0.216-0.255,0.5-0.255,0.853
				c0,0.653,0.209,1.106,0.627,1.361C440.023,16.986,440.591,17.113,441.309,17.113z"/>
			<path fill="#FFFFFF" d="M457.078,13.333c0,0.81-0.118,1.541-0.353,2.194c-0.235,0.653-0.565,1.215-0.989,1.685
				c-0.425,0.47-0.931,0.833-1.518,1.087c-0.588,0.255-1.228,0.382-1.92,0.382c-0.692,0-1.332-0.127-1.92-0.382
				c-0.587-0.254-1.094-0.617-1.518-1.087c-0.424-0.47-0.754-1.032-0.989-1.685c-0.235-0.653-0.353-1.384-0.353-2.194
				c0-0.796,0.118-1.524,0.353-2.184c0.235-0.659,0.565-1.224,0.989-1.694s0.931-0.833,1.518-1.087
				c0.588-0.254,1.228-0.382,1.92-0.382c0.692,0,1.332,0.127,1.92,0.382c0.587,0.255,1.093,0.617,1.518,1.087
				c0.424,0.47,0.754,1.035,0.989,1.694C456.96,11.808,457.078,12.536,457.078,13.333z M455.178,13.333
				c0-1.149-0.258-2.06-0.773-2.732c-0.516-0.673-1.218-1.009-2.106-1.009c-0.888,0-1.59,0.336-2.106,1.009
				c-0.516,0.672-0.773,1.583-0.773,2.732c0,1.149,0.257,2.061,0.773,2.733c0.516,0.673,1.218,1.009,2.106,1.009
				c0.888,0,1.59-0.336,2.106-1.009C454.92,15.393,455.178,14.482,455.178,13.333z"/>
			<path fill="#FFFFFF" d="M470.751,3.538l1.822-0.313v14.907c-0.418,0.118-0.953,0.235-1.606,0.353
				c-0.653,0.118-1.404,0.176-2.253,0.176c-0.784,0-1.489-0.124-2.116-0.372s-1.163-0.601-1.606-1.058s-0.787-1.016-1.028-1.675
				c-0.242-0.66-0.362-1.401-0.362-2.224c0-0.784,0.101-1.501,0.304-2.155c0.202-0.653,0.5-1.214,0.891-1.685
				c0.392-0.47,0.872-0.835,1.44-1.097c0.568-0.261,1.218-0.392,1.949-0.392c0.587,0,1.106,0.078,1.557,0.235
				s0.787,0.307,1.009,0.451V3.538z M470.751,10.394c-0.222-0.183-0.542-0.359-0.959-0.529c-0.418-0.169-0.875-0.254-1.372-0.254
				c-0.522,0-0.97,0.095-1.342,0.284c-0.372,0.189-0.676,0.451-0.911,0.784c-0.235,0.333-0.405,0.728-0.51,1.185
				c-0.104,0.458-0.156,0.947-0.156,1.469c0,1.188,0.293,2.106,0.881,2.752c0.587,0.646,1.371,0.97,2.351,0.97
				c0.496,0,0.911-0.023,1.244-0.069c0.333-0.045,0.59-0.094,0.773-0.147V10.394z"/>
			<path fill="#FFFFFF" d="M484.698,13.333c0,0.81-0.118,1.541-0.353,2.194c-0.235,0.653-0.565,1.215-0.989,1.685
				c-0.425,0.47-0.931,0.833-1.518,1.087c-0.588,0.255-1.228,0.382-1.92,0.382c-0.692,0-1.332-0.127-1.92-0.382
				c-0.587-0.254-1.094-0.617-1.518-1.087c-0.424-0.47-0.754-1.032-0.989-1.685c-0.235-0.653-0.353-1.384-0.353-2.194
				c0-0.796,0.118-1.524,0.353-2.184c0.235-0.659,0.565-1.224,0.989-1.694s0.931-0.833,1.518-1.087
				c0.588-0.254,1.228-0.382,1.92-0.382c0.692,0,1.332,0.127,1.92,0.382c0.587,0.255,1.093,0.617,1.518,1.087
				c0.424,0.47,0.754,1.035,0.989,1.694C484.581,11.808,484.698,12.536,484.698,13.333z M482.798,13.333
				c0-1.149-0.258-2.06-0.773-2.732c-0.516-0.673-1.218-1.009-2.106-1.009c-0.888,0-1.59,0.336-2.106,1.009
				c-0.516,0.672-0.773,1.583-0.773,2.732c0,1.149,0.257,2.061,0.773,2.733c0.516,0.673,1.218,1.009,2.106,1.009
				c0.888,0,1.59-0.336,2.106-1.009C482.54,15.393,482.798,14.482,482.798,13.333z"/>
		</g>
	</g>
</g>
</svg>
